%
M48
M72
T01C0.01600
T02C0.02362
T03C0.02756
T04C0.03150
T05C0.03346
T06C0.03543
T07C0.03740
T08C0.03937
T09C0.04000
%
T01
X58945Y58299
X65047Y84677
X65047Y104362
X75120Y139729
X107488Y173454
X113530Y176454
X116228Y155543
X83948Y189157
X73906Y186449
X94164Y192063
X171387Y262724
X181085Y271829
X185655Y270812
X190056Y272412
X184855Y275213
X183349Y282147
X188217Y283747
X181635Y288148
X188342Y293086
X200448Y293355
X208542Y288513
X196057Y272412
X173743Y274837
X157706Y279252
X151996Y276245
X124939Y296410
X125721Y307008
X112291Y309754
X97724Y302787
X97941Y280046
X61110Y267748
X25677Y267748
X25677Y334677
X121120Y325273
X135216Y333512
X137926Y329974
X144952Y327300
X149850Y323859
X148470Y317763
X159314Y319073
X132502Y340266
X140106Y343323
X144508Y343536
X171346Y343859
X188161Y339101
X203626Y335144
X234146Y334843
X265452Y321488
X270455Y318542
X285188Y331217
X298361Y343762
X348512Y358299
X376071Y358299
X399693Y358299
X399693Y334677
X399693Y291370
X399693Y267748
X364260Y267748
X332764Y267748
X316631Y252100
X262173Y258988
X255546Y255117
X242715Y252272
X232530Y251822
X244254Y266040
X234557Y287230
X227104Y289250
X260856Y286887
X364260Y202787
X344575Y159480
X324890Y159480
X301268Y159480
X277646Y159480
X261111Y147370
X256266Y149961
X253065Y158437
X238201Y152042
X230795Y162433
X211677Y179642
X207276Y179642
X202876Y179642
X183156Y187325
X198906Y155543
X234956Y190445
X288788Y136744
X313079Y120110
X319200Y93072
X312454Y91876
X350912Y102217
X353320Y128794
X357849Y129011
X362348Y130634
X366657Y132549
X358567Y140547
X351365Y137998
X229937Y38757
X226887Y42870
X225259Y51008
X223718Y57009
X155402Y41370
X21740Y76803
X383945Y9874
X395756Y9874
T02
X72921Y340583
X72921Y348457
X72921Y356331
X72921Y364205
X45362Y364205
X45362Y356331
X45362Y348457
X45362Y340583
T03
X83551Y329441
X83551Y319441
X43787Y277472
X43787Y267472
T04
X245238Y58925
X237613Y52925
X245238Y46925
X237613Y41925
T05
X233866Y12000
X243866Y12000
X253866Y12000
X263866Y12000
X273866Y12000
X283866Y12000
X303866Y12000
X313866Y12000
X323866Y12000
X333866Y12000
X343866Y12000
X353866Y12000
X363866Y12000
X373866Y12000
X223866Y12000
X213866Y12000
X193866Y12000
X183866Y12000
X173866Y12000
X163866Y12000
X153866Y12000
X143866Y12000
X133866Y12000
X123866Y12000
X127866Y202000
X137866Y202000
X147866Y202000
X157866Y202000
X167866Y202000
X177866Y202000
X193866Y202000
X203866Y202000
X213866Y202000
X223866Y202000
X233866Y202000
X243866Y202000
X253866Y202000
X263866Y202000
X283866Y202000
X293866Y202000
X303866Y202000
X313866Y202000
X323866Y202000
X333866Y202000
X343866Y202000
X353866Y202000
X117866Y202000
X107866Y202000
X97866Y202000
X87866Y202000
X30008Y296882
X30008Y311843
T06
X137882Y191291
X148118Y191291
X157961Y191291
X157961Y151291
X148118Y151291
X137882Y151291
X204575Y56252
X204575Y16252
X288472Y288181
X288472Y318181
X255598Y313614
X249693Y305740
X255598Y297866
X243787Y297866
X237882Y305740
X231976Y297866
X226071Y305740
X220165Y297866
X214260Y305740
X208354Y297866
X202449Y305740
X196543Y297866
X190638Y305740
X184732Y297866
X178827Y305740
X184732Y313614
X178827Y321488
X172921Y313614
X167016Y305740
X172921Y297866
X196543Y313614
X190638Y321488
X202449Y321488
X208354Y313614
X214260Y321488
X220165Y313614
X226071Y321488
X231976Y313614
X237882Y321488
X243787Y313614
X249693Y321488
X167016Y321488
T07
X383866Y202000
X383866Y192000
X383866Y182000
X383866Y172000
X383866Y162000
X383866Y152000
X383866Y142000
X383866Y132000
X383866Y122000
X383866Y112000
X383866Y102000
X383866Y92000
X383866Y82000
X383866Y72000
X383866Y62000
X383866Y52000
X383866Y42000
X383866Y32000
X393866Y32000
X393866Y42000
X393866Y52000
X393866Y62000
X393866Y72000
X393866Y82000
X393866Y92000
X393866Y102000
X393866Y112000
X393866Y122000
X393866Y132000
X393866Y142000
X393866Y152000
X393866Y162000
X393866Y172000
X393866Y182000
X393866Y192000
X393866Y202000
T08
X357173Y123014
X357181Y115671
X347339Y115671
X347331Y123014
X337488Y123014
X337496Y115671
X327654Y115671
X327646Y123014
X327646Y95947
X337488Y95947
X347331Y95947
X357173Y95947
X298118Y95947
X288276Y95947
X278433Y95947
X268591Y95947
X258748Y95947
X248906Y95947
X239063Y95947
X229220Y95947
X219378Y95947
X209535Y95947
X199693Y95947
X189850Y95947
X180008Y95947
X170165Y95947
X160323Y95947
X150480Y95947
X140638Y95947
X130795Y95947
X120953Y95947
X111110Y95947
X101268Y95947
X91425Y95947
X81583Y95947
X81591Y115671
X81583Y123014
X91425Y123014
X91433Y115671
X101276Y115671
X101268Y123014
X111110Y123014
X111118Y115671
X120961Y115671
X120953Y123014
X130795Y123014
X130803Y115671
X140646Y115671
X140638Y123014
X150480Y123014
X150488Y115671
X160331Y115671
X160323Y123014
X170165Y123014
X170173Y115671
X180016Y115671
X180008Y123014
X189850Y123014
X189858Y115671
X199701Y115671
X199693Y123014
X209535Y123014
X209543Y115671
X219386Y115671
X219378Y123014
X229220Y123014
X229228Y115671
X239071Y115671
X239063Y123014
X248906Y123014
X248913Y115671
X258756Y115671
X258748Y123014
X268591Y123014
X268598Y115671
X278441Y115671
X278433Y123014
X288276Y123014
X288283Y115671
X298126Y115671
X298118Y123014
X52055Y123014
X52063Y115671
X42220Y115671
X42213Y123014
X32370Y123014
X32378Y115671
X22535Y115671
X22528Y123014
X22528Y95947
X32370Y95947
X42213Y95947
X52055Y95947
T09
X23866Y12000
X23866Y22000
X23866Y32000
X23866Y42000
X23866Y52000
X23866Y62000
X33866Y62000
X43866Y62000
X43866Y52000
X33866Y52000
X33866Y42000
X43866Y42000
X43866Y32000
X33866Y32000
X33866Y22000
X33866Y12000
X43866Y12000
X43866Y22000
X53866Y22000
X53866Y12000
X63866Y12000
X63866Y22000
X63866Y32000
X53866Y32000
X53866Y42000
X53866Y52000
X63866Y52000
X63866Y42000
X73866Y42000
X73866Y52000
X83866Y52000
X83866Y42000
X93866Y42000
X93866Y52000
X93866Y62000
X103866Y62000
X113866Y62000
X113866Y52000
X103866Y52000
X103866Y42000
X113866Y42000
X113866Y32000
X103866Y32000
X93866Y32000
X83866Y32000
X73866Y32000
X73866Y22000
X73866Y12000
X83866Y12000
X83866Y22000
X93866Y22000
X93866Y12000
X103866Y12000
X103866Y22000
X113866Y22000
X113866Y12000
X123866Y27000
X123866Y37000
X123866Y47000
X123866Y57000
X163665Y56176
X163665Y38376
X189265Y38376
X189265Y56176
X294614Y51882
X294614Y41882
X304614Y41882
X304614Y51882
X314614Y51882
X314614Y41882
X324614Y41882
X324614Y51882
X334614Y51882
X334614Y41882
X344614Y41882
X344614Y51882
X354614Y51882
X354614Y41882
X364614Y41882
X364614Y51882
X364575Y61724
X354575Y61724
X344575Y61724
X238657Y172079
X227657Y172079
X324024Y189008
X334024Y189008
X77921Y202000
X67921Y202000
X57921Y202000
X47921Y202000
X37921Y202000
X27921Y202000
X17921Y202000
X63079Y173417
X72921Y173417
X72921Y163417
X63079Y163417
X63079Y153417
X72921Y153417
M30
