G75*
%MOIN*%
%OFA0B0*%
%FSLAX25Y25*%
%IPPOS*%
%LPD*%
%AMOC8*
5,1,8,0,0,1.08239X$1,22.5*
%
%ADD10C,0.01000*%
%ADD11R,2.36220X0.32283*%
%ADD12R,2.57283X0.27362*%
%ADD13C,0.06546*%
%ADD14OC8,0.07400*%
%ADD15OC8,0.07200*%
%ADD16C,0.08200*%
%ADD17C,0.07400*%
%ADD18C,0.07200*%
%ADD19R,0.08800X0.03400*%
%ADD20R,0.07137X0.07137*%
%ADD21C,0.00500*%
%ADD22C,0.07800*%
%ADD23R,0.07100X0.05400*%
%ADD24R,0.08674X0.28359*%
%ADD25R,0.06706X0.28359*%
%ADD26C,0.00000*%
%ADD27C,0.04146*%
%ADD28R,0.07300X0.07300*%
%ADD29C,0.07300*%
%ADD30C,0.06743*%
%ADD31R,0.06743X0.06743*%
D10*
X0013866Y0005937D02*
X0013866Y0207906D01*
X0013868Y0208030D01*
X0013874Y0208153D01*
X0013883Y0208277D01*
X0013897Y0208399D01*
X0013914Y0208522D01*
X0013936Y0208644D01*
X0013961Y0208765D01*
X0013990Y0208885D01*
X0014022Y0209004D01*
X0014059Y0209123D01*
X0014099Y0209240D01*
X0014142Y0209355D01*
X0014190Y0209470D01*
X0014241Y0209582D01*
X0014295Y0209693D01*
X0014353Y0209803D01*
X0014414Y0209910D01*
X0014479Y0210016D01*
X0014547Y0210119D01*
X0014618Y0210220D01*
X0014692Y0210319D01*
X0014769Y0210416D01*
X0014850Y0210510D01*
X0014933Y0210601D01*
X0015019Y0210690D01*
X0015108Y0210776D01*
X0015199Y0210859D01*
X0015293Y0210940D01*
X0015390Y0211017D01*
X0015489Y0211091D01*
X0015590Y0211162D01*
X0015693Y0211230D01*
X0015799Y0211295D01*
X0015906Y0211356D01*
X0016016Y0211414D01*
X0016127Y0211468D01*
X0016239Y0211519D01*
X0016354Y0211567D01*
X0016469Y0211610D01*
X0016586Y0211650D01*
X0016705Y0211687D01*
X0016824Y0211719D01*
X0016944Y0211748D01*
X0017065Y0211773D01*
X0017187Y0211795D01*
X0017310Y0211812D01*
X0017432Y0211826D01*
X0017556Y0211835D01*
X0017679Y0211841D01*
X0017803Y0211843D01*
X0050087Y0211843D01*
X0050087Y0258299D01*
X0016228Y0258299D01*
X0016228Y0276409D01*
X0026071Y0276409D01*
X0026071Y0284283D01*
X0013866Y0284283D01*
X0013866Y0325228D01*
X0016228Y0325228D01*
X0016228Y0350819D01*
X0026071Y0350819D01*
X0026071Y0358693D01*
X0013866Y0358693D01*
X0013866Y0366173D01*
X0037488Y0366173D01*
X0037488Y0374441D01*
X0383945Y0374441D01*
X0383945Y0366173D01*
X0407567Y0366173D01*
X0407567Y0326016D01*
X0394969Y0326016D01*
X0394969Y0318142D01*
X0403630Y0318142D01*
X0403630Y0305150D01*
X0393787Y0305150D01*
X0393787Y0297276D01*
X0403630Y0297276D01*
X0403630Y0277197D01*
X0407567Y0277197D01*
X0407567Y0258299D01*
X0371346Y0258299D01*
X0371346Y0211843D01*
X0394181Y0211843D01*
X0403630Y0202394D01*
X0403630Y0161843D01*
X0407567Y0152394D01*
X0407567Y0017000D01*
X0403866Y0007000D01*
X0403866Y0005937D01*
X0403864Y0005813D01*
X0403858Y0005690D01*
X0403849Y0005566D01*
X0403835Y0005444D01*
X0403818Y0005321D01*
X0403796Y0005199D01*
X0403771Y0005078D01*
X0403742Y0004958D01*
X0403710Y0004839D01*
X0403673Y0004720D01*
X0403633Y0004603D01*
X0403590Y0004488D01*
X0403542Y0004373D01*
X0403491Y0004261D01*
X0403437Y0004150D01*
X0403379Y0004040D01*
X0403318Y0003933D01*
X0403253Y0003827D01*
X0403185Y0003724D01*
X0403114Y0003623D01*
X0403040Y0003524D01*
X0402963Y0003427D01*
X0402882Y0003333D01*
X0402799Y0003242D01*
X0402713Y0003153D01*
X0402624Y0003067D01*
X0402533Y0002984D01*
X0402439Y0002903D01*
X0402342Y0002826D01*
X0402243Y0002752D01*
X0402142Y0002681D01*
X0402039Y0002613D01*
X0401933Y0002548D01*
X0401826Y0002487D01*
X0401716Y0002429D01*
X0401605Y0002375D01*
X0401493Y0002324D01*
X0401378Y0002276D01*
X0401263Y0002233D01*
X0401146Y0002193D01*
X0401027Y0002156D01*
X0400908Y0002124D01*
X0400788Y0002095D01*
X0400667Y0002070D01*
X0400545Y0002048D01*
X0400422Y0002031D01*
X0400300Y0002017D01*
X0400176Y0002008D01*
X0400053Y0002002D01*
X0399929Y0002000D01*
X0017803Y0002000D01*
X0017679Y0002002D01*
X0017556Y0002008D01*
X0017432Y0002017D01*
X0017310Y0002031D01*
X0017187Y0002048D01*
X0017065Y0002070D01*
X0016944Y0002095D01*
X0016824Y0002124D01*
X0016705Y0002156D01*
X0016586Y0002193D01*
X0016469Y0002233D01*
X0016354Y0002276D01*
X0016239Y0002324D01*
X0016127Y0002375D01*
X0016016Y0002429D01*
X0015906Y0002487D01*
X0015799Y0002548D01*
X0015693Y0002613D01*
X0015590Y0002681D01*
X0015489Y0002752D01*
X0015390Y0002826D01*
X0015293Y0002903D01*
X0015199Y0002984D01*
X0015108Y0003067D01*
X0015019Y0003153D01*
X0014933Y0003242D01*
X0014850Y0003333D01*
X0014769Y0003427D01*
X0014692Y0003524D01*
X0014618Y0003623D01*
X0014547Y0003724D01*
X0014479Y0003827D01*
X0014414Y0003933D01*
X0014353Y0004040D01*
X0014295Y0004150D01*
X0014241Y0004261D01*
X0014190Y0004373D01*
X0014142Y0004488D01*
X0014099Y0004603D01*
X0014059Y0004720D01*
X0014022Y0004839D01*
X0013990Y0004958D01*
X0013961Y0005078D01*
X0013936Y0005199D01*
X0013914Y0005321D01*
X0013897Y0005444D01*
X0013883Y0005566D01*
X0013874Y0005690D01*
X0013868Y0005813D01*
X0013866Y0005937D01*
X0087882Y0211843D02*
X0087882Y0258299D01*
X0092606Y0258299D01*
X0092606Y0216567D01*
X0328827Y0216567D01*
X0328827Y0258299D01*
X0333551Y0258299D01*
X0333551Y0211843D01*
X0087882Y0211843D01*
D11*
X0210717Y0232315D03*
X0210717Y0232315D03*
D12*
X0210618Y0361154D03*
D13*
X0213866Y0204873D02*
X0213866Y0199127D01*
X0223866Y0199127D02*
X0223866Y0204873D01*
X0233866Y0204873D02*
X0233866Y0199127D01*
X0243866Y0199127D02*
X0243866Y0204873D01*
X0253866Y0204873D02*
X0253866Y0199127D01*
X0263866Y0199127D02*
X0263866Y0204873D01*
X0283866Y0204873D02*
X0283866Y0199127D01*
X0293866Y0199127D02*
X0293866Y0204873D01*
X0303866Y0204873D02*
X0303866Y0199127D01*
X0313866Y0199127D02*
X0313866Y0204873D01*
X0323866Y0204873D02*
X0323866Y0199127D01*
X0333866Y0199127D02*
X0333866Y0204873D01*
X0343866Y0204873D02*
X0343866Y0199127D01*
X0353866Y0199127D02*
X0353866Y0204873D01*
X0203866Y0204873D02*
X0203866Y0199127D01*
X0193866Y0199127D02*
X0193866Y0204873D01*
X0177866Y0204873D02*
X0177866Y0199127D01*
X0167866Y0199127D02*
X0167866Y0204873D01*
X0157866Y0204873D02*
X0157866Y0199127D01*
X0147866Y0199127D02*
X0147866Y0204873D01*
X0137866Y0204873D02*
X0137866Y0199127D01*
X0127866Y0199127D02*
X0127866Y0204873D01*
X0117866Y0204873D02*
X0117866Y0199127D01*
X0107866Y0199127D02*
X0107866Y0204873D01*
X0097866Y0204873D02*
X0097866Y0199127D01*
X0087866Y0199127D02*
X0087866Y0204873D01*
X0123866Y0014873D02*
X0123866Y0009127D01*
X0133866Y0009127D02*
X0133866Y0014873D01*
X0143866Y0014873D02*
X0143866Y0009127D01*
X0153866Y0009127D02*
X0153866Y0014873D01*
X0163866Y0014873D02*
X0163866Y0009127D01*
X0173866Y0009127D02*
X0173866Y0014873D01*
X0183866Y0014873D02*
X0183866Y0009127D01*
X0193866Y0009127D02*
X0193866Y0014873D01*
X0213866Y0014873D02*
X0213866Y0009127D01*
X0223866Y0009127D02*
X0223866Y0014873D01*
X0233866Y0014873D02*
X0233866Y0009127D01*
X0243866Y0009127D02*
X0243866Y0014873D01*
X0253866Y0014873D02*
X0253866Y0009127D01*
X0263866Y0009127D02*
X0263866Y0014873D01*
X0273866Y0014873D02*
X0273866Y0009127D01*
X0283866Y0009127D02*
X0283866Y0014873D01*
X0303866Y0014873D02*
X0303866Y0009127D01*
X0313866Y0009127D02*
X0313866Y0014873D01*
X0323866Y0014873D02*
X0323866Y0009127D01*
X0333866Y0009127D02*
X0333866Y0014873D01*
X0343866Y0014873D02*
X0343866Y0009127D01*
X0353866Y0009127D02*
X0353866Y0014873D01*
X0363866Y0014873D02*
X0363866Y0009127D01*
X0373866Y0009127D02*
X0373866Y0014873D01*
D14*
X0383866Y0032000D03*
X0383866Y0042000D03*
X0383866Y0052000D03*
X0383866Y0062000D03*
X0383866Y0072000D03*
X0383866Y0082000D03*
X0383866Y0092000D03*
X0383866Y0102000D03*
X0383866Y0112000D03*
X0383866Y0122000D03*
X0383866Y0132000D03*
X0383866Y0142000D03*
X0383866Y0152000D03*
X0383866Y0162000D03*
X0383866Y0172000D03*
X0383866Y0182000D03*
X0383866Y0192000D03*
X0383866Y0202000D03*
X0393866Y0202000D03*
X0393866Y0192000D03*
X0393866Y0182000D03*
X0393866Y0172000D03*
X0393866Y0162000D03*
X0393866Y0152000D03*
X0393866Y0142000D03*
X0393866Y0132000D03*
X0393866Y0122000D03*
X0393866Y0112000D03*
X0393866Y0102000D03*
X0393866Y0092000D03*
X0393866Y0082000D03*
X0393866Y0072000D03*
X0393866Y0062000D03*
X0393866Y0052000D03*
X0393866Y0042000D03*
X0393866Y0032000D03*
X0237613Y0052925D03*
D15*
X0294614Y0051882D03*
X0294614Y0041882D03*
X0304614Y0041882D03*
X0304614Y0051882D03*
X0314614Y0051882D03*
X0314614Y0041882D03*
X0324614Y0041882D03*
X0324614Y0051882D03*
X0334614Y0051882D03*
X0334614Y0041882D03*
X0344614Y0041882D03*
X0344614Y0051882D03*
X0354614Y0051882D03*
X0354614Y0041882D03*
X0364614Y0041882D03*
X0364614Y0051882D03*
D16*
X0204575Y0056252D03*
X0189265Y0056176D03*
X0189265Y0038376D03*
X0204575Y0016252D03*
X0163665Y0038376D03*
X0163665Y0056176D03*
X0157961Y0151291D03*
X0148118Y0151291D03*
X0137882Y0151291D03*
X0137882Y0191291D03*
X0148118Y0191291D03*
X0157961Y0191291D03*
X0288472Y0288181D03*
X0288472Y0318181D03*
D17*
X0245238Y0058925D03*
X0245238Y0046925D03*
X0237613Y0041925D03*
D18*
X0324024Y0185808D02*
X0324024Y0192208D01*
X0334024Y0192208D02*
X0334024Y0185808D01*
X0077921Y0198800D02*
X0077921Y0205200D01*
X0067921Y0205200D02*
X0067921Y0198800D01*
X0057921Y0198800D02*
X0057921Y0205200D01*
X0047921Y0205200D02*
X0047921Y0198800D01*
X0037921Y0198800D02*
X0037921Y0205200D01*
X0027921Y0205200D02*
X0027921Y0198800D01*
X0017921Y0198800D02*
X0017921Y0205200D01*
D19*
X0220664Y0163437D03*
X0220664Y0158437D03*
X0220664Y0153437D03*
X0220664Y0148437D03*
X0244864Y0148437D03*
X0244864Y0153437D03*
X0244864Y0158437D03*
X0244864Y0163437D03*
D20*
X0248906Y0123014D03*
X0248913Y0115671D03*
X0239071Y0115671D03*
X0239063Y0123014D03*
X0229220Y0123014D03*
X0229228Y0115671D03*
X0219386Y0115671D03*
X0219378Y0123014D03*
X0209535Y0123014D03*
X0209543Y0115671D03*
X0199701Y0115671D03*
X0199693Y0123014D03*
X0189850Y0123014D03*
X0189858Y0115671D03*
X0180016Y0115671D03*
X0180008Y0123014D03*
X0170165Y0123014D03*
X0170173Y0115671D03*
X0160331Y0115671D03*
X0160323Y0123014D03*
X0150480Y0123014D03*
X0150488Y0115671D03*
X0140646Y0115671D03*
X0140638Y0123014D03*
X0130795Y0123014D03*
X0130803Y0115671D03*
X0120961Y0115671D03*
X0120953Y0123014D03*
X0111110Y0123014D03*
X0111118Y0115671D03*
X0101276Y0115671D03*
X0101268Y0123014D03*
X0091425Y0123014D03*
X0091433Y0115671D03*
X0081591Y0115671D03*
X0081583Y0123014D03*
X0081583Y0095947D03*
X0091425Y0095947D03*
X0101268Y0095947D03*
X0111110Y0095947D03*
X0120953Y0095947D03*
X0130795Y0095947D03*
X0140638Y0095947D03*
X0150480Y0095947D03*
X0160323Y0095947D03*
X0170165Y0095947D03*
X0180008Y0095947D03*
X0189850Y0095947D03*
X0199693Y0095947D03*
X0209535Y0095947D03*
X0219378Y0095947D03*
X0229220Y0095947D03*
X0239063Y0095947D03*
X0248906Y0095947D03*
X0258748Y0095947D03*
X0268591Y0095947D03*
X0278433Y0095947D03*
X0288276Y0095947D03*
X0298118Y0095947D03*
X0298126Y0115671D03*
X0298118Y0123014D03*
X0288276Y0123014D03*
X0288283Y0115671D03*
X0278441Y0115671D03*
X0278433Y0123014D03*
X0268591Y0123014D03*
X0268598Y0115671D03*
X0258756Y0115671D03*
X0258748Y0123014D03*
X0327646Y0123014D03*
X0327654Y0115671D03*
X0337496Y0115671D03*
X0337488Y0123014D03*
X0347331Y0123014D03*
X0347339Y0115671D03*
X0357181Y0115671D03*
X0357173Y0123014D03*
X0357173Y0095947D03*
X0347331Y0095947D03*
X0337488Y0095947D03*
X0327646Y0095947D03*
X0052055Y0095947D03*
X0042213Y0095947D03*
X0032370Y0095947D03*
X0022528Y0095947D03*
X0022535Y0115671D03*
X0022528Y0123014D03*
X0032370Y0123014D03*
X0032378Y0115671D03*
X0042220Y0115671D03*
X0042213Y0123014D03*
X0052055Y0123014D03*
X0052063Y0115671D03*
D21*
X0225929Y0171639D02*
X0225878Y0172019D01*
X0225913Y0172419D01*
X0226036Y0172802D01*
X0226241Y0173147D01*
X0226518Y0173439D01*
X0226853Y0173661D01*
X0227229Y0173803D01*
X0227628Y0173858D01*
X0228021Y0173807D01*
X0228392Y0173670D01*
X0228724Y0173454D01*
X0229000Y0173169D01*
X0229205Y0172829D01*
X0229330Y0172453D01*
X0229367Y0172059D01*
X0229321Y0171675D01*
X0229190Y0171312D01*
X0228982Y0170986D01*
X0228706Y0170716D01*
X0228378Y0170513D01*
X0228012Y0170388D01*
X0227628Y0170348D01*
X0227246Y0170382D01*
X0226882Y0170500D01*
X0226553Y0170697D01*
X0226275Y0170961D01*
X0226064Y0171280D01*
X0225929Y0171639D01*
X0225984Y0171494D02*
X0229256Y0171494D01*
X0229359Y0171992D02*
X0225881Y0171992D01*
X0225936Y0172491D02*
X0229317Y0172491D01*
X0229108Y0172989D02*
X0226147Y0172989D01*
X0226592Y0173488D02*
X0228672Y0173488D01*
X0228988Y0170995D02*
X0226253Y0170995D01*
X0226893Y0170497D02*
X0228331Y0170497D01*
X0236949Y0171639D02*
X0236898Y0172019D01*
X0236933Y0172419D01*
X0237056Y0172802D01*
X0237261Y0173147D01*
X0237538Y0173439D01*
X0237873Y0173661D01*
X0238249Y0173803D01*
X0238648Y0173858D01*
X0239041Y0173807D01*
X0239413Y0173670D01*
X0239744Y0173454D01*
X0240020Y0173169D01*
X0240225Y0172829D01*
X0240350Y0172453D01*
X0240387Y0172059D01*
X0240341Y0171675D01*
X0240210Y0171312D01*
X0240002Y0170986D01*
X0239726Y0170716D01*
X0239398Y0170513D01*
X0239032Y0170388D01*
X0238648Y0170348D01*
X0238266Y0170382D01*
X0237902Y0170500D01*
X0237573Y0170697D01*
X0237296Y0170961D01*
X0237084Y0171280D01*
X0236949Y0171639D01*
X0237004Y0171494D02*
X0240276Y0171494D01*
X0240379Y0171992D02*
X0236901Y0171992D01*
X0236956Y0172491D02*
X0240337Y0172491D01*
X0240128Y0172989D02*
X0237167Y0172989D01*
X0237612Y0173488D02*
X0239692Y0173488D01*
X0240008Y0170995D02*
X0237273Y0170995D01*
X0237913Y0170497D02*
X0239351Y0170497D01*
D22*
X0344575Y0061724D03*
X0354575Y0061724D03*
X0364575Y0061724D03*
X0123866Y0057000D03*
X0123866Y0047000D03*
X0123866Y0037000D03*
X0123866Y0027000D03*
X0113866Y0022000D03*
X0103866Y0022000D03*
X0103866Y0012000D03*
X0113866Y0012000D03*
X0093866Y0012000D03*
X0083866Y0012000D03*
X0073866Y0012000D03*
X0073866Y0022000D03*
X0083866Y0022000D03*
X0093866Y0022000D03*
X0093866Y0032000D03*
X0083866Y0032000D03*
X0073866Y0032000D03*
X0063866Y0032000D03*
X0053866Y0032000D03*
X0043866Y0032000D03*
X0033866Y0032000D03*
X0023866Y0032000D03*
X0023866Y0022000D03*
X0023866Y0012000D03*
X0033866Y0012000D03*
X0033866Y0022000D03*
X0043866Y0022000D03*
X0043866Y0012000D03*
X0053866Y0012000D03*
X0053866Y0022000D03*
X0063866Y0022000D03*
X0063866Y0012000D03*
X0063866Y0042000D03*
X0053866Y0042000D03*
X0053866Y0052000D03*
X0063866Y0052000D03*
X0073866Y0052000D03*
X0073866Y0042000D03*
X0083866Y0042000D03*
X0083866Y0052000D03*
X0093866Y0052000D03*
X0093866Y0042000D03*
X0103866Y0042000D03*
X0103866Y0052000D03*
X0113866Y0052000D03*
X0113866Y0042000D03*
X0113866Y0032000D03*
X0103866Y0032000D03*
X0103866Y0062000D03*
X0113866Y0062000D03*
X0093866Y0062000D03*
X0043866Y0062000D03*
X0033866Y0062000D03*
X0023866Y0062000D03*
X0023866Y0052000D03*
X0023866Y0042000D03*
X0033866Y0042000D03*
X0033866Y0052000D03*
X0043866Y0052000D03*
X0043866Y0042000D03*
X0063079Y0153417D03*
X0072921Y0153417D03*
X0072921Y0163417D03*
X0063079Y0163417D03*
X0063079Y0173417D03*
X0072921Y0173417D03*
D23*
X0063866Y0074929D03*
X0063866Y0068929D03*
X0063866Y0062929D03*
X0053827Y0062929D03*
X0053827Y0068929D03*
X0053827Y0074929D03*
D24*
X0101465Y0234283D03*
X0319969Y0234283D03*
D25*
X0309142Y0234283D03*
X0299299Y0234283D03*
X0289457Y0234283D03*
X0279614Y0234283D03*
X0269772Y0234283D03*
X0259929Y0234283D03*
X0250087Y0234283D03*
X0240244Y0234283D03*
X0230402Y0234283D03*
X0220559Y0234283D03*
X0210717Y0234283D03*
X0200874Y0234283D03*
X0191031Y0234283D03*
X0181189Y0234283D03*
X0171346Y0234283D03*
X0161504Y0234283D03*
X0151661Y0234283D03*
X0141819Y0234283D03*
X0131976Y0234283D03*
X0122134Y0234283D03*
X0112291Y0234283D03*
X0112291Y0360268D03*
X0102449Y0360268D03*
X0092606Y0360268D03*
X0122134Y0360268D03*
X0131976Y0360268D03*
X0141819Y0360268D03*
X0151661Y0360268D03*
X0161504Y0360268D03*
X0171346Y0360268D03*
X0181189Y0360268D03*
X0191031Y0360268D03*
X0200874Y0360268D03*
X0210717Y0360268D03*
X0220559Y0360268D03*
X0230402Y0360268D03*
X0240244Y0360268D03*
X0250087Y0360268D03*
X0259929Y0360268D03*
X0269772Y0360268D03*
X0279614Y0360268D03*
X0289457Y0360268D03*
X0299299Y0360268D03*
X0309142Y0360268D03*
X0318984Y0360268D03*
X0328827Y0360268D03*
D26*
X0028335Y0311843D02*
X0028337Y0311924D01*
X0028343Y0312006D01*
X0028353Y0312087D01*
X0028367Y0312167D01*
X0028384Y0312246D01*
X0028406Y0312325D01*
X0028431Y0312402D01*
X0028460Y0312479D01*
X0028493Y0312553D01*
X0028530Y0312626D01*
X0028569Y0312697D01*
X0028613Y0312766D01*
X0028659Y0312833D01*
X0028709Y0312897D01*
X0028762Y0312959D01*
X0028818Y0313019D01*
X0028876Y0313075D01*
X0028938Y0313129D01*
X0029002Y0313180D01*
X0029068Y0313227D01*
X0029136Y0313271D01*
X0029207Y0313312D01*
X0029279Y0313349D01*
X0029354Y0313383D01*
X0029429Y0313413D01*
X0029507Y0313439D01*
X0029585Y0313462D01*
X0029664Y0313480D01*
X0029744Y0313495D01*
X0029825Y0313506D01*
X0029906Y0313513D01*
X0029988Y0313516D01*
X0030069Y0313515D01*
X0030150Y0313510D01*
X0030231Y0313501D01*
X0030312Y0313488D01*
X0030392Y0313471D01*
X0030470Y0313451D01*
X0030548Y0313426D01*
X0030625Y0313398D01*
X0030700Y0313366D01*
X0030773Y0313331D01*
X0030844Y0313292D01*
X0030914Y0313249D01*
X0030981Y0313204D01*
X0031047Y0313155D01*
X0031109Y0313103D01*
X0031169Y0313047D01*
X0031226Y0312989D01*
X0031281Y0312929D01*
X0031332Y0312865D01*
X0031380Y0312800D01*
X0031425Y0312732D01*
X0031467Y0312662D01*
X0031505Y0312590D01*
X0031540Y0312516D01*
X0031571Y0312441D01*
X0031598Y0312364D01*
X0031621Y0312286D01*
X0031641Y0312207D01*
X0031657Y0312127D01*
X0031669Y0312046D01*
X0031677Y0311965D01*
X0031681Y0311884D01*
X0031681Y0311802D01*
X0031677Y0311721D01*
X0031669Y0311640D01*
X0031657Y0311559D01*
X0031641Y0311479D01*
X0031621Y0311400D01*
X0031598Y0311322D01*
X0031571Y0311245D01*
X0031540Y0311170D01*
X0031505Y0311096D01*
X0031467Y0311024D01*
X0031425Y0310954D01*
X0031380Y0310886D01*
X0031332Y0310821D01*
X0031281Y0310757D01*
X0031226Y0310697D01*
X0031169Y0310639D01*
X0031109Y0310583D01*
X0031047Y0310531D01*
X0030981Y0310482D01*
X0030914Y0310437D01*
X0030845Y0310394D01*
X0030773Y0310355D01*
X0030700Y0310320D01*
X0030625Y0310288D01*
X0030548Y0310260D01*
X0030470Y0310235D01*
X0030392Y0310215D01*
X0030312Y0310198D01*
X0030231Y0310185D01*
X0030150Y0310176D01*
X0030069Y0310171D01*
X0029988Y0310170D01*
X0029906Y0310173D01*
X0029825Y0310180D01*
X0029744Y0310191D01*
X0029664Y0310206D01*
X0029585Y0310224D01*
X0029507Y0310247D01*
X0029429Y0310273D01*
X0029354Y0310303D01*
X0029279Y0310337D01*
X0029207Y0310374D01*
X0029136Y0310415D01*
X0029068Y0310459D01*
X0029002Y0310506D01*
X0028938Y0310557D01*
X0028876Y0310611D01*
X0028818Y0310667D01*
X0028762Y0310727D01*
X0028709Y0310789D01*
X0028659Y0310853D01*
X0028613Y0310920D01*
X0028569Y0310989D01*
X0028530Y0311060D01*
X0028493Y0311133D01*
X0028460Y0311207D01*
X0028431Y0311284D01*
X0028406Y0311361D01*
X0028384Y0311440D01*
X0028367Y0311519D01*
X0028353Y0311599D01*
X0028343Y0311680D01*
X0028337Y0311762D01*
X0028335Y0311843D01*
X0028335Y0296882D02*
X0028337Y0296963D01*
X0028343Y0297045D01*
X0028353Y0297126D01*
X0028367Y0297206D01*
X0028384Y0297285D01*
X0028406Y0297364D01*
X0028431Y0297441D01*
X0028460Y0297518D01*
X0028493Y0297592D01*
X0028530Y0297665D01*
X0028569Y0297736D01*
X0028613Y0297805D01*
X0028659Y0297872D01*
X0028709Y0297936D01*
X0028762Y0297998D01*
X0028818Y0298058D01*
X0028876Y0298114D01*
X0028938Y0298168D01*
X0029002Y0298219D01*
X0029068Y0298266D01*
X0029136Y0298310D01*
X0029207Y0298351D01*
X0029279Y0298388D01*
X0029354Y0298422D01*
X0029429Y0298452D01*
X0029507Y0298478D01*
X0029585Y0298501D01*
X0029664Y0298519D01*
X0029744Y0298534D01*
X0029825Y0298545D01*
X0029906Y0298552D01*
X0029988Y0298555D01*
X0030069Y0298554D01*
X0030150Y0298549D01*
X0030231Y0298540D01*
X0030312Y0298527D01*
X0030392Y0298510D01*
X0030470Y0298490D01*
X0030548Y0298465D01*
X0030625Y0298437D01*
X0030700Y0298405D01*
X0030773Y0298370D01*
X0030844Y0298331D01*
X0030914Y0298288D01*
X0030981Y0298243D01*
X0031047Y0298194D01*
X0031109Y0298142D01*
X0031169Y0298086D01*
X0031226Y0298028D01*
X0031281Y0297968D01*
X0031332Y0297904D01*
X0031380Y0297839D01*
X0031425Y0297771D01*
X0031467Y0297701D01*
X0031505Y0297629D01*
X0031540Y0297555D01*
X0031571Y0297480D01*
X0031598Y0297403D01*
X0031621Y0297325D01*
X0031641Y0297246D01*
X0031657Y0297166D01*
X0031669Y0297085D01*
X0031677Y0297004D01*
X0031681Y0296923D01*
X0031681Y0296841D01*
X0031677Y0296760D01*
X0031669Y0296679D01*
X0031657Y0296598D01*
X0031641Y0296518D01*
X0031621Y0296439D01*
X0031598Y0296361D01*
X0031571Y0296284D01*
X0031540Y0296209D01*
X0031505Y0296135D01*
X0031467Y0296063D01*
X0031425Y0295993D01*
X0031380Y0295925D01*
X0031332Y0295860D01*
X0031281Y0295796D01*
X0031226Y0295736D01*
X0031169Y0295678D01*
X0031109Y0295622D01*
X0031047Y0295570D01*
X0030981Y0295521D01*
X0030914Y0295476D01*
X0030845Y0295433D01*
X0030773Y0295394D01*
X0030700Y0295359D01*
X0030625Y0295327D01*
X0030548Y0295299D01*
X0030470Y0295274D01*
X0030392Y0295254D01*
X0030312Y0295237D01*
X0030231Y0295224D01*
X0030150Y0295215D01*
X0030069Y0295210D01*
X0029988Y0295209D01*
X0029906Y0295212D01*
X0029825Y0295219D01*
X0029744Y0295230D01*
X0029664Y0295245D01*
X0029585Y0295263D01*
X0029507Y0295286D01*
X0029429Y0295312D01*
X0029354Y0295342D01*
X0029279Y0295376D01*
X0029207Y0295413D01*
X0029136Y0295454D01*
X0029068Y0295498D01*
X0029002Y0295545D01*
X0028938Y0295596D01*
X0028876Y0295650D01*
X0028818Y0295706D01*
X0028762Y0295766D01*
X0028709Y0295828D01*
X0028659Y0295892D01*
X0028613Y0295959D01*
X0028569Y0296028D01*
X0028530Y0296099D01*
X0028493Y0296172D01*
X0028460Y0296246D01*
X0028431Y0296323D01*
X0028406Y0296400D01*
X0028384Y0296479D01*
X0028367Y0296558D01*
X0028353Y0296638D01*
X0028343Y0296719D01*
X0028337Y0296801D01*
X0028335Y0296882D01*
D27*
X0030008Y0296882D03*
X0030008Y0311843D03*
D28*
X0043787Y0277472D03*
X0083551Y0319441D03*
D29*
X0083551Y0329441D03*
X0043787Y0267472D03*
D30*
X0167016Y0305740D03*
X0172921Y0297866D03*
X0178827Y0305740D03*
X0184732Y0297866D03*
X0190638Y0305740D03*
X0196543Y0297866D03*
X0202449Y0305740D03*
X0208354Y0297866D03*
X0214260Y0305740D03*
X0220165Y0297866D03*
X0226071Y0305740D03*
X0231976Y0297866D03*
X0237882Y0305740D03*
X0243787Y0297866D03*
X0249693Y0305740D03*
X0255598Y0313614D03*
X0249693Y0321488D03*
X0243787Y0313614D03*
X0237882Y0321488D03*
X0231976Y0313614D03*
X0226071Y0321488D03*
X0220165Y0313614D03*
X0214260Y0321488D03*
X0208354Y0313614D03*
X0202449Y0321488D03*
X0196543Y0313614D03*
X0190638Y0321488D03*
X0184732Y0313614D03*
X0178827Y0321488D03*
X0172921Y0313614D03*
X0167016Y0321488D03*
D31*
X0255598Y0297866D03*
M02*
