G75*
%MOIN*%
%OFA0B0*%
%FSLAX25Y25*%
%IPPOS*%
%LPD*%
%AMOC8*
5,1,8,0,0,1.08239X$1,22.5*
%
%ADD10C,0.01000*%
%ADD11C,0.05746*%
%ADD12OC8,0.06600*%
%ADD13OC8,0.06400*%
%ADD14C,0.07400*%
%ADD15C,0.06600*%
%ADD16C,0.06400*%
%ADD17R,0.08000X0.02600*%
%ADD18R,0.06337X0.06337*%
%ADD19C,0.08000*%
%ADD20C,0.07000*%
%ADD21R,0.06300X0.04600*%
%ADD22R,0.07874X0.27559*%
%ADD23R,0.05906X0.27559*%
%ADD24C,0.00000*%
%ADD25R,0.06500X0.06500*%
%ADD26C,0.06500*%
%ADD27C,0.05943*%
%ADD28R,0.05943X0.05943*%
%ADD29C,0.01200*%
%ADD30C,0.02000*%
%ADD31C,0.03600*%
%ADD32C,0.00800*%
%ADD33C,0.01600*%
%ADD34C,0.05000*%
%ADD35C,0.02400*%
%ADD36C,0.04362*%
D10*
X0013866Y0005937D02*
X0013866Y0207906D01*
X0013868Y0208030D01*
X0013874Y0208153D01*
X0013883Y0208277D01*
X0013897Y0208399D01*
X0013914Y0208522D01*
X0013936Y0208644D01*
X0013961Y0208765D01*
X0013990Y0208885D01*
X0014022Y0209004D01*
X0014059Y0209123D01*
X0014099Y0209240D01*
X0014142Y0209355D01*
X0014190Y0209470D01*
X0014241Y0209582D01*
X0014295Y0209693D01*
X0014353Y0209803D01*
X0014414Y0209910D01*
X0014479Y0210016D01*
X0014547Y0210119D01*
X0014618Y0210220D01*
X0014692Y0210319D01*
X0014769Y0210416D01*
X0014850Y0210510D01*
X0014933Y0210601D01*
X0015019Y0210690D01*
X0015108Y0210776D01*
X0015199Y0210859D01*
X0015293Y0210940D01*
X0015390Y0211017D01*
X0015489Y0211091D01*
X0015590Y0211162D01*
X0015693Y0211230D01*
X0015799Y0211295D01*
X0015906Y0211356D01*
X0016016Y0211414D01*
X0016127Y0211468D01*
X0016239Y0211519D01*
X0016354Y0211567D01*
X0016469Y0211610D01*
X0016586Y0211650D01*
X0016705Y0211687D01*
X0016824Y0211719D01*
X0016944Y0211748D01*
X0017065Y0211773D01*
X0017187Y0211795D01*
X0017310Y0211812D01*
X0017432Y0211826D01*
X0017556Y0211835D01*
X0017679Y0211841D01*
X0017803Y0211843D01*
X0050087Y0211843D01*
X0050087Y0258299D01*
X0016228Y0258299D01*
X0016228Y0276409D01*
X0026071Y0276409D01*
X0026071Y0284283D01*
X0013866Y0284283D01*
X0013866Y0325228D01*
X0016228Y0325228D01*
X0016228Y0350819D01*
X0026071Y0350819D01*
X0026071Y0358693D01*
X0013866Y0358693D01*
X0013866Y0366173D01*
X0037488Y0366173D01*
X0037488Y0374441D01*
X0383945Y0374441D01*
X0383945Y0366173D01*
X0407567Y0366173D01*
X0407567Y0326016D01*
X0394969Y0326016D01*
X0394969Y0318142D01*
X0403630Y0318142D01*
X0403630Y0305150D01*
X0393787Y0305150D01*
X0393787Y0297276D01*
X0403630Y0297276D01*
X0403630Y0277197D01*
X0407567Y0277197D01*
X0407567Y0258299D01*
X0371346Y0258299D01*
X0371346Y0211843D01*
X0394181Y0211843D01*
X0403630Y0202394D01*
X0403630Y0161843D01*
X0407567Y0152394D01*
X0407567Y0017000D01*
X0403866Y0007000D01*
X0403866Y0005937D01*
X0403864Y0005813D01*
X0403858Y0005690D01*
X0403849Y0005566D01*
X0403835Y0005444D01*
X0403818Y0005321D01*
X0403796Y0005199D01*
X0403771Y0005078D01*
X0403742Y0004958D01*
X0403710Y0004839D01*
X0403673Y0004720D01*
X0403633Y0004603D01*
X0403590Y0004488D01*
X0403542Y0004373D01*
X0403491Y0004261D01*
X0403437Y0004150D01*
X0403379Y0004040D01*
X0403318Y0003933D01*
X0403253Y0003827D01*
X0403185Y0003724D01*
X0403114Y0003623D01*
X0403040Y0003524D01*
X0402963Y0003427D01*
X0402882Y0003333D01*
X0402799Y0003242D01*
X0402713Y0003153D01*
X0402624Y0003067D01*
X0402533Y0002984D01*
X0402439Y0002903D01*
X0402342Y0002826D01*
X0402243Y0002752D01*
X0402142Y0002681D01*
X0402039Y0002613D01*
X0401933Y0002548D01*
X0401826Y0002487D01*
X0401716Y0002429D01*
X0401605Y0002375D01*
X0401493Y0002324D01*
X0401378Y0002276D01*
X0401263Y0002233D01*
X0401146Y0002193D01*
X0401027Y0002156D01*
X0400908Y0002124D01*
X0400788Y0002095D01*
X0400667Y0002070D01*
X0400545Y0002048D01*
X0400422Y0002031D01*
X0400300Y0002017D01*
X0400176Y0002008D01*
X0400053Y0002002D01*
X0399929Y0002000D01*
X0017803Y0002000D01*
X0017679Y0002002D01*
X0017556Y0002008D01*
X0017432Y0002017D01*
X0017310Y0002031D01*
X0017187Y0002048D01*
X0017065Y0002070D01*
X0016944Y0002095D01*
X0016824Y0002124D01*
X0016705Y0002156D01*
X0016586Y0002193D01*
X0016469Y0002233D01*
X0016354Y0002276D01*
X0016239Y0002324D01*
X0016127Y0002375D01*
X0016016Y0002429D01*
X0015906Y0002487D01*
X0015799Y0002548D01*
X0015693Y0002613D01*
X0015590Y0002681D01*
X0015489Y0002752D01*
X0015390Y0002826D01*
X0015293Y0002903D01*
X0015199Y0002984D01*
X0015108Y0003067D01*
X0015019Y0003153D01*
X0014933Y0003242D01*
X0014850Y0003333D01*
X0014769Y0003427D01*
X0014692Y0003524D01*
X0014618Y0003623D01*
X0014547Y0003724D01*
X0014479Y0003827D01*
X0014414Y0003933D01*
X0014353Y0004040D01*
X0014295Y0004150D01*
X0014241Y0004261D01*
X0014190Y0004373D01*
X0014142Y0004488D01*
X0014099Y0004603D01*
X0014059Y0004720D01*
X0014022Y0004839D01*
X0013990Y0004958D01*
X0013961Y0005078D01*
X0013936Y0005199D01*
X0013914Y0005321D01*
X0013897Y0005444D01*
X0013883Y0005566D01*
X0013874Y0005690D01*
X0013868Y0005813D01*
X0013866Y0005937D01*
X0087882Y0211843D02*
X0087882Y0258299D01*
X0092606Y0258299D01*
X0092606Y0216567D01*
X0328827Y0216567D01*
X0328827Y0258299D01*
X0333551Y0258299D01*
X0333551Y0211843D01*
X0087882Y0211843D01*
X0084882Y0258299D02*
X0053087Y0258299D01*
X0053087Y0258896D01*
X0052630Y0259999D01*
X0051786Y0260842D01*
X0050683Y0261299D01*
X0019228Y0261299D01*
X0019228Y0273409D01*
X0026668Y0273409D01*
X0027770Y0273866D01*
X0028614Y0274710D01*
X0029071Y0275813D01*
X0029071Y0284880D01*
X0028614Y0285983D01*
X0027770Y0286827D01*
X0026668Y0287283D01*
X0016866Y0287283D01*
X0016866Y0322245D01*
X0017928Y0322685D01*
X0018772Y0323529D01*
X0019228Y0324632D01*
X0019228Y0347819D01*
X0026668Y0347819D01*
X0027770Y0348276D01*
X0028614Y0349120D01*
X0029071Y0350222D01*
X0029071Y0359290D01*
X0028614Y0360392D01*
X0027770Y0361236D01*
X0026668Y0361693D01*
X0016866Y0361693D01*
X0016866Y0363173D01*
X0038085Y0363173D01*
X0039188Y0363630D01*
X0039325Y0363768D01*
X0039325Y0331839D01*
X0040555Y0330609D01*
X0077728Y0330609D01*
X0078958Y0331839D01*
X0078958Y0333579D01*
X0078958Y0367272D01*
X0078958Y0369012D01*
X0077728Y0370242D01*
X0040555Y0370242D01*
X0040488Y0370175D01*
X0040488Y0371441D01*
X0080795Y0371441D01*
X0080795Y0342551D01*
X0112624Y0342551D01*
X0122367Y0332808D01*
X0123363Y0331812D01*
X0132564Y0331812D01*
X0132588Y0331756D01*
X0133460Y0330884D01*
X0134599Y0330412D01*
X0135832Y0330412D01*
X0136972Y0330884D01*
X0137844Y0331756D01*
X0138316Y0332896D01*
X0138316Y0334129D01*
X0137844Y0335268D01*
X0136972Y0336140D01*
X0135832Y0336612D01*
X0134599Y0336612D01*
X0133460Y0336140D01*
X0132588Y0335268D01*
X0132564Y0335212D01*
X0124771Y0335212D01*
X0117432Y0342551D01*
X0122466Y0342551D01*
X0125456Y0339562D01*
X0126451Y0338566D01*
X0129850Y0338566D01*
X0129874Y0338510D01*
X0130746Y0337638D01*
X0131885Y0337166D01*
X0133118Y0337166D01*
X0134258Y0337638D01*
X0135130Y0338510D01*
X0135602Y0339650D01*
X0135602Y0340883D01*
X0135295Y0341623D01*
X0137455Y0341623D01*
X0137478Y0341567D01*
X0138350Y0340695D01*
X0139489Y0340223D01*
X0140723Y0340223D01*
X0141862Y0340695D01*
X0142734Y0341567D01*
X0143142Y0342551D01*
X0149961Y0342551D01*
X0149961Y0334714D01*
X0145625Y0330377D01*
X0145569Y0330400D01*
X0144336Y0330400D01*
X0143196Y0329928D01*
X0142324Y0329056D01*
X0141852Y0327917D01*
X0141852Y0326973D01*
X0123771Y0326973D01*
X0123748Y0327029D01*
X0122876Y0327901D01*
X0121737Y0328373D01*
X0120503Y0328373D01*
X0119364Y0327901D01*
X0118492Y0327029D01*
X0118020Y0325890D01*
X0118020Y0324657D01*
X0118492Y0323517D01*
X0119364Y0322645D01*
X0119804Y0322463D01*
X0108767Y0322463D01*
X0106634Y0324596D01*
X0105638Y0325592D01*
X0086334Y0325592D01*
X0086646Y0325818D01*
X0087174Y0326347D01*
X0087614Y0326951D01*
X0087953Y0327618D01*
X0088184Y0328329D01*
X0088301Y0329067D01*
X0088301Y0329252D01*
X0083740Y0329252D01*
X0083740Y0329630D01*
X0083362Y0329630D01*
X0083362Y0329252D01*
X0078801Y0329252D01*
X0078801Y0329067D01*
X0078918Y0328329D01*
X0079149Y0327618D01*
X0079489Y0326951D01*
X0079928Y0326347D01*
X0080457Y0325818D01*
X0080768Y0325592D01*
X0078830Y0325592D01*
X0078227Y0324989D01*
X0077231Y0323993D01*
X0077231Y0291998D01*
X0110591Y0258638D01*
X0110591Y0258299D01*
X0095606Y0258299D01*
X0095606Y0258896D01*
X0095150Y0259999D01*
X0094306Y0260842D01*
X0093203Y0261299D01*
X0087285Y0261299D01*
X0086183Y0260842D01*
X0085339Y0259999D01*
X0084882Y0258896D01*
X0084882Y0258299D01*
X0084882Y0258617D02*
X0053087Y0258617D01*
X0052788Y0259616D02*
X0085180Y0259616D01*
X0085954Y0260614D02*
X0052014Y0260614D01*
X0047410Y0264378D02*
X0047850Y0264983D01*
X0048189Y0265649D01*
X0048420Y0266360D01*
X0048537Y0267099D01*
X0048537Y0267283D01*
X0043976Y0267283D01*
X0043976Y0262722D01*
X0044161Y0262722D01*
X0044900Y0262839D01*
X0045611Y0263070D01*
X0046277Y0263410D01*
X0046882Y0263849D01*
X0047410Y0264378D01*
X0047578Y0264608D02*
X0104621Y0264608D01*
X0105619Y0263610D02*
X0046552Y0263610D01*
X0048168Y0265607D02*
X0103622Y0265607D01*
X0102624Y0266605D02*
X0048459Y0266605D01*
X0048537Y0267661D02*
X0043976Y0267661D01*
X0043598Y0267661D01*
X0043598Y0267283D01*
X0039037Y0267283D01*
X0039037Y0267099D01*
X0039154Y0266360D01*
X0039385Y0265649D01*
X0039725Y0264983D01*
X0040164Y0264378D01*
X0040693Y0263849D01*
X0041298Y0263410D01*
X0041964Y0263070D01*
X0042675Y0262839D01*
X0043414Y0262722D01*
X0043598Y0262722D01*
X0043598Y0267283D01*
X0043976Y0267283D01*
X0043976Y0267661D01*
X0043976Y0272222D01*
X0044161Y0272222D01*
X0044900Y0272105D01*
X0045611Y0271874D01*
X0046277Y0271535D01*
X0046882Y0271096D01*
X0047410Y0270567D01*
X0047850Y0269962D01*
X0048189Y0269296D01*
X0048420Y0268585D01*
X0048537Y0267846D01*
X0048537Y0267661D01*
X0048415Y0268603D02*
X0100627Y0268603D01*
X0099628Y0269601D02*
X0048034Y0269601D01*
X0047378Y0270600D02*
X0098630Y0270600D01*
X0097631Y0271598D02*
X0046153Y0271598D01*
X0047576Y0272922D02*
X0048337Y0273684D01*
X0048337Y0281261D01*
X0047576Y0282022D01*
X0039999Y0282022D01*
X0039237Y0281261D01*
X0039237Y0273684D01*
X0039999Y0272922D01*
X0047576Y0272922D01*
X0048249Y0273595D02*
X0095634Y0273595D01*
X0094636Y0274594D02*
X0048337Y0274594D01*
X0048337Y0275592D02*
X0093637Y0275592D01*
X0092639Y0276591D02*
X0048337Y0276591D01*
X0048337Y0277589D02*
X0091640Y0277589D01*
X0090642Y0278588D02*
X0048337Y0278588D01*
X0048337Y0279586D02*
X0089643Y0279586D01*
X0088645Y0280585D02*
X0048337Y0280585D01*
X0048015Y0281583D02*
X0087646Y0281583D01*
X0086648Y0282582D02*
X0029071Y0282582D01*
X0029071Y0283580D02*
X0085649Y0283580D01*
X0084651Y0284579D02*
X0029071Y0284579D01*
X0028782Y0285577D02*
X0083652Y0285577D01*
X0082654Y0286576D02*
X0028021Y0286576D01*
X0029178Y0292709D02*
X0027644Y0293344D01*
X0026470Y0294518D01*
X0025835Y0296052D01*
X0025835Y0297712D01*
X0026470Y0299246D01*
X0027644Y0300420D01*
X0029178Y0301055D01*
X0030838Y0301055D01*
X0032372Y0300420D01*
X0033546Y0299246D01*
X0034181Y0297712D01*
X0034181Y0296052D01*
X0033546Y0294518D01*
X0032372Y0293344D01*
X0030838Y0292709D01*
X0029178Y0292709D01*
X0027423Y0293565D02*
X0016866Y0293565D01*
X0016866Y0292567D02*
X0077231Y0292567D01*
X0077231Y0293565D02*
X0032593Y0293565D01*
X0033565Y0294564D02*
X0077231Y0294564D01*
X0077231Y0295562D02*
X0033978Y0295562D01*
X0034181Y0296561D02*
X0077231Y0296561D01*
X0077231Y0297559D02*
X0034181Y0297559D01*
X0033831Y0298558D02*
X0077231Y0298558D01*
X0077231Y0299556D02*
X0033235Y0299556D01*
X0032046Y0300555D02*
X0077231Y0300555D01*
X0077231Y0301553D02*
X0016866Y0301553D01*
X0016866Y0300555D02*
X0027970Y0300555D01*
X0026781Y0299556D02*
X0016866Y0299556D01*
X0016866Y0298558D02*
X0026185Y0298558D01*
X0025835Y0297559D02*
X0016866Y0297559D01*
X0016866Y0296561D02*
X0025835Y0296561D01*
X0026037Y0295562D02*
X0016866Y0295562D01*
X0016866Y0294564D02*
X0026451Y0294564D01*
X0016866Y0291568D02*
X0077661Y0291568D01*
X0078660Y0290570D02*
X0016866Y0290570D01*
X0016866Y0289571D02*
X0079658Y0289571D01*
X0080657Y0288573D02*
X0016866Y0288573D01*
X0016866Y0287574D02*
X0081655Y0287574D01*
X0084466Y0289571D02*
X0129373Y0289571D01*
X0128375Y0290570D02*
X0083468Y0290570D01*
X0082469Y0291568D02*
X0127376Y0291568D01*
X0126378Y0292567D02*
X0081471Y0292567D01*
X0080631Y0293407D02*
X0080631Y0314891D01*
X0087340Y0314891D01*
X0088101Y0315652D01*
X0088101Y0316606D01*
X0092509Y0312198D01*
X0093212Y0311495D01*
X0094131Y0311114D01*
X0109499Y0311114D01*
X0109191Y0310371D01*
X0109191Y0309137D01*
X0109663Y0307998D01*
X0110535Y0307126D01*
X0111675Y0306654D01*
X0112908Y0306654D01*
X0114047Y0307126D01*
X0114919Y0307998D01*
X0115048Y0308309D01*
X0122905Y0308309D01*
X0122621Y0307624D01*
X0122621Y0306391D01*
X0123093Y0305252D01*
X0123965Y0304380D01*
X0125105Y0303908D01*
X0126338Y0303908D01*
X0127477Y0304380D01*
X0128349Y0305252D01*
X0128373Y0305308D01*
X0142367Y0305308D01*
X0163528Y0284147D01*
X0139606Y0284147D01*
X0128015Y0295738D01*
X0128039Y0295794D01*
X0128039Y0297027D01*
X0127567Y0298166D01*
X0126695Y0299038D01*
X0125555Y0299510D01*
X0124322Y0299510D01*
X0123183Y0299038D01*
X0122311Y0298166D01*
X0121839Y0297027D01*
X0121839Y0295794D01*
X0122311Y0294654D01*
X0123183Y0293782D01*
X0124322Y0293310D01*
X0125555Y0293310D01*
X0125611Y0293333D01*
X0136399Y0282546D01*
X0099825Y0282546D01*
X0099697Y0282674D01*
X0098557Y0283146D01*
X0097324Y0283146D01*
X0096185Y0282674D01*
X0095312Y0281802D01*
X0094841Y0280663D01*
X0094841Y0279429D01*
X0095005Y0279033D01*
X0080631Y0293407D01*
X0080631Y0293565D02*
X0123706Y0293565D01*
X0122401Y0294564D02*
X0080631Y0294564D01*
X0080631Y0295562D02*
X0121934Y0295562D01*
X0121839Y0296561D02*
X0080631Y0296561D01*
X0080631Y0297559D02*
X0122059Y0297559D01*
X0122702Y0298558D02*
X0080631Y0298558D01*
X0080631Y0299556D02*
X0148118Y0299556D01*
X0149117Y0298558D02*
X0127175Y0298558D01*
X0127818Y0297559D02*
X0150115Y0297559D01*
X0151114Y0296561D02*
X0128039Y0296561D01*
X0128191Y0295562D02*
X0152112Y0295562D01*
X0153111Y0294564D02*
X0129189Y0294564D01*
X0130188Y0293565D02*
X0154109Y0293565D01*
X0155108Y0292567D02*
X0131186Y0292567D01*
X0132185Y0291568D02*
X0156106Y0291568D01*
X0157105Y0290570D02*
X0133183Y0290570D01*
X0134182Y0289571D02*
X0158103Y0289571D01*
X0159102Y0288573D02*
X0135180Y0288573D01*
X0136179Y0287574D02*
X0160100Y0287574D01*
X0161099Y0286576D02*
X0137177Y0286576D01*
X0138176Y0285577D02*
X0162097Y0285577D01*
X0163096Y0284579D02*
X0139174Y0284579D01*
X0136363Y0282582D02*
X0099789Y0282582D01*
X0096092Y0282582D02*
X0091456Y0282582D01*
X0090457Y0283580D02*
X0135364Y0283580D01*
X0134366Y0284579D02*
X0089459Y0284579D01*
X0088460Y0285577D02*
X0133367Y0285577D01*
X0132369Y0286576D02*
X0087462Y0286576D01*
X0086463Y0287574D02*
X0131370Y0287574D01*
X0130372Y0288573D02*
X0085465Y0288573D01*
X0092454Y0281583D02*
X0095222Y0281583D01*
X0094841Y0280585D02*
X0093453Y0280585D01*
X0094451Y0279586D02*
X0094841Y0279586D01*
X0096633Y0272597D02*
X0019228Y0272597D01*
X0019228Y0271598D02*
X0041422Y0271598D01*
X0041298Y0271535D02*
X0040693Y0271096D01*
X0040164Y0270567D01*
X0039725Y0269962D01*
X0039385Y0269296D01*
X0039154Y0268585D01*
X0039037Y0267846D01*
X0039037Y0267661D01*
X0043598Y0267661D01*
X0043598Y0272222D01*
X0043414Y0272222D01*
X0042675Y0272105D01*
X0041964Y0271874D01*
X0041298Y0271535D01*
X0040197Y0270600D02*
X0019228Y0270600D01*
X0019228Y0269601D02*
X0039541Y0269601D01*
X0039160Y0268603D02*
X0019228Y0268603D01*
X0019228Y0267604D02*
X0043598Y0267604D01*
X0043976Y0267604D02*
X0101625Y0267604D01*
X0106618Y0262611D02*
X0019228Y0262611D01*
X0019228Y0261613D02*
X0107616Y0261613D01*
X0108615Y0260614D02*
X0094534Y0260614D01*
X0095308Y0259616D02*
X0109613Y0259616D01*
X0110591Y0258617D02*
X0095606Y0258617D01*
X0080631Y0300555D02*
X0147120Y0300555D01*
X0146121Y0301553D02*
X0080631Y0301553D01*
X0080631Y0302552D02*
X0145123Y0302552D01*
X0144124Y0303550D02*
X0080631Y0303550D01*
X0080631Y0304549D02*
X0123796Y0304549D01*
X0122971Y0305547D02*
X0080631Y0305547D01*
X0080631Y0306546D02*
X0122621Y0306546D01*
X0122621Y0307544D02*
X0114466Y0307544D01*
X0110117Y0307544D02*
X0080631Y0307544D01*
X0080631Y0308543D02*
X0109438Y0308543D01*
X0109191Y0309541D02*
X0080631Y0309541D01*
X0080631Y0310540D02*
X0109262Y0310540D01*
X0108708Y0322522D02*
X0119661Y0322522D01*
X0118491Y0323521D02*
X0107709Y0323521D01*
X0106711Y0324519D02*
X0118077Y0324519D01*
X0118020Y0325518D02*
X0105712Y0325518D01*
X0118280Y0326516D02*
X0087298Y0326516D01*
X0087901Y0327515D02*
X0118977Y0327515D01*
X0123263Y0327515D02*
X0141852Y0327515D01*
X0142099Y0328513D02*
X0088213Y0328513D01*
X0088301Y0329630D02*
X0088301Y0329815D01*
X0088184Y0330553D01*
X0087953Y0331264D01*
X0087614Y0331930D01*
X0087174Y0332535D01*
X0086646Y0333064D01*
X0086041Y0333503D01*
X0085375Y0333843D01*
X0084663Y0334074D01*
X0083925Y0334191D01*
X0083740Y0334191D01*
X0083740Y0329630D01*
X0088301Y0329630D01*
X0088191Y0330510D02*
X0134362Y0330510D01*
X0136069Y0330510D02*
X0145758Y0330510D01*
X0146757Y0331509D02*
X0137596Y0331509D01*
X0138155Y0332507D02*
X0147755Y0332507D01*
X0148754Y0333506D02*
X0138316Y0333506D01*
X0138160Y0334504D02*
X0149752Y0334504D01*
X0149961Y0335503D02*
X0137609Y0335503D01*
X0136100Y0336501D02*
X0149961Y0336501D01*
X0149961Y0337500D02*
X0133924Y0337500D01*
X0134331Y0336501D02*
X0123482Y0336501D01*
X0124480Y0335503D02*
X0132822Y0335503D01*
X0131079Y0337500D02*
X0122483Y0337500D01*
X0121485Y0338498D02*
X0129885Y0338498D01*
X0125521Y0339497D02*
X0120486Y0339497D01*
X0119488Y0340495D02*
X0124522Y0340495D01*
X0123524Y0341494D02*
X0118489Y0341494D01*
X0117491Y0342492D02*
X0122525Y0342492D01*
X0115678Y0339497D02*
X0078958Y0339497D01*
X0078958Y0340495D02*
X0114680Y0340495D01*
X0113681Y0341494D02*
X0078958Y0341494D01*
X0078958Y0342492D02*
X0112683Y0342492D01*
X0116677Y0338498D02*
X0078958Y0338498D01*
X0078958Y0337500D02*
X0117675Y0337500D01*
X0118674Y0336501D02*
X0078958Y0336501D01*
X0078958Y0335503D02*
X0119672Y0335503D01*
X0120671Y0334504D02*
X0078958Y0334504D01*
X0078958Y0333506D02*
X0081066Y0333506D01*
X0081062Y0333503D02*
X0080457Y0333064D01*
X0079928Y0332535D01*
X0079489Y0331930D01*
X0079149Y0331264D01*
X0078918Y0330553D01*
X0078801Y0329815D01*
X0078801Y0329630D01*
X0083362Y0329630D01*
X0083362Y0334191D01*
X0083177Y0334191D01*
X0082439Y0334074D01*
X0081728Y0333843D01*
X0081062Y0333503D01*
X0079908Y0332507D02*
X0078958Y0332507D01*
X0079274Y0331509D02*
X0078628Y0331509D01*
X0078911Y0330510D02*
X0019228Y0330510D01*
X0019228Y0329512D02*
X0083362Y0329512D01*
X0083740Y0329512D02*
X0142780Y0329512D01*
X0132835Y0331509D02*
X0087829Y0331509D01*
X0087195Y0332507D02*
X0122668Y0332507D01*
X0121669Y0333506D02*
X0086036Y0333506D01*
X0083740Y0333506D02*
X0083362Y0333506D01*
X0083362Y0332507D02*
X0083740Y0332507D01*
X0083740Y0331509D02*
X0083362Y0331509D01*
X0083362Y0330510D02*
X0083740Y0330510D01*
X0078889Y0328513D02*
X0019228Y0328513D01*
X0019228Y0327515D02*
X0079202Y0327515D01*
X0079805Y0326516D02*
X0019228Y0326516D01*
X0019228Y0325518D02*
X0078756Y0325518D01*
X0077757Y0324519D02*
X0019182Y0324519D01*
X0018763Y0323521D02*
X0077231Y0323521D01*
X0077231Y0322522D02*
X0017534Y0322522D01*
X0016866Y0321524D02*
X0077231Y0321524D01*
X0077231Y0320525D02*
X0016866Y0320525D01*
X0016866Y0319527D02*
X0077231Y0319527D01*
X0077231Y0318528D02*
X0016866Y0318528D01*
X0016866Y0317530D02*
X0077231Y0317530D01*
X0077231Y0316531D02*
X0016866Y0316531D01*
X0016866Y0315533D02*
X0028011Y0315533D01*
X0027644Y0315380D02*
X0026470Y0314206D01*
X0025835Y0312673D01*
X0025835Y0311012D01*
X0026470Y0309479D01*
X0027644Y0308305D01*
X0029178Y0307669D01*
X0030838Y0307669D01*
X0032372Y0308305D01*
X0033546Y0309479D01*
X0034181Y0311012D01*
X0034181Y0312673D01*
X0033546Y0314206D01*
X0032372Y0315380D01*
X0030838Y0316016D01*
X0029178Y0316016D01*
X0027644Y0315380D01*
X0026798Y0314534D02*
X0016866Y0314534D01*
X0016866Y0313536D02*
X0026192Y0313536D01*
X0025835Y0312537D02*
X0016866Y0312537D01*
X0016866Y0311539D02*
X0025835Y0311539D01*
X0026030Y0310540D02*
X0016866Y0310540D01*
X0016866Y0309541D02*
X0026444Y0309541D01*
X0027406Y0308543D02*
X0016866Y0308543D01*
X0016866Y0307544D02*
X0077231Y0307544D01*
X0077231Y0306546D02*
X0016866Y0306546D01*
X0016866Y0305547D02*
X0077231Y0305547D01*
X0077231Y0304549D02*
X0016866Y0304549D01*
X0016866Y0303550D02*
X0077231Y0303550D01*
X0077231Y0302552D02*
X0016866Y0302552D01*
X0032610Y0308543D02*
X0077231Y0308543D01*
X0077231Y0309541D02*
X0033572Y0309541D01*
X0033985Y0310540D02*
X0077231Y0310540D01*
X0077231Y0311539D02*
X0034181Y0311539D01*
X0034181Y0312537D02*
X0077231Y0312537D01*
X0077231Y0313536D02*
X0033824Y0313536D01*
X0033218Y0314534D02*
X0077231Y0314534D01*
X0077231Y0315533D02*
X0032004Y0315533D01*
X0039655Y0331509D02*
X0019228Y0331509D01*
X0019228Y0332507D02*
X0039325Y0332507D01*
X0039325Y0333506D02*
X0019228Y0333506D01*
X0019228Y0334504D02*
X0039325Y0334504D01*
X0039325Y0335503D02*
X0019228Y0335503D01*
X0019228Y0336501D02*
X0039325Y0336501D01*
X0039325Y0337500D02*
X0019228Y0337500D01*
X0019228Y0338498D02*
X0039325Y0338498D01*
X0039325Y0339497D02*
X0019228Y0339497D01*
X0019228Y0340495D02*
X0039325Y0340495D01*
X0039325Y0341494D02*
X0019228Y0341494D01*
X0019228Y0342492D02*
X0039325Y0342492D01*
X0039325Y0343491D02*
X0019228Y0343491D01*
X0019228Y0344489D02*
X0039325Y0344489D01*
X0039325Y0345488D02*
X0019228Y0345488D01*
X0019228Y0346486D02*
X0039325Y0346486D01*
X0039325Y0347485D02*
X0019228Y0347485D01*
X0027978Y0348483D02*
X0039325Y0348483D01*
X0039325Y0349482D02*
X0028764Y0349482D01*
X0029071Y0350480D02*
X0039325Y0350480D01*
X0039325Y0351479D02*
X0029071Y0351479D01*
X0029071Y0352477D02*
X0039325Y0352477D01*
X0039325Y0353476D02*
X0029071Y0353476D01*
X0029071Y0354474D02*
X0039325Y0354474D01*
X0039325Y0355473D02*
X0029071Y0355473D01*
X0029071Y0356472D02*
X0039325Y0356472D01*
X0039325Y0357470D02*
X0029071Y0357470D01*
X0029071Y0358469D02*
X0039325Y0358469D01*
X0039325Y0359467D02*
X0028997Y0359467D01*
X0028541Y0360466D02*
X0039325Y0360466D01*
X0039325Y0361464D02*
X0027220Y0361464D01*
X0016866Y0362463D02*
X0039325Y0362463D01*
X0039325Y0363461D02*
X0038780Y0363461D01*
X0040488Y0370451D02*
X0080795Y0370451D01*
X0080795Y0369452D02*
X0078518Y0369452D01*
X0078958Y0368454D02*
X0080795Y0368454D01*
X0080795Y0367455D02*
X0078958Y0367455D01*
X0078958Y0366457D02*
X0080795Y0366457D01*
X0080795Y0365458D02*
X0078958Y0365458D01*
X0078958Y0364460D02*
X0080795Y0364460D01*
X0080795Y0363461D02*
X0078958Y0363461D01*
X0078958Y0362463D02*
X0080795Y0362463D01*
X0080795Y0361464D02*
X0078958Y0361464D01*
X0078958Y0360466D02*
X0080795Y0360466D01*
X0080795Y0359467D02*
X0078958Y0359467D01*
X0078958Y0358469D02*
X0080795Y0358469D01*
X0080795Y0357470D02*
X0078958Y0357470D01*
X0078958Y0356472D02*
X0080795Y0356472D01*
X0080795Y0355473D02*
X0078958Y0355473D01*
X0078958Y0354474D02*
X0080795Y0354474D01*
X0080795Y0353476D02*
X0078958Y0353476D01*
X0078958Y0352477D02*
X0080795Y0352477D01*
X0080795Y0351479D02*
X0078958Y0351479D01*
X0078958Y0350480D02*
X0080795Y0350480D01*
X0080795Y0349482D02*
X0078958Y0349482D01*
X0078958Y0348483D02*
X0080795Y0348483D01*
X0080795Y0347485D02*
X0078958Y0347485D01*
X0078958Y0346486D02*
X0080795Y0346486D01*
X0080795Y0345488D02*
X0078958Y0345488D01*
X0078958Y0344489D02*
X0080795Y0344489D01*
X0080795Y0343491D02*
X0078958Y0343491D01*
X0088101Y0316531D02*
X0088176Y0316531D01*
X0087981Y0315533D02*
X0089174Y0315533D01*
X0090173Y0314534D02*
X0080631Y0314534D01*
X0080631Y0313536D02*
X0091171Y0313536D01*
X0092170Y0312537D02*
X0080631Y0312537D01*
X0080631Y0311539D02*
X0093168Y0311539D01*
X0127646Y0304549D02*
X0143126Y0304549D01*
X0149961Y0338498D02*
X0135118Y0338498D01*
X0135538Y0339497D02*
X0149961Y0339497D01*
X0149961Y0340495D02*
X0141380Y0340495D01*
X0142661Y0341494D02*
X0149961Y0341494D01*
X0149961Y0342492D02*
X0143117Y0342492D01*
X0138831Y0340495D02*
X0135602Y0340495D01*
X0135348Y0341494D02*
X0137551Y0341494D01*
X0224634Y0309769D02*
X0226775Y0311909D01*
X0227705Y0312839D01*
X0227705Y0312764D01*
X0228355Y0311194D01*
X0229557Y0309993D01*
X0231127Y0309343D01*
X0232826Y0309343D01*
X0234396Y0309993D01*
X0235598Y0311194D01*
X0236248Y0312764D01*
X0236248Y0314464D01*
X0235598Y0316034D01*
X0234396Y0317235D01*
X0232826Y0317886D01*
X0231127Y0317886D01*
X0229557Y0317235D01*
X0228355Y0316034D01*
X0227771Y0314623D01*
X0227771Y0317569D01*
X0228491Y0317867D01*
X0229692Y0319068D01*
X0230343Y0320638D01*
X0230343Y0322338D01*
X0229692Y0323908D01*
X0228491Y0325110D01*
X0227771Y0325408D01*
X0227771Y0330410D01*
X0231205Y0333844D01*
X0231518Y0333087D01*
X0232390Y0332215D01*
X0233530Y0331743D01*
X0234763Y0331743D01*
X0235902Y0332215D01*
X0236031Y0332343D01*
X0243095Y0332343D01*
X0244014Y0332724D01*
X0244717Y0333427D01*
X0251122Y0339832D01*
X0251206Y0339832D01*
X0266719Y0324319D01*
X0266069Y0324588D01*
X0264836Y0324588D01*
X0263696Y0324116D01*
X0262824Y0323244D01*
X0262801Y0323188D01*
X0253612Y0323188D01*
X0253314Y0323908D01*
X0252113Y0325110D01*
X0250543Y0325760D01*
X0248843Y0325760D01*
X0247273Y0325110D01*
X0246072Y0323908D01*
X0245421Y0322338D01*
X0245421Y0320638D01*
X0246072Y0319068D01*
X0247273Y0317867D01*
X0248843Y0317217D01*
X0250543Y0317217D01*
X0252113Y0317867D01*
X0253314Y0319068D01*
X0253612Y0319788D01*
X0262801Y0319788D01*
X0262824Y0319732D01*
X0263696Y0318860D01*
X0264836Y0318388D01*
X0266069Y0318388D01*
X0267208Y0318860D01*
X0268080Y0319732D01*
X0268552Y0320872D01*
X0268552Y0322105D01*
X0268283Y0322754D01*
X0285972Y0305065D01*
X0285972Y0292558D01*
X0285640Y0292420D01*
X0284234Y0291013D01*
X0283472Y0289176D01*
X0283472Y0288611D01*
X0280153Y0291931D01*
X0232611Y0291931D01*
X0231615Y0290935D01*
X0230204Y0289524D01*
X0230204Y0289867D01*
X0229732Y0291006D01*
X0228860Y0291878D01*
X0228804Y0291902D01*
X0228804Y0294998D01*
X0229557Y0294245D01*
X0231127Y0293594D01*
X0232826Y0293594D01*
X0234396Y0294245D01*
X0235598Y0295446D01*
X0236248Y0297016D01*
X0236248Y0298716D01*
X0235598Y0300286D01*
X0234396Y0301487D01*
X0232826Y0302138D01*
X0231127Y0302138D01*
X0229557Y0301487D01*
X0228355Y0300286D01*
X0228150Y0299790D01*
X0226471Y0301469D01*
X0226921Y0301469D01*
X0228491Y0302119D01*
X0229692Y0303320D01*
X0230343Y0304890D01*
X0230343Y0306590D01*
X0229692Y0308160D01*
X0228491Y0309361D01*
X0226921Y0310012D01*
X0225221Y0310012D01*
X0224634Y0309769D01*
X0225406Y0310540D02*
X0229010Y0310540D01*
X0228213Y0311539D02*
X0226404Y0311539D01*
X0227403Y0312537D02*
X0227799Y0312537D01*
X0227771Y0315533D02*
X0228147Y0315533D01*
X0227771Y0316531D02*
X0228852Y0316531D01*
X0227771Y0317530D02*
X0230267Y0317530D01*
X0229152Y0318528D02*
X0234801Y0318528D01*
X0234261Y0319068D02*
X0235462Y0317867D01*
X0237032Y0317217D01*
X0238732Y0317217D01*
X0240302Y0317867D01*
X0241503Y0319068D01*
X0242154Y0320638D01*
X0242154Y0322338D01*
X0241503Y0323908D01*
X0240302Y0325110D01*
X0238732Y0325760D01*
X0237032Y0325760D01*
X0235462Y0325110D01*
X0234261Y0323908D01*
X0233610Y0322338D01*
X0233610Y0320638D01*
X0234261Y0319068D01*
X0234071Y0319527D02*
X0229882Y0319527D01*
X0230296Y0320525D02*
X0233657Y0320525D01*
X0233610Y0321524D02*
X0230343Y0321524D01*
X0230266Y0322522D02*
X0233687Y0322522D01*
X0234100Y0323521D02*
X0229853Y0323521D01*
X0229081Y0324519D02*
X0234872Y0324519D01*
X0236448Y0325518D02*
X0227771Y0325518D01*
X0227771Y0326516D02*
X0264522Y0326516D01*
X0265520Y0325518D02*
X0251127Y0325518D01*
X0252703Y0324519D02*
X0264669Y0324519D01*
X0266236Y0324519D02*
X0266519Y0324519D01*
X0268379Y0322522D02*
X0268516Y0322522D01*
X0268552Y0321524D02*
X0269514Y0321524D01*
X0270513Y0320525D02*
X0268409Y0320525D01*
X0267875Y0319527D02*
X0271511Y0319527D01*
X0272510Y0318528D02*
X0266407Y0318528D01*
X0264498Y0318528D02*
X0252774Y0318528D01*
X0253255Y0317439D02*
X0252685Y0317025D01*
X0252188Y0316527D01*
X0251774Y0315958D01*
X0251454Y0315331D01*
X0251237Y0314661D01*
X0251132Y0314000D01*
X0255213Y0314000D01*
X0255213Y0318080D01*
X0254551Y0317976D01*
X0253882Y0317758D01*
X0253255Y0317439D01*
X0253433Y0317530D02*
X0251298Y0317530D01*
X0252191Y0316531D02*
X0246912Y0316531D01*
X0247409Y0316034D02*
X0246207Y0317235D01*
X0244637Y0317886D01*
X0242938Y0317886D01*
X0241368Y0317235D01*
X0240166Y0316034D01*
X0239516Y0314464D01*
X0239516Y0312764D01*
X0240166Y0311194D01*
X0241368Y0309993D01*
X0242938Y0309343D01*
X0244637Y0309343D01*
X0246207Y0309993D01*
X0247409Y0311194D01*
X0248059Y0312764D01*
X0248059Y0314464D01*
X0247409Y0316034D01*
X0247616Y0315533D02*
X0251557Y0315533D01*
X0251217Y0314534D02*
X0248030Y0314534D01*
X0248059Y0313536D02*
X0255213Y0313536D01*
X0255213Y0313228D02*
X0251132Y0313228D01*
X0251237Y0312567D01*
X0251454Y0311898D01*
X0251774Y0311271D01*
X0252188Y0310701D01*
X0252685Y0310203D01*
X0253255Y0309790D01*
X0253882Y0309470D01*
X0254551Y0309253D01*
X0255213Y0309148D01*
X0255213Y0313228D01*
X0255984Y0313228D01*
X0255984Y0309148D01*
X0256646Y0309253D01*
X0257315Y0309470D01*
X0257942Y0309790D01*
X0258512Y0310203D01*
X0259009Y0310701D01*
X0259423Y0311271D01*
X0259742Y0311898D01*
X0259960Y0312567D01*
X0260065Y0313228D01*
X0255984Y0313228D01*
X0255984Y0314000D01*
X0255213Y0314000D01*
X0255213Y0313228D01*
X0255213Y0312537D02*
X0255984Y0312537D01*
X0255984Y0311539D02*
X0255213Y0311539D01*
X0255213Y0310540D02*
X0255984Y0310540D01*
X0255984Y0309541D02*
X0255213Y0309541D01*
X0253742Y0309541D02*
X0251678Y0309541D01*
X0252113Y0309361D02*
X0250543Y0310012D01*
X0248843Y0310012D01*
X0247273Y0309361D01*
X0246072Y0308160D01*
X0245421Y0306590D01*
X0245421Y0304890D01*
X0246072Y0303320D01*
X0247273Y0302119D01*
X0248843Y0301469D01*
X0250543Y0301469D01*
X0251556Y0301888D01*
X0251426Y0301759D01*
X0251229Y0301417D01*
X0251127Y0301035D01*
X0251127Y0298252D01*
X0255213Y0298252D01*
X0255213Y0302338D01*
X0252429Y0302338D01*
X0252296Y0302302D01*
X0253314Y0303320D01*
X0253965Y0304890D01*
X0253965Y0306590D01*
X0253314Y0308160D01*
X0252113Y0309361D01*
X0252931Y0308543D02*
X0282495Y0308543D01*
X0283493Y0307544D02*
X0253569Y0307544D01*
X0253965Y0306546D02*
X0284492Y0306546D01*
X0285490Y0305547D02*
X0253965Y0305547D01*
X0253823Y0304549D02*
X0285972Y0304549D01*
X0285972Y0303550D02*
X0253409Y0303550D01*
X0252546Y0302552D02*
X0285972Y0302552D01*
X0285972Y0301553D02*
X0259889Y0301553D01*
X0259968Y0301417D02*
X0259770Y0301759D01*
X0259491Y0302038D01*
X0259149Y0302236D01*
X0258768Y0302338D01*
X0255984Y0302338D01*
X0255984Y0298252D01*
X0255213Y0298252D01*
X0255213Y0297480D01*
X0255984Y0297480D01*
X0255984Y0293394D01*
X0258768Y0293394D01*
X0259149Y0293497D01*
X0259491Y0293694D01*
X0259770Y0293973D01*
X0259968Y0294316D01*
X0260070Y0294697D01*
X0260070Y0297480D01*
X0255984Y0297480D01*
X0255984Y0298252D01*
X0260070Y0298252D01*
X0260070Y0301035D01*
X0259968Y0301417D01*
X0260070Y0300555D02*
X0285972Y0300555D01*
X0285972Y0299556D02*
X0260070Y0299556D01*
X0260070Y0298558D02*
X0285972Y0298558D01*
X0285972Y0297559D02*
X0255984Y0297559D01*
X0255213Y0297559D02*
X0248059Y0297559D01*
X0248059Y0297016D02*
X0248059Y0298716D01*
X0247409Y0300286D01*
X0246207Y0301487D01*
X0244637Y0302138D01*
X0242938Y0302138D01*
X0241368Y0301487D01*
X0240166Y0300286D01*
X0239516Y0298716D01*
X0239516Y0297016D01*
X0240166Y0295446D01*
X0241368Y0294245D01*
X0242938Y0293594D01*
X0244637Y0293594D01*
X0246207Y0294245D01*
X0247409Y0295446D01*
X0248059Y0297016D01*
X0247870Y0296561D02*
X0251127Y0296561D01*
X0251127Y0297480D02*
X0251127Y0294697D01*
X0251229Y0294316D01*
X0251426Y0293973D01*
X0251706Y0293694D01*
X0252048Y0293497D01*
X0252429Y0293394D01*
X0255213Y0293394D01*
X0255213Y0297480D01*
X0251127Y0297480D01*
X0251127Y0298558D02*
X0248059Y0298558D01*
X0247711Y0299556D02*
X0251127Y0299556D01*
X0251127Y0300555D02*
X0247140Y0300555D01*
X0246048Y0301553D02*
X0248638Y0301553D01*
X0246840Y0302552D02*
X0240735Y0302552D01*
X0240302Y0302119D02*
X0241503Y0303320D01*
X0242154Y0304890D01*
X0242154Y0306590D01*
X0241503Y0308160D01*
X0240302Y0309361D01*
X0238732Y0310012D01*
X0237032Y0310012D01*
X0235462Y0309361D01*
X0234261Y0308160D01*
X0233610Y0306590D01*
X0233610Y0304890D01*
X0234261Y0303320D01*
X0235462Y0302119D01*
X0237032Y0301469D01*
X0238732Y0301469D01*
X0240302Y0302119D01*
X0241527Y0301553D02*
X0238937Y0301553D01*
X0240435Y0300555D02*
X0235329Y0300555D01*
X0235900Y0299556D02*
X0239864Y0299556D01*
X0239516Y0298558D02*
X0236248Y0298558D01*
X0236248Y0297559D02*
X0239516Y0297559D01*
X0239704Y0296561D02*
X0236059Y0296561D01*
X0235646Y0295562D02*
X0240118Y0295562D01*
X0241049Y0294564D02*
X0234715Y0294564D01*
X0232248Y0291568D02*
X0229170Y0291568D01*
X0228804Y0292567D02*
X0285972Y0292567D01*
X0285972Y0293565D02*
X0259268Y0293565D01*
X0260034Y0294564D02*
X0285972Y0294564D01*
X0285972Y0295562D02*
X0260070Y0295562D01*
X0260070Y0296561D02*
X0285972Y0296561D01*
X0284789Y0291568D02*
X0280515Y0291568D01*
X0281514Y0290570D02*
X0284050Y0290570D01*
X0283636Y0289571D02*
X0282512Y0289571D01*
X0286067Y0279816D02*
X0291808Y0279816D01*
X0292804Y0280812D01*
X0296894Y0284902D01*
X0296894Y0312163D01*
X0295899Y0313159D01*
X0293003Y0316054D01*
X0293472Y0317187D01*
X0293472Y0319176D01*
X0292711Y0321013D01*
X0291489Y0322236D01*
X0291489Y0342551D01*
X0340638Y0342551D01*
X0340638Y0371441D01*
X0380945Y0371441D01*
X0380945Y0365576D01*
X0381402Y0364474D01*
X0382246Y0363630D01*
X0383348Y0363173D01*
X0404567Y0363173D01*
X0404567Y0329016D01*
X0394372Y0329016D01*
X0393269Y0328559D01*
X0392425Y0327715D01*
X0391969Y0326612D01*
X0391969Y0317545D01*
X0392425Y0316442D01*
X0393269Y0315598D01*
X0394372Y0315142D01*
X0400630Y0315142D01*
X0400630Y0308150D01*
X0393191Y0308150D01*
X0392088Y0307693D01*
X0391244Y0306849D01*
X0390787Y0305746D01*
X0390787Y0296679D01*
X0391244Y0295576D01*
X0392088Y0294732D01*
X0393191Y0294276D01*
X0400630Y0294276D01*
X0400630Y0276600D01*
X0401087Y0275497D01*
X0401931Y0274654D01*
X0403033Y0274197D01*
X0404567Y0274197D01*
X0404567Y0261299D01*
X0370750Y0261299D01*
X0369647Y0260842D01*
X0368803Y0259999D01*
X0368346Y0258896D01*
X0368346Y0258299D01*
X0336551Y0258299D01*
X0336551Y0258896D01*
X0336094Y0259999D01*
X0335251Y0260842D01*
X0334148Y0261299D01*
X0328230Y0261299D01*
X0327127Y0260842D01*
X0326283Y0259999D01*
X0325827Y0258896D01*
X0325827Y0258299D01*
X0307584Y0258299D01*
X0286067Y0279816D01*
X0286297Y0279586D02*
X0400630Y0279586D01*
X0400630Y0278588D02*
X0287296Y0278588D01*
X0288294Y0277589D02*
X0400630Y0277589D01*
X0400634Y0276591D02*
X0289293Y0276591D01*
X0290291Y0275592D02*
X0401047Y0275592D01*
X0402075Y0274594D02*
X0291290Y0274594D01*
X0292288Y0273595D02*
X0404567Y0273595D01*
X0404567Y0272597D02*
X0293287Y0272597D01*
X0294285Y0271598D02*
X0404567Y0271598D01*
X0404567Y0270600D02*
X0295284Y0270600D01*
X0296282Y0269601D02*
X0404567Y0269601D01*
X0404567Y0268603D02*
X0297281Y0268603D01*
X0298279Y0267604D02*
X0404567Y0267604D01*
X0404567Y0266605D02*
X0299278Y0266605D01*
X0300276Y0265607D02*
X0404567Y0265607D01*
X0404567Y0264608D02*
X0301275Y0264608D01*
X0302273Y0263610D02*
X0404567Y0263610D01*
X0404567Y0262611D02*
X0303272Y0262611D01*
X0304270Y0261613D02*
X0404567Y0261613D01*
X0400630Y0280585D02*
X0292577Y0280585D01*
X0293576Y0281583D02*
X0400630Y0281583D01*
X0400630Y0282582D02*
X0294574Y0282582D01*
X0295573Y0283580D02*
X0400630Y0283580D01*
X0400630Y0284579D02*
X0296571Y0284579D01*
X0296894Y0285577D02*
X0400630Y0285577D01*
X0400630Y0286576D02*
X0296894Y0286576D01*
X0296894Y0287574D02*
X0400630Y0287574D01*
X0400630Y0288573D02*
X0296894Y0288573D01*
X0296894Y0289571D02*
X0400630Y0289571D01*
X0400630Y0290570D02*
X0296894Y0290570D01*
X0296894Y0291568D02*
X0400630Y0291568D01*
X0400630Y0292567D02*
X0296894Y0292567D01*
X0296894Y0293565D02*
X0400630Y0293565D01*
X0392495Y0294564D02*
X0296894Y0294564D01*
X0296894Y0295562D02*
X0391258Y0295562D01*
X0390836Y0296561D02*
X0296894Y0296561D01*
X0296894Y0297559D02*
X0390787Y0297559D01*
X0390787Y0298558D02*
X0296894Y0298558D01*
X0296894Y0299556D02*
X0390787Y0299556D01*
X0390787Y0300555D02*
X0296894Y0300555D01*
X0296894Y0301553D02*
X0390787Y0301553D01*
X0390787Y0302552D02*
X0296894Y0302552D01*
X0296894Y0303550D02*
X0390787Y0303550D01*
X0390787Y0304549D02*
X0296894Y0304549D01*
X0296894Y0305547D02*
X0390787Y0305547D01*
X0391119Y0306546D02*
X0296894Y0306546D01*
X0296894Y0307544D02*
X0391940Y0307544D01*
X0393428Y0315533D02*
X0293525Y0315533D01*
X0293201Y0316531D02*
X0392388Y0316531D01*
X0391975Y0317530D02*
X0293472Y0317530D01*
X0293472Y0318528D02*
X0391969Y0318528D01*
X0391969Y0319527D02*
X0293327Y0319527D01*
X0292913Y0320525D02*
X0391969Y0320525D01*
X0391969Y0321524D02*
X0292201Y0321524D01*
X0291489Y0322522D02*
X0391969Y0322522D01*
X0391969Y0323521D02*
X0291489Y0323521D01*
X0291489Y0324519D02*
X0391969Y0324519D01*
X0391969Y0325518D02*
X0291489Y0325518D01*
X0291489Y0326516D02*
X0391969Y0326516D01*
X0392342Y0327515D02*
X0291489Y0327515D01*
X0291489Y0328513D02*
X0393223Y0328513D01*
X0404567Y0329512D02*
X0291489Y0329512D01*
X0291489Y0330510D02*
X0404567Y0330510D01*
X0404567Y0331509D02*
X0291489Y0331509D01*
X0291489Y0332507D02*
X0404567Y0332507D01*
X0404567Y0333506D02*
X0291489Y0333506D01*
X0291489Y0334504D02*
X0404567Y0334504D01*
X0404567Y0335503D02*
X0291489Y0335503D01*
X0291489Y0336501D02*
X0404567Y0336501D01*
X0404567Y0337500D02*
X0291489Y0337500D01*
X0291489Y0338498D02*
X0404567Y0338498D01*
X0404567Y0339497D02*
X0291489Y0339497D01*
X0291489Y0340495D02*
X0404567Y0340495D01*
X0404567Y0341494D02*
X0291489Y0341494D01*
X0291489Y0342492D02*
X0404567Y0342492D01*
X0404567Y0343491D02*
X0340638Y0343491D01*
X0340638Y0344489D02*
X0404567Y0344489D01*
X0404567Y0345488D02*
X0340638Y0345488D01*
X0340638Y0346486D02*
X0404567Y0346486D01*
X0404567Y0347485D02*
X0340638Y0347485D01*
X0340638Y0348483D02*
X0404567Y0348483D01*
X0404567Y0349482D02*
X0340638Y0349482D01*
X0340638Y0350480D02*
X0404567Y0350480D01*
X0404567Y0351479D02*
X0340638Y0351479D01*
X0340638Y0352477D02*
X0404567Y0352477D01*
X0404567Y0353476D02*
X0340638Y0353476D01*
X0340638Y0354474D02*
X0404567Y0354474D01*
X0404567Y0355473D02*
X0340638Y0355473D01*
X0340638Y0356472D02*
X0404567Y0356472D01*
X0404567Y0357470D02*
X0340638Y0357470D01*
X0340638Y0358469D02*
X0404567Y0358469D01*
X0404567Y0359467D02*
X0340638Y0359467D01*
X0340638Y0360466D02*
X0404567Y0360466D01*
X0404567Y0361464D02*
X0340638Y0361464D01*
X0340638Y0362463D02*
X0404567Y0362463D01*
X0382653Y0363461D02*
X0340638Y0363461D01*
X0340638Y0364460D02*
X0381416Y0364460D01*
X0380994Y0365458D02*
X0340638Y0365458D01*
X0340638Y0366457D02*
X0380945Y0366457D01*
X0380945Y0367455D02*
X0340638Y0367455D01*
X0340638Y0368454D02*
X0380945Y0368454D01*
X0380945Y0369452D02*
X0340638Y0369452D01*
X0340638Y0370451D02*
X0380945Y0370451D01*
X0400630Y0314534D02*
X0294524Y0314534D01*
X0295522Y0313536D02*
X0400630Y0313536D01*
X0400630Y0312537D02*
X0296521Y0312537D01*
X0296894Y0311539D02*
X0400630Y0311539D01*
X0400630Y0310540D02*
X0296894Y0310540D01*
X0296894Y0309541D02*
X0400630Y0309541D01*
X0400630Y0308543D02*
X0296894Y0308543D01*
X0281496Y0309541D02*
X0257455Y0309541D01*
X0258848Y0310540D02*
X0280498Y0310540D01*
X0279499Y0311539D02*
X0259559Y0311539D01*
X0259950Y0312537D02*
X0278501Y0312537D01*
X0277502Y0313536D02*
X0255984Y0313536D01*
X0255984Y0314000D02*
X0260065Y0314000D01*
X0259960Y0314661D01*
X0259742Y0315331D01*
X0259423Y0315958D01*
X0259009Y0316527D01*
X0258512Y0317025D01*
X0257942Y0317439D01*
X0257315Y0317758D01*
X0256646Y0317976D01*
X0255984Y0318080D01*
X0255984Y0314000D01*
X0255984Y0314534D02*
X0255213Y0314534D01*
X0255213Y0315533D02*
X0255984Y0315533D01*
X0255984Y0316531D02*
X0255213Y0316531D01*
X0255213Y0317530D02*
X0255984Y0317530D01*
X0257764Y0317530D02*
X0273508Y0317530D01*
X0274507Y0316531D02*
X0259005Y0316531D01*
X0259640Y0315533D02*
X0275505Y0315533D01*
X0276504Y0314534D02*
X0259980Y0314534D01*
X0263030Y0319527D02*
X0253504Y0319527D01*
X0253475Y0323521D02*
X0263101Y0323521D01*
X0263523Y0327515D02*
X0227771Y0327515D01*
X0227771Y0328513D02*
X0262524Y0328513D01*
X0261526Y0329512D02*
X0227771Y0329512D01*
X0227871Y0330510D02*
X0260527Y0330510D01*
X0259529Y0331509D02*
X0228869Y0331509D01*
X0229868Y0332507D02*
X0232098Y0332507D01*
X0231345Y0333506D02*
X0230866Y0333506D01*
X0239316Y0325518D02*
X0248259Y0325518D01*
X0246683Y0324519D02*
X0240892Y0324519D01*
X0241664Y0323521D02*
X0245911Y0323521D01*
X0245498Y0322522D02*
X0242077Y0322522D01*
X0242154Y0321524D02*
X0245421Y0321524D01*
X0245468Y0320525D02*
X0242107Y0320525D01*
X0241693Y0319527D02*
X0245882Y0319527D01*
X0246612Y0318528D02*
X0240963Y0318528D01*
X0242078Y0317530D02*
X0239487Y0317530D01*
X0240663Y0316531D02*
X0235100Y0316531D01*
X0235805Y0315533D02*
X0239958Y0315533D01*
X0239545Y0314534D02*
X0236219Y0314534D01*
X0236248Y0313536D02*
X0239516Y0313536D01*
X0239610Y0312537D02*
X0236154Y0312537D01*
X0235740Y0311539D02*
X0240024Y0311539D01*
X0240821Y0310540D02*
X0234943Y0310540D01*
X0235897Y0309541D02*
X0233306Y0309541D01*
X0234644Y0308543D02*
X0229309Y0308543D01*
X0229947Y0307544D02*
X0234006Y0307544D01*
X0233610Y0306546D02*
X0230343Y0306546D01*
X0230343Y0305547D02*
X0233610Y0305547D01*
X0233752Y0304549D02*
X0230201Y0304549D01*
X0229787Y0303550D02*
X0234165Y0303550D01*
X0235029Y0302552D02*
X0228924Y0302552D01*
X0229716Y0301553D02*
X0227125Y0301553D01*
X0227385Y0300555D02*
X0228624Y0300555D01*
X0228804Y0294564D02*
X0229238Y0294564D01*
X0228804Y0293565D02*
X0251929Y0293565D01*
X0251162Y0294564D02*
X0246526Y0294564D01*
X0247457Y0295562D02*
X0251127Y0295562D01*
X0255213Y0295562D02*
X0255984Y0295562D01*
X0255984Y0294564D02*
X0255213Y0294564D01*
X0255213Y0293565D02*
X0255984Y0293565D01*
X0255984Y0296561D02*
X0255213Y0296561D01*
X0255213Y0298558D02*
X0255984Y0298558D01*
X0255984Y0299556D02*
X0255213Y0299556D01*
X0255213Y0300555D02*
X0255984Y0300555D01*
X0255984Y0301553D02*
X0255213Y0301553D01*
X0251308Y0301553D02*
X0250748Y0301553D01*
X0245976Y0303550D02*
X0241598Y0303550D01*
X0242012Y0304549D02*
X0245563Y0304549D01*
X0245421Y0305547D02*
X0242154Y0305547D01*
X0242154Y0306546D02*
X0245421Y0306546D01*
X0245817Y0307544D02*
X0241758Y0307544D01*
X0241120Y0308543D02*
X0246455Y0308543D01*
X0247708Y0309541D02*
X0245117Y0309541D01*
X0246754Y0310540D02*
X0252349Y0310540D01*
X0251637Y0311539D02*
X0247551Y0311539D01*
X0247965Y0312537D02*
X0251247Y0312537D01*
X0248087Y0317530D02*
X0245497Y0317530D01*
X0242457Y0309541D02*
X0239867Y0309541D01*
X0236827Y0301553D02*
X0234237Y0301553D01*
X0230646Y0309541D02*
X0228056Y0309541D01*
X0233686Y0317530D02*
X0236276Y0317530D01*
X0243491Y0332507D02*
X0258530Y0332507D01*
X0257532Y0333506D02*
X0244796Y0333506D01*
X0244717Y0333427D02*
X0244717Y0333427D01*
X0245795Y0334504D02*
X0256533Y0334504D01*
X0255535Y0335503D02*
X0246793Y0335503D01*
X0247792Y0336501D02*
X0254536Y0336501D01*
X0253538Y0337500D02*
X0248790Y0337500D01*
X0249789Y0338498D02*
X0252539Y0338498D01*
X0251541Y0339497D02*
X0250787Y0339497D01*
X0231250Y0290570D02*
X0229913Y0290570D01*
X0230204Y0289571D02*
X0230251Y0289571D01*
X0305269Y0260614D02*
X0326899Y0260614D01*
X0326125Y0259616D02*
X0306267Y0259616D01*
X0307266Y0258617D02*
X0325827Y0258617D01*
X0335479Y0260614D02*
X0369419Y0260614D01*
X0368645Y0259616D02*
X0336253Y0259616D01*
X0336551Y0258617D02*
X0368346Y0258617D01*
X0043976Y0263610D02*
X0043598Y0263610D01*
X0043598Y0264608D02*
X0043976Y0264608D01*
X0043976Y0265607D02*
X0043598Y0265607D01*
X0043598Y0266605D02*
X0043976Y0266605D01*
X0043976Y0268603D02*
X0043598Y0268603D01*
X0043598Y0269601D02*
X0043976Y0269601D01*
X0043976Y0270600D02*
X0043598Y0270600D01*
X0043598Y0271598D02*
X0043976Y0271598D01*
X0039326Y0273595D02*
X0027116Y0273595D01*
X0028498Y0274594D02*
X0039237Y0274594D01*
X0039237Y0275592D02*
X0028979Y0275592D01*
X0029071Y0276591D02*
X0039237Y0276591D01*
X0039237Y0277589D02*
X0029071Y0277589D01*
X0029071Y0278588D02*
X0039237Y0278588D01*
X0039237Y0279586D02*
X0029071Y0279586D01*
X0029071Y0280585D02*
X0039237Y0280585D01*
X0039560Y0281583D02*
X0029071Y0281583D01*
X0019228Y0266605D02*
X0039116Y0266605D01*
X0039407Y0265607D02*
X0019228Y0265607D01*
X0019228Y0264608D02*
X0039997Y0264608D01*
X0041022Y0263610D02*
X0019228Y0263610D01*
D11*
X0087866Y0204873D02*
X0087866Y0199127D01*
X0097866Y0199127D02*
X0097866Y0204873D01*
X0107866Y0204873D02*
X0107866Y0199127D01*
X0117866Y0199127D02*
X0117866Y0204873D01*
X0127866Y0204873D02*
X0127866Y0199127D01*
X0137866Y0199127D02*
X0137866Y0204873D01*
X0147866Y0204873D02*
X0147866Y0199127D01*
X0157866Y0199127D02*
X0157866Y0204873D01*
X0167866Y0204873D02*
X0167866Y0199127D01*
X0177866Y0199127D02*
X0177866Y0204873D01*
X0193866Y0204873D02*
X0193866Y0199127D01*
X0203866Y0199127D02*
X0203866Y0204873D01*
X0213866Y0204873D02*
X0213866Y0199127D01*
X0223866Y0199127D02*
X0223866Y0204873D01*
X0233866Y0204873D02*
X0233866Y0199127D01*
X0243866Y0199127D02*
X0243866Y0204873D01*
X0253866Y0204873D02*
X0253866Y0199127D01*
X0263866Y0199127D02*
X0263866Y0204873D01*
X0283866Y0204873D02*
X0283866Y0199127D01*
X0293866Y0199127D02*
X0293866Y0204873D01*
X0303866Y0204873D02*
X0303866Y0199127D01*
X0313866Y0199127D02*
X0313866Y0204873D01*
X0323866Y0204873D02*
X0323866Y0199127D01*
X0333866Y0199127D02*
X0333866Y0204873D01*
X0343866Y0204873D02*
X0343866Y0199127D01*
X0353866Y0199127D02*
X0353866Y0204873D01*
X0353866Y0014873D02*
X0353866Y0009127D01*
X0363866Y0009127D02*
X0363866Y0014873D01*
X0373866Y0014873D02*
X0373866Y0009127D01*
X0343866Y0009127D02*
X0343866Y0014873D01*
X0333866Y0014873D02*
X0333866Y0009127D01*
X0323866Y0009127D02*
X0323866Y0014873D01*
X0313866Y0014873D02*
X0313866Y0009127D01*
X0303866Y0009127D02*
X0303866Y0014873D01*
X0283866Y0014873D02*
X0283866Y0009127D01*
X0273866Y0009127D02*
X0273866Y0014873D01*
X0263866Y0014873D02*
X0263866Y0009127D01*
X0253866Y0009127D02*
X0253866Y0014873D01*
X0243866Y0014873D02*
X0243866Y0009127D01*
X0233866Y0009127D02*
X0233866Y0014873D01*
X0223866Y0014873D02*
X0223866Y0009127D01*
X0213866Y0009127D02*
X0213866Y0014873D01*
X0193866Y0014873D02*
X0193866Y0009127D01*
X0183866Y0009127D02*
X0183866Y0014873D01*
X0173866Y0014873D02*
X0173866Y0009127D01*
X0163866Y0009127D02*
X0163866Y0014873D01*
X0153866Y0014873D02*
X0153866Y0009127D01*
X0143866Y0009127D02*
X0143866Y0014873D01*
X0133866Y0014873D02*
X0133866Y0009127D01*
X0123866Y0009127D02*
X0123866Y0014873D01*
D12*
X0237613Y0052925D03*
X0383866Y0052000D03*
X0383866Y0042000D03*
X0383866Y0032000D03*
X0393866Y0032000D03*
X0393866Y0042000D03*
X0393866Y0052000D03*
X0393866Y0062000D03*
X0383866Y0062000D03*
X0383866Y0072000D03*
X0383866Y0082000D03*
X0383866Y0092000D03*
X0383866Y0102000D03*
X0383866Y0112000D03*
X0383866Y0122000D03*
X0383866Y0132000D03*
X0383866Y0142000D03*
X0383866Y0152000D03*
X0383866Y0162000D03*
X0383866Y0172000D03*
X0383866Y0182000D03*
X0383866Y0192000D03*
X0383866Y0202000D03*
X0393866Y0202000D03*
X0393866Y0192000D03*
X0393866Y0182000D03*
X0393866Y0172000D03*
X0393866Y0162000D03*
X0393866Y0152000D03*
X0393866Y0142000D03*
X0393866Y0132000D03*
X0393866Y0122000D03*
X0393866Y0112000D03*
X0393866Y0102000D03*
X0393866Y0092000D03*
X0393866Y0082000D03*
X0393866Y0072000D03*
D13*
X0364614Y0051882D03*
X0364614Y0041882D03*
X0354614Y0041882D03*
X0344614Y0041882D03*
X0344614Y0051882D03*
X0354614Y0051882D03*
X0334614Y0051882D03*
X0324614Y0051882D03*
X0324614Y0041882D03*
X0334614Y0041882D03*
X0314614Y0041882D03*
X0304614Y0041882D03*
X0304614Y0051882D03*
X0314614Y0051882D03*
X0294614Y0051882D03*
X0294614Y0041882D03*
D14*
X0204575Y0056252D03*
X0189265Y0056176D03*
X0189265Y0038376D03*
X0204575Y0016252D03*
X0163665Y0038376D03*
X0163665Y0056176D03*
X0157961Y0151291D03*
X0148118Y0151291D03*
X0137882Y0151291D03*
X0137882Y0191291D03*
X0148118Y0191291D03*
X0157961Y0191291D03*
X0288472Y0288181D03*
X0288472Y0318181D03*
D15*
X0245238Y0058925D03*
X0245238Y0046925D03*
X0237613Y0041925D03*
D16*
X0324024Y0185808D02*
X0324024Y0192208D01*
X0334024Y0192208D02*
X0334024Y0185808D01*
X0077921Y0198800D02*
X0077921Y0205200D01*
X0067921Y0205200D02*
X0067921Y0198800D01*
X0057921Y0198800D02*
X0057921Y0205200D01*
X0047921Y0205200D02*
X0047921Y0198800D01*
X0037921Y0198800D02*
X0037921Y0205200D01*
X0027921Y0205200D02*
X0027921Y0198800D01*
X0017921Y0198800D02*
X0017921Y0205200D01*
D17*
X0220664Y0163437D03*
X0220664Y0158437D03*
X0220664Y0153437D03*
X0220664Y0148437D03*
X0244864Y0148437D03*
X0244864Y0153437D03*
X0244864Y0158437D03*
X0244864Y0163437D03*
D18*
X0248906Y0123014D03*
X0248913Y0115671D03*
X0239071Y0115671D03*
X0239063Y0123014D03*
X0229220Y0123014D03*
X0229228Y0115671D03*
X0219386Y0115671D03*
X0219378Y0123014D03*
X0209535Y0123014D03*
X0209543Y0115671D03*
X0199701Y0115671D03*
X0199693Y0123014D03*
X0189850Y0123014D03*
X0189858Y0115671D03*
X0180016Y0115671D03*
X0180008Y0123014D03*
X0170165Y0123014D03*
X0170173Y0115671D03*
X0160331Y0115671D03*
X0160323Y0123014D03*
X0150480Y0123014D03*
X0150488Y0115671D03*
X0140646Y0115671D03*
X0140638Y0123014D03*
X0130795Y0123014D03*
X0130803Y0115671D03*
X0120961Y0115671D03*
X0120953Y0123014D03*
X0111110Y0123014D03*
X0111118Y0115671D03*
X0101276Y0115671D03*
X0101268Y0123014D03*
X0091425Y0123014D03*
X0091433Y0115671D03*
X0081591Y0115671D03*
X0081583Y0123014D03*
X0081583Y0095947D03*
X0091425Y0095947D03*
X0101268Y0095947D03*
X0111110Y0095947D03*
X0120953Y0095947D03*
X0130795Y0095947D03*
X0140638Y0095947D03*
X0150480Y0095947D03*
X0160323Y0095947D03*
X0170165Y0095947D03*
X0180008Y0095947D03*
X0189850Y0095947D03*
X0199693Y0095947D03*
X0209535Y0095947D03*
X0219378Y0095947D03*
X0229220Y0095947D03*
X0239063Y0095947D03*
X0248906Y0095947D03*
X0258748Y0095947D03*
X0268591Y0095947D03*
X0278433Y0095947D03*
X0288276Y0095947D03*
X0298118Y0095947D03*
X0298126Y0115671D03*
X0298118Y0123014D03*
X0288276Y0123014D03*
X0288283Y0115671D03*
X0278441Y0115671D03*
X0278433Y0123014D03*
X0268591Y0123014D03*
X0268598Y0115671D03*
X0258756Y0115671D03*
X0258748Y0123014D03*
X0327646Y0123014D03*
X0327654Y0115671D03*
X0337496Y0115671D03*
X0337488Y0123014D03*
X0347331Y0123014D03*
X0347339Y0115671D03*
X0357181Y0115671D03*
X0357173Y0123014D03*
X0357173Y0095947D03*
X0347331Y0095947D03*
X0337488Y0095947D03*
X0327646Y0095947D03*
X0052055Y0095947D03*
X0042213Y0095947D03*
X0032370Y0095947D03*
X0022528Y0095947D03*
X0022535Y0115671D03*
X0022528Y0123014D03*
X0032370Y0123014D03*
X0032378Y0115671D03*
X0042220Y0115671D03*
X0042213Y0123014D03*
X0052055Y0123014D03*
X0052063Y0115671D03*
D19*
X0227657Y0172079D03*
X0238657Y0172079D03*
D20*
X0344575Y0061724D03*
X0354575Y0061724D03*
X0364575Y0061724D03*
X0123866Y0057000D03*
X0123866Y0047000D03*
X0123866Y0037000D03*
X0123866Y0027000D03*
X0113866Y0022000D03*
X0103866Y0022000D03*
X0103866Y0012000D03*
X0113866Y0012000D03*
X0093866Y0012000D03*
X0083866Y0012000D03*
X0073866Y0012000D03*
X0073866Y0022000D03*
X0083866Y0022000D03*
X0093866Y0022000D03*
X0093866Y0032000D03*
X0083866Y0032000D03*
X0073866Y0032000D03*
X0063866Y0032000D03*
X0053866Y0032000D03*
X0043866Y0032000D03*
X0033866Y0032000D03*
X0023866Y0032000D03*
X0023866Y0022000D03*
X0023866Y0012000D03*
X0033866Y0012000D03*
X0033866Y0022000D03*
X0043866Y0022000D03*
X0043866Y0012000D03*
X0053866Y0012000D03*
X0053866Y0022000D03*
X0063866Y0022000D03*
X0063866Y0012000D03*
X0063866Y0042000D03*
X0053866Y0042000D03*
X0053866Y0052000D03*
X0063866Y0052000D03*
X0073866Y0052000D03*
X0073866Y0042000D03*
X0083866Y0042000D03*
X0083866Y0052000D03*
X0093866Y0052000D03*
X0093866Y0042000D03*
X0103866Y0042000D03*
X0103866Y0052000D03*
X0113866Y0052000D03*
X0113866Y0042000D03*
X0113866Y0032000D03*
X0103866Y0032000D03*
X0103866Y0062000D03*
X0113866Y0062000D03*
X0093866Y0062000D03*
X0043866Y0062000D03*
X0033866Y0062000D03*
X0023866Y0062000D03*
X0023866Y0052000D03*
X0023866Y0042000D03*
X0033866Y0042000D03*
X0033866Y0052000D03*
X0043866Y0052000D03*
X0043866Y0042000D03*
X0063079Y0153417D03*
X0072921Y0153417D03*
X0072921Y0163417D03*
X0063079Y0163417D03*
X0063079Y0173417D03*
X0072921Y0173417D03*
D21*
X0063866Y0074929D03*
X0063866Y0068929D03*
X0063866Y0062929D03*
X0053827Y0062929D03*
X0053827Y0068929D03*
X0053827Y0074929D03*
D22*
X0101465Y0234283D03*
X0319969Y0234283D03*
D23*
X0309142Y0234283D03*
X0299299Y0234283D03*
X0289457Y0234283D03*
X0279614Y0234283D03*
X0269772Y0234283D03*
X0259929Y0234283D03*
X0250087Y0234283D03*
X0240244Y0234283D03*
X0230402Y0234283D03*
X0220559Y0234283D03*
X0210717Y0234283D03*
X0200874Y0234283D03*
X0191031Y0234283D03*
X0181189Y0234283D03*
X0171346Y0234283D03*
X0161504Y0234283D03*
X0151661Y0234283D03*
X0141819Y0234283D03*
X0131976Y0234283D03*
X0122134Y0234283D03*
X0112291Y0234283D03*
X0112291Y0360268D03*
X0102449Y0360268D03*
X0092606Y0360268D03*
X0122134Y0360268D03*
X0131976Y0360268D03*
X0141819Y0360268D03*
X0151661Y0360268D03*
X0161504Y0360268D03*
X0171346Y0360268D03*
X0181189Y0360268D03*
X0191031Y0360268D03*
X0200874Y0360268D03*
X0210717Y0360268D03*
X0220559Y0360268D03*
X0230402Y0360268D03*
X0240244Y0360268D03*
X0250087Y0360268D03*
X0259929Y0360268D03*
X0269772Y0360268D03*
X0279614Y0360268D03*
X0289457Y0360268D03*
X0299299Y0360268D03*
X0309142Y0360268D03*
X0318984Y0360268D03*
X0328827Y0360268D03*
D24*
X0028335Y0311843D02*
X0028337Y0311924D01*
X0028343Y0312006D01*
X0028353Y0312087D01*
X0028367Y0312167D01*
X0028384Y0312246D01*
X0028406Y0312325D01*
X0028431Y0312402D01*
X0028460Y0312479D01*
X0028493Y0312553D01*
X0028530Y0312626D01*
X0028569Y0312697D01*
X0028613Y0312766D01*
X0028659Y0312833D01*
X0028709Y0312897D01*
X0028762Y0312959D01*
X0028818Y0313019D01*
X0028876Y0313075D01*
X0028938Y0313129D01*
X0029002Y0313180D01*
X0029068Y0313227D01*
X0029136Y0313271D01*
X0029207Y0313312D01*
X0029279Y0313349D01*
X0029354Y0313383D01*
X0029429Y0313413D01*
X0029507Y0313439D01*
X0029585Y0313462D01*
X0029664Y0313480D01*
X0029744Y0313495D01*
X0029825Y0313506D01*
X0029906Y0313513D01*
X0029988Y0313516D01*
X0030069Y0313515D01*
X0030150Y0313510D01*
X0030231Y0313501D01*
X0030312Y0313488D01*
X0030392Y0313471D01*
X0030470Y0313451D01*
X0030548Y0313426D01*
X0030625Y0313398D01*
X0030700Y0313366D01*
X0030773Y0313331D01*
X0030844Y0313292D01*
X0030914Y0313249D01*
X0030981Y0313204D01*
X0031047Y0313155D01*
X0031109Y0313103D01*
X0031169Y0313047D01*
X0031226Y0312989D01*
X0031281Y0312929D01*
X0031332Y0312865D01*
X0031380Y0312800D01*
X0031425Y0312732D01*
X0031467Y0312662D01*
X0031505Y0312590D01*
X0031540Y0312516D01*
X0031571Y0312441D01*
X0031598Y0312364D01*
X0031621Y0312286D01*
X0031641Y0312207D01*
X0031657Y0312127D01*
X0031669Y0312046D01*
X0031677Y0311965D01*
X0031681Y0311884D01*
X0031681Y0311802D01*
X0031677Y0311721D01*
X0031669Y0311640D01*
X0031657Y0311559D01*
X0031641Y0311479D01*
X0031621Y0311400D01*
X0031598Y0311322D01*
X0031571Y0311245D01*
X0031540Y0311170D01*
X0031505Y0311096D01*
X0031467Y0311024D01*
X0031425Y0310954D01*
X0031380Y0310886D01*
X0031332Y0310821D01*
X0031281Y0310757D01*
X0031226Y0310697D01*
X0031169Y0310639D01*
X0031109Y0310583D01*
X0031047Y0310531D01*
X0030981Y0310482D01*
X0030914Y0310437D01*
X0030845Y0310394D01*
X0030773Y0310355D01*
X0030700Y0310320D01*
X0030625Y0310288D01*
X0030548Y0310260D01*
X0030470Y0310235D01*
X0030392Y0310215D01*
X0030312Y0310198D01*
X0030231Y0310185D01*
X0030150Y0310176D01*
X0030069Y0310171D01*
X0029988Y0310170D01*
X0029906Y0310173D01*
X0029825Y0310180D01*
X0029744Y0310191D01*
X0029664Y0310206D01*
X0029585Y0310224D01*
X0029507Y0310247D01*
X0029429Y0310273D01*
X0029354Y0310303D01*
X0029279Y0310337D01*
X0029207Y0310374D01*
X0029136Y0310415D01*
X0029068Y0310459D01*
X0029002Y0310506D01*
X0028938Y0310557D01*
X0028876Y0310611D01*
X0028818Y0310667D01*
X0028762Y0310727D01*
X0028709Y0310789D01*
X0028659Y0310853D01*
X0028613Y0310920D01*
X0028569Y0310989D01*
X0028530Y0311060D01*
X0028493Y0311133D01*
X0028460Y0311207D01*
X0028431Y0311284D01*
X0028406Y0311361D01*
X0028384Y0311440D01*
X0028367Y0311519D01*
X0028353Y0311599D01*
X0028343Y0311680D01*
X0028337Y0311762D01*
X0028335Y0311843D01*
X0028335Y0296882D02*
X0028337Y0296963D01*
X0028343Y0297045D01*
X0028353Y0297126D01*
X0028367Y0297206D01*
X0028384Y0297285D01*
X0028406Y0297364D01*
X0028431Y0297441D01*
X0028460Y0297518D01*
X0028493Y0297592D01*
X0028530Y0297665D01*
X0028569Y0297736D01*
X0028613Y0297805D01*
X0028659Y0297872D01*
X0028709Y0297936D01*
X0028762Y0297998D01*
X0028818Y0298058D01*
X0028876Y0298114D01*
X0028938Y0298168D01*
X0029002Y0298219D01*
X0029068Y0298266D01*
X0029136Y0298310D01*
X0029207Y0298351D01*
X0029279Y0298388D01*
X0029354Y0298422D01*
X0029429Y0298452D01*
X0029507Y0298478D01*
X0029585Y0298501D01*
X0029664Y0298519D01*
X0029744Y0298534D01*
X0029825Y0298545D01*
X0029906Y0298552D01*
X0029988Y0298555D01*
X0030069Y0298554D01*
X0030150Y0298549D01*
X0030231Y0298540D01*
X0030312Y0298527D01*
X0030392Y0298510D01*
X0030470Y0298490D01*
X0030548Y0298465D01*
X0030625Y0298437D01*
X0030700Y0298405D01*
X0030773Y0298370D01*
X0030844Y0298331D01*
X0030914Y0298288D01*
X0030981Y0298243D01*
X0031047Y0298194D01*
X0031109Y0298142D01*
X0031169Y0298086D01*
X0031226Y0298028D01*
X0031281Y0297968D01*
X0031332Y0297904D01*
X0031380Y0297839D01*
X0031425Y0297771D01*
X0031467Y0297701D01*
X0031505Y0297629D01*
X0031540Y0297555D01*
X0031571Y0297480D01*
X0031598Y0297403D01*
X0031621Y0297325D01*
X0031641Y0297246D01*
X0031657Y0297166D01*
X0031669Y0297085D01*
X0031677Y0297004D01*
X0031681Y0296923D01*
X0031681Y0296841D01*
X0031677Y0296760D01*
X0031669Y0296679D01*
X0031657Y0296598D01*
X0031641Y0296518D01*
X0031621Y0296439D01*
X0031598Y0296361D01*
X0031571Y0296284D01*
X0031540Y0296209D01*
X0031505Y0296135D01*
X0031467Y0296063D01*
X0031425Y0295993D01*
X0031380Y0295925D01*
X0031332Y0295860D01*
X0031281Y0295796D01*
X0031226Y0295736D01*
X0031169Y0295678D01*
X0031109Y0295622D01*
X0031047Y0295570D01*
X0030981Y0295521D01*
X0030914Y0295476D01*
X0030845Y0295433D01*
X0030773Y0295394D01*
X0030700Y0295359D01*
X0030625Y0295327D01*
X0030548Y0295299D01*
X0030470Y0295274D01*
X0030392Y0295254D01*
X0030312Y0295237D01*
X0030231Y0295224D01*
X0030150Y0295215D01*
X0030069Y0295210D01*
X0029988Y0295209D01*
X0029906Y0295212D01*
X0029825Y0295219D01*
X0029744Y0295230D01*
X0029664Y0295245D01*
X0029585Y0295263D01*
X0029507Y0295286D01*
X0029429Y0295312D01*
X0029354Y0295342D01*
X0029279Y0295376D01*
X0029207Y0295413D01*
X0029136Y0295454D01*
X0029068Y0295498D01*
X0029002Y0295545D01*
X0028938Y0295596D01*
X0028876Y0295650D01*
X0028818Y0295706D01*
X0028762Y0295766D01*
X0028709Y0295828D01*
X0028659Y0295892D01*
X0028613Y0295959D01*
X0028569Y0296028D01*
X0028530Y0296099D01*
X0028493Y0296172D01*
X0028460Y0296246D01*
X0028431Y0296323D01*
X0028406Y0296400D01*
X0028384Y0296479D01*
X0028367Y0296558D01*
X0028353Y0296638D01*
X0028343Y0296719D01*
X0028337Y0296801D01*
X0028335Y0296882D01*
D25*
X0043787Y0277472D03*
X0083551Y0319441D03*
D26*
X0083551Y0329441D03*
X0043787Y0267472D03*
D27*
X0167016Y0305740D03*
X0172921Y0297866D03*
X0178827Y0305740D03*
X0184732Y0297866D03*
X0190638Y0305740D03*
X0196543Y0297866D03*
X0202449Y0305740D03*
X0208354Y0297866D03*
X0214260Y0305740D03*
X0220165Y0297866D03*
X0226071Y0305740D03*
X0231976Y0297866D03*
X0237882Y0305740D03*
X0243787Y0297866D03*
X0249693Y0305740D03*
X0255598Y0313614D03*
X0249693Y0321488D03*
X0243787Y0313614D03*
X0237882Y0321488D03*
X0231976Y0313614D03*
X0226071Y0321488D03*
X0220165Y0313614D03*
X0214260Y0321488D03*
X0208354Y0313614D03*
X0202449Y0321488D03*
X0196543Y0313614D03*
X0190638Y0321488D03*
X0184732Y0313614D03*
X0178827Y0321488D03*
X0172921Y0313614D03*
X0167016Y0321488D03*
D28*
X0255598Y0297866D03*
D29*
X0255598Y0313614D01*
X0265527Y0313614D01*
X0270455Y0318542D01*
X0298361Y0343762D02*
X0299493Y0344894D01*
X0299747Y0344640D01*
X0308694Y0344640D01*
X0309142Y0345088D01*
X0309142Y0360268D01*
X0299299Y0360268D02*
X0299299Y0345088D01*
X0299493Y0344894D01*
X0309142Y0345088D02*
X0309366Y0344864D01*
X0328603Y0344864D01*
X0328827Y0345088D01*
X0328827Y0360268D01*
X0144508Y0343536D02*
X0144050Y0343536D01*
X0144050Y0336578D01*
X0137784Y0330312D01*
X0117225Y0330312D01*
X0102449Y0345088D01*
X0102449Y0360268D01*
X0092606Y0360268D02*
X0092606Y0345088D01*
X0095902Y0341792D01*
X0083551Y0329441D01*
X0095902Y0341792D02*
X0097017Y0342907D01*
X0100268Y0342907D01*
X0102449Y0345088D01*
X0137784Y0330312D02*
X0137784Y0330116D01*
X0137926Y0329974D01*
X0144050Y0343536D02*
X0144050Y0343905D01*
X0141819Y0346136D01*
X0141819Y0360268D01*
X0085792Y0267472D02*
X0043787Y0267472D01*
X0081591Y0115671D02*
X0081591Y0111102D01*
X0081583Y0111094D01*
X0081583Y0095947D01*
X0155424Y0041370D02*
X0158419Y0038376D01*
X0163665Y0038376D01*
X0173866Y0019147D02*
X0180293Y0019147D01*
X0183866Y0015574D01*
X0183866Y0012000D01*
X0173866Y0012000D02*
X0173866Y0019147D01*
X0239463Y0163437D02*
X0239463Y0171273D01*
X0238657Y0172079D01*
X0239463Y0163437D02*
X0244864Y0163437D01*
X0355514Y0163437D01*
X0381951Y0137000D01*
X0395639Y0137000D01*
X0401771Y0130868D01*
X0401771Y0043136D01*
X0395335Y0036700D01*
X0393866Y0036700D01*
X0393866Y0032000D01*
X0383866Y0032000D01*
D30*
X0383866Y0032000D01*
X0378566Y0032000D01*
X0378566Y0034195D01*
X0381371Y0037000D01*
X0379565Y0038805D01*
X0374585Y0033825D01*
X0373703Y0033459D01*
X0362748Y0033459D01*
X0375226Y0020981D01*
X0375226Y0020981D01*
X0375901Y0020306D01*
X0376266Y0019424D01*
X0376266Y0019154D01*
X0376627Y0019005D01*
X0377997Y0017634D01*
X0378739Y0015843D01*
X0378739Y0008157D01*
X0377997Y0006366D01*
X0377131Y0005500D01*
X0399929Y0005500D01*
X0400014Y0005508D01*
X0400172Y0005574D01*
X0400292Y0005694D01*
X0400358Y0005852D01*
X0400366Y0005937D01*
X0400366Y0006933D01*
X0400342Y0007562D01*
X0400366Y0007627D01*
X0400366Y0007696D01*
X0400607Y0008278D01*
X0404067Y0017627D01*
X0404067Y0151694D01*
X0400665Y0159857D01*
X0400663Y0159860D01*
X0400397Y0160500D01*
X0400131Y0161139D01*
X0400131Y0161143D01*
X0400130Y0161146D01*
X0400130Y0161838D01*
X0400128Y0162531D01*
X0400130Y0162535D01*
X0400130Y0200944D01*
X0399166Y0201908D01*
X0399166Y0199805D01*
X0396361Y0197000D01*
X0399166Y0194195D01*
X0399166Y0189805D01*
X0396361Y0187000D01*
X0399166Y0184195D01*
X0399166Y0179805D01*
X0396361Y0177000D01*
X0399166Y0174195D01*
X0399166Y0169805D01*
X0396361Y0167000D01*
X0399166Y0164195D01*
X0399166Y0159805D01*
X0396361Y0157000D01*
X0399166Y0154195D01*
X0399166Y0149805D01*
X0396361Y0147000D01*
X0399166Y0144195D01*
X0399166Y0139805D01*
X0396361Y0137000D01*
X0399166Y0134195D01*
X0399166Y0129805D01*
X0396361Y0127000D01*
X0399166Y0124195D01*
X0399166Y0119805D01*
X0397623Y0118262D01*
X0402005Y0113880D01*
X0402370Y0112998D01*
X0402370Y0081114D01*
X0402005Y0080232D01*
X0401330Y0079557D01*
X0397567Y0075794D01*
X0399166Y0074195D01*
X0399166Y0069805D01*
X0396361Y0067000D01*
X0399166Y0064195D01*
X0399166Y0059805D01*
X0396361Y0057000D01*
X0399166Y0054195D01*
X0399166Y0049805D01*
X0396361Y0047000D01*
X0399166Y0044195D01*
X0399166Y0039805D01*
X0396361Y0037000D01*
X0399166Y0034195D01*
X0399166Y0032000D01*
X0393866Y0032000D01*
X0393866Y0032000D01*
X0383866Y0032000D01*
X0378566Y0032000D01*
X0378566Y0029805D01*
X0381671Y0026700D01*
X0383866Y0026700D01*
X0383866Y0032000D01*
X0383866Y0032000D01*
X0383866Y0026700D01*
X0386061Y0026700D01*
X0388866Y0029505D01*
X0391671Y0026700D01*
X0393866Y0026700D01*
X0393866Y0032000D01*
X0388566Y0032000D01*
X0383866Y0032000D01*
X0383866Y0032000D01*
X0383866Y0031978D02*
X0383866Y0031978D01*
X0383866Y0029979D02*
X0383866Y0029979D01*
X0383866Y0027981D02*
X0383866Y0027981D01*
X0380390Y0027981D02*
X0368226Y0027981D01*
X0366228Y0029979D02*
X0378566Y0029979D01*
X0378566Y0031978D02*
X0364229Y0031978D01*
X0370225Y0025982D02*
X0404067Y0025982D01*
X0404067Y0023984D02*
X0372223Y0023984D01*
X0374222Y0021985D02*
X0404067Y0021985D01*
X0404067Y0019987D02*
X0376033Y0019987D01*
X0377643Y0017988D02*
X0404067Y0017988D01*
X0403461Y0015990D02*
X0378678Y0015990D01*
X0378739Y0013991D02*
X0402721Y0013991D01*
X0401982Y0011993D02*
X0378739Y0011993D01*
X0378739Y0009994D02*
X0401242Y0009994D01*
X0400490Y0007996D02*
X0378672Y0007996D01*
X0377628Y0005997D02*
X0400366Y0005997D01*
X0396061Y0026700D02*
X0399166Y0029805D01*
X0399166Y0032000D01*
X0393866Y0032000D01*
X0393866Y0032000D01*
X0393866Y0026700D01*
X0396061Y0026700D01*
X0397342Y0027981D02*
X0404067Y0027981D01*
X0404067Y0029979D02*
X0399166Y0029979D01*
X0399166Y0031978D02*
X0404067Y0031978D01*
X0404067Y0033976D02*
X0399166Y0033976D01*
X0397387Y0035975D02*
X0404067Y0035975D01*
X0404067Y0037973D02*
X0397335Y0037973D01*
X0399166Y0039972D02*
X0404067Y0039972D01*
X0404067Y0041970D02*
X0399166Y0041970D01*
X0399166Y0043969D02*
X0404067Y0043969D01*
X0404067Y0045967D02*
X0397394Y0045967D01*
X0397327Y0047966D02*
X0404067Y0047966D01*
X0404067Y0049964D02*
X0399166Y0049964D01*
X0399166Y0051963D02*
X0404067Y0051963D01*
X0404067Y0053961D02*
X0399166Y0053961D01*
X0397402Y0055960D02*
X0404067Y0055960D01*
X0404067Y0057958D02*
X0397320Y0057958D01*
X0399166Y0059957D02*
X0404067Y0059957D01*
X0404067Y0061955D02*
X0399166Y0061955D01*
X0399166Y0063954D02*
X0404067Y0063954D01*
X0404067Y0065952D02*
X0397409Y0065952D01*
X0397312Y0067951D02*
X0404067Y0067951D01*
X0404067Y0069949D02*
X0399166Y0069949D01*
X0399166Y0071948D02*
X0404067Y0071948D01*
X0404067Y0073946D02*
X0399166Y0073946D01*
X0397718Y0075945D02*
X0404067Y0075945D01*
X0404067Y0077943D02*
X0399717Y0077943D01*
X0401715Y0079942D02*
X0404067Y0079942D01*
X0404067Y0081940D02*
X0402370Y0081940D01*
X0402370Y0083939D02*
X0404067Y0083939D01*
X0404067Y0085937D02*
X0402370Y0085937D01*
X0402370Y0087936D02*
X0404067Y0087936D01*
X0404067Y0089934D02*
X0402370Y0089934D01*
X0402370Y0091933D02*
X0404067Y0091933D01*
X0404067Y0093932D02*
X0402370Y0093932D01*
X0402370Y0095930D02*
X0404067Y0095930D01*
X0404067Y0097929D02*
X0402370Y0097929D01*
X0402370Y0099927D02*
X0404067Y0099927D01*
X0404067Y0101926D02*
X0402370Y0101926D01*
X0402370Y0103924D02*
X0404067Y0103924D01*
X0404067Y0105923D02*
X0402370Y0105923D01*
X0402370Y0107921D02*
X0404067Y0107921D01*
X0404067Y0109920D02*
X0402370Y0109920D01*
X0402370Y0111918D02*
X0404067Y0111918D01*
X0404067Y0113917D02*
X0401968Y0113917D01*
X0399970Y0115915D02*
X0404067Y0115915D01*
X0404067Y0117914D02*
X0397971Y0117914D01*
X0399166Y0119912D02*
X0404067Y0119912D01*
X0404067Y0121911D02*
X0399166Y0121911D01*
X0399166Y0123909D02*
X0404067Y0123909D01*
X0404067Y0125908D02*
X0397454Y0125908D01*
X0397268Y0127906D02*
X0404067Y0127906D01*
X0404067Y0129905D02*
X0399166Y0129905D01*
X0399166Y0131903D02*
X0404067Y0131903D01*
X0404067Y0133902D02*
X0399166Y0133902D01*
X0397461Y0135900D02*
X0404067Y0135900D01*
X0404067Y0137899D02*
X0397260Y0137899D01*
X0399166Y0139897D02*
X0404067Y0139897D01*
X0404067Y0141896D02*
X0399166Y0141896D01*
X0399166Y0143894D02*
X0404067Y0143894D01*
X0404067Y0145893D02*
X0397469Y0145893D01*
X0397253Y0147891D02*
X0404067Y0147891D01*
X0404067Y0149890D02*
X0399166Y0149890D01*
X0399166Y0151888D02*
X0403986Y0151888D01*
X0403153Y0153887D02*
X0399166Y0153887D01*
X0397476Y0155885D02*
X0402320Y0155885D01*
X0401488Y0157884D02*
X0397245Y0157884D01*
X0399166Y0159882D02*
X0400653Y0159882D01*
X0400130Y0161881D02*
X0399166Y0161881D01*
X0399166Y0163879D02*
X0400130Y0163879D01*
X0400130Y0165878D02*
X0397484Y0165878D01*
X0397238Y0167876D02*
X0400130Y0167876D01*
X0400130Y0169875D02*
X0399166Y0169875D01*
X0399166Y0171873D02*
X0400130Y0171873D01*
X0400130Y0173872D02*
X0399166Y0173872D01*
X0400130Y0175870D02*
X0397491Y0175870D01*
X0397230Y0177869D02*
X0400130Y0177869D01*
X0400130Y0179868D02*
X0399166Y0179868D01*
X0399166Y0181866D02*
X0400130Y0181866D01*
X0400130Y0183865D02*
X0399166Y0183865D01*
X0400130Y0185863D02*
X0397498Y0185863D01*
X0397223Y0187862D02*
X0400130Y0187862D01*
X0400130Y0189860D02*
X0399166Y0189860D01*
X0399166Y0191859D02*
X0400130Y0191859D01*
X0400130Y0193857D02*
X0399166Y0193857D01*
X0400130Y0195856D02*
X0397506Y0195856D01*
X0397216Y0197854D02*
X0400130Y0197854D01*
X0400130Y0199853D02*
X0399166Y0199853D01*
X0399166Y0201851D02*
X0399223Y0201851D01*
X0393866Y0202000D02*
X0383866Y0202000D01*
X0378766Y0202000D01*
X0354248Y0177482D01*
X0318504Y0177482D01*
X0318053Y0177933D01*
X0233512Y0177933D01*
X0227657Y0172079D01*
X0220664Y0165085D01*
X0220664Y0163437D01*
X0218101Y0166737D02*
X0215835Y0166737D01*
X0214664Y0165565D01*
X0214664Y0161309D01*
X0215035Y0160937D01*
X0214935Y0160837D01*
X0210503Y0160837D01*
X0209621Y0160472D01*
X0193485Y0144335D01*
X0179765Y0144335D01*
X0211271Y0175842D01*
X0212433Y0175842D01*
X0213830Y0176421D01*
X0214899Y0177490D01*
X0215477Y0178886D01*
X0215477Y0180243D01*
X0231579Y0180243D01*
X0229250Y0177914D01*
X0228851Y0178079D01*
X0226464Y0178079D01*
X0224259Y0177165D01*
X0222571Y0175477D01*
X0221657Y0173272D01*
X0221657Y0170885D01*
X0221823Y0170487D01*
X0218964Y0167628D01*
X0218120Y0166784D01*
X0218101Y0166737D01*
X0219213Y0167876D02*
X0203306Y0167876D01*
X0201307Y0165878D02*
X0214976Y0165878D01*
X0214664Y0163879D02*
X0199309Y0163879D01*
X0197310Y0161881D02*
X0214664Y0161881D01*
X0209032Y0159882D02*
X0195312Y0159882D01*
X0193313Y0157884D02*
X0207033Y0157884D01*
X0205035Y0155885D02*
X0191315Y0155885D01*
X0189316Y0153887D02*
X0203036Y0153887D01*
X0201038Y0151888D02*
X0187317Y0151888D01*
X0185319Y0149890D02*
X0199039Y0149890D01*
X0197041Y0147891D02*
X0183320Y0147891D01*
X0181322Y0145893D02*
X0195042Y0145893D01*
X0182124Y0157884D02*
X0099916Y0157884D01*
X0101914Y0159882D02*
X0184123Y0159882D01*
X0186121Y0161881D02*
X0103913Y0161881D01*
X0104323Y0162291D02*
X0186531Y0162291D01*
X0172954Y0148714D01*
X0163063Y0148714D01*
X0163661Y0150158D01*
X0163661Y0152425D01*
X0162793Y0154520D01*
X0161189Y0156124D01*
X0159094Y0156991D01*
X0156827Y0156991D01*
X0154732Y0156124D01*
X0153128Y0154520D01*
X0153039Y0154305D01*
X0152950Y0154520D01*
X0151347Y0156124D01*
X0149252Y0156991D01*
X0146984Y0156991D01*
X0144889Y0156124D01*
X0143286Y0154520D01*
X0143000Y0153830D01*
X0142714Y0154520D01*
X0141111Y0156124D01*
X0139016Y0156991D01*
X0136748Y0156991D01*
X0134653Y0156124D01*
X0133050Y0154520D01*
X0132182Y0152425D01*
X0132182Y0150158D01*
X0132780Y0148714D01*
X0090746Y0148714D01*
X0104323Y0162291D01*
X0097917Y0155885D02*
X0134415Y0155885D01*
X0132787Y0153887D02*
X0095919Y0153887D01*
X0093920Y0151888D02*
X0132182Y0151888D01*
X0132293Y0149890D02*
X0091922Y0149890D01*
X0078402Y0174557D02*
X0077584Y0176533D01*
X0076037Y0178080D01*
X0074015Y0178917D01*
X0071827Y0178917D01*
X0071112Y0178621D01*
X0062975Y0186757D01*
X0080974Y0186757D01*
X0081796Y0185936D01*
X0083193Y0185357D01*
X0084704Y0185357D01*
X0086101Y0185936D01*
X0087170Y0187005D01*
X0087748Y0188402D01*
X0087748Y0189758D01*
X0091095Y0189758D01*
X0092012Y0188842D01*
X0093408Y0188263D01*
X0094920Y0188263D01*
X0096317Y0188842D01*
X0097386Y0189911D01*
X0097964Y0191308D01*
X0097964Y0192819D01*
X0097386Y0194216D01*
X0097348Y0194254D01*
X0098835Y0194254D01*
X0100627Y0194995D01*
X0101997Y0196366D01*
X0102739Y0198157D01*
X0102739Y0205843D01*
X0101997Y0207634D01*
X0101289Y0208343D01*
X0104444Y0208343D01*
X0103735Y0207634D01*
X0102993Y0205843D01*
X0102993Y0198157D01*
X0103735Y0196366D01*
X0105106Y0194995D01*
X0106897Y0194254D01*
X0108835Y0194254D01*
X0110627Y0194995D01*
X0111997Y0196366D01*
X0112739Y0198157D01*
X0112739Y0205843D01*
X0111997Y0207634D01*
X0111289Y0208343D01*
X0114444Y0208343D01*
X0114149Y0208048D01*
X0113698Y0207427D01*
X0113350Y0206744D01*
X0113113Y0206014D01*
X0112993Y0205257D01*
X0112993Y0202000D01*
X0117866Y0202000D01*
X0117866Y0202000D01*
X0112993Y0202000D01*
X0112993Y0198743D01*
X0113113Y0197986D01*
X0113350Y0197256D01*
X0113698Y0196573D01*
X0114149Y0195952D01*
X0114691Y0195410D01*
X0115312Y0194959D01*
X0115995Y0194611D01*
X0116725Y0194374D01*
X0117483Y0194254D01*
X0117866Y0194254D01*
X0117866Y0202000D01*
X0117866Y0202000D01*
X0117866Y0194254D01*
X0118250Y0194254D01*
X0119007Y0194374D01*
X0119737Y0194611D01*
X0120420Y0194959D01*
X0121041Y0195410D01*
X0121583Y0195952D01*
X0122034Y0196573D01*
X0122382Y0197256D01*
X0122619Y0197986D01*
X0122739Y0198743D01*
X0122739Y0202000D01*
X0117866Y0202000D01*
X0122739Y0202000D01*
X0122739Y0205257D01*
X0122619Y0206014D01*
X0122382Y0206744D01*
X0122034Y0207427D01*
X0121583Y0208048D01*
X0121289Y0208343D01*
X0124444Y0208343D01*
X0123735Y0207634D01*
X0122993Y0205843D01*
X0122993Y0198157D01*
X0123735Y0196366D01*
X0125106Y0194995D01*
X0126897Y0194254D01*
X0128835Y0194254D01*
X0130627Y0194995D01*
X0131997Y0196366D01*
X0132739Y0198157D01*
X0132739Y0205843D01*
X0131997Y0207634D01*
X0131289Y0208343D01*
X0134444Y0208343D01*
X0133735Y0207634D01*
X0132993Y0205843D01*
X0132993Y0198157D01*
X0133735Y0196366D01*
X0134315Y0195786D01*
X0133050Y0194520D01*
X0132182Y0192425D01*
X0132182Y0190158D01*
X0133050Y0188063D01*
X0134442Y0186670D01*
X0091032Y0186670D01*
X0090150Y0186305D01*
X0089475Y0185630D01*
X0078402Y0174557D01*
X0077858Y0175870D02*
X0079716Y0175870D01*
X0081715Y0177869D02*
X0076248Y0177869D01*
X0069865Y0179868D02*
X0083713Y0179868D01*
X0085712Y0181866D02*
X0067867Y0181866D01*
X0065868Y0183865D02*
X0087710Y0183865D01*
X0085925Y0185863D02*
X0089709Y0185863D01*
X0087525Y0187862D02*
X0133251Y0187862D01*
X0132305Y0189860D02*
X0097335Y0189860D01*
X0097964Y0191859D02*
X0132182Y0191859D01*
X0132775Y0193857D02*
X0097534Y0193857D01*
X0101487Y0195856D02*
X0104246Y0195856D01*
X0103119Y0197854D02*
X0102614Y0197854D01*
X0102739Y0199853D02*
X0102993Y0199853D01*
X0102993Y0201851D02*
X0102739Y0201851D01*
X0102739Y0203850D02*
X0102993Y0203850D01*
X0102995Y0205848D02*
X0102737Y0205848D01*
X0101784Y0207847D02*
X0103948Y0207847D01*
X0111784Y0207847D02*
X0114003Y0207847D01*
X0113087Y0205848D02*
X0112737Y0205848D01*
X0112739Y0203850D02*
X0112993Y0203850D01*
X0112993Y0201851D02*
X0112739Y0201851D01*
X0112739Y0199853D02*
X0112993Y0199853D01*
X0113156Y0197854D02*
X0112614Y0197854D01*
X0111487Y0195856D02*
X0114246Y0195856D01*
X0117866Y0195856D02*
X0117866Y0195856D01*
X0117866Y0197854D02*
X0117866Y0197854D01*
X0117866Y0199853D02*
X0117866Y0199853D01*
X0117866Y0201851D02*
X0117866Y0201851D01*
X0117866Y0202000D02*
X0117866Y0202000D01*
X0122739Y0201851D02*
X0122993Y0201851D01*
X0122993Y0199853D02*
X0122739Y0199853D01*
X0122577Y0197854D02*
X0123119Y0197854D01*
X0124246Y0195856D02*
X0121487Y0195856D01*
X0122739Y0203850D02*
X0122993Y0203850D01*
X0122995Y0205848D02*
X0122646Y0205848D01*
X0121729Y0207847D02*
X0123948Y0207847D01*
X0131784Y0207847D02*
X0133948Y0207847D01*
X0132995Y0205848D02*
X0132737Y0205848D01*
X0132739Y0203850D02*
X0132993Y0203850D01*
X0132993Y0201851D02*
X0132739Y0201851D01*
X0132739Y0199853D02*
X0132993Y0199853D01*
X0133119Y0197854D02*
X0132614Y0197854D01*
X0131487Y0195856D02*
X0134246Y0195856D01*
X0141349Y0155885D02*
X0144651Y0155885D01*
X0143024Y0153887D02*
X0142976Y0153887D01*
X0151585Y0155885D02*
X0154494Y0155885D01*
X0161428Y0155885D02*
X0180126Y0155885D01*
X0178127Y0153887D02*
X0163055Y0153887D01*
X0163661Y0151888D02*
X0176129Y0151888D01*
X0174130Y0149890D02*
X0163550Y0149890D01*
X0205304Y0169875D02*
X0221211Y0169875D01*
X0221657Y0171873D02*
X0207303Y0171873D01*
X0209301Y0173872D02*
X0221906Y0173872D01*
X0222964Y0175870D02*
X0212501Y0175870D01*
X0215056Y0177869D02*
X0225958Y0177869D01*
X0231204Y0179868D02*
X0215477Y0179868D01*
X0226065Y0166244D02*
X0226464Y0166079D01*
X0228851Y0166079D01*
X0231056Y0166992D01*
X0232744Y0168680D01*
X0233153Y0169666D01*
X0233526Y0168934D01*
X0234081Y0168170D01*
X0234749Y0167502D01*
X0235513Y0166947D01*
X0236354Y0166518D01*
X0237252Y0166226D01*
X0238185Y0166079D01*
X0238657Y0166079D01*
X0238657Y0172079D01*
X0238658Y0172079D01*
X0244657Y0172079D01*
X0244657Y0172551D01*
X0244510Y0173484D01*
X0244218Y0174382D01*
X0243937Y0174933D01*
X0316818Y0174933D01*
X0317907Y0174482D01*
X0354845Y0174482D01*
X0355947Y0174939D01*
X0379690Y0198681D01*
X0381371Y0197000D01*
X0378566Y0194195D01*
X0378566Y0189805D01*
X0381371Y0187000D01*
X0378566Y0184195D01*
X0378566Y0179805D01*
X0381371Y0177000D01*
X0378566Y0174195D01*
X0378566Y0169805D01*
X0381371Y0167000D01*
X0378566Y0164195D01*
X0378566Y0159805D01*
X0381371Y0157000D01*
X0378566Y0154195D01*
X0378566Y0149805D01*
X0381371Y0147000D01*
X0378566Y0144195D01*
X0378566Y0139805D01*
X0381371Y0137000D01*
X0378566Y0134195D01*
X0378566Y0130541D01*
X0362579Y0146528D01*
X0361904Y0147203D01*
X0361022Y0147568D01*
X0282472Y0147568D01*
X0281590Y0147203D01*
X0281123Y0146736D01*
X0264911Y0146736D01*
X0264911Y0148126D01*
X0264332Y0149523D01*
X0263264Y0150592D01*
X0261867Y0151170D01*
X0260355Y0151170D01*
X0259948Y0151002D01*
X0259488Y0152114D01*
X0258419Y0153183D01*
X0257022Y0153761D01*
X0255510Y0153761D01*
X0254114Y0153183D01*
X0253292Y0152361D01*
X0251111Y0152361D01*
X0250864Y0152259D01*
X0250864Y0155265D01*
X0250913Y0155216D01*
X0252309Y0154637D01*
X0253821Y0154637D01*
X0255218Y0155216D01*
X0256287Y0156284D01*
X0256865Y0157681D01*
X0256865Y0159193D01*
X0256287Y0160590D01*
X0255218Y0161658D01*
X0253821Y0162237D01*
X0252309Y0162237D01*
X0250913Y0161658D01*
X0250767Y0161513D01*
X0250864Y0161874D01*
X0250864Y0163437D01*
X0250864Y0165000D01*
X0250727Y0165509D01*
X0250464Y0165965D01*
X0250092Y0166337D01*
X0249636Y0166601D01*
X0249127Y0166737D01*
X0244864Y0166737D01*
X0244864Y0163437D01*
X0250864Y0163437D01*
X0244864Y0163437D01*
X0244864Y0163437D01*
X0244864Y0163437D01*
X0244864Y0166737D01*
X0241390Y0166737D01*
X0241802Y0166947D01*
X0242566Y0167502D01*
X0243234Y0168170D01*
X0243789Y0168934D01*
X0244218Y0169776D01*
X0244510Y0170674D01*
X0244657Y0171607D01*
X0244657Y0172079D01*
X0238658Y0172079D01*
X0238658Y0172079D01*
X0238658Y0166079D01*
X0239130Y0166079D01*
X0239424Y0166125D01*
X0239263Y0165965D01*
X0239000Y0165509D01*
X0238864Y0165000D01*
X0238864Y0163437D01*
X0238864Y0161874D01*
X0239000Y0161365D01*
X0239243Y0160945D01*
X0238864Y0160565D01*
X0238864Y0156309D01*
X0239235Y0155937D01*
X0239100Y0155801D01*
X0239078Y0155792D01*
X0238957Y0155842D01*
X0237445Y0155842D01*
X0236049Y0155264D01*
X0234980Y0154195D01*
X0234594Y0153264D01*
X0228061Y0159796D01*
X0227386Y0160472D01*
X0226504Y0160837D01*
X0226392Y0160837D01*
X0226292Y0160937D01*
X0226664Y0161309D01*
X0226664Y0165565D01*
X0226025Y0166204D01*
X0226065Y0166244D01*
X0226351Y0165878D02*
X0239213Y0165878D01*
X0238864Y0163879D02*
X0226664Y0163879D01*
X0226664Y0161881D02*
X0238864Y0161881D01*
X0238864Y0163437D02*
X0244864Y0163437D01*
X0244864Y0163437D01*
X0238864Y0163437D01*
X0238864Y0159882D02*
X0227975Y0159882D01*
X0229974Y0157884D02*
X0238864Y0157884D01*
X0239184Y0155885D02*
X0231973Y0155885D01*
X0233971Y0153887D02*
X0234852Y0153887D01*
X0244864Y0163879D02*
X0244864Y0163879D01*
X0244864Y0165878D02*
X0244864Y0165878D01*
X0242940Y0167876D02*
X0380494Y0167876D01*
X0380249Y0165878D02*
X0250514Y0165878D01*
X0250864Y0163879D02*
X0378566Y0163879D01*
X0378566Y0161881D02*
X0254681Y0161881D01*
X0256580Y0159882D02*
X0378566Y0159882D01*
X0380487Y0157884D02*
X0256865Y0157884D01*
X0255888Y0155885D02*
X0380256Y0155885D01*
X0378566Y0153887D02*
X0250864Y0153887D01*
X0259581Y0151888D02*
X0378566Y0151888D01*
X0378566Y0149890D02*
X0263965Y0149890D01*
X0264911Y0147891D02*
X0380479Y0147891D01*
X0380264Y0145893D02*
X0363214Y0145893D01*
X0365213Y0143894D02*
X0378566Y0143894D01*
X0378566Y0141896D02*
X0367211Y0141896D01*
X0369210Y0139897D02*
X0378566Y0139897D01*
X0380472Y0137899D02*
X0371208Y0137899D01*
X0373207Y0135900D02*
X0380271Y0135900D01*
X0378566Y0133902D02*
X0375205Y0133902D01*
X0377204Y0131903D02*
X0378566Y0131903D01*
X0378566Y0169875D02*
X0244250Y0169875D01*
X0244657Y0171873D02*
X0378566Y0171873D01*
X0378566Y0173872D02*
X0244384Y0173872D01*
X0238658Y0171873D02*
X0238657Y0171873D01*
X0238657Y0169875D02*
X0238658Y0169875D01*
X0238657Y0167876D02*
X0238658Y0167876D01*
X0234374Y0167876D02*
X0231940Y0167876D01*
X0250864Y0161881D02*
X0251450Y0161881D01*
X0303287Y0126294D02*
X0303287Y0119676D01*
X0303294Y0119668D01*
X0303294Y0112990D01*
X0322485Y0112990D01*
X0322485Y0119009D01*
X0322477Y0119017D01*
X0322477Y0126294D01*
X0303287Y0126294D01*
X0303287Y0125908D02*
X0322477Y0125908D01*
X0322477Y0123909D02*
X0303287Y0123909D01*
X0303287Y0121911D02*
X0322477Y0121911D01*
X0322477Y0119912D02*
X0303287Y0119912D01*
X0303294Y0117914D02*
X0322485Y0117914D01*
X0322485Y0115915D02*
X0303294Y0115915D01*
X0303294Y0113917D02*
X0322485Y0113917D01*
X0353668Y0076663D02*
X0363216Y0067115D01*
X0361459Y0066387D01*
X0359912Y0064840D01*
X0359575Y0064025D01*
X0359237Y0064840D01*
X0357690Y0066387D01*
X0355669Y0067224D01*
X0353481Y0067224D01*
X0351459Y0066387D01*
X0349912Y0064840D01*
X0349575Y0064025D01*
X0349237Y0064840D01*
X0347690Y0066387D01*
X0345669Y0067224D01*
X0343481Y0067224D01*
X0341459Y0066387D01*
X0339912Y0064840D01*
X0339075Y0062818D01*
X0339075Y0060630D01*
X0339912Y0058609D01*
X0341459Y0057062D01*
X0342153Y0056774D01*
X0339614Y0054236D01*
X0336768Y0057082D01*
X0332460Y0057082D01*
X0329614Y0054236D01*
X0326768Y0057082D01*
X0322460Y0057082D01*
X0319614Y0054236D01*
X0316768Y0057082D01*
X0312460Y0057082D01*
X0309614Y0054236D01*
X0306768Y0057082D01*
X0302460Y0057082D01*
X0299614Y0054236D01*
X0296768Y0057082D01*
X0294614Y0057082D01*
X0292460Y0057082D01*
X0289414Y0054036D01*
X0289414Y0051882D01*
X0294614Y0051882D01*
X0294614Y0051882D01*
X0294614Y0057082D01*
X0294614Y0051882D01*
X0294614Y0051882D01*
X0289414Y0051882D01*
X0289414Y0049728D01*
X0292260Y0046882D01*
X0289414Y0044036D01*
X0289414Y0043924D01*
X0256674Y0076663D01*
X0353668Y0076663D01*
X0354386Y0075945D02*
X0257393Y0075945D01*
X0259391Y0073946D02*
X0356385Y0073946D01*
X0358383Y0071948D02*
X0261390Y0071948D01*
X0263388Y0069949D02*
X0360382Y0069949D01*
X0362380Y0067951D02*
X0265387Y0067951D01*
X0267385Y0065952D02*
X0341025Y0065952D01*
X0339545Y0063954D02*
X0269384Y0063954D01*
X0271382Y0061955D02*
X0339075Y0061955D01*
X0339354Y0059957D02*
X0273381Y0059957D01*
X0275379Y0057958D02*
X0340563Y0057958D01*
X0341338Y0055960D02*
X0337890Y0055960D01*
X0331338Y0055960D02*
X0327890Y0055960D01*
X0321338Y0055960D02*
X0317890Y0055960D01*
X0311338Y0055960D02*
X0307890Y0055960D01*
X0301338Y0055960D02*
X0297890Y0055960D01*
X0294614Y0055960D02*
X0294614Y0055960D01*
X0294614Y0053961D02*
X0294614Y0053961D01*
X0294614Y0051963D02*
X0294614Y0051963D01*
X0294614Y0051882D02*
X0294614Y0041882D01*
X0294614Y0047082D01*
X0294614Y0051882D01*
X0294614Y0051882D01*
X0294614Y0049964D02*
X0294614Y0049964D01*
X0294614Y0047966D02*
X0294614Y0047966D01*
X0294614Y0045967D02*
X0294614Y0045967D01*
X0294614Y0043969D02*
X0294614Y0043969D01*
X0294614Y0041970D02*
X0294614Y0041970D01*
X0294614Y0041882D02*
X0294614Y0041882D01*
X0291346Y0045967D02*
X0287371Y0045967D01*
X0289369Y0043969D02*
X0289414Y0043969D01*
X0291176Y0047966D02*
X0285372Y0047966D01*
X0283374Y0049964D02*
X0289414Y0049964D01*
X0289414Y0051963D02*
X0281375Y0051963D01*
X0279376Y0053961D02*
X0289414Y0053961D01*
X0291338Y0055960D02*
X0277378Y0055960D01*
X0237613Y0052925D02*
X0232512Y0052925D01*
X0232512Y0053563D01*
X0225311Y0060764D01*
X0222177Y0060764D01*
X0204575Y0043161D01*
X0204575Y0021682D01*
X0166001Y0021682D01*
X0163866Y0019547D01*
X0163866Y0012000D01*
X0168739Y0011993D02*
X0168993Y0011993D01*
X0168993Y0012000D02*
X0168993Y0008743D01*
X0169113Y0007986D01*
X0169350Y0007256D01*
X0169698Y0006573D01*
X0170149Y0005952D01*
X0170601Y0005500D01*
X0167131Y0005500D01*
X0167997Y0006366D01*
X0168739Y0008157D01*
X0168739Y0015843D01*
X0167997Y0017634D01*
X0167097Y0018535D01*
X0167244Y0018682D01*
X0170818Y0018682D01*
X0170691Y0018590D01*
X0170149Y0018048D01*
X0169698Y0017427D01*
X0169350Y0016744D01*
X0169113Y0016014D01*
X0168993Y0015257D01*
X0168993Y0012000D01*
X0173866Y0012000D01*
X0173866Y0012000D01*
X0168993Y0012000D01*
X0168993Y0013991D02*
X0168739Y0013991D01*
X0168678Y0015990D02*
X0169109Y0015990D01*
X0170106Y0017988D02*
X0167643Y0017988D01*
X0160866Y0018765D02*
X0160866Y0020144D01*
X0161323Y0021246D01*
X0162167Y0022090D01*
X0163458Y0023381D01*
X0164302Y0024225D01*
X0165404Y0024682D01*
X0201575Y0024682D01*
X0201575Y0043758D01*
X0202032Y0044861D01*
X0202875Y0045705D01*
X0218082Y0060911D01*
X0207976Y0060911D01*
X0209407Y0059481D01*
X0210275Y0057386D01*
X0210275Y0055118D01*
X0209407Y0053023D01*
X0207804Y0051420D01*
X0205709Y0050552D01*
X0203441Y0050552D01*
X0201346Y0051420D01*
X0199743Y0053023D01*
X0198875Y0055118D01*
X0198875Y0057386D01*
X0199218Y0058215D01*
X0198702Y0058730D01*
X0194376Y0058730D01*
X0194965Y0057309D01*
X0194965Y0055042D01*
X0194097Y0052947D01*
X0192493Y0051343D01*
X0190398Y0050476D01*
X0188131Y0050476D01*
X0186036Y0051343D01*
X0184432Y0052947D01*
X0183565Y0055042D01*
X0183565Y0057309D01*
X0184153Y0058730D01*
X0169613Y0058730D01*
X0169021Y0058138D01*
X0169365Y0057309D01*
X0169365Y0055042D01*
X0168497Y0052947D01*
X0166893Y0051343D01*
X0164798Y0050476D01*
X0162531Y0050476D01*
X0160436Y0051343D01*
X0158832Y0052947D01*
X0157965Y0055042D01*
X0157965Y0057309D01*
X0158832Y0059404D01*
X0160339Y0060911D01*
X0141787Y0060911D01*
X0141787Y0023871D01*
X0141331Y0022769D01*
X0140487Y0021925D01*
X0140004Y0021725D01*
X0136955Y0018676D01*
X0137997Y0017634D01*
X0138739Y0015843D01*
X0138739Y0008157D01*
X0137997Y0006366D01*
X0137131Y0005500D01*
X0140601Y0005500D01*
X0139735Y0006366D01*
X0138993Y0008157D01*
X0138993Y0015843D01*
X0139735Y0017634D01*
X0141106Y0019005D01*
X0142897Y0019746D01*
X0144835Y0019746D01*
X0146627Y0019005D01*
X0147997Y0017634D01*
X0148739Y0015843D01*
X0148739Y0008157D01*
X0147997Y0006366D01*
X0147131Y0005500D01*
X0150601Y0005500D01*
X0149735Y0006366D01*
X0148993Y0008157D01*
X0148993Y0015843D01*
X0149735Y0017634D01*
X0151106Y0019005D01*
X0152897Y0019746D01*
X0154835Y0019746D01*
X0156627Y0019005D01*
X0157997Y0017634D01*
X0158739Y0015843D01*
X0158739Y0008157D01*
X0157997Y0006366D01*
X0157131Y0005500D01*
X0160601Y0005500D01*
X0159735Y0006366D01*
X0158993Y0008157D01*
X0158993Y0015843D01*
X0159735Y0017634D01*
X0160866Y0018765D01*
X0160089Y0017988D02*
X0157643Y0017988D01*
X0158678Y0015990D02*
X0159054Y0015990D01*
X0158993Y0013991D02*
X0158739Y0013991D01*
X0158739Y0011993D02*
X0158993Y0011993D01*
X0158993Y0009994D02*
X0158739Y0009994D01*
X0158672Y0007996D02*
X0159060Y0007996D01*
X0160104Y0005997D02*
X0157628Y0005997D01*
X0150104Y0005997D02*
X0147628Y0005997D01*
X0148672Y0007996D02*
X0149060Y0007996D01*
X0148993Y0009994D02*
X0148739Y0009994D01*
X0148739Y0011993D02*
X0148993Y0011993D01*
X0148993Y0013991D02*
X0148739Y0013991D01*
X0148678Y0015990D02*
X0149054Y0015990D01*
X0150089Y0017988D02*
X0147643Y0017988D01*
X0140089Y0017988D02*
X0137643Y0017988D01*
X0138266Y0019987D02*
X0160866Y0019987D01*
X0162062Y0021985D02*
X0140547Y0021985D01*
X0141787Y0023984D02*
X0164060Y0023984D01*
X0164113Y0032676D02*
X0163665Y0032676D01*
X0163665Y0038375D01*
X0163665Y0038376D02*
X0163665Y0038376D01*
X0169365Y0038376D01*
X0169365Y0038824D01*
X0169224Y0039710D01*
X0168947Y0040564D01*
X0168540Y0041363D01*
X0168012Y0042089D01*
X0167378Y0042723D01*
X0166652Y0043251D01*
X0165853Y0043658D01*
X0164999Y0043935D01*
X0164113Y0044076D01*
X0163665Y0044076D01*
X0163665Y0038376D01*
X0163664Y0038376D01*
X0163664Y0038376D01*
X0157965Y0038376D01*
X0157965Y0038824D01*
X0158105Y0039710D01*
X0158382Y0040564D01*
X0158789Y0041363D01*
X0159317Y0042089D01*
X0159951Y0042723D01*
X0160677Y0043251D01*
X0161477Y0043658D01*
X0162330Y0043935D01*
X0163216Y0044076D01*
X0163664Y0044076D01*
X0163664Y0038376D01*
X0157965Y0038376D01*
X0157965Y0037927D01*
X0158105Y0037041D01*
X0158382Y0036188D01*
X0158789Y0035388D01*
X0159317Y0034662D01*
X0159951Y0034028D01*
X0160677Y0033501D01*
X0161477Y0033093D01*
X0162330Y0032816D01*
X0163216Y0032676D01*
X0163664Y0032676D01*
X0163664Y0038375D01*
X0163665Y0038375D01*
X0163665Y0038376D02*
X0169365Y0038376D01*
X0169365Y0037927D01*
X0169224Y0037041D01*
X0168947Y0036188D01*
X0168540Y0035388D01*
X0168012Y0034662D01*
X0167378Y0034028D01*
X0166652Y0033501D01*
X0165853Y0033093D01*
X0164999Y0032816D01*
X0164113Y0032676D01*
X0163664Y0033976D02*
X0163665Y0033976D01*
X0163664Y0035975D02*
X0163665Y0035975D01*
X0163664Y0037973D02*
X0163665Y0037973D01*
X0163664Y0039972D02*
X0163665Y0039972D01*
X0163664Y0041970D02*
X0163665Y0041970D01*
X0163664Y0043969D02*
X0163665Y0043969D01*
X0164788Y0043969D02*
X0187873Y0043969D01*
X0188131Y0044076D02*
X0186036Y0043208D01*
X0184432Y0041604D01*
X0183565Y0039509D01*
X0183565Y0037242D01*
X0184432Y0035147D01*
X0186036Y0033543D01*
X0188131Y0032676D01*
X0190398Y0032676D01*
X0192493Y0033543D01*
X0194097Y0035147D01*
X0194965Y0037242D01*
X0194965Y0039509D01*
X0194097Y0041604D01*
X0192493Y0043208D01*
X0190398Y0044076D01*
X0188131Y0044076D01*
X0190656Y0043969D02*
X0201662Y0043969D01*
X0201575Y0041970D02*
X0193731Y0041970D01*
X0194773Y0039972D02*
X0201575Y0039972D01*
X0201575Y0037973D02*
X0194965Y0037973D01*
X0194440Y0035975D02*
X0201575Y0035975D01*
X0201575Y0033976D02*
X0192926Y0033976D01*
X0185603Y0033976D02*
X0167307Y0033976D01*
X0168838Y0035975D02*
X0184089Y0035975D01*
X0183565Y0037973D02*
X0169365Y0037973D01*
X0169139Y0039972D02*
X0183756Y0039972D01*
X0184798Y0041970D02*
X0168098Y0041970D01*
X0162541Y0043969D02*
X0141787Y0043969D01*
X0141787Y0045967D02*
X0203138Y0045967D01*
X0205137Y0047966D02*
X0141787Y0047966D01*
X0141787Y0049964D02*
X0207135Y0049964D01*
X0208347Y0051963D02*
X0209134Y0051963D01*
X0209796Y0053961D02*
X0211132Y0053961D01*
X0210275Y0055960D02*
X0213131Y0055960D01*
X0215129Y0057958D02*
X0210038Y0057958D01*
X0208931Y0059957D02*
X0217128Y0059957D01*
X0200803Y0051963D02*
X0193113Y0051963D01*
X0194517Y0053961D02*
X0199354Y0053961D01*
X0198875Y0055960D02*
X0194965Y0055960D01*
X0194696Y0057958D02*
X0199112Y0057958D01*
X0185416Y0051963D02*
X0167513Y0051963D01*
X0168917Y0053961D02*
X0184012Y0053961D01*
X0183565Y0055960D02*
X0169365Y0055960D01*
X0169096Y0057958D02*
X0183833Y0057958D01*
X0159816Y0051963D02*
X0141787Y0051963D01*
X0141787Y0053961D02*
X0158412Y0053961D01*
X0157965Y0055960D02*
X0141787Y0055960D01*
X0141787Y0057958D02*
X0158233Y0057958D01*
X0159385Y0059957D02*
X0141787Y0059957D01*
X0138787Y0060885D02*
X0138787Y0024468D01*
X0141787Y0025982D02*
X0201575Y0025982D01*
X0201575Y0027981D02*
X0141787Y0027981D01*
X0141787Y0029979D02*
X0201575Y0029979D01*
X0201575Y0031978D02*
X0141787Y0031978D01*
X0141787Y0033976D02*
X0160022Y0033976D01*
X0158491Y0035975D02*
X0141787Y0035975D01*
X0141787Y0037973D02*
X0157965Y0037973D01*
X0158190Y0039972D02*
X0141787Y0039972D01*
X0141787Y0041970D02*
X0159231Y0041970D01*
X0138787Y0060885D02*
X0125089Y0074583D01*
X0069162Y0074583D01*
X0068817Y0074929D01*
X0063866Y0074929D01*
X0053827Y0074929D01*
X0057805Y0079229D02*
X0058846Y0078188D01*
X0059888Y0079229D01*
X0067845Y0079229D01*
X0069016Y0078058D01*
X0069016Y0077929D01*
X0069413Y0077929D01*
X0070248Y0077583D01*
X0098161Y0077583D01*
X0085021Y0090723D01*
X0084998Y0090778D01*
X0081583Y0090778D01*
X0081583Y0095947D01*
X0081583Y0095947D01*
X0081583Y0101115D01*
X0085014Y0101115D01*
X0085114Y0101089D01*
X0085696Y0101671D01*
X0085696Y0101671D01*
X0089002Y0104976D01*
X0089002Y0104976D01*
X0089677Y0105652D01*
X0090559Y0106017D01*
X0115765Y0106017D01*
X0112879Y0108902D01*
X0106805Y0108902D01*
X0105923Y0109268D01*
X0104688Y0110503D01*
X0097279Y0110503D01*
X0096354Y0111427D01*
X0095430Y0110503D01*
X0087436Y0110503D01*
X0086471Y0111468D01*
X0086359Y0111275D01*
X0085987Y0110902D01*
X0085531Y0110639D01*
X0085022Y0110503D01*
X0081591Y0110503D01*
X0081591Y0115671D01*
X0081590Y0115671D01*
X0076422Y0115671D01*
X0076422Y0112239D01*
X0076558Y0111731D01*
X0076822Y0111275D01*
X0077194Y0110902D01*
X0077650Y0110639D01*
X0078159Y0110503D01*
X0081590Y0110503D01*
X0081590Y0115671D01*
X0081590Y0115671D01*
X0076422Y0115671D01*
X0076422Y0119103D01*
X0076482Y0119328D01*
X0076414Y0119582D01*
X0076414Y0122486D01*
X0055044Y0101115D01*
X0056052Y0101115D01*
X0057224Y0099944D01*
X0057224Y0091950D01*
X0056052Y0090778D01*
X0048058Y0090778D01*
X0047134Y0091703D01*
X0046210Y0090778D01*
X0038216Y0090778D01*
X0037291Y0091703D01*
X0036367Y0090778D01*
X0028373Y0090778D01*
X0027449Y0091703D01*
X0026524Y0090778D01*
X0018531Y0090778D01*
X0017366Y0091943D01*
X0017366Y0005937D01*
X0017375Y0005852D01*
X0017440Y0005694D01*
X0017560Y0005574D01*
X0017718Y0005508D01*
X0017803Y0005500D01*
X0120601Y0005500D01*
X0119735Y0006366D01*
X0118993Y0008157D01*
X0118993Y0010005D01*
X0118529Y0008884D01*
X0116982Y0007337D01*
X0114960Y0006500D01*
X0112772Y0006500D01*
X0110751Y0007337D01*
X0109203Y0008884D01*
X0108866Y0009699D01*
X0108529Y0008884D01*
X0106982Y0007337D01*
X0104960Y0006500D01*
X0102772Y0006500D01*
X0100751Y0007337D01*
X0099203Y0008884D01*
X0098866Y0009699D01*
X0098529Y0008884D01*
X0096982Y0007337D01*
X0094960Y0006500D01*
X0092772Y0006500D01*
X0090751Y0007337D01*
X0089203Y0008884D01*
X0088866Y0009699D01*
X0088529Y0008884D01*
X0086982Y0007337D01*
X0084960Y0006500D01*
X0082772Y0006500D01*
X0080751Y0007337D01*
X0079203Y0008884D01*
X0078866Y0009699D01*
X0078529Y0008884D01*
X0076982Y0007337D01*
X0074960Y0006500D01*
X0072772Y0006500D01*
X0070751Y0007337D01*
X0069203Y0008884D01*
X0068866Y0009699D01*
X0068529Y0008884D01*
X0066982Y0007337D01*
X0064960Y0006500D01*
X0062772Y0006500D01*
X0060751Y0007337D01*
X0059203Y0008884D01*
X0058866Y0009699D01*
X0058529Y0008884D01*
X0056982Y0007337D01*
X0054960Y0006500D01*
X0052772Y0006500D01*
X0050751Y0007337D01*
X0049203Y0008884D01*
X0048866Y0009699D01*
X0048529Y0008884D01*
X0046982Y0007337D01*
X0044960Y0006500D01*
X0042772Y0006500D01*
X0040751Y0007337D01*
X0039203Y0008884D01*
X0038866Y0009699D01*
X0038529Y0008884D01*
X0036982Y0007337D01*
X0034960Y0006500D01*
X0032772Y0006500D01*
X0030751Y0007337D01*
X0029203Y0008884D01*
X0028866Y0009699D01*
X0028529Y0008884D01*
X0026982Y0007337D01*
X0024960Y0006500D01*
X0022772Y0006500D01*
X0020751Y0007337D01*
X0019203Y0008884D01*
X0018366Y0010906D01*
X0018366Y0013094D01*
X0019203Y0015115D01*
X0020751Y0016663D01*
X0021565Y0017000D01*
X0020751Y0017337D01*
X0019203Y0018884D01*
X0018366Y0020906D01*
X0018366Y0023094D01*
X0019203Y0025115D01*
X0020751Y0026663D01*
X0021565Y0027000D01*
X0020751Y0027337D01*
X0019203Y0028884D01*
X0018366Y0030906D01*
X0018366Y0033094D01*
X0019203Y0035115D01*
X0020751Y0036663D01*
X0021565Y0037000D01*
X0020751Y0037337D01*
X0019203Y0038884D01*
X0018366Y0040906D01*
X0018366Y0043094D01*
X0019203Y0045115D01*
X0020751Y0046663D01*
X0021565Y0047000D01*
X0020751Y0047337D01*
X0019203Y0048884D01*
X0018366Y0050906D01*
X0018366Y0053094D01*
X0019203Y0055115D01*
X0020751Y0056663D01*
X0021565Y0057000D01*
X0020751Y0057337D01*
X0019203Y0058884D01*
X0018366Y0060906D01*
X0018366Y0063094D01*
X0019203Y0065115D01*
X0020751Y0066663D01*
X0022772Y0067500D01*
X0024960Y0067500D01*
X0026982Y0066663D01*
X0028529Y0065115D01*
X0028866Y0064301D01*
X0029203Y0065115D01*
X0030751Y0066663D01*
X0032772Y0067500D01*
X0034960Y0067500D01*
X0036982Y0066663D01*
X0038529Y0065115D01*
X0038866Y0064301D01*
X0039203Y0065115D01*
X0040751Y0066663D01*
X0042772Y0067500D01*
X0044960Y0067500D01*
X0046982Y0066663D01*
X0047076Y0066568D01*
X0047076Y0069407D01*
X0047442Y0070289D01*
X0048117Y0070964D01*
X0048677Y0071196D01*
X0048677Y0078058D01*
X0049848Y0079229D01*
X0057805Y0079229D01*
X0069016Y0077943D02*
X0097801Y0077943D01*
X0095803Y0079942D02*
X0017366Y0079942D01*
X0017366Y0081940D02*
X0093804Y0081940D01*
X0091805Y0083939D02*
X0017366Y0083939D01*
X0017366Y0085937D02*
X0089807Y0085937D01*
X0087808Y0087936D02*
X0017366Y0087936D01*
X0017366Y0089934D02*
X0085810Y0089934D01*
X0081583Y0090778D02*
X0081583Y0095947D01*
X0081583Y0095947D01*
X0081583Y0101115D01*
X0078151Y0101115D01*
X0077642Y0100979D01*
X0077186Y0100716D01*
X0076814Y0100343D01*
X0076550Y0099887D01*
X0076414Y0099379D01*
X0076414Y0095947D01*
X0081583Y0095947D01*
X0081583Y0095947D01*
X0076414Y0095947D01*
X0076414Y0092515D01*
X0076550Y0092006D01*
X0076814Y0091550D01*
X0077186Y0091178D01*
X0077642Y0090915D01*
X0078151Y0090778D01*
X0081583Y0090778D01*
X0081583Y0091933D02*
X0081583Y0091933D01*
X0081583Y0093932D02*
X0081583Y0093932D01*
X0081583Y0095930D02*
X0081583Y0095930D01*
X0081583Y0097929D02*
X0081583Y0097929D01*
X0081583Y0099927D02*
X0081583Y0099927D01*
X0085951Y0101926D02*
X0055854Y0101926D01*
X0057224Y0099927D02*
X0076573Y0099927D01*
X0076414Y0097929D02*
X0057224Y0097929D01*
X0057224Y0095930D02*
X0076414Y0095930D01*
X0076414Y0093932D02*
X0057224Y0093932D01*
X0057207Y0091933D02*
X0076593Y0091933D01*
X0087950Y0103924D02*
X0057852Y0103924D01*
X0059851Y0105923D02*
X0090331Y0105923D01*
X0081591Y0111918D02*
X0081590Y0111918D01*
X0081590Y0113917D02*
X0081591Y0113917D01*
X0076422Y0113917D02*
X0067845Y0113917D01*
X0069843Y0115915D02*
X0076422Y0115915D01*
X0076422Y0117914D02*
X0071842Y0117914D01*
X0073841Y0119912D02*
X0076414Y0119912D01*
X0076414Y0121911D02*
X0075839Y0121911D01*
X0076508Y0111918D02*
X0065846Y0111918D01*
X0063848Y0109920D02*
X0105271Y0109920D01*
X0113860Y0107921D02*
X0061849Y0107921D01*
X0048677Y0077943D02*
X0017366Y0077943D01*
X0017366Y0075945D02*
X0048677Y0075945D01*
X0048677Y0073946D02*
X0017366Y0073946D01*
X0017366Y0071948D02*
X0048677Y0071948D01*
X0047301Y0069949D02*
X0017366Y0069949D01*
X0017366Y0067951D02*
X0047076Y0067951D01*
X0040040Y0065952D02*
X0037692Y0065952D01*
X0030040Y0065952D02*
X0027692Y0065952D01*
X0020040Y0065952D02*
X0017366Y0065952D01*
X0017366Y0063954D02*
X0018722Y0063954D01*
X0018366Y0061955D02*
X0017366Y0061955D01*
X0017366Y0059957D02*
X0018759Y0059957D01*
X0020130Y0057958D02*
X0017366Y0057958D01*
X0017366Y0055960D02*
X0020048Y0055960D01*
X0018725Y0053961D02*
X0017366Y0053961D01*
X0017366Y0051963D02*
X0018366Y0051963D01*
X0018756Y0049964D02*
X0017366Y0049964D01*
X0017366Y0047966D02*
X0020122Y0047966D01*
X0020055Y0045967D02*
X0017366Y0045967D01*
X0017366Y0043969D02*
X0018728Y0043969D01*
X0018366Y0041970D02*
X0017366Y0041970D01*
X0017366Y0039972D02*
X0018753Y0039972D01*
X0020115Y0037973D02*
X0017366Y0037973D01*
X0017366Y0035975D02*
X0020063Y0035975D01*
X0018732Y0033976D02*
X0017366Y0033976D01*
X0017366Y0031978D02*
X0018366Y0031978D01*
X0018750Y0029979D02*
X0017366Y0029979D01*
X0017366Y0027981D02*
X0020107Y0027981D01*
X0020070Y0025982D02*
X0017366Y0025982D01*
X0017366Y0023984D02*
X0018735Y0023984D01*
X0018366Y0021985D02*
X0017366Y0021985D01*
X0017366Y0019987D02*
X0018747Y0019987D01*
X0020100Y0017988D02*
X0017366Y0017988D01*
X0017366Y0015990D02*
X0020078Y0015990D01*
X0018738Y0013991D02*
X0017366Y0013991D01*
X0017366Y0011993D02*
X0018366Y0011993D01*
X0018744Y0009994D02*
X0017366Y0009994D01*
X0017366Y0007996D02*
X0020092Y0007996D01*
X0017366Y0005997D02*
X0120104Y0005997D01*
X0119060Y0007996D02*
X0117640Y0007996D01*
X0118988Y0009994D02*
X0118993Y0009994D01*
X0110092Y0007996D02*
X0107640Y0007996D01*
X0100092Y0007996D02*
X0097640Y0007996D01*
X0090092Y0007996D02*
X0087640Y0007996D01*
X0080092Y0007996D02*
X0077640Y0007996D01*
X0070092Y0007996D02*
X0067640Y0007996D01*
X0060092Y0007996D02*
X0057640Y0007996D01*
X0050092Y0007996D02*
X0047640Y0007996D01*
X0040092Y0007996D02*
X0037640Y0007996D01*
X0030092Y0007996D02*
X0027640Y0007996D01*
X0058866Y0054301D02*
X0058529Y0055115D01*
X0056982Y0056663D01*
X0054960Y0057500D01*
X0052772Y0057500D01*
X0052057Y0057204D01*
X0051876Y0057384D01*
X0051876Y0058629D01*
X0053677Y0058629D01*
X0053677Y0062779D01*
X0053977Y0062779D01*
X0053977Y0063079D01*
X0063716Y0063079D01*
X0063716Y0062779D01*
X0064016Y0062779D01*
X0064016Y0058629D01*
X0065817Y0058629D01*
X0065817Y0057345D01*
X0065676Y0057204D01*
X0064960Y0057500D01*
X0062772Y0057500D01*
X0060751Y0056663D01*
X0059203Y0055115D01*
X0058866Y0054301D01*
X0057684Y0055960D02*
X0060048Y0055960D01*
X0060453Y0058629D02*
X0063716Y0058629D01*
X0063716Y0062779D01*
X0058977Y0062779D01*
X0053977Y0062779D01*
X0053977Y0058629D01*
X0057240Y0058629D01*
X0057749Y0058765D01*
X0058205Y0059029D01*
X0058577Y0059401D01*
X0058840Y0059857D01*
X0058846Y0059880D01*
X0058852Y0059857D01*
X0059116Y0059401D01*
X0059488Y0059029D01*
X0059944Y0058765D01*
X0060453Y0058629D01*
X0063716Y0059957D02*
X0064016Y0059957D01*
X0064016Y0061955D02*
X0063716Y0061955D01*
X0065817Y0057958D02*
X0051876Y0057958D01*
X0053677Y0059957D02*
X0053977Y0059957D01*
X0053977Y0061955D02*
X0053677Y0061955D01*
X0017376Y0091933D02*
X0017366Y0091933D01*
X0063870Y0185863D02*
X0081972Y0185863D01*
X0067921Y0202000D02*
X0067921Y0202000D01*
X0067921Y0210400D01*
X0067512Y0210400D01*
X0066704Y0210272D01*
X0065925Y0210019D01*
X0065196Y0209647D01*
X0064534Y0209166D01*
X0063955Y0208588D01*
X0063474Y0207925D01*
X0063102Y0207196D01*
X0062935Y0206683D01*
X0062330Y0208146D01*
X0060867Y0209608D01*
X0058956Y0210400D01*
X0056887Y0210400D01*
X0054976Y0209608D01*
X0053513Y0208146D01*
X0052921Y0206717D01*
X0052330Y0208146D01*
X0051737Y0208738D01*
X0052069Y0208875D01*
X0053054Y0209860D01*
X0053587Y0211146D01*
X0053587Y0211843D01*
X0084382Y0211843D01*
X0084382Y0211146D01*
X0084915Y0209860D01*
X0085576Y0209199D01*
X0085106Y0209005D01*
X0083735Y0207634D01*
X0083121Y0206152D01*
X0083121Y0206234D01*
X0082330Y0208146D01*
X0080867Y0209608D01*
X0078956Y0210400D01*
X0076887Y0210400D01*
X0074976Y0209608D01*
X0073513Y0208146D01*
X0072907Y0206683D01*
X0072740Y0207196D01*
X0072369Y0207925D01*
X0071888Y0208588D01*
X0071309Y0209166D01*
X0070647Y0209647D01*
X0069917Y0210019D01*
X0069139Y0210272D01*
X0068331Y0210400D01*
X0067921Y0210400D01*
X0067921Y0202000D01*
X0067921Y0203850D02*
X0067921Y0203850D01*
X0067921Y0205848D02*
X0067921Y0205848D01*
X0067921Y0207847D02*
X0067921Y0207847D01*
X0067921Y0209845D02*
X0067921Y0209845D01*
X0065584Y0209845D02*
X0060295Y0209845D01*
X0062453Y0207847D02*
X0063434Y0207847D01*
X0070259Y0209845D02*
X0075547Y0209845D01*
X0073389Y0207847D02*
X0072409Y0207847D01*
X0080295Y0209845D02*
X0084929Y0209845D01*
X0083948Y0207847D02*
X0082453Y0207847D01*
X0055547Y0209845D02*
X0053039Y0209845D01*
X0053389Y0207847D02*
X0052453Y0207847D01*
X0133866Y0019547D02*
X0133866Y0012000D01*
X0138739Y0011993D02*
X0138993Y0011993D01*
X0138993Y0013991D02*
X0138739Y0013991D01*
X0138678Y0015990D02*
X0139054Y0015990D01*
X0138993Y0009994D02*
X0138739Y0009994D01*
X0138672Y0007996D02*
X0139060Y0007996D01*
X0140104Y0005997D02*
X0137628Y0005997D01*
X0167628Y0005997D02*
X0170116Y0005997D01*
X0169111Y0007996D02*
X0168672Y0007996D01*
X0168739Y0009994D02*
X0168993Y0009994D01*
X0173866Y0012000D02*
X0173866Y0012000D01*
X0178739Y0012000D01*
X0173866Y0012000D01*
X0178739Y0012000D02*
X0178739Y0008743D01*
X0178619Y0007986D01*
X0178382Y0007256D01*
X0178034Y0006573D01*
X0177583Y0005952D01*
X0177131Y0005500D01*
X0180601Y0005500D01*
X0180149Y0005952D01*
X0179698Y0006573D01*
X0179350Y0007256D01*
X0179113Y0007986D01*
X0178993Y0008743D01*
X0178993Y0012000D01*
X0183866Y0012000D01*
X0183866Y0012000D01*
X0178993Y0012000D01*
X0178993Y0015257D01*
X0179113Y0016014D01*
X0179350Y0016744D01*
X0179698Y0017427D01*
X0180149Y0018048D01*
X0180691Y0018590D01*
X0180818Y0018682D01*
X0176915Y0018682D01*
X0177041Y0018590D01*
X0177583Y0018048D01*
X0178034Y0017427D01*
X0178382Y0016744D01*
X0178619Y0016014D01*
X0178739Y0015257D01*
X0178739Y0012000D01*
X0178739Y0011993D02*
X0178993Y0011993D01*
X0178993Y0013991D02*
X0178739Y0013991D01*
X0178623Y0015990D02*
X0179109Y0015990D01*
X0180106Y0017988D02*
X0177627Y0017988D01*
X0183866Y0017988D02*
X0183866Y0017988D01*
X0183866Y0018682D02*
X0183866Y0012000D01*
X0183866Y0018682D01*
X0183866Y0018682D01*
X0183866Y0015990D02*
X0183866Y0015990D01*
X0183866Y0013991D02*
X0183866Y0013991D01*
X0183866Y0012000D02*
X0183866Y0012000D01*
X0188739Y0012000D01*
X0183866Y0012000D01*
X0183866Y0012000D01*
X0178993Y0009994D02*
X0178739Y0009994D01*
X0178621Y0007996D02*
X0179111Y0007996D01*
X0180116Y0005997D02*
X0177616Y0005997D01*
X0187131Y0005500D02*
X0187583Y0005952D01*
X0188034Y0006573D01*
X0188382Y0007256D01*
X0188619Y0007986D01*
X0188739Y0008743D01*
X0188739Y0012000D01*
X0188739Y0015257D01*
X0188619Y0016014D01*
X0188382Y0016744D01*
X0188034Y0017427D01*
X0187583Y0018048D01*
X0187041Y0018590D01*
X0186915Y0018682D01*
X0190783Y0018682D01*
X0189735Y0017634D01*
X0188993Y0015843D01*
X0188993Y0008157D01*
X0189735Y0006366D01*
X0190601Y0005500D01*
X0187131Y0005500D01*
X0187616Y0005997D02*
X0190104Y0005997D01*
X0189060Y0007996D02*
X0188621Y0007996D01*
X0188739Y0009994D02*
X0188993Y0009994D01*
X0188993Y0011993D02*
X0188739Y0011993D01*
X0188739Y0013991D02*
X0188993Y0013991D01*
X0189054Y0015990D02*
X0188623Y0015990D01*
X0187627Y0017988D02*
X0190089Y0017988D01*
X0204575Y0016252D02*
X0204575Y0021682D01*
X0348125Y0065952D02*
X0351025Y0065952D01*
X0358125Y0065952D02*
X0361025Y0065952D01*
X0369965Y0060366D02*
X0369237Y0058609D01*
X0367690Y0057062D01*
X0367052Y0056798D01*
X0369814Y0054036D01*
X0369814Y0051882D01*
X0364614Y0051882D01*
X0364614Y0051882D01*
X0369814Y0051882D01*
X0369814Y0049830D01*
X0373802Y0049830D01*
X0377331Y0053359D01*
X0377331Y0053359D01*
X0378006Y0054035D01*
X0378688Y0054317D01*
X0379460Y0055089D01*
X0376714Y0055089D01*
X0375759Y0055089D01*
X0374877Y0055454D01*
X0369965Y0060366D01*
X0369796Y0059957D02*
X0370374Y0059957D01*
X0368587Y0057958D02*
X0372373Y0057958D01*
X0374371Y0055960D02*
X0367890Y0055960D01*
X0369814Y0053961D02*
X0377933Y0053961D01*
X0375934Y0051963D02*
X0369814Y0051963D01*
X0369814Y0049964D02*
X0373936Y0049964D01*
X0378733Y0037973D02*
X0380398Y0037973D01*
X0380346Y0035975D02*
X0376735Y0035975D01*
X0378566Y0033976D02*
X0374736Y0033976D01*
X0387342Y0027981D02*
X0390390Y0027981D01*
X0393866Y0027981D02*
X0393866Y0027981D01*
X0393866Y0029979D02*
X0393866Y0029979D01*
X0393866Y0031978D02*
X0393866Y0031978D01*
X0393866Y0032000D02*
X0393866Y0032000D01*
X0380241Y0175870D02*
X0356879Y0175870D01*
X0358877Y0177869D02*
X0380502Y0177869D01*
X0378566Y0179868D02*
X0360876Y0179868D01*
X0362874Y0181866D02*
X0378566Y0181866D01*
X0378566Y0183865D02*
X0364873Y0183865D01*
X0366871Y0185863D02*
X0380234Y0185863D01*
X0380509Y0187862D02*
X0368870Y0187862D01*
X0370868Y0189860D02*
X0378566Y0189860D01*
X0378566Y0191859D02*
X0372867Y0191859D01*
X0374865Y0193857D02*
X0378566Y0193857D01*
X0380226Y0195856D02*
X0376864Y0195856D01*
X0378862Y0197854D02*
X0380517Y0197854D01*
X0374374Y0201851D02*
X0358739Y0201851D01*
X0358739Y0199853D02*
X0372376Y0199853D01*
X0370377Y0197854D02*
X0358614Y0197854D01*
X0358739Y0198157D02*
X0358739Y0205843D01*
X0357997Y0207634D01*
X0356627Y0209005D01*
X0354835Y0209746D01*
X0352897Y0209746D01*
X0351106Y0209005D01*
X0349735Y0207634D01*
X0348993Y0205843D01*
X0348993Y0198157D01*
X0349735Y0196366D01*
X0350760Y0195341D01*
X0346266Y0190847D01*
X0346266Y0194846D01*
X0346627Y0194995D01*
X0347997Y0196366D01*
X0348739Y0198157D01*
X0348739Y0205843D01*
X0347997Y0207634D01*
X0346627Y0209005D01*
X0344835Y0209746D01*
X0342897Y0209746D01*
X0341106Y0209005D01*
X0339735Y0207634D01*
X0338993Y0205843D01*
X0338993Y0198157D01*
X0339735Y0196366D01*
X0341106Y0194995D01*
X0341466Y0194846D01*
X0341466Y0190208D01*
X0339224Y0187965D01*
X0339224Y0193242D01*
X0338432Y0195153D01*
X0337608Y0195977D01*
X0337997Y0196366D01*
X0338739Y0198157D01*
X0338739Y0205843D01*
X0337997Y0207634D01*
X0336627Y0209005D01*
X0335945Y0209287D01*
X0336518Y0209860D01*
X0337051Y0211146D01*
X0337051Y0211843D01*
X0367846Y0211843D01*
X0367846Y0211146D01*
X0368379Y0209860D01*
X0369364Y0208875D01*
X0370650Y0208343D01*
X0392731Y0208343D01*
X0393774Y0207300D01*
X0391671Y0207300D01*
X0389371Y0205000D01*
X0388361Y0205000D01*
X0386061Y0207300D01*
X0381671Y0207300D01*
X0379371Y0205000D01*
X0378169Y0205000D01*
X0377066Y0204543D01*
X0353005Y0180482D01*
X0342689Y0180482D01*
X0355226Y0193019D01*
X0355901Y0193694D01*
X0356266Y0194576D01*
X0356266Y0194846D01*
X0356627Y0194995D01*
X0357997Y0196366D01*
X0358739Y0198157D01*
X0357487Y0195856D02*
X0368379Y0195856D01*
X0366380Y0193857D02*
X0355968Y0193857D01*
X0355226Y0193019D02*
X0355226Y0193019D01*
X0354066Y0191859D02*
X0364382Y0191859D01*
X0362383Y0189860D02*
X0352067Y0189860D01*
X0350069Y0187862D02*
X0360385Y0187862D01*
X0358386Y0185863D02*
X0348070Y0185863D01*
X0346072Y0183865D02*
X0356388Y0183865D01*
X0354389Y0181866D02*
X0344073Y0181866D01*
X0341118Y0189860D02*
X0339224Y0189860D01*
X0339224Y0191859D02*
X0341466Y0191859D01*
X0341466Y0193857D02*
X0338969Y0193857D01*
X0337730Y0195856D02*
X0340246Y0195856D01*
X0339119Y0197854D02*
X0338614Y0197854D01*
X0338739Y0199853D02*
X0338993Y0199853D01*
X0338993Y0201851D02*
X0338739Y0201851D01*
X0338739Y0203850D02*
X0338993Y0203850D01*
X0338995Y0205848D02*
X0338737Y0205848D01*
X0337784Y0207847D02*
X0339948Y0207847D01*
X0336504Y0209845D02*
X0368394Y0209845D01*
X0376373Y0203850D02*
X0358739Y0203850D01*
X0358737Y0205848D02*
X0380219Y0205848D01*
X0387513Y0205848D02*
X0390219Y0205848D01*
X0393227Y0207847D02*
X0357784Y0207847D01*
X0349948Y0207847D02*
X0347784Y0207847D01*
X0348737Y0205848D02*
X0348995Y0205848D01*
X0348993Y0203850D02*
X0348739Y0203850D01*
X0348739Y0201851D02*
X0348993Y0201851D01*
X0348993Y0199853D02*
X0348739Y0199853D01*
X0348614Y0197854D02*
X0349119Y0197854D01*
X0350246Y0195856D02*
X0347487Y0195856D01*
X0346266Y0193857D02*
X0349276Y0193857D01*
X0347277Y0191859D02*
X0346266Y0191859D01*
D31*
X0364260Y0202787D03*
X0344575Y0159480D03*
X0324890Y0159480D03*
X0301268Y0159480D03*
X0277646Y0159480D03*
X0261111Y0147370D03*
X0256266Y0149961D03*
X0253065Y0158437D03*
X0238201Y0152042D03*
X0230795Y0162433D03*
X0211677Y0179642D03*
X0207276Y0179642D03*
X0202876Y0179642D03*
X0183156Y0187325D03*
X0198906Y0155543D03*
X0234956Y0190445D03*
X0288788Y0136744D03*
X0313079Y0120110D03*
X0319200Y0093072D03*
X0312454Y0091876D03*
X0350912Y0102217D03*
X0353320Y0128794D03*
X0357849Y0129011D03*
X0362348Y0130634D03*
X0366657Y0132549D03*
X0358567Y0140547D03*
X0351365Y0137998D03*
X0229937Y0038757D03*
X0226887Y0042870D03*
X0225259Y0051008D03*
X0223718Y0057009D03*
X0155402Y0041370D03*
X0065047Y0084677D03*
X0065047Y0104362D03*
X0075120Y0139729D03*
X0107488Y0173454D03*
X0113530Y0176454D03*
X0116228Y0155543D03*
X0083948Y0189157D03*
X0073906Y0186449D03*
X0094164Y0192063D03*
X0171387Y0262724D03*
X0181085Y0271829D03*
X0185655Y0270812D03*
X0190056Y0272412D03*
X0184855Y0275213D03*
X0183349Y0282147D03*
X0188217Y0283747D03*
X0181635Y0288148D03*
X0188342Y0293086D03*
X0200448Y0293355D03*
X0208542Y0288513D03*
X0196057Y0272412D03*
X0173743Y0274837D03*
X0157706Y0279252D03*
X0151996Y0276245D03*
X0124939Y0296410D03*
X0125721Y0307008D03*
X0112291Y0309754D03*
X0097724Y0302787D03*
X0097941Y0280046D03*
X0061110Y0267748D03*
X0025677Y0267748D03*
X0025677Y0334677D03*
X0121120Y0325273D03*
X0135216Y0333512D03*
X0137926Y0329974D03*
X0144952Y0327300D03*
X0149850Y0323859D03*
X0148470Y0317763D03*
X0159314Y0319073D03*
X0132502Y0340266D03*
X0140106Y0343323D03*
X0144508Y0343536D03*
X0171346Y0343859D03*
X0188161Y0339101D03*
X0203626Y0335144D03*
X0234146Y0334843D03*
X0265452Y0321488D03*
X0270455Y0318542D03*
X0285188Y0331217D03*
X0298361Y0343762D03*
X0348512Y0358299D03*
X0376071Y0358299D03*
X0399693Y0358299D03*
X0399693Y0334677D03*
X0399693Y0291370D03*
X0399693Y0267748D03*
X0364260Y0267748D03*
X0332764Y0267748D03*
X0316631Y0252100D03*
X0262173Y0258988D03*
X0255546Y0255117D03*
X0242715Y0252272D03*
X0232530Y0251822D03*
X0244254Y0266040D03*
X0234557Y0287230D03*
X0227104Y0289250D03*
X0260856Y0286887D03*
X0021740Y0076803D03*
X0058945Y0058299D03*
X0383945Y0009874D03*
X0395756Y0009874D03*
D32*
X0373866Y0012000D02*
X0373866Y0018947D01*
X0359542Y0033271D01*
X0296673Y0033271D01*
X0252481Y0077463D01*
X0160765Y0077463D01*
X0145007Y0093221D01*
X0145007Y0099651D01*
X0133356Y0111302D01*
X0126968Y0111302D01*
X0125330Y0112941D01*
X0125330Y0115671D01*
X0120961Y0115671D01*
X0123513Y0111302D02*
X0117125Y0111302D01*
X0115487Y0112941D01*
X0115487Y0115671D01*
X0111118Y0115671D01*
X0113873Y0111302D02*
X0107283Y0111302D01*
X0105644Y0112941D01*
X0105644Y0115671D01*
X0101276Y0115671D01*
X0091433Y0115671D02*
X0091433Y0120040D01*
X0091425Y0120048D01*
X0091425Y0123014D01*
X0087279Y0136744D02*
X0288788Y0136744D01*
X0290808Y0133496D02*
X0292310Y0134998D01*
X0364208Y0134998D01*
X0366657Y0132549D01*
X0370733Y0132717D02*
X0359902Y0143548D01*
X0283813Y0143548D01*
X0282908Y0142643D01*
X0231658Y0142643D01*
X0225864Y0148437D01*
X0220664Y0148437D01*
X0220664Y0153437D02*
X0227464Y0153437D01*
X0236565Y0144336D01*
X0282117Y0144336D01*
X0282950Y0145168D01*
X0360545Y0145168D01*
X0379365Y0126348D01*
X0379365Y0119951D01*
X0382316Y0117000D01*
X0385513Y0117000D01*
X0389366Y0113147D01*
X0389366Y0109875D01*
X0392741Y0106500D01*
X0393866Y0106500D01*
X0393866Y0102000D01*
X0395449Y0097000D02*
X0379365Y0097000D01*
X0365775Y0110590D01*
X0216086Y0110590D01*
X0214465Y0112211D01*
X0214465Y0126435D01*
X0213517Y0127383D01*
X0176172Y0127383D01*
X0174534Y0125744D01*
X0174534Y0123014D01*
X0170165Y0123014D01*
X0164700Y0115671D02*
X0160331Y0115671D01*
X0164700Y0115671D02*
X0164700Y0112941D01*
X0174630Y0103010D01*
X0210559Y0103010D01*
X0215009Y0098561D01*
X0215009Y0092144D01*
X0221688Y0085465D01*
X0365901Y0085465D01*
X0379366Y0072000D01*
X0383866Y0072000D01*
X0381728Y0077373D02*
X0395752Y0077373D01*
X0399970Y0081591D01*
X0399970Y0112520D01*
X0394991Y0117500D01*
X0393866Y0117500D01*
X0393866Y0122000D01*
X0383866Y0106500D02*
X0383866Y0102000D01*
X0383866Y0106500D02*
X0382972Y0106500D01*
X0370733Y0118740D01*
X0370733Y0132717D01*
X0362348Y0130634D02*
X0359585Y0133397D01*
X0292973Y0133397D01*
X0291471Y0131895D01*
X0239740Y0131895D01*
X0233589Y0125744D01*
X0233589Y0123014D01*
X0229220Y0123014D01*
X0223747Y0123014D02*
X0223747Y0125744D01*
X0231498Y0133496D01*
X0290808Y0133496D01*
X0284867Y0139745D02*
X0283857Y0138735D01*
X0086735Y0138735D01*
X0046581Y0098581D01*
X0046581Y0095947D01*
X0042213Y0095947D01*
X0052055Y0095947D02*
X0052055Y0101521D01*
X0087279Y0136744D01*
X0085163Y0140335D02*
X0056130Y0111302D01*
X0048228Y0111302D01*
X0046589Y0112941D01*
X0046589Y0115671D01*
X0042220Y0115671D01*
X0036739Y0123014D02*
X0032370Y0123014D01*
X0036739Y0123014D02*
X0036739Y0125744D01*
X0057308Y0146314D01*
X0173948Y0146314D01*
X0207276Y0179642D01*
X0202876Y0179642D02*
X0187925Y0164691D01*
X0103329Y0164691D01*
X0087230Y0148592D01*
X0067904Y0148592D01*
X0063079Y0153417D01*
X0059569Y0158417D02*
X0084075Y0158417D01*
X0106727Y0181069D01*
X0191760Y0181069D01*
X0198136Y0187445D01*
X0236258Y0187445D01*
X0243866Y0195053D01*
X0243866Y0202000D01*
X0234956Y0190445D02*
X0234956Y0190445D01*
X0197546Y0190445D01*
X0189770Y0182669D01*
X0092173Y0182669D01*
X0072921Y0163417D01*
X0075657Y0168417D02*
X0091510Y0184270D01*
X0188161Y0184270D01*
X0198944Y0195053D01*
X0223866Y0195053D01*
X0223866Y0202000D01*
X0203866Y0202000D02*
X0203627Y0202000D01*
X0188952Y0187325D01*
X0183156Y0187325D01*
X0192423Y0179469D02*
X0198799Y0185844D01*
X0294657Y0185844D01*
X0303866Y0195053D01*
X0303866Y0202000D01*
X0317118Y0184243D02*
X0199653Y0184243D01*
X0191864Y0176454D01*
X0113530Y0176454D01*
X0107488Y0173454D02*
X0191127Y0173454D01*
X0200316Y0182643D01*
X0316455Y0182643D01*
X0319415Y0179683D01*
X0338496Y0179683D01*
X0353866Y0195053D01*
X0353866Y0202000D01*
X0343866Y0202000D02*
X0343866Y0189214D01*
X0335935Y0181283D01*
X0320078Y0181283D01*
X0317118Y0184243D01*
X0334024Y0189008D02*
X0334024Y0196608D01*
X0333866Y0196766D01*
X0333866Y0202000D01*
X0309142Y0234283D02*
X0309142Y0249263D01*
X0277995Y0280410D01*
X0237135Y0280410D01*
X0231557Y0285988D01*
X0231557Y0288473D01*
X0233315Y0290231D01*
X0279448Y0290231D01*
X0286416Y0283263D01*
X0290587Y0283263D01*
X0293401Y0286077D01*
X0293401Y0305817D01*
X0283349Y0315869D01*
X0283349Y0325135D01*
X0288188Y0329974D01*
X0288188Y0332633D01*
X0279614Y0341207D01*
X0279614Y0360268D01*
X0289457Y0360268D02*
X0289457Y0345288D01*
X0289789Y0344956D01*
X0289789Y0319497D01*
X0288472Y0318181D01*
X0295194Y0311459D01*
X0295194Y0285606D01*
X0291104Y0281516D01*
X0284227Y0281516D01*
X0278856Y0286887D01*
X0260856Y0286887D01*
X0257520Y0271357D02*
X0279614Y0249263D01*
X0279614Y0234283D01*
X0269772Y0234283D02*
X0269772Y0249263D01*
X0267655Y0249263D01*
X0255479Y0261439D01*
X0241874Y0261439D01*
X0238786Y0264526D01*
X0232528Y0264526D01*
X0208542Y0288513D01*
X0209785Y0291513D02*
X0206534Y0291513D01*
X0200920Y0297127D01*
X0200920Y0299391D01*
X0196543Y0303767D01*
X0196543Y0313614D01*
X0192406Y0310001D02*
X0187634Y0310001D01*
X0186866Y0309233D01*
X0181850Y0309233D01*
X0181086Y0309996D01*
X0175819Y0309996D01*
X0171563Y0305740D01*
X0167016Y0305740D01*
X0178827Y0305740D02*
X0178827Y0295331D01*
X0185809Y0288348D01*
X0190883Y0288348D01*
X0199017Y0280214D01*
X0199289Y0280214D01*
X0227681Y0251822D01*
X0230402Y0251822D01*
X0230402Y0249263D01*
X0230402Y0234283D01*
X0240244Y0234283D02*
X0240244Y0249263D01*
X0233336Y0256171D01*
X0225595Y0256171D01*
X0199952Y0281814D01*
X0199680Y0281814D01*
X0191546Y0289948D01*
X0186472Y0289948D01*
X0180560Y0295861D01*
X0180560Y0299607D01*
X0186693Y0305740D01*
X0190638Y0305740D01*
X0192406Y0310001D02*
X0194943Y0307464D01*
X0194943Y0302780D01*
X0192229Y0300067D01*
X0192229Y0296280D01*
X0201894Y0286615D01*
X0201941Y0286615D01*
X0227583Y0260973D01*
X0237588Y0260973D01*
X0241571Y0256990D01*
X0248784Y0256990D01*
X0254339Y0251435D01*
X0257758Y0251435D01*
X0259929Y0249263D01*
X0259929Y0234283D01*
X0250087Y0234283D02*
X0250087Y0249263D01*
X0244077Y0255273D01*
X0239198Y0255273D01*
X0235099Y0259372D01*
X0226921Y0259372D01*
X0201278Y0285015D01*
X0201006Y0285015D01*
X0188155Y0297866D01*
X0184732Y0297866D01*
X0188342Y0293086D02*
X0190672Y0293086D01*
X0200343Y0283415D01*
X0200615Y0283415D01*
X0226258Y0257772D01*
X0234436Y0257772D01*
X0239935Y0252272D01*
X0242715Y0252272D01*
X0241211Y0259839D02*
X0238123Y0262926D01*
X0229885Y0262926D01*
X0200448Y0292363D01*
X0200448Y0293355D01*
X0204074Y0296237D02*
X0204074Y0300101D01*
X0206754Y0302780D01*
X0206754Y0309305D01*
X0194990Y0321069D01*
X0194990Y0323083D01*
X0192402Y0325671D01*
X0183010Y0325671D01*
X0178827Y0321488D01*
X0167016Y0321488D02*
X0164601Y0319073D01*
X0159314Y0319073D01*
X0159769Y0327272D02*
X0150260Y0317763D01*
X0148470Y0317763D01*
X0150997Y0320763D02*
X0108063Y0320763D01*
X0104934Y0323892D01*
X0079534Y0323892D01*
X0078931Y0323289D01*
X0078931Y0292702D01*
X0112291Y0259342D01*
X0112291Y0234283D01*
X0122134Y0234283D02*
X0122134Y0249263D01*
X0149116Y0276245D01*
X0151996Y0276245D01*
X0160926Y0278213D02*
X0131976Y0249263D01*
X0131976Y0234283D01*
X0141819Y0234283D02*
X0141819Y0249263D01*
X0167393Y0274837D01*
X0173743Y0274837D01*
X0181085Y0271829D02*
X0181085Y0268178D01*
X0162170Y0249263D01*
X0161504Y0249263D01*
X0161504Y0234283D01*
X0171346Y0234283D02*
X0171346Y0249263D01*
X0185655Y0263572D01*
X0185655Y0270812D01*
X0190056Y0272412D02*
X0190056Y0258130D01*
X0181189Y0249263D01*
X0181189Y0234283D01*
X0191031Y0234283D02*
X0191031Y0249263D01*
X0193057Y0251289D01*
X0193057Y0273655D01*
X0191299Y0275413D01*
X0185055Y0275413D01*
X0184855Y0275213D01*
X0185682Y0279813D02*
X0183349Y0282147D01*
X0183049Y0282447D01*
X0138902Y0282447D01*
X0124939Y0296410D01*
X0125721Y0307008D02*
X0143071Y0307008D01*
X0164931Y0285147D01*
X0186817Y0285147D01*
X0188217Y0283747D01*
X0190957Y0283747D01*
X0197691Y0277013D01*
X0197963Y0277013D01*
X0210717Y0264259D01*
X0210717Y0234283D01*
X0220559Y0234283D02*
X0220559Y0249263D01*
X0220559Y0256680D01*
X0198626Y0278613D01*
X0198354Y0278613D01*
X0190220Y0286748D01*
X0183035Y0286748D01*
X0181635Y0288148D01*
X0171056Y0288148D01*
X0149195Y0310009D01*
X0112546Y0310009D01*
X0112291Y0309754D01*
X0121120Y0325273D02*
X0142925Y0325273D01*
X0144952Y0327300D01*
X0151661Y0334009D01*
X0151661Y0345288D01*
X0151661Y0360268D01*
X0161504Y0360268D02*
X0161504Y0335513D01*
X0149850Y0323859D01*
X0150997Y0320763D02*
X0159106Y0328872D01*
X0159106Y0328872D01*
X0206662Y0328872D01*
X0206662Y0336398D01*
X0201286Y0341774D01*
X0194545Y0341774D01*
X0191031Y0345288D01*
X0191031Y0360268D01*
X0181189Y0360268D02*
X0181189Y0345288D01*
X0181974Y0345288D01*
X0188161Y0339101D01*
X0200874Y0344934D02*
X0218565Y0327244D01*
X0218565Y0319765D01*
X0216028Y0317228D01*
X0211256Y0317228D01*
X0206996Y0321488D01*
X0202449Y0321488D01*
X0196665Y0327272D01*
X0159769Y0327272D01*
X0140106Y0343323D02*
X0133941Y0343323D01*
X0131976Y0345288D01*
X0131976Y0360268D01*
X0122134Y0360268D02*
X0122134Y0345288D01*
X0127156Y0340266D01*
X0132502Y0340266D01*
X0135216Y0333512D02*
X0124067Y0333512D01*
X0112291Y0345288D01*
X0112291Y0360268D01*
X0185682Y0279813D02*
X0192628Y0279813D01*
X0197028Y0275413D01*
X0197300Y0275413D01*
X0200874Y0271839D01*
X0200874Y0249263D01*
X0200874Y0234283D01*
X0230402Y0251822D02*
X0232530Y0251822D01*
X0241211Y0259839D02*
X0250824Y0259839D01*
X0255546Y0255117D01*
X0262173Y0258988D02*
X0258122Y0263039D01*
X0243011Y0263039D01*
X0238323Y0267727D01*
X0233570Y0267727D01*
X0209785Y0291513D01*
X0207197Y0293113D02*
X0212463Y0293113D01*
X0236248Y0269328D01*
X0240966Y0269328D01*
X0244254Y0266040D01*
X0240754Y0271357D02*
X0257520Y0271357D01*
X0240754Y0271357D02*
X0224104Y0288008D01*
X0224104Y0288019D01*
X0208354Y0303768D01*
X0208354Y0313614D01*
X0214046Y0321488D02*
X0214260Y0321488D01*
X0214046Y0321488D02*
X0206662Y0328872D01*
X0220165Y0335052D02*
X0230402Y0345288D01*
X0230402Y0360268D01*
X0240244Y0360268D02*
X0240244Y0345288D01*
X0226071Y0331115D01*
X0226071Y0321488D01*
X0226071Y0313609D01*
X0221726Y0309264D01*
X0221726Y0303810D01*
X0227104Y0298432D01*
X0227104Y0289250D01*
X0207197Y0293113D02*
X0204074Y0296237D01*
X0190762Y0278213D02*
X0160926Y0278213D01*
X0165122Y0262724D02*
X0171387Y0262724D01*
X0165122Y0262724D02*
X0151661Y0249263D01*
X0151661Y0234283D01*
X0137866Y0202000D02*
X0137866Y0195053D01*
X0137882Y0195037D01*
X0137882Y0191291D01*
X0107390Y0179469D02*
X0192423Y0179469D01*
X0211677Y0179642D02*
X0176748Y0144713D01*
X0075861Y0144713D01*
X0056424Y0125276D01*
X0056424Y0123014D01*
X0052055Y0123014D01*
X0026896Y0123014D02*
X0022528Y0123014D01*
X0026896Y0123014D02*
X0026896Y0125744D01*
X0059569Y0158417D01*
X0059854Y0168417D02*
X0075657Y0168417D01*
X0072921Y0173417D02*
X0061013Y0185326D01*
X0036995Y0185326D01*
X0027921Y0194400D01*
X0027921Y0202000D01*
X0047921Y0202000D02*
X0047921Y0194400D01*
X0053163Y0189157D01*
X0083948Y0189157D01*
X0094069Y0192158D02*
X0060163Y0192158D01*
X0057921Y0194400D01*
X0057921Y0202000D01*
X0094069Y0192158D02*
X0094164Y0192063D01*
X0107390Y0179469D02*
X0081339Y0153417D01*
X0072921Y0153417D01*
X0077326Y0141935D02*
X0075120Y0139729D01*
X0077326Y0141935D02*
X0194479Y0141935D01*
X0210980Y0158437D01*
X0220664Y0158437D01*
X0226027Y0158437D01*
X0238527Y0145937D01*
X0259678Y0145937D01*
X0261111Y0147370D01*
X0256266Y0149961D02*
X0251589Y0149961D01*
X0250064Y0148437D01*
X0244864Y0148437D01*
X0244864Y0153437D02*
X0239663Y0153437D01*
X0238269Y0152043D01*
X0238201Y0152043D01*
X0238201Y0152042D01*
X0244864Y0158437D02*
X0250064Y0158437D01*
X0253065Y0158437D01*
X0247982Y0130295D02*
X0349602Y0130295D01*
X0351104Y0131797D01*
X0355063Y0131797D01*
X0357849Y0129011D01*
X0353320Y0128794D02*
X0353221Y0128694D01*
X0256224Y0128694D01*
X0253274Y0125744D01*
X0253274Y0123014D01*
X0248906Y0123014D01*
X0243432Y0123014D02*
X0243432Y0125744D01*
X0247982Y0130295D01*
X0243432Y0123014D02*
X0239063Y0123014D01*
X0223747Y0123014D02*
X0219378Y0123014D01*
X0204070Y0115671D02*
X0204070Y0112941D01*
X0208573Y0108437D01*
X0362929Y0108437D01*
X0379366Y0092000D01*
X0383866Y0092000D01*
X0385980Y0087489D02*
X0381066Y0087489D01*
X0361719Y0106836D01*
X0200331Y0106836D01*
X0194227Y0112941D01*
X0194227Y0115671D01*
X0189858Y0115671D01*
X0184385Y0115671D02*
X0184385Y0112941D01*
X0192090Y0105235D01*
X0356131Y0105235D01*
X0379366Y0082000D01*
X0383866Y0082000D01*
X0381728Y0077373D02*
X0372036Y0087066D01*
X0229897Y0087066D01*
X0223747Y0093216D01*
X0223747Y0095947D01*
X0219378Y0095947D01*
X0229220Y0095947D02*
X0233589Y0095947D01*
X0233589Y0093216D01*
X0238050Y0088756D01*
X0314884Y0088756D01*
X0319200Y0093072D01*
X0312454Y0091876D02*
X0312155Y0091578D01*
X0245070Y0091578D01*
X0243432Y0093216D01*
X0243432Y0095947D01*
X0239063Y0095947D01*
X0248906Y0095947D02*
X0253274Y0095947D01*
X0253274Y0098678D01*
X0256814Y0102217D01*
X0350912Y0102217D01*
X0366037Y0083065D02*
X0381613Y0067489D01*
X0385980Y0067489D01*
X0389366Y0070875D01*
X0389366Y0072000D01*
X0393866Y0072000D01*
X0393866Y0082000D02*
X0393866Y0086500D01*
X0394869Y0086500D01*
X0398370Y0090001D01*
X0398370Y0094079D01*
X0395449Y0097000D01*
X0393866Y0092000D02*
X0389366Y0092000D01*
X0389366Y0090875D01*
X0385980Y0087489D01*
X0366037Y0083065D02*
X0214139Y0083065D01*
X0205166Y0092038D01*
X0205166Y0098764D01*
X0203614Y0100316D01*
X0167397Y0100316D01*
X0154857Y0112856D01*
X0154857Y0115671D01*
X0150488Y0115671D01*
X0153002Y0111302D02*
X0146653Y0111302D01*
X0145015Y0112941D01*
X0145015Y0115671D01*
X0140646Y0115671D01*
X0135172Y0115671D02*
X0130803Y0115671D01*
X0123513Y0111302D02*
X0135165Y0099651D01*
X0135165Y0093200D01*
X0154102Y0074262D01*
X0252213Y0074262D01*
X0296406Y0030070D01*
X0352743Y0030070D01*
X0363866Y0018947D01*
X0363866Y0012000D01*
X0353866Y0012000D02*
X0353866Y0018947D01*
X0345381Y0027432D01*
X0293281Y0027432D01*
X0248052Y0072661D01*
X0146020Y0072661D01*
X0125322Y0093359D01*
X0125322Y0099854D01*
X0113873Y0111302D01*
X0117652Y0103617D02*
X0091037Y0103617D01*
X0087056Y0099636D01*
X0087056Y0092083D01*
X0102355Y0076784D01*
X0126001Y0076784D01*
X0139474Y0063311D01*
X0234039Y0063311D01*
X0244425Y0052925D01*
X0251576Y0052925D01*
X0292502Y0012000D01*
X0303866Y0012000D01*
X0313866Y0012000D02*
X0313866Y0018947D01*
X0291582Y0018947D01*
X0245517Y0065012D01*
X0140037Y0065012D01*
X0125250Y0079799D01*
X0109173Y0079799D01*
X0096898Y0092074D01*
X0096898Y0099820D01*
X0097394Y0100316D01*
X0106741Y0100316D01*
X0111110Y0095947D01*
X0116584Y0098540D02*
X0116584Y0092281D01*
X0120868Y0087997D01*
X0124563Y0087997D01*
X0143524Y0069037D01*
X0247151Y0069037D01*
X0292526Y0023661D01*
X0329152Y0023661D01*
X0333866Y0018947D01*
X0333866Y0012000D01*
X0323866Y0012000D02*
X0323866Y0018947D01*
X0321093Y0021720D01*
X0292203Y0021720D01*
X0246665Y0067259D01*
X0140856Y0067259D01*
X0126432Y0081682D01*
X0117171Y0081682D01*
X0105637Y0093216D01*
X0105637Y0095947D01*
X0101268Y0095947D01*
X0091425Y0095947D02*
X0091425Y0100316D01*
X0093026Y0101917D01*
X0113207Y0101917D01*
X0116584Y0098540D01*
X0120953Y0100316D02*
X0117652Y0103617D01*
X0120953Y0100316D02*
X0120953Y0095947D01*
X0137401Y0110646D02*
X0135172Y0112875D01*
X0135172Y0115671D01*
X0137401Y0110646D02*
X0143882Y0110646D01*
X0155954Y0098574D01*
X0155954Y0092246D01*
X0169136Y0079063D01*
X0354662Y0079063D01*
X0376236Y0057489D01*
X0385980Y0057489D01*
X0389366Y0060875D01*
X0389366Y0062000D01*
X0393866Y0062000D01*
X0383866Y0062000D02*
X0379366Y0062000D01*
X0360702Y0080664D01*
X0177394Y0080664D01*
X0164692Y0093366D01*
X0164692Y0099612D01*
X0153002Y0111302D01*
X0180016Y0115671D02*
X0184385Y0115671D01*
X0199701Y0115671D02*
X0204070Y0115671D01*
X0199696Y0061130D02*
X0168619Y0061130D01*
X0163665Y0056176D01*
X0199696Y0061130D02*
X0204575Y0056252D01*
X0213866Y0047157D02*
X0223718Y0057009D01*
X0225259Y0051008D02*
X0223866Y0049615D01*
X0223866Y0018947D01*
X0223866Y0012000D01*
X0213866Y0012000D02*
X0213866Y0018947D01*
X0213866Y0047157D01*
X0226887Y0042870D02*
X0226887Y0025926D01*
X0233866Y0018947D01*
X0233866Y0012000D01*
X0243866Y0012000D02*
X0243866Y0018947D01*
X0229937Y0032876D01*
X0229937Y0038757D01*
X0304614Y0041882D02*
X0304614Y0046282D01*
X0309158Y0050827D01*
X0312555Y0047430D01*
X0374796Y0047430D01*
X0379366Y0052000D01*
X0383866Y0052000D01*
X0385861Y0046630D02*
X0377197Y0046630D01*
X0368027Y0037460D01*
X0342524Y0037460D01*
X0339015Y0040970D01*
X0339015Y0041882D01*
X0334614Y0041882D01*
X0324125Y0035859D02*
X0373225Y0035859D01*
X0379366Y0042000D01*
X0383866Y0042000D01*
X0385861Y0046630D02*
X0389366Y0043125D01*
X0389366Y0042000D01*
X0393866Y0042000D01*
X0324125Y0035859D02*
X0319015Y0040970D01*
X0319015Y0041882D01*
X0314614Y0041882D01*
X0309158Y0050827D02*
X0309015Y0050970D01*
X0309015Y0051882D01*
X0304614Y0051882D01*
X0351365Y0137998D02*
X0349618Y0139745D01*
X0284867Y0139745D01*
X0283874Y0141345D02*
X0282863Y0140335D01*
X0085163Y0140335D01*
X0059854Y0168417D02*
X0018158Y0126722D01*
X0018158Y0111797D01*
X0029639Y0100316D01*
X0032370Y0100316D01*
X0032370Y0095947D01*
X0049476Y0068929D02*
X0049476Y0056390D01*
X0053866Y0052000D01*
X0063866Y0052000D02*
X0068217Y0056350D01*
X0068217Y0068929D01*
X0063866Y0068929D01*
X0053827Y0068929D02*
X0049476Y0068929D01*
X0196057Y0272412D02*
X0196057Y0272918D01*
X0190762Y0278213D01*
X0220165Y0313614D02*
X0220165Y0335052D01*
X0200874Y0344934D02*
X0200874Y0360268D01*
X0249693Y0321488D02*
X0265452Y0321488D01*
X0285188Y0331217D02*
X0271117Y0345288D01*
X0269772Y0345288D01*
X0269772Y0360268D01*
X0283874Y0141345D02*
X0357769Y0141345D01*
X0358567Y0140547D01*
D33*
X0138787Y0024468D02*
X0133839Y0019520D01*
X0133847Y0019521D01*
X0133855Y0019525D01*
X0133861Y0019531D01*
X0133865Y0019539D01*
X0133866Y0019547D01*
X0076858Y0332709D02*
X0041425Y0332709D01*
X0041425Y0368142D01*
X0076858Y0368142D01*
X0076858Y0332709D01*
X0076858Y0332892D02*
X0041425Y0332892D01*
X0041425Y0334490D02*
X0076858Y0334490D01*
X0076858Y0336089D02*
X0041425Y0336089D01*
X0041425Y0337687D02*
X0076858Y0337687D01*
X0076858Y0339286D02*
X0041425Y0339286D01*
X0041425Y0340884D02*
X0076858Y0340884D01*
X0076858Y0342483D02*
X0041425Y0342483D01*
X0041425Y0344081D02*
X0076858Y0344081D01*
X0076858Y0345680D02*
X0041425Y0345680D01*
X0041425Y0347278D02*
X0076858Y0347278D01*
X0076858Y0348877D02*
X0041425Y0348877D01*
X0041425Y0350475D02*
X0076858Y0350475D01*
X0076858Y0352074D02*
X0041425Y0352074D01*
X0041425Y0353672D02*
X0076858Y0353672D01*
X0076858Y0355271D02*
X0041425Y0355271D01*
X0041425Y0356870D02*
X0076858Y0356870D01*
X0076858Y0358468D02*
X0041425Y0358468D01*
X0041425Y0360067D02*
X0076858Y0360067D01*
X0076858Y0361665D02*
X0041425Y0361665D01*
X0041425Y0363264D02*
X0076858Y0363264D01*
X0076858Y0364862D02*
X0041425Y0364862D01*
X0041425Y0366461D02*
X0076858Y0366461D01*
X0076858Y0368059D02*
X0041425Y0368059D01*
D34*
X0101465Y0260858D02*
X0101465Y0234283D01*
D35*
X0097941Y0280046D02*
X0156913Y0280046D01*
X0157706Y0279252D01*
X0172921Y0313614D02*
X0094628Y0313614D01*
X0088802Y0319441D01*
X0083551Y0319441D01*
X0171346Y0343859D02*
X0171346Y0344488D01*
X0171346Y0360268D01*
X0171346Y0343859D02*
X0180061Y0335144D01*
X0203626Y0335144D01*
X0234146Y0334843D02*
X0242598Y0334843D01*
X0250087Y0342332D01*
X0250087Y0344488D01*
X0250087Y0360268D01*
X0250087Y0342332D02*
X0252241Y0342332D01*
X0288472Y0306101D01*
X0288472Y0288181D01*
X0279261Y0283086D02*
X0238702Y0283086D01*
X0234557Y0287230D01*
X0279261Y0283086D02*
X0310248Y0252100D01*
X0316631Y0252100D01*
X0318668Y0250063D01*
X0319969Y0250063D01*
X0319969Y0234283D01*
D36*
X0072921Y0340583D03*
X0072921Y0348457D03*
X0072921Y0356331D03*
X0072921Y0364205D03*
X0045362Y0364205D03*
X0045362Y0356331D03*
X0045362Y0348457D03*
X0045362Y0340583D03*
M02*
