G75*
%MOIN*%
%OFA0B0*%
%FSLAX25Y25*%
%IPPOS*%
%LPD*%
%AMOC8*
5,1,8,0,0,1.08239X$1,22.5*
%
%ADD10C,0.01000*%
%ADD11C,0.01200*%
%ADD12C,0.00700*%
%ADD13C,0.00600*%
%ADD14C,0.00400*%
%ADD15C,0.00300*%
%ADD16C,0.00500*%
%ADD17C,0.00800*%
%ADD18C,0.00200*%
%ADD19C,0.00000*%
D10*
X0013866Y0005937D02*
X0013866Y0207906D01*
X0013868Y0208030D01*
X0013874Y0208153D01*
X0013883Y0208277D01*
X0013897Y0208399D01*
X0013914Y0208522D01*
X0013936Y0208644D01*
X0013961Y0208765D01*
X0013990Y0208885D01*
X0014022Y0209004D01*
X0014059Y0209123D01*
X0014099Y0209240D01*
X0014142Y0209355D01*
X0014190Y0209470D01*
X0014241Y0209582D01*
X0014295Y0209693D01*
X0014353Y0209803D01*
X0014414Y0209910D01*
X0014479Y0210016D01*
X0014547Y0210119D01*
X0014618Y0210220D01*
X0014692Y0210319D01*
X0014769Y0210416D01*
X0014850Y0210510D01*
X0014933Y0210601D01*
X0015019Y0210690D01*
X0015108Y0210776D01*
X0015199Y0210859D01*
X0015293Y0210940D01*
X0015390Y0211017D01*
X0015489Y0211091D01*
X0015590Y0211162D01*
X0015693Y0211230D01*
X0015799Y0211295D01*
X0015906Y0211356D01*
X0016016Y0211414D01*
X0016127Y0211468D01*
X0016239Y0211519D01*
X0016354Y0211567D01*
X0016469Y0211610D01*
X0016586Y0211650D01*
X0016705Y0211687D01*
X0016824Y0211719D01*
X0016944Y0211748D01*
X0017065Y0211773D01*
X0017187Y0211795D01*
X0017310Y0211812D01*
X0017432Y0211826D01*
X0017556Y0211835D01*
X0017679Y0211841D01*
X0017803Y0211843D01*
X0050087Y0211843D01*
X0050087Y0258299D01*
X0016228Y0258299D01*
X0016228Y0276409D01*
X0026071Y0276409D01*
X0026071Y0284283D01*
X0013866Y0284283D01*
X0013866Y0325228D01*
X0016228Y0325228D01*
X0016228Y0350819D01*
X0026071Y0350819D01*
X0026071Y0358693D01*
X0013866Y0358693D01*
X0013866Y0366173D01*
X0037488Y0366173D01*
X0037488Y0374441D01*
X0383945Y0374441D01*
X0383945Y0366173D01*
X0407567Y0366173D01*
X0407567Y0326016D01*
X0394969Y0326016D01*
X0394969Y0318142D01*
X0403630Y0318142D01*
X0403630Y0305150D01*
X0393787Y0305150D01*
X0393787Y0297276D01*
X0403630Y0297276D01*
X0403630Y0277197D01*
X0407567Y0277197D01*
X0407567Y0258299D01*
X0371346Y0258299D01*
X0371346Y0211843D01*
X0394181Y0211843D01*
X0403630Y0202394D01*
X0403630Y0161843D01*
X0407567Y0152394D01*
X0407567Y0017000D01*
X0403866Y0007000D01*
X0403866Y0005937D01*
X0403864Y0005813D01*
X0403858Y0005690D01*
X0403849Y0005566D01*
X0403835Y0005444D01*
X0403818Y0005321D01*
X0403796Y0005199D01*
X0403771Y0005078D01*
X0403742Y0004958D01*
X0403710Y0004839D01*
X0403673Y0004720D01*
X0403633Y0004603D01*
X0403590Y0004488D01*
X0403542Y0004373D01*
X0403491Y0004261D01*
X0403437Y0004150D01*
X0403379Y0004040D01*
X0403318Y0003933D01*
X0403253Y0003827D01*
X0403185Y0003724D01*
X0403114Y0003623D01*
X0403040Y0003524D01*
X0402963Y0003427D01*
X0402882Y0003333D01*
X0402799Y0003242D01*
X0402713Y0003153D01*
X0402624Y0003067D01*
X0402533Y0002984D01*
X0402439Y0002903D01*
X0402342Y0002826D01*
X0402243Y0002752D01*
X0402142Y0002681D01*
X0402039Y0002613D01*
X0401933Y0002548D01*
X0401826Y0002487D01*
X0401716Y0002429D01*
X0401605Y0002375D01*
X0401493Y0002324D01*
X0401378Y0002276D01*
X0401263Y0002233D01*
X0401146Y0002193D01*
X0401027Y0002156D01*
X0400908Y0002124D01*
X0400788Y0002095D01*
X0400667Y0002070D01*
X0400545Y0002048D01*
X0400422Y0002031D01*
X0400300Y0002017D01*
X0400176Y0002008D01*
X0400053Y0002002D01*
X0399929Y0002000D01*
X0017803Y0002000D01*
X0017679Y0002002D01*
X0017556Y0002008D01*
X0017432Y0002017D01*
X0017310Y0002031D01*
X0017187Y0002048D01*
X0017065Y0002070D01*
X0016944Y0002095D01*
X0016824Y0002124D01*
X0016705Y0002156D01*
X0016586Y0002193D01*
X0016469Y0002233D01*
X0016354Y0002276D01*
X0016239Y0002324D01*
X0016127Y0002375D01*
X0016016Y0002429D01*
X0015906Y0002487D01*
X0015799Y0002548D01*
X0015693Y0002613D01*
X0015590Y0002681D01*
X0015489Y0002752D01*
X0015390Y0002826D01*
X0015293Y0002903D01*
X0015199Y0002984D01*
X0015108Y0003067D01*
X0015019Y0003153D01*
X0014933Y0003242D01*
X0014850Y0003333D01*
X0014769Y0003427D01*
X0014692Y0003524D01*
X0014618Y0003623D01*
X0014547Y0003724D01*
X0014479Y0003827D01*
X0014414Y0003933D01*
X0014353Y0004040D01*
X0014295Y0004150D01*
X0014241Y0004261D01*
X0014190Y0004373D01*
X0014142Y0004488D01*
X0014099Y0004603D01*
X0014059Y0004720D01*
X0014022Y0004839D01*
X0013990Y0004958D01*
X0013961Y0005078D01*
X0013936Y0005199D01*
X0013914Y0005321D01*
X0013897Y0005444D01*
X0013883Y0005566D01*
X0013874Y0005690D01*
X0013868Y0005813D01*
X0013866Y0005937D01*
X0020559Y0090976D02*
X0359142Y0090976D01*
X0359245Y0090978D01*
X0359348Y0090984D01*
X0359451Y0090993D01*
X0359553Y0091007D01*
X0359654Y0091024D01*
X0359755Y0091045D01*
X0359855Y0091070D01*
X0359954Y0091098D01*
X0360052Y0091131D01*
X0360149Y0091167D01*
X0360244Y0091206D01*
X0360338Y0091249D01*
X0360430Y0091295D01*
X0360520Y0091345D01*
X0360608Y0091398D01*
X0360695Y0091455D01*
X0360779Y0091515D01*
X0360860Y0091577D01*
X0360940Y0091643D01*
X0361017Y0091712D01*
X0361091Y0091783D01*
X0361162Y0091857D01*
X0361231Y0091934D01*
X0361297Y0092014D01*
X0361359Y0092095D01*
X0361419Y0092179D01*
X0361476Y0092266D01*
X0361529Y0092354D01*
X0361579Y0092444D01*
X0361625Y0092536D01*
X0361668Y0092630D01*
X0361707Y0092725D01*
X0361743Y0092822D01*
X0361776Y0092920D01*
X0361804Y0093019D01*
X0361829Y0093119D01*
X0361850Y0093220D01*
X0361867Y0093321D01*
X0361881Y0093423D01*
X0361890Y0093526D01*
X0361896Y0093629D01*
X0361898Y0093732D01*
X0361898Y0125622D01*
X0361897Y0125622D02*
X0361895Y0125717D01*
X0361889Y0125812D01*
X0361880Y0125907D01*
X0361866Y0126001D01*
X0361849Y0126094D01*
X0361828Y0126187D01*
X0361804Y0126279D01*
X0361775Y0126370D01*
X0361744Y0126460D01*
X0361708Y0126548D01*
X0361669Y0126635D01*
X0361626Y0126720D01*
X0361581Y0126803D01*
X0361531Y0126884D01*
X0361479Y0126964D01*
X0361423Y0127041D01*
X0361365Y0127116D01*
X0361303Y0127188D01*
X0361238Y0127258D01*
X0361171Y0127325D01*
X0361101Y0127390D01*
X0361029Y0127452D01*
X0360954Y0127510D01*
X0360877Y0127566D01*
X0360797Y0127618D01*
X0360716Y0127668D01*
X0360633Y0127713D01*
X0360548Y0127756D01*
X0360461Y0127795D01*
X0360373Y0127831D01*
X0360283Y0127862D01*
X0360192Y0127891D01*
X0360100Y0127915D01*
X0360007Y0127936D01*
X0359914Y0127953D01*
X0359820Y0127967D01*
X0359725Y0127976D01*
X0359630Y0127982D01*
X0359535Y0127984D01*
X0020165Y0127984D01*
X0020070Y0127982D01*
X0019975Y0127976D01*
X0019880Y0127967D01*
X0019786Y0127953D01*
X0019693Y0127936D01*
X0019600Y0127915D01*
X0019508Y0127891D01*
X0019417Y0127862D01*
X0019327Y0127831D01*
X0019239Y0127795D01*
X0019152Y0127756D01*
X0019067Y0127713D01*
X0018984Y0127668D01*
X0018903Y0127618D01*
X0018823Y0127566D01*
X0018746Y0127510D01*
X0018671Y0127452D01*
X0018599Y0127390D01*
X0018529Y0127325D01*
X0018462Y0127258D01*
X0018397Y0127188D01*
X0018335Y0127116D01*
X0018277Y0127041D01*
X0018221Y0126964D01*
X0018169Y0126884D01*
X0018119Y0126803D01*
X0018074Y0126720D01*
X0018031Y0126635D01*
X0017992Y0126548D01*
X0017956Y0126460D01*
X0017925Y0126370D01*
X0017896Y0126279D01*
X0017872Y0126187D01*
X0017851Y0126094D01*
X0017834Y0126001D01*
X0017820Y0125907D01*
X0017811Y0125812D01*
X0017805Y0125717D01*
X0017803Y0125622D01*
X0017803Y0093732D01*
X0017805Y0093629D01*
X0017811Y0093526D01*
X0017820Y0093423D01*
X0017834Y0093321D01*
X0017851Y0093220D01*
X0017872Y0093119D01*
X0017897Y0093019D01*
X0017925Y0092920D01*
X0017958Y0092822D01*
X0017994Y0092725D01*
X0018033Y0092630D01*
X0018076Y0092536D01*
X0018122Y0092444D01*
X0018172Y0092354D01*
X0018225Y0092266D01*
X0018282Y0092179D01*
X0018342Y0092095D01*
X0018404Y0092014D01*
X0018470Y0091934D01*
X0018539Y0091857D01*
X0018610Y0091783D01*
X0018684Y0091712D01*
X0018761Y0091643D01*
X0018841Y0091577D01*
X0018922Y0091515D01*
X0019006Y0091455D01*
X0019093Y0091398D01*
X0019181Y0091345D01*
X0019271Y0091295D01*
X0019363Y0091249D01*
X0019457Y0091206D01*
X0019552Y0091167D01*
X0019649Y0091131D01*
X0019747Y0091098D01*
X0019846Y0091070D01*
X0019946Y0091045D01*
X0020047Y0091024D01*
X0020148Y0091007D01*
X0020250Y0090993D01*
X0020353Y0090984D01*
X0020456Y0090978D01*
X0020559Y0090976D01*
X0087882Y0211843D02*
X0087882Y0258299D01*
X0092606Y0258299D01*
X0092606Y0216567D01*
X0328827Y0216567D01*
X0328827Y0258299D01*
X0333551Y0258299D01*
X0333551Y0211843D01*
X0087882Y0211843D01*
X0222657Y0177079D02*
X0222657Y0167079D01*
X0243657Y0167079D01*
X0243657Y0177079D01*
X0222657Y0177079D01*
X0233157Y0174579D02*
X0233157Y0169579D01*
X0280881Y0051664D02*
X0279946Y0050730D01*
X0279946Y0047928D01*
X0285551Y0047928D01*
X0285551Y0050730D01*
X0284617Y0051664D01*
X0280881Y0051664D01*
X0280881Y0045587D02*
X0279946Y0044653D01*
X0279946Y0042785D01*
X0280881Y0041850D01*
X0281815Y0041850D01*
X0282749Y0042785D01*
X0282749Y0044653D01*
X0283683Y0045587D01*
X0284617Y0045587D01*
X0285551Y0044653D01*
X0285551Y0042785D01*
X0284617Y0041850D01*
X0283336Y0036711D02*
X0281468Y0036711D01*
X0280534Y0035777D01*
X0280534Y0034843D01*
X0281468Y0033909D01*
X0283336Y0033909D01*
X0284271Y0032975D01*
X0284271Y0032040D01*
X0283336Y0031106D01*
X0281468Y0031106D01*
X0280534Y0032040D01*
X0278193Y0032040D02*
X0277259Y0031106D01*
X0275391Y0031106D01*
X0274457Y0032040D01*
X0275391Y0033909D02*
X0277259Y0033909D01*
X0278193Y0032975D01*
X0278193Y0032040D01*
X0275391Y0033909D02*
X0274457Y0034843D01*
X0274457Y0035777D01*
X0275391Y0036711D01*
X0277259Y0036711D01*
X0278193Y0035777D01*
X0272116Y0036711D02*
X0268380Y0036711D01*
X0268380Y0031106D01*
X0272116Y0031106D01*
X0270248Y0033909D02*
X0268380Y0033909D01*
X0266039Y0033909D02*
X0265105Y0032975D01*
X0262302Y0032975D01*
X0264171Y0032975D02*
X0266039Y0031106D01*
X0266039Y0033909D02*
X0266039Y0035777D01*
X0265105Y0036711D01*
X0262302Y0036711D01*
X0262302Y0031106D01*
X0259962Y0032040D02*
X0259962Y0035777D01*
X0259028Y0036711D01*
X0256225Y0036711D01*
X0256225Y0031106D01*
X0259028Y0031106D01*
X0259962Y0032040D01*
X0253885Y0032040D02*
X0253885Y0035777D01*
X0252950Y0036711D01*
X0250148Y0036711D01*
X0250148Y0031106D01*
X0252950Y0031106D01*
X0253885Y0032040D01*
X0247807Y0031106D02*
X0247807Y0034843D01*
X0245939Y0036711D01*
X0244071Y0034843D01*
X0244071Y0031106D01*
X0244071Y0033909D02*
X0247807Y0033909D01*
X0283336Y0036711D02*
X0284271Y0035777D01*
D11*
X0287661Y0034394D02*
X0368760Y0034394D01*
X0371866Y0033650D01*
X0383866Y0024500D02*
X0383866Y0022500D01*
X0393866Y0022500D01*
X0393866Y0024500D01*
X0363366Y0067760D02*
X0363366Y0088394D01*
X0365791Y0091606D01*
X0366185Y0121634D02*
X0363760Y0124846D01*
X0363760Y0148236D01*
X0366185Y0151449D01*
X0365791Y0162185D02*
X0363366Y0165398D01*
X0363366Y0188000D01*
X0366579Y0191213D01*
X0383866Y0208181D02*
X0383866Y0209500D01*
X0393866Y0209500D01*
X0393866Y0208181D01*
X0291484Y0052079D02*
X0289484Y0052079D01*
X0289484Y0042079D01*
X0291484Y0042079D01*
X0240933Y0034394D02*
X0220728Y0034394D01*
X0216335Y0030000D01*
X0194654Y0027925D02*
X0192291Y0031106D01*
X0192291Y0031161D02*
X0188984Y0031161D01*
X0163157Y0031161D02*
X0157882Y0031161D01*
X0157882Y0031106D02*
X0155520Y0029500D01*
D12*
X0154764Y0027524D02*
X0151495Y0027524D01*
X0154764Y0027524D02*
X0156399Y0025889D01*
X0154764Y0024254D01*
X0151495Y0024254D01*
X0152312Y0022367D02*
X0151495Y0021550D01*
X0151495Y0019915D01*
X0152312Y0019098D01*
X0153947Y0020733D02*
X0153947Y0021550D01*
X0154764Y0022367D01*
X0155581Y0022367D01*
X0156399Y0021550D01*
X0156399Y0019915D01*
X0155581Y0019098D01*
X0153947Y0021550D02*
X0153129Y0022367D01*
X0152312Y0022367D01*
X0146399Y0022367D02*
X0144764Y0020733D01*
X0144764Y0021550D02*
X0144764Y0019098D01*
X0146399Y0019098D02*
X0141495Y0019098D01*
X0141495Y0021550D01*
X0142312Y0022367D01*
X0143947Y0022367D01*
X0144764Y0021550D01*
X0145581Y0024254D02*
X0146399Y0025072D01*
X0146399Y0026707D01*
X0145581Y0027524D01*
X0144764Y0027524D01*
X0143947Y0026707D01*
X0143947Y0025072D01*
X0143129Y0024254D01*
X0142312Y0024254D01*
X0141495Y0025072D01*
X0141495Y0026707D01*
X0142312Y0027524D01*
X0141495Y0029411D02*
X0141495Y0032680D01*
X0141495Y0031046D02*
X0146399Y0031046D01*
X0161086Y0027984D02*
X0164355Y0027984D01*
X0165990Y0026349D01*
X0164355Y0024714D01*
X0161086Y0024714D01*
X0161086Y0022827D02*
X0161086Y0019558D01*
X0163538Y0019558D01*
X0162721Y0021193D01*
X0162721Y0022010D01*
X0163538Y0022827D01*
X0165173Y0022827D01*
X0165990Y0022010D01*
X0165990Y0020375D01*
X0165173Y0019558D01*
X0170928Y0019777D02*
X0171746Y0018959D01*
X0175015Y0018959D01*
X0175833Y0019777D01*
X0175833Y0021412D01*
X0175015Y0022229D01*
X0173381Y0022229D01*
X0173381Y0020594D01*
X0171746Y0022229D02*
X0170928Y0021412D01*
X0170928Y0019777D01*
X0180377Y0019777D02*
X0181195Y0018959D01*
X0184464Y0018959D01*
X0185281Y0019777D01*
X0185281Y0021412D01*
X0184464Y0022229D01*
X0182829Y0022229D01*
X0182829Y0020594D01*
X0181195Y0022229D02*
X0180377Y0021412D01*
X0180377Y0019777D01*
X0191007Y0018837D02*
X0194277Y0018837D01*
X0195911Y0020471D01*
X0194277Y0022106D01*
X0191007Y0022106D01*
X0191007Y0023993D02*
X0191007Y0025628D01*
X0191007Y0024810D02*
X0195911Y0024810D01*
X0195911Y0023993D02*
X0195911Y0025628D01*
X0211218Y0026096D02*
X0212036Y0026914D01*
X0215305Y0023644D01*
X0216122Y0024462D01*
X0216122Y0026096D01*
X0215305Y0026914D01*
X0212036Y0026914D01*
X0211218Y0026096D02*
X0211218Y0024462D01*
X0212036Y0023644D01*
X0215305Y0023644D01*
X0216122Y0021757D02*
X0212853Y0021757D01*
X0211218Y0020123D01*
X0212853Y0018488D01*
X0216122Y0018488D01*
X0213670Y0018488D02*
X0213670Y0021757D01*
X0221006Y0020123D02*
X0222640Y0021757D01*
X0225910Y0021757D01*
X0225910Y0023644D02*
X0225910Y0026914D01*
X0225910Y0025279D02*
X0221006Y0025279D01*
X0222640Y0023644D01*
X0223458Y0021757D02*
X0223458Y0018488D01*
X0222640Y0018488D02*
X0221006Y0020123D01*
X0222640Y0018488D02*
X0225910Y0018488D01*
X0231218Y0020123D02*
X0232853Y0021757D01*
X0236122Y0021757D01*
X0236122Y0023644D02*
X0232853Y0026914D01*
X0232036Y0026914D01*
X0231218Y0026096D01*
X0231218Y0024462D01*
X0232036Y0023644D01*
X0233670Y0021757D02*
X0233670Y0018488D01*
X0232853Y0018488D02*
X0236122Y0018488D01*
X0232853Y0018488D02*
X0231218Y0020123D01*
X0236122Y0023644D02*
X0236122Y0026914D01*
X0241218Y0026096D02*
X0242036Y0026914D01*
X0242853Y0026914D01*
X0243670Y0026096D01*
X0244488Y0026914D01*
X0245305Y0026914D01*
X0246122Y0026096D01*
X0246122Y0024462D01*
X0245305Y0023644D01*
X0246122Y0021757D02*
X0242853Y0021757D01*
X0241218Y0020123D01*
X0242853Y0018488D01*
X0246122Y0018488D01*
X0243670Y0018488D02*
X0243670Y0021757D01*
X0242036Y0023644D02*
X0241218Y0024462D01*
X0241218Y0026096D01*
X0243670Y0026096D02*
X0243670Y0025279D01*
X0251612Y0026096D02*
X0254064Y0023644D01*
X0254064Y0026914D01*
X0256516Y0026096D02*
X0251612Y0026096D01*
X0253247Y0021757D02*
X0256516Y0021757D01*
X0254064Y0021757D02*
X0254064Y0018488D01*
X0253247Y0018488D02*
X0256516Y0018488D01*
X0253247Y0018488D02*
X0251612Y0020123D01*
X0253247Y0021757D01*
X0261506Y0020123D02*
X0263140Y0021757D01*
X0266410Y0021757D01*
X0265592Y0023644D02*
X0266410Y0024462D01*
X0266410Y0026096D01*
X0265592Y0026914D01*
X0263958Y0026914D01*
X0263140Y0026096D01*
X0263140Y0025279D01*
X0263958Y0023644D01*
X0261506Y0023644D01*
X0261506Y0026914D01*
X0263958Y0021757D02*
X0263958Y0018488D01*
X0263140Y0018488D02*
X0261506Y0020123D01*
X0263140Y0018488D02*
X0266410Y0018488D01*
X0271112Y0020123D02*
X0272747Y0021757D01*
X0276016Y0021757D01*
X0275199Y0023644D02*
X0273564Y0023644D01*
X0273564Y0026096D01*
X0274381Y0026914D01*
X0275199Y0026914D01*
X0276016Y0026096D01*
X0276016Y0024462D01*
X0275199Y0023644D01*
X0273564Y0023644D02*
X0271929Y0025279D01*
X0271112Y0026914D01*
X0273564Y0021757D02*
X0273564Y0018488D01*
X0272747Y0018488D02*
X0271112Y0020123D01*
X0272747Y0018488D02*
X0276016Y0018488D01*
X0281612Y0020123D02*
X0283247Y0021757D01*
X0286516Y0021757D01*
X0286516Y0023644D02*
X0285699Y0023644D01*
X0282429Y0026914D01*
X0281612Y0026914D01*
X0281612Y0023644D01*
X0284064Y0021757D02*
X0284064Y0018488D01*
X0283247Y0018488D02*
X0281612Y0020123D01*
X0283247Y0018488D02*
X0286516Y0018488D01*
X0301612Y0020123D02*
X0303247Y0021757D01*
X0306516Y0021757D01*
X0305699Y0023644D02*
X0304881Y0023644D01*
X0304064Y0024462D01*
X0304064Y0026096D01*
X0304881Y0026914D01*
X0305699Y0026914D01*
X0306516Y0026096D01*
X0306516Y0024462D01*
X0305699Y0023644D01*
X0304064Y0024462D02*
X0303247Y0023644D01*
X0302429Y0023644D01*
X0301612Y0024462D01*
X0301612Y0026096D01*
X0302429Y0026914D01*
X0303247Y0026914D01*
X0304064Y0026096D01*
X0304064Y0021757D02*
X0304064Y0018488D01*
X0303247Y0018488D02*
X0301612Y0020123D01*
X0303247Y0018488D02*
X0306516Y0018488D01*
X0311218Y0020123D02*
X0312853Y0021757D01*
X0316122Y0021757D01*
X0315305Y0023644D02*
X0316122Y0024462D01*
X0316122Y0026096D01*
X0315305Y0026914D01*
X0312036Y0026914D01*
X0311218Y0026096D01*
X0311218Y0024462D01*
X0312036Y0023644D01*
X0312853Y0023644D01*
X0313670Y0024462D01*
X0313670Y0026914D01*
X0313670Y0021757D02*
X0313670Y0018488D01*
X0312853Y0018488D02*
X0311218Y0020123D01*
X0312853Y0018488D02*
X0316122Y0018488D01*
X0331612Y0020123D02*
X0333247Y0021757D01*
X0336516Y0021757D01*
X0336516Y0023644D02*
X0336516Y0026914D01*
X0336516Y0025279D02*
X0331612Y0025279D01*
X0333247Y0023644D01*
X0334064Y0021757D02*
X0334064Y0018488D01*
X0333247Y0018488D02*
X0331612Y0020123D01*
X0333247Y0018488D02*
X0336516Y0018488D01*
X0341218Y0020123D02*
X0342853Y0021757D01*
X0346122Y0021757D01*
X0346122Y0023644D02*
X0346122Y0026914D01*
X0346122Y0025279D02*
X0341218Y0025279D01*
X0342853Y0023644D01*
X0343670Y0021757D02*
X0343670Y0018488D01*
X0342853Y0018488D02*
X0341218Y0020123D01*
X0342853Y0018488D02*
X0346122Y0018488D01*
X0351218Y0020123D02*
X0352853Y0021757D01*
X0356122Y0021757D01*
X0356122Y0023644D02*
X0356122Y0026914D01*
X0356122Y0025279D02*
X0351218Y0025279D01*
X0352853Y0023644D01*
X0353670Y0021757D02*
X0353670Y0018488D01*
X0352853Y0018488D02*
X0351218Y0020123D01*
X0352853Y0018488D02*
X0356122Y0018488D01*
X0361612Y0020123D02*
X0363247Y0018488D01*
X0366516Y0018488D01*
X0364064Y0018488D02*
X0364064Y0021757D01*
X0363247Y0021757D02*
X0366516Y0021757D01*
X0366516Y0023644D02*
X0366516Y0026914D01*
X0366516Y0025279D02*
X0361612Y0025279D01*
X0363247Y0023644D01*
X0363247Y0021757D02*
X0361612Y0020123D01*
X0364064Y0028801D02*
X0364064Y0032070D01*
X0361612Y0031253D02*
X0364064Y0028801D01*
X0366516Y0031253D02*
X0361612Y0031253D01*
X0356122Y0031253D02*
X0356122Y0029618D01*
X0355305Y0028801D01*
X0353670Y0030435D02*
X0353670Y0031253D01*
X0354488Y0032070D01*
X0355305Y0032070D01*
X0356122Y0031253D01*
X0353670Y0031253D02*
X0352853Y0032070D01*
X0352036Y0032070D01*
X0351218Y0031253D01*
X0351218Y0029618D01*
X0352036Y0028801D01*
X0346122Y0028801D02*
X0346122Y0032070D01*
X0346122Y0028801D02*
X0342853Y0032070D01*
X0342036Y0032070D01*
X0341218Y0031253D01*
X0341218Y0029618D01*
X0342036Y0028801D01*
X0336516Y0028801D02*
X0336516Y0032070D01*
X0336516Y0030435D02*
X0331612Y0030435D01*
X0333247Y0028801D01*
X0371112Y0028801D02*
X0373564Y0028801D01*
X0372747Y0030435D01*
X0372747Y0031253D01*
X0373564Y0032070D01*
X0375199Y0032070D01*
X0376016Y0031253D01*
X0376016Y0029618D01*
X0375199Y0028801D01*
X0376016Y0026914D02*
X0376016Y0023644D01*
X0376016Y0025279D02*
X0371112Y0025279D01*
X0372747Y0023644D01*
X0372747Y0021757D02*
X0371112Y0020123D01*
X0372747Y0018488D01*
X0376016Y0018488D01*
X0373564Y0018488D02*
X0373564Y0021757D01*
X0372747Y0021757D02*
X0376016Y0021757D01*
X0380889Y0017845D02*
X0380889Y0014575D01*
X0381706Y0013758D01*
X0383341Y0013758D01*
X0384158Y0014575D01*
X0384158Y0016210D01*
X0382523Y0016210D01*
X0380889Y0017845D02*
X0381706Y0018662D01*
X0383341Y0018662D01*
X0384158Y0017845D01*
X0386045Y0018662D02*
X0386045Y0013758D01*
X0389315Y0013758D02*
X0386045Y0018662D01*
X0389315Y0018662D02*
X0389315Y0013758D01*
X0391201Y0013758D02*
X0393654Y0013758D01*
X0394471Y0014575D01*
X0394471Y0017845D01*
X0393654Y0018662D01*
X0391201Y0018662D01*
X0391201Y0013758D01*
X0371112Y0028801D02*
X0371112Y0032070D01*
X0371668Y0059850D02*
X0369216Y0059850D01*
X0369216Y0064754D01*
X0371668Y0064754D01*
X0372486Y0063937D01*
X0372486Y0063119D01*
X0371668Y0062302D01*
X0369216Y0062302D01*
X0371668Y0062302D02*
X0372486Y0061485D01*
X0372486Y0060667D01*
X0371668Y0059850D01*
X0374373Y0059850D02*
X0377642Y0059850D01*
X0376007Y0059850D02*
X0376007Y0064754D01*
X0374373Y0063119D01*
X0375190Y0069850D02*
X0374373Y0070667D01*
X0375190Y0069850D02*
X0376825Y0069850D01*
X0377642Y0070667D01*
X0377642Y0071485D01*
X0376825Y0072302D01*
X0376007Y0072302D01*
X0376825Y0072302D02*
X0377642Y0073119D01*
X0377642Y0073937D01*
X0376825Y0074754D01*
X0375190Y0074754D01*
X0374373Y0073937D01*
X0372486Y0073937D02*
X0372486Y0073119D01*
X0371668Y0072302D01*
X0369216Y0072302D01*
X0369216Y0069850D02*
X0369216Y0074754D01*
X0371668Y0074754D01*
X0372486Y0073937D01*
X0371668Y0072302D02*
X0372486Y0071485D01*
X0372486Y0070667D01*
X0371668Y0069850D01*
X0369216Y0069850D01*
X0369216Y0079850D02*
X0371668Y0079850D01*
X0372486Y0080667D01*
X0372486Y0081485D01*
X0371668Y0082302D01*
X0369216Y0082302D01*
X0369216Y0079850D02*
X0369216Y0084754D01*
X0371668Y0084754D01*
X0372486Y0083937D01*
X0372486Y0083119D01*
X0371668Y0082302D01*
X0374373Y0082302D02*
X0376007Y0083119D01*
X0376825Y0083119D01*
X0377642Y0082302D01*
X0377642Y0080667D01*
X0376825Y0079850D01*
X0375190Y0079850D01*
X0374373Y0080667D01*
X0374373Y0082302D02*
X0374373Y0084754D01*
X0377642Y0084754D01*
X0374373Y0089850D02*
X0374373Y0090667D01*
X0377642Y0093937D01*
X0377642Y0094754D01*
X0374373Y0094754D01*
X0372486Y0093937D02*
X0372486Y0093119D01*
X0371668Y0092302D01*
X0369216Y0092302D01*
X0369216Y0089850D02*
X0371668Y0089850D01*
X0372486Y0090667D01*
X0372486Y0091485D01*
X0371668Y0092302D01*
X0372486Y0093937D02*
X0371668Y0094754D01*
X0369216Y0094754D01*
X0369216Y0089850D01*
X0368125Y0099850D02*
X0368942Y0100667D01*
X0368125Y0099850D02*
X0366490Y0099850D01*
X0365673Y0100667D01*
X0365673Y0103937D01*
X0366490Y0104754D01*
X0368125Y0104754D01*
X0368942Y0103937D01*
X0370829Y0104754D02*
X0372464Y0104754D01*
X0371647Y0104754D02*
X0371647Y0099850D01*
X0372464Y0099850D02*
X0370829Y0099850D01*
X0374267Y0100667D02*
X0374267Y0103937D01*
X0375084Y0104754D01*
X0376719Y0104754D01*
X0377536Y0103937D01*
X0377536Y0100667D02*
X0376719Y0099850D01*
X0375084Y0099850D01*
X0374267Y0100667D01*
X0374411Y0109850D02*
X0374411Y0114754D01*
X0377680Y0109850D01*
X0377680Y0114754D01*
X0377642Y0119850D02*
X0374373Y0119850D01*
X0376007Y0119850D02*
X0376007Y0124754D01*
X0374373Y0123119D01*
X0372486Y0123937D02*
X0371668Y0124754D01*
X0369216Y0124754D01*
X0369216Y0119850D01*
X0371668Y0119850D01*
X0372486Y0120667D01*
X0372486Y0123937D01*
X0371668Y0129850D02*
X0372486Y0130667D01*
X0372486Y0133937D01*
X0371668Y0134754D01*
X0369216Y0134754D01*
X0369216Y0129850D01*
X0371668Y0129850D01*
X0374373Y0130667D02*
X0375190Y0129850D01*
X0376825Y0129850D01*
X0377642Y0130667D01*
X0377642Y0131485D01*
X0376825Y0132302D01*
X0376007Y0132302D01*
X0376825Y0132302D02*
X0377642Y0133119D01*
X0377642Y0133937D01*
X0376825Y0134754D01*
X0375190Y0134754D01*
X0374373Y0133937D01*
X0375190Y0139850D02*
X0374373Y0140667D01*
X0375190Y0139850D02*
X0376825Y0139850D01*
X0377642Y0140667D01*
X0377642Y0142302D01*
X0376825Y0143119D01*
X0376007Y0143119D01*
X0374373Y0142302D01*
X0374373Y0144754D01*
X0377642Y0144754D01*
X0374373Y0149850D02*
X0374373Y0150667D01*
X0377642Y0153937D01*
X0377642Y0154754D01*
X0374373Y0154754D01*
X0372486Y0153937D02*
X0371668Y0154754D01*
X0369216Y0154754D01*
X0369216Y0149850D01*
X0371668Y0149850D01*
X0372486Y0150667D01*
X0372486Y0153937D01*
X0375190Y0159850D02*
X0376825Y0159850D01*
X0377642Y0160667D01*
X0377642Y0161485D01*
X0376825Y0162302D01*
X0374373Y0162302D01*
X0374373Y0160667D01*
X0375190Y0159850D01*
X0374373Y0162302D02*
X0376007Y0163937D01*
X0377642Y0164754D01*
X0376825Y0169850D02*
X0376825Y0174754D01*
X0374373Y0172302D01*
X0377642Y0172302D01*
X0372486Y0172302D02*
X0371668Y0171485D01*
X0369216Y0171485D01*
X0369216Y0169850D02*
X0369216Y0174754D01*
X0371668Y0174754D01*
X0372486Y0173937D01*
X0372486Y0172302D01*
X0371668Y0164754D02*
X0372486Y0163937D01*
X0372486Y0162302D01*
X0371668Y0161485D01*
X0369216Y0161485D01*
X0369216Y0159850D02*
X0369216Y0164754D01*
X0371668Y0164754D01*
X0369216Y0179850D02*
X0369216Y0184754D01*
X0371668Y0184754D01*
X0372486Y0183937D01*
X0372486Y0182302D01*
X0371668Y0181485D01*
X0369216Y0181485D01*
X0374373Y0179850D02*
X0377642Y0183119D01*
X0377642Y0183937D01*
X0376825Y0184754D01*
X0375190Y0184754D01*
X0374373Y0183937D01*
X0374373Y0179850D02*
X0377642Y0179850D01*
X0376825Y0189850D02*
X0375190Y0189850D01*
X0374373Y0190667D01*
X0377642Y0193937D01*
X0377642Y0190667D01*
X0376825Y0189850D01*
X0374373Y0190667D02*
X0374373Y0193937D01*
X0375190Y0194754D01*
X0376825Y0194754D01*
X0377642Y0193937D01*
X0372486Y0193937D02*
X0372486Y0192302D01*
X0371668Y0191485D01*
X0369216Y0191485D01*
X0369216Y0189850D02*
X0369216Y0194754D01*
X0371668Y0194754D01*
X0372486Y0193937D01*
X0371668Y0199693D02*
X0370034Y0199693D01*
X0369216Y0200510D01*
X0369216Y0202145D02*
X0370851Y0202962D01*
X0371668Y0202962D01*
X0372486Y0202145D01*
X0372486Y0200510D01*
X0371668Y0199693D01*
X0374373Y0201327D02*
X0374373Y0204597D01*
X0372486Y0204597D02*
X0369216Y0204597D01*
X0369216Y0202145D01*
X0374373Y0201327D02*
X0376007Y0199693D01*
X0377642Y0201327D01*
X0377642Y0204597D01*
X0356016Y0193562D02*
X0356016Y0190293D01*
X0351112Y0190293D01*
X0351929Y0188406D02*
X0351112Y0187588D01*
X0351112Y0185954D01*
X0351929Y0185136D01*
X0355199Y0185136D01*
X0356016Y0185954D01*
X0356016Y0187588D01*
X0355199Y0188406D01*
X0355199Y0183249D02*
X0356016Y0182432D01*
X0356016Y0180797D01*
X0355199Y0179980D01*
X0353564Y0180797D02*
X0352747Y0179980D01*
X0351929Y0179980D01*
X0351112Y0180797D01*
X0351112Y0182432D01*
X0351929Y0183249D01*
X0353564Y0182432D02*
X0354381Y0183249D01*
X0355199Y0183249D01*
X0353564Y0182432D02*
X0353564Y0180797D01*
X0346410Y0180404D02*
X0345592Y0179586D01*
X0346410Y0180404D02*
X0346410Y0182038D01*
X0345592Y0182856D01*
X0344775Y0182856D01*
X0343958Y0182038D01*
X0343958Y0180404D01*
X0343140Y0179586D01*
X0342323Y0179586D01*
X0341506Y0180404D01*
X0341506Y0182038D01*
X0342323Y0182856D01*
X0341506Y0184743D02*
X0341506Y0187195D01*
X0342323Y0188012D01*
X0345592Y0188012D01*
X0346410Y0187195D01*
X0346410Y0184743D01*
X0341506Y0184743D01*
X0343140Y0189899D02*
X0341506Y0191534D01*
X0343140Y0193168D01*
X0346410Y0193168D01*
X0343958Y0193168D02*
X0343958Y0189899D01*
X0343140Y0189899D02*
X0346410Y0189899D01*
X0337276Y0180964D02*
X0337276Y0177694D01*
X0337276Y0179329D02*
X0332372Y0179329D01*
X0334007Y0177694D01*
X0332372Y0175807D02*
X0337276Y0172538D01*
X0337276Y0170651D02*
X0335641Y0169016D01*
X0335641Y0169834D02*
X0335641Y0167381D01*
X0337276Y0167381D02*
X0332372Y0167381D01*
X0332372Y0169834D01*
X0333189Y0170651D01*
X0334824Y0170651D01*
X0335641Y0169834D01*
X0332372Y0172538D02*
X0337276Y0175807D01*
X0326882Y0175414D02*
X0321978Y0172144D01*
X0321978Y0170257D02*
X0321978Y0166988D01*
X0321978Y0168623D02*
X0326882Y0168623D01*
X0326882Y0172144D02*
X0321978Y0175414D01*
X0323613Y0177301D02*
X0321978Y0178935D01*
X0326882Y0178935D01*
X0326882Y0177301D02*
X0326882Y0180570D01*
X0316016Y0180480D02*
X0315199Y0179663D01*
X0316016Y0180480D02*
X0316016Y0182115D01*
X0315199Y0182932D01*
X0314381Y0182932D01*
X0313564Y0182115D01*
X0313564Y0180480D01*
X0312747Y0179663D01*
X0311929Y0179663D01*
X0311112Y0180480D01*
X0311112Y0182115D01*
X0311929Y0182932D01*
X0311112Y0184819D02*
X0316016Y0184819D01*
X0316016Y0188089D01*
X0313564Y0186454D02*
X0313564Y0184819D01*
X0311112Y0184819D02*
X0311112Y0188089D01*
X0311112Y0189976D02*
X0311112Y0193245D01*
X0311112Y0191610D02*
X0316016Y0191610D01*
X0306567Y0191589D02*
X0301663Y0191589D01*
X0304115Y0192406D02*
X0306567Y0194858D01*
X0304933Y0191589D02*
X0301663Y0194858D01*
X0296016Y0193177D02*
X0296016Y0190725D01*
X0291112Y0190725D01*
X0291112Y0193177D01*
X0291929Y0193994D01*
X0295199Y0193994D01*
X0296016Y0193177D01*
X0296016Y0188838D02*
X0294381Y0187203D01*
X0294381Y0188020D02*
X0294381Y0185568D01*
X0296016Y0185568D02*
X0291112Y0185568D01*
X0291112Y0188020D01*
X0291929Y0188838D01*
X0293564Y0188838D01*
X0294381Y0188020D01*
X0293564Y0183681D02*
X0293564Y0180412D01*
X0292747Y0180412D02*
X0291112Y0182047D01*
X0292747Y0183681D01*
X0296016Y0183681D01*
X0296016Y0180412D02*
X0292747Y0180412D01*
X0293564Y0178525D02*
X0294381Y0177708D01*
X0294381Y0175256D01*
X0296016Y0175256D02*
X0291112Y0175256D01*
X0291112Y0177708D01*
X0291929Y0178525D01*
X0293564Y0178525D01*
X0286016Y0180412D02*
X0282747Y0180412D01*
X0281112Y0182047D01*
X0282747Y0183681D01*
X0286016Y0183681D01*
X0286016Y0185568D02*
X0281112Y0185568D01*
X0283564Y0183681D02*
X0283564Y0180412D01*
X0283564Y0178525D02*
X0284381Y0177708D01*
X0284381Y0175256D01*
X0286016Y0175256D02*
X0281112Y0175256D01*
X0281112Y0177708D01*
X0281929Y0178525D01*
X0283564Y0178525D01*
X0286016Y0185568D02*
X0284381Y0187203D01*
X0286016Y0188838D01*
X0281112Y0188838D01*
X0281112Y0190725D02*
X0281112Y0193177D01*
X0281929Y0193994D01*
X0283564Y0193994D01*
X0284381Y0193177D01*
X0284381Y0190725D01*
X0284381Y0192359D02*
X0286016Y0193994D01*
X0286016Y0190725D02*
X0281112Y0190725D01*
X0266016Y0189587D02*
X0261112Y0186317D01*
X0261929Y0184430D02*
X0263564Y0184430D01*
X0264381Y0183613D01*
X0264381Y0181161D01*
X0264381Y0182796D02*
X0266016Y0184430D01*
X0266016Y0186317D02*
X0261112Y0189587D01*
X0261929Y0191474D02*
X0261112Y0192291D01*
X0261112Y0193926D01*
X0261929Y0194743D01*
X0265199Y0191474D01*
X0266016Y0192291D01*
X0266016Y0193926D01*
X0265199Y0194743D01*
X0261929Y0194743D01*
X0261929Y0191474D02*
X0265199Y0191474D01*
X0261929Y0184430D02*
X0261112Y0183613D01*
X0261112Y0181161D01*
X0266016Y0181161D01*
X0256410Y0182402D02*
X0251506Y0182402D01*
X0251506Y0180767D02*
X0251506Y0184037D01*
X0251506Y0185924D02*
X0256410Y0189193D01*
X0255592Y0191080D02*
X0252323Y0194350D01*
X0255592Y0194350D01*
X0256410Y0193532D01*
X0256410Y0191897D01*
X0255592Y0191080D01*
X0252323Y0191080D01*
X0251506Y0191897D01*
X0251506Y0193532D01*
X0252323Y0194350D01*
X0251506Y0189193D02*
X0256410Y0185924D01*
X0246410Y0185951D02*
X0241506Y0185951D01*
X0241506Y0188403D01*
X0242323Y0189221D01*
X0243958Y0189221D01*
X0244775Y0188403D01*
X0244775Y0185951D01*
X0244775Y0187586D02*
X0246410Y0189221D01*
X0246410Y0191108D02*
X0241506Y0191108D01*
X0243140Y0192742D01*
X0241506Y0194377D01*
X0246410Y0194377D01*
X0246410Y0184064D02*
X0241506Y0184064D01*
X0241506Y0180795D02*
X0246410Y0180795D01*
X0244775Y0182430D01*
X0246410Y0184064D01*
X0236607Y0184064D02*
X0234972Y0182430D01*
X0234972Y0183247D02*
X0234972Y0180795D01*
X0236607Y0180795D02*
X0231703Y0180795D01*
X0231703Y0183247D01*
X0232520Y0184064D01*
X0234155Y0184064D01*
X0234972Y0183247D01*
X0234155Y0185951D02*
X0234155Y0187586D01*
X0236607Y0185951D02*
X0236607Y0189221D01*
X0236607Y0191108D02*
X0231703Y0191108D01*
X0231703Y0194377D01*
X0234155Y0192742D02*
X0234155Y0191108D01*
X0231703Y0189221D02*
X0231703Y0185951D01*
X0236607Y0185951D01*
X0226804Y0185951D02*
X0221899Y0189221D01*
X0221899Y0191108D02*
X0221899Y0193560D01*
X0222717Y0194377D01*
X0224351Y0194377D01*
X0225169Y0193560D01*
X0225169Y0191108D01*
X0226804Y0191108D02*
X0221899Y0191108D01*
X0221899Y0185951D02*
X0226804Y0189221D01*
X0226804Y0184064D02*
X0226804Y0180795D01*
X0221899Y0180795D01*
X0221899Y0184064D01*
X0224351Y0182430D02*
X0224351Y0180795D01*
X0216174Y0181219D02*
X0215356Y0180401D01*
X0212087Y0180401D01*
X0211269Y0181219D01*
X0211269Y0182853D01*
X0212087Y0183671D01*
X0211269Y0185558D02*
X0216174Y0185558D01*
X0216174Y0188827D01*
X0216174Y0190714D02*
X0211269Y0190714D01*
X0213722Y0191531D02*
X0216174Y0193983D01*
X0214539Y0190714D02*
X0211269Y0193983D01*
X0205622Y0192340D02*
X0205622Y0190706D01*
X0204805Y0189888D01*
X0203170Y0190706D02*
X0203170Y0192340D01*
X0203988Y0193158D01*
X0204805Y0193158D01*
X0205622Y0192340D01*
X0203170Y0190706D02*
X0202353Y0189888D01*
X0201536Y0189888D01*
X0200718Y0190706D01*
X0200718Y0192340D01*
X0201536Y0193158D01*
X0201536Y0188001D02*
X0200718Y0187184D01*
X0200718Y0185549D01*
X0201536Y0184732D01*
X0204805Y0184732D01*
X0205622Y0185549D01*
X0205622Y0187184D01*
X0204805Y0188001D01*
X0215356Y0183671D02*
X0216174Y0182853D01*
X0216174Y0181219D01*
X0196016Y0181976D02*
X0196016Y0183611D01*
X0196016Y0182793D02*
X0191112Y0182793D01*
X0191112Y0181976D02*
X0191112Y0183611D01*
X0191112Y0185414D02*
X0191112Y0187866D01*
X0191929Y0188683D01*
X0193564Y0188683D01*
X0194381Y0187866D01*
X0194381Y0185414D01*
X0194381Y0187048D02*
X0196016Y0188683D01*
X0195199Y0190570D02*
X0196016Y0191387D01*
X0196016Y0193022D01*
X0195199Y0193839D01*
X0191929Y0193839D01*
X0191112Y0193022D01*
X0191112Y0191387D01*
X0191929Y0190570D01*
X0195199Y0190570D01*
X0194381Y0192205D02*
X0196016Y0193839D01*
X0196016Y0185414D02*
X0191112Y0185414D01*
X0180622Y0185519D02*
X0178988Y0187154D01*
X0180622Y0188789D01*
X0175718Y0188789D01*
X0175718Y0190676D02*
X0175718Y0193128D01*
X0176536Y0193945D01*
X0178170Y0193945D01*
X0178988Y0193128D01*
X0178988Y0190676D01*
X0178988Y0192310D02*
X0180622Y0193945D01*
X0180622Y0190676D02*
X0175718Y0190676D01*
X0175718Y0185519D02*
X0180622Y0185519D01*
X0170229Y0185322D02*
X0165325Y0185322D01*
X0165325Y0187775D01*
X0166142Y0188592D01*
X0167777Y0188592D01*
X0168594Y0187775D01*
X0168594Y0185322D01*
X0168594Y0186957D02*
X0170229Y0188592D01*
X0170229Y0190479D02*
X0170229Y0192931D01*
X0169411Y0193748D01*
X0166142Y0193748D01*
X0165325Y0192931D01*
X0165325Y0190479D01*
X0170229Y0190479D01*
X0130496Y0190923D02*
X0130496Y0193376D01*
X0129679Y0194193D01*
X0126410Y0194193D01*
X0125592Y0193376D01*
X0125592Y0190923D01*
X0130496Y0190923D01*
X0130496Y0189036D02*
X0130496Y0185767D01*
X0125592Y0185767D01*
X0125592Y0189036D01*
X0128044Y0187402D02*
X0128044Y0185767D01*
X0130496Y0183880D02*
X0130496Y0180611D01*
X0125592Y0180611D01*
X0121441Y0182215D02*
X0121441Y0183850D01*
X0120624Y0184667D01*
X0118989Y0184667D01*
X0118989Y0183033D01*
X0117355Y0184667D02*
X0116537Y0183850D01*
X0116537Y0182215D01*
X0117355Y0181398D01*
X0120624Y0181398D01*
X0121441Y0182215D01*
X0121441Y0186554D02*
X0116537Y0186554D01*
X0121441Y0189824D01*
X0116537Y0189824D01*
X0116537Y0191711D02*
X0116537Y0194163D01*
X0117355Y0194980D01*
X0120624Y0194980D01*
X0121441Y0194163D01*
X0121441Y0191711D01*
X0116537Y0191711D01*
X0110899Y0191767D02*
X0105995Y0191767D01*
X0105995Y0195037D01*
X0108447Y0193402D02*
X0108447Y0191767D01*
X0110899Y0189880D02*
X0110899Y0186611D01*
X0105995Y0186611D01*
X0105995Y0189880D01*
X0108447Y0188246D02*
X0108447Y0186611D01*
X0108447Y0184724D02*
X0109264Y0183907D01*
X0109264Y0181454D01*
X0110899Y0181454D02*
X0105995Y0181454D01*
X0105995Y0183907D01*
X0106812Y0184724D01*
X0108447Y0184724D01*
X0109264Y0183089D02*
X0110899Y0184724D01*
X0110899Y0179567D02*
X0107629Y0179567D01*
X0105995Y0177933D01*
X0107629Y0176298D01*
X0110899Y0176298D01*
X0108447Y0176298D02*
X0108447Y0179567D01*
X0080360Y0186911D02*
X0079543Y0186093D01*
X0080360Y0186911D02*
X0080360Y0188545D01*
X0079543Y0189363D01*
X0077908Y0189363D01*
X0077091Y0188545D01*
X0077091Y0187728D01*
X0077908Y0186093D01*
X0075456Y0186093D01*
X0075456Y0189363D01*
X0075456Y0191250D02*
X0078726Y0191250D01*
X0080360Y0192884D01*
X0078726Y0194519D01*
X0075456Y0194519D01*
X0070063Y0193769D02*
X0070063Y0191317D01*
X0065159Y0191317D01*
X0065159Y0193769D01*
X0065977Y0194587D01*
X0069246Y0194587D01*
X0070063Y0193769D01*
X0070063Y0189430D02*
X0065159Y0189430D01*
X0065159Y0186161D02*
X0070063Y0189430D01*
X0070063Y0186161D02*
X0065159Y0186161D01*
X0065977Y0184274D02*
X0065159Y0183456D01*
X0065159Y0181822D01*
X0065977Y0181004D01*
X0069246Y0181004D01*
X0070063Y0181822D01*
X0070063Y0183456D01*
X0069246Y0184274D01*
X0067611Y0184274D01*
X0067611Y0182639D01*
X0227706Y0155864D02*
X0230976Y0155864D01*
X0232863Y0156682D02*
X0234498Y0158316D01*
X0234498Y0153412D01*
X0236132Y0153412D02*
X0232863Y0153412D01*
X0233680Y0151623D02*
X0232863Y0150806D01*
X0232863Y0147537D01*
X0236132Y0150806D01*
X0236132Y0147537D01*
X0235315Y0146719D01*
X0233680Y0146719D01*
X0232863Y0147537D01*
X0230976Y0149171D02*
X0227706Y0149171D01*
X0230159Y0151623D01*
X0230159Y0146719D01*
X0233680Y0151623D02*
X0235315Y0151623D01*
X0236132Y0150806D01*
X0230159Y0153412D02*
X0230159Y0158316D01*
X0227706Y0155864D01*
X0301663Y0166624D02*
X0302480Y0165807D01*
X0305750Y0165807D01*
X0306567Y0166624D01*
X0306567Y0168259D01*
X0305750Y0169076D01*
X0306567Y0170963D02*
X0301663Y0170963D01*
X0301663Y0173415D01*
X0302480Y0174233D01*
X0304115Y0174233D01*
X0304933Y0173415D01*
X0304933Y0170963D01*
X0302480Y0169076D02*
X0301663Y0168259D01*
X0301663Y0166624D01*
X0301663Y0176119D02*
X0305750Y0176119D01*
X0306567Y0176937D01*
X0306567Y0178572D01*
X0305750Y0179389D01*
X0301663Y0179389D01*
X0302480Y0181276D02*
X0305750Y0181276D01*
X0306567Y0182093D01*
X0306567Y0183728D01*
X0305750Y0184545D01*
X0306567Y0186432D02*
X0306567Y0189702D01*
X0306567Y0186432D02*
X0301663Y0186432D01*
X0302480Y0184545D02*
X0301663Y0183728D01*
X0301663Y0182093D01*
X0302480Y0181276D01*
X0311112Y0177776D02*
X0311112Y0174506D01*
X0316016Y0174506D01*
X0316016Y0177776D01*
X0313564Y0176141D02*
X0313564Y0174506D01*
X0313564Y0172619D02*
X0314381Y0171802D01*
X0314381Y0169350D01*
X0314381Y0170985D02*
X0316016Y0172619D01*
X0313564Y0172619D02*
X0311929Y0172619D01*
X0311112Y0171802D01*
X0311112Y0169350D01*
X0316016Y0169350D01*
X0369216Y0144754D02*
X0369216Y0139850D01*
X0371668Y0139850D01*
X0372486Y0140667D01*
X0372486Y0143937D01*
X0371668Y0144754D01*
X0369216Y0144754D01*
X0369254Y0114754D02*
X0372524Y0114754D01*
X0370889Y0114754D02*
X0370889Y0109850D01*
X0367367Y0110667D02*
X0366550Y0109850D01*
X0364098Y0109850D01*
X0364098Y0114754D01*
X0366550Y0114754D01*
X0367367Y0113937D01*
X0367367Y0113119D01*
X0366550Y0112302D01*
X0364098Y0112302D01*
X0366550Y0112302D02*
X0367367Y0111485D01*
X0367367Y0110667D01*
D13*
X0378866Y0109500D02*
X0378866Y0114500D01*
X0381366Y0117000D01*
X0396366Y0117000D01*
X0398866Y0114500D01*
X0398866Y0109500D01*
X0396366Y0107000D01*
X0381366Y0107000D01*
X0378866Y0109500D01*
X0381366Y0107000D02*
X0378866Y0104500D01*
X0378866Y0099500D01*
X0381366Y0097000D01*
X0396366Y0097000D01*
X0398866Y0094500D01*
X0398866Y0089500D01*
X0396366Y0087000D01*
X0381366Y0087000D01*
X0378866Y0089500D01*
X0378866Y0094500D01*
X0381366Y0097000D01*
X0381366Y0087000D02*
X0378866Y0084500D01*
X0378866Y0079500D01*
X0381366Y0077000D01*
X0396366Y0077000D01*
X0398866Y0074500D01*
X0398866Y0069500D01*
X0396366Y0067000D01*
X0381366Y0067000D01*
X0378866Y0069500D01*
X0378866Y0074500D01*
X0381366Y0077000D01*
X0381366Y0067000D02*
X0378866Y0064500D01*
X0378866Y0059500D01*
X0381366Y0057000D01*
X0396366Y0057000D01*
X0398866Y0054500D01*
X0398866Y0049500D01*
X0396366Y0047000D01*
X0381366Y0047000D01*
X0378866Y0049500D01*
X0378866Y0054500D01*
X0381366Y0057000D01*
X0381366Y0047000D02*
X0378866Y0044500D01*
X0378866Y0039500D01*
X0381366Y0037000D01*
X0396366Y0037000D01*
X0398866Y0034500D01*
X0398866Y0029500D01*
X0396366Y0027000D01*
X0381366Y0027000D01*
X0378866Y0029500D01*
X0378866Y0034500D01*
X0381366Y0037000D01*
X0369614Y0039382D02*
X0367114Y0036882D01*
X0362114Y0036882D01*
X0359614Y0039382D01*
X0359614Y0054382D01*
X0357114Y0056882D01*
X0352114Y0056882D01*
X0349614Y0054382D01*
X0349614Y0039382D01*
X0347114Y0036882D01*
X0342114Y0036882D01*
X0339614Y0039382D01*
X0339614Y0054382D01*
X0337114Y0056882D01*
X0332114Y0056882D01*
X0329614Y0054382D01*
X0329614Y0039382D01*
X0327114Y0036882D01*
X0322114Y0036882D01*
X0319614Y0039382D01*
X0319614Y0054382D01*
X0317114Y0056882D01*
X0312114Y0056882D01*
X0309614Y0054382D01*
X0309614Y0039382D01*
X0307114Y0036882D01*
X0302114Y0036882D01*
X0299614Y0039382D01*
X0297114Y0036882D01*
X0292114Y0036882D01*
X0289614Y0039382D01*
X0289614Y0054382D01*
X0292114Y0056882D01*
X0297114Y0056882D01*
X0299614Y0054382D01*
X0299614Y0039382D01*
X0309614Y0039382D02*
X0312114Y0036882D01*
X0317114Y0036882D01*
X0319614Y0039382D01*
X0322396Y0032087D02*
X0325732Y0028751D01*
X0326566Y0029585D01*
X0326566Y0031253D01*
X0325732Y0032087D01*
X0322396Y0032087D01*
X0321562Y0031253D01*
X0321562Y0029585D01*
X0322396Y0028751D01*
X0325732Y0028751D01*
X0326566Y0026930D02*
X0326566Y0023594D01*
X0326566Y0025262D02*
X0321562Y0025262D01*
X0323230Y0023594D01*
X0323230Y0021774D02*
X0326566Y0021774D01*
X0324064Y0021774D02*
X0324064Y0018438D01*
X0323230Y0018438D02*
X0326566Y0018438D01*
X0326366Y0017000D02*
X0328866Y0014500D01*
X0331366Y0017000D01*
X0336366Y0017000D01*
X0338866Y0014500D01*
X0341366Y0017000D01*
X0346366Y0017000D01*
X0348866Y0014500D01*
X0348866Y0009500D01*
X0346366Y0007000D01*
X0341366Y0007000D01*
X0338866Y0009500D01*
X0336366Y0007000D01*
X0331366Y0007000D01*
X0328866Y0009500D01*
X0326366Y0007000D01*
X0321366Y0007000D01*
X0318866Y0009500D01*
X0316366Y0007000D01*
X0311366Y0007000D01*
X0308866Y0009500D01*
X0306366Y0007000D01*
X0301366Y0007000D01*
X0298866Y0009500D01*
X0298866Y0014500D01*
X0301366Y0017000D01*
X0306366Y0017000D01*
X0308866Y0014500D01*
X0311366Y0017000D01*
X0316366Y0017000D01*
X0318866Y0014500D01*
X0318866Y0009500D01*
X0318866Y0014500D02*
X0321366Y0017000D01*
X0326366Y0017000D01*
X0323230Y0018438D02*
X0321562Y0020106D01*
X0323230Y0021774D01*
X0328866Y0014500D02*
X0328866Y0009500D01*
X0338866Y0009500D02*
X0338866Y0014500D01*
X0348866Y0014500D02*
X0351366Y0017000D01*
X0356366Y0017000D01*
X0358866Y0014500D01*
X0361366Y0017000D01*
X0366366Y0017000D01*
X0368866Y0014500D01*
X0371366Y0017000D01*
X0376366Y0017000D01*
X0378866Y0014500D01*
X0378866Y0009500D01*
X0376366Y0007000D01*
X0371366Y0007000D01*
X0368866Y0009500D01*
X0366366Y0007000D01*
X0361366Y0007000D01*
X0358866Y0009500D01*
X0356366Y0007000D01*
X0351366Y0007000D01*
X0348866Y0009500D01*
X0358866Y0009500D02*
X0358866Y0014500D01*
X0368866Y0014500D02*
X0368866Y0009500D01*
X0357114Y0036882D02*
X0352114Y0036882D01*
X0349614Y0039382D01*
X0357114Y0036882D02*
X0359614Y0039382D01*
X0369614Y0039382D02*
X0369614Y0054382D01*
X0367114Y0056882D01*
X0362114Y0056882D01*
X0359614Y0054382D01*
X0349614Y0054382D02*
X0347114Y0056882D01*
X0342114Y0056882D01*
X0339614Y0054382D01*
X0336221Y0061055D02*
X0332885Y0061055D01*
X0332051Y0061889D01*
X0332051Y0063557D01*
X0332885Y0064391D01*
X0332885Y0066212D02*
X0333719Y0066212D01*
X0334553Y0067046D01*
X0334553Y0068714D01*
X0335387Y0069548D01*
X0336221Y0069548D01*
X0337055Y0068714D01*
X0337055Y0067046D01*
X0336221Y0066212D01*
X0336221Y0064391D02*
X0337055Y0063557D01*
X0337055Y0061889D01*
X0336221Y0061055D01*
X0332885Y0066212D02*
X0332051Y0067046D01*
X0332051Y0068714D01*
X0332885Y0069548D01*
X0327213Y0068714D02*
X0327213Y0067046D01*
X0326379Y0066212D01*
X0323042Y0066212D01*
X0322208Y0067046D01*
X0322208Y0068714D01*
X0323042Y0069548D01*
X0326379Y0069548D01*
X0327213Y0068714D01*
X0326379Y0071368D02*
X0327213Y0072202D01*
X0327213Y0073870D01*
X0326379Y0074704D01*
X0325545Y0074704D01*
X0324710Y0073870D01*
X0324710Y0072202D01*
X0323876Y0071368D01*
X0323042Y0071368D01*
X0322208Y0072202D01*
X0322208Y0073870D01*
X0323042Y0074704D01*
X0322208Y0076524D02*
X0322208Y0078192D01*
X0322208Y0077358D02*
X0327213Y0077358D01*
X0327213Y0076524D02*
X0327213Y0078192D01*
X0316780Y0074704D02*
X0314277Y0072202D01*
X0315111Y0071368D02*
X0311775Y0074704D01*
X0311775Y0071368D02*
X0316780Y0071368D01*
X0315945Y0069548D02*
X0316780Y0068714D01*
X0316780Y0067046D01*
X0315945Y0066212D01*
X0312609Y0066212D01*
X0311775Y0067046D01*
X0311775Y0068714D01*
X0312609Y0069548D01*
X0312609Y0064391D02*
X0311775Y0063557D01*
X0311775Y0061889D01*
X0312609Y0061055D01*
X0313443Y0061055D01*
X0314277Y0061889D01*
X0314277Y0063557D01*
X0315111Y0064391D01*
X0315945Y0064391D01*
X0316780Y0063557D01*
X0316780Y0061889D01*
X0315945Y0061055D01*
X0322208Y0061055D02*
X0323876Y0062723D01*
X0322208Y0064391D01*
X0327213Y0064391D01*
X0327213Y0061055D02*
X0322208Y0061055D01*
X0322114Y0056882D02*
X0327114Y0056882D01*
X0329614Y0054382D01*
X0322114Y0056882D02*
X0319614Y0054382D01*
X0309614Y0054382D02*
X0307114Y0056882D01*
X0302114Y0056882D01*
X0299614Y0054382D01*
X0301736Y0061055D02*
X0303404Y0062723D01*
X0301736Y0064391D01*
X0306740Y0064391D01*
X0306740Y0066212D02*
X0306740Y0067880D01*
X0306740Y0067046D02*
X0301736Y0067046D01*
X0301736Y0066212D02*
X0301736Y0067880D01*
X0302570Y0069649D02*
X0303404Y0069649D01*
X0304238Y0070483D01*
X0304238Y0072151D01*
X0305072Y0072985D01*
X0305906Y0072985D01*
X0306740Y0072151D01*
X0306740Y0070483D01*
X0305906Y0069649D01*
X0302570Y0069649D02*
X0301736Y0070483D01*
X0301736Y0072151D01*
X0302570Y0072985D01*
X0302570Y0074806D02*
X0305906Y0074806D01*
X0306740Y0075640D01*
X0306740Y0077308D01*
X0305906Y0078142D01*
X0302570Y0078142D01*
X0301736Y0077308D01*
X0301736Y0075640D01*
X0302570Y0074806D01*
X0298472Y0074067D02*
X0297638Y0074901D01*
X0294302Y0074901D01*
X0293468Y0074067D01*
X0293468Y0071565D01*
X0298472Y0071565D01*
X0298472Y0074067D01*
X0298472Y0069745D02*
X0293468Y0069745D01*
X0293468Y0066408D02*
X0298472Y0069745D01*
X0298472Y0066408D02*
X0293468Y0066408D01*
X0294302Y0064588D02*
X0293468Y0063754D01*
X0293468Y0062086D01*
X0294302Y0061252D01*
X0297638Y0061252D01*
X0298472Y0062086D01*
X0298472Y0063754D01*
X0297638Y0064588D01*
X0295970Y0064588D01*
X0295970Y0062920D01*
X0301736Y0061055D02*
X0306740Y0061055D01*
X0329614Y0039382D02*
X0332114Y0036882D01*
X0337114Y0036882D01*
X0339614Y0039382D01*
X0308866Y0014500D02*
X0308866Y0009500D01*
X0288866Y0009500D02*
X0286366Y0007000D01*
X0281366Y0007000D01*
X0278866Y0009500D01*
X0276366Y0007000D01*
X0271366Y0007000D01*
X0268866Y0009500D01*
X0266366Y0007000D01*
X0261366Y0007000D01*
X0258866Y0009500D01*
X0256366Y0007000D01*
X0251366Y0007000D01*
X0248866Y0009500D01*
X0246366Y0007000D01*
X0241366Y0007000D01*
X0238866Y0009500D01*
X0236366Y0007000D01*
X0231366Y0007000D01*
X0228866Y0009500D01*
X0226366Y0007000D01*
X0221366Y0007000D01*
X0218866Y0009500D01*
X0216366Y0007000D01*
X0211366Y0007000D01*
X0208866Y0009500D01*
X0208866Y0014500D01*
X0211366Y0017000D01*
X0216366Y0017000D01*
X0218866Y0014500D01*
X0221366Y0017000D01*
X0226366Y0017000D01*
X0228866Y0014500D01*
X0228866Y0009500D01*
X0228866Y0014500D02*
X0231366Y0017000D01*
X0236366Y0017000D01*
X0238866Y0014500D01*
X0241366Y0017000D01*
X0246366Y0017000D01*
X0248866Y0014500D01*
X0251366Y0017000D01*
X0256366Y0017000D01*
X0258866Y0014500D01*
X0258866Y0009500D01*
X0258866Y0014500D02*
X0261366Y0017000D01*
X0266366Y0017000D01*
X0268866Y0014500D01*
X0271366Y0017000D01*
X0276366Y0017000D01*
X0278866Y0014500D01*
X0281366Y0017000D01*
X0286366Y0017000D01*
X0288866Y0014500D01*
X0288866Y0009500D01*
X0278866Y0009500D02*
X0278866Y0014500D01*
X0268866Y0014500D02*
X0268866Y0009500D01*
X0248866Y0009500D02*
X0248866Y0014500D01*
X0238866Y0014500D02*
X0238866Y0009500D01*
X0218866Y0009500D02*
X0218866Y0014500D01*
X0198866Y0014500D02*
X0198866Y0009500D01*
X0196366Y0007000D01*
X0191366Y0007000D01*
X0188866Y0009500D01*
X0186366Y0007000D01*
X0181366Y0007000D01*
X0178866Y0009500D01*
X0176366Y0007000D01*
X0171366Y0007000D01*
X0168866Y0009500D01*
X0166366Y0007000D01*
X0161366Y0007000D01*
X0158866Y0009500D01*
X0156366Y0007000D01*
X0151366Y0007000D01*
X0148866Y0009500D01*
X0146366Y0007000D01*
X0141366Y0007000D01*
X0138866Y0009500D01*
X0136366Y0007000D01*
X0131366Y0007000D01*
X0128866Y0009500D01*
X0126366Y0007000D01*
X0121366Y0007000D01*
X0118866Y0009500D01*
X0118866Y0014500D01*
X0121366Y0017000D01*
X0126366Y0017000D01*
X0128866Y0014500D01*
X0131366Y0017000D01*
X0136366Y0017000D01*
X0138866Y0014500D01*
X0138866Y0009500D01*
X0138866Y0014500D02*
X0141366Y0017000D01*
X0146366Y0017000D01*
X0148866Y0014500D01*
X0151366Y0017000D01*
X0156366Y0017000D01*
X0158866Y0014500D01*
X0161366Y0017000D01*
X0166366Y0017000D01*
X0168866Y0014500D01*
X0168866Y0009500D01*
X0168866Y0014500D02*
X0171366Y0017000D01*
X0176366Y0017000D01*
X0178866Y0014500D01*
X0181366Y0017000D01*
X0186366Y0017000D01*
X0188866Y0014500D01*
X0191366Y0017000D01*
X0196366Y0017000D01*
X0198866Y0014500D01*
X0188866Y0014500D02*
X0188866Y0009500D01*
X0178866Y0009500D02*
X0178866Y0014500D01*
X0158866Y0014500D02*
X0158866Y0009500D01*
X0148866Y0009500D02*
X0148866Y0014500D01*
X0128866Y0014500D02*
X0128866Y0009500D01*
X0085827Y0058299D02*
X0086661Y0059133D01*
X0086661Y0060801D01*
X0085827Y0061635D01*
X0084993Y0061635D01*
X0084159Y0060801D01*
X0084159Y0059133D01*
X0083325Y0058299D01*
X0082491Y0058299D01*
X0081657Y0059133D01*
X0081657Y0060801D01*
X0082491Y0061635D01*
X0081657Y0063456D02*
X0081657Y0065958D01*
X0082491Y0066792D01*
X0085827Y0066792D01*
X0086661Y0065958D01*
X0086661Y0063456D01*
X0081657Y0063456D01*
X0076425Y0064290D02*
X0076425Y0065958D01*
X0075591Y0066792D01*
X0076425Y0068612D02*
X0071421Y0068612D01*
X0072255Y0066792D02*
X0071421Y0065958D01*
X0071421Y0064290D01*
X0072255Y0063456D01*
X0075591Y0063456D01*
X0076425Y0064290D01*
X0075591Y0061635D02*
X0076425Y0060801D01*
X0076425Y0059133D01*
X0075591Y0058299D01*
X0073923Y0059133D02*
X0073923Y0060801D01*
X0074757Y0061635D01*
X0075591Y0061635D01*
X0073923Y0059133D02*
X0073089Y0058299D01*
X0072255Y0058299D01*
X0071421Y0059133D01*
X0071421Y0060801D01*
X0072255Y0061635D01*
X0067866Y0060429D02*
X0067866Y0077429D01*
X0067864Y0077489D01*
X0067859Y0077550D01*
X0067850Y0077609D01*
X0067837Y0077668D01*
X0067821Y0077727D01*
X0067801Y0077784D01*
X0067778Y0077839D01*
X0067751Y0077894D01*
X0067722Y0077946D01*
X0067689Y0077997D01*
X0067653Y0078046D01*
X0067615Y0078092D01*
X0067573Y0078136D01*
X0067529Y0078178D01*
X0067483Y0078216D01*
X0067434Y0078252D01*
X0067383Y0078285D01*
X0067331Y0078314D01*
X0067276Y0078341D01*
X0067221Y0078364D01*
X0067164Y0078384D01*
X0067105Y0078400D01*
X0067046Y0078413D01*
X0066987Y0078422D01*
X0066926Y0078427D01*
X0066866Y0078429D01*
X0060866Y0078429D01*
X0060806Y0078427D01*
X0060745Y0078422D01*
X0060686Y0078413D01*
X0060627Y0078400D01*
X0060568Y0078384D01*
X0060511Y0078364D01*
X0060456Y0078341D01*
X0060401Y0078314D01*
X0060349Y0078285D01*
X0060298Y0078252D01*
X0060249Y0078216D01*
X0060203Y0078178D01*
X0060159Y0078136D01*
X0060117Y0078092D01*
X0060079Y0078046D01*
X0060043Y0077997D01*
X0060010Y0077946D01*
X0059981Y0077894D01*
X0059954Y0077839D01*
X0059931Y0077784D01*
X0059911Y0077727D01*
X0059895Y0077668D01*
X0059882Y0077609D01*
X0059873Y0077550D01*
X0059868Y0077489D01*
X0059866Y0077429D01*
X0059866Y0060429D01*
X0059868Y0060369D01*
X0059873Y0060308D01*
X0059882Y0060249D01*
X0059895Y0060190D01*
X0059911Y0060131D01*
X0059931Y0060074D01*
X0059954Y0060019D01*
X0059981Y0059964D01*
X0060010Y0059912D01*
X0060043Y0059861D01*
X0060079Y0059812D01*
X0060117Y0059766D01*
X0060159Y0059722D01*
X0060203Y0059680D01*
X0060249Y0059642D01*
X0060298Y0059606D01*
X0060349Y0059573D01*
X0060401Y0059544D01*
X0060456Y0059517D01*
X0060511Y0059494D01*
X0060568Y0059474D01*
X0060627Y0059458D01*
X0060686Y0059445D01*
X0060745Y0059436D01*
X0060806Y0059431D01*
X0060866Y0059429D01*
X0066866Y0059429D01*
X0066926Y0059431D01*
X0066987Y0059436D01*
X0067046Y0059445D01*
X0067105Y0059458D01*
X0067164Y0059474D01*
X0067221Y0059494D01*
X0067276Y0059517D01*
X0067331Y0059544D01*
X0067383Y0059573D01*
X0067434Y0059606D01*
X0067483Y0059642D01*
X0067529Y0059680D01*
X0067573Y0059722D01*
X0067615Y0059766D01*
X0067653Y0059812D01*
X0067689Y0059861D01*
X0067722Y0059912D01*
X0067751Y0059964D01*
X0067778Y0060019D01*
X0067801Y0060074D01*
X0067821Y0060131D01*
X0067837Y0060190D01*
X0067850Y0060249D01*
X0067859Y0060308D01*
X0067864Y0060369D01*
X0067866Y0060429D01*
X0057827Y0060429D02*
X0057827Y0077429D01*
X0057825Y0077489D01*
X0057820Y0077550D01*
X0057811Y0077609D01*
X0057798Y0077668D01*
X0057782Y0077727D01*
X0057762Y0077784D01*
X0057739Y0077839D01*
X0057712Y0077894D01*
X0057683Y0077946D01*
X0057650Y0077997D01*
X0057614Y0078046D01*
X0057576Y0078092D01*
X0057534Y0078136D01*
X0057490Y0078178D01*
X0057444Y0078216D01*
X0057395Y0078252D01*
X0057344Y0078285D01*
X0057292Y0078314D01*
X0057237Y0078341D01*
X0057182Y0078364D01*
X0057125Y0078384D01*
X0057066Y0078400D01*
X0057007Y0078413D01*
X0056948Y0078422D01*
X0056887Y0078427D01*
X0056827Y0078429D01*
X0050827Y0078429D01*
X0050767Y0078427D01*
X0050706Y0078422D01*
X0050647Y0078413D01*
X0050588Y0078400D01*
X0050529Y0078384D01*
X0050472Y0078364D01*
X0050417Y0078341D01*
X0050362Y0078314D01*
X0050310Y0078285D01*
X0050259Y0078252D01*
X0050210Y0078216D01*
X0050164Y0078178D01*
X0050120Y0078136D01*
X0050078Y0078092D01*
X0050040Y0078046D01*
X0050004Y0077997D01*
X0049971Y0077946D01*
X0049942Y0077894D01*
X0049915Y0077839D01*
X0049892Y0077784D01*
X0049872Y0077727D01*
X0049856Y0077668D01*
X0049843Y0077609D01*
X0049834Y0077550D01*
X0049829Y0077489D01*
X0049827Y0077429D01*
X0049827Y0060429D01*
X0049829Y0060369D01*
X0049834Y0060308D01*
X0049843Y0060249D01*
X0049856Y0060190D01*
X0049872Y0060131D01*
X0049892Y0060074D01*
X0049915Y0060019D01*
X0049942Y0059964D01*
X0049971Y0059912D01*
X0050004Y0059861D01*
X0050040Y0059812D01*
X0050078Y0059766D01*
X0050120Y0059722D01*
X0050164Y0059680D01*
X0050210Y0059642D01*
X0050259Y0059606D01*
X0050310Y0059573D01*
X0050362Y0059544D01*
X0050417Y0059517D01*
X0050472Y0059494D01*
X0050529Y0059474D01*
X0050588Y0059458D01*
X0050647Y0059445D01*
X0050706Y0059436D01*
X0050767Y0059431D01*
X0050827Y0059429D01*
X0056827Y0059429D01*
X0056887Y0059431D01*
X0056948Y0059436D01*
X0057007Y0059445D01*
X0057066Y0059458D01*
X0057125Y0059474D01*
X0057182Y0059494D01*
X0057237Y0059517D01*
X0057292Y0059544D01*
X0057344Y0059573D01*
X0057395Y0059606D01*
X0057444Y0059642D01*
X0057490Y0059680D01*
X0057534Y0059722D01*
X0057576Y0059766D01*
X0057614Y0059812D01*
X0057650Y0059861D01*
X0057683Y0059912D01*
X0057712Y0059964D01*
X0057739Y0060019D01*
X0057762Y0060074D01*
X0057782Y0060131D01*
X0057798Y0060190D01*
X0057811Y0060249D01*
X0057820Y0060308D01*
X0057825Y0060369D01*
X0057827Y0060429D01*
X0047292Y0068621D02*
X0047292Y0071958D01*
X0046458Y0072792D01*
X0043955Y0072792D01*
X0043955Y0067787D01*
X0046458Y0067787D01*
X0047292Y0068621D01*
X0042135Y0067787D02*
X0042135Y0072792D01*
X0041301Y0075189D02*
X0042135Y0076023D01*
X0041301Y0075189D02*
X0039633Y0075189D01*
X0038799Y0076023D01*
X0038799Y0079359D01*
X0039633Y0080193D01*
X0041301Y0080193D01*
X0042135Y0079359D01*
X0043955Y0079359D02*
X0043955Y0076023D01*
X0044789Y0075189D01*
X0046458Y0075189D01*
X0047292Y0076023D01*
X0047292Y0079359D02*
X0046458Y0080193D01*
X0044789Y0080193D01*
X0043955Y0079359D01*
X0036979Y0080193D02*
X0036979Y0076857D01*
X0035311Y0075189D01*
X0033643Y0076857D01*
X0033643Y0080193D01*
X0034477Y0072792D02*
X0033643Y0071958D01*
X0033643Y0068621D01*
X0034477Y0067787D01*
X0036145Y0067787D01*
X0036979Y0068621D01*
X0036979Y0070290D01*
X0035311Y0070290D01*
X0036979Y0071958D02*
X0036145Y0072792D01*
X0034477Y0072792D01*
X0038799Y0072792D02*
X0038799Y0067787D01*
X0042135Y0067787D02*
X0038799Y0072792D01*
X0076425Y0071948D02*
X0076425Y0068612D01*
X0081657Y0070280D02*
X0083325Y0071948D01*
X0086661Y0071948D01*
X0084159Y0071948D02*
X0084159Y0068612D01*
X0083325Y0068612D02*
X0081657Y0070280D01*
X0083325Y0068612D02*
X0086661Y0068612D01*
X0148418Y0068722D02*
X0149486Y0067654D01*
X0151621Y0067654D01*
X0152688Y0068722D01*
X0154864Y0067654D02*
X0154864Y0071925D01*
X0156999Y0074060D01*
X0159134Y0071925D01*
X0159134Y0067654D01*
X0161309Y0067654D02*
X0161309Y0074060D01*
X0164512Y0074060D01*
X0165579Y0072992D01*
X0165579Y0070857D01*
X0164512Y0069789D01*
X0161309Y0069789D01*
X0163444Y0069789D02*
X0165579Y0067654D01*
X0169890Y0067654D02*
X0169890Y0074060D01*
X0167755Y0074060D02*
X0172025Y0074060D01*
X0180646Y0074060D02*
X0180646Y0067654D01*
X0180646Y0069789D02*
X0183848Y0069789D01*
X0184916Y0070857D01*
X0184916Y0072992D01*
X0183848Y0074060D01*
X0180646Y0074060D01*
X0182781Y0069789D02*
X0184916Y0067654D01*
X0187091Y0067654D02*
X0191361Y0067654D01*
X0193537Y0067654D02*
X0193537Y0071925D01*
X0195672Y0074060D01*
X0197807Y0071925D01*
X0197807Y0067654D01*
X0199982Y0067654D02*
X0203185Y0067654D01*
X0204252Y0068722D01*
X0204252Y0072992D01*
X0203185Y0074060D01*
X0199982Y0074060D01*
X0199982Y0067654D01*
X0197807Y0070857D02*
X0193537Y0070857D01*
X0191361Y0074060D02*
X0187091Y0074060D01*
X0187091Y0067654D01*
X0187091Y0070857D02*
X0189226Y0070857D01*
X0206428Y0070857D02*
X0208563Y0070857D01*
X0206428Y0067654D02*
X0210698Y0067654D01*
X0212873Y0067654D02*
X0212873Y0074060D01*
X0216076Y0074060D01*
X0217143Y0072992D01*
X0217143Y0070857D01*
X0216076Y0069789D01*
X0212873Y0069789D01*
X0215008Y0069789D02*
X0217143Y0067654D01*
X0225764Y0068722D02*
X0226832Y0067654D01*
X0228967Y0067654D01*
X0230034Y0068722D01*
X0230034Y0069789D01*
X0228967Y0070857D01*
X0226832Y0070857D01*
X0225764Y0071925D01*
X0225764Y0072992D01*
X0226832Y0074060D01*
X0228967Y0074060D01*
X0230034Y0072992D01*
X0232210Y0074060D02*
X0232210Y0067654D01*
X0232210Y0070857D02*
X0236480Y0070857D01*
X0236480Y0074060D02*
X0236480Y0067654D01*
X0238655Y0067654D02*
X0240790Y0067654D01*
X0239723Y0067654D02*
X0239723Y0074060D01*
X0240790Y0074060D02*
X0238655Y0074060D01*
X0242952Y0074060D02*
X0242952Y0067654D01*
X0247222Y0067654D01*
X0249398Y0067654D02*
X0253668Y0067654D01*
X0255843Y0067654D02*
X0259046Y0067654D01*
X0260113Y0068722D01*
X0260113Y0072992D01*
X0259046Y0074060D01*
X0255843Y0074060D01*
X0255843Y0067654D01*
X0249398Y0067654D02*
X0249398Y0074060D01*
X0247222Y0074060D02*
X0242952Y0074060D01*
X0242952Y0070857D02*
X0245087Y0070857D01*
X0210698Y0074060D02*
X0206428Y0074060D01*
X0206428Y0067654D01*
X0159134Y0070857D02*
X0154864Y0070857D01*
X0152688Y0072992D02*
X0151621Y0074060D01*
X0149486Y0074060D01*
X0148418Y0072992D01*
X0148418Y0068722D01*
X0226564Y0145937D02*
X0238964Y0145937D01*
X0239040Y0145939D01*
X0239116Y0145945D01*
X0239191Y0145954D01*
X0239266Y0145968D01*
X0239340Y0145985D01*
X0239413Y0146006D01*
X0239485Y0146030D01*
X0239556Y0146059D01*
X0239625Y0146090D01*
X0239692Y0146125D01*
X0239757Y0146164D01*
X0239821Y0146206D01*
X0239882Y0146251D01*
X0239941Y0146299D01*
X0239997Y0146350D01*
X0240051Y0146404D01*
X0240102Y0146460D01*
X0240150Y0146519D01*
X0240195Y0146580D01*
X0240237Y0146644D01*
X0240276Y0146709D01*
X0240311Y0146776D01*
X0240342Y0146845D01*
X0240371Y0146916D01*
X0240395Y0146988D01*
X0240416Y0147061D01*
X0240433Y0147135D01*
X0240447Y0147210D01*
X0240456Y0147285D01*
X0240462Y0147361D01*
X0240464Y0147437D01*
X0226564Y0145937D02*
X0226488Y0145939D01*
X0226412Y0145945D01*
X0226337Y0145954D01*
X0226262Y0145968D01*
X0226188Y0145985D01*
X0226115Y0146006D01*
X0226043Y0146030D01*
X0225972Y0146059D01*
X0225903Y0146090D01*
X0225836Y0146125D01*
X0225771Y0146164D01*
X0225707Y0146206D01*
X0225646Y0146251D01*
X0225587Y0146299D01*
X0225531Y0146350D01*
X0225477Y0146404D01*
X0225426Y0146460D01*
X0225378Y0146519D01*
X0225333Y0146580D01*
X0225291Y0146644D01*
X0225252Y0146709D01*
X0225217Y0146776D01*
X0225186Y0146845D01*
X0225157Y0146916D01*
X0225133Y0146988D01*
X0225112Y0147061D01*
X0225095Y0147135D01*
X0225081Y0147210D01*
X0225072Y0147285D01*
X0225066Y0147361D01*
X0225064Y0147437D01*
X0225064Y0164437D02*
X0225066Y0164513D01*
X0225072Y0164589D01*
X0225081Y0164664D01*
X0225095Y0164739D01*
X0225112Y0164813D01*
X0225133Y0164886D01*
X0225157Y0164958D01*
X0225186Y0165029D01*
X0225217Y0165098D01*
X0225252Y0165165D01*
X0225291Y0165230D01*
X0225333Y0165294D01*
X0225378Y0165355D01*
X0225426Y0165414D01*
X0225477Y0165470D01*
X0225531Y0165524D01*
X0225587Y0165575D01*
X0225646Y0165623D01*
X0225707Y0165668D01*
X0225771Y0165710D01*
X0225836Y0165749D01*
X0225903Y0165784D01*
X0225972Y0165815D01*
X0226043Y0165844D01*
X0226115Y0165868D01*
X0226188Y0165889D01*
X0226262Y0165906D01*
X0226337Y0165920D01*
X0226412Y0165929D01*
X0226488Y0165935D01*
X0226564Y0165937D01*
X0230764Y0165937D01*
X0234764Y0165937D01*
X0238964Y0165937D01*
X0239040Y0165935D01*
X0239116Y0165929D01*
X0239191Y0165920D01*
X0239266Y0165906D01*
X0239340Y0165889D01*
X0239413Y0165868D01*
X0239485Y0165844D01*
X0239556Y0165815D01*
X0239625Y0165784D01*
X0239692Y0165749D01*
X0239757Y0165710D01*
X0239821Y0165668D01*
X0239882Y0165623D01*
X0239941Y0165575D01*
X0239997Y0165524D01*
X0240051Y0165470D01*
X0240102Y0165414D01*
X0240150Y0165355D01*
X0240195Y0165294D01*
X0240237Y0165230D01*
X0240276Y0165165D01*
X0240311Y0165098D01*
X0240342Y0165029D01*
X0240371Y0164958D01*
X0240395Y0164886D01*
X0240416Y0164813D01*
X0240433Y0164739D01*
X0240447Y0164664D01*
X0240456Y0164589D01*
X0240462Y0164513D01*
X0240464Y0164437D01*
X0234764Y0165937D02*
X0234762Y0165849D01*
X0234756Y0165760D01*
X0234746Y0165672D01*
X0234733Y0165585D01*
X0234715Y0165498D01*
X0234694Y0165412D01*
X0234669Y0165327D01*
X0234640Y0165244D01*
X0234607Y0165161D01*
X0234571Y0165081D01*
X0234532Y0165002D01*
X0234489Y0164924D01*
X0234442Y0164849D01*
X0234392Y0164776D01*
X0234339Y0164705D01*
X0234283Y0164636D01*
X0234224Y0164570D01*
X0234162Y0164507D01*
X0234098Y0164447D01*
X0234031Y0164389D01*
X0233961Y0164335D01*
X0233889Y0164283D01*
X0233815Y0164235D01*
X0233738Y0164190D01*
X0233660Y0164149D01*
X0233580Y0164111D01*
X0233499Y0164077D01*
X0233416Y0164046D01*
X0233331Y0164019D01*
X0233246Y0163996D01*
X0233160Y0163977D01*
X0233072Y0163961D01*
X0232985Y0163949D01*
X0232897Y0163941D01*
X0232808Y0163937D01*
X0232720Y0163937D01*
X0232631Y0163941D01*
X0232543Y0163949D01*
X0232456Y0163961D01*
X0232368Y0163977D01*
X0232282Y0163996D01*
X0232197Y0164019D01*
X0232112Y0164046D01*
X0232029Y0164077D01*
X0231948Y0164111D01*
X0231868Y0164149D01*
X0231790Y0164190D01*
X0231713Y0164235D01*
X0231639Y0164283D01*
X0231567Y0164335D01*
X0231497Y0164389D01*
X0231430Y0164447D01*
X0231366Y0164507D01*
X0231304Y0164570D01*
X0231245Y0164636D01*
X0231189Y0164705D01*
X0231136Y0164776D01*
X0231086Y0164849D01*
X0231039Y0164924D01*
X0230996Y0165002D01*
X0230957Y0165081D01*
X0230921Y0165161D01*
X0230888Y0165244D01*
X0230859Y0165327D01*
X0230834Y0165412D01*
X0230813Y0165498D01*
X0230795Y0165585D01*
X0230782Y0165672D01*
X0230772Y0165760D01*
X0230766Y0165849D01*
X0230764Y0165937D01*
X0231366Y0197000D02*
X0228866Y0199500D01*
X0226366Y0197000D01*
X0221366Y0197000D01*
X0218866Y0199500D01*
X0218866Y0204500D01*
X0221366Y0207000D01*
X0226366Y0207000D01*
X0228866Y0204500D01*
X0231366Y0207000D01*
X0236366Y0207000D01*
X0238866Y0204500D01*
X0241366Y0207000D01*
X0246366Y0207000D01*
X0248866Y0204500D01*
X0251366Y0207000D01*
X0256366Y0207000D01*
X0258866Y0204500D01*
X0261366Y0207000D01*
X0266366Y0207000D01*
X0268866Y0204500D01*
X0268866Y0199500D01*
X0266366Y0197000D01*
X0261366Y0197000D01*
X0258866Y0199500D01*
X0256366Y0197000D01*
X0251366Y0197000D01*
X0248866Y0199500D01*
X0248866Y0204500D01*
X0248866Y0199500D02*
X0246366Y0197000D01*
X0241366Y0197000D01*
X0238866Y0199500D01*
X0236366Y0197000D01*
X0231366Y0197000D01*
X0228866Y0199500D02*
X0228866Y0204500D01*
X0218866Y0204500D02*
X0216366Y0207000D01*
X0211366Y0207000D01*
X0208866Y0204500D01*
X0206366Y0207000D01*
X0201366Y0207000D01*
X0198866Y0204500D01*
X0196366Y0207000D01*
X0191366Y0207000D01*
X0188866Y0204500D01*
X0188866Y0199500D01*
X0191366Y0197000D01*
X0196366Y0197000D01*
X0198866Y0199500D01*
X0198866Y0204500D01*
X0198866Y0199500D02*
X0201366Y0197000D01*
X0206366Y0197000D01*
X0208866Y0199500D01*
X0208866Y0204500D01*
X0208866Y0199500D02*
X0211366Y0197000D01*
X0216366Y0197000D01*
X0218866Y0199500D01*
X0238866Y0199500D02*
X0238866Y0204500D01*
X0258866Y0204500D02*
X0258866Y0199500D01*
X0278866Y0199500D02*
X0281366Y0197000D01*
X0286366Y0197000D01*
X0288866Y0199500D01*
X0288866Y0204500D01*
X0286366Y0207000D01*
X0281366Y0207000D01*
X0278866Y0204500D01*
X0278866Y0199500D01*
X0288866Y0199500D02*
X0291366Y0197000D01*
X0296366Y0197000D01*
X0298866Y0199500D01*
X0298866Y0204500D01*
X0296366Y0207000D01*
X0291366Y0207000D01*
X0288866Y0204500D01*
X0298866Y0204500D02*
X0301366Y0207000D01*
X0306366Y0207000D01*
X0308866Y0204500D01*
X0311366Y0207000D01*
X0316366Y0207000D01*
X0318866Y0204500D01*
X0321366Y0207000D01*
X0326366Y0207000D01*
X0328866Y0204500D01*
X0331366Y0207000D01*
X0336366Y0207000D01*
X0338866Y0204500D01*
X0341366Y0207000D01*
X0346366Y0207000D01*
X0348866Y0204500D01*
X0351366Y0207000D01*
X0356366Y0207000D01*
X0358866Y0204500D01*
X0358866Y0199500D01*
X0356366Y0197000D01*
X0351366Y0197000D01*
X0348866Y0199500D01*
X0346366Y0197000D01*
X0341366Y0197000D01*
X0338866Y0199500D01*
X0338866Y0204500D01*
X0338866Y0199500D02*
X0336366Y0197000D01*
X0331366Y0197000D01*
X0328866Y0199500D01*
X0326366Y0197000D01*
X0321366Y0197000D01*
X0318866Y0199500D01*
X0316366Y0197000D01*
X0311366Y0197000D01*
X0308866Y0199500D01*
X0308866Y0204500D01*
X0308866Y0199500D02*
X0306366Y0197000D01*
X0301366Y0197000D01*
X0298866Y0199500D01*
X0318866Y0199500D02*
X0318866Y0204500D01*
X0328866Y0204500D02*
X0328866Y0199500D01*
X0326524Y0194008D02*
X0321524Y0194008D01*
X0319024Y0191508D01*
X0319024Y0186508D01*
X0321524Y0184008D01*
X0326524Y0184008D01*
X0329024Y0186508D01*
X0331524Y0184008D01*
X0336524Y0184008D01*
X0339024Y0186508D01*
X0339024Y0191508D01*
X0336524Y0194008D01*
X0331524Y0194008D01*
X0329024Y0191508D01*
X0329024Y0186508D01*
X0329024Y0191508D02*
X0326524Y0194008D01*
X0348866Y0199500D02*
X0348866Y0204500D01*
X0378866Y0204500D02*
X0378866Y0199500D01*
X0381366Y0197000D01*
X0396366Y0197000D01*
X0398866Y0194500D01*
X0398866Y0189500D01*
X0396366Y0187000D01*
X0381366Y0187000D01*
X0378866Y0184500D01*
X0378866Y0179500D01*
X0381366Y0177000D01*
X0396366Y0177000D01*
X0398866Y0174500D01*
X0398866Y0169500D01*
X0396366Y0167000D01*
X0381366Y0167000D01*
X0378866Y0164500D01*
X0378866Y0159500D01*
X0381366Y0157000D01*
X0396366Y0157000D01*
X0398866Y0154500D01*
X0398866Y0149500D01*
X0396366Y0147000D01*
X0381366Y0147000D01*
X0378866Y0144500D01*
X0378866Y0139500D01*
X0381366Y0137000D01*
X0396366Y0137000D01*
X0398866Y0134500D01*
X0398866Y0129500D01*
X0396366Y0127000D01*
X0381366Y0127000D01*
X0378866Y0129500D01*
X0378866Y0134500D01*
X0381366Y0137000D01*
X0381366Y0127000D02*
X0378866Y0124500D01*
X0378866Y0119500D01*
X0381366Y0117000D01*
X0396366Y0117000D02*
X0398866Y0119500D01*
X0398866Y0124500D01*
X0396366Y0127000D01*
X0396366Y0137000D02*
X0398866Y0139500D01*
X0398866Y0144500D01*
X0396366Y0147000D01*
X0396366Y0157000D02*
X0398866Y0159500D01*
X0398866Y0164500D01*
X0396366Y0167000D01*
X0396366Y0177000D02*
X0398866Y0179500D01*
X0398866Y0184500D01*
X0396366Y0187000D01*
X0396366Y0197000D02*
X0398866Y0199500D01*
X0398866Y0204500D01*
X0396366Y0207000D01*
X0381366Y0207000D01*
X0378866Y0204500D01*
X0381366Y0197000D02*
X0378866Y0194500D01*
X0378866Y0189500D01*
X0381366Y0187000D01*
X0381366Y0177000D02*
X0378866Y0174500D01*
X0378866Y0169500D01*
X0381366Y0167000D01*
X0381366Y0157000D02*
X0378866Y0154500D01*
X0378866Y0149500D01*
X0381366Y0147000D01*
X0396366Y0107000D02*
X0398866Y0104500D01*
X0398866Y0099500D01*
X0396366Y0097000D01*
X0396366Y0087000D02*
X0398866Y0084500D01*
X0398866Y0079500D01*
X0396366Y0077000D01*
X0396366Y0067000D02*
X0398866Y0064500D01*
X0398866Y0059500D01*
X0396366Y0057000D01*
X0396366Y0047000D02*
X0398866Y0044500D01*
X0398866Y0039500D01*
X0396366Y0037000D01*
X0357094Y0070642D02*
X0356260Y0069808D01*
X0357094Y0070642D02*
X0357094Y0072310D01*
X0356260Y0073144D01*
X0355426Y0073144D01*
X0354592Y0072310D01*
X0354592Y0071476D01*
X0354592Y0072310D02*
X0353758Y0073144D01*
X0352924Y0073144D01*
X0352090Y0072310D01*
X0352090Y0070642D01*
X0352924Y0069808D01*
X0352090Y0074964D02*
X0355426Y0074964D01*
X0357094Y0076632D01*
X0355426Y0078301D01*
X0352090Y0078301D01*
X0352924Y0080121D02*
X0352090Y0080955D01*
X0352090Y0082623D01*
X0352924Y0083457D01*
X0353758Y0083457D01*
X0354592Y0082623D01*
X0355426Y0083457D01*
X0356260Y0083457D01*
X0357094Y0082623D01*
X0357094Y0080955D01*
X0356260Y0080121D01*
X0354592Y0081789D02*
X0354592Y0082623D01*
X0346858Y0077458D02*
X0345190Y0079126D01*
X0341854Y0079126D01*
X0341854Y0075790D02*
X0345190Y0075790D01*
X0346858Y0077458D01*
X0346024Y0073970D02*
X0346858Y0073136D01*
X0346858Y0071468D01*
X0346024Y0070634D01*
X0344356Y0070634D02*
X0343522Y0072302D01*
X0343522Y0073136D01*
X0344356Y0073970D01*
X0346024Y0073970D01*
X0344356Y0070634D02*
X0341854Y0070634D01*
X0341854Y0073970D01*
X0182866Y0199500D02*
X0180366Y0197000D01*
X0175366Y0197000D01*
X0172866Y0199500D01*
X0170366Y0197000D01*
X0165366Y0197000D01*
X0162866Y0199500D01*
X0160366Y0197000D01*
X0155366Y0197000D01*
X0152866Y0199500D01*
X0150366Y0197000D01*
X0145366Y0197000D01*
X0142866Y0199500D01*
X0140366Y0197000D01*
X0135366Y0197000D01*
X0132866Y0199500D01*
X0130366Y0197000D01*
X0125366Y0197000D01*
X0122866Y0199500D01*
X0120366Y0197000D01*
X0115366Y0197000D01*
X0112866Y0199500D01*
X0110366Y0197000D01*
X0105366Y0197000D01*
X0102866Y0199500D01*
X0100366Y0197000D01*
X0095366Y0197000D01*
X0092866Y0199500D01*
X0090366Y0197000D01*
X0085366Y0197000D01*
X0082866Y0199500D01*
X0082866Y0204500D01*
X0085366Y0207000D01*
X0090366Y0207000D01*
X0092866Y0204500D01*
X0095366Y0207000D01*
X0100366Y0207000D01*
X0102866Y0204500D01*
X0102866Y0199500D01*
X0102866Y0204500D02*
X0105366Y0207000D01*
X0110366Y0207000D01*
X0112866Y0204500D01*
X0115366Y0207000D01*
X0120366Y0207000D01*
X0122866Y0204500D01*
X0125366Y0207000D01*
X0130366Y0207000D01*
X0132866Y0204500D01*
X0132866Y0199500D01*
X0132866Y0204500D02*
X0135366Y0207000D01*
X0140366Y0207000D01*
X0142866Y0204500D01*
X0145366Y0207000D01*
X0150366Y0207000D01*
X0152866Y0204500D01*
X0155366Y0207000D01*
X0160366Y0207000D01*
X0162866Y0204500D01*
X0162866Y0199500D01*
X0162866Y0204500D02*
X0165366Y0207000D01*
X0170366Y0207000D01*
X0172866Y0204500D01*
X0175366Y0207000D01*
X0180366Y0207000D01*
X0182866Y0204500D01*
X0182866Y0199500D01*
X0172866Y0199500D02*
X0172866Y0204500D01*
X0152866Y0204500D02*
X0152866Y0199500D01*
X0142866Y0199500D02*
X0142866Y0204500D01*
X0122866Y0204500D02*
X0122866Y0199500D01*
X0112866Y0199500D02*
X0112866Y0204500D01*
X0100417Y0194283D02*
X0097081Y0194283D01*
X0095413Y0192615D01*
X0097081Y0190947D01*
X0100417Y0190947D01*
X0099583Y0189126D02*
X0096247Y0189126D01*
X0095413Y0188292D01*
X0095413Y0185790D01*
X0100417Y0185790D01*
X0100417Y0188292D01*
X0099583Y0189126D01*
X0097915Y0190947D02*
X0097915Y0194283D01*
X0090205Y0194389D02*
X0090205Y0191053D01*
X0085200Y0191053D01*
X0086034Y0189233D02*
X0085200Y0188399D01*
X0085200Y0186731D01*
X0086034Y0185897D01*
X0089371Y0185897D01*
X0090205Y0186731D01*
X0090205Y0188399D01*
X0089371Y0189233D01*
X0089371Y0184076D02*
X0090205Y0183242D01*
X0090205Y0181574D01*
X0089371Y0180740D01*
X0087703Y0181574D02*
X0087703Y0183242D01*
X0088537Y0184076D01*
X0089371Y0184076D01*
X0087703Y0181574D02*
X0086869Y0180740D01*
X0086034Y0180740D01*
X0085200Y0181574D01*
X0085200Y0183242D01*
X0086034Y0184076D01*
X0095413Y0183136D02*
X0095413Y0181468D01*
X0096247Y0180634D01*
X0097081Y0180634D01*
X0097915Y0181468D01*
X0097915Y0183136D01*
X0098749Y0183970D01*
X0099583Y0183970D01*
X0100417Y0183136D01*
X0100417Y0181468D01*
X0099583Y0180634D01*
X0096247Y0183970D02*
X0095413Y0183136D01*
X0080421Y0197000D02*
X0082921Y0199500D01*
X0082921Y0204500D01*
X0080421Y0207000D01*
X0075421Y0207000D01*
X0072921Y0204500D01*
X0070421Y0207000D01*
X0065421Y0207000D01*
X0062921Y0204500D01*
X0062921Y0199500D01*
X0065421Y0197000D01*
X0070421Y0197000D01*
X0072921Y0199500D01*
X0072921Y0204500D01*
X0072921Y0199500D02*
X0075421Y0197000D01*
X0080421Y0197000D01*
X0092866Y0199500D02*
X0092866Y0204500D01*
X0062921Y0204500D02*
X0060421Y0207000D01*
X0055421Y0207000D01*
X0052921Y0204500D01*
X0050421Y0207000D01*
X0045421Y0207000D01*
X0042921Y0204500D01*
X0040421Y0207000D01*
X0035421Y0207000D01*
X0032921Y0204500D01*
X0032921Y0199500D01*
X0035421Y0197000D01*
X0040421Y0197000D01*
X0042921Y0199500D01*
X0042921Y0204500D01*
X0042921Y0199500D02*
X0045421Y0197000D01*
X0050421Y0197000D01*
X0052921Y0199500D01*
X0052921Y0204500D01*
X0052921Y0199500D02*
X0055421Y0197000D01*
X0060421Y0197000D01*
X0062921Y0199500D01*
X0059669Y0194677D02*
X0056333Y0194677D01*
X0054665Y0193008D01*
X0056333Y0191340D01*
X0059669Y0191340D01*
X0058835Y0189520D02*
X0055499Y0189520D01*
X0054665Y0188686D01*
X0054665Y0186184D01*
X0059669Y0186184D01*
X0059669Y0188686D01*
X0058835Y0189520D01*
X0057167Y0191340D02*
X0057167Y0194677D01*
X0049850Y0194783D02*
X0049850Y0191447D01*
X0044846Y0191447D01*
X0045680Y0189626D02*
X0044846Y0188792D01*
X0044846Y0187124D01*
X0045680Y0186290D01*
X0049016Y0186290D01*
X0049850Y0187124D01*
X0049850Y0188792D01*
X0049016Y0189626D01*
X0049016Y0184470D02*
X0049850Y0183636D01*
X0049850Y0181968D01*
X0049016Y0181134D01*
X0047348Y0181968D02*
X0047348Y0183636D01*
X0048182Y0184470D01*
X0049016Y0184470D01*
X0047348Y0181968D02*
X0046514Y0181134D01*
X0045680Y0181134D01*
X0044846Y0181968D01*
X0044846Y0183636D01*
X0045680Y0184470D01*
X0040402Y0184115D02*
X0040402Y0180778D01*
X0035397Y0180778D01*
X0036231Y0178958D02*
X0035397Y0178124D01*
X0035397Y0176456D01*
X0036231Y0175622D01*
X0039568Y0175622D01*
X0040402Y0176456D01*
X0040402Y0178124D01*
X0039568Y0178958D01*
X0040402Y0185935D02*
X0035397Y0185935D01*
X0037899Y0186769D02*
X0040402Y0189271D01*
X0040402Y0191091D02*
X0037065Y0194427D01*
X0036231Y0194427D01*
X0035397Y0193593D01*
X0035397Y0191925D01*
X0036231Y0191091D01*
X0035397Y0189271D02*
X0038733Y0185935D01*
X0040402Y0191091D02*
X0040402Y0194427D01*
X0032921Y0199500D02*
X0030421Y0197000D01*
X0025421Y0197000D01*
X0022921Y0199500D01*
X0020421Y0197000D01*
X0015421Y0197000D01*
X0012921Y0199500D01*
X0012921Y0204500D01*
X0015421Y0207000D01*
X0020421Y0207000D01*
X0022921Y0204500D01*
X0025421Y0207000D01*
X0030421Y0207000D01*
X0032921Y0204500D01*
X0022921Y0204500D02*
X0022921Y0199500D01*
X0019489Y0194427D02*
X0016153Y0194427D01*
X0019489Y0191091D01*
X0020323Y0191925D01*
X0020323Y0193593D01*
X0019489Y0194427D01*
X0019489Y0191091D02*
X0016153Y0191091D01*
X0015319Y0191925D01*
X0015319Y0193593D01*
X0016153Y0194427D01*
X0015319Y0189271D02*
X0018655Y0185935D01*
X0017821Y0186769D02*
X0020323Y0189271D01*
X0020323Y0185935D02*
X0015319Y0185935D01*
X0015319Y0180778D02*
X0020323Y0180778D01*
X0020323Y0184115D01*
X0019489Y0178958D02*
X0020323Y0178124D01*
X0020323Y0176456D01*
X0019489Y0175622D01*
X0016153Y0175622D01*
X0015319Y0176456D01*
X0015319Y0178124D01*
X0016153Y0178958D01*
X0025161Y0178518D02*
X0025161Y0176850D01*
X0025995Y0176016D01*
X0029331Y0176016D01*
X0030165Y0176850D01*
X0030165Y0178518D01*
X0029331Y0179352D01*
X0030165Y0181172D02*
X0025161Y0181172D01*
X0025995Y0179352D02*
X0025161Y0178518D01*
X0030165Y0181172D02*
X0030165Y0184508D01*
X0030165Y0186329D02*
X0025161Y0186329D01*
X0027663Y0187163D02*
X0030165Y0189665D01*
X0030165Y0191485D02*
X0030165Y0194821D01*
X0030165Y0193153D02*
X0025161Y0193153D01*
X0026829Y0191485D01*
X0025161Y0189665D02*
X0028497Y0186329D01*
X0054665Y0183530D02*
X0054665Y0181862D01*
X0055499Y0181028D01*
X0056333Y0181028D01*
X0057167Y0181862D01*
X0057167Y0183530D01*
X0058001Y0184364D01*
X0058835Y0184364D01*
X0059669Y0183530D01*
X0059669Y0181862D01*
X0058835Y0181028D01*
X0055499Y0184364D02*
X0054665Y0183530D01*
X0319284Y0308289D02*
X0320352Y0307221D01*
X0322487Y0307221D01*
X0323555Y0308289D01*
X0323555Y0309356D01*
X0322487Y0310424D01*
X0319284Y0310424D01*
X0319284Y0308289D01*
X0319284Y0310424D02*
X0321419Y0312559D01*
X0323555Y0313627D01*
X0325730Y0310424D02*
X0330000Y0310424D01*
X0332175Y0311492D02*
X0335378Y0311492D01*
X0336446Y0310424D01*
X0336446Y0308289D01*
X0335378Y0307221D01*
X0332175Y0307221D01*
X0332175Y0313627D01*
X0328932Y0313627D02*
X0325730Y0310424D01*
X0328932Y0307221D02*
X0328932Y0313627D01*
X0338621Y0311492D02*
X0339688Y0311492D01*
X0339688Y0307221D01*
X0338621Y0307221D02*
X0340756Y0307221D01*
X0343985Y0308289D02*
X0345053Y0307221D01*
X0343985Y0308289D02*
X0343985Y0312559D01*
X0342918Y0311492D02*
X0345053Y0311492D01*
X0339688Y0313627D02*
X0339688Y0314694D01*
X0353660Y0311492D02*
X0353660Y0307221D01*
X0353660Y0310424D02*
X0357931Y0310424D01*
X0357931Y0311492D02*
X0357931Y0307221D01*
X0360106Y0308289D02*
X0360106Y0310424D01*
X0361173Y0311492D01*
X0364376Y0311492D01*
X0364376Y0313627D02*
X0364376Y0307221D01*
X0361173Y0307221D01*
X0360106Y0308289D01*
X0357931Y0311492D02*
X0355795Y0313627D01*
X0353660Y0311492D01*
X0366551Y0308289D02*
X0367619Y0309356D01*
X0370822Y0309356D01*
X0370822Y0310424D02*
X0370822Y0307221D01*
X0367619Y0307221D01*
X0366551Y0308289D01*
X0367619Y0311492D02*
X0369754Y0311492D01*
X0370822Y0310424D01*
X0372997Y0311492D02*
X0372997Y0305086D01*
X0372997Y0307221D02*
X0376199Y0307221D01*
X0377267Y0308289D01*
X0377267Y0310424D01*
X0376199Y0311492D01*
X0372997Y0311492D01*
X0379442Y0311492D02*
X0381577Y0311492D01*
X0380510Y0312559D02*
X0380510Y0308289D01*
X0381577Y0307221D01*
X0383739Y0308289D02*
X0383739Y0310424D01*
X0384807Y0311492D01*
X0386942Y0311492D01*
X0388010Y0310424D01*
X0388010Y0309356D01*
X0383739Y0309356D01*
X0383739Y0308289D02*
X0384807Y0307221D01*
X0386942Y0307221D01*
X0390185Y0307221D02*
X0390185Y0311492D01*
X0392320Y0311492D02*
X0393387Y0311492D01*
X0392320Y0311492D02*
X0390185Y0309356D01*
D14*
X0160005Y0178244D02*
X0160005Y0176710D01*
X0159237Y0175942D01*
X0157703Y0175942D01*
X0156935Y0176710D01*
X0156935Y0178244D01*
X0157703Y0179012D01*
X0158470Y0179012D01*
X0158470Y0175942D01*
X0160005Y0174408D02*
X0156935Y0174408D01*
X0156935Y0171339D02*
X0159237Y0171339D01*
X0160005Y0172106D01*
X0160005Y0174408D01*
X0160005Y0169804D02*
X0160005Y0168269D01*
X0160005Y0169037D02*
X0155401Y0169037D01*
X0155401Y0168269D01*
X0156168Y0166735D02*
X0155401Y0165967D01*
X0155401Y0163665D01*
X0160005Y0163665D01*
X0160005Y0165967D01*
X0159237Y0166735D01*
X0158470Y0166735D01*
X0157703Y0165967D01*
X0157703Y0163665D01*
X0157703Y0165967D02*
X0156935Y0166735D01*
X0156168Y0166735D01*
X0150162Y0165260D02*
X0147093Y0165260D01*
X0148628Y0165260D02*
X0147093Y0166795D01*
X0147093Y0167562D01*
X0147860Y0169097D02*
X0147093Y0169864D01*
X0147093Y0171399D01*
X0147860Y0172166D01*
X0148628Y0172166D01*
X0148628Y0169097D01*
X0149395Y0169097D02*
X0147860Y0169097D01*
X0149395Y0169097D02*
X0150162Y0169864D01*
X0150162Y0171399D01*
X0149395Y0173701D02*
X0147860Y0173701D01*
X0147093Y0174468D01*
X0147093Y0176003D01*
X0147860Y0176770D01*
X0148628Y0176770D01*
X0148628Y0173701D01*
X0149395Y0173701D02*
X0150162Y0174468D01*
X0150162Y0176003D01*
X0150162Y0178305D02*
X0147093Y0178305D01*
X0147093Y0180607D01*
X0147860Y0181374D01*
X0150162Y0181374D01*
X0140320Y0177043D02*
X0140320Y0174741D01*
X0139552Y0173974D01*
X0138018Y0173974D01*
X0137250Y0174741D01*
X0137250Y0177043D01*
X0135716Y0177043D02*
X0140320Y0177043D01*
X0138785Y0172439D02*
X0138785Y0169370D01*
X0138018Y0169370D02*
X0137250Y0170137D01*
X0137250Y0171672D01*
X0138018Y0172439D01*
X0138785Y0172439D01*
X0140320Y0171672D02*
X0140320Y0170137D01*
X0139552Y0169370D01*
X0138018Y0169370D01*
X0138018Y0167835D02*
X0138785Y0167068D01*
X0138785Y0164766D01*
X0140320Y0164766D02*
X0135716Y0164766D01*
X0135716Y0167068D01*
X0136483Y0167835D01*
X0138018Y0167835D01*
X0138785Y0166301D02*
X0140320Y0167835D01*
X0145558Y0162958D02*
X0145558Y0161424D01*
X0146326Y0160656D01*
X0149395Y0160656D01*
X0150162Y0161424D01*
X0150162Y0162958D01*
X0149395Y0163726D01*
X0147860Y0163726D01*
X0147860Y0162191D01*
X0146326Y0163726D02*
X0145558Y0162958D01*
X0104854Y0155741D02*
X0101785Y0152672D01*
X0102552Y0153439D02*
X0104854Y0151137D01*
X0101785Y0151137D02*
X0101785Y0155741D01*
X0097181Y0155741D02*
X0097181Y0151137D01*
X0100250Y0151137D01*
X0095646Y0151904D02*
X0094879Y0151137D01*
X0093344Y0151137D01*
X0092577Y0151904D01*
X0092577Y0154974D01*
X0093344Y0155741D01*
X0094879Y0155741D01*
X0095646Y0154974D01*
X0091042Y0155741D02*
X0091042Y0151904D01*
X0090275Y0151137D01*
X0088741Y0151137D01*
X0087973Y0151904D01*
X0087973Y0155741D01*
X0086439Y0154974D02*
X0086439Y0153439D01*
X0085671Y0152672D01*
X0083369Y0152672D01*
X0083369Y0151137D02*
X0083369Y0155741D01*
X0085671Y0155741D01*
X0086439Y0154974D01*
X0081835Y0154974D02*
X0081067Y0155741D01*
X0079533Y0155741D01*
X0078765Y0154974D01*
X0078765Y0151904D01*
X0079533Y0151137D01*
X0081067Y0151137D01*
X0081835Y0151904D01*
X0081220Y0171019D02*
X0081987Y0171786D01*
X0081220Y0171019D02*
X0079685Y0171019D01*
X0078918Y0171786D01*
X0078918Y0174855D01*
X0079685Y0175623D01*
X0081220Y0175623D01*
X0081987Y0174855D01*
X0083522Y0175623D02*
X0083522Y0171019D01*
X0086591Y0171019D01*
X0088126Y0171019D02*
X0088126Y0175623D01*
X0088893Y0173321D02*
X0091195Y0171019D01*
X0092730Y0171019D02*
X0095799Y0171019D01*
X0094265Y0171019D02*
X0094265Y0175623D01*
X0092730Y0174088D01*
X0091195Y0175623D02*
X0088126Y0172554D01*
X0057610Y0171983D02*
X0056843Y0171216D01*
X0055308Y0171216D01*
X0054541Y0171983D01*
X0057610Y0175052D01*
X0057610Y0171983D01*
X0054541Y0171983D02*
X0054541Y0175052D01*
X0055308Y0175820D01*
X0056843Y0175820D01*
X0057610Y0175052D01*
X0053006Y0175820D02*
X0049937Y0172750D01*
X0050704Y0173518D02*
X0053006Y0171216D01*
X0049937Y0171216D02*
X0049937Y0175820D01*
X0045333Y0175820D02*
X0045333Y0171216D01*
X0048402Y0171216D01*
X0043798Y0171983D02*
X0043031Y0171216D01*
X0041496Y0171216D01*
X0040729Y0171983D01*
X0040729Y0175052D01*
X0041496Y0175820D01*
X0043031Y0175820D01*
X0043798Y0175052D01*
X0045700Y0155229D02*
X0044932Y0154462D01*
X0044932Y0151393D01*
X0045700Y0150625D01*
X0047234Y0150625D01*
X0048002Y0151393D01*
X0049536Y0150625D02*
X0049536Y0155229D01*
X0048002Y0154462D02*
X0047234Y0155229D01*
X0045700Y0155229D01*
X0049536Y0150625D02*
X0052605Y0150625D01*
X0054140Y0150625D02*
X0054140Y0155229D01*
X0054907Y0152927D02*
X0057209Y0150625D01*
X0054140Y0152160D02*
X0057209Y0155229D01*
X0172728Y0048556D02*
X0173495Y0049324D01*
X0175030Y0049324D01*
X0175797Y0048556D01*
X0175797Y0047789D01*
X0175030Y0047022D01*
X0175797Y0046254D01*
X0175797Y0045487D01*
X0175030Y0044720D01*
X0173495Y0044720D01*
X0172728Y0045487D01*
X0174262Y0047022D02*
X0175030Y0047022D01*
X0177331Y0047789D02*
X0177331Y0048556D01*
X0178099Y0049324D01*
X0179633Y0049324D01*
X0180401Y0048556D01*
X0180401Y0047789D01*
X0179633Y0047022D01*
X0178099Y0047022D01*
X0177331Y0047789D01*
X0178099Y0047022D02*
X0177331Y0046254D01*
X0177331Y0045487D01*
X0178099Y0044720D01*
X0179633Y0044720D01*
X0180401Y0045487D01*
X0180401Y0046254D01*
X0179633Y0047022D01*
X0242413Y0051393D02*
X0243180Y0050625D01*
X0244715Y0050625D01*
X0245482Y0051393D01*
X0247017Y0050625D02*
X0247017Y0053694D01*
X0248551Y0055229D01*
X0250086Y0053694D01*
X0250086Y0050625D01*
X0250086Y0052927D02*
X0247017Y0052927D01*
X0245482Y0054462D02*
X0244715Y0055229D01*
X0243180Y0055229D01*
X0242413Y0054462D01*
X0242413Y0051393D01*
D15*
X0234118Y0084827D02*
X0232883Y0084827D01*
X0232266Y0085444D01*
X0234735Y0087913D01*
X0234735Y0085444D01*
X0234118Y0084827D01*
X0232266Y0085444D02*
X0232266Y0087913D01*
X0232883Y0088530D01*
X0234118Y0088530D01*
X0234735Y0087913D01*
X0231052Y0087913D02*
X0230435Y0088530D01*
X0229200Y0088530D01*
X0228583Y0087913D01*
X0231052Y0087913D02*
X0231052Y0087296D01*
X0228583Y0084827D01*
X0231052Y0084827D01*
X0185522Y0085444D02*
X0184905Y0084827D01*
X0183671Y0084827D01*
X0183054Y0085444D01*
X0183054Y0086679D02*
X0184288Y0087296D01*
X0184905Y0087296D01*
X0185522Y0086679D01*
X0185522Y0085444D01*
X0183054Y0086679D02*
X0183054Y0088530D01*
X0185522Y0088530D01*
X0180605Y0088530D02*
X0180605Y0084827D01*
X0181839Y0084827D02*
X0179370Y0084827D01*
X0179370Y0087296D02*
X0180605Y0088530D01*
X0136310Y0087913D02*
X0136310Y0085444D01*
X0135693Y0084827D01*
X0134458Y0084827D01*
X0133841Y0085444D01*
X0136310Y0087913D01*
X0135693Y0088530D01*
X0134458Y0088530D01*
X0133841Y0087913D01*
X0133841Y0085444D01*
X0132627Y0084827D02*
X0130158Y0084827D01*
X0131392Y0084827D02*
X0131392Y0088530D01*
X0130158Y0087296D01*
X0083414Y0086679D02*
X0083414Y0085444D01*
X0082797Y0084827D01*
X0081562Y0084827D01*
X0080945Y0085444D01*
X0080945Y0086679D02*
X0082180Y0087296D01*
X0082797Y0087296D01*
X0083414Y0086679D01*
X0083414Y0088530D02*
X0080945Y0088530D01*
X0080945Y0086679D01*
X0053886Y0086679D02*
X0051418Y0086679D01*
X0053269Y0088530D01*
X0053269Y0084827D01*
X0024359Y0084827D02*
X0021890Y0084827D01*
X0023125Y0084827D02*
X0023125Y0088530D01*
X0021890Y0087296D01*
X0022507Y0134040D02*
X0021890Y0134657D01*
X0022507Y0134040D02*
X0023742Y0134040D01*
X0024359Y0134657D01*
X0024359Y0135274D01*
X0023742Y0135891D01*
X0023125Y0135891D01*
X0023742Y0135891D02*
X0024359Y0136509D01*
X0024359Y0137126D01*
X0023742Y0137743D01*
X0022507Y0137743D01*
X0021890Y0137126D01*
X0025573Y0137126D02*
X0026190Y0137743D01*
X0027425Y0137743D01*
X0028042Y0137126D01*
X0028042Y0136509D01*
X0025573Y0134040D01*
X0028042Y0134040D01*
X0051418Y0134657D02*
X0052035Y0134040D01*
X0053269Y0134040D01*
X0053886Y0134657D01*
X0053886Y0135274D01*
X0053269Y0135891D01*
X0052652Y0135891D01*
X0053269Y0135891D02*
X0053886Y0136509D01*
X0053886Y0137126D01*
X0053269Y0137743D01*
X0052035Y0137743D01*
X0051418Y0137126D01*
X0055101Y0137743D02*
X0055101Y0135891D01*
X0056335Y0136509D01*
X0056952Y0136509D01*
X0057570Y0135891D01*
X0057570Y0134657D01*
X0056952Y0134040D01*
X0055718Y0134040D01*
X0055101Y0134657D01*
X0055101Y0137743D02*
X0057570Y0137743D01*
X0080945Y0137126D02*
X0081562Y0137743D01*
X0082797Y0137743D01*
X0083414Y0137126D01*
X0083414Y0136509D01*
X0082797Y0135891D01*
X0083414Y0135274D01*
X0083414Y0134657D01*
X0082797Y0134040D01*
X0081562Y0134040D01*
X0080945Y0134657D01*
X0082180Y0135891D02*
X0082797Y0135891D01*
X0084628Y0135891D02*
X0086480Y0135891D01*
X0087097Y0135274D01*
X0087097Y0134657D01*
X0086480Y0134040D01*
X0085246Y0134040D01*
X0084628Y0134657D01*
X0084628Y0135891D01*
X0085863Y0137126D01*
X0087097Y0137743D01*
X0120315Y0135891D02*
X0122784Y0135891D01*
X0123998Y0134657D02*
X0126467Y0137126D01*
X0126467Y0134657D01*
X0125850Y0134040D01*
X0124616Y0134040D01*
X0123998Y0134657D01*
X0123998Y0137126D01*
X0124616Y0137743D01*
X0125850Y0137743D01*
X0126467Y0137126D01*
X0122167Y0137743D02*
X0122167Y0134040D01*
X0120315Y0135891D02*
X0122167Y0137743D01*
X0169528Y0135891D02*
X0171997Y0135891D01*
X0173211Y0135891D02*
X0174445Y0136509D01*
X0175063Y0136509D01*
X0175680Y0135891D01*
X0175680Y0134657D01*
X0175063Y0134040D01*
X0173828Y0134040D01*
X0173211Y0134657D01*
X0173211Y0135891D02*
X0173211Y0137743D01*
X0175680Y0137743D01*
X0171380Y0137743D02*
X0171380Y0134040D01*
X0169528Y0135891D02*
X0171380Y0137743D01*
X0207717Y0147032D02*
X0207717Y0149934D01*
X0209168Y0149934D01*
X0209652Y0149451D01*
X0209652Y0148483D01*
X0209168Y0147999D01*
X0207717Y0147999D01*
X0208684Y0147999D02*
X0209652Y0147032D01*
X0210663Y0147032D02*
X0211631Y0147032D01*
X0211147Y0147032D02*
X0211147Y0149934D01*
X0210663Y0149934D02*
X0211631Y0149934D01*
X0212628Y0149934D02*
X0214563Y0147032D01*
X0214563Y0149934D01*
X0212628Y0149934D02*
X0212628Y0147032D01*
X0212115Y0151832D02*
X0212598Y0152316D01*
X0212598Y0154251D01*
X0212115Y0154734D01*
X0211147Y0154734D01*
X0210663Y0154251D01*
X0210663Y0152316D01*
X0211147Y0151832D01*
X0212115Y0151832D01*
X0213610Y0151832D02*
X0213610Y0154734D01*
X0213610Y0153283D02*
X0215545Y0153283D01*
X0215545Y0154734D02*
X0215545Y0151832D01*
X0215545Y0156632D02*
X0214094Y0158083D01*
X0213610Y0157599D02*
X0215545Y0159534D01*
X0213610Y0159534D02*
X0213610Y0156632D01*
X0212598Y0156632D02*
X0210663Y0156632D01*
X0210663Y0159534D01*
X0209652Y0159051D02*
X0209168Y0159534D01*
X0208201Y0159534D01*
X0207717Y0159051D01*
X0207717Y0157116D01*
X0208201Y0156632D01*
X0209168Y0156632D01*
X0209652Y0157116D01*
X0209168Y0154734D02*
X0209652Y0154251D01*
X0209652Y0153283D01*
X0209168Y0152799D01*
X0207717Y0152799D01*
X0207717Y0151832D02*
X0207717Y0154734D01*
X0209168Y0154734D01*
X0208684Y0152799D02*
X0209652Y0151832D01*
X0209168Y0161432D02*
X0208201Y0161432D01*
X0207717Y0161916D01*
X0207717Y0162883D02*
X0208684Y0163367D01*
X0209168Y0163367D01*
X0209652Y0162883D01*
X0209652Y0161916D01*
X0209168Y0161432D01*
X0210663Y0162399D02*
X0211631Y0161432D01*
X0212598Y0162399D01*
X0212598Y0164334D01*
X0210663Y0164334D02*
X0210663Y0162399D01*
X0209652Y0164334D02*
X0207717Y0164334D01*
X0207717Y0162883D01*
X0218741Y0137743D02*
X0218741Y0135891D01*
X0219975Y0136509D01*
X0220592Y0136509D01*
X0221209Y0135891D01*
X0221209Y0134657D01*
X0220592Y0134040D01*
X0219358Y0134040D01*
X0218741Y0134657D01*
X0218741Y0137743D02*
X0221209Y0137743D01*
X0222424Y0137126D02*
X0223041Y0137743D01*
X0224275Y0137743D01*
X0224892Y0137126D01*
X0222424Y0134657D01*
X0223041Y0134040D01*
X0224275Y0134040D01*
X0224892Y0134657D01*
X0224892Y0137126D01*
X0222424Y0137126D02*
X0222424Y0134657D01*
X0251024Y0147426D02*
X0251024Y0150328D01*
X0252475Y0150328D01*
X0252959Y0149844D01*
X0252959Y0148877D01*
X0252475Y0148393D01*
X0251024Y0148393D01*
X0251991Y0148393D02*
X0252959Y0147426D01*
X0253971Y0147909D02*
X0255906Y0149844D01*
X0255906Y0147909D01*
X0255422Y0147426D01*
X0254454Y0147426D01*
X0253971Y0147909D01*
X0253971Y0149844D01*
X0254454Y0150328D01*
X0255422Y0150328D01*
X0255906Y0149844D01*
X0256917Y0149844D02*
X0256917Y0149361D01*
X0257401Y0148877D01*
X0258368Y0148877D01*
X0258852Y0148393D01*
X0258852Y0147909D01*
X0258368Y0147426D01*
X0257401Y0147426D01*
X0256917Y0147909D01*
X0256917Y0149844D02*
X0257401Y0150328D01*
X0258368Y0150328D01*
X0258852Y0149844D01*
X0258881Y0152226D02*
X0260816Y0152226D01*
X0259849Y0152226D02*
X0259849Y0155128D01*
X0258881Y0154161D01*
X0257870Y0154644D02*
X0257386Y0155128D01*
X0256419Y0155128D01*
X0255935Y0154644D01*
X0255935Y0152709D01*
X0256419Y0152226D01*
X0257386Y0152226D01*
X0257870Y0152709D01*
X0254938Y0152226D02*
X0253971Y0152226D01*
X0254454Y0152226D02*
X0254454Y0155128D01*
X0253971Y0155128D02*
X0254938Y0155128D01*
X0254938Y0157026D02*
X0253971Y0157026D01*
X0254454Y0157026D02*
X0254454Y0159928D01*
X0253971Y0159928D02*
X0254938Y0159928D01*
X0255935Y0159444D02*
X0255935Y0157509D01*
X0256419Y0157026D01*
X0257386Y0157026D01*
X0257870Y0157509D01*
X0258881Y0157509D02*
X0260816Y0159444D01*
X0260816Y0157509D01*
X0260333Y0157026D01*
X0259365Y0157026D01*
X0258881Y0157509D01*
X0258881Y0159444D01*
X0259365Y0159928D01*
X0260333Y0159928D01*
X0260816Y0159444D01*
X0257870Y0159444D02*
X0257386Y0159928D01*
X0256419Y0159928D01*
X0255935Y0159444D01*
X0255906Y0161826D02*
X0255906Y0164728D01*
X0256917Y0164728D02*
X0258368Y0164728D01*
X0258852Y0164244D01*
X0258852Y0162309D01*
X0258368Y0161826D01*
X0256917Y0161826D01*
X0256917Y0164728D01*
X0253971Y0164728D02*
X0255906Y0161826D01*
X0253971Y0161826D02*
X0253971Y0164728D01*
X0252959Y0164244D02*
X0252475Y0164728D01*
X0251508Y0164728D01*
X0251024Y0164244D01*
X0251024Y0162309D01*
X0251508Y0161826D01*
X0252475Y0161826D01*
X0252959Y0162309D01*
X0252959Y0163277D01*
X0251991Y0163277D01*
X0251508Y0159928D02*
X0251024Y0159444D01*
X0251024Y0157509D01*
X0251508Y0157026D01*
X0252475Y0157026D01*
X0252959Y0157509D01*
X0252959Y0159444D02*
X0252475Y0159928D01*
X0251508Y0159928D01*
X0251508Y0155128D02*
X0251024Y0154644D01*
X0251024Y0152709D01*
X0251508Y0152226D01*
X0252475Y0152226D01*
X0252959Y0152709D01*
X0252959Y0154644D02*
X0252475Y0155128D01*
X0251508Y0155128D01*
X0267953Y0137743D02*
X0267953Y0135891D01*
X0269188Y0136509D01*
X0269805Y0136509D01*
X0270422Y0135891D01*
X0270422Y0134657D01*
X0269805Y0134040D01*
X0268570Y0134040D01*
X0267953Y0134657D01*
X0267953Y0137743D02*
X0270422Y0137743D01*
X0271636Y0137743D02*
X0271636Y0135891D01*
X0272871Y0136509D01*
X0273488Y0136509D01*
X0274105Y0135891D01*
X0274105Y0134657D01*
X0273488Y0134040D01*
X0272253Y0134040D01*
X0271636Y0134657D01*
X0271636Y0137743D02*
X0274105Y0137743D01*
X0299449Y0137743D02*
X0299449Y0135891D01*
X0300684Y0136509D01*
X0301301Y0136509D01*
X0301918Y0135891D01*
X0301918Y0134657D01*
X0301301Y0134040D01*
X0300066Y0134040D01*
X0299449Y0134657D01*
X0299449Y0137743D02*
X0301918Y0137743D01*
X0303132Y0137126D02*
X0303132Y0136509D01*
X0303750Y0135891D01*
X0304984Y0135891D01*
X0305601Y0135274D01*
X0305601Y0134657D01*
X0304984Y0134040D01*
X0303750Y0134040D01*
X0303132Y0134657D01*
X0303132Y0135274D01*
X0303750Y0135891D01*
X0304984Y0135891D02*
X0305601Y0136509D01*
X0305601Y0137126D01*
X0304984Y0137743D01*
X0303750Y0137743D01*
X0303132Y0137126D01*
X0327008Y0137743D02*
X0327008Y0135891D01*
X0328243Y0136509D01*
X0328860Y0136509D01*
X0329477Y0135891D01*
X0329477Y0134657D01*
X0328860Y0134040D01*
X0327625Y0134040D01*
X0327008Y0134657D01*
X0327008Y0137743D02*
X0329477Y0137743D01*
X0330691Y0137126D02*
X0330691Y0136509D01*
X0331309Y0135891D01*
X0333160Y0135891D01*
X0333160Y0134657D02*
X0333160Y0137126D01*
X0332543Y0137743D01*
X0331309Y0137743D01*
X0330691Y0137126D01*
X0330691Y0134657D02*
X0331309Y0134040D01*
X0332543Y0134040D01*
X0333160Y0134657D01*
X0356536Y0134657D02*
X0357153Y0134040D01*
X0358387Y0134040D01*
X0359005Y0134657D01*
X0359005Y0135274D01*
X0358387Y0135891D01*
X0356536Y0135891D01*
X0356536Y0134657D01*
X0356536Y0135891D02*
X0357770Y0137126D01*
X0359005Y0137743D01*
X0360219Y0137126D02*
X0360836Y0137743D01*
X0362071Y0137743D01*
X0362688Y0137126D01*
X0362688Y0136509D01*
X0360219Y0134040D01*
X0362688Y0134040D01*
X0361453Y0088530D02*
X0360219Y0087296D01*
X0359005Y0087296D02*
X0358387Y0086679D01*
X0359005Y0086062D01*
X0359005Y0085444D01*
X0358387Y0084827D01*
X0357153Y0084827D01*
X0356536Y0085444D01*
X0357770Y0086679D02*
X0358387Y0086679D01*
X0359005Y0087296D02*
X0359005Y0087913D01*
X0358387Y0088530D01*
X0357153Y0088530D01*
X0356536Y0087913D01*
X0360219Y0084827D02*
X0362688Y0084827D01*
X0361453Y0084827D02*
X0361453Y0088530D01*
X0333160Y0087913D02*
X0333160Y0087296D01*
X0332543Y0086679D01*
X0331309Y0086679D01*
X0330691Y0087296D01*
X0330691Y0087913D01*
X0331309Y0088530D01*
X0332543Y0088530D01*
X0333160Y0087913D01*
X0332543Y0086679D02*
X0333160Y0086062D01*
X0333160Y0085444D01*
X0332543Y0084827D01*
X0331309Y0084827D01*
X0330691Y0085444D01*
X0330691Y0086062D01*
X0331309Y0086679D01*
X0329477Y0087296D02*
X0329477Y0087913D01*
X0328860Y0088530D01*
X0327625Y0088530D01*
X0327008Y0087913D01*
X0329477Y0087296D02*
X0327008Y0084827D01*
X0329477Y0084827D01*
X0303633Y0087913D02*
X0301164Y0085444D01*
X0301164Y0084827D01*
X0299949Y0084827D02*
X0297481Y0084827D01*
X0299949Y0087296D01*
X0299949Y0087913D01*
X0299332Y0088530D01*
X0298098Y0088530D01*
X0297481Y0087913D01*
X0301164Y0088530D02*
X0303633Y0088530D01*
X0303633Y0087913D01*
X0283948Y0088530D02*
X0281479Y0088530D01*
X0281479Y0086679D01*
X0282713Y0087296D01*
X0283330Y0087296D01*
X0283948Y0086679D01*
X0283948Y0085444D01*
X0283330Y0084827D01*
X0282096Y0084827D01*
X0281479Y0085444D01*
X0280264Y0084827D02*
X0277796Y0084827D01*
X0280264Y0087296D01*
X0280264Y0087913D01*
X0279647Y0088530D01*
X0278413Y0088530D01*
X0277796Y0087913D01*
X0297481Y0252150D02*
X0299949Y0254619D01*
X0299949Y0255236D01*
X0299332Y0255853D01*
X0298098Y0255853D01*
X0297481Y0255236D01*
X0297481Y0252150D02*
X0299949Y0252150D01*
X0301164Y0252767D02*
X0301781Y0252150D01*
X0303015Y0252150D01*
X0303633Y0252767D01*
X0303633Y0254002D01*
X0303015Y0254619D01*
X0302398Y0254619D01*
X0301164Y0254002D01*
X0301164Y0255853D01*
X0303633Y0255853D01*
X0300564Y0258838D02*
X0301181Y0259455D01*
X0301181Y0260689D01*
X0300564Y0261307D01*
X0301181Y0262521D02*
X0301181Y0263755D01*
X0301181Y0263138D02*
X0297478Y0263138D01*
X0297478Y0262521D02*
X0297478Y0263755D01*
X0298095Y0264976D02*
X0300564Y0264976D01*
X0301181Y0265594D01*
X0301181Y0266828D01*
X0300564Y0267445D01*
X0301798Y0268660D02*
X0301798Y0271128D01*
X0301181Y0272343D02*
X0297478Y0272343D01*
X0297478Y0274194D01*
X0298095Y0274812D01*
X0299329Y0274812D01*
X0299946Y0274194D01*
X0299946Y0272343D01*
X0300564Y0276026D02*
X0301181Y0276026D01*
X0300564Y0276026D02*
X0298095Y0278495D01*
X0297478Y0278495D01*
X0297478Y0276026D01*
X0291338Y0276026D02*
X0291338Y0278495D01*
X0291338Y0277260D02*
X0287635Y0277260D01*
X0288869Y0276026D01*
X0288252Y0274812D02*
X0289487Y0274812D01*
X0290104Y0274194D01*
X0290104Y0272343D01*
X0291338Y0272343D02*
X0287635Y0272343D01*
X0287635Y0274194D01*
X0288252Y0274812D01*
X0291955Y0271128D02*
X0291955Y0268660D01*
X0290721Y0267445D02*
X0291338Y0266828D01*
X0291338Y0265594D01*
X0290721Y0264976D01*
X0288252Y0264976D01*
X0287635Y0265594D01*
X0287635Y0266828D01*
X0288252Y0267445D01*
X0287635Y0263755D02*
X0287635Y0262521D01*
X0287635Y0263138D02*
X0291338Y0263138D01*
X0291338Y0262521D02*
X0291338Y0263755D01*
X0290721Y0261307D02*
X0291338Y0260689D01*
X0291338Y0259455D01*
X0290721Y0258838D01*
X0288252Y0258838D01*
X0287635Y0259455D01*
X0287635Y0260689D01*
X0288252Y0261307D01*
X0281496Y0261039D02*
X0277793Y0261039D01*
X0277793Y0262891D01*
X0278410Y0263508D01*
X0279644Y0263508D01*
X0280261Y0262891D01*
X0280261Y0261039D01*
X0280261Y0262274D02*
X0281496Y0263508D01*
X0281496Y0264723D02*
X0281496Y0267191D01*
X0281496Y0268406D02*
X0279027Y0268406D01*
X0277793Y0269640D01*
X0279027Y0270875D01*
X0281496Y0270875D01*
X0281496Y0272089D02*
X0277793Y0272089D01*
X0277793Y0273940D01*
X0278410Y0274558D01*
X0280878Y0274558D01*
X0281496Y0273940D01*
X0281496Y0272089D01*
X0279644Y0270875D02*
X0279644Y0268406D01*
X0277793Y0267191D02*
X0277793Y0264723D01*
X0281496Y0264723D01*
X0279644Y0264723D02*
X0279644Y0265957D01*
X0271653Y0266801D02*
X0271036Y0266183D01*
X0271653Y0266801D02*
X0271653Y0268035D01*
X0271036Y0268652D01*
X0270419Y0268652D01*
X0269802Y0268035D01*
X0269802Y0267418D01*
X0269802Y0268035D02*
X0269184Y0268652D01*
X0268567Y0268652D01*
X0267950Y0268035D01*
X0267950Y0266801D01*
X0268567Y0266183D01*
X0268567Y0264969D02*
X0267950Y0264352D01*
X0267950Y0262500D01*
X0271653Y0262500D01*
X0271653Y0264352D01*
X0271036Y0264969D01*
X0268567Y0264969D01*
X0261811Y0264352D02*
X0261811Y0262500D01*
X0258107Y0262500D01*
X0258107Y0264352D01*
X0258725Y0264969D01*
X0261193Y0264969D01*
X0261811Y0264352D01*
X0261811Y0266183D02*
X0259342Y0268652D01*
X0258725Y0268652D01*
X0258107Y0268035D01*
X0258107Y0266801D01*
X0258725Y0266183D01*
X0261811Y0266183D02*
X0261811Y0268652D01*
X0251968Y0268652D02*
X0251968Y0266183D01*
X0251968Y0267418D02*
X0248265Y0267418D01*
X0249499Y0266183D01*
X0248882Y0264969D02*
X0248265Y0264352D01*
X0248265Y0262500D01*
X0251968Y0262500D01*
X0251968Y0264352D01*
X0251351Y0264969D01*
X0248882Y0264969D01*
X0242126Y0264352D02*
X0242126Y0262500D01*
X0238422Y0262500D01*
X0238422Y0264352D01*
X0239040Y0264969D01*
X0241508Y0264969D01*
X0242126Y0264352D01*
X0241508Y0266183D02*
X0242126Y0266801D01*
X0242126Y0268035D01*
X0241508Y0268652D01*
X0239040Y0268652D01*
X0241508Y0266183D01*
X0239040Y0266183D01*
X0238422Y0266801D01*
X0238422Y0268035D01*
X0239040Y0268652D01*
X0232283Y0268769D02*
X0231666Y0268152D01*
X0229197Y0268152D01*
X0228580Y0268769D01*
X0228580Y0270003D01*
X0229197Y0270621D01*
X0231666Y0270621D01*
X0232283Y0270003D01*
X0232283Y0268769D01*
X0231049Y0269386D02*
X0232283Y0270621D01*
X0232283Y0266938D02*
X0231049Y0265703D01*
X0231049Y0266320D02*
X0231049Y0264469D01*
X0232283Y0264469D02*
X0228580Y0264469D01*
X0228580Y0266320D01*
X0229197Y0266938D01*
X0230431Y0266938D01*
X0231049Y0266320D01*
X0232283Y0263248D02*
X0232283Y0262013D01*
X0232283Y0262630D02*
X0228580Y0262630D01*
X0228580Y0262013D02*
X0228580Y0263248D01*
X0222441Y0262500D02*
X0219972Y0262500D01*
X0218737Y0263735D01*
X0219972Y0264969D01*
X0222441Y0264969D01*
X0221823Y0266183D02*
X0219355Y0268652D01*
X0221823Y0268652D01*
X0222441Y0268035D01*
X0222441Y0266801D01*
X0221823Y0266183D01*
X0219355Y0266183D01*
X0218737Y0266801D01*
X0218737Y0268035D01*
X0219355Y0268652D01*
X0220589Y0264969D02*
X0220589Y0262500D01*
X0212598Y0262500D02*
X0210129Y0262500D01*
X0208895Y0263735D01*
X0210129Y0264969D01*
X0212598Y0264969D01*
X0212598Y0266183D02*
X0212598Y0268652D01*
X0212598Y0267418D02*
X0208895Y0267418D01*
X0210129Y0266183D01*
X0210746Y0264969D02*
X0210746Y0262500D01*
X0202756Y0262500D02*
X0200287Y0262500D01*
X0199052Y0263735D01*
X0200287Y0264969D01*
X0202756Y0264969D01*
X0202756Y0266183D02*
X0200287Y0268652D01*
X0199670Y0268652D01*
X0199052Y0268035D01*
X0199052Y0266801D01*
X0199670Y0266183D01*
X0200904Y0264969D02*
X0200904Y0262500D01*
X0202756Y0266183D02*
X0202756Y0268652D01*
X0192913Y0268035D02*
X0192913Y0266801D01*
X0192296Y0266183D01*
X0192913Y0264969D02*
X0190444Y0264969D01*
X0189210Y0263735D01*
X0190444Y0262500D01*
X0192913Y0262500D01*
X0191061Y0262500D02*
X0191061Y0264969D01*
X0189827Y0266183D02*
X0189210Y0266801D01*
X0189210Y0268035D01*
X0189827Y0268652D01*
X0190444Y0268652D01*
X0191061Y0268035D01*
X0191679Y0268652D01*
X0192296Y0268652D01*
X0192913Y0268035D01*
X0191061Y0268035D02*
X0191061Y0267418D01*
X0183070Y0268035D02*
X0179367Y0268035D01*
X0181219Y0266183D01*
X0181219Y0268652D01*
X0181219Y0264969D02*
X0181219Y0262500D01*
X0180602Y0262500D02*
X0179367Y0263735D01*
X0180602Y0264969D01*
X0183070Y0264969D01*
X0183070Y0262500D02*
X0180602Y0262500D01*
X0173228Y0262500D02*
X0170759Y0262500D01*
X0169525Y0263735D01*
X0170759Y0264969D01*
X0173228Y0264969D01*
X0172611Y0266183D02*
X0173228Y0266801D01*
X0173228Y0268035D01*
X0172611Y0268652D01*
X0171376Y0268652D01*
X0170759Y0268035D01*
X0170759Y0267418D01*
X0171376Y0266183D01*
X0169525Y0266183D01*
X0169525Y0268652D01*
X0171376Y0264969D02*
X0171376Y0262500D01*
X0163385Y0262500D02*
X0160917Y0262500D01*
X0159682Y0263735D01*
X0160917Y0264969D01*
X0163385Y0264969D01*
X0162768Y0266183D02*
X0163385Y0266801D01*
X0163385Y0268035D01*
X0162768Y0268652D01*
X0162151Y0268652D01*
X0161534Y0268035D01*
X0161534Y0266183D01*
X0162768Y0266183D01*
X0161534Y0266183D02*
X0160299Y0267418D01*
X0159682Y0268652D01*
X0161534Y0264969D02*
X0161534Y0262500D01*
X0153543Y0262500D02*
X0151074Y0262500D01*
X0149840Y0263735D01*
X0151074Y0264969D01*
X0153543Y0264969D01*
X0153543Y0266183D02*
X0152926Y0266183D01*
X0150457Y0268652D01*
X0149840Y0268652D01*
X0149840Y0266183D01*
X0151691Y0264969D02*
X0151691Y0262500D01*
X0151077Y0255853D02*
X0151077Y0252150D01*
X0149843Y0252150D02*
X0152312Y0252150D01*
X0153526Y0252767D02*
X0155995Y0255236D01*
X0155995Y0252767D01*
X0155378Y0252150D01*
X0154143Y0252150D01*
X0153526Y0252767D01*
X0153526Y0255236D01*
X0154143Y0255853D01*
X0155378Y0255853D01*
X0155995Y0255236D01*
X0151077Y0255853D02*
X0149843Y0254619D01*
X0143700Y0262500D02*
X0141232Y0262500D01*
X0139997Y0263735D01*
X0141232Y0264969D01*
X0143700Y0264969D01*
X0143083Y0266183D02*
X0143700Y0266801D01*
X0143700Y0268035D01*
X0143083Y0268652D01*
X0142466Y0268652D01*
X0141849Y0268035D01*
X0141849Y0266801D01*
X0141232Y0266183D01*
X0140614Y0266183D01*
X0139997Y0266801D01*
X0139997Y0268035D01*
X0140614Y0268652D01*
X0141232Y0268652D01*
X0141849Y0268035D01*
X0141849Y0266801D02*
X0142466Y0266183D01*
X0143083Y0266183D01*
X0141849Y0264969D02*
X0141849Y0262500D01*
X0133858Y0262500D02*
X0131389Y0262500D01*
X0130155Y0263735D01*
X0131389Y0264969D01*
X0133858Y0264969D01*
X0133241Y0266183D02*
X0133858Y0266801D01*
X0133858Y0268035D01*
X0133241Y0268652D01*
X0130772Y0268652D01*
X0130155Y0268035D01*
X0130155Y0266801D01*
X0130772Y0266183D01*
X0131389Y0266183D01*
X0132006Y0266801D01*
X0132006Y0268652D01*
X0132006Y0264969D02*
X0132006Y0262500D01*
X0124015Y0263254D02*
X0121547Y0263254D01*
X0120312Y0262020D01*
X0121547Y0260786D01*
X0124015Y0260786D01*
X0122164Y0260786D02*
X0122164Y0263254D01*
X0121547Y0264469D02*
X0120312Y0265703D01*
X0124015Y0265703D01*
X0124015Y0264469D02*
X0124015Y0266938D01*
X0123398Y0268152D02*
X0120929Y0270621D01*
X0123398Y0270621D01*
X0124015Y0270003D01*
X0124015Y0268769D01*
X0123398Y0268152D01*
X0120929Y0268152D01*
X0120312Y0268769D01*
X0120312Y0270003D01*
X0120929Y0270621D01*
X0114173Y0270621D02*
X0114173Y0268152D01*
X0114173Y0266938D02*
X0114173Y0264469D01*
X0114173Y0263254D02*
X0111704Y0263254D01*
X0110470Y0262020D01*
X0111704Y0260786D01*
X0114173Y0260786D01*
X0112321Y0260786D02*
X0112321Y0263254D01*
X0111704Y0264469D02*
X0110470Y0265703D01*
X0114173Y0265703D01*
X0111704Y0268152D02*
X0110470Y0269386D01*
X0114173Y0269386D01*
X0104330Y0268906D02*
X0100627Y0268906D01*
X0100627Y0270120D02*
X0100627Y0271972D01*
X0101244Y0272589D01*
X0103713Y0272589D01*
X0104330Y0271972D01*
X0104330Y0270120D01*
X0100627Y0270120D01*
X0100627Y0266437D02*
X0104330Y0268906D01*
X0104330Y0266437D02*
X0100627Y0266437D01*
X0101244Y0265223D02*
X0100627Y0264606D01*
X0100627Y0263371D01*
X0101244Y0262754D01*
X0103713Y0262754D01*
X0104330Y0263371D01*
X0104330Y0264606D01*
X0103713Y0265223D01*
X0102479Y0265223D01*
X0102479Y0263988D01*
X0103099Y0255853D02*
X0100630Y0255853D01*
X0100630Y0254002D01*
X0101865Y0254619D01*
X0102482Y0254619D01*
X0103099Y0254002D01*
X0103099Y0252767D01*
X0102482Y0252150D01*
X0101248Y0252150D01*
X0100630Y0252767D01*
X0156339Y0303922D02*
X0158808Y0303922D01*
X0157573Y0303922D02*
X0157573Y0307625D01*
X0156339Y0306390D01*
X0160022Y0305773D02*
X0160022Y0304539D01*
X0160639Y0303922D01*
X0161874Y0303922D01*
X0162491Y0304539D01*
X0162491Y0305156D01*
X0161874Y0305773D01*
X0160022Y0305773D01*
X0161257Y0307008D01*
X0162491Y0307625D01*
X0162271Y0312189D02*
X0161654Y0312807D01*
X0162271Y0312189D02*
X0163506Y0312189D01*
X0164123Y0312807D01*
X0164123Y0313424D01*
X0163506Y0314041D01*
X0162888Y0314041D01*
X0163506Y0314041D02*
X0164123Y0314658D01*
X0164123Y0315275D01*
X0163506Y0315893D01*
X0162271Y0315893D01*
X0161654Y0315275D01*
X0165337Y0314658D02*
X0166571Y0315893D01*
X0166571Y0312189D01*
X0165337Y0312189D02*
X0167806Y0312189D01*
X0162688Y0319276D02*
X0160219Y0319276D01*
X0162688Y0321745D01*
X0162688Y0322362D01*
X0162071Y0322979D01*
X0160836Y0322979D01*
X0160219Y0322362D01*
X0159005Y0322362D02*
X0159005Y0321745D01*
X0158387Y0321128D01*
X0159005Y0320510D01*
X0159005Y0319893D01*
X0158387Y0319276D01*
X0157153Y0319276D01*
X0156536Y0319893D01*
X0157770Y0321128D02*
X0158387Y0321128D01*
X0159005Y0322362D02*
X0158387Y0322979D01*
X0157153Y0322979D01*
X0156536Y0322362D01*
X0159619Y0328922D02*
X0163322Y0328922D01*
X0162088Y0330156D01*
X0163322Y0331390D01*
X0159619Y0331390D01*
X0159619Y0332605D02*
X0159619Y0334456D01*
X0160236Y0335074D01*
X0161471Y0335074D01*
X0162088Y0334456D01*
X0162088Y0332605D01*
X0162088Y0333839D02*
X0163322Y0335074D01*
X0163322Y0336288D02*
X0163322Y0337522D01*
X0163322Y0336905D02*
X0159619Y0336905D01*
X0159619Y0336288D02*
X0159619Y0337522D01*
X0159619Y0338743D02*
X0159619Y0341212D01*
X0159619Y0342427D02*
X0163322Y0342427D01*
X0163322Y0344895D01*
X0161471Y0343661D02*
X0161471Y0342427D01*
X0159619Y0342427D02*
X0159619Y0344895D01*
X0159619Y0339978D02*
X0163322Y0339978D01*
X0169462Y0340362D02*
X0169462Y0339127D01*
X0170079Y0338510D01*
X0172548Y0338510D01*
X0173165Y0339127D01*
X0173165Y0340362D01*
X0172548Y0340979D01*
X0172548Y0342193D02*
X0173165Y0342811D01*
X0173165Y0344045D01*
X0172548Y0344662D01*
X0172548Y0342193D02*
X0170079Y0342193D01*
X0169462Y0342811D01*
X0169462Y0344045D01*
X0170079Y0344662D01*
X0170079Y0340979D02*
X0169462Y0340362D01*
X0169462Y0337296D02*
X0171931Y0337296D01*
X0173165Y0336062D01*
X0171931Y0334827D01*
X0169462Y0334827D01*
X0163322Y0332605D02*
X0159619Y0332605D01*
X0153480Y0332859D02*
X0151011Y0332859D01*
X0149777Y0334093D01*
X0151011Y0335327D01*
X0153480Y0335327D01*
X0153480Y0336542D02*
X0153480Y0338393D01*
X0152863Y0339011D01*
X0150394Y0339011D01*
X0149777Y0338393D01*
X0149777Y0336542D01*
X0153480Y0336542D01*
X0151628Y0335327D02*
X0151628Y0332859D01*
X0151011Y0340225D02*
X0149777Y0341459D01*
X0153480Y0341459D01*
X0153480Y0340225D02*
X0153480Y0342694D01*
X0153480Y0343908D02*
X0151011Y0346377D01*
X0150394Y0346377D01*
X0149777Y0345760D01*
X0149777Y0344525D01*
X0150394Y0343908D01*
X0153480Y0343908D02*
X0153480Y0346377D01*
X0143637Y0344045D02*
X0143637Y0342193D01*
X0139934Y0342193D01*
X0139934Y0344045D01*
X0140551Y0344662D01*
X0143020Y0344662D01*
X0143637Y0344045D01*
X0143637Y0340979D02*
X0139934Y0340979D01*
X0139934Y0338510D02*
X0143637Y0340979D01*
X0143637Y0338510D02*
X0139934Y0338510D01*
X0140551Y0337296D02*
X0139934Y0336679D01*
X0139934Y0335444D01*
X0140551Y0334827D01*
X0143020Y0334827D01*
X0143637Y0335444D01*
X0143637Y0336679D01*
X0143020Y0337296D01*
X0141786Y0337296D01*
X0141786Y0336062D01*
X0133795Y0336542D02*
X0133795Y0338393D01*
X0133178Y0339011D01*
X0130709Y0339011D01*
X0130092Y0338393D01*
X0130092Y0336542D01*
X0133795Y0336542D01*
X0133795Y0335327D02*
X0131326Y0335327D01*
X0130092Y0334093D01*
X0131326Y0332859D01*
X0133795Y0332859D01*
X0131943Y0332859D02*
X0131943Y0335327D01*
X0131326Y0340225D02*
X0130092Y0341459D01*
X0133795Y0341459D01*
X0133795Y0340225D02*
X0133795Y0342694D01*
X0133178Y0343908D02*
X0133795Y0344525D01*
X0133795Y0345760D01*
X0133178Y0346377D01*
X0132560Y0346377D01*
X0131943Y0345760D01*
X0131943Y0345142D01*
X0131943Y0345760D02*
X0131326Y0346377D01*
X0130709Y0346377D01*
X0130092Y0345760D01*
X0130092Y0344525D01*
X0130709Y0343908D01*
X0123952Y0342694D02*
X0123952Y0340225D01*
X0123952Y0341459D02*
X0120249Y0341459D01*
X0121484Y0340225D01*
X0120866Y0339011D02*
X0120249Y0338393D01*
X0120249Y0336542D01*
X0123952Y0336542D01*
X0123952Y0338393D01*
X0123335Y0339011D01*
X0120866Y0339011D01*
X0121484Y0335327D02*
X0123952Y0335327D01*
X0122101Y0335327D02*
X0122101Y0332859D01*
X0121484Y0332859D02*
X0120249Y0334093D01*
X0121484Y0335327D01*
X0121484Y0332859D02*
X0123952Y0332859D01*
X0114110Y0332859D02*
X0111641Y0332859D01*
X0110407Y0334093D01*
X0111641Y0335327D01*
X0114110Y0335327D01*
X0114110Y0336542D02*
X0114110Y0338393D01*
X0113493Y0339011D01*
X0111024Y0339011D01*
X0110407Y0338393D01*
X0110407Y0336542D01*
X0114110Y0336542D01*
X0112258Y0335327D02*
X0112258Y0332859D01*
X0111641Y0340225D02*
X0110407Y0341459D01*
X0114110Y0341459D01*
X0114110Y0340225D02*
X0114110Y0342694D01*
X0113493Y0343908D02*
X0114110Y0344525D01*
X0114110Y0345760D01*
X0113493Y0346377D01*
X0112258Y0346377D01*
X0111641Y0345760D01*
X0111641Y0345142D01*
X0112258Y0343908D01*
X0110407Y0343908D01*
X0110407Y0346377D01*
X0104267Y0344045D02*
X0103650Y0344662D01*
X0101181Y0344662D01*
X0100564Y0344045D01*
X0100564Y0342193D01*
X0104267Y0342193D01*
X0104267Y0344045D01*
X0104267Y0340979D02*
X0100564Y0340979D01*
X0100564Y0338510D02*
X0104267Y0340979D01*
X0104267Y0338510D02*
X0100564Y0338510D01*
X0101181Y0337296D02*
X0100564Y0336679D01*
X0100564Y0335444D01*
X0101181Y0334827D01*
X0103650Y0334827D01*
X0104267Y0335444D01*
X0104267Y0336679D01*
X0103650Y0337296D01*
X0102416Y0337296D01*
X0102416Y0336062D01*
X0094425Y0336679D02*
X0093808Y0337296D01*
X0092573Y0337296D01*
X0092573Y0336062D01*
X0091339Y0337296D02*
X0090722Y0336679D01*
X0090722Y0335444D01*
X0091339Y0334827D01*
X0093808Y0334827D01*
X0094425Y0335444D01*
X0094425Y0336679D01*
X0094425Y0338510D02*
X0090722Y0338510D01*
X0094425Y0340979D01*
X0090722Y0340979D01*
X0090722Y0342193D02*
X0090722Y0344045D01*
X0091339Y0344662D01*
X0093808Y0344662D01*
X0094425Y0344045D01*
X0094425Y0342193D01*
X0090722Y0342193D01*
X0087351Y0346638D02*
X0084882Y0346638D01*
X0086117Y0346638D02*
X0086117Y0350341D01*
X0084882Y0349107D01*
X0120249Y0345760D02*
X0122101Y0343908D01*
X0122101Y0346377D01*
X0123952Y0345760D02*
X0120249Y0345760D01*
X0162888Y0299160D02*
X0162888Y0295457D01*
X0161654Y0295457D02*
X0164123Y0295457D01*
X0165337Y0296074D02*
X0165954Y0295457D01*
X0167189Y0295457D01*
X0167806Y0296074D01*
X0167806Y0297309D01*
X0167189Y0297926D01*
X0166571Y0297926D01*
X0165337Y0297309D01*
X0165337Y0299160D01*
X0167806Y0299160D01*
X0162888Y0299160D02*
X0161654Y0297926D01*
X0179304Y0332859D02*
X0179304Y0334710D01*
X0179922Y0335327D01*
X0181156Y0335327D01*
X0181773Y0334710D01*
X0181773Y0332859D01*
X0181773Y0334093D02*
X0183007Y0335327D01*
X0183007Y0336542D02*
X0183007Y0339011D01*
X0183007Y0340225D02*
X0180539Y0340225D01*
X0179304Y0341459D01*
X0180539Y0342694D01*
X0183007Y0342694D01*
X0183007Y0343908D02*
X0183007Y0345760D01*
X0182390Y0346377D01*
X0179922Y0346377D01*
X0179304Y0345760D01*
X0179304Y0343908D01*
X0183007Y0343908D01*
X0181156Y0342694D02*
X0181156Y0340225D01*
X0179304Y0339011D02*
X0179304Y0336542D01*
X0183007Y0336542D01*
X0181156Y0336542D02*
X0181156Y0337776D01*
X0183007Y0332859D02*
X0179304Y0332859D01*
X0189147Y0334093D02*
X0190381Y0335327D01*
X0192850Y0335327D01*
X0192850Y0336542D02*
X0192850Y0338393D01*
X0192233Y0339011D01*
X0189764Y0339011D01*
X0189147Y0338393D01*
X0189147Y0336542D01*
X0192850Y0336542D01*
X0190998Y0335327D02*
X0190998Y0332859D01*
X0190381Y0332859D02*
X0189147Y0334093D01*
X0190381Y0332859D02*
X0192850Y0332859D01*
X0198989Y0334093D02*
X0200224Y0335327D01*
X0202693Y0335327D01*
X0202693Y0336542D02*
X0202693Y0338393D01*
X0202075Y0339011D01*
X0199607Y0339011D01*
X0198989Y0338393D01*
X0198989Y0336542D01*
X0202693Y0336542D01*
X0200841Y0335327D02*
X0200841Y0332859D01*
X0200224Y0332859D02*
X0202693Y0332859D01*
X0200224Y0332859D02*
X0198989Y0334093D01*
X0200224Y0340225D02*
X0198989Y0341459D01*
X0202693Y0341459D01*
X0202693Y0340225D02*
X0202693Y0342694D01*
X0202075Y0343908D02*
X0199607Y0346377D01*
X0202075Y0346377D01*
X0202693Y0345760D01*
X0202693Y0344525D01*
X0202075Y0343908D01*
X0199607Y0343908D01*
X0198989Y0344525D01*
X0198989Y0345760D01*
X0199607Y0346377D01*
X0192850Y0346377D02*
X0192850Y0343908D01*
X0192850Y0342694D02*
X0192850Y0340225D01*
X0192850Y0341459D02*
X0189147Y0341459D01*
X0190381Y0340225D01*
X0190381Y0343908D02*
X0189147Y0345142D01*
X0192850Y0345142D01*
X0208832Y0344162D02*
X0211301Y0344162D01*
X0212535Y0345396D01*
X0211301Y0346631D01*
X0208832Y0346631D01*
X0209449Y0342948D02*
X0208832Y0342330D01*
X0208832Y0341096D01*
X0209449Y0340479D01*
X0209449Y0342948D02*
X0210066Y0342948D01*
X0212535Y0340479D01*
X0212535Y0342948D01*
X0212535Y0339264D02*
X0212535Y0336796D01*
X0212535Y0338030D02*
X0208832Y0338030D01*
X0210066Y0336796D01*
X0218674Y0338764D02*
X0222378Y0341233D01*
X0218674Y0341233D01*
X0219292Y0342447D02*
X0221760Y0342447D01*
X0222378Y0343065D01*
X0222378Y0344299D01*
X0221760Y0344916D01*
X0219292Y0344916D02*
X0218674Y0344299D01*
X0218674Y0343065D01*
X0219292Y0342447D01*
X0218674Y0338764D02*
X0222378Y0338764D01*
X0228517Y0338510D02*
X0228517Y0340362D01*
X0229134Y0340979D01*
X0231603Y0340979D01*
X0232220Y0340362D01*
X0232220Y0338510D01*
X0228517Y0338510D01*
X0229751Y0337296D02*
X0228517Y0336062D01*
X0229751Y0334827D01*
X0232220Y0334827D01*
X0230369Y0334827D02*
X0230369Y0337296D01*
X0229751Y0337296D02*
X0232220Y0337296D01*
X0231603Y0342193D02*
X0232220Y0342811D01*
X0232220Y0344045D01*
X0231603Y0344662D01*
X0229134Y0344662D01*
X0228517Y0344045D01*
X0228517Y0342811D01*
X0229134Y0342193D01*
X0229751Y0342193D01*
X0230369Y0342811D01*
X0230369Y0344662D01*
X0238359Y0344045D02*
X0238977Y0344662D01*
X0239594Y0344662D01*
X0240211Y0344045D01*
X0240211Y0342811D01*
X0239594Y0342193D01*
X0238977Y0342193D01*
X0238359Y0342811D01*
X0238359Y0344045D01*
X0240211Y0344045D02*
X0240828Y0344662D01*
X0241445Y0344662D01*
X0242063Y0344045D01*
X0242063Y0342811D01*
X0241445Y0342193D01*
X0240828Y0342193D01*
X0240211Y0342811D01*
X0238977Y0340979D02*
X0238359Y0340362D01*
X0238359Y0338510D01*
X0242063Y0338510D01*
X0242063Y0340362D01*
X0241445Y0340979D01*
X0238977Y0340979D01*
X0239594Y0337296D02*
X0242063Y0337296D01*
X0240211Y0337296D02*
X0240211Y0334827D01*
X0239594Y0334827D02*
X0238359Y0336062D01*
X0239594Y0337296D01*
X0239594Y0334827D02*
X0242063Y0334827D01*
X0248202Y0334827D02*
X0250671Y0334827D01*
X0251905Y0336062D01*
X0250671Y0337296D01*
X0248202Y0337296D01*
X0248819Y0338510D02*
X0251288Y0338510D01*
X0251905Y0339127D01*
X0251905Y0340362D01*
X0251288Y0340979D01*
X0251288Y0342193D02*
X0251905Y0342811D01*
X0251905Y0344045D01*
X0251288Y0344662D01*
X0251288Y0342193D02*
X0248819Y0342193D01*
X0248202Y0342811D01*
X0248202Y0344045D01*
X0248819Y0344662D01*
X0248819Y0340979D02*
X0248202Y0340362D01*
X0248202Y0339127D01*
X0248819Y0338510D01*
X0258044Y0338510D02*
X0258044Y0339745D01*
X0258044Y0339127D02*
X0261748Y0339127D01*
X0261748Y0338510D02*
X0261748Y0339745D01*
X0261130Y0340966D02*
X0261748Y0341583D01*
X0261748Y0342817D01*
X0261130Y0343435D01*
X0258662Y0343435D02*
X0258044Y0342817D01*
X0258044Y0341583D01*
X0258662Y0340966D01*
X0261130Y0340966D01*
X0261130Y0337296D02*
X0261748Y0336679D01*
X0261748Y0335444D01*
X0261130Y0334827D01*
X0258662Y0334827D01*
X0258044Y0335444D01*
X0258044Y0336679D01*
X0258662Y0337296D01*
X0267887Y0338366D02*
X0268504Y0337749D01*
X0270973Y0337749D01*
X0271590Y0338366D01*
X0271590Y0339600D01*
X0270973Y0340217D01*
X0271590Y0341432D02*
X0271590Y0343901D01*
X0271590Y0345115D02*
X0267887Y0345115D01*
X0269739Y0345732D02*
X0271590Y0347584D01*
X0270356Y0345115D02*
X0267887Y0347584D01*
X0267887Y0341432D02*
X0271590Y0341432D01*
X0268504Y0340217D02*
X0267887Y0339600D01*
X0267887Y0338366D01*
X0272207Y0336534D02*
X0272207Y0334066D01*
X0270356Y0332234D02*
X0270356Y0330382D01*
X0271590Y0330382D02*
X0267887Y0330382D01*
X0267887Y0332234D01*
X0268504Y0332851D01*
X0269739Y0332851D01*
X0270356Y0332234D01*
X0271590Y0329168D02*
X0271590Y0326699D01*
X0267887Y0326699D01*
X0267887Y0329168D01*
X0269739Y0327934D02*
X0269739Y0326699D01*
X0271590Y0325485D02*
X0271590Y0323016D01*
X0267887Y0323016D01*
X0267887Y0325485D01*
X0269739Y0324251D02*
X0269739Y0323016D01*
X0261900Y0321771D02*
X0261900Y0321154D01*
X0261283Y0320537D01*
X0260049Y0320537D01*
X0259432Y0321154D01*
X0259432Y0321771D01*
X0260049Y0322389D01*
X0261283Y0322389D01*
X0261900Y0321771D01*
X0261283Y0320537D02*
X0261900Y0319920D01*
X0261900Y0319303D01*
X0261283Y0318685D01*
X0260049Y0318685D01*
X0259432Y0319303D01*
X0259432Y0319920D01*
X0260049Y0320537D01*
X0258217Y0318685D02*
X0255748Y0318685D01*
X0256983Y0318685D02*
X0256983Y0322389D01*
X0255748Y0321154D01*
X0262048Y0313674D02*
X0263282Y0314908D01*
X0263282Y0311205D01*
X0262048Y0311205D02*
X0264516Y0311205D01*
X0265731Y0311205D02*
X0265731Y0311822D01*
X0268200Y0314291D01*
X0268200Y0314908D01*
X0265731Y0314908D01*
X0257994Y0307625D02*
X0256759Y0307625D01*
X0256142Y0307008D01*
X0257994Y0307625D02*
X0258611Y0307008D01*
X0258611Y0306390D01*
X0256142Y0303922D01*
X0258611Y0303922D01*
X0263282Y0300145D02*
X0262048Y0298910D01*
X0263282Y0300145D02*
X0263282Y0296441D01*
X0262048Y0296441D02*
X0264516Y0296441D01*
X0297478Y0266828D02*
X0297478Y0265594D01*
X0298095Y0264976D01*
X0297478Y0266828D02*
X0298095Y0267445D01*
X0298095Y0261307D02*
X0297478Y0260689D01*
X0297478Y0259455D01*
X0298095Y0258838D01*
X0300564Y0258838D01*
X0307320Y0259325D02*
X0307320Y0261176D01*
X0307937Y0261794D01*
X0309172Y0261794D01*
X0309789Y0261176D01*
X0309789Y0259325D01*
X0309789Y0260559D02*
X0311023Y0261794D01*
X0311023Y0263008D02*
X0311023Y0265477D01*
X0310406Y0266691D02*
X0311023Y0267308D01*
X0311023Y0268543D01*
X0310406Y0269160D01*
X0309789Y0269160D01*
X0309172Y0268543D01*
X0309172Y0267308D01*
X0308554Y0266691D01*
X0307937Y0266691D01*
X0307320Y0267308D01*
X0307320Y0268543D01*
X0307937Y0269160D01*
X0307320Y0270374D02*
X0311023Y0270374D01*
X0311023Y0272843D01*
X0309172Y0271609D02*
X0309172Y0270374D01*
X0307320Y0270374D02*
X0307320Y0272843D01*
X0307320Y0274057D02*
X0307320Y0276526D01*
X0307320Y0275292D02*
X0311023Y0275292D01*
X0319131Y0270003D02*
X0319131Y0268769D01*
X0319748Y0268152D01*
X0322217Y0268152D01*
X0322834Y0268769D01*
X0322834Y0270003D01*
X0322217Y0270621D01*
X0319748Y0270621D02*
X0319131Y0270003D01*
X0319748Y0266938D02*
X0319131Y0266320D01*
X0319131Y0265086D01*
X0319748Y0264469D01*
X0322217Y0264469D01*
X0322834Y0265086D01*
X0322834Y0266320D01*
X0322217Y0266938D01*
X0321600Y0263254D02*
X0319131Y0263254D01*
X0319131Y0260786D02*
X0321600Y0260786D01*
X0322834Y0262020D01*
X0321600Y0263254D01*
X0311023Y0263008D02*
X0307320Y0263008D01*
X0307320Y0265477D01*
X0309172Y0264242D02*
X0309172Y0263008D01*
X0311023Y0259325D02*
X0307320Y0259325D01*
X0254420Y0255236D02*
X0251951Y0252767D01*
X0252568Y0252150D01*
X0253803Y0252150D01*
X0254420Y0252767D01*
X0254420Y0255236D01*
X0253803Y0255853D01*
X0252568Y0255853D01*
X0251951Y0255236D01*
X0251951Y0252767D01*
X0250737Y0252150D02*
X0248268Y0252150D01*
X0250737Y0254619D01*
X0250737Y0255236D01*
X0250120Y0255853D01*
X0248885Y0255853D01*
X0248268Y0255236D01*
X0203239Y0255853D02*
X0200770Y0255853D01*
X0200770Y0254002D01*
X0202005Y0254619D01*
X0202622Y0254619D01*
X0203239Y0254002D01*
X0203239Y0252767D01*
X0202622Y0252150D01*
X0201387Y0252150D01*
X0200770Y0252767D01*
X0199556Y0252150D02*
X0197087Y0252150D01*
X0198321Y0252150D02*
X0198321Y0255853D01*
X0197087Y0254619D01*
X0277730Y0328922D02*
X0277730Y0330773D01*
X0278347Y0331390D01*
X0279581Y0331390D01*
X0280198Y0330773D01*
X0280198Y0328922D01*
X0280198Y0330156D02*
X0281433Y0331390D01*
X0281433Y0332605D02*
X0281433Y0335074D01*
X0280815Y0336288D02*
X0281433Y0336905D01*
X0281433Y0338140D01*
X0280815Y0338757D01*
X0280198Y0338757D01*
X0279581Y0338140D01*
X0279581Y0336905D01*
X0278964Y0336288D01*
X0278347Y0336288D01*
X0277730Y0336905D01*
X0277730Y0338140D01*
X0278347Y0338757D01*
X0277730Y0339971D02*
X0281433Y0339971D01*
X0281433Y0342440D01*
X0279581Y0341205D02*
X0279581Y0339971D01*
X0277730Y0339971D02*
X0277730Y0342440D01*
X0277730Y0343654D02*
X0277730Y0346123D01*
X0277730Y0344889D02*
X0281433Y0344889D01*
X0287572Y0344889D02*
X0291275Y0344889D01*
X0291275Y0342440D02*
X0288806Y0342440D01*
X0287572Y0341205D01*
X0288806Y0339971D01*
X0291275Y0339971D01*
X0290658Y0338757D02*
X0291275Y0338140D01*
X0291275Y0336288D01*
X0287572Y0336288D01*
X0287572Y0338140D01*
X0288189Y0338757D01*
X0290658Y0338757D01*
X0289424Y0339971D02*
X0289424Y0342440D01*
X0287572Y0343654D02*
X0287572Y0346123D01*
X0297415Y0344045D02*
X0297415Y0342193D01*
X0301118Y0342193D01*
X0301118Y0344045D01*
X0300501Y0344662D01*
X0298032Y0344662D01*
X0297415Y0344045D01*
X0297415Y0340979D02*
X0301118Y0340979D01*
X0297415Y0338510D01*
X0301118Y0338510D01*
X0300501Y0337296D02*
X0299266Y0337296D01*
X0299266Y0336062D01*
X0298032Y0337296D02*
X0297415Y0336679D01*
X0297415Y0335444D01*
X0298032Y0334827D01*
X0300501Y0334827D01*
X0301118Y0335444D01*
X0301118Y0336679D01*
X0300501Y0337296D01*
X0307257Y0336679D02*
X0307257Y0335444D01*
X0307874Y0334827D01*
X0310343Y0334827D01*
X0310960Y0335444D01*
X0310960Y0336679D01*
X0310343Y0337296D01*
X0309109Y0337296D01*
X0309109Y0336062D01*
X0307874Y0337296D02*
X0307257Y0336679D01*
X0307257Y0338510D02*
X0310960Y0340979D01*
X0307257Y0340979D01*
X0307257Y0342193D02*
X0307257Y0344045D01*
X0307874Y0344662D01*
X0310343Y0344662D01*
X0310960Y0344045D01*
X0310960Y0342193D01*
X0307257Y0342193D01*
X0307257Y0338510D02*
X0310960Y0338510D01*
X0317493Y0339067D02*
X0317493Y0337215D01*
X0321196Y0337215D01*
X0321196Y0339067D01*
X0320579Y0339684D01*
X0318110Y0339684D01*
X0317493Y0339067D01*
X0317493Y0340898D02*
X0317493Y0342133D01*
X0317493Y0341516D02*
X0321196Y0341516D01*
X0321196Y0342133D02*
X0321196Y0340898D01*
X0320579Y0343354D02*
X0318110Y0343354D01*
X0317493Y0343971D01*
X0317493Y0345205D01*
X0318110Y0345823D01*
X0320579Y0345823D01*
X0321196Y0345205D01*
X0321196Y0343971D01*
X0320579Y0343354D01*
X0326942Y0344045D02*
X0326942Y0342193D01*
X0330645Y0342193D01*
X0330645Y0344045D01*
X0330028Y0344662D01*
X0327559Y0344662D01*
X0326942Y0344045D01*
X0326942Y0340979D02*
X0330645Y0340979D01*
X0326942Y0338510D01*
X0330645Y0338510D01*
X0330028Y0337296D02*
X0328794Y0337296D01*
X0328794Y0336062D01*
X0330028Y0337296D02*
X0330645Y0336679D01*
X0330645Y0335444D01*
X0330028Y0334827D01*
X0327559Y0334827D01*
X0326942Y0335444D01*
X0326942Y0336679D01*
X0327559Y0337296D01*
X0321196Y0335384D02*
X0321196Y0334149D01*
X0320579Y0333532D01*
X0317493Y0333532D01*
X0318728Y0332318D02*
X0321196Y0332318D01*
X0319345Y0332318D02*
X0319345Y0329849D01*
X0318728Y0329849D02*
X0317493Y0331083D01*
X0318728Y0332318D01*
X0318728Y0329849D02*
X0321196Y0329849D01*
X0321196Y0328635D02*
X0321196Y0326166D01*
X0317493Y0326166D01*
X0317493Y0336001D02*
X0320579Y0336001D01*
X0321196Y0335384D01*
X0334882Y0346638D02*
X0337351Y0349107D01*
X0337351Y0349724D01*
X0336734Y0350341D01*
X0335499Y0350341D01*
X0334882Y0349724D01*
X0334882Y0346638D02*
X0337351Y0346638D01*
X0338565Y0347255D02*
X0339183Y0346638D01*
X0340417Y0346638D01*
X0341034Y0347255D01*
X0341034Y0348490D01*
X0340417Y0349107D01*
X0339800Y0349107D01*
X0338565Y0348490D01*
X0338565Y0350341D01*
X0341034Y0350341D01*
X0291892Y0335074D02*
X0291892Y0332605D01*
X0290658Y0331390D02*
X0291275Y0330773D01*
X0291275Y0329539D01*
X0290658Y0328922D01*
X0289424Y0329539D02*
X0289424Y0330773D01*
X0290041Y0331390D01*
X0290658Y0331390D01*
X0289424Y0329539D02*
X0288806Y0328922D01*
X0288189Y0328922D01*
X0287572Y0329539D01*
X0287572Y0330773D01*
X0288189Y0331390D01*
X0281433Y0332605D02*
X0277730Y0332605D01*
X0277730Y0335074D01*
X0279581Y0333839D02*
X0279581Y0332605D01*
X0277730Y0328922D02*
X0281433Y0328922D01*
D16*
X0236981Y0163876D02*
X0235479Y0163876D01*
X0234729Y0163125D01*
X0234729Y0160123D01*
X0235479Y0159372D01*
X0236981Y0159372D01*
X0237731Y0160123D01*
X0237731Y0163125D02*
X0236981Y0163876D01*
X0233161Y0163876D02*
X0231659Y0163876D01*
X0232410Y0163876D02*
X0232410Y0159372D01*
X0231659Y0159372D02*
X0233161Y0159372D01*
X0230058Y0160123D02*
X0229307Y0159372D01*
X0227806Y0159372D01*
X0227056Y0160123D01*
X0227056Y0163125D01*
X0227806Y0163876D01*
X0229307Y0163876D01*
X0230058Y0163125D01*
X0233925Y0060425D02*
X0248925Y0060425D01*
X0241425Y0056425D02*
X0233925Y0056425D01*
X0233925Y0049425D01*
X0241425Y0049425D01*
X0241425Y0056425D01*
X0231582Y0050425D02*
X0231585Y0050667D01*
X0231594Y0050908D01*
X0231609Y0051149D01*
X0231629Y0051390D01*
X0231656Y0051630D01*
X0231689Y0051869D01*
X0231727Y0052108D01*
X0231771Y0052345D01*
X0231821Y0052582D01*
X0231877Y0052817D01*
X0231939Y0053050D01*
X0232006Y0053282D01*
X0232079Y0053513D01*
X0232157Y0053741D01*
X0232242Y0053967D01*
X0232331Y0054192D01*
X0232426Y0054414D01*
X0232527Y0054633D01*
X0232633Y0054851D01*
X0232744Y0055065D01*
X0232861Y0055277D01*
X0232982Y0055485D01*
X0233109Y0055691D01*
X0233241Y0055893D01*
X0233378Y0056093D01*
X0233519Y0056288D01*
X0233665Y0056481D01*
X0233816Y0056669D01*
X0233972Y0056854D01*
X0234132Y0057035D01*
X0234296Y0057212D01*
X0234465Y0057385D01*
X0234638Y0057554D01*
X0234815Y0057718D01*
X0234996Y0057878D01*
X0235181Y0058034D01*
X0235369Y0058185D01*
X0235562Y0058331D01*
X0235757Y0058472D01*
X0235957Y0058609D01*
X0236159Y0058741D01*
X0236365Y0058868D01*
X0236573Y0058989D01*
X0236785Y0059106D01*
X0236999Y0059217D01*
X0237217Y0059323D01*
X0237436Y0059424D01*
X0237658Y0059519D01*
X0237883Y0059608D01*
X0238109Y0059693D01*
X0238337Y0059771D01*
X0238568Y0059844D01*
X0238800Y0059911D01*
X0239033Y0059973D01*
X0239268Y0060029D01*
X0239505Y0060079D01*
X0239742Y0060123D01*
X0239981Y0060161D01*
X0240220Y0060194D01*
X0240460Y0060221D01*
X0240701Y0060241D01*
X0240942Y0060256D01*
X0241183Y0060265D01*
X0241425Y0060268D01*
X0241667Y0060265D01*
X0241908Y0060256D01*
X0242149Y0060241D01*
X0242390Y0060221D01*
X0242630Y0060194D01*
X0242869Y0060161D01*
X0243108Y0060123D01*
X0243345Y0060079D01*
X0243582Y0060029D01*
X0243817Y0059973D01*
X0244050Y0059911D01*
X0244282Y0059844D01*
X0244513Y0059771D01*
X0244741Y0059693D01*
X0244967Y0059608D01*
X0245192Y0059519D01*
X0245414Y0059424D01*
X0245633Y0059323D01*
X0245851Y0059217D01*
X0246065Y0059106D01*
X0246277Y0058989D01*
X0246485Y0058868D01*
X0246691Y0058741D01*
X0246893Y0058609D01*
X0247093Y0058472D01*
X0247288Y0058331D01*
X0247481Y0058185D01*
X0247669Y0058034D01*
X0247854Y0057878D01*
X0248035Y0057718D01*
X0248212Y0057554D01*
X0248385Y0057385D01*
X0248554Y0057212D01*
X0248718Y0057035D01*
X0248878Y0056854D01*
X0249034Y0056669D01*
X0249185Y0056481D01*
X0249331Y0056288D01*
X0249472Y0056093D01*
X0249609Y0055893D01*
X0249741Y0055691D01*
X0249868Y0055485D01*
X0249989Y0055277D01*
X0250106Y0055065D01*
X0250217Y0054851D01*
X0250323Y0054633D01*
X0250424Y0054414D01*
X0250519Y0054192D01*
X0250608Y0053967D01*
X0250693Y0053741D01*
X0250771Y0053513D01*
X0250844Y0053282D01*
X0250911Y0053050D01*
X0250973Y0052817D01*
X0251029Y0052582D01*
X0251079Y0052345D01*
X0251123Y0052108D01*
X0251161Y0051869D01*
X0251194Y0051630D01*
X0251221Y0051390D01*
X0251241Y0051149D01*
X0251256Y0050908D01*
X0251265Y0050667D01*
X0251268Y0050425D01*
X0251265Y0050183D01*
X0251256Y0049942D01*
X0251241Y0049701D01*
X0251221Y0049460D01*
X0251194Y0049220D01*
X0251161Y0048981D01*
X0251123Y0048742D01*
X0251079Y0048505D01*
X0251029Y0048268D01*
X0250973Y0048033D01*
X0250911Y0047800D01*
X0250844Y0047568D01*
X0250771Y0047337D01*
X0250693Y0047109D01*
X0250608Y0046883D01*
X0250519Y0046658D01*
X0250424Y0046436D01*
X0250323Y0046217D01*
X0250217Y0045999D01*
X0250106Y0045785D01*
X0249989Y0045573D01*
X0249868Y0045365D01*
X0249741Y0045159D01*
X0249609Y0044957D01*
X0249472Y0044757D01*
X0249331Y0044562D01*
X0249185Y0044369D01*
X0249034Y0044181D01*
X0248878Y0043996D01*
X0248718Y0043815D01*
X0248554Y0043638D01*
X0248385Y0043465D01*
X0248212Y0043296D01*
X0248035Y0043132D01*
X0247854Y0042972D01*
X0247669Y0042816D01*
X0247481Y0042665D01*
X0247288Y0042519D01*
X0247093Y0042378D01*
X0246893Y0042241D01*
X0246691Y0042109D01*
X0246485Y0041982D01*
X0246277Y0041861D01*
X0246065Y0041744D01*
X0245851Y0041633D01*
X0245633Y0041527D01*
X0245414Y0041426D01*
X0245192Y0041331D01*
X0244967Y0041242D01*
X0244741Y0041157D01*
X0244513Y0041079D01*
X0244282Y0041006D01*
X0244050Y0040939D01*
X0243817Y0040877D01*
X0243582Y0040821D01*
X0243345Y0040771D01*
X0243108Y0040727D01*
X0242869Y0040689D01*
X0242630Y0040656D01*
X0242390Y0040629D01*
X0242149Y0040609D01*
X0241908Y0040594D01*
X0241667Y0040585D01*
X0241425Y0040582D01*
X0241183Y0040585D01*
X0240942Y0040594D01*
X0240701Y0040609D01*
X0240460Y0040629D01*
X0240220Y0040656D01*
X0239981Y0040689D01*
X0239742Y0040727D01*
X0239505Y0040771D01*
X0239268Y0040821D01*
X0239033Y0040877D01*
X0238800Y0040939D01*
X0238568Y0041006D01*
X0238337Y0041079D01*
X0238109Y0041157D01*
X0237883Y0041242D01*
X0237658Y0041331D01*
X0237436Y0041426D01*
X0237217Y0041527D01*
X0236999Y0041633D01*
X0236785Y0041744D01*
X0236573Y0041861D01*
X0236365Y0041982D01*
X0236159Y0042109D01*
X0235957Y0042241D01*
X0235757Y0042378D01*
X0235562Y0042519D01*
X0235369Y0042665D01*
X0235181Y0042816D01*
X0234996Y0042972D01*
X0234815Y0043132D01*
X0234638Y0043296D01*
X0234465Y0043465D01*
X0234296Y0043638D01*
X0234132Y0043815D01*
X0233972Y0043996D01*
X0233816Y0044181D01*
X0233665Y0044369D01*
X0233519Y0044562D01*
X0233378Y0044757D01*
X0233241Y0044957D01*
X0233109Y0045159D01*
X0232982Y0045365D01*
X0232861Y0045573D01*
X0232744Y0045785D01*
X0232633Y0045999D01*
X0232527Y0046217D01*
X0232426Y0046436D01*
X0232331Y0046658D01*
X0232242Y0046883D01*
X0232157Y0047109D01*
X0232079Y0047337D01*
X0232006Y0047568D01*
X0231939Y0047800D01*
X0231877Y0048033D01*
X0231821Y0048268D01*
X0231771Y0048505D01*
X0231727Y0048742D01*
X0231689Y0048981D01*
X0231656Y0049220D01*
X0231629Y0049460D01*
X0231609Y0049701D01*
X0231594Y0049942D01*
X0231585Y0050183D01*
X0231582Y0050425D01*
X0233925Y0060425D02*
X0233682Y0060238D01*
X0233444Y0060046D01*
X0233211Y0059847D01*
X0232983Y0059643D01*
X0232760Y0059434D01*
X0232542Y0059219D01*
X0232329Y0058999D01*
X0232122Y0058774D01*
X0231920Y0058543D01*
X0231724Y0058308D01*
X0231534Y0058068D01*
X0231350Y0057824D01*
X0231172Y0057575D01*
X0231000Y0057321D01*
X0230834Y0057064D01*
X0230674Y0056803D01*
X0230521Y0056538D01*
X0230375Y0056269D01*
X0230235Y0055996D01*
X0230102Y0055721D01*
X0229976Y0055442D01*
X0229856Y0055160D01*
X0229744Y0054875D01*
X0229639Y0054588D01*
X0229540Y0054298D01*
X0229449Y0054006D01*
X0229365Y0053711D01*
X0229288Y0053415D01*
X0229218Y0053117D01*
X0229156Y0052817D01*
X0229101Y0052516D01*
X0229054Y0052214D01*
X0229014Y0051910D01*
X0228981Y0051606D01*
X0228956Y0051301D01*
X0228938Y0050995D01*
X0228928Y0050689D01*
X0228925Y0050383D01*
X0228930Y0050077D01*
X0228942Y0049771D01*
X0228962Y0049465D01*
X0228989Y0049161D01*
X0229024Y0048856D01*
X0229066Y0048553D01*
X0229115Y0048251D01*
X0229172Y0047950D01*
X0229237Y0047651D01*
X0229308Y0047353D01*
X0229387Y0047058D01*
X0229473Y0046764D01*
X0229566Y0046472D01*
X0229667Y0046183D01*
X0229774Y0045896D01*
X0229889Y0045612D01*
X0230010Y0045331D01*
X0230138Y0045053D01*
X0230273Y0044778D01*
X0230415Y0044507D01*
X0230563Y0044239D01*
X0230718Y0043975D01*
X0230879Y0043715D01*
X0231046Y0043459D01*
X0231220Y0043206D01*
X0231400Y0042959D01*
X0231586Y0042715D01*
X0231777Y0042477D01*
X0231975Y0042243D01*
X0232178Y0042014D01*
X0232387Y0041790D01*
X0232601Y0041571D01*
X0232821Y0041358D01*
X0233045Y0041150D01*
X0233275Y0040947D01*
X0233509Y0040751D01*
X0233749Y0040560D01*
X0233992Y0040375D01*
X0234241Y0040196D01*
X0234493Y0040023D01*
X0234750Y0039856D01*
X0235011Y0039696D01*
X0235276Y0039542D01*
X0235544Y0039395D01*
X0235816Y0039254D01*
X0236091Y0039120D01*
X0236370Y0038993D01*
X0236651Y0038872D01*
X0236936Y0038759D01*
X0237223Y0038653D01*
X0237512Y0038553D01*
X0237804Y0038461D01*
X0238098Y0038376D01*
X0238394Y0038298D01*
X0238692Y0038227D01*
X0238992Y0038164D01*
X0239293Y0038108D01*
X0239595Y0038060D01*
X0239898Y0038019D01*
X0240202Y0037985D01*
X0240507Y0037959D01*
X0240813Y0037940D01*
X0241119Y0037929D01*
X0241425Y0037925D01*
X0241731Y0037929D01*
X0242037Y0037940D01*
X0242343Y0037959D01*
X0242648Y0037985D01*
X0242952Y0038019D01*
X0243255Y0038060D01*
X0243557Y0038108D01*
X0243858Y0038164D01*
X0244158Y0038227D01*
X0244456Y0038298D01*
X0244752Y0038376D01*
X0245046Y0038461D01*
X0245338Y0038553D01*
X0245627Y0038653D01*
X0245914Y0038759D01*
X0246199Y0038872D01*
X0246480Y0038993D01*
X0246759Y0039120D01*
X0247034Y0039254D01*
X0247306Y0039395D01*
X0247574Y0039542D01*
X0247839Y0039696D01*
X0248100Y0039856D01*
X0248357Y0040023D01*
X0248609Y0040196D01*
X0248858Y0040375D01*
X0249101Y0040560D01*
X0249341Y0040751D01*
X0249575Y0040947D01*
X0249805Y0041150D01*
X0250029Y0041358D01*
X0250249Y0041571D01*
X0250463Y0041790D01*
X0250672Y0042014D01*
X0250875Y0042243D01*
X0251073Y0042477D01*
X0251264Y0042715D01*
X0251450Y0042959D01*
X0251630Y0043206D01*
X0251804Y0043459D01*
X0251971Y0043715D01*
X0252132Y0043975D01*
X0252287Y0044239D01*
X0252435Y0044507D01*
X0252577Y0044778D01*
X0252712Y0045053D01*
X0252840Y0045331D01*
X0252961Y0045612D01*
X0253076Y0045896D01*
X0253183Y0046183D01*
X0253284Y0046472D01*
X0253377Y0046764D01*
X0253463Y0047058D01*
X0253542Y0047353D01*
X0253613Y0047651D01*
X0253678Y0047950D01*
X0253735Y0048251D01*
X0253784Y0048553D01*
X0253826Y0048856D01*
X0253861Y0049161D01*
X0253888Y0049465D01*
X0253908Y0049771D01*
X0253920Y0050077D01*
X0253925Y0050383D01*
X0253922Y0050689D01*
X0253912Y0050995D01*
X0253894Y0051301D01*
X0253869Y0051606D01*
X0253836Y0051910D01*
X0253796Y0052214D01*
X0253749Y0052516D01*
X0253694Y0052817D01*
X0253632Y0053117D01*
X0253562Y0053415D01*
X0253485Y0053711D01*
X0253401Y0054006D01*
X0253310Y0054298D01*
X0253211Y0054588D01*
X0253106Y0054875D01*
X0252994Y0055160D01*
X0252874Y0055442D01*
X0252748Y0055721D01*
X0252615Y0055996D01*
X0252475Y0056269D01*
X0252329Y0056538D01*
X0252176Y0056803D01*
X0252016Y0057064D01*
X0251850Y0057321D01*
X0251678Y0057575D01*
X0251500Y0057824D01*
X0251316Y0058068D01*
X0251126Y0058308D01*
X0250930Y0058543D01*
X0250728Y0058774D01*
X0250521Y0058999D01*
X0250308Y0059219D01*
X0250090Y0059434D01*
X0249867Y0059643D01*
X0249639Y0059847D01*
X0249406Y0060046D01*
X0249168Y0060238D01*
X0248925Y0060425D01*
X0207525Y0040357D02*
X0206174Y0039006D01*
X0206624Y0038555D02*
X0204823Y0040357D01*
X0204823Y0038555D02*
X0207525Y0038555D01*
X0207074Y0037410D02*
X0207525Y0036960D01*
X0207525Y0036059D01*
X0207074Y0035609D01*
X0205273Y0037410D01*
X0207074Y0037410D01*
X0207074Y0035609D02*
X0205273Y0035609D01*
X0204823Y0036059D01*
X0204823Y0036960D01*
X0205273Y0037410D01*
X0207525Y0034464D02*
X0207525Y0032662D01*
X0207525Y0033563D02*
X0204823Y0033563D01*
X0205723Y0032662D01*
X0186679Y0032809D02*
X0186679Y0031308D01*
X0185929Y0030558D01*
X0183677Y0030558D01*
X0185178Y0030558D02*
X0186679Y0029056D01*
X0183677Y0029056D02*
X0183677Y0033560D01*
X0185929Y0033560D01*
X0186679Y0032809D01*
X0182075Y0033560D02*
X0179073Y0033560D01*
X0179073Y0029056D01*
X0182075Y0029056D01*
X0180574Y0031308D02*
X0179073Y0031308D01*
X0177471Y0029056D02*
X0177471Y0033560D01*
X0174469Y0033560D02*
X0174469Y0029056D01*
X0175970Y0030558D01*
X0177471Y0029056D01*
X0172868Y0029807D02*
X0172868Y0032809D01*
X0172117Y0033560D01*
X0170616Y0033560D01*
X0169865Y0032809D01*
X0169865Y0029807D01*
X0170616Y0029056D01*
X0172117Y0029056D01*
X0172868Y0029807D01*
X0168264Y0031308D02*
X0167513Y0030558D01*
X0165261Y0030558D01*
X0165261Y0029056D02*
X0165261Y0033560D01*
X0167513Y0033560D01*
X0168264Y0032809D01*
X0168264Y0031308D01*
X0089253Y0073980D02*
X0089253Y0076983D01*
X0088502Y0077733D01*
X0086250Y0077733D01*
X0086250Y0073230D01*
X0088502Y0073230D01*
X0089253Y0073980D01*
X0084649Y0073230D02*
X0081646Y0073230D01*
X0081646Y0077733D01*
X0084649Y0077733D01*
X0083147Y0075481D02*
X0081646Y0075481D01*
X0080045Y0073230D02*
X0077042Y0073230D01*
X0077042Y0077733D01*
X0075441Y0076983D02*
X0074690Y0077733D01*
X0073189Y0077733D01*
X0072438Y0076983D01*
X0072438Y0073980D01*
X0073189Y0073230D01*
X0074690Y0073230D01*
X0075441Y0073980D01*
X0075441Y0076983D01*
D17*
X0076366Y0057000D02*
X0071366Y0057000D01*
X0068866Y0054500D01*
X0066366Y0057000D01*
X0061366Y0057000D01*
X0058866Y0054500D01*
X0056366Y0057000D01*
X0051366Y0057000D01*
X0048866Y0054500D01*
X0048866Y0049500D01*
X0051366Y0047000D01*
X0056366Y0047000D01*
X0058866Y0049500D01*
X0061366Y0047000D01*
X0066366Y0047000D01*
X0068866Y0049500D01*
X0071366Y0047000D01*
X0076366Y0047000D01*
X0078866Y0049500D01*
X0081366Y0047000D01*
X0086366Y0047000D01*
X0088866Y0049500D01*
X0088866Y0054500D01*
X0086366Y0057000D01*
X0081366Y0057000D01*
X0078866Y0054500D01*
X0076366Y0057000D01*
X0164465Y0051323D02*
X0164465Y0043276D01*
X0167965Y0035276D02*
X0184965Y0035276D01*
X0188465Y0043276D02*
X0188465Y0051205D01*
X0184965Y0059276D02*
X0167965Y0059276D01*
X0169465Y0047276D02*
X0169467Y0047448D01*
X0169473Y0047619D01*
X0169484Y0047791D01*
X0169499Y0047962D01*
X0169518Y0048133D01*
X0169541Y0048303D01*
X0169568Y0048473D01*
X0169600Y0048642D01*
X0169635Y0048810D01*
X0169675Y0048977D01*
X0169719Y0049143D01*
X0169766Y0049308D01*
X0169818Y0049472D01*
X0169874Y0049634D01*
X0169934Y0049795D01*
X0169998Y0049955D01*
X0170066Y0050113D01*
X0170137Y0050269D01*
X0170212Y0050423D01*
X0170292Y0050576D01*
X0170374Y0050726D01*
X0170461Y0050875D01*
X0170551Y0051021D01*
X0170645Y0051165D01*
X0170742Y0051307D01*
X0170843Y0051446D01*
X0170947Y0051583D01*
X0171054Y0051717D01*
X0171165Y0051848D01*
X0171278Y0051977D01*
X0171395Y0052103D01*
X0171515Y0052226D01*
X0171638Y0052346D01*
X0171764Y0052463D01*
X0171893Y0052576D01*
X0172024Y0052687D01*
X0172158Y0052794D01*
X0172295Y0052898D01*
X0172434Y0052999D01*
X0172576Y0053096D01*
X0172720Y0053190D01*
X0172866Y0053280D01*
X0173015Y0053367D01*
X0173165Y0053449D01*
X0173318Y0053529D01*
X0173472Y0053604D01*
X0173628Y0053675D01*
X0173786Y0053743D01*
X0173946Y0053807D01*
X0174107Y0053867D01*
X0174269Y0053923D01*
X0174433Y0053975D01*
X0174598Y0054022D01*
X0174764Y0054066D01*
X0174931Y0054106D01*
X0175099Y0054141D01*
X0175268Y0054173D01*
X0175438Y0054200D01*
X0175608Y0054223D01*
X0175779Y0054242D01*
X0175950Y0054257D01*
X0176122Y0054268D01*
X0176293Y0054274D01*
X0176465Y0054276D01*
X0176637Y0054274D01*
X0176808Y0054268D01*
X0176980Y0054257D01*
X0177151Y0054242D01*
X0177322Y0054223D01*
X0177492Y0054200D01*
X0177662Y0054173D01*
X0177831Y0054141D01*
X0177999Y0054106D01*
X0178166Y0054066D01*
X0178332Y0054022D01*
X0178497Y0053975D01*
X0178661Y0053923D01*
X0178823Y0053867D01*
X0178984Y0053807D01*
X0179144Y0053743D01*
X0179302Y0053675D01*
X0179458Y0053604D01*
X0179612Y0053529D01*
X0179765Y0053449D01*
X0179915Y0053367D01*
X0180064Y0053280D01*
X0180210Y0053190D01*
X0180354Y0053096D01*
X0180496Y0052999D01*
X0180635Y0052898D01*
X0180772Y0052794D01*
X0180906Y0052687D01*
X0181037Y0052576D01*
X0181166Y0052463D01*
X0181292Y0052346D01*
X0181415Y0052226D01*
X0181535Y0052103D01*
X0181652Y0051977D01*
X0181765Y0051848D01*
X0181876Y0051717D01*
X0181983Y0051583D01*
X0182087Y0051446D01*
X0182188Y0051307D01*
X0182285Y0051165D01*
X0182379Y0051021D01*
X0182469Y0050875D01*
X0182556Y0050726D01*
X0182638Y0050576D01*
X0182718Y0050423D01*
X0182793Y0050269D01*
X0182864Y0050113D01*
X0182932Y0049955D01*
X0182996Y0049795D01*
X0183056Y0049634D01*
X0183112Y0049472D01*
X0183164Y0049308D01*
X0183211Y0049143D01*
X0183255Y0048977D01*
X0183295Y0048810D01*
X0183330Y0048642D01*
X0183362Y0048473D01*
X0183389Y0048303D01*
X0183412Y0048133D01*
X0183431Y0047962D01*
X0183446Y0047791D01*
X0183457Y0047619D01*
X0183463Y0047448D01*
X0183465Y0047276D01*
X0183463Y0047104D01*
X0183457Y0046933D01*
X0183446Y0046761D01*
X0183431Y0046590D01*
X0183412Y0046419D01*
X0183389Y0046249D01*
X0183362Y0046079D01*
X0183330Y0045910D01*
X0183295Y0045742D01*
X0183255Y0045575D01*
X0183211Y0045409D01*
X0183164Y0045244D01*
X0183112Y0045080D01*
X0183056Y0044918D01*
X0182996Y0044757D01*
X0182932Y0044597D01*
X0182864Y0044439D01*
X0182793Y0044283D01*
X0182718Y0044129D01*
X0182638Y0043976D01*
X0182556Y0043826D01*
X0182469Y0043677D01*
X0182379Y0043531D01*
X0182285Y0043387D01*
X0182188Y0043245D01*
X0182087Y0043106D01*
X0181983Y0042969D01*
X0181876Y0042835D01*
X0181765Y0042704D01*
X0181652Y0042575D01*
X0181535Y0042449D01*
X0181415Y0042326D01*
X0181292Y0042206D01*
X0181166Y0042089D01*
X0181037Y0041976D01*
X0180906Y0041865D01*
X0180772Y0041758D01*
X0180635Y0041654D01*
X0180496Y0041553D01*
X0180354Y0041456D01*
X0180210Y0041362D01*
X0180064Y0041272D01*
X0179915Y0041185D01*
X0179765Y0041103D01*
X0179612Y0041023D01*
X0179458Y0040948D01*
X0179302Y0040877D01*
X0179144Y0040809D01*
X0178984Y0040745D01*
X0178823Y0040685D01*
X0178661Y0040629D01*
X0178497Y0040577D01*
X0178332Y0040530D01*
X0178166Y0040486D01*
X0177999Y0040446D01*
X0177831Y0040411D01*
X0177662Y0040379D01*
X0177492Y0040352D01*
X0177322Y0040329D01*
X0177151Y0040310D01*
X0176980Y0040295D01*
X0176808Y0040284D01*
X0176637Y0040278D01*
X0176465Y0040276D01*
X0176293Y0040278D01*
X0176122Y0040284D01*
X0175950Y0040295D01*
X0175779Y0040310D01*
X0175608Y0040329D01*
X0175438Y0040352D01*
X0175268Y0040379D01*
X0175099Y0040411D01*
X0174931Y0040446D01*
X0174764Y0040486D01*
X0174598Y0040530D01*
X0174433Y0040577D01*
X0174269Y0040629D01*
X0174107Y0040685D01*
X0173946Y0040745D01*
X0173786Y0040809D01*
X0173628Y0040877D01*
X0173472Y0040948D01*
X0173318Y0041023D01*
X0173165Y0041103D01*
X0173015Y0041185D01*
X0172866Y0041272D01*
X0172720Y0041362D01*
X0172576Y0041456D01*
X0172434Y0041553D01*
X0172295Y0041654D01*
X0172158Y0041758D01*
X0172024Y0041865D01*
X0171893Y0041976D01*
X0171764Y0042089D01*
X0171638Y0042206D01*
X0171515Y0042326D01*
X0171395Y0042449D01*
X0171278Y0042575D01*
X0171165Y0042704D01*
X0171054Y0042835D01*
X0170947Y0042969D01*
X0170843Y0043106D01*
X0170742Y0043245D01*
X0170645Y0043387D01*
X0170551Y0043531D01*
X0170461Y0043677D01*
X0170374Y0043826D01*
X0170292Y0043976D01*
X0170212Y0044129D01*
X0170137Y0044283D01*
X0170066Y0044439D01*
X0169998Y0044597D01*
X0169934Y0044757D01*
X0169874Y0044918D01*
X0169818Y0045080D01*
X0169766Y0045244D01*
X0169719Y0045409D01*
X0169675Y0045575D01*
X0169635Y0045742D01*
X0169600Y0045910D01*
X0169568Y0046079D01*
X0169541Y0046249D01*
X0169518Y0046419D01*
X0169499Y0046590D01*
X0169484Y0046761D01*
X0169473Y0046933D01*
X0169467Y0047104D01*
X0169465Y0047276D01*
X0199850Y0048654D02*
X0199850Y0023850D01*
X0209299Y0023850D01*
X0209299Y0048654D01*
X0199850Y0048654D01*
X0162685Y0158890D02*
X0153236Y0158890D01*
X0153236Y0183693D01*
X0162685Y0183693D01*
X0162685Y0158890D01*
X0152843Y0158890D02*
X0143394Y0158890D01*
X0143394Y0183693D01*
X0152843Y0183693D01*
X0152843Y0158890D01*
X0142606Y0158890D02*
X0133157Y0158890D01*
X0133157Y0183693D01*
X0142606Y0183693D01*
X0142606Y0158890D01*
D18*
X0226464Y0165937D02*
X0226464Y0145937D01*
D19*
X0028335Y0296882D02*
X0028337Y0296963D01*
X0028343Y0297045D01*
X0028353Y0297126D01*
X0028367Y0297206D01*
X0028384Y0297285D01*
X0028406Y0297364D01*
X0028431Y0297441D01*
X0028460Y0297518D01*
X0028493Y0297592D01*
X0028530Y0297665D01*
X0028569Y0297736D01*
X0028613Y0297805D01*
X0028659Y0297872D01*
X0028709Y0297936D01*
X0028762Y0297998D01*
X0028818Y0298058D01*
X0028876Y0298114D01*
X0028938Y0298168D01*
X0029002Y0298219D01*
X0029068Y0298266D01*
X0029136Y0298310D01*
X0029207Y0298351D01*
X0029279Y0298388D01*
X0029354Y0298422D01*
X0029429Y0298452D01*
X0029507Y0298478D01*
X0029585Y0298501D01*
X0029664Y0298519D01*
X0029744Y0298534D01*
X0029825Y0298545D01*
X0029906Y0298552D01*
X0029988Y0298555D01*
X0030069Y0298554D01*
X0030150Y0298549D01*
X0030231Y0298540D01*
X0030312Y0298527D01*
X0030392Y0298510D01*
X0030470Y0298490D01*
X0030548Y0298465D01*
X0030625Y0298437D01*
X0030700Y0298405D01*
X0030773Y0298370D01*
X0030844Y0298331D01*
X0030914Y0298288D01*
X0030981Y0298243D01*
X0031047Y0298194D01*
X0031109Y0298142D01*
X0031169Y0298086D01*
X0031226Y0298028D01*
X0031281Y0297968D01*
X0031332Y0297904D01*
X0031380Y0297839D01*
X0031425Y0297771D01*
X0031467Y0297701D01*
X0031505Y0297629D01*
X0031540Y0297555D01*
X0031571Y0297480D01*
X0031598Y0297403D01*
X0031621Y0297325D01*
X0031641Y0297246D01*
X0031657Y0297166D01*
X0031669Y0297085D01*
X0031677Y0297004D01*
X0031681Y0296923D01*
X0031681Y0296841D01*
X0031677Y0296760D01*
X0031669Y0296679D01*
X0031657Y0296598D01*
X0031641Y0296518D01*
X0031621Y0296439D01*
X0031598Y0296361D01*
X0031571Y0296284D01*
X0031540Y0296209D01*
X0031505Y0296135D01*
X0031467Y0296063D01*
X0031425Y0295993D01*
X0031380Y0295925D01*
X0031332Y0295860D01*
X0031281Y0295796D01*
X0031226Y0295736D01*
X0031169Y0295678D01*
X0031109Y0295622D01*
X0031047Y0295570D01*
X0030981Y0295521D01*
X0030914Y0295476D01*
X0030845Y0295433D01*
X0030773Y0295394D01*
X0030700Y0295359D01*
X0030625Y0295327D01*
X0030548Y0295299D01*
X0030470Y0295274D01*
X0030392Y0295254D01*
X0030312Y0295237D01*
X0030231Y0295224D01*
X0030150Y0295215D01*
X0030069Y0295210D01*
X0029988Y0295209D01*
X0029906Y0295212D01*
X0029825Y0295219D01*
X0029744Y0295230D01*
X0029664Y0295245D01*
X0029585Y0295263D01*
X0029507Y0295286D01*
X0029429Y0295312D01*
X0029354Y0295342D01*
X0029279Y0295376D01*
X0029207Y0295413D01*
X0029136Y0295454D01*
X0029068Y0295498D01*
X0029002Y0295545D01*
X0028938Y0295596D01*
X0028876Y0295650D01*
X0028818Y0295706D01*
X0028762Y0295766D01*
X0028709Y0295828D01*
X0028659Y0295892D01*
X0028613Y0295959D01*
X0028569Y0296028D01*
X0028530Y0296099D01*
X0028493Y0296172D01*
X0028460Y0296246D01*
X0028431Y0296323D01*
X0028406Y0296400D01*
X0028384Y0296479D01*
X0028367Y0296558D01*
X0028353Y0296638D01*
X0028343Y0296719D01*
X0028337Y0296801D01*
X0028335Y0296882D01*
X0028335Y0311843D02*
X0028337Y0311924D01*
X0028343Y0312006D01*
X0028353Y0312087D01*
X0028367Y0312167D01*
X0028384Y0312246D01*
X0028406Y0312325D01*
X0028431Y0312402D01*
X0028460Y0312479D01*
X0028493Y0312553D01*
X0028530Y0312626D01*
X0028569Y0312697D01*
X0028613Y0312766D01*
X0028659Y0312833D01*
X0028709Y0312897D01*
X0028762Y0312959D01*
X0028818Y0313019D01*
X0028876Y0313075D01*
X0028938Y0313129D01*
X0029002Y0313180D01*
X0029068Y0313227D01*
X0029136Y0313271D01*
X0029207Y0313312D01*
X0029279Y0313349D01*
X0029354Y0313383D01*
X0029429Y0313413D01*
X0029507Y0313439D01*
X0029585Y0313462D01*
X0029664Y0313480D01*
X0029744Y0313495D01*
X0029825Y0313506D01*
X0029906Y0313513D01*
X0029988Y0313516D01*
X0030069Y0313515D01*
X0030150Y0313510D01*
X0030231Y0313501D01*
X0030312Y0313488D01*
X0030392Y0313471D01*
X0030470Y0313451D01*
X0030548Y0313426D01*
X0030625Y0313398D01*
X0030700Y0313366D01*
X0030773Y0313331D01*
X0030844Y0313292D01*
X0030914Y0313249D01*
X0030981Y0313204D01*
X0031047Y0313155D01*
X0031109Y0313103D01*
X0031169Y0313047D01*
X0031226Y0312989D01*
X0031281Y0312929D01*
X0031332Y0312865D01*
X0031380Y0312800D01*
X0031425Y0312732D01*
X0031467Y0312662D01*
X0031505Y0312590D01*
X0031540Y0312516D01*
X0031571Y0312441D01*
X0031598Y0312364D01*
X0031621Y0312286D01*
X0031641Y0312207D01*
X0031657Y0312127D01*
X0031669Y0312046D01*
X0031677Y0311965D01*
X0031681Y0311884D01*
X0031681Y0311802D01*
X0031677Y0311721D01*
X0031669Y0311640D01*
X0031657Y0311559D01*
X0031641Y0311479D01*
X0031621Y0311400D01*
X0031598Y0311322D01*
X0031571Y0311245D01*
X0031540Y0311170D01*
X0031505Y0311096D01*
X0031467Y0311024D01*
X0031425Y0310954D01*
X0031380Y0310886D01*
X0031332Y0310821D01*
X0031281Y0310757D01*
X0031226Y0310697D01*
X0031169Y0310639D01*
X0031109Y0310583D01*
X0031047Y0310531D01*
X0030981Y0310482D01*
X0030914Y0310437D01*
X0030845Y0310394D01*
X0030773Y0310355D01*
X0030700Y0310320D01*
X0030625Y0310288D01*
X0030548Y0310260D01*
X0030470Y0310235D01*
X0030392Y0310215D01*
X0030312Y0310198D01*
X0030231Y0310185D01*
X0030150Y0310176D01*
X0030069Y0310171D01*
X0029988Y0310170D01*
X0029906Y0310173D01*
X0029825Y0310180D01*
X0029744Y0310191D01*
X0029664Y0310206D01*
X0029585Y0310224D01*
X0029507Y0310247D01*
X0029429Y0310273D01*
X0029354Y0310303D01*
X0029279Y0310337D01*
X0029207Y0310374D01*
X0029136Y0310415D01*
X0029068Y0310459D01*
X0029002Y0310506D01*
X0028938Y0310557D01*
X0028876Y0310611D01*
X0028818Y0310667D01*
X0028762Y0310727D01*
X0028709Y0310789D01*
X0028659Y0310853D01*
X0028613Y0310920D01*
X0028569Y0310989D01*
X0028530Y0311060D01*
X0028493Y0311133D01*
X0028460Y0311207D01*
X0028431Y0311284D01*
X0028406Y0311361D01*
X0028384Y0311440D01*
X0028367Y0311519D01*
X0028353Y0311599D01*
X0028343Y0311680D01*
X0028337Y0311762D01*
X0028335Y0311843D01*
M02*
