G75*
%MOIN*%
%OFA0B0*%
%FSLAX25Y25*%
%IPPOS*%
%LPD*%
%AMOC8*
5,1,8,0,0,1.08239X$1,22.5*
%
%ADD10C,0.01000*%
%ADD11C,0.00000*%
D10*
X0013866Y0005937D02*
X0013866Y0207906D01*
X0013868Y0208030D01*
X0013874Y0208153D01*
X0013883Y0208277D01*
X0013897Y0208399D01*
X0013914Y0208522D01*
X0013936Y0208644D01*
X0013961Y0208765D01*
X0013990Y0208885D01*
X0014022Y0209004D01*
X0014059Y0209123D01*
X0014099Y0209240D01*
X0014142Y0209355D01*
X0014190Y0209470D01*
X0014241Y0209582D01*
X0014295Y0209693D01*
X0014353Y0209803D01*
X0014414Y0209910D01*
X0014479Y0210016D01*
X0014547Y0210119D01*
X0014618Y0210220D01*
X0014692Y0210319D01*
X0014769Y0210416D01*
X0014850Y0210510D01*
X0014933Y0210601D01*
X0015019Y0210690D01*
X0015108Y0210776D01*
X0015199Y0210859D01*
X0015293Y0210940D01*
X0015390Y0211017D01*
X0015489Y0211091D01*
X0015590Y0211162D01*
X0015693Y0211230D01*
X0015799Y0211295D01*
X0015906Y0211356D01*
X0016016Y0211414D01*
X0016127Y0211468D01*
X0016239Y0211519D01*
X0016354Y0211567D01*
X0016469Y0211610D01*
X0016586Y0211650D01*
X0016705Y0211687D01*
X0016824Y0211719D01*
X0016944Y0211748D01*
X0017065Y0211773D01*
X0017187Y0211795D01*
X0017310Y0211812D01*
X0017432Y0211826D01*
X0017556Y0211835D01*
X0017679Y0211841D01*
X0017803Y0211843D01*
X0050087Y0211843D01*
X0050087Y0258299D01*
X0016228Y0258299D01*
X0016228Y0276409D01*
X0026071Y0276409D01*
X0026071Y0284283D01*
X0013866Y0284283D01*
X0013866Y0325228D01*
X0016228Y0325228D01*
X0016228Y0350819D01*
X0026071Y0350819D01*
X0026071Y0358693D01*
X0013866Y0358693D01*
X0013866Y0366173D01*
X0037488Y0366173D01*
X0037488Y0374441D01*
X0383945Y0374441D01*
X0383945Y0366173D01*
X0407567Y0366173D01*
X0407567Y0326016D01*
X0394969Y0326016D01*
X0394969Y0318142D01*
X0403630Y0318142D01*
X0403630Y0305150D01*
X0393787Y0305150D01*
X0393787Y0297276D01*
X0403630Y0297276D01*
X0403630Y0277197D01*
X0407567Y0277197D01*
X0407567Y0258299D01*
X0371346Y0258299D01*
X0371346Y0211843D01*
X0394181Y0211843D01*
X0403630Y0202394D01*
X0403630Y0161843D01*
X0407567Y0152394D01*
X0407567Y0017000D01*
X0403866Y0007000D01*
X0403866Y0005937D01*
X0403864Y0005813D01*
X0403858Y0005690D01*
X0403849Y0005566D01*
X0403835Y0005444D01*
X0403818Y0005321D01*
X0403796Y0005199D01*
X0403771Y0005078D01*
X0403742Y0004958D01*
X0403710Y0004839D01*
X0403673Y0004720D01*
X0403633Y0004603D01*
X0403590Y0004488D01*
X0403542Y0004373D01*
X0403491Y0004261D01*
X0403437Y0004150D01*
X0403379Y0004040D01*
X0403318Y0003933D01*
X0403253Y0003827D01*
X0403185Y0003724D01*
X0403114Y0003623D01*
X0403040Y0003524D01*
X0402963Y0003427D01*
X0402882Y0003333D01*
X0402799Y0003242D01*
X0402713Y0003153D01*
X0402624Y0003067D01*
X0402533Y0002984D01*
X0402439Y0002903D01*
X0402342Y0002826D01*
X0402243Y0002752D01*
X0402142Y0002681D01*
X0402039Y0002613D01*
X0401933Y0002548D01*
X0401826Y0002487D01*
X0401716Y0002429D01*
X0401605Y0002375D01*
X0401493Y0002324D01*
X0401378Y0002276D01*
X0401263Y0002233D01*
X0401146Y0002193D01*
X0401027Y0002156D01*
X0400908Y0002124D01*
X0400788Y0002095D01*
X0400667Y0002070D01*
X0400545Y0002048D01*
X0400422Y0002031D01*
X0400300Y0002017D01*
X0400176Y0002008D01*
X0400053Y0002002D01*
X0399929Y0002000D01*
X0017803Y0002000D01*
X0017679Y0002002D01*
X0017556Y0002008D01*
X0017432Y0002017D01*
X0017310Y0002031D01*
X0017187Y0002048D01*
X0017065Y0002070D01*
X0016944Y0002095D01*
X0016824Y0002124D01*
X0016705Y0002156D01*
X0016586Y0002193D01*
X0016469Y0002233D01*
X0016354Y0002276D01*
X0016239Y0002324D01*
X0016127Y0002375D01*
X0016016Y0002429D01*
X0015906Y0002487D01*
X0015799Y0002548D01*
X0015693Y0002613D01*
X0015590Y0002681D01*
X0015489Y0002752D01*
X0015390Y0002826D01*
X0015293Y0002903D01*
X0015199Y0002984D01*
X0015108Y0003067D01*
X0015019Y0003153D01*
X0014933Y0003242D01*
X0014850Y0003333D01*
X0014769Y0003427D01*
X0014692Y0003524D01*
X0014618Y0003623D01*
X0014547Y0003724D01*
X0014479Y0003827D01*
X0014414Y0003933D01*
X0014353Y0004040D01*
X0014295Y0004150D01*
X0014241Y0004261D01*
X0014190Y0004373D01*
X0014142Y0004488D01*
X0014099Y0004603D01*
X0014059Y0004720D01*
X0014022Y0004839D01*
X0013990Y0004958D01*
X0013961Y0005078D01*
X0013936Y0005199D01*
X0013914Y0005321D01*
X0013897Y0005444D01*
X0013883Y0005566D01*
X0013874Y0005690D01*
X0013868Y0005813D01*
X0013866Y0005937D01*
X0087882Y0211843D02*
X0087882Y0258299D01*
X0092606Y0258299D01*
X0092606Y0216567D01*
X0328827Y0216567D01*
X0328827Y0258299D01*
X0333551Y0258299D01*
X0333551Y0211843D01*
X0087882Y0211843D01*
D11*
X0028335Y0296882D02*
X0028337Y0296963D01*
X0028343Y0297045D01*
X0028353Y0297126D01*
X0028367Y0297206D01*
X0028384Y0297285D01*
X0028406Y0297364D01*
X0028431Y0297441D01*
X0028460Y0297518D01*
X0028493Y0297592D01*
X0028530Y0297665D01*
X0028569Y0297736D01*
X0028613Y0297805D01*
X0028659Y0297872D01*
X0028709Y0297936D01*
X0028762Y0297998D01*
X0028818Y0298058D01*
X0028876Y0298114D01*
X0028938Y0298168D01*
X0029002Y0298219D01*
X0029068Y0298266D01*
X0029136Y0298310D01*
X0029207Y0298351D01*
X0029279Y0298388D01*
X0029354Y0298422D01*
X0029429Y0298452D01*
X0029507Y0298478D01*
X0029585Y0298501D01*
X0029664Y0298519D01*
X0029744Y0298534D01*
X0029825Y0298545D01*
X0029906Y0298552D01*
X0029988Y0298555D01*
X0030069Y0298554D01*
X0030150Y0298549D01*
X0030231Y0298540D01*
X0030312Y0298527D01*
X0030392Y0298510D01*
X0030470Y0298490D01*
X0030548Y0298465D01*
X0030625Y0298437D01*
X0030700Y0298405D01*
X0030773Y0298370D01*
X0030844Y0298331D01*
X0030914Y0298288D01*
X0030981Y0298243D01*
X0031047Y0298194D01*
X0031109Y0298142D01*
X0031169Y0298086D01*
X0031226Y0298028D01*
X0031281Y0297968D01*
X0031332Y0297904D01*
X0031380Y0297839D01*
X0031425Y0297771D01*
X0031467Y0297701D01*
X0031505Y0297629D01*
X0031540Y0297555D01*
X0031571Y0297480D01*
X0031598Y0297403D01*
X0031621Y0297325D01*
X0031641Y0297246D01*
X0031657Y0297166D01*
X0031669Y0297085D01*
X0031677Y0297004D01*
X0031681Y0296923D01*
X0031681Y0296841D01*
X0031677Y0296760D01*
X0031669Y0296679D01*
X0031657Y0296598D01*
X0031641Y0296518D01*
X0031621Y0296439D01*
X0031598Y0296361D01*
X0031571Y0296284D01*
X0031540Y0296209D01*
X0031505Y0296135D01*
X0031467Y0296063D01*
X0031425Y0295993D01*
X0031380Y0295925D01*
X0031332Y0295860D01*
X0031281Y0295796D01*
X0031226Y0295736D01*
X0031169Y0295678D01*
X0031109Y0295622D01*
X0031047Y0295570D01*
X0030981Y0295521D01*
X0030914Y0295476D01*
X0030845Y0295433D01*
X0030773Y0295394D01*
X0030700Y0295359D01*
X0030625Y0295327D01*
X0030548Y0295299D01*
X0030470Y0295274D01*
X0030392Y0295254D01*
X0030312Y0295237D01*
X0030231Y0295224D01*
X0030150Y0295215D01*
X0030069Y0295210D01*
X0029988Y0295209D01*
X0029906Y0295212D01*
X0029825Y0295219D01*
X0029744Y0295230D01*
X0029664Y0295245D01*
X0029585Y0295263D01*
X0029507Y0295286D01*
X0029429Y0295312D01*
X0029354Y0295342D01*
X0029279Y0295376D01*
X0029207Y0295413D01*
X0029136Y0295454D01*
X0029068Y0295498D01*
X0029002Y0295545D01*
X0028938Y0295596D01*
X0028876Y0295650D01*
X0028818Y0295706D01*
X0028762Y0295766D01*
X0028709Y0295828D01*
X0028659Y0295892D01*
X0028613Y0295959D01*
X0028569Y0296028D01*
X0028530Y0296099D01*
X0028493Y0296172D01*
X0028460Y0296246D01*
X0028431Y0296323D01*
X0028406Y0296400D01*
X0028384Y0296479D01*
X0028367Y0296558D01*
X0028353Y0296638D01*
X0028343Y0296719D01*
X0028337Y0296801D01*
X0028335Y0296882D01*
X0028335Y0311843D02*
X0028337Y0311924D01*
X0028343Y0312006D01*
X0028353Y0312087D01*
X0028367Y0312167D01*
X0028384Y0312246D01*
X0028406Y0312325D01*
X0028431Y0312402D01*
X0028460Y0312479D01*
X0028493Y0312553D01*
X0028530Y0312626D01*
X0028569Y0312697D01*
X0028613Y0312766D01*
X0028659Y0312833D01*
X0028709Y0312897D01*
X0028762Y0312959D01*
X0028818Y0313019D01*
X0028876Y0313075D01*
X0028938Y0313129D01*
X0029002Y0313180D01*
X0029068Y0313227D01*
X0029136Y0313271D01*
X0029207Y0313312D01*
X0029279Y0313349D01*
X0029354Y0313383D01*
X0029429Y0313413D01*
X0029507Y0313439D01*
X0029585Y0313462D01*
X0029664Y0313480D01*
X0029744Y0313495D01*
X0029825Y0313506D01*
X0029906Y0313513D01*
X0029988Y0313516D01*
X0030069Y0313515D01*
X0030150Y0313510D01*
X0030231Y0313501D01*
X0030312Y0313488D01*
X0030392Y0313471D01*
X0030470Y0313451D01*
X0030548Y0313426D01*
X0030625Y0313398D01*
X0030700Y0313366D01*
X0030773Y0313331D01*
X0030844Y0313292D01*
X0030914Y0313249D01*
X0030981Y0313204D01*
X0031047Y0313155D01*
X0031109Y0313103D01*
X0031169Y0313047D01*
X0031226Y0312989D01*
X0031281Y0312929D01*
X0031332Y0312865D01*
X0031380Y0312800D01*
X0031425Y0312732D01*
X0031467Y0312662D01*
X0031505Y0312590D01*
X0031540Y0312516D01*
X0031571Y0312441D01*
X0031598Y0312364D01*
X0031621Y0312286D01*
X0031641Y0312207D01*
X0031657Y0312127D01*
X0031669Y0312046D01*
X0031677Y0311965D01*
X0031681Y0311884D01*
X0031681Y0311802D01*
X0031677Y0311721D01*
X0031669Y0311640D01*
X0031657Y0311559D01*
X0031641Y0311479D01*
X0031621Y0311400D01*
X0031598Y0311322D01*
X0031571Y0311245D01*
X0031540Y0311170D01*
X0031505Y0311096D01*
X0031467Y0311024D01*
X0031425Y0310954D01*
X0031380Y0310886D01*
X0031332Y0310821D01*
X0031281Y0310757D01*
X0031226Y0310697D01*
X0031169Y0310639D01*
X0031109Y0310583D01*
X0031047Y0310531D01*
X0030981Y0310482D01*
X0030914Y0310437D01*
X0030845Y0310394D01*
X0030773Y0310355D01*
X0030700Y0310320D01*
X0030625Y0310288D01*
X0030548Y0310260D01*
X0030470Y0310235D01*
X0030392Y0310215D01*
X0030312Y0310198D01*
X0030231Y0310185D01*
X0030150Y0310176D01*
X0030069Y0310171D01*
X0029988Y0310170D01*
X0029906Y0310173D01*
X0029825Y0310180D01*
X0029744Y0310191D01*
X0029664Y0310206D01*
X0029585Y0310224D01*
X0029507Y0310247D01*
X0029429Y0310273D01*
X0029354Y0310303D01*
X0029279Y0310337D01*
X0029207Y0310374D01*
X0029136Y0310415D01*
X0029068Y0310459D01*
X0029002Y0310506D01*
X0028938Y0310557D01*
X0028876Y0310611D01*
X0028818Y0310667D01*
X0028762Y0310727D01*
X0028709Y0310789D01*
X0028659Y0310853D01*
X0028613Y0310920D01*
X0028569Y0310989D01*
X0028530Y0311060D01*
X0028493Y0311133D01*
X0028460Y0311207D01*
X0028431Y0311284D01*
X0028406Y0311361D01*
X0028384Y0311440D01*
X0028367Y0311519D01*
X0028353Y0311599D01*
X0028343Y0311680D01*
X0028337Y0311762D01*
X0028335Y0311843D01*
M02*
