G75*
%MOIN*%
%OFA0B0*%
%FSLAX25Y25*%
%IPPOS*%
%LPD*%
%AMOC8*
5,1,8,0,0,1.08239X$1,22.5*
%
%ADD10C,0.00500*%
%ADD11C,0.01000*%
%ADD12C,0.00400*%
%ADD13C,0.00600*%
%ADD14C,0.00300*%
%ADD15C,0.02400*%
%ADD16C,0.00800*%
%ADD17C,0.00100*%
%ADD18C,0.00900*%
%ADD19C,0.00000*%
D10*
X0145751Y0121960D02*
X0146768Y0120943D01*
X0145751Y0121960D02*
X0145751Y0123995D01*
X0146768Y0125013D01*
X0150838Y0125013D01*
X0151856Y0123995D01*
X0151856Y0121960D01*
X0150838Y0120943D01*
X0150838Y0127020D02*
X0151856Y0128038D01*
X0151856Y0130073D01*
X0150838Y0131090D01*
X0146768Y0131090D01*
X0145751Y0130073D01*
X0145751Y0128038D01*
X0146768Y0127020D01*
X0147786Y0133097D02*
X0151856Y0133097D01*
X0155651Y0134115D02*
X0155651Y0137167D01*
X0161756Y0137167D01*
X0161756Y0134115D01*
X0160738Y0133097D01*
X0156668Y0133097D01*
X0155651Y0134115D01*
X0158703Y0131090D02*
X0158703Y0127020D01*
X0155651Y0128038D02*
X0161756Y0128038D01*
X0158703Y0131090D01*
X0165551Y0131090D02*
X0165551Y0127020D01*
X0165551Y0125013D02*
X0169621Y0120943D01*
X0170638Y0120943D01*
X0171656Y0121960D01*
X0171656Y0123995D01*
X0170638Y0125013D01*
X0171656Y0129055D02*
X0165551Y0129055D01*
X0165551Y0125013D02*
X0165551Y0120943D01*
X0171656Y0129055D02*
X0169621Y0131090D01*
X0170638Y0133097D02*
X0166568Y0133097D01*
X0165551Y0134115D01*
X0165551Y0137167D01*
X0171656Y0137167D01*
X0171656Y0134115D01*
X0170638Y0133097D01*
X0175451Y0134115D02*
X0175451Y0137167D01*
X0181556Y0137167D01*
X0181556Y0134115D01*
X0180538Y0133097D01*
X0176468Y0133097D01*
X0175451Y0134115D01*
X0176468Y0131090D02*
X0175451Y0130073D01*
X0175451Y0128038D01*
X0176468Y0127020D01*
X0178503Y0127020D01*
X0179521Y0128038D01*
X0179521Y0129055D01*
X0178503Y0131090D01*
X0181556Y0131090D01*
X0181556Y0127020D01*
X0185351Y0127020D02*
X0185351Y0131090D01*
X0185351Y0129055D02*
X0191456Y0129055D01*
X0189421Y0131090D01*
X0190438Y0133097D02*
X0186368Y0133097D01*
X0185351Y0134115D01*
X0185351Y0137167D01*
X0191456Y0137167D01*
X0191456Y0134115D01*
X0190438Y0133097D01*
X0195251Y0134115D02*
X0195251Y0137167D01*
X0201356Y0137167D01*
X0201356Y0134115D01*
X0200338Y0133097D01*
X0196268Y0133097D01*
X0195251Y0134115D01*
X0196268Y0131090D02*
X0195251Y0130073D01*
X0195251Y0128038D01*
X0196268Y0127020D01*
X0197286Y0127020D01*
X0198303Y0128038D01*
X0198303Y0131090D01*
X0196268Y0131090D01*
X0198303Y0131090D02*
X0200338Y0129055D01*
X0201356Y0127020D01*
X0205151Y0127020D02*
X0205151Y0131090D01*
X0205151Y0129055D02*
X0211256Y0129055D01*
X0209221Y0131090D01*
X0210238Y0133097D02*
X0206168Y0133097D01*
X0205151Y0134115D01*
X0205151Y0137167D01*
X0211256Y0137167D01*
X0211256Y0134115D01*
X0210238Y0133097D01*
X0215051Y0134115D02*
X0215051Y0137167D01*
X0221156Y0137167D01*
X0221156Y0134115D01*
X0220138Y0133097D01*
X0216068Y0133097D01*
X0215051Y0134115D01*
X0215051Y0131090D02*
X0216068Y0131090D01*
X0220138Y0127020D01*
X0221156Y0127020D01*
X0221156Y0131090D01*
X0224951Y0131090D02*
X0224951Y0127020D01*
X0224951Y0129055D02*
X0231056Y0129055D01*
X0229021Y0131090D01*
X0230038Y0133097D02*
X0225968Y0133097D01*
X0224951Y0134115D01*
X0224951Y0137167D01*
X0231056Y0137167D01*
X0231056Y0134115D01*
X0230038Y0133097D01*
X0234851Y0134115D02*
X0234851Y0136150D01*
X0235868Y0137167D01*
X0239938Y0137167D01*
X0240956Y0136150D01*
X0240956Y0134115D01*
X0239938Y0133097D01*
X0237903Y0133097D02*
X0237903Y0135132D01*
X0237903Y0133097D02*
X0235868Y0133097D01*
X0234851Y0134115D01*
X0234851Y0131090D02*
X0240956Y0131090D01*
X0234851Y0127020D01*
X0240956Y0127020D01*
X0240956Y0125013D02*
X0240956Y0121960D01*
X0239938Y0120943D01*
X0235868Y0120943D01*
X0234851Y0121960D01*
X0234851Y0125013D01*
X0240956Y0125013D01*
X0244751Y0122978D02*
X0250856Y0122978D01*
X0250856Y0125013D02*
X0250856Y0120943D01*
X0250856Y0118936D02*
X0244751Y0118936D01*
X0244751Y0114866D01*
X0247803Y0116901D02*
X0247803Y0118936D01*
X0250856Y0118936D02*
X0250856Y0114866D01*
X0255668Y0120943D02*
X0256686Y0120943D01*
X0257703Y0121960D01*
X0257703Y0125013D01*
X0255668Y0125013D01*
X0254651Y0123995D01*
X0254651Y0121960D01*
X0255668Y0120943D01*
X0259738Y0122978D02*
X0257703Y0125013D01*
X0259738Y0122978D02*
X0260756Y0120943D01*
X0264551Y0121960D02*
X0264551Y0123995D01*
X0265568Y0125013D01*
X0267603Y0125013D02*
X0268621Y0122978D01*
X0268621Y0121960D01*
X0267603Y0120943D01*
X0265568Y0120943D01*
X0264551Y0121960D01*
X0267603Y0125013D02*
X0270656Y0125013D01*
X0270656Y0120943D01*
X0274451Y0121960D02*
X0280556Y0121960D01*
X0277503Y0125013D01*
X0277503Y0120943D01*
X0274451Y0127020D02*
X0274451Y0131090D01*
X0274451Y0133097D02*
X0278521Y0133097D01*
X0280556Y0135132D01*
X0278521Y0137167D01*
X0274451Y0137167D01*
X0277503Y0137167D02*
X0277503Y0133097D01*
X0278521Y0131090D02*
X0280556Y0129055D01*
X0274451Y0129055D01*
X0270656Y0129055D02*
X0264551Y0129055D01*
X0264551Y0131090D02*
X0264551Y0127020D01*
X0260756Y0129055D02*
X0254651Y0129055D01*
X0254651Y0131090D02*
X0254651Y0127020D01*
X0250856Y0127020D02*
X0249838Y0127020D01*
X0247803Y0129055D01*
X0244751Y0129055D01*
X0247803Y0129055D02*
X0249838Y0131090D01*
X0250856Y0131090D01*
X0249838Y0133097D02*
X0248821Y0133097D01*
X0247803Y0134115D01*
X0247803Y0137167D01*
X0244751Y0137167D02*
X0244751Y0134115D01*
X0245768Y0133097D01*
X0246786Y0133097D01*
X0247803Y0134115D01*
X0249838Y0133097D02*
X0250856Y0134115D01*
X0250856Y0137167D01*
X0244751Y0137167D01*
X0254651Y0137167D02*
X0258721Y0137167D01*
X0260756Y0135132D01*
X0258721Y0133097D01*
X0254651Y0133097D01*
X0257703Y0133097D02*
X0257703Y0137167D01*
X0258721Y0131090D02*
X0260756Y0129055D01*
X0264551Y0133097D02*
X0268621Y0133097D01*
X0270656Y0135132D01*
X0268621Y0137167D01*
X0264551Y0137167D01*
X0267603Y0137167D02*
X0267603Y0133097D01*
X0268621Y0131090D02*
X0270656Y0129055D01*
X0284351Y0129055D02*
X0290456Y0129055D01*
X0288421Y0131090D01*
X0288421Y0133097D02*
X0284351Y0133097D01*
X0284351Y0131090D02*
X0284351Y0127020D01*
X0285368Y0125013D02*
X0284351Y0123995D01*
X0284351Y0121960D01*
X0285368Y0120943D01*
X0286386Y0120943D01*
X0287403Y0121960D01*
X0287403Y0122978D01*
X0287403Y0121960D02*
X0288421Y0120943D01*
X0289438Y0120943D01*
X0290456Y0121960D01*
X0290456Y0123995D01*
X0289438Y0125013D01*
X0294251Y0125013D02*
X0294251Y0120943D01*
X0294251Y0125013D02*
X0298321Y0120943D01*
X0299338Y0120943D01*
X0300356Y0121960D01*
X0300356Y0123995D01*
X0299338Y0125013D01*
X0300356Y0129055D02*
X0294251Y0129055D01*
X0294251Y0131090D02*
X0294251Y0127020D01*
X0298321Y0131090D02*
X0300356Y0129055D01*
X0304151Y0129055D02*
X0310256Y0129055D01*
X0308221Y0131090D01*
X0308221Y0133097D02*
X0304151Y0133097D01*
X0304151Y0131090D02*
X0304151Y0127020D01*
X0304151Y0125013D02*
X0304151Y0120943D01*
X0304151Y0122978D02*
X0310256Y0122978D01*
X0308221Y0125013D01*
X0314051Y0123995D02*
X0314051Y0121960D01*
X0315068Y0120943D01*
X0319138Y0120943D01*
X0315068Y0125013D01*
X0314051Y0123995D01*
X0315068Y0125013D02*
X0319138Y0125013D01*
X0320156Y0123995D01*
X0320156Y0121960D01*
X0319138Y0120943D01*
X0314051Y0127020D02*
X0314051Y0131090D01*
X0314051Y0133097D02*
X0318121Y0133097D01*
X0320156Y0135132D01*
X0318121Y0137167D01*
X0314051Y0137167D01*
X0317103Y0137167D02*
X0317103Y0133097D01*
X0318121Y0131090D02*
X0320156Y0129055D01*
X0314051Y0129055D01*
X0308221Y0133097D02*
X0310256Y0135132D01*
X0308221Y0137167D01*
X0304151Y0137167D01*
X0307203Y0137167D02*
X0307203Y0133097D01*
X0300356Y0135132D02*
X0298321Y0133097D01*
X0294251Y0133097D01*
X0297303Y0133097D02*
X0297303Y0137167D01*
X0298321Y0137167D02*
X0300356Y0135132D01*
X0298321Y0137167D02*
X0294251Y0137167D01*
X0290456Y0135132D02*
X0288421Y0133097D01*
X0287403Y0133097D02*
X0287403Y0137167D01*
X0288421Y0137167D02*
X0290456Y0135132D01*
X0288421Y0137167D02*
X0284351Y0137167D01*
X0285368Y0159894D02*
X0284351Y0160912D01*
X0284351Y0162947D01*
X0285368Y0163964D01*
X0284351Y0165971D02*
X0288421Y0165971D01*
X0290456Y0168006D01*
X0288421Y0170041D01*
X0284351Y0170041D01*
X0287403Y0170041D02*
X0287403Y0165971D01*
X0289438Y0163964D02*
X0290456Y0162947D01*
X0290456Y0160912D01*
X0289438Y0159894D01*
X0288421Y0159894D01*
X0287403Y0160912D01*
X0286386Y0159894D01*
X0285368Y0159894D01*
X0287403Y0160912D02*
X0287403Y0161929D01*
X0280556Y0160912D02*
X0280556Y0162947D01*
X0279538Y0163964D01*
X0278521Y0165971D02*
X0274451Y0165971D01*
X0274451Y0163964D02*
X0278521Y0159894D01*
X0279538Y0159894D01*
X0280556Y0160912D01*
X0278521Y0165971D02*
X0280556Y0168006D01*
X0278521Y0170041D01*
X0274451Y0170041D01*
X0277503Y0170041D02*
X0277503Y0165971D01*
X0274451Y0163964D02*
X0274451Y0159894D01*
X0270656Y0161929D02*
X0268621Y0163964D01*
X0268621Y0165971D02*
X0264551Y0165971D01*
X0264551Y0163964D02*
X0264551Y0159894D01*
X0264551Y0161929D02*
X0270656Y0161929D01*
X0268621Y0165971D02*
X0270656Y0168006D01*
X0268621Y0170041D01*
X0264551Y0170041D01*
X0267603Y0170041D02*
X0267603Y0165971D01*
X0260756Y0168006D02*
X0258721Y0165971D01*
X0254651Y0165971D01*
X0255668Y0163964D02*
X0259738Y0159894D01*
X0255668Y0159894D01*
X0254651Y0160912D01*
X0254651Y0162947D01*
X0255668Y0163964D01*
X0259738Y0163964D01*
X0260756Y0162947D01*
X0260756Y0160912D01*
X0259738Y0159894D01*
X0257703Y0165971D02*
X0257703Y0170041D01*
X0258721Y0170041D02*
X0260756Y0168006D01*
X0258721Y0170041D02*
X0254651Y0170041D01*
X0250856Y0169024D02*
X0250856Y0166989D01*
X0249838Y0165971D01*
X0250856Y0163964D02*
X0244751Y0163964D01*
X0244751Y0159894D01*
X0247803Y0161929D02*
X0247803Y0163964D01*
X0245768Y0165971D02*
X0244751Y0166989D01*
X0244751Y0169024D01*
X0245768Y0170041D01*
X0249838Y0170041D01*
X0250856Y0169024D01*
X0250856Y0163964D02*
X0250856Y0159894D01*
X0240956Y0159894D02*
X0234851Y0159894D01*
X0240956Y0163964D01*
X0234851Y0163964D01*
X0235868Y0165971D02*
X0237903Y0165971D01*
X0237903Y0168006D01*
X0235868Y0165971D02*
X0234851Y0166989D01*
X0234851Y0169024D01*
X0235868Y0170041D01*
X0239938Y0170041D01*
X0240956Y0169024D01*
X0240956Y0166989D01*
X0239938Y0165971D01*
X0240956Y0157887D02*
X0234851Y0157887D01*
X0234851Y0154834D01*
X0235868Y0153817D01*
X0239938Y0153817D01*
X0240956Y0154834D01*
X0240956Y0157887D01*
X0231056Y0159894D02*
X0231056Y0163964D01*
X0224951Y0163964D01*
X0224951Y0159894D01*
X0228003Y0161929D02*
X0228003Y0163964D01*
X0225968Y0165971D02*
X0230038Y0165971D01*
X0231056Y0166989D01*
X0231056Y0169024D01*
X0230038Y0170041D01*
X0225968Y0170041D01*
X0224951Y0169024D01*
X0224951Y0166989D01*
X0225968Y0165971D01*
X0221156Y0166989D02*
X0221156Y0170041D01*
X0215051Y0170041D01*
X0215051Y0166989D01*
X0216068Y0165971D01*
X0220138Y0165971D01*
X0221156Y0166989D01*
X0220138Y0163964D02*
X0221156Y0162947D01*
X0221156Y0160912D01*
X0220138Y0159894D01*
X0216068Y0163964D01*
X0215051Y0162947D01*
X0215051Y0160912D01*
X0216068Y0159894D01*
X0220138Y0159894D01*
X0220138Y0163964D02*
X0216068Y0163964D01*
X0211256Y0162947D02*
X0211256Y0160912D01*
X0210238Y0159894D01*
X0209221Y0159894D01*
X0208203Y0160912D01*
X0208203Y0162947D01*
X0209221Y0163964D01*
X0210238Y0163964D01*
X0211256Y0162947D01*
X0208203Y0162947D02*
X0207186Y0163964D01*
X0206168Y0163964D01*
X0205151Y0162947D01*
X0205151Y0160912D01*
X0206168Y0159894D01*
X0207186Y0159894D01*
X0208203Y0160912D01*
X0206168Y0165971D02*
X0210238Y0165971D01*
X0211256Y0166989D01*
X0211256Y0170041D01*
X0205151Y0170041D01*
X0205151Y0166989D01*
X0206168Y0165971D01*
X0201356Y0166989D02*
X0201356Y0170041D01*
X0195251Y0170041D01*
X0195251Y0166989D01*
X0196268Y0165971D01*
X0200338Y0165971D01*
X0201356Y0166989D01*
X0199321Y0163964D02*
X0201356Y0161929D01*
X0195251Y0161929D01*
X0195251Y0163964D02*
X0195251Y0159894D01*
X0191456Y0160912D02*
X0191456Y0162947D01*
X0190438Y0163964D01*
X0189421Y0163964D01*
X0188403Y0162947D01*
X0188403Y0159894D01*
X0186368Y0159894D02*
X0190438Y0159894D01*
X0191456Y0160912D01*
X0190438Y0165971D02*
X0186368Y0165971D01*
X0185351Y0166989D01*
X0185351Y0170041D01*
X0191456Y0170041D01*
X0191456Y0166989D01*
X0190438Y0165971D01*
X0186368Y0163964D02*
X0185351Y0162947D01*
X0185351Y0160912D01*
X0186368Y0159894D01*
X0181556Y0160912D02*
X0181556Y0162947D01*
X0180538Y0163964D01*
X0180538Y0165971D02*
X0181556Y0166989D01*
X0181556Y0170041D01*
X0175451Y0170041D01*
X0175451Y0166989D01*
X0176468Y0165971D01*
X0180538Y0165971D01*
X0181556Y0160912D02*
X0180538Y0159894D01*
X0179521Y0159894D01*
X0175451Y0163964D01*
X0175451Y0159894D01*
X0171656Y0161929D02*
X0169621Y0163964D01*
X0170638Y0165971D02*
X0171656Y0166989D01*
X0171656Y0170041D01*
X0165551Y0170041D01*
X0165551Y0166989D01*
X0166568Y0165971D01*
X0170638Y0165971D01*
X0171656Y0161929D02*
X0165551Y0161929D01*
X0165551Y0163964D02*
X0165551Y0159894D01*
X0166568Y0157887D02*
X0170638Y0153817D01*
X0166568Y0153817D01*
X0165551Y0154834D01*
X0165551Y0156869D01*
X0166568Y0157887D01*
X0170638Y0157887D01*
X0171656Y0156869D01*
X0171656Y0154834D01*
X0170638Y0153817D01*
X0161756Y0160912D02*
X0160738Y0159894D01*
X0159721Y0159894D01*
X0158703Y0160912D01*
X0157686Y0159894D01*
X0156668Y0159894D01*
X0155651Y0160912D01*
X0155651Y0162947D01*
X0156668Y0163964D01*
X0156668Y0165971D02*
X0160738Y0165971D01*
X0161756Y0166989D01*
X0161756Y0170041D01*
X0155651Y0170041D01*
X0155651Y0166989D01*
X0156668Y0165971D01*
X0158703Y0161929D02*
X0158703Y0160912D01*
X0161756Y0160912D02*
X0161756Y0162947D01*
X0160738Y0163964D01*
X0151856Y0161929D02*
X0145751Y0161929D01*
X0145751Y0163964D02*
X0145751Y0159894D01*
X0145751Y0157887D02*
X0145751Y0153817D01*
X0145751Y0155852D02*
X0151856Y0155852D01*
X0149821Y0157887D01*
X0151856Y0161929D02*
X0149821Y0163964D01*
X0150838Y0165971D02*
X0151856Y0166989D01*
X0151856Y0170041D01*
X0145751Y0170041D01*
X0145751Y0166989D01*
X0146768Y0165971D01*
X0150838Y0165971D01*
X0151856Y0137167D02*
X0147786Y0137167D01*
X0145751Y0135132D01*
X0147786Y0133097D01*
X0185351Y0123995D02*
X0185351Y0121960D01*
X0186368Y0120943D01*
X0187386Y0120943D01*
X0188403Y0121960D01*
X0188403Y0122978D01*
X0188403Y0121960D02*
X0189421Y0120943D01*
X0190438Y0120943D01*
X0191456Y0121960D01*
X0191456Y0123995D01*
X0190438Y0125013D01*
X0186368Y0125013D02*
X0185351Y0123995D01*
X0205151Y0121960D02*
X0211256Y0121960D01*
X0208203Y0125013D01*
X0208203Y0120943D01*
X0224951Y0121960D02*
X0224951Y0123995D01*
X0225968Y0125013D01*
X0228003Y0125013D02*
X0229021Y0122978D01*
X0229021Y0121960D01*
X0228003Y0120943D01*
X0225968Y0120943D01*
X0224951Y0121960D01*
X0228003Y0125013D02*
X0231056Y0125013D01*
X0231056Y0120943D01*
X0294251Y0160912D02*
X0300356Y0160912D01*
X0297303Y0163964D01*
X0297303Y0159894D01*
X0297303Y0165971D02*
X0297303Y0170041D01*
X0298321Y0170041D02*
X0300356Y0168006D01*
X0298321Y0165971D01*
X0294251Y0165971D01*
X0294251Y0170041D02*
X0298321Y0170041D01*
X0304151Y0170041D02*
X0308221Y0170041D01*
X0310256Y0168006D01*
X0308221Y0165971D01*
X0304151Y0165971D01*
X0305168Y0163964D02*
X0304151Y0162947D01*
X0304151Y0160912D01*
X0305168Y0159894D01*
X0307203Y0159894D01*
X0308221Y0160912D01*
X0308221Y0161929D01*
X0307203Y0163964D01*
X0310256Y0163964D01*
X0310256Y0159894D01*
X0314051Y0160912D02*
X0315068Y0159894D01*
X0316086Y0159894D01*
X0317103Y0160912D01*
X0317103Y0163964D01*
X0315068Y0163964D01*
X0314051Y0162947D01*
X0314051Y0160912D01*
X0317103Y0163964D02*
X0319138Y0161929D01*
X0320156Y0159894D01*
X0323951Y0163964D02*
X0324968Y0163964D01*
X0329038Y0159894D01*
X0330056Y0159894D01*
X0330056Y0163964D01*
X0328021Y0165971D02*
X0330056Y0168006D01*
X0328021Y0170041D01*
X0323951Y0170041D01*
X0327003Y0170041D02*
X0327003Y0165971D01*
X0328021Y0165971D02*
X0323951Y0165971D01*
X0320156Y0168006D02*
X0318121Y0165971D01*
X0314051Y0165971D01*
X0317103Y0165971D02*
X0317103Y0170041D01*
X0318121Y0170041D02*
X0320156Y0168006D01*
X0318121Y0170041D02*
X0314051Y0170041D01*
X0307203Y0170041D02*
X0307203Y0165971D01*
X0333851Y0165971D02*
X0337921Y0165971D01*
X0339956Y0168006D01*
X0337921Y0170041D01*
X0333851Y0170041D01*
X0336903Y0170041D02*
X0336903Y0165971D01*
X0337921Y0163964D02*
X0339956Y0161929D01*
X0333851Y0161929D01*
X0333851Y0163964D02*
X0333851Y0159894D01*
X0333851Y0157887D02*
X0334868Y0157887D01*
X0338938Y0153817D01*
X0339956Y0153817D01*
X0339956Y0157887D01*
X0343751Y0156869D02*
X0343751Y0154834D01*
X0344768Y0153817D01*
X0345786Y0153817D01*
X0346803Y0154834D01*
X0346803Y0156869D01*
X0347821Y0157887D01*
X0348838Y0157887D01*
X0349856Y0156869D01*
X0349856Y0154834D01*
X0348838Y0153817D01*
X0347821Y0153817D01*
X0346803Y0154834D01*
X0346803Y0156869D02*
X0345786Y0157887D01*
X0344768Y0157887D01*
X0343751Y0156869D01*
X0343751Y0159894D02*
X0343751Y0163964D01*
X0343751Y0165971D02*
X0347821Y0165971D01*
X0349856Y0168006D01*
X0347821Y0170041D01*
X0343751Y0170041D01*
X0346803Y0170041D02*
X0346803Y0165971D01*
X0347821Y0163964D02*
X0349856Y0161929D01*
X0343751Y0161929D01*
X0353651Y0163964D02*
X0353651Y0159894D01*
X0356703Y0161929D02*
X0356703Y0163964D01*
X0353651Y0163964D02*
X0359756Y0163964D01*
X0359756Y0159894D01*
X0359756Y0165971D02*
X0353651Y0165971D01*
X0355686Y0168006D01*
X0353651Y0170041D01*
X0359756Y0170041D01*
X0357721Y0137167D02*
X0353651Y0137167D01*
X0356703Y0137167D02*
X0356703Y0133097D01*
X0357721Y0133097D02*
X0353651Y0133097D01*
X0353651Y0131090D02*
X0357721Y0127020D01*
X0358738Y0127020D01*
X0359756Y0128038D01*
X0359756Y0130073D01*
X0358738Y0131090D01*
X0357721Y0133097D02*
X0359756Y0135132D01*
X0357721Y0137167D01*
X0353651Y0131090D02*
X0353651Y0127020D01*
X0354668Y0125013D02*
X0358738Y0120943D01*
X0354668Y0120943D01*
X0353651Y0121960D01*
X0353651Y0123995D01*
X0354668Y0125013D01*
X0358738Y0125013D01*
X0359756Y0123995D01*
X0359756Y0121960D01*
X0358738Y0120943D01*
X0349856Y0121960D02*
X0349856Y0123995D01*
X0348838Y0125013D01*
X0347821Y0125013D01*
X0346803Y0123995D01*
X0346803Y0120943D01*
X0344768Y0120943D02*
X0348838Y0120943D01*
X0349856Y0121960D01*
X0344768Y0120943D02*
X0343751Y0121960D01*
X0343751Y0123995D01*
X0344768Y0125013D01*
X0343751Y0127020D02*
X0343751Y0131090D01*
X0343751Y0133097D02*
X0347821Y0133097D01*
X0349856Y0135132D01*
X0347821Y0137167D01*
X0343751Y0137167D01*
X0346803Y0137167D02*
X0346803Y0133097D01*
X0347821Y0131090D02*
X0349856Y0129055D01*
X0343751Y0129055D01*
X0339956Y0128038D02*
X0338938Y0127020D01*
X0337921Y0127020D01*
X0336903Y0128038D01*
X0336903Y0130073D01*
X0337921Y0131090D01*
X0338938Y0131090D01*
X0339956Y0130073D01*
X0339956Y0128038D01*
X0336903Y0128038D02*
X0335886Y0127020D01*
X0334868Y0127020D01*
X0333851Y0128038D01*
X0333851Y0130073D01*
X0334868Y0131090D01*
X0335886Y0131090D01*
X0336903Y0130073D01*
X0336903Y0133097D02*
X0336903Y0137167D01*
X0337921Y0137167D02*
X0339956Y0135132D01*
X0337921Y0133097D01*
X0333851Y0133097D01*
X0333851Y0137167D02*
X0337921Y0137167D01*
X0330056Y0135132D02*
X0328021Y0133097D01*
X0323951Y0133097D01*
X0324968Y0131090D02*
X0323951Y0130073D01*
X0323951Y0128038D01*
X0324968Y0127020D01*
X0329038Y0127020D01*
X0330056Y0128038D01*
X0330056Y0130073D01*
X0329038Y0131090D01*
X0328021Y0131090D01*
X0327003Y0130073D01*
X0327003Y0127020D01*
X0327003Y0133097D02*
X0327003Y0137167D01*
X0328021Y0137167D02*
X0330056Y0135132D01*
X0328021Y0137167D02*
X0323951Y0137167D01*
X0375816Y0086630D02*
X0375816Y0084661D01*
X0375816Y0086630D02*
X0395501Y0086630D01*
X0395501Y0057102D02*
X0375816Y0057102D01*
X0375816Y0059071D01*
X0085433Y0254821D02*
X0082430Y0254821D01*
X0083932Y0254821D02*
X0083932Y0250317D01*
X0080829Y0250317D02*
X0077826Y0250317D01*
X0077826Y0254821D01*
X0080829Y0254821D01*
X0079328Y0252569D02*
X0077826Y0252569D01*
X0076225Y0251818D02*
X0076225Y0251068D01*
X0075474Y0250317D01*
X0073973Y0250317D01*
X0073222Y0251068D01*
X0073973Y0252569D02*
X0075474Y0252569D01*
X0076225Y0251818D01*
X0076225Y0254070D02*
X0075474Y0254821D01*
X0073973Y0254821D01*
X0073222Y0254070D01*
X0073222Y0253319D01*
X0073973Y0252569D01*
X0071621Y0254821D02*
X0068618Y0254821D01*
X0068618Y0250317D01*
X0071621Y0250317D01*
X0070120Y0252569D02*
X0068618Y0252569D01*
X0067017Y0252569D02*
X0066266Y0251818D01*
X0064015Y0251818D01*
X0065516Y0251818D02*
X0067017Y0250317D01*
X0067017Y0252569D02*
X0067017Y0254070D01*
X0066266Y0254821D01*
X0064015Y0254821D01*
X0064015Y0250317D01*
X0065516Y0239821D02*
X0067017Y0238319D01*
X0067017Y0235317D01*
X0068618Y0235317D02*
X0071621Y0238319D01*
X0071621Y0239070D01*
X0070870Y0239821D01*
X0069369Y0239821D01*
X0068618Y0239070D01*
X0067017Y0237569D02*
X0064015Y0237569D01*
X0064015Y0238319D02*
X0065516Y0239821D01*
X0064015Y0238319D02*
X0064015Y0235317D01*
X0068618Y0235317D02*
X0071621Y0235317D01*
X0073222Y0235317D02*
X0076225Y0235317D01*
X0074724Y0235317D02*
X0074724Y0239821D01*
X0073222Y0238319D01*
D11*
X0021485Y0006118D02*
X0021485Y0005724D01*
X0021485Y0006118D01*
X0021485Y0044307D01*
X0001800Y0044307D01*
X0001800Y0199819D01*
X0035265Y0199819D01*
X0035265Y0215567D01*
X0035265Y0396669D01*
X0062824Y0396669D01*
X0062826Y0396479D01*
X0062833Y0396289D01*
X0062845Y0396099D01*
X0062861Y0395909D01*
X0062881Y0395720D01*
X0062907Y0395531D01*
X0062936Y0395343D01*
X0062971Y0395156D01*
X0063010Y0394970D01*
X0063053Y0394785D01*
X0063101Y0394600D01*
X0063153Y0394417D01*
X0063209Y0394236D01*
X0063270Y0394056D01*
X0063336Y0393877D01*
X0063405Y0393700D01*
X0063479Y0393524D01*
X0063557Y0393351D01*
X0063640Y0393179D01*
X0063726Y0393010D01*
X0063816Y0392842D01*
X0063911Y0392677D01*
X0064009Y0392514D01*
X0064112Y0392354D01*
X0064218Y0392196D01*
X0064328Y0392041D01*
X0064441Y0391888D01*
X0064559Y0391738D01*
X0064680Y0391592D01*
X0064804Y0391448D01*
X0064932Y0391307D01*
X0065063Y0391169D01*
X0065198Y0391034D01*
X0065336Y0390903D01*
X0065477Y0390775D01*
X0065621Y0390651D01*
X0065767Y0390530D01*
X0065917Y0390412D01*
X0066070Y0390299D01*
X0066225Y0390189D01*
X0066383Y0390083D01*
X0066543Y0389980D01*
X0066706Y0389882D01*
X0066871Y0389787D01*
X0067039Y0389697D01*
X0067208Y0389611D01*
X0067380Y0389528D01*
X0067553Y0389450D01*
X0067729Y0389376D01*
X0067906Y0389307D01*
X0068085Y0389241D01*
X0068265Y0389180D01*
X0068446Y0389124D01*
X0068629Y0389072D01*
X0068814Y0389024D01*
X0068999Y0388981D01*
X0069185Y0388942D01*
X0069372Y0388907D01*
X0069560Y0388878D01*
X0069749Y0388852D01*
X0069938Y0388832D01*
X0070128Y0388816D01*
X0070318Y0388804D01*
X0070508Y0388797D01*
X0070698Y0388795D01*
X0070850Y0388797D01*
X0071002Y0388803D01*
X0071154Y0388813D01*
X0071305Y0388826D01*
X0071456Y0388844D01*
X0071607Y0388865D01*
X0071757Y0388891D01*
X0071906Y0388920D01*
X0072055Y0388953D01*
X0072202Y0388990D01*
X0072349Y0389030D01*
X0072494Y0389075D01*
X0072638Y0389123D01*
X0072781Y0389175D01*
X0072923Y0389230D01*
X0073063Y0389289D01*
X0073202Y0389352D01*
X0073339Y0389418D01*
X0073474Y0389488D01*
X0073607Y0389561D01*
X0073738Y0389638D01*
X0073868Y0389718D01*
X0073995Y0389801D01*
X0074120Y0389887D01*
X0074243Y0389977D01*
X0074363Y0390070D01*
X0074481Y0390166D01*
X0074597Y0390265D01*
X0074710Y0390367D01*
X0074820Y0390471D01*
X0074928Y0390579D01*
X0075032Y0390689D01*
X0075134Y0390802D01*
X0075233Y0390918D01*
X0075329Y0391036D01*
X0075422Y0391156D01*
X0075512Y0391279D01*
X0075598Y0391404D01*
X0075681Y0391531D01*
X0075761Y0391661D01*
X0075838Y0391792D01*
X0075911Y0391925D01*
X0075981Y0392060D01*
X0076047Y0392197D01*
X0076110Y0392336D01*
X0076169Y0392476D01*
X0076224Y0392618D01*
X0076276Y0392761D01*
X0076324Y0392905D01*
X0076369Y0393050D01*
X0076409Y0393197D01*
X0076446Y0393344D01*
X0076479Y0393493D01*
X0076508Y0393642D01*
X0076534Y0393792D01*
X0076555Y0393943D01*
X0076573Y0394094D01*
X0076586Y0394245D01*
X0076596Y0394397D01*
X0076602Y0394549D01*
X0076604Y0394701D01*
X0076603Y0394701D02*
X0076603Y0396669D01*
X0105146Y0396669D01*
X0157312Y0396669D01*
X0157314Y0396479D01*
X0157321Y0396289D01*
X0157333Y0396099D01*
X0157349Y0395909D01*
X0157369Y0395720D01*
X0157395Y0395531D01*
X0157424Y0395343D01*
X0157459Y0395156D01*
X0157498Y0394970D01*
X0157541Y0394785D01*
X0157589Y0394600D01*
X0157641Y0394417D01*
X0157697Y0394236D01*
X0157758Y0394056D01*
X0157824Y0393877D01*
X0157893Y0393700D01*
X0157967Y0393524D01*
X0158045Y0393351D01*
X0158128Y0393179D01*
X0158214Y0393010D01*
X0158304Y0392842D01*
X0158399Y0392677D01*
X0158497Y0392514D01*
X0158600Y0392354D01*
X0158706Y0392196D01*
X0158816Y0392041D01*
X0158929Y0391888D01*
X0159047Y0391738D01*
X0159168Y0391592D01*
X0159292Y0391448D01*
X0159420Y0391307D01*
X0159551Y0391169D01*
X0159686Y0391034D01*
X0159824Y0390903D01*
X0159965Y0390775D01*
X0160109Y0390651D01*
X0160255Y0390530D01*
X0160405Y0390412D01*
X0160558Y0390299D01*
X0160713Y0390189D01*
X0160871Y0390083D01*
X0161031Y0389980D01*
X0161194Y0389882D01*
X0161359Y0389787D01*
X0161527Y0389697D01*
X0161696Y0389611D01*
X0161868Y0389528D01*
X0162041Y0389450D01*
X0162217Y0389376D01*
X0162394Y0389307D01*
X0162573Y0389241D01*
X0162753Y0389180D01*
X0162934Y0389124D01*
X0163117Y0389072D01*
X0163302Y0389024D01*
X0163487Y0388981D01*
X0163673Y0388942D01*
X0163860Y0388907D01*
X0164048Y0388878D01*
X0164237Y0388852D01*
X0164426Y0388832D01*
X0164616Y0388816D01*
X0164806Y0388804D01*
X0164996Y0388797D01*
X0165186Y0388795D01*
X0165376Y0388797D01*
X0165566Y0388804D01*
X0165756Y0388816D01*
X0165946Y0388832D01*
X0166135Y0388852D01*
X0166324Y0388878D01*
X0166512Y0388907D01*
X0166699Y0388942D01*
X0166885Y0388981D01*
X0167070Y0389024D01*
X0167255Y0389072D01*
X0167438Y0389124D01*
X0167619Y0389180D01*
X0167799Y0389241D01*
X0167978Y0389307D01*
X0168155Y0389376D01*
X0168331Y0389450D01*
X0168504Y0389528D01*
X0168676Y0389611D01*
X0168845Y0389697D01*
X0169013Y0389787D01*
X0169178Y0389882D01*
X0169341Y0389980D01*
X0169501Y0390083D01*
X0169659Y0390189D01*
X0169814Y0390299D01*
X0169967Y0390412D01*
X0170117Y0390530D01*
X0170263Y0390651D01*
X0170407Y0390775D01*
X0170548Y0390903D01*
X0170686Y0391034D01*
X0170821Y0391169D01*
X0170952Y0391307D01*
X0171080Y0391448D01*
X0171204Y0391592D01*
X0171325Y0391738D01*
X0171443Y0391888D01*
X0171556Y0392041D01*
X0171666Y0392196D01*
X0171772Y0392354D01*
X0171875Y0392514D01*
X0171973Y0392677D01*
X0172068Y0392842D01*
X0172158Y0393010D01*
X0172244Y0393179D01*
X0172327Y0393351D01*
X0172405Y0393524D01*
X0172479Y0393700D01*
X0172548Y0393877D01*
X0172614Y0394056D01*
X0172675Y0394236D01*
X0172731Y0394417D01*
X0172783Y0394600D01*
X0172831Y0394785D01*
X0172874Y0394970D01*
X0172913Y0395156D01*
X0172948Y0395343D01*
X0172977Y0395531D01*
X0173003Y0395720D01*
X0173023Y0395909D01*
X0173039Y0396099D01*
X0173051Y0396289D01*
X0173058Y0396479D01*
X0173060Y0396669D01*
X0255737Y0396669D01*
X0255739Y0396479D01*
X0255746Y0396289D01*
X0255758Y0396099D01*
X0255774Y0395909D01*
X0255794Y0395720D01*
X0255820Y0395531D01*
X0255849Y0395343D01*
X0255884Y0395156D01*
X0255923Y0394970D01*
X0255966Y0394785D01*
X0256014Y0394600D01*
X0256066Y0394417D01*
X0256122Y0394236D01*
X0256183Y0394056D01*
X0256249Y0393877D01*
X0256318Y0393700D01*
X0256392Y0393524D01*
X0256470Y0393351D01*
X0256553Y0393179D01*
X0256639Y0393010D01*
X0256729Y0392842D01*
X0256824Y0392677D01*
X0256922Y0392514D01*
X0257025Y0392354D01*
X0257131Y0392196D01*
X0257241Y0392041D01*
X0257354Y0391888D01*
X0257472Y0391738D01*
X0257593Y0391592D01*
X0257717Y0391448D01*
X0257845Y0391307D01*
X0257976Y0391169D01*
X0258111Y0391034D01*
X0258249Y0390903D01*
X0258390Y0390775D01*
X0258534Y0390651D01*
X0258680Y0390530D01*
X0258830Y0390412D01*
X0258983Y0390299D01*
X0259138Y0390189D01*
X0259296Y0390083D01*
X0259456Y0389980D01*
X0259619Y0389882D01*
X0259784Y0389787D01*
X0259952Y0389697D01*
X0260121Y0389611D01*
X0260293Y0389528D01*
X0260466Y0389450D01*
X0260642Y0389376D01*
X0260819Y0389307D01*
X0260998Y0389241D01*
X0261178Y0389180D01*
X0261359Y0389124D01*
X0261542Y0389072D01*
X0261727Y0389024D01*
X0261912Y0388981D01*
X0262098Y0388942D01*
X0262285Y0388907D01*
X0262473Y0388878D01*
X0262662Y0388852D01*
X0262851Y0388832D01*
X0263041Y0388816D01*
X0263231Y0388804D01*
X0263421Y0388797D01*
X0263611Y0388795D01*
X0263801Y0388797D01*
X0263991Y0388804D01*
X0264181Y0388816D01*
X0264371Y0388832D01*
X0264560Y0388852D01*
X0264749Y0388878D01*
X0264937Y0388907D01*
X0265124Y0388942D01*
X0265310Y0388981D01*
X0265495Y0389024D01*
X0265680Y0389072D01*
X0265863Y0389124D01*
X0266044Y0389180D01*
X0266224Y0389241D01*
X0266403Y0389307D01*
X0266580Y0389376D01*
X0266756Y0389450D01*
X0266929Y0389528D01*
X0267101Y0389611D01*
X0267270Y0389697D01*
X0267438Y0389787D01*
X0267603Y0389882D01*
X0267766Y0389980D01*
X0267926Y0390083D01*
X0268084Y0390189D01*
X0268239Y0390299D01*
X0268392Y0390412D01*
X0268542Y0390530D01*
X0268688Y0390651D01*
X0268832Y0390775D01*
X0268973Y0390903D01*
X0269111Y0391034D01*
X0269246Y0391169D01*
X0269377Y0391307D01*
X0269505Y0391448D01*
X0269629Y0391592D01*
X0269750Y0391738D01*
X0269868Y0391888D01*
X0269981Y0392041D01*
X0270091Y0392196D01*
X0270197Y0392354D01*
X0270300Y0392514D01*
X0270398Y0392677D01*
X0270493Y0392842D01*
X0270583Y0393010D01*
X0270669Y0393179D01*
X0270752Y0393351D01*
X0270830Y0393524D01*
X0270904Y0393700D01*
X0270973Y0393877D01*
X0271039Y0394056D01*
X0271100Y0394236D01*
X0271156Y0394417D01*
X0271208Y0394600D01*
X0271256Y0394785D01*
X0271299Y0394970D01*
X0271338Y0395156D01*
X0271373Y0395343D01*
X0271402Y0395531D01*
X0271428Y0395720D01*
X0271448Y0395909D01*
X0271464Y0396099D01*
X0271476Y0396289D01*
X0271483Y0396479D01*
X0271485Y0396669D01*
X0352194Y0396669D01*
X0352196Y0396479D01*
X0352203Y0396289D01*
X0352215Y0396099D01*
X0352231Y0395909D01*
X0352251Y0395720D01*
X0352277Y0395531D01*
X0352306Y0395343D01*
X0352341Y0395156D01*
X0352380Y0394970D01*
X0352423Y0394785D01*
X0352471Y0394600D01*
X0352523Y0394417D01*
X0352579Y0394236D01*
X0352640Y0394056D01*
X0352706Y0393877D01*
X0352775Y0393700D01*
X0352849Y0393524D01*
X0352927Y0393351D01*
X0353010Y0393179D01*
X0353096Y0393010D01*
X0353186Y0392842D01*
X0353281Y0392677D01*
X0353379Y0392514D01*
X0353482Y0392354D01*
X0353588Y0392196D01*
X0353698Y0392041D01*
X0353811Y0391888D01*
X0353929Y0391738D01*
X0354050Y0391592D01*
X0354174Y0391448D01*
X0354302Y0391307D01*
X0354433Y0391169D01*
X0354568Y0391034D01*
X0354706Y0390903D01*
X0354847Y0390775D01*
X0354991Y0390651D01*
X0355137Y0390530D01*
X0355287Y0390412D01*
X0355440Y0390299D01*
X0355595Y0390189D01*
X0355753Y0390083D01*
X0355913Y0389980D01*
X0356076Y0389882D01*
X0356241Y0389787D01*
X0356409Y0389697D01*
X0356578Y0389611D01*
X0356750Y0389528D01*
X0356923Y0389450D01*
X0357099Y0389376D01*
X0357276Y0389307D01*
X0357455Y0389241D01*
X0357635Y0389180D01*
X0357816Y0389124D01*
X0357999Y0389072D01*
X0358184Y0389024D01*
X0358369Y0388981D01*
X0358555Y0388942D01*
X0358742Y0388907D01*
X0358930Y0388878D01*
X0359119Y0388852D01*
X0359308Y0388832D01*
X0359498Y0388816D01*
X0359688Y0388804D01*
X0359878Y0388797D01*
X0360068Y0388795D01*
X0360258Y0388797D01*
X0360448Y0388804D01*
X0360638Y0388816D01*
X0360828Y0388832D01*
X0361017Y0388852D01*
X0361206Y0388878D01*
X0361394Y0388907D01*
X0361581Y0388942D01*
X0361767Y0388981D01*
X0361952Y0389024D01*
X0362137Y0389072D01*
X0362320Y0389124D01*
X0362501Y0389180D01*
X0362681Y0389241D01*
X0362860Y0389307D01*
X0363037Y0389376D01*
X0363213Y0389450D01*
X0363386Y0389528D01*
X0363558Y0389611D01*
X0363727Y0389697D01*
X0363895Y0389787D01*
X0364060Y0389882D01*
X0364223Y0389980D01*
X0364383Y0390083D01*
X0364541Y0390189D01*
X0364696Y0390299D01*
X0364849Y0390412D01*
X0364999Y0390530D01*
X0365145Y0390651D01*
X0365289Y0390775D01*
X0365430Y0390903D01*
X0365568Y0391034D01*
X0365703Y0391169D01*
X0365834Y0391307D01*
X0365962Y0391448D01*
X0366086Y0391592D01*
X0366207Y0391738D01*
X0366325Y0391888D01*
X0366438Y0392041D01*
X0366548Y0392196D01*
X0366654Y0392354D01*
X0366757Y0392514D01*
X0366855Y0392677D01*
X0366950Y0392842D01*
X0367040Y0393010D01*
X0367126Y0393179D01*
X0367209Y0393351D01*
X0367287Y0393524D01*
X0367361Y0393700D01*
X0367430Y0393877D01*
X0367496Y0394056D01*
X0367557Y0394236D01*
X0367613Y0394417D01*
X0367665Y0394600D01*
X0367713Y0394785D01*
X0367756Y0394970D01*
X0367795Y0395156D01*
X0367830Y0395343D01*
X0367859Y0395531D01*
X0367885Y0395720D01*
X0367905Y0395909D01*
X0367921Y0396099D01*
X0367933Y0396289D01*
X0367940Y0396479D01*
X0367942Y0396669D01*
X0395501Y0396669D01*
X0395501Y0044307D01*
X0375816Y0044307D01*
X0375816Y0006118D01*
X0375814Y0006008D01*
X0375808Y0005898D01*
X0375799Y0005789D01*
X0375785Y0005680D01*
X0375768Y0005571D01*
X0375747Y0005463D01*
X0375722Y0005356D01*
X0375694Y0005250D01*
X0375662Y0005145D01*
X0375626Y0005041D01*
X0375587Y0004938D01*
X0375544Y0004837D01*
X0375497Y0004737D01*
X0375447Y0004639D01*
X0375394Y0004543D01*
X0375337Y0004449D01*
X0375277Y0004357D01*
X0375214Y0004266D01*
X0375148Y0004179D01*
X0375079Y0004093D01*
X0375007Y0004010D01*
X0374932Y0003930D01*
X0374854Y0003852D01*
X0374774Y0003777D01*
X0374691Y0003705D01*
X0374605Y0003636D01*
X0374518Y0003570D01*
X0374427Y0003507D01*
X0374335Y0003447D01*
X0374241Y0003390D01*
X0374145Y0003337D01*
X0374047Y0003287D01*
X0373947Y0003240D01*
X0373846Y0003197D01*
X0373743Y0003158D01*
X0373639Y0003122D01*
X0373534Y0003090D01*
X0373428Y0003062D01*
X0373321Y0003037D01*
X0373213Y0003016D01*
X0373104Y0002999D01*
X0372995Y0002985D01*
X0372886Y0002976D01*
X0372776Y0002970D01*
X0372666Y0002968D01*
X0372666Y0002969D02*
X0332115Y0002969D01*
X0332115Y0002968D02*
X0331968Y0002970D01*
X0331822Y0002976D01*
X0331675Y0002986D01*
X0331529Y0002999D01*
X0331383Y0003017D01*
X0331238Y0003038D01*
X0331094Y0003063D01*
X0330950Y0003093D01*
X0330807Y0003125D01*
X0330665Y0003162D01*
X0330524Y0003203D01*
X0330384Y0003247D01*
X0330245Y0003295D01*
X0330108Y0003346D01*
X0329972Y0003402D01*
X0329837Y0003461D01*
X0329705Y0003523D01*
X0329573Y0003589D01*
X0329444Y0003658D01*
X0329317Y0003731D01*
X0329191Y0003807D01*
X0329068Y0003887D01*
X0328947Y0003970D01*
X0328828Y0004055D01*
X0328711Y0004145D01*
X0328597Y0004237D01*
X0328485Y0004332D01*
X0328376Y0004430D01*
X0328270Y0004531D01*
X0328166Y0004635D01*
X0328065Y0004741D01*
X0327967Y0004850D01*
X0327872Y0004962D01*
X0327780Y0005076D01*
X0327690Y0005193D01*
X0327605Y0005312D01*
X0327522Y0005433D01*
X0327442Y0005556D01*
X0327366Y0005682D01*
X0327293Y0005809D01*
X0327224Y0005938D01*
X0327158Y0006070D01*
X0327096Y0006202D01*
X0327037Y0006337D01*
X0326981Y0006473D01*
X0326930Y0006610D01*
X0326882Y0006749D01*
X0326838Y0006889D01*
X0326797Y0007030D01*
X0326760Y0007172D01*
X0326728Y0007315D01*
X0326698Y0007459D01*
X0326673Y0007603D01*
X0326652Y0007748D01*
X0326634Y0007894D01*
X0326621Y0008040D01*
X0326611Y0008187D01*
X0326605Y0008333D01*
X0326603Y0008480D01*
X0326603Y0043913D01*
X0315973Y0043913D01*
X0315973Y0006118D01*
X0315974Y0006118D02*
X0315972Y0006008D01*
X0315966Y0005898D01*
X0315957Y0005789D01*
X0315943Y0005680D01*
X0315926Y0005571D01*
X0315905Y0005463D01*
X0315880Y0005356D01*
X0315852Y0005250D01*
X0315820Y0005145D01*
X0315784Y0005041D01*
X0315745Y0004938D01*
X0315702Y0004837D01*
X0315655Y0004737D01*
X0315605Y0004639D01*
X0315552Y0004543D01*
X0315495Y0004449D01*
X0315435Y0004357D01*
X0315372Y0004266D01*
X0315306Y0004179D01*
X0315237Y0004093D01*
X0315165Y0004010D01*
X0315090Y0003930D01*
X0315012Y0003852D01*
X0314932Y0003777D01*
X0314849Y0003705D01*
X0314763Y0003636D01*
X0314676Y0003570D01*
X0314585Y0003507D01*
X0314493Y0003447D01*
X0314399Y0003390D01*
X0314303Y0003337D01*
X0314205Y0003287D01*
X0314105Y0003240D01*
X0314004Y0003197D01*
X0313901Y0003158D01*
X0313797Y0003122D01*
X0313692Y0003090D01*
X0313586Y0003062D01*
X0313479Y0003037D01*
X0313371Y0003016D01*
X0313262Y0002999D01*
X0313153Y0002985D01*
X0313044Y0002976D01*
X0312934Y0002970D01*
X0312824Y0002968D01*
X0312824Y0002969D02*
X0084871Y0002969D01*
X0084871Y0002968D02*
X0084761Y0002970D01*
X0084651Y0002976D01*
X0084542Y0002985D01*
X0084433Y0002999D01*
X0084324Y0003016D01*
X0084216Y0003037D01*
X0084109Y0003062D01*
X0084003Y0003090D01*
X0083898Y0003122D01*
X0083794Y0003158D01*
X0083691Y0003197D01*
X0083590Y0003240D01*
X0083490Y0003287D01*
X0083392Y0003337D01*
X0083296Y0003390D01*
X0083202Y0003447D01*
X0083110Y0003507D01*
X0083019Y0003570D01*
X0082932Y0003636D01*
X0082846Y0003705D01*
X0082763Y0003777D01*
X0082683Y0003852D01*
X0082605Y0003930D01*
X0082530Y0004010D01*
X0082458Y0004093D01*
X0082389Y0004179D01*
X0082323Y0004266D01*
X0082260Y0004357D01*
X0082200Y0004449D01*
X0082143Y0004543D01*
X0082090Y0004639D01*
X0082040Y0004737D01*
X0081993Y0004837D01*
X0081950Y0004938D01*
X0081911Y0005041D01*
X0081875Y0005145D01*
X0081843Y0005250D01*
X0081815Y0005356D01*
X0081790Y0005463D01*
X0081769Y0005571D01*
X0081752Y0005680D01*
X0081738Y0005789D01*
X0081729Y0005898D01*
X0081723Y0006008D01*
X0081721Y0006118D01*
X0081721Y0044307D01*
X0070698Y0044307D01*
X0070698Y0005724D01*
X0070696Y0005621D01*
X0070690Y0005518D01*
X0070681Y0005415D01*
X0070667Y0005313D01*
X0070650Y0005212D01*
X0070629Y0005111D01*
X0070604Y0005011D01*
X0070576Y0004912D01*
X0070543Y0004814D01*
X0070507Y0004717D01*
X0070468Y0004622D01*
X0070425Y0004528D01*
X0070379Y0004436D01*
X0070329Y0004346D01*
X0070276Y0004258D01*
X0070219Y0004171D01*
X0070159Y0004087D01*
X0070097Y0004006D01*
X0070031Y0003926D01*
X0069962Y0003849D01*
X0069891Y0003775D01*
X0069817Y0003704D01*
X0069740Y0003635D01*
X0069660Y0003569D01*
X0069579Y0003507D01*
X0069495Y0003447D01*
X0069408Y0003390D01*
X0069320Y0003337D01*
X0069230Y0003287D01*
X0069138Y0003241D01*
X0069044Y0003198D01*
X0068949Y0003159D01*
X0068852Y0003123D01*
X0068754Y0003090D01*
X0068655Y0003062D01*
X0068555Y0003037D01*
X0068454Y0003016D01*
X0068353Y0002999D01*
X0068251Y0002985D01*
X0068148Y0002976D01*
X0068045Y0002970D01*
X0067942Y0002968D01*
X0067942Y0002969D02*
X0024635Y0002969D01*
X0024635Y0002968D02*
X0024525Y0002970D01*
X0024415Y0002976D01*
X0024306Y0002985D01*
X0024197Y0002999D01*
X0024088Y0003016D01*
X0023980Y0003037D01*
X0023873Y0003062D01*
X0023767Y0003090D01*
X0023662Y0003122D01*
X0023558Y0003158D01*
X0023455Y0003197D01*
X0023354Y0003240D01*
X0023254Y0003287D01*
X0023156Y0003337D01*
X0023060Y0003390D01*
X0022966Y0003447D01*
X0022874Y0003507D01*
X0022783Y0003570D01*
X0022696Y0003636D01*
X0022610Y0003705D01*
X0022527Y0003777D01*
X0022447Y0003852D01*
X0022369Y0003930D01*
X0022294Y0004010D01*
X0022222Y0004093D01*
X0022153Y0004179D01*
X0022087Y0004266D01*
X0022024Y0004357D01*
X0021964Y0004449D01*
X0021907Y0004543D01*
X0021854Y0004639D01*
X0021804Y0004737D01*
X0021757Y0004837D01*
X0021714Y0004938D01*
X0021675Y0005041D01*
X0021639Y0005145D01*
X0021607Y0005250D01*
X0021579Y0005356D01*
X0021554Y0005463D01*
X0021533Y0005571D01*
X0021516Y0005680D01*
X0021502Y0005789D01*
X0021493Y0005898D01*
X0021487Y0006008D01*
X0021485Y0006118D01*
X0055540Y0199819D02*
X0055540Y0215567D01*
X0105146Y0215567D01*
X0105146Y0375016D01*
X0112036Y0375016D01*
X0112036Y0215567D01*
X0145698Y0215567D01*
X0145894Y0215567D01*
X0145894Y0199819D01*
X0055540Y0199819D01*
X0164989Y0199819D02*
X0164989Y0215567D01*
X0200619Y0215567D01*
X0200619Y0375016D01*
X0210461Y0375016D01*
X0210461Y0215567D01*
X0245107Y0215567D01*
X0245107Y0199819D01*
X0164989Y0199819D01*
X0200619Y0215567D02*
X0200619Y0375016D01*
X0210461Y0375016D02*
X0210461Y0215567D01*
X0262036Y0215567D02*
X0262036Y0199819D01*
X0376800Y0199819D01*
X0376800Y0215567D01*
X0306918Y0215567D01*
X0306918Y0375016D01*
X0299044Y0375016D01*
X0299044Y0215567D01*
X0262036Y0215567D01*
X0299044Y0215567D02*
X0299044Y0375016D01*
X0306918Y0375016D02*
X0306918Y0215567D01*
X0081702Y0336551D02*
X0081704Y0336650D01*
X0081710Y0336750D01*
X0081720Y0336849D01*
X0081734Y0336947D01*
X0081751Y0337045D01*
X0081773Y0337142D01*
X0081798Y0337238D01*
X0081827Y0337333D01*
X0081860Y0337427D01*
X0081897Y0337519D01*
X0081937Y0337610D01*
X0081981Y0337699D01*
X0082029Y0337787D01*
X0082080Y0337872D01*
X0082134Y0337955D01*
X0082191Y0338037D01*
X0082252Y0338115D01*
X0082316Y0338192D01*
X0082382Y0338265D01*
X0082452Y0338336D01*
X0082524Y0338404D01*
X0082599Y0338470D01*
X0082677Y0338532D01*
X0082757Y0338591D01*
X0082839Y0338647D01*
X0082923Y0338699D01*
X0083010Y0338748D01*
X0083098Y0338794D01*
X0083188Y0338836D01*
X0083280Y0338875D01*
X0083373Y0338910D01*
X0083467Y0338941D01*
X0083563Y0338968D01*
X0083660Y0338991D01*
X0083757Y0339011D01*
X0083855Y0339027D01*
X0083954Y0339039D01*
X0084053Y0339047D01*
X0084152Y0339051D01*
X0084252Y0339051D01*
X0084351Y0339047D01*
X0084450Y0339039D01*
X0084549Y0339027D01*
X0084647Y0339011D01*
X0084744Y0338991D01*
X0084841Y0338968D01*
X0084937Y0338941D01*
X0085031Y0338910D01*
X0085124Y0338875D01*
X0085216Y0338836D01*
X0085306Y0338794D01*
X0085394Y0338748D01*
X0085481Y0338699D01*
X0085565Y0338647D01*
X0085647Y0338591D01*
X0085727Y0338532D01*
X0085805Y0338470D01*
X0085880Y0338404D01*
X0085952Y0338336D01*
X0086022Y0338265D01*
X0086088Y0338192D01*
X0086152Y0338115D01*
X0086213Y0338037D01*
X0086270Y0337955D01*
X0086324Y0337872D01*
X0086375Y0337787D01*
X0086423Y0337699D01*
X0086467Y0337610D01*
X0086507Y0337519D01*
X0086544Y0337427D01*
X0086577Y0337333D01*
X0086606Y0337238D01*
X0086631Y0337142D01*
X0086653Y0337045D01*
X0086670Y0336947D01*
X0086684Y0336849D01*
X0086694Y0336750D01*
X0086700Y0336650D01*
X0086702Y0336551D01*
X0086700Y0336452D01*
X0086694Y0336352D01*
X0086684Y0336253D01*
X0086670Y0336155D01*
X0086653Y0336057D01*
X0086631Y0335960D01*
X0086606Y0335864D01*
X0086577Y0335769D01*
X0086544Y0335675D01*
X0086507Y0335583D01*
X0086467Y0335492D01*
X0086423Y0335403D01*
X0086375Y0335315D01*
X0086324Y0335230D01*
X0086270Y0335147D01*
X0086213Y0335065D01*
X0086152Y0334987D01*
X0086088Y0334910D01*
X0086022Y0334837D01*
X0085952Y0334766D01*
X0085880Y0334698D01*
X0085805Y0334632D01*
X0085727Y0334570D01*
X0085647Y0334511D01*
X0085565Y0334455D01*
X0085481Y0334403D01*
X0085394Y0334354D01*
X0085306Y0334308D01*
X0085216Y0334266D01*
X0085124Y0334227D01*
X0085031Y0334192D01*
X0084937Y0334161D01*
X0084841Y0334134D01*
X0084744Y0334111D01*
X0084647Y0334091D01*
X0084549Y0334075D01*
X0084450Y0334063D01*
X0084351Y0334055D01*
X0084252Y0334051D01*
X0084152Y0334051D01*
X0084053Y0334055D01*
X0083954Y0334063D01*
X0083855Y0334075D01*
X0083757Y0334091D01*
X0083660Y0334111D01*
X0083563Y0334134D01*
X0083467Y0334161D01*
X0083373Y0334192D01*
X0083280Y0334227D01*
X0083188Y0334266D01*
X0083098Y0334308D01*
X0083010Y0334354D01*
X0082923Y0334403D01*
X0082839Y0334455D01*
X0082757Y0334511D01*
X0082677Y0334570D01*
X0082599Y0334632D01*
X0082524Y0334698D01*
X0082452Y0334766D01*
X0082382Y0334837D01*
X0082316Y0334910D01*
X0082252Y0334987D01*
X0082191Y0335065D01*
X0082134Y0335147D01*
X0082080Y0335230D01*
X0082029Y0335315D01*
X0081981Y0335403D01*
X0081937Y0335492D01*
X0081897Y0335583D01*
X0081860Y0335675D01*
X0081827Y0335769D01*
X0081798Y0335864D01*
X0081773Y0335960D01*
X0081751Y0336057D01*
X0081734Y0336155D01*
X0081720Y0336253D01*
X0081710Y0336352D01*
X0081704Y0336452D01*
X0081702Y0336551D01*
D12*
X0263968Y0090761D02*
X0262433Y0089226D01*
X0263968Y0087691D01*
X0267037Y0087691D01*
X0266270Y0086157D02*
X0263200Y0086157D01*
X0262433Y0085389D01*
X0262433Y0083855D01*
X0263200Y0083087D01*
X0263200Y0081553D02*
X0262433Y0080785D01*
X0262433Y0079251D01*
X0263200Y0078484D01*
X0263200Y0081553D02*
X0266270Y0081553D01*
X0267037Y0080785D01*
X0267037Y0079251D01*
X0266270Y0078484D01*
X0266270Y0083087D02*
X0267037Y0083855D01*
X0267037Y0085389D01*
X0266270Y0086157D01*
X0267037Y0090761D02*
X0263968Y0090761D01*
X0263200Y0072345D02*
X0262433Y0071578D01*
X0262433Y0070043D01*
X0263200Y0069276D01*
X0263968Y0069276D01*
X0264735Y0070043D01*
X0264735Y0071578D01*
X0265502Y0072345D01*
X0266270Y0072345D01*
X0267037Y0071578D01*
X0267037Y0070043D01*
X0266270Y0069276D01*
X0267037Y0067741D02*
X0262433Y0067741D01*
X0262433Y0064672D01*
X0262433Y0063137D02*
X0262433Y0060068D01*
X0262433Y0063137D02*
X0267037Y0063137D01*
X0267037Y0064672D02*
X0267037Y0067741D01*
X0264735Y0067741D02*
X0264735Y0066206D01*
X0245938Y0073048D02*
X0242868Y0073048D01*
X0244403Y0073048D02*
X0244403Y0068444D01*
X0241334Y0068444D02*
X0238265Y0068444D01*
X0238265Y0073048D01*
X0236730Y0071513D02*
X0236730Y0068444D01*
X0236730Y0070746D02*
X0233661Y0070746D01*
X0233661Y0071513D02*
X0235195Y0073048D01*
X0236730Y0071513D01*
X0233661Y0071513D02*
X0233661Y0068444D01*
X0233661Y0080255D02*
X0233661Y0083324D01*
X0235195Y0084859D01*
X0236730Y0083324D01*
X0236730Y0080255D01*
X0238265Y0080255D02*
X0238265Y0084859D01*
X0240567Y0084859D01*
X0241334Y0084092D01*
X0241334Y0082557D01*
X0240567Y0081790D01*
X0238265Y0081790D01*
X0239799Y0081790D02*
X0241334Y0080255D01*
X0242868Y0080255D02*
X0245170Y0080255D01*
X0245938Y0081022D01*
X0245938Y0084092D01*
X0245170Y0084859D01*
X0242868Y0084859D01*
X0242868Y0080255D01*
X0236730Y0082557D02*
X0233661Y0082557D01*
D13*
X0076765Y0227567D02*
X0076765Y0233567D01*
X0076763Y0233627D01*
X0076758Y0233688D01*
X0076749Y0233747D01*
X0076736Y0233806D01*
X0076720Y0233865D01*
X0076700Y0233922D01*
X0076677Y0233977D01*
X0076650Y0234032D01*
X0076621Y0234084D01*
X0076588Y0234135D01*
X0076552Y0234184D01*
X0076514Y0234230D01*
X0076472Y0234274D01*
X0076428Y0234316D01*
X0076382Y0234354D01*
X0076333Y0234390D01*
X0076282Y0234423D01*
X0076230Y0234452D01*
X0076175Y0234479D01*
X0076120Y0234502D01*
X0076063Y0234522D01*
X0076004Y0234538D01*
X0075945Y0234551D01*
X0075886Y0234560D01*
X0075825Y0234565D01*
X0075765Y0234567D01*
X0064765Y0234567D01*
X0064705Y0234565D01*
X0064644Y0234560D01*
X0064585Y0234551D01*
X0064526Y0234538D01*
X0064467Y0234522D01*
X0064410Y0234502D01*
X0064355Y0234479D01*
X0064300Y0234452D01*
X0064248Y0234423D01*
X0064197Y0234390D01*
X0064148Y0234354D01*
X0064102Y0234316D01*
X0064058Y0234274D01*
X0064016Y0234230D01*
X0063978Y0234184D01*
X0063942Y0234135D01*
X0063909Y0234084D01*
X0063880Y0234032D01*
X0063853Y0233977D01*
X0063830Y0233922D01*
X0063810Y0233865D01*
X0063794Y0233806D01*
X0063781Y0233747D01*
X0063772Y0233688D01*
X0063767Y0233627D01*
X0063765Y0233567D01*
X0063765Y0227567D01*
X0063767Y0227507D01*
X0063772Y0227446D01*
X0063781Y0227387D01*
X0063794Y0227328D01*
X0063810Y0227269D01*
X0063830Y0227212D01*
X0063853Y0227157D01*
X0063880Y0227102D01*
X0063909Y0227050D01*
X0063942Y0226999D01*
X0063978Y0226950D01*
X0064016Y0226904D01*
X0064058Y0226860D01*
X0064102Y0226818D01*
X0064148Y0226780D01*
X0064197Y0226744D01*
X0064248Y0226711D01*
X0064300Y0226682D01*
X0064355Y0226655D01*
X0064410Y0226632D01*
X0064467Y0226612D01*
X0064526Y0226596D01*
X0064585Y0226583D01*
X0064644Y0226574D01*
X0064705Y0226569D01*
X0064765Y0226567D01*
X0075765Y0226567D01*
X0075825Y0226569D01*
X0075886Y0226574D01*
X0075945Y0226583D01*
X0076004Y0226596D01*
X0076063Y0226612D01*
X0076120Y0226632D01*
X0076175Y0226655D01*
X0076230Y0226682D01*
X0076282Y0226711D01*
X0076333Y0226744D01*
X0076382Y0226780D01*
X0076428Y0226818D01*
X0076472Y0226860D01*
X0076514Y0226904D01*
X0076552Y0226950D01*
X0076588Y0226999D01*
X0076621Y0227050D01*
X0076650Y0227102D01*
X0076677Y0227157D01*
X0076700Y0227212D01*
X0076720Y0227269D01*
X0076736Y0227328D01*
X0076749Y0227387D01*
X0076758Y0227446D01*
X0076763Y0227507D01*
X0076765Y0227567D01*
X0075765Y0241567D02*
X0064765Y0241567D01*
X0064705Y0241569D01*
X0064644Y0241574D01*
X0064585Y0241583D01*
X0064526Y0241596D01*
X0064467Y0241612D01*
X0064410Y0241632D01*
X0064355Y0241655D01*
X0064300Y0241682D01*
X0064248Y0241711D01*
X0064197Y0241744D01*
X0064148Y0241780D01*
X0064102Y0241818D01*
X0064058Y0241860D01*
X0064016Y0241904D01*
X0063978Y0241950D01*
X0063942Y0241999D01*
X0063909Y0242050D01*
X0063880Y0242102D01*
X0063853Y0242157D01*
X0063830Y0242212D01*
X0063810Y0242269D01*
X0063794Y0242328D01*
X0063781Y0242387D01*
X0063772Y0242446D01*
X0063767Y0242507D01*
X0063765Y0242567D01*
X0063765Y0248567D01*
X0063767Y0248627D01*
X0063772Y0248688D01*
X0063781Y0248747D01*
X0063794Y0248806D01*
X0063810Y0248865D01*
X0063830Y0248922D01*
X0063853Y0248977D01*
X0063880Y0249032D01*
X0063909Y0249084D01*
X0063942Y0249135D01*
X0063978Y0249184D01*
X0064016Y0249230D01*
X0064058Y0249274D01*
X0064102Y0249316D01*
X0064148Y0249354D01*
X0064197Y0249390D01*
X0064248Y0249423D01*
X0064300Y0249452D01*
X0064355Y0249479D01*
X0064410Y0249502D01*
X0064467Y0249522D01*
X0064526Y0249538D01*
X0064585Y0249551D01*
X0064644Y0249560D01*
X0064705Y0249565D01*
X0064765Y0249567D01*
X0075765Y0249567D01*
X0075825Y0249565D01*
X0075886Y0249560D01*
X0075945Y0249551D01*
X0076004Y0249538D01*
X0076063Y0249522D01*
X0076120Y0249502D01*
X0076175Y0249479D01*
X0076230Y0249452D01*
X0076282Y0249423D01*
X0076333Y0249390D01*
X0076382Y0249354D01*
X0076428Y0249316D01*
X0076472Y0249274D01*
X0076514Y0249230D01*
X0076552Y0249184D01*
X0076588Y0249135D01*
X0076621Y0249084D01*
X0076650Y0249032D01*
X0076677Y0248977D01*
X0076700Y0248922D01*
X0076720Y0248865D01*
X0076736Y0248806D01*
X0076749Y0248747D01*
X0076758Y0248688D01*
X0076763Y0248627D01*
X0076765Y0248567D01*
X0076765Y0242567D01*
X0076763Y0242507D01*
X0076758Y0242446D01*
X0076749Y0242387D01*
X0076736Y0242328D01*
X0076720Y0242269D01*
X0076700Y0242212D01*
X0076677Y0242157D01*
X0076650Y0242102D01*
X0076621Y0242050D01*
X0076588Y0241999D01*
X0076552Y0241950D01*
X0076514Y0241904D01*
X0076472Y0241860D01*
X0076428Y0241818D01*
X0076382Y0241780D01*
X0076333Y0241744D01*
X0076282Y0241711D01*
X0076230Y0241682D01*
X0076175Y0241655D01*
X0076120Y0241632D01*
X0076063Y0241612D01*
X0076004Y0241596D01*
X0075945Y0241583D01*
X0075886Y0241574D01*
X0075825Y0241569D01*
X0075765Y0241567D01*
X0060902Y0268769D02*
X0059835Y0268769D01*
X0055565Y0273039D01*
X0055565Y0268769D01*
X0060902Y0268769D02*
X0061970Y0269837D01*
X0061970Y0271972D01*
X0060902Y0273039D01*
X0060902Y0275215D02*
X0059835Y0275215D01*
X0058767Y0276282D01*
X0057700Y0275215D01*
X0056632Y0275215D01*
X0055565Y0276282D01*
X0055565Y0278417D01*
X0056632Y0279485D01*
X0056632Y0281660D02*
X0055565Y0282728D01*
X0055565Y0284863D01*
X0056632Y0285930D01*
X0060902Y0281660D01*
X0056632Y0281660D01*
X0056632Y0285930D02*
X0060902Y0285930D01*
X0061970Y0284863D01*
X0061970Y0282728D01*
X0060902Y0281660D01*
X0060902Y0279485D02*
X0061970Y0278417D01*
X0061970Y0276282D01*
X0060902Y0275215D01*
X0058767Y0276282D02*
X0058767Y0277350D01*
X0061970Y0288106D02*
X0061970Y0292376D01*
X0055565Y0292376D01*
X0056632Y0294551D02*
X0055565Y0295619D01*
X0055565Y0297754D01*
X0056632Y0298821D01*
X0058767Y0297754D02*
X0058767Y0294551D01*
X0056632Y0294551D02*
X0060902Y0294551D01*
X0061970Y0295619D01*
X0061970Y0297754D01*
X0060902Y0298821D01*
X0059835Y0298821D01*
X0058767Y0297754D01*
X0059835Y0300997D02*
X0060902Y0300997D01*
X0061970Y0302064D01*
X0061970Y0304199D01*
X0060902Y0305267D01*
X0059835Y0300997D02*
X0055565Y0305267D01*
X0055565Y0300997D01*
X0058767Y0292376D02*
X0058767Y0290241D01*
X0064765Y0356567D02*
X0075765Y0356567D01*
X0075825Y0356569D01*
X0075886Y0356574D01*
X0075945Y0356583D01*
X0076004Y0356596D01*
X0076063Y0356612D01*
X0076120Y0356632D01*
X0076175Y0356655D01*
X0076230Y0356682D01*
X0076282Y0356711D01*
X0076333Y0356744D01*
X0076382Y0356780D01*
X0076428Y0356818D01*
X0076472Y0356860D01*
X0076514Y0356904D01*
X0076552Y0356950D01*
X0076588Y0356999D01*
X0076621Y0357050D01*
X0076650Y0357102D01*
X0076677Y0357157D01*
X0076700Y0357212D01*
X0076720Y0357269D01*
X0076736Y0357328D01*
X0076749Y0357387D01*
X0076758Y0357446D01*
X0076763Y0357507D01*
X0076765Y0357567D01*
X0076765Y0363567D01*
X0076763Y0363627D01*
X0076758Y0363688D01*
X0076749Y0363747D01*
X0076736Y0363806D01*
X0076720Y0363865D01*
X0076700Y0363922D01*
X0076677Y0363977D01*
X0076650Y0364032D01*
X0076621Y0364084D01*
X0076588Y0364135D01*
X0076552Y0364184D01*
X0076514Y0364230D01*
X0076472Y0364274D01*
X0076428Y0364316D01*
X0076382Y0364354D01*
X0076333Y0364390D01*
X0076282Y0364423D01*
X0076230Y0364452D01*
X0076175Y0364479D01*
X0076120Y0364502D01*
X0076063Y0364522D01*
X0076004Y0364538D01*
X0075945Y0364551D01*
X0075886Y0364560D01*
X0075825Y0364565D01*
X0075765Y0364567D01*
X0064765Y0364567D01*
X0064705Y0364565D01*
X0064644Y0364560D01*
X0064585Y0364551D01*
X0064526Y0364538D01*
X0064467Y0364522D01*
X0064410Y0364502D01*
X0064355Y0364479D01*
X0064300Y0364452D01*
X0064248Y0364423D01*
X0064197Y0364390D01*
X0064148Y0364354D01*
X0064102Y0364316D01*
X0064058Y0364274D01*
X0064016Y0364230D01*
X0063978Y0364184D01*
X0063942Y0364135D01*
X0063909Y0364084D01*
X0063880Y0364032D01*
X0063853Y0363977D01*
X0063830Y0363922D01*
X0063810Y0363865D01*
X0063794Y0363806D01*
X0063781Y0363747D01*
X0063772Y0363688D01*
X0063767Y0363627D01*
X0063765Y0363567D01*
X0063765Y0357567D01*
X0063767Y0357507D01*
X0063772Y0357446D01*
X0063781Y0357387D01*
X0063794Y0357328D01*
X0063810Y0357269D01*
X0063830Y0357212D01*
X0063853Y0357157D01*
X0063880Y0357102D01*
X0063909Y0357050D01*
X0063942Y0356999D01*
X0063978Y0356950D01*
X0064016Y0356904D01*
X0064058Y0356860D01*
X0064102Y0356818D01*
X0064148Y0356780D01*
X0064197Y0356744D01*
X0064248Y0356711D01*
X0064300Y0356682D01*
X0064355Y0356655D01*
X0064410Y0356632D01*
X0064467Y0356612D01*
X0064526Y0356596D01*
X0064585Y0356583D01*
X0064644Y0356574D01*
X0064705Y0356569D01*
X0064765Y0356567D01*
X0064765Y0371567D02*
X0075765Y0371567D01*
X0075825Y0371569D01*
X0075886Y0371574D01*
X0075945Y0371583D01*
X0076004Y0371596D01*
X0076063Y0371612D01*
X0076120Y0371632D01*
X0076175Y0371655D01*
X0076230Y0371682D01*
X0076282Y0371711D01*
X0076333Y0371744D01*
X0076382Y0371780D01*
X0076428Y0371818D01*
X0076472Y0371860D01*
X0076514Y0371904D01*
X0076552Y0371950D01*
X0076588Y0371999D01*
X0076621Y0372050D01*
X0076650Y0372102D01*
X0076677Y0372157D01*
X0076700Y0372212D01*
X0076720Y0372269D01*
X0076736Y0372328D01*
X0076749Y0372387D01*
X0076758Y0372446D01*
X0076763Y0372507D01*
X0076765Y0372567D01*
X0076765Y0378567D01*
X0076763Y0378627D01*
X0076758Y0378688D01*
X0076749Y0378747D01*
X0076736Y0378806D01*
X0076720Y0378865D01*
X0076700Y0378922D01*
X0076677Y0378977D01*
X0076650Y0379032D01*
X0076621Y0379084D01*
X0076588Y0379135D01*
X0076552Y0379184D01*
X0076514Y0379230D01*
X0076472Y0379274D01*
X0076428Y0379316D01*
X0076382Y0379354D01*
X0076333Y0379390D01*
X0076282Y0379423D01*
X0076230Y0379452D01*
X0076175Y0379479D01*
X0076120Y0379502D01*
X0076063Y0379522D01*
X0076004Y0379538D01*
X0075945Y0379551D01*
X0075886Y0379560D01*
X0075825Y0379565D01*
X0075765Y0379567D01*
X0064765Y0379567D01*
X0064705Y0379565D01*
X0064644Y0379560D01*
X0064585Y0379551D01*
X0064526Y0379538D01*
X0064467Y0379522D01*
X0064410Y0379502D01*
X0064355Y0379479D01*
X0064300Y0379452D01*
X0064248Y0379423D01*
X0064197Y0379390D01*
X0064148Y0379354D01*
X0064102Y0379316D01*
X0064058Y0379274D01*
X0064016Y0379230D01*
X0063978Y0379184D01*
X0063942Y0379135D01*
X0063909Y0379084D01*
X0063880Y0379032D01*
X0063853Y0378977D01*
X0063830Y0378922D01*
X0063810Y0378865D01*
X0063794Y0378806D01*
X0063781Y0378747D01*
X0063772Y0378688D01*
X0063767Y0378627D01*
X0063765Y0378567D01*
X0063765Y0372567D01*
X0063767Y0372507D01*
X0063772Y0372446D01*
X0063781Y0372387D01*
X0063794Y0372328D01*
X0063810Y0372269D01*
X0063830Y0372212D01*
X0063853Y0372157D01*
X0063880Y0372102D01*
X0063909Y0372050D01*
X0063942Y0371999D01*
X0063978Y0371950D01*
X0064016Y0371904D01*
X0064058Y0371860D01*
X0064102Y0371818D01*
X0064148Y0371780D01*
X0064197Y0371744D01*
X0064248Y0371711D01*
X0064300Y0371682D01*
X0064355Y0371655D01*
X0064410Y0371632D01*
X0064467Y0371612D01*
X0064526Y0371596D01*
X0064585Y0371583D01*
X0064644Y0371574D01*
X0064705Y0371569D01*
X0064765Y0371567D01*
X0121816Y0370673D02*
X0121816Y0359673D01*
X0121818Y0359613D01*
X0121823Y0359552D01*
X0121832Y0359493D01*
X0121845Y0359434D01*
X0121861Y0359375D01*
X0121881Y0359318D01*
X0121904Y0359263D01*
X0121931Y0359208D01*
X0121960Y0359156D01*
X0121993Y0359105D01*
X0122029Y0359056D01*
X0122067Y0359010D01*
X0122109Y0358966D01*
X0122153Y0358924D01*
X0122199Y0358886D01*
X0122248Y0358850D01*
X0122299Y0358817D01*
X0122351Y0358788D01*
X0122406Y0358761D01*
X0122461Y0358738D01*
X0122518Y0358718D01*
X0122577Y0358702D01*
X0122636Y0358689D01*
X0122695Y0358680D01*
X0122756Y0358675D01*
X0122816Y0358673D01*
X0128816Y0358673D01*
X0128876Y0358675D01*
X0128937Y0358680D01*
X0128996Y0358689D01*
X0129055Y0358702D01*
X0129114Y0358718D01*
X0129171Y0358738D01*
X0129226Y0358761D01*
X0129281Y0358788D01*
X0129333Y0358817D01*
X0129384Y0358850D01*
X0129433Y0358886D01*
X0129479Y0358924D01*
X0129523Y0358966D01*
X0129565Y0359010D01*
X0129603Y0359056D01*
X0129639Y0359105D01*
X0129672Y0359156D01*
X0129701Y0359208D01*
X0129728Y0359263D01*
X0129751Y0359318D01*
X0129771Y0359375D01*
X0129787Y0359434D01*
X0129800Y0359493D01*
X0129809Y0359552D01*
X0129814Y0359613D01*
X0129816Y0359673D01*
X0129816Y0370673D01*
X0129814Y0370733D01*
X0129809Y0370794D01*
X0129800Y0370853D01*
X0129787Y0370912D01*
X0129771Y0370971D01*
X0129751Y0371028D01*
X0129728Y0371083D01*
X0129701Y0371138D01*
X0129672Y0371190D01*
X0129639Y0371241D01*
X0129603Y0371290D01*
X0129565Y0371336D01*
X0129523Y0371380D01*
X0129479Y0371422D01*
X0129433Y0371460D01*
X0129384Y0371496D01*
X0129333Y0371529D01*
X0129281Y0371558D01*
X0129226Y0371585D01*
X0129171Y0371608D01*
X0129114Y0371628D01*
X0129055Y0371644D01*
X0128996Y0371657D01*
X0128937Y0371666D01*
X0128876Y0371671D01*
X0128816Y0371673D01*
X0122816Y0371673D01*
X0122756Y0371671D01*
X0122695Y0371666D01*
X0122636Y0371657D01*
X0122577Y0371644D01*
X0122518Y0371628D01*
X0122461Y0371608D01*
X0122406Y0371585D01*
X0122351Y0371558D01*
X0122299Y0371529D01*
X0122248Y0371496D01*
X0122199Y0371460D01*
X0122153Y0371422D01*
X0122109Y0371380D01*
X0122067Y0371336D01*
X0122029Y0371290D01*
X0121993Y0371241D01*
X0121960Y0371190D01*
X0121931Y0371138D01*
X0121904Y0371083D01*
X0121881Y0371028D01*
X0121861Y0370971D01*
X0121845Y0370912D01*
X0121832Y0370853D01*
X0121823Y0370794D01*
X0121818Y0370733D01*
X0121816Y0370673D01*
X0122816Y0378358D02*
X0128816Y0378358D01*
X0128876Y0378360D01*
X0128937Y0378365D01*
X0128996Y0378374D01*
X0129055Y0378387D01*
X0129114Y0378403D01*
X0129171Y0378423D01*
X0129226Y0378446D01*
X0129281Y0378473D01*
X0129333Y0378502D01*
X0129384Y0378535D01*
X0129433Y0378571D01*
X0129479Y0378609D01*
X0129523Y0378651D01*
X0129565Y0378695D01*
X0129603Y0378741D01*
X0129639Y0378790D01*
X0129672Y0378841D01*
X0129701Y0378893D01*
X0129728Y0378948D01*
X0129751Y0379003D01*
X0129771Y0379060D01*
X0129787Y0379119D01*
X0129800Y0379178D01*
X0129809Y0379237D01*
X0129814Y0379298D01*
X0129816Y0379358D01*
X0129816Y0390358D01*
X0129814Y0390418D01*
X0129809Y0390479D01*
X0129800Y0390538D01*
X0129787Y0390597D01*
X0129771Y0390656D01*
X0129751Y0390713D01*
X0129728Y0390768D01*
X0129701Y0390823D01*
X0129672Y0390875D01*
X0129639Y0390926D01*
X0129603Y0390975D01*
X0129565Y0391021D01*
X0129523Y0391065D01*
X0129479Y0391107D01*
X0129433Y0391145D01*
X0129384Y0391181D01*
X0129333Y0391214D01*
X0129281Y0391243D01*
X0129226Y0391270D01*
X0129171Y0391293D01*
X0129114Y0391313D01*
X0129055Y0391329D01*
X0128996Y0391342D01*
X0128937Y0391351D01*
X0128876Y0391356D01*
X0128816Y0391358D01*
X0122816Y0391358D01*
X0122756Y0391356D01*
X0122695Y0391351D01*
X0122636Y0391342D01*
X0122577Y0391329D01*
X0122518Y0391313D01*
X0122461Y0391293D01*
X0122406Y0391270D01*
X0122351Y0391243D01*
X0122299Y0391214D01*
X0122248Y0391181D01*
X0122199Y0391145D01*
X0122153Y0391107D01*
X0122109Y0391065D01*
X0122067Y0391021D01*
X0122029Y0390975D01*
X0121993Y0390926D01*
X0121960Y0390875D01*
X0121931Y0390823D01*
X0121904Y0390768D01*
X0121881Y0390713D01*
X0121861Y0390656D01*
X0121845Y0390597D01*
X0121832Y0390538D01*
X0121823Y0390479D01*
X0121818Y0390418D01*
X0121816Y0390358D01*
X0121816Y0379358D01*
X0121818Y0379298D01*
X0121823Y0379237D01*
X0121832Y0379178D01*
X0121845Y0379119D01*
X0121861Y0379060D01*
X0121881Y0379003D01*
X0121904Y0378948D01*
X0121931Y0378893D01*
X0121960Y0378841D01*
X0121993Y0378790D01*
X0122029Y0378741D01*
X0122067Y0378695D01*
X0122109Y0378651D01*
X0122153Y0378609D01*
X0122199Y0378571D01*
X0122248Y0378535D01*
X0122299Y0378502D01*
X0122351Y0378473D01*
X0122406Y0378446D01*
X0122461Y0378423D01*
X0122518Y0378403D01*
X0122577Y0378387D01*
X0122636Y0378374D01*
X0122695Y0378365D01*
X0122756Y0378360D01*
X0122816Y0378358D01*
X0147812Y0377921D02*
X0147812Y0383921D01*
X0147814Y0383981D01*
X0147819Y0384042D01*
X0147828Y0384101D01*
X0147841Y0384160D01*
X0147857Y0384219D01*
X0147877Y0384276D01*
X0147900Y0384331D01*
X0147927Y0384386D01*
X0147956Y0384438D01*
X0147989Y0384489D01*
X0148025Y0384538D01*
X0148063Y0384584D01*
X0148105Y0384628D01*
X0148149Y0384670D01*
X0148195Y0384708D01*
X0148244Y0384744D01*
X0148295Y0384777D01*
X0148347Y0384806D01*
X0148402Y0384833D01*
X0148457Y0384856D01*
X0148514Y0384876D01*
X0148573Y0384892D01*
X0148632Y0384905D01*
X0148691Y0384914D01*
X0148752Y0384919D01*
X0148812Y0384921D01*
X0165812Y0384921D01*
X0165872Y0384919D01*
X0165933Y0384914D01*
X0165992Y0384905D01*
X0166051Y0384892D01*
X0166110Y0384876D01*
X0166167Y0384856D01*
X0166222Y0384833D01*
X0166277Y0384806D01*
X0166329Y0384777D01*
X0166380Y0384744D01*
X0166429Y0384708D01*
X0166475Y0384670D01*
X0166519Y0384628D01*
X0166561Y0384584D01*
X0166599Y0384538D01*
X0166635Y0384489D01*
X0166668Y0384438D01*
X0166697Y0384386D01*
X0166724Y0384331D01*
X0166747Y0384276D01*
X0166767Y0384219D01*
X0166783Y0384160D01*
X0166796Y0384101D01*
X0166805Y0384042D01*
X0166810Y0383981D01*
X0166812Y0383921D01*
X0166812Y0377921D01*
X0166810Y0377861D01*
X0166805Y0377800D01*
X0166796Y0377741D01*
X0166783Y0377682D01*
X0166767Y0377623D01*
X0166747Y0377566D01*
X0166724Y0377511D01*
X0166697Y0377456D01*
X0166668Y0377404D01*
X0166635Y0377353D01*
X0166599Y0377304D01*
X0166561Y0377258D01*
X0166519Y0377214D01*
X0166475Y0377172D01*
X0166429Y0377134D01*
X0166380Y0377098D01*
X0166329Y0377065D01*
X0166277Y0377036D01*
X0166222Y0377009D01*
X0166167Y0376986D01*
X0166110Y0376966D01*
X0166051Y0376950D01*
X0165992Y0376937D01*
X0165933Y0376928D01*
X0165872Y0376923D01*
X0165812Y0376921D01*
X0148812Y0376921D01*
X0148752Y0376923D01*
X0148691Y0376928D01*
X0148632Y0376937D01*
X0148573Y0376950D01*
X0148514Y0376966D01*
X0148457Y0376986D01*
X0148402Y0377009D01*
X0148347Y0377036D01*
X0148295Y0377065D01*
X0148244Y0377098D01*
X0148195Y0377134D01*
X0148149Y0377172D01*
X0148105Y0377214D01*
X0148063Y0377258D01*
X0148025Y0377304D01*
X0147989Y0377353D01*
X0147956Y0377404D01*
X0147927Y0377456D01*
X0147900Y0377511D01*
X0147877Y0377566D01*
X0147857Y0377623D01*
X0147841Y0377682D01*
X0147828Y0377741D01*
X0147819Y0377800D01*
X0147814Y0377861D01*
X0147812Y0377921D01*
X0180871Y0370673D02*
X0180871Y0359673D01*
X0180873Y0359613D01*
X0180878Y0359552D01*
X0180887Y0359493D01*
X0180900Y0359434D01*
X0180916Y0359375D01*
X0180936Y0359318D01*
X0180959Y0359263D01*
X0180986Y0359208D01*
X0181015Y0359156D01*
X0181048Y0359105D01*
X0181084Y0359056D01*
X0181122Y0359010D01*
X0181164Y0358966D01*
X0181208Y0358924D01*
X0181254Y0358886D01*
X0181303Y0358850D01*
X0181354Y0358817D01*
X0181406Y0358788D01*
X0181461Y0358761D01*
X0181516Y0358738D01*
X0181573Y0358718D01*
X0181632Y0358702D01*
X0181691Y0358689D01*
X0181750Y0358680D01*
X0181811Y0358675D01*
X0181871Y0358673D01*
X0187871Y0358673D01*
X0187931Y0358675D01*
X0187992Y0358680D01*
X0188051Y0358689D01*
X0188110Y0358702D01*
X0188169Y0358718D01*
X0188226Y0358738D01*
X0188281Y0358761D01*
X0188336Y0358788D01*
X0188388Y0358817D01*
X0188439Y0358850D01*
X0188488Y0358886D01*
X0188534Y0358924D01*
X0188578Y0358966D01*
X0188620Y0359010D01*
X0188658Y0359056D01*
X0188694Y0359105D01*
X0188727Y0359156D01*
X0188756Y0359208D01*
X0188783Y0359263D01*
X0188806Y0359318D01*
X0188826Y0359375D01*
X0188842Y0359434D01*
X0188855Y0359493D01*
X0188864Y0359552D01*
X0188869Y0359613D01*
X0188871Y0359673D01*
X0188871Y0370673D01*
X0188869Y0370733D01*
X0188864Y0370794D01*
X0188855Y0370853D01*
X0188842Y0370912D01*
X0188826Y0370971D01*
X0188806Y0371028D01*
X0188783Y0371083D01*
X0188756Y0371138D01*
X0188727Y0371190D01*
X0188694Y0371241D01*
X0188658Y0371290D01*
X0188620Y0371336D01*
X0188578Y0371380D01*
X0188534Y0371422D01*
X0188488Y0371460D01*
X0188439Y0371496D01*
X0188388Y0371529D01*
X0188336Y0371558D01*
X0188281Y0371585D01*
X0188226Y0371608D01*
X0188169Y0371628D01*
X0188110Y0371644D01*
X0188051Y0371657D01*
X0187992Y0371666D01*
X0187931Y0371671D01*
X0187871Y0371673D01*
X0181871Y0371673D01*
X0181811Y0371671D01*
X0181750Y0371666D01*
X0181691Y0371657D01*
X0181632Y0371644D01*
X0181573Y0371628D01*
X0181516Y0371608D01*
X0181461Y0371585D01*
X0181406Y0371558D01*
X0181354Y0371529D01*
X0181303Y0371496D01*
X0181254Y0371460D01*
X0181208Y0371422D01*
X0181164Y0371380D01*
X0181122Y0371336D01*
X0181084Y0371290D01*
X0181048Y0371241D01*
X0181015Y0371190D01*
X0180986Y0371138D01*
X0180959Y0371083D01*
X0180936Y0371028D01*
X0180916Y0370971D01*
X0180900Y0370912D01*
X0180887Y0370853D01*
X0180878Y0370794D01*
X0180873Y0370733D01*
X0180871Y0370673D01*
X0165812Y0341614D02*
X0148812Y0341614D01*
X0148752Y0341612D01*
X0148691Y0341607D01*
X0148632Y0341598D01*
X0148573Y0341585D01*
X0148514Y0341569D01*
X0148457Y0341549D01*
X0148402Y0341526D01*
X0148347Y0341499D01*
X0148295Y0341470D01*
X0148244Y0341437D01*
X0148195Y0341401D01*
X0148149Y0341363D01*
X0148105Y0341321D01*
X0148063Y0341277D01*
X0148025Y0341231D01*
X0147989Y0341182D01*
X0147956Y0341131D01*
X0147927Y0341079D01*
X0147900Y0341024D01*
X0147877Y0340969D01*
X0147857Y0340912D01*
X0147841Y0340853D01*
X0147828Y0340794D01*
X0147819Y0340735D01*
X0147814Y0340674D01*
X0147812Y0340614D01*
X0147812Y0334614D01*
X0147814Y0334554D01*
X0147819Y0334493D01*
X0147828Y0334434D01*
X0147841Y0334375D01*
X0147857Y0334316D01*
X0147877Y0334259D01*
X0147900Y0334204D01*
X0147927Y0334149D01*
X0147956Y0334097D01*
X0147989Y0334046D01*
X0148025Y0333997D01*
X0148063Y0333951D01*
X0148105Y0333907D01*
X0148149Y0333865D01*
X0148195Y0333827D01*
X0148244Y0333791D01*
X0148295Y0333758D01*
X0148347Y0333729D01*
X0148402Y0333702D01*
X0148457Y0333679D01*
X0148514Y0333659D01*
X0148573Y0333643D01*
X0148632Y0333630D01*
X0148691Y0333621D01*
X0148752Y0333616D01*
X0148812Y0333614D01*
X0165812Y0333614D01*
X0165872Y0333616D01*
X0165933Y0333621D01*
X0165992Y0333630D01*
X0166051Y0333643D01*
X0166110Y0333659D01*
X0166167Y0333679D01*
X0166222Y0333702D01*
X0166277Y0333729D01*
X0166329Y0333758D01*
X0166380Y0333791D01*
X0166429Y0333827D01*
X0166475Y0333865D01*
X0166519Y0333907D01*
X0166561Y0333951D01*
X0166599Y0333997D01*
X0166635Y0334046D01*
X0166668Y0334097D01*
X0166697Y0334149D01*
X0166724Y0334204D01*
X0166747Y0334259D01*
X0166767Y0334316D01*
X0166783Y0334375D01*
X0166796Y0334434D01*
X0166805Y0334493D01*
X0166810Y0334554D01*
X0166812Y0334614D01*
X0166812Y0340614D01*
X0166810Y0340674D01*
X0166805Y0340735D01*
X0166796Y0340794D01*
X0166783Y0340853D01*
X0166767Y0340912D01*
X0166747Y0340969D01*
X0166724Y0341024D01*
X0166697Y0341079D01*
X0166668Y0341131D01*
X0166635Y0341182D01*
X0166599Y0341231D01*
X0166561Y0341277D01*
X0166519Y0341321D01*
X0166475Y0341363D01*
X0166429Y0341401D01*
X0166380Y0341437D01*
X0166329Y0341470D01*
X0166277Y0341499D01*
X0166222Y0341526D01*
X0166167Y0341549D01*
X0166110Y0341569D01*
X0166051Y0341585D01*
X0165992Y0341598D01*
X0165933Y0341607D01*
X0165872Y0341612D01*
X0165812Y0341614D01*
X0165576Y0325503D02*
X0166643Y0324436D01*
X0166643Y0322300D01*
X0165576Y0321233D01*
X0164508Y0321233D01*
X0160238Y0325503D01*
X0160238Y0321233D01*
X0161305Y0319058D02*
X0160238Y0317990D01*
X0160238Y0315855D01*
X0161305Y0314787D01*
X0165576Y0314787D01*
X0166643Y0315855D01*
X0166643Y0317990D01*
X0165576Y0319058D01*
X0164508Y0319058D01*
X0163441Y0317990D01*
X0163441Y0314787D01*
X0163441Y0312612D02*
X0163441Y0310477D01*
X0166643Y0312612D02*
X0160238Y0312612D01*
X0166643Y0312612D02*
X0166643Y0308342D01*
X0164508Y0306167D02*
X0166643Y0304032D01*
X0160238Y0304032D01*
X0160238Y0306167D02*
X0160238Y0301896D01*
X0161305Y0299721D02*
X0160238Y0298654D01*
X0160238Y0296518D01*
X0161305Y0295451D01*
X0162373Y0295451D01*
X0163441Y0296518D01*
X0163441Y0299721D01*
X0161305Y0299721D01*
X0163441Y0299721D02*
X0165576Y0297586D01*
X0166643Y0295451D01*
X0164508Y0293276D02*
X0166643Y0291141D01*
X0160238Y0291141D01*
X0160238Y0293276D02*
X0160238Y0289005D01*
X0161305Y0286830D02*
X0165576Y0282560D01*
X0161305Y0282560D01*
X0160238Y0283627D01*
X0160238Y0285763D01*
X0161305Y0286830D01*
X0165576Y0286830D01*
X0166643Y0285763D01*
X0166643Y0283627D01*
X0165576Y0282560D01*
X0156143Y0284695D02*
X0149738Y0284695D01*
X0149738Y0286830D02*
X0149738Y0282560D01*
X0154008Y0286830D02*
X0156143Y0284695D01*
X0149738Y0289005D02*
X0149738Y0293276D01*
X0149738Y0291141D02*
X0156143Y0291141D01*
X0154008Y0293276D01*
X0154008Y0295451D02*
X0155076Y0295451D01*
X0156143Y0296518D01*
X0156143Y0298654D01*
X0155076Y0299721D01*
X0155076Y0301896D02*
X0154008Y0301896D01*
X0152941Y0302964D01*
X0151873Y0301896D01*
X0150805Y0301896D01*
X0149738Y0302964D01*
X0149738Y0305099D01*
X0150805Y0306167D01*
X0149738Y0308342D02*
X0149738Y0312612D01*
X0156143Y0312612D01*
X0155076Y0314787D02*
X0156143Y0315855D01*
X0156143Y0317990D01*
X0155076Y0319058D01*
X0154008Y0319058D01*
X0152941Y0317990D01*
X0152941Y0314787D01*
X0155076Y0314787D02*
X0150805Y0314787D01*
X0149738Y0315855D01*
X0149738Y0317990D01*
X0150805Y0319058D01*
X0149738Y0321233D02*
X0149738Y0325503D01*
X0154008Y0321233D01*
X0155076Y0321233D01*
X0156143Y0322300D01*
X0156143Y0324436D01*
X0155076Y0325503D01*
X0155076Y0306167D02*
X0156143Y0305099D01*
X0156143Y0302964D01*
X0155076Y0301896D01*
X0152941Y0302964D02*
X0152941Y0304032D01*
X0149738Y0299721D02*
X0154008Y0295451D01*
X0149738Y0295451D02*
X0149738Y0299721D01*
X0220241Y0359673D02*
X0220241Y0370673D01*
X0220243Y0370733D01*
X0220248Y0370794D01*
X0220257Y0370853D01*
X0220270Y0370912D01*
X0220286Y0370971D01*
X0220306Y0371028D01*
X0220329Y0371083D01*
X0220356Y0371138D01*
X0220385Y0371190D01*
X0220418Y0371241D01*
X0220454Y0371290D01*
X0220492Y0371336D01*
X0220534Y0371380D01*
X0220578Y0371422D01*
X0220624Y0371460D01*
X0220673Y0371496D01*
X0220724Y0371529D01*
X0220776Y0371558D01*
X0220831Y0371585D01*
X0220886Y0371608D01*
X0220943Y0371628D01*
X0221002Y0371644D01*
X0221061Y0371657D01*
X0221120Y0371666D01*
X0221181Y0371671D01*
X0221241Y0371673D01*
X0227241Y0371673D01*
X0227301Y0371671D01*
X0227362Y0371666D01*
X0227421Y0371657D01*
X0227480Y0371644D01*
X0227539Y0371628D01*
X0227596Y0371608D01*
X0227651Y0371585D01*
X0227706Y0371558D01*
X0227758Y0371529D01*
X0227809Y0371496D01*
X0227858Y0371460D01*
X0227904Y0371422D01*
X0227948Y0371380D01*
X0227990Y0371336D01*
X0228028Y0371290D01*
X0228064Y0371241D01*
X0228097Y0371190D01*
X0228126Y0371138D01*
X0228153Y0371083D01*
X0228176Y0371028D01*
X0228196Y0370971D01*
X0228212Y0370912D01*
X0228225Y0370853D01*
X0228234Y0370794D01*
X0228239Y0370733D01*
X0228241Y0370673D01*
X0228241Y0359673D01*
X0228239Y0359613D01*
X0228234Y0359552D01*
X0228225Y0359493D01*
X0228212Y0359434D01*
X0228196Y0359375D01*
X0228176Y0359318D01*
X0228153Y0359263D01*
X0228126Y0359208D01*
X0228097Y0359156D01*
X0228064Y0359105D01*
X0228028Y0359056D01*
X0227990Y0359010D01*
X0227948Y0358966D01*
X0227904Y0358924D01*
X0227858Y0358886D01*
X0227809Y0358850D01*
X0227758Y0358817D01*
X0227706Y0358788D01*
X0227651Y0358761D01*
X0227596Y0358738D01*
X0227539Y0358718D01*
X0227480Y0358702D01*
X0227421Y0358689D01*
X0227362Y0358680D01*
X0227301Y0358675D01*
X0227241Y0358673D01*
X0221241Y0358673D01*
X0221181Y0358675D01*
X0221120Y0358680D01*
X0221061Y0358689D01*
X0221002Y0358702D01*
X0220943Y0358718D01*
X0220886Y0358738D01*
X0220831Y0358761D01*
X0220776Y0358788D01*
X0220724Y0358817D01*
X0220673Y0358850D01*
X0220624Y0358886D01*
X0220578Y0358924D01*
X0220534Y0358966D01*
X0220492Y0359010D01*
X0220454Y0359056D01*
X0220418Y0359105D01*
X0220385Y0359156D01*
X0220356Y0359208D01*
X0220329Y0359263D01*
X0220306Y0359318D01*
X0220286Y0359375D01*
X0220270Y0359434D01*
X0220257Y0359493D01*
X0220248Y0359552D01*
X0220243Y0359613D01*
X0220241Y0359673D01*
X0221241Y0378358D02*
X0227241Y0378358D01*
X0227301Y0378360D01*
X0227362Y0378365D01*
X0227421Y0378374D01*
X0227480Y0378387D01*
X0227539Y0378403D01*
X0227596Y0378423D01*
X0227651Y0378446D01*
X0227706Y0378473D01*
X0227758Y0378502D01*
X0227809Y0378535D01*
X0227858Y0378571D01*
X0227904Y0378609D01*
X0227948Y0378651D01*
X0227990Y0378695D01*
X0228028Y0378741D01*
X0228064Y0378790D01*
X0228097Y0378841D01*
X0228126Y0378893D01*
X0228153Y0378948D01*
X0228176Y0379003D01*
X0228196Y0379060D01*
X0228212Y0379119D01*
X0228225Y0379178D01*
X0228234Y0379237D01*
X0228239Y0379298D01*
X0228241Y0379358D01*
X0228241Y0390358D01*
X0228239Y0390418D01*
X0228234Y0390479D01*
X0228225Y0390538D01*
X0228212Y0390597D01*
X0228196Y0390656D01*
X0228176Y0390713D01*
X0228153Y0390768D01*
X0228126Y0390823D01*
X0228097Y0390875D01*
X0228064Y0390926D01*
X0228028Y0390975D01*
X0227990Y0391021D01*
X0227948Y0391065D01*
X0227904Y0391107D01*
X0227858Y0391145D01*
X0227809Y0391181D01*
X0227758Y0391214D01*
X0227706Y0391243D01*
X0227651Y0391270D01*
X0227596Y0391293D01*
X0227539Y0391313D01*
X0227480Y0391329D01*
X0227421Y0391342D01*
X0227362Y0391351D01*
X0227301Y0391356D01*
X0227241Y0391358D01*
X0221241Y0391358D01*
X0221181Y0391356D01*
X0221120Y0391351D01*
X0221061Y0391342D01*
X0221002Y0391329D01*
X0220943Y0391313D01*
X0220886Y0391293D01*
X0220831Y0391270D01*
X0220776Y0391243D01*
X0220724Y0391214D01*
X0220673Y0391181D01*
X0220624Y0391145D01*
X0220578Y0391107D01*
X0220534Y0391065D01*
X0220492Y0391021D01*
X0220454Y0390975D01*
X0220418Y0390926D01*
X0220385Y0390875D01*
X0220356Y0390823D01*
X0220329Y0390768D01*
X0220306Y0390713D01*
X0220286Y0390656D01*
X0220270Y0390597D01*
X0220257Y0390538D01*
X0220248Y0390479D01*
X0220243Y0390418D01*
X0220241Y0390358D01*
X0220241Y0379358D01*
X0220243Y0379298D01*
X0220248Y0379237D01*
X0220257Y0379178D01*
X0220270Y0379119D01*
X0220286Y0379060D01*
X0220306Y0379003D01*
X0220329Y0378948D01*
X0220356Y0378893D01*
X0220385Y0378841D01*
X0220418Y0378790D01*
X0220454Y0378741D01*
X0220492Y0378695D01*
X0220534Y0378651D01*
X0220578Y0378609D01*
X0220624Y0378571D01*
X0220673Y0378535D01*
X0220724Y0378502D01*
X0220776Y0378473D01*
X0220831Y0378446D01*
X0220886Y0378423D01*
X0220943Y0378403D01*
X0221002Y0378387D01*
X0221061Y0378374D01*
X0221120Y0378365D01*
X0221181Y0378360D01*
X0221241Y0378358D01*
X0246237Y0377921D02*
X0246237Y0383921D01*
X0246239Y0383981D01*
X0246244Y0384042D01*
X0246253Y0384101D01*
X0246266Y0384160D01*
X0246282Y0384219D01*
X0246302Y0384276D01*
X0246325Y0384331D01*
X0246352Y0384386D01*
X0246381Y0384438D01*
X0246414Y0384489D01*
X0246450Y0384538D01*
X0246488Y0384584D01*
X0246530Y0384628D01*
X0246574Y0384670D01*
X0246620Y0384708D01*
X0246669Y0384744D01*
X0246720Y0384777D01*
X0246772Y0384806D01*
X0246827Y0384833D01*
X0246882Y0384856D01*
X0246939Y0384876D01*
X0246998Y0384892D01*
X0247057Y0384905D01*
X0247116Y0384914D01*
X0247177Y0384919D01*
X0247237Y0384921D01*
X0264237Y0384921D01*
X0264297Y0384919D01*
X0264358Y0384914D01*
X0264417Y0384905D01*
X0264476Y0384892D01*
X0264535Y0384876D01*
X0264592Y0384856D01*
X0264647Y0384833D01*
X0264702Y0384806D01*
X0264754Y0384777D01*
X0264805Y0384744D01*
X0264854Y0384708D01*
X0264900Y0384670D01*
X0264944Y0384628D01*
X0264986Y0384584D01*
X0265024Y0384538D01*
X0265060Y0384489D01*
X0265093Y0384438D01*
X0265122Y0384386D01*
X0265149Y0384331D01*
X0265172Y0384276D01*
X0265192Y0384219D01*
X0265208Y0384160D01*
X0265221Y0384101D01*
X0265230Y0384042D01*
X0265235Y0383981D01*
X0265237Y0383921D01*
X0265237Y0377921D01*
X0265235Y0377861D01*
X0265230Y0377800D01*
X0265221Y0377741D01*
X0265208Y0377682D01*
X0265192Y0377623D01*
X0265172Y0377566D01*
X0265149Y0377511D01*
X0265122Y0377456D01*
X0265093Y0377404D01*
X0265060Y0377353D01*
X0265024Y0377304D01*
X0264986Y0377258D01*
X0264944Y0377214D01*
X0264900Y0377172D01*
X0264854Y0377134D01*
X0264805Y0377098D01*
X0264754Y0377065D01*
X0264702Y0377036D01*
X0264647Y0377009D01*
X0264592Y0376986D01*
X0264535Y0376966D01*
X0264476Y0376950D01*
X0264417Y0376937D01*
X0264358Y0376928D01*
X0264297Y0376923D01*
X0264237Y0376921D01*
X0247237Y0376921D01*
X0247177Y0376923D01*
X0247116Y0376928D01*
X0247057Y0376937D01*
X0246998Y0376950D01*
X0246939Y0376966D01*
X0246882Y0376986D01*
X0246827Y0377009D01*
X0246772Y0377036D01*
X0246720Y0377065D01*
X0246669Y0377098D01*
X0246620Y0377134D01*
X0246574Y0377172D01*
X0246530Y0377214D01*
X0246488Y0377258D01*
X0246450Y0377304D01*
X0246414Y0377353D01*
X0246381Y0377404D01*
X0246352Y0377456D01*
X0246325Y0377511D01*
X0246302Y0377566D01*
X0246282Y0377623D01*
X0246266Y0377682D01*
X0246253Y0377741D01*
X0246244Y0377800D01*
X0246239Y0377861D01*
X0246237Y0377921D01*
X0279296Y0370673D02*
X0279296Y0359673D01*
X0279298Y0359613D01*
X0279303Y0359552D01*
X0279312Y0359493D01*
X0279325Y0359434D01*
X0279341Y0359375D01*
X0279361Y0359318D01*
X0279384Y0359263D01*
X0279411Y0359208D01*
X0279440Y0359156D01*
X0279473Y0359105D01*
X0279509Y0359056D01*
X0279547Y0359010D01*
X0279589Y0358966D01*
X0279633Y0358924D01*
X0279679Y0358886D01*
X0279728Y0358850D01*
X0279779Y0358817D01*
X0279831Y0358788D01*
X0279886Y0358761D01*
X0279941Y0358738D01*
X0279998Y0358718D01*
X0280057Y0358702D01*
X0280116Y0358689D01*
X0280175Y0358680D01*
X0280236Y0358675D01*
X0280296Y0358673D01*
X0286296Y0358673D01*
X0286356Y0358675D01*
X0286417Y0358680D01*
X0286476Y0358689D01*
X0286535Y0358702D01*
X0286594Y0358718D01*
X0286651Y0358738D01*
X0286706Y0358761D01*
X0286761Y0358788D01*
X0286813Y0358817D01*
X0286864Y0358850D01*
X0286913Y0358886D01*
X0286959Y0358924D01*
X0287003Y0358966D01*
X0287045Y0359010D01*
X0287083Y0359056D01*
X0287119Y0359105D01*
X0287152Y0359156D01*
X0287181Y0359208D01*
X0287208Y0359263D01*
X0287231Y0359318D01*
X0287251Y0359375D01*
X0287267Y0359434D01*
X0287280Y0359493D01*
X0287289Y0359552D01*
X0287294Y0359613D01*
X0287296Y0359673D01*
X0287296Y0370673D01*
X0287294Y0370733D01*
X0287289Y0370794D01*
X0287280Y0370853D01*
X0287267Y0370912D01*
X0287251Y0370971D01*
X0287231Y0371028D01*
X0287208Y0371083D01*
X0287181Y0371138D01*
X0287152Y0371190D01*
X0287119Y0371241D01*
X0287083Y0371290D01*
X0287045Y0371336D01*
X0287003Y0371380D01*
X0286959Y0371422D01*
X0286913Y0371460D01*
X0286864Y0371496D01*
X0286813Y0371529D01*
X0286761Y0371558D01*
X0286706Y0371585D01*
X0286651Y0371608D01*
X0286594Y0371628D01*
X0286535Y0371644D01*
X0286476Y0371657D01*
X0286417Y0371666D01*
X0286356Y0371671D01*
X0286296Y0371673D01*
X0280296Y0371673D01*
X0280236Y0371671D01*
X0280175Y0371666D01*
X0280116Y0371657D01*
X0280057Y0371644D01*
X0279998Y0371628D01*
X0279941Y0371608D01*
X0279886Y0371585D01*
X0279831Y0371558D01*
X0279779Y0371529D01*
X0279728Y0371496D01*
X0279679Y0371460D01*
X0279633Y0371422D01*
X0279589Y0371380D01*
X0279547Y0371336D01*
X0279509Y0371290D01*
X0279473Y0371241D01*
X0279440Y0371190D01*
X0279411Y0371138D01*
X0279384Y0371083D01*
X0279361Y0371028D01*
X0279341Y0370971D01*
X0279325Y0370912D01*
X0279312Y0370853D01*
X0279303Y0370794D01*
X0279298Y0370733D01*
X0279296Y0370673D01*
X0264237Y0341614D02*
X0247237Y0341614D01*
X0247177Y0341612D01*
X0247116Y0341607D01*
X0247057Y0341598D01*
X0246998Y0341585D01*
X0246939Y0341569D01*
X0246882Y0341549D01*
X0246827Y0341526D01*
X0246772Y0341499D01*
X0246720Y0341470D01*
X0246669Y0341437D01*
X0246620Y0341401D01*
X0246574Y0341363D01*
X0246530Y0341321D01*
X0246488Y0341277D01*
X0246450Y0341231D01*
X0246414Y0341182D01*
X0246381Y0341131D01*
X0246352Y0341079D01*
X0246325Y0341024D01*
X0246302Y0340969D01*
X0246282Y0340912D01*
X0246266Y0340853D01*
X0246253Y0340794D01*
X0246244Y0340735D01*
X0246239Y0340674D01*
X0246237Y0340614D01*
X0246237Y0334614D01*
X0246239Y0334554D01*
X0246244Y0334493D01*
X0246253Y0334434D01*
X0246266Y0334375D01*
X0246282Y0334316D01*
X0246302Y0334259D01*
X0246325Y0334204D01*
X0246352Y0334149D01*
X0246381Y0334097D01*
X0246414Y0334046D01*
X0246450Y0333997D01*
X0246488Y0333951D01*
X0246530Y0333907D01*
X0246574Y0333865D01*
X0246620Y0333827D01*
X0246669Y0333791D01*
X0246720Y0333758D01*
X0246772Y0333729D01*
X0246827Y0333702D01*
X0246882Y0333679D01*
X0246939Y0333659D01*
X0246998Y0333643D01*
X0247057Y0333630D01*
X0247116Y0333621D01*
X0247177Y0333616D01*
X0247237Y0333614D01*
X0264237Y0333614D01*
X0264297Y0333616D01*
X0264358Y0333621D01*
X0264417Y0333630D01*
X0264476Y0333643D01*
X0264535Y0333659D01*
X0264592Y0333679D01*
X0264647Y0333702D01*
X0264702Y0333729D01*
X0264754Y0333758D01*
X0264805Y0333791D01*
X0264854Y0333827D01*
X0264900Y0333865D01*
X0264944Y0333907D01*
X0264986Y0333951D01*
X0265024Y0333997D01*
X0265060Y0334046D01*
X0265093Y0334097D01*
X0265122Y0334149D01*
X0265149Y0334204D01*
X0265172Y0334259D01*
X0265192Y0334316D01*
X0265208Y0334375D01*
X0265221Y0334434D01*
X0265230Y0334493D01*
X0265235Y0334554D01*
X0265237Y0334614D01*
X0265237Y0340614D01*
X0265235Y0340674D01*
X0265230Y0340735D01*
X0265221Y0340794D01*
X0265208Y0340853D01*
X0265192Y0340912D01*
X0265172Y0340969D01*
X0265149Y0341024D01*
X0265122Y0341079D01*
X0265093Y0341131D01*
X0265060Y0341182D01*
X0265024Y0341231D01*
X0264986Y0341277D01*
X0264944Y0341321D01*
X0264900Y0341363D01*
X0264854Y0341401D01*
X0264805Y0341437D01*
X0264754Y0341470D01*
X0264702Y0341499D01*
X0264647Y0341526D01*
X0264592Y0341549D01*
X0264535Y0341569D01*
X0264476Y0341585D01*
X0264417Y0341598D01*
X0264358Y0341607D01*
X0264297Y0341612D01*
X0264237Y0341614D01*
X0264001Y0325503D02*
X0265068Y0324436D01*
X0265068Y0322300D01*
X0264001Y0321233D01*
X0262933Y0321233D01*
X0258663Y0325503D01*
X0258663Y0321233D01*
X0259731Y0319058D02*
X0258663Y0317990D01*
X0258663Y0315855D01*
X0259731Y0314787D01*
X0264001Y0314787D01*
X0265068Y0315855D01*
X0265068Y0317990D01*
X0264001Y0319058D01*
X0262933Y0319058D01*
X0261866Y0317990D01*
X0261866Y0314787D01*
X0261866Y0312612D02*
X0261866Y0310477D01*
X0265068Y0312612D02*
X0258663Y0312612D01*
X0254568Y0312612D02*
X0248163Y0312612D01*
X0248163Y0308342D01*
X0249231Y0306167D02*
X0248163Y0305099D01*
X0248163Y0302964D01*
X0249231Y0301896D01*
X0250298Y0301896D01*
X0251366Y0302964D01*
X0251366Y0304032D01*
X0251366Y0302964D02*
X0252433Y0301896D01*
X0253501Y0301896D01*
X0254568Y0302964D01*
X0254568Y0305099D01*
X0253501Y0306167D01*
X0258663Y0306167D02*
X0258663Y0301896D01*
X0258663Y0304032D02*
X0265068Y0304032D01*
X0262933Y0306167D01*
X0265068Y0308342D02*
X0265068Y0312612D01*
X0254568Y0315855D02*
X0253501Y0314787D01*
X0249231Y0314787D01*
X0248163Y0315855D01*
X0248163Y0317990D01*
X0249231Y0319058D01*
X0251366Y0317990D02*
X0251366Y0314787D01*
X0251366Y0317990D02*
X0252433Y0319058D01*
X0253501Y0319058D01*
X0254568Y0317990D01*
X0254568Y0315855D01*
X0253501Y0321233D02*
X0254568Y0322300D01*
X0254568Y0324436D01*
X0253501Y0325503D01*
X0253501Y0321233D02*
X0252433Y0321233D01*
X0248163Y0325503D01*
X0248163Y0321233D01*
X0248163Y0299721D02*
X0252433Y0295451D01*
X0253501Y0295451D01*
X0254568Y0296518D01*
X0254568Y0298654D01*
X0253501Y0299721D01*
X0258663Y0298654D02*
X0258663Y0296518D01*
X0259731Y0295451D01*
X0260798Y0295451D01*
X0261866Y0296518D01*
X0261866Y0299721D01*
X0259731Y0299721D01*
X0258663Y0298654D01*
X0261866Y0299721D02*
X0264001Y0297586D01*
X0265068Y0295451D01*
X0262933Y0293276D02*
X0265068Y0291141D01*
X0258663Y0291141D01*
X0258663Y0293276D02*
X0258663Y0289005D01*
X0259731Y0286830D02*
X0264001Y0282560D01*
X0259731Y0282560D01*
X0258663Y0283627D01*
X0258663Y0285763D01*
X0259731Y0286830D01*
X0264001Y0286830D01*
X0265068Y0285763D01*
X0265068Y0283627D01*
X0264001Y0282560D01*
X0254568Y0284695D02*
X0248163Y0284695D01*
X0248163Y0286830D02*
X0248163Y0282560D01*
X0252433Y0286830D02*
X0254568Y0284695D01*
X0254568Y0291141D02*
X0248163Y0291141D01*
X0248163Y0293276D02*
X0248163Y0289005D01*
X0252433Y0293276D02*
X0254568Y0291141D01*
X0248163Y0295451D02*
X0248163Y0299721D01*
X0316698Y0359673D02*
X0316698Y0370673D01*
X0316700Y0370733D01*
X0316705Y0370794D01*
X0316714Y0370853D01*
X0316727Y0370912D01*
X0316743Y0370971D01*
X0316763Y0371028D01*
X0316786Y0371083D01*
X0316813Y0371138D01*
X0316842Y0371190D01*
X0316875Y0371241D01*
X0316911Y0371290D01*
X0316949Y0371336D01*
X0316991Y0371380D01*
X0317035Y0371422D01*
X0317081Y0371460D01*
X0317130Y0371496D01*
X0317181Y0371529D01*
X0317233Y0371558D01*
X0317288Y0371585D01*
X0317343Y0371608D01*
X0317400Y0371628D01*
X0317459Y0371644D01*
X0317518Y0371657D01*
X0317577Y0371666D01*
X0317638Y0371671D01*
X0317698Y0371673D01*
X0323698Y0371673D01*
X0323758Y0371671D01*
X0323819Y0371666D01*
X0323878Y0371657D01*
X0323937Y0371644D01*
X0323996Y0371628D01*
X0324053Y0371608D01*
X0324108Y0371585D01*
X0324163Y0371558D01*
X0324215Y0371529D01*
X0324266Y0371496D01*
X0324315Y0371460D01*
X0324361Y0371422D01*
X0324405Y0371380D01*
X0324447Y0371336D01*
X0324485Y0371290D01*
X0324521Y0371241D01*
X0324554Y0371190D01*
X0324583Y0371138D01*
X0324610Y0371083D01*
X0324633Y0371028D01*
X0324653Y0370971D01*
X0324669Y0370912D01*
X0324682Y0370853D01*
X0324691Y0370794D01*
X0324696Y0370733D01*
X0324698Y0370673D01*
X0324698Y0359673D01*
X0324696Y0359613D01*
X0324691Y0359552D01*
X0324682Y0359493D01*
X0324669Y0359434D01*
X0324653Y0359375D01*
X0324633Y0359318D01*
X0324610Y0359263D01*
X0324583Y0359208D01*
X0324554Y0359156D01*
X0324521Y0359105D01*
X0324485Y0359056D01*
X0324447Y0359010D01*
X0324405Y0358966D01*
X0324361Y0358924D01*
X0324315Y0358886D01*
X0324266Y0358850D01*
X0324215Y0358817D01*
X0324163Y0358788D01*
X0324108Y0358761D01*
X0324053Y0358738D01*
X0323996Y0358718D01*
X0323937Y0358702D01*
X0323878Y0358689D01*
X0323819Y0358680D01*
X0323758Y0358675D01*
X0323698Y0358673D01*
X0317698Y0358673D01*
X0317638Y0358675D01*
X0317577Y0358680D01*
X0317518Y0358689D01*
X0317459Y0358702D01*
X0317400Y0358718D01*
X0317343Y0358738D01*
X0317288Y0358761D01*
X0317233Y0358788D01*
X0317181Y0358817D01*
X0317130Y0358850D01*
X0317081Y0358886D01*
X0317035Y0358924D01*
X0316991Y0358966D01*
X0316949Y0359010D01*
X0316911Y0359056D01*
X0316875Y0359105D01*
X0316842Y0359156D01*
X0316813Y0359208D01*
X0316786Y0359263D01*
X0316763Y0359318D01*
X0316743Y0359375D01*
X0316727Y0359434D01*
X0316714Y0359493D01*
X0316705Y0359552D01*
X0316700Y0359613D01*
X0316698Y0359673D01*
X0317698Y0378358D02*
X0323698Y0378358D01*
X0323758Y0378360D01*
X0323819Y0378365D01*
X0323878Y0378374D01*
X0323937Y0378387D01*
X0323996Y0378403D01*
X0324053Y0378423D01*
X0324108Y0378446D01*
X0324163Y0378473D01*
X0324215Y0378502D01*
X0324266Y0378535D01*
X0324315Y0378571D01*
X0324361Y0378609D01*
X0324405Y0378651D01*
X0324447Y0378695D01*
X0324485Y0378741D01*
X0324521Y0378790D01*
X0324554Y0378841D01*
X0324583Y0378893D01*
X0324610Y0378948D01*
X0324633Y0379003D01*
X0324653Y0379060D01*
X0324669Y0379119D01*
X0324682Y0379178D01*
X0324691Y0379237D01*
X0324696Y0379298D01*
X0324698Y0379358D01*
X0324698Y0390358D01*
X0324696Y0390418D01*
X0324691Y0390479D01*
X0324682Y0390538D01*
X0324669Y0390597D01*
X0324653Y0390656D01*
X0324633Y0390713D01*
X0324610Y0390768D01*
X0324583Y0390823D01*
X0324554Y0390875D01*
X0324521Y0390926D01*
X0324485Y0390975D01*
X0324447Y0391021D01*
X0324405Y0391065D01*
X0324361Y0391107D01*
X0324315Y0391145D01*
X0324266Y0391181D01*
X0324215Y0391214D01*
X0324163Y0391243D01*
X0324108Y0391270D01*
X0324053Y0391293D01*
X0323996Y0391313D01*
X0323937Y0391329D01*
X0323878Y0391342D01*
X0323819Y0391351D01*
X0323758Y0391356D01*
X0323698Y0391358D01*
X0317698Y0391358D01*
X0317638Y0391356D01*
X0317577Y0391351D01*
X0317518Y0391342D01*
X0317459Y0391329D01*
X0317400Y0391313D01*
X0317343Y0391293D01*
X0317288Y0391270D01*
X0317233Y0391243D01*
X0317181Y0391214D01*
X0317130Y0391181D01*
X0317081Y0391145D01*
X0317035Y0391107D01*
X0316991Y0391065D01*
X0316949Y0391021D01*
X0316911Y0390975D01*
X0316875Y0390926D01*
X0316842Y0390875D01*
X0316813Y0390823D01*
X0316786Y0390768D01*
X0316763Y0390713D01*
X0316743Y0390656D01*
X0316727Y0390597D01*
X0316714Y0390538D01*
X0316705Y0390479D01*
X0316700Y0390418D01*
X0316698Y0390358D01*
X0316698Y0379358D01*
X0316700Y0379298D01*
X0316705Y0379237D01*
X0316714Y0379178D01*
X0316727Y0379119D01*
X0316743Y0379060D01*
X0316763Y0379003D01*
X0316786Y0378948D01*
X0316813Y0378893D01*
X0316842Y0378841D01*
X0316875Y0378790D01*
X0316911Y0378741D01*
X0316949Y0378695D01*
X0316991Y0378651D01*
X0317035Y0378609D01*
X0317081Y0378571D01*
X0317130Y0378535D01*
X0317181Y0378502D01*
X0317233Y0378473D01*
X0317288Y0378446D01*
X0317343Y0378423D01*
X0317400Y0378403D01*
X0317459Y0378387D01*
X0317518Y0378374D01*
X0317577Y0378365D01*
X0317638Y0378360D01*
X0317698Y0378358D01*
X0342694Y0377921D02*
X0342694Y0383921D01*
X0342696Y0383981D01*
X0342701Y0384042D01*
X0342710Y0384101D01*
X0342723Y0384160D01*
X0342739Y0384219D01*
X0342759Y0384276D01*
X0342782Y0384331D01*
X0342809Y0384386D01*
X0342838Y0384438D01*
X0342871Y0384489D01*
X0342907Y0384538D01*
X0342945Y0384584D01*
X0342987Y0384628D01*
X0343031Y0384670D01*
X0343077Y0384708D01*
X0343126Y0384744D01*
X0343177Y0384777D01*
X0343229Y0384806D01*
X0343284Y0384833D01*
X0343339Y0384856D01*
X0343396Y0384876D01*
X0343455Y0384892D01*
X0343514Y0384905D01*
X0343573Y0384914D01*
X0343634Y0384919D01*
X0343694Y0384921D01*
X0360694Y0384921D01*
X0360754Y0384919D01*
X0360815Y0384914D01*
X0360874Y0384905D01*
X0360933Y0384892D01*
X0360992Y0384876D01*
X0361049Y0384856D01*
X0361104Y0384833D01*
X0361159Y0384806D01*
X0361211Y0384777D01*
X0361262Y0384744D01*
X0361311Y0384708D01*
X0361357Y0384670D01*
X0361401Y0384628D01*
X0361443Y0384584D01*
X0361481Y0384538D01*
X0361517Y0384489D01*
X0361550Y0384438D01*
X0361579Y0384386D01*
X0361606Y0384331D01*
X0361629Y0384276D01*
X0361649Y0384219D01*
X0361665Y0384160D01*
X0361678Y0384101D01*
X0361687Y0384042D01*
X0361692Y0383981D01*
X0361694Y0383921D01*
X0361694Y0377921D01*
X0361692Y0377861D01*
X0361687Y0377800D01*
X0361678Y0377741D01*
X0361665Y0377682D01*
X0361649Y0377623D01*
X0361629Y0377566D01*
X0361606Y0377511D01*
X0361579Y0377456D01*
X0361550Y0377404D01*
X0361517Y0377353D01*
X0361481Y0377304D01*
X0361443Y0377258D01*
X0361401Y0377214D01*
X0361357Y0377172D01*
X0361311Y0377134D01*
X0361262Y0377098D01*
X0361211Y0377065D01*
X0361159Y0377036D01*
X0361104Y0377009D01*
X0361049Y0376986D01*
X0360992Y0376966D01*
X0360933Y0376950D01*
X0360874Y0376937D01*
X0360815Y0376928D01*
X0360754Y0376923D01*
X0360694Y0376921D01*
X0343694Y0376921D01*
X0343634Y0376923D01*
X0343573Y0376928D01*
X0343514Y0376937D01*
X0343455Y0376950D01*
X0343396Y0376966D01*
X0343339Y0376986D01*
X0343284Y0377009D01*
X0343229Y0377036D01*
X0343177Y0377065D01*
X0343126Y0377098D01*
X0343077Y0377134D01*
X0343031Y0377172D01*
X0342987Y0377214D01*
X0342945Y0377258D01*
X0342907Y0377304D01*
X0342871Y0377353D01*
X0342838Y0377404D01*
X0342809Y0377456D01*
X0342782Y0377511D01*
X0342759Y0377566D01*
X0342739Y0377623D01*
X0342723Y0377682D01*
X0342710Y0377741D01*
X0342701Y0377800D01*
X0342696Y0377861D01*
X0342694Y0377921D01*
X0375753Y0370673D02*
X0375753Y0359673D01*
X0375755Y0359613D01*
X0375760Y0359552D01*
X0375769Y0359493D01*
X0375782Y0359434D01*
X0375798Y0359375D01*
X0375818Y0359318D01*
X0375841Y0359263D01*
X0375868Y0359208D01*
X0375897Y0359156D01*
X0375930Y0359105D01*
X0375966Y0359056D01*
X0376004Y0359010D01*
X0376046Y0358966D01*
X0376090Y0358924D01*
X0376136Y0358886D01*
X0376185Y0358850D01*
X0376236Y0358817D01*
X0376288Y0358788D01*
X0376343Y0358761D01*
X0376398Y0358738D01*
X0376455Y0358718D01*
X0376514Y0358702D01*
X0376573Y0358689D01*
X0376632Y0358680D01*
X0376693Y0358675D01*
X0376753Y0358673D01*
X0382753Y0358673D01*
X0382813Y0358675D01*
X0382874Y0358680D01*
X0382933Y0358689D01*
X0382992Y0358702D01*
X0383051Y0358718D01*
X0383108Y0358738D01*
X0383163Y0358761D01*
X0383218Y0358788D01*
X0383270Y0358817D01*
X0383321Y0358850D01*
X0383370Y0358886D01*
X0383416Y0358924D01*
X0383460Y0358966D01*
X0383502Y0359010D01*
X0383540Y0359056D01*
X0383576Y0359105D01*
X0383609Y0359156D01*
X0383638Y0359208D01*
X0383665Y0359263D01*
X0383688Y0359318D01*
X0383708Y0359375D01*
X0383724Y0359434D01*
X0383737Y0359493D01*
X0383746Y0359552D01*
X0383751Y0359613D01*
X0383753Y0359673D01*
X0383753Y0370673D01*
X0383751Y0370733D01*
X0383746Y0370794D01*
X0383737Y0370853D01*
X0383724Y0370912D01*
X0383708Y0370971D01*
X0383688Y0371028D01*
X0383665Y0371083D01*
X0383638Y0371138D01*
X0383609Y0371190D01*
X0383576Y0371241D01*
X0383540Y0371290D01*
X0383502Y0371336D01*
X0383460Y0371380D01*
X0383416Y0371422D01*
X0383370Y0371460D01*
X0383321Y0371496D01*
X0383270Y0371529D01*
X0383218Y0371558D01*
X0383163Y0371585D01*
X0383108Y0371608D01*
X0383051Y0371628D01*
X0382992Y0371644D01*
X0382933Y0371657D01*
X0382874Y0371666D01*
X0382813Y0371671D01*
X0382753Y0371673D01*
X0376753Y0371673D01*
X0376693Y0371671D01*
X0376632Y0371666D01*
X0376573Y0371657D01*
X0376514Y0371644D01*
X0376455Y0371628D01*
X0376398Y0371608D01*
X0376343Y0371585D01*
X0376288Y0371558D01*
X0376236Y0371529D01*
X0376185Y0371496D01*
X0376136Y0371460D01*
X0376090Y0371422D01*
X0376046Y0371380D01*
X0376004Y0371336D01*
X0375966Y0371290D01*
X0375930Y0371241D01*
X0375897Y0371190D01*
X0375868Y0371138D01*
X0375841Y0371083D01*
X0375818Y0371028D01*
X0375798Y0370971D01*
X0375782Y0370912D01*
X0375769Y0370853D01*
X0375760Y0370794D01*
X0375755Y0370733D01*
X0375753Y0370673D01*
X0360694Y0341614D02*
X0343694Y0341614D01*
X0343634Y0341612D01*
X0343573Y0341607D01*
X0343514Y0341598D01*
X0343455Y0341585D01*
X0343396Y0341569D01*
X0343339Y0341549D01*
X0343284Y0341526D01*
X0343229Y0341499D01*
X0343177Y0341470D01*
X0343126Y0341437D01*
X0343077Y0341401D01*
X0343031Y0341363D01*
X0342987Y0341321D01*
X0342945Y0341277D01*
X0342907Y0341231D01*
X0342871Y0341182D01*
X0342838Y0341131D01*
X0342809Y0341079D01*
X0342782Y0341024D01*
X0342759Y0340969D01*
X0342739Y0340912D01*
X0342723Y0340853D01*
X0342710Y0340794D01*
X0342701Y0340735D01*
X0342696Y0340674D01*
X0342694Y0340614D01*
X0342694Y0334614D01*
X0342696Y0334554D01*
X0342701Y0334493D01*
X0342710Y0334434D01*
X0342723Y0334375D01*
X0342739Y0334316D01*
X0342759Y0334259D01*
X0342782Y0334204D01*
X0342809Y0334149D01*
X0342838Y0334097D01*
X0342871Y0334046D01*
X0342907Y0333997D01*
X0342945Y0333951D01*
X0342987Y0333907D01*
X0343031Y0333865D01*
X0343077Y0333827D01*
X0343126Y0333791D01*
X0343177Y0333758D01*
X0343229Y0333729D01*
X0343284Y0333702D01*
X0343339Y0333679D01*
X0343396Y0333659D01*
X0343455Y0333643D01*
X0343514Y0333630D01*
X0343573Y0333621D01*
X0343634Y0333616D01*
X0343694Y0333614D01*
X0360694Y0333614D01*
X0360754Y0333616D01*
X0360815Y0333621D01*
X0360874Y0333630D01*
X0360933Y0333643D01*
X0360992Y0333659D01*
X0361049Y0333679D01*
X0361104Y0333702D01*
X0361159Y0333729D01*
X0361211Y0333758D01*
X0361262Y0333791D01*
X0361311Y0333827D01*
X0361357Y0333865D01*
X0361401Y0333907D01*
X0361443Y0333951D01*
X0361481Y0333997D01*
X0361517Y0334046D01*
X0361550Y0334097D01*
X0361579Y0334149D01*
X0361606Y0334204D01*
X0361629Y0334259D01*
X0361649Y0334316D01*
X0361665Y0334375D01*
X0361678Y0334434D01*
X0361687Y0334493D01*
X0361692Y0334554D01*
X0361694Y0334614D01*
X0361694Y0340614D01*
X0361692Y0340674D01*
X0361687Y0340735D01*
X0361678Y0340794D01*
X0361665Y0340853D01*
X0361649Y0340912D01*
X0361629Y0340969D01*
X0361606Y0341024D01*
X0361579Y0341079D01*
X0361550Y0341131D01*
X0361517Y0341182D01*
X0361481Y0341231D01*
X0361443Y0341277D01*
X0361401Y0341321D01*
X0361357Y0341363D01*
X0361311Y0341401D01*
X0361262Y0341437D01*
X0361211Y0341470D01*
X0361159Y0341499D01*
X0361104Y0341526D01*
X0361049Y0341549D01*
X0360992Y0341569D01*
X0360933Y0341585D01*
X0360874Y0341598D01*
X0360815Y0341607D01*
X0360754Y0341612D01*
X0360694Y0341614D01*
X0360458Y0325503D02*
X0361525Y0324436D01*
X0361525Y0322300D01*
X0360458Y0321233D01*
X0359390Y0321233D01*
X0355120Y0325503D01*
X0355120Y0321233D01*
X0356187Y0319058D02*
X0355120Y0317990D01*
X0355120Y0315855D01*
X0356187Y0314787D01*
X0360458Y0314787D01*
X0361525Y0315855D01*
X0361525Y0317990D01*
X0360458Y0319058D01*
X0359390Y0319058D01*
X0358322Y0317990D01*
X0358322Y0314787D01*
X0358322Y0312612D02*
X0358322Y0310477D01*
X0355120Y0312612D02*
X0361525Y0312612D01*
X0361525Y0308342D01*
X0359390Y0306167D02*
X0361525Y0304032D01*
X0355120Y0304032D01*
X0355120Y0306167D02*
X0355120Y0301896D01*
X0356187Y0299721D02*
X0355120Y0298654D01*
X0355120Y0296518D01*
X0356187Y0295451D01*
X0357255Y0295451D01*
X0358322Y0296518D01*
X0358322Y0299721D01*
X0356187Y0299721D01*
X0358322Y0299721D02*
X0360458Y0297586D01*
X0361525Y0295451D01*
X0359390Y0293276D02*
X0361525Y0291141D01*
X0355120Y0291141D01*
X0355120Y0293276D02*
X0355120Y0289005D01*
X0356187Y0286830D02*
X0360458Y0282560D01*
X0356187Y0282560D01*
X0355120Y0283627D01*
X0355120Y0285763D01*
X0356187Y0286830D01*
X0360458Y0286830D01*
X0361525Y0285763D01*
X0361525Y0283627D01*
X0360458Y0282560D01*
X0351025Y0284695D02*
X0344620Y0284695D01*
X0344620Y0286830D02*
X0344620Y0282560D01*
X0348890Y0286830D02*
X0351025Y0284695D01*
X0344620Y0289005D02*
X0344620Y0293276D01*
X0344620Y0291141D02*
X0351025Y0291141D01*
X0348890Y0293276D01*
X0348890Y0295451D02*
X0349958Y0295451D01*
X0351025Y0296518D01*
X0351025Y0298654D01*
X0349958Y0299721D01*
X0349958Y0301896D02*
X0348890Y0301896D01*
X0347822Y0302964D01*
X0346755Y0301896D01*
X0345687Y0301896D01*
X0344620Y0302964D01*
X0344620Y0305099D01*
X0345687Y0306167D01*
X0344620Y0308342D02*
X0344620Y0312612D01*
X0351025Y0312612D01*
X0349958Y0314787D02*
X0351025Y0315855D01*
X0351025Y0317990D01*
X0349958Y0319058D01*
X0348890Y0319058D01*
X0347822Y0317990D01*
X0347822Y0314787D01*
X0345687Y0314787D02*
X0349958Y0314787D01*
X0345687Y0314787D02*
X0344620Y0315855D01*
X0344620Y0317990D01*
X0345687Y0319058D01*
X0344620Y0321233D02*
X0344620Y0325503D01*
X0348890Y0321233D01*
X0349958Y0321233D01*
X0351025Y0322300D01*
X0351025Y0324436D01*
X0349958Y0325503D01*
X0349958Y0306167D02*
X0351025Y0305099D01*
X0351025Y0302964D01*
X0349958Y0301896D01*
X0347822Y0302964D02*
X0347822Y0304032D01*
X0344620Y0299721D02*
X0348890Y0295451D01*
X0344620Y0295451D02*
X0344620Y0299721D01*
X0070791Y0067635D02*
X0066521Y0067635D01*
X0066521Y0061229D01*
X0070791Y0061229D01*
X0068656Y0064432D02*
X0066521Y0064432D01*
X0064345Y0066567D02*
X0063278Y0067635D01*
X0060075Y0067635D01*
X0060075Y0061229D01*
X0063278Y0061229D01*
X0064345Y0062297D01*
X0064345Y0066567D01*
X0057913Y0067635D02*
X0055778Y0067635D01*
X0056846Y0067635D02*
X0056846Y0061229D01*
X0057913Y0061229D02*
X0055778Y0061229D01*
X0053603Y0062297D02*
X0052535Y0061229D01*
X0050400Y0061229D01*
X0049333Y0062297D01*
X0050400Y0064432D02*
X0052535Y0064432D01*
X0053603Y0063364D01*
X0053603Y0062297D01*
X0050400Y0064432D02*
X0049333Y0065499D01*
X0049333Y0066567D01*
X0050400Y0067635D01*
X0052535Y0067635D01*
X0053603Y0066567D01*
X0047157Y0067635D02*
X0042887Y0063364D01*
X0043955Y0064432D02*
X0047157Y0061229D01*
X0042887Y0061229D02*
X0042887Y0067635D01*
X0040712Y0066567D02*
X0039644Y0067635D01*
X0037509Y0067635D01*
X0036442Y0066567D01*
X0036442Y0062297D01*
X0037509Y0061229D01*
X0039644Y0061229D01*
X0040712Y0062297D01*
X0034266Y0061229D02*
X0034266Y0065499D01*
X0032131Y0067635D01*
X0029996Y0065499D01*
X0029996Y0061229D01*
X0027821Y0062297D02*
X0026753Y0061229D01*
X0023551Y0061229D01*
X0023551Y0067635D01*
X0026753Y0067635D01*
X0027821Y0066567D01*
X0027821Y0065499D01*
X0026753Y0064432D01*
X0023551Y0064432D01*
X0026753Y0064432D02*
X0027821Y0063364D01*
X0027821Y0062297D01*
X0029996Y0064432D02*
X0034266Y0064432D01*
X0033235Y0178465D02*
X0035370Y0178465D01*
X0036438Y0179533D01*
X0036438Y0180601D01*
X0035370Y0181668D01*
X0032168Y0181668D01*
X0032168Y0179533D01*
X0033235Y0178465D01*
X0029992Y0178465D02*
X0025722Y0178465D01*
X0027857Y0178465D02*
X0027857Y0184871D01*
X0025722Y0182736D01*
X0032168Y0181668D02*
X0034303Y0183803D01*
X0036438Y0184871D01*
X0038613Y0181668D02*
X0042883Y0181668D01*
X0045059Y0181668D02*
X0048261Y0181668D01*
X0049329Y0180601D01*
X0049329Y0179533D01*
X0048261Y0178465D01*
X0045059Y0178465D01*
X0045059Y0184871D01*
X0048261Y0184871D01*
X0049329Y0183803D01*
X0049329Y0182736D01*
X0048261Y0181668D01*
X0051504Y0178465D02*
X0053639Y0178465D01*
X0052572Y0178465D02*
X0052572Y0184871D01*
X0053639Y0184871D02*
X0051504Y0184871D01*
X0055801Y0184871D02*
X0060071Y0184871D01*
X0057936Y0184871D02*
X0057936Y0178465D01*
D14*
X0143000Y0333217D02*
X0141766Y0334451D01*
X0143000Y0335686D01*
X0145469Y0335686D01*
X0145469Y0336900D02*
X0143000Y0339369D01*
X0142383Y0339369D01*
X0141766Y0338752D01*
X0141766Y0337517D01*
X0142383Y0336900D01*
X0143617Y0335686D02*
X0143617Y0333217D01*
X0143000Y0333217D02*
X0145469Y0333217D01*
X0145469Y0336900D02*
X0145469Y0339369D01*
X0145469Y0340583D02*
X0145469Y0343052D01*
X0145469Y0341818D02*
X0141766Y0341818D01*
X0143000Y0340583D01*
X0159883Y0358217D02*
X0159266Y0358834D01*
X0159266Y0360069D01*
X0159883Y0360686D01*
X0160500Y0360686D01*
X0161117Y0360069D01*
X0161735Y0360686D01*
X0162352Y0360686D01*
X0162969Y0360069D01*
X0162969Y0358834D01*
X0162352Y0358217D01*
X0161117Y0359451D02*
X0161117Y0360069D01*
X0161735Y0361900D02*
X0162969Y0363134D01*
X0161735Y0364369D01*
X0159266Y0364369D01*
X0159883Y0365583D02*
X0159266Y0366200D01*
X0159266Y0367435D01*
X0159883Y0368052D01*
X0160500Y0368052D01*
X0161117Y0367435D01*
X0161735Y0368052D01*
X0162352Y0368052D01*
X0162969Y0367435D01*
X0162969Y0366200D01*
X0162352Y0365583D01*
X0161117Y0366818D02*
X0161117Y0367435D01*
X0161735Y0361900D02*
X0159266Y0361900D01*
X0168478Y0376327D02*
X0172181Y0376327D01*
X0170947Y0377562D01*
X0172181Y0378796D01*
X0168478Y0378796D01*
X0168478Y0380010D02*
X0172181Y0380010D01*
X0172181Y0382479D01*
X0170330Y0381245D02*
X0170330Y0380010D01*
X0168478Y0380010D02*
X0168478Y0382479D01*
X0182750Y0379507D02*
X0185219Y0379507D01*
X0186453Y0378272D01*
X0185219Y0377038D01*
X0182750Y0377038D01*
X0182750Y0375823D02*
X0182750Y0373355D01*
X0184602Y0373355D01*
X0183984Y0374589D01*
X0183984Y0375206D01*
X0184602Y0375823D01*
X0185836Y0375823D01*
X0186453Y0375206D01*
X0186453Y0373972D01*
X0185836Y0373355D01*
X0214738Y0367715D02*
X0214738Y0365247D01*
X0218441Y0365247D01*
X0218441Y0367715D01*
X0216590Y0366481D02*
X0216590Y0365247D01*
X0217824Y0364032D02*
X0215355Y0364032D01*
X0214738Y0363415D01*
X0214738Y0362181D01*
X0215355Y0361563D01*
X0217824Y0361563D01*
X0218441Y0362181D01*
X0218441Y0363415D01*
X0217824Y0364032D01*
X0217457Y0384201D02*
X0214988Y0384201D01*
X0213754Y0385436D01*
X0214988Y0386670D01*
X0217457Y0386670D01*
X0217457Y0387884D02*
X0214988Y0390353D01*
X0214371Y0390353D01*
X0213754Y0389736D01*
X0213754Y0388502D01*
X0214371Y0387884D01*
X0215606Y0386670D02*
X0215606Y0384201D01*
X0217457Y0387884D02*
X0217457Y0390353D01*
X0216840Y0391567D02*
X0214371Y0394036D01*
X0216840Y0394036D01*
X0217457Y0393419D01*
X0217457Y0392185D01*
X0216840Y0391567D01*
X0214371Y0391567D01*
X0213754Y0392185D01*
X0213754Y0393419D01*
X0214371Y0394036D01*
X0241313Y0385545D02*
X0241313Y0384311D01*
X0241930Y0383693D01*
X0244399Y0383693D01*
X0245016Y0384311D01*
X0245016Y0385545D01*
X0244399Y0386162D01*
X0241930Y0386162D02*
X0241313Y0385545D01*
X0241930Y0382479D02*
X0241313Y0381862D01*
X0241313Y0380627D01*
X0241930Y0380010D01*
X0244399Y0380010D01*
X0245016Y0380627D01*
X0245016Y0381862D01*
X0244399Y0382479D01*
X0243782Y0378796D02*
X0245016Y0377562D01*
X0243782Y0376327D01*
X0241313Y0376327D01*
X0241313Y0378796D02*
X0243782Y0378796D01*
X0257691Y0367435D02*
X0257691Y0366200D01*
X0258308Y0365583D01*
X0257691Y0364369D02*
X0260160Y0364369D01*
X0261394Y0363134D01*
X0260160Y0361900D01*
X0257691Y0361900D01*
X0258308Y0360686D02*
X0258925Y0360686D01*
X0259543Y0360069D01*
X0260160Y0360686D01*
X0260777Y0360686D01*
X0261394Y0360069D01*
X0261394Y0358834D01*
X0260777Y0358217D01*
X0259543Y0359451D02*
X0259543Y0360069D01*
X0258308Y0360686D02*
X0257691Y0360069D01*
X0257691Y0358834D01*
X0258308Y0358217D01*
X0260777Y0365583D02*
X0261394Y0366200D01*
X0261394Y0367435D01*
X0260777Y0368052D01*
X0260160Y0368052D01*
X0259543Y0367435D01*
X0259543Y0366818D01*
X0259543Y0367435D02*
X0258925Y0368052D01*
X0258308Y0368052D01*
X0257691Y0367435D01*
X0266904Y0376327D02*
X0270607Y0376327D01*
X0269372Y0377562D01*
X0270607Y0378796D01*
X0266904Y0378796D01*
X0266904Y0380010D02*
X0270607Y0380010D01*
X0270607Y0382479D01*
X0268755Y0381245D02*
X0268755Y0380010D01*
X0266904Y0380010D02*
X0266904Y0382479D01*
X0281175Y0379507D02*
X0283644Y0379507D01*
X0284878Y0378272D01*
X0283644Y0377038D01*
X0281175Y0377038D01*
X0281175Y0375823D02*
X0281175Y0373355D01*
X0283027Y0373355D01*
X0282410Y0374589D01*
X0282410Y0375206D01*
X0283027Y0375823D01*
X0284261Y0375823D01*
X0284878Y0375206D01*
X0284878Y0373972D01*
X0284261Y0373355D01*
X0311195Y0368700D02*
X0311195Y0366231D01*
X0314898Y0366231D01*
X0314898Y0368700D01*
X0313046Y0367465D02*
X0313046Y0366231D01*
X0311812Y0365016D02*
X0314281Y0365016D01*
X0314898Y0364399D01*
X0314898Y0363165D01*
X0314281Y0362548D01*
X0311812Y0362548D01*
X0311195Y0363165D01*
X0311195Y0364399D01*
X0311812Y0365016D01*
X0312429Y0383217D02*
X0311195Y0384451D01*
X0312429Y0385686D01*
X0314898Y0385686D01*
X0314898Y0386900D02*
X0312429Y0389369D01*
X0311812Y0389369D01*
X0311195Y0388752D01*
X0311195Y0387517D01*
X0311812Y0386900D01*
X0313046Y0385686D02*
X0313046Y0383217D01*
X0312429Y0383217D02*
X0314898Y0383217D01*
X0314898Y0386900D02*
X0314898Y0389369D01*
X0314281Y0390583D02*
X0311812Y0393052D01*
X0314281Y0393052D01*
X0314898Y0392435D01*
X0314898Y0391200D01*
X0314281Y0390583D01*
X0311812Y0390583D01*
X0311195Y0391200D01*
X0311195Y0392435D01*
X0311812Y0393052D01*
X0337770Y0385545D02*
X0337770Y0384311D01*
X0338387Y0383693D01*
X0340856Y0383693D01*
X0341473Y0384311D01*
X0341473Y0385545D01*
X0340856Y0386162D01*
X0338387Y0386162D02*
X0337770Y0385545D01*
X0338387Y0382479D02*
X0337770Y0381862D01*
X0337770Y0380627D01*
X0338387Y0380010D01*
X0340856Y0380010D01*
X0341473Y0380627D01*
X0341473Y0381862D01*
X0340856Y0382479D01*
X0340238Y0378796D02*
X0341473Y0377562D01*
X0340238Y0376327D01*
X0337770Y0376327D01*
X0337770Y0378796D02*
X0340238Y0378796D01*
X0354148Y0367435D02*
X0354148Y0366200D01*
X0354765Y0365583D01*
X0354148Y0364369D02*
X0356616Y0364369D01*
X0357851Y0363134D01*
X0356616Y0361900D01*
X0354148Y0361900D01*
X0354765Y0360686D02*
X0355382Y0360686D01*
X0355999Y0360069D01*
X0356616Y0360686D01*
X0357234Y0360686D01*
X0357851Y0360069D01*
X0357851Y0358834D01*
X0357234Y0358217D01*
X0355999Y0359451D02*
X0355999Y0360069D01*
X0354765Y0360686D02*
X0354148Y0360069D01*
X0354148Y0358834D01*
X0354765Y0358217D01*
X0357234Y0365583D02*
X0357851Y0366200D01*
X0357851Y0367435D01*
X0357234Y0368052D01*
X0356616Y0368052D01*
X0355999Y0367435D01*
X0355999Y0366818D01*
X0355999Y0367435D02*
X0355382Y0368052D01*
X0354765Y0368052D01*
X0354148Y0367435D01*
X0363360Y0376327D02*
X0367063Y0376327D01*
X0365829Y0377562D01*
X0367063Y0378796D01*
X0363360Y0378796D01*
X0363360Y0380010D02*
X0367063Y0380010D01*
X0367063Y0382479D01*
X0365212Y0381245D02*
X0365212Y0380010D01*
X0363360Y0380010D02*
X0363360Y0382479D01*
X0377632Y0379507D02*
X0380101Y0379507D01*
X0381335Y0378272D01*
X0380101Y0377038D01*
X0377632Y0377038D01*
X0377632Y0375823D02*
X0377632Y0373355D01*
X0379483Y0373355D01*
X0378866Y0374589D01*
X0378866Y0375206D01*
X0379483Y0375823D01*
X0380718Y0375823D01*
X0381335Y0375206D01*
X0381335Y0373972D01*
X0380718Y0373355D01*
X0367234Y0343052D02*
X0367851Y0342435D01*
X0367851Y0341200D01*
X0367234Y0340583D01*
X0364765Y0340583D01*
X0364148Y0341200D01*
X0364148Y0342435D01*
X0364765Y0343052D01*
X0364765Y0339369D02*
X0364148Y0338752D01*
X0364148Y0337517D01*
X0364765Y0336900D01*
X0367234Y0336900D01*
X0367851Y0337517D01*
X0367851Y0338752D01*
X0367234Y0339369D01*
X0366616Y0335686D02*
X0364148Y0335686D01*
X0366616Y0335686D02*
X0367851Y0334451D01*
X0366616Y0333217D01*
X0364148Y0333217D01*
X0340351Y0333217D02*
X0337882Y0333217D01*
X0336648Y0334451D01*
X0337882Y0335686D01*
X0340351Y0335686D01*
X0340351Y0336900D02*
X0337882Y0339369D01*
X0337265Y0339369D01*
X0336648Y0338752D01*
X0336648Y0337517D01*
X0337265Y0336900D01*
X0338499Y0335686D02*
X0338499Y0333217D01*
X0340351Y0336900D02*
X0340351Y0339369D01*
X0340351Y0340583D02*
X0340351Y0343052D01*
X0340351Y0341818D02*
X0336648Y0341818D01*
X0337882Y0340583D01*
X0271394Y0341200D02*
X0271394Y0342435D01*
X0270777Y0343052D01*
X0271394Y0341200D02*
X0270777Y0340583D01*
X0268308Y0340583D01*
X0267691Y0341200D01*
X0267691Y0342435D01*
X0268308Y0343052D01*
X0268308Y0339369D02*
X0267691Y0338752D01*
X0267691Y0337517D01*
X0268308Y0336900D01*
X0270777Y0336900D01*
X0271394Y0337517D01*
X0271394Y0338752D01*
X0270777Y0339369D01*
X0270160Y0335686D02*
X0267691Y0335686D01*
X0270160Y0335686D02*
X0271394Y0334451D01*
X0270160Y0333217D01*
X0267691Y0333217D01*
X0243894Y0333217D02*
X0241425Y0333217D01*
X0240191Y0334451D01*
X0241425Y0335686D01*
X0243894Y0335686D01*
X0243894Y0336900D02*
X0241425Y0339369D01*
X0240808Y0339369D01*
X0240191Y0338752D01*
X0240191Y0337517D01*
X0240808Y0336900D01*
X0242043Y0335686D02*
X0242043Y0333217D01*
X0243894Y0336900D02*
X0243894Y0339369D01*
X0243894Y0340583D02*
X0243894Y0343052D01*
X0243894Y0341818D02*
X0240191Y0341818D01*
X0241425Y0340583D01*
X0172969Y0341200D02*
X0172969Y0342435D01*
X0172352Y0343052D01*
X0172969Y0341200D02*
X0172352Y0340583D01*
X0169883Y0340583D01*
X0169266Y0341200D01*
X0169266Y0342435D01*
X0169883Y0343052D01*
X0169883Y0339369D02*
X0169266Y0338752D01*
X0169266Y0337517D01*
X0169883Y0336900D01*
X0172352Y0336900D01*
X0172969Y0337517D01*
X0172969Y0338752D01*
X0172352Y0339369D01*
X0171735Y0335686D02*
X0169266Y0335686D01*
X0171735Y0335686D02*
X0172969Y0334451D01*
X0171735Y0333217D01*
X0169266Y0333217D01*
X0145357Y0376327D02*
X0142888Y0376327D01*
X0145357Y0376327D02*
X0146591Y0377562D01*
X0145357Y0378796D01*
X0142888Y0378796D01*
X0143505Y0380010D02*
X0145974Y0380010D01*
X0146591Y0380627D01*
X0146591Y0381862D01*
X0145974Y0382479D01*
X0145974Y0383693D02*
X0143505Y0383693D01*
X0142888Y0384311D01*
X0142888Y0385545D01*
X0143505Y0386162D01*
X0145974Y0386162D02*
X0146591Y0385545D01*
X0146591Y0384311D01*
X0145974Y0383693D01*
X0143505Y0382479D02*
X0142888Y0381862D01*
X0142888Y0380627D01*
X0143505Y0380010D01*
X0119032Y0384201D02*
X0116563Y0384201D01*
X0115329Y0385436D01*
X0116563Y0386670D01*
X0119032Y0386670D01*
X0119032Y0387884D02*
X0116563Y0390353D01*
X0115946Y0390353D01*
X0115329Y0389736D01*
X0115329Y0388502D01*
X0115946Y0387884D01*
X0117180Y0386670D02*
X0117180Y0384201D01*
X0119032Y0387884D02*
X0119032Y0390353D01*
X0118415Y0391567D02*
X0115946Y0394036D01*
X0118415Y0394036D01*
X0119032Y0393419D01*
X0119032Y0392185D01*
X0118415Y0391567D01*
X0115946Y0391567D01*
X0115329Y0392185D01*
X0115329Y0393419D01*
X0115946Y0394036D01*
X0115329Y0368700D02*
X0115329Y0366231D01*
X0119032Y0366231D01*
X0119032Y0368700D01*
X0117180Y0367465D02*
X0117180Y0366231D01*
X0115946Y0365016D02*
X0118415Y0365016D01*
X0119032Y0364399D01*
X0119032Y0363165D01*
X0118415Y0362548D01*
X0115946Y0362548D01*
X0115329Y0363165D01*
X0115329Y0364399D01*
X0115946Y0365016D01*
X0074377Y0365516D02*
X0071909Y0365516D01*
X0071909Y0369219D01*
X0074377Y0369219D01*
X0073143Y0367368D02*
X0071909Y0367368D01*
X0070694Y0368602D02*
X0070077Y0369219D01*
X0068843Y0369219D01*
X0068225Y0368602D01*
X0068225Y0366133D01*
X0068843Y0365516D01*
X0070077Y0365516D01*
X0070694Y0366133D01*
X0070694Y0368602D01*
X0070694Y0381264D02*
X0070694Y0384967D01*
X0071909Y0384967D02*
X0071909Y0381264D01*
X0074377Y0381264D01*
X0073143Y0383116D02*
X0071909Y0383116D01*
X0071909Y0384967D02*
X0074377Y0384967D01*
X0070694Y0381264D02*
X0069460Y0382499D01*
X0068225Y0381264D01*
X0068225Y0384967D01*
D15*
X0062765Y0395567D02*
X0062767Y0395384D01*
X0062774Y0395202D01*
X0062785Y0395020D01*
X0062801Y0394838D01*
X0062821Y0394656D01*
X0062845Y0394475D01*
X0062874Y0394295D01*
X0062907Y0394115D01*
X0062944Y0393936D01*
X0062986Y0393758D01*
X0063033Y0393582D01*
X0063083Y0393406D01*
X0063138Y0393232D01*
X0063197Y0393059D01*
X0063260Y0392888D01*
X0063327Y0392718D01*
X0063399Y0392550D01*
X0063474Y0392384D01*
X0063554Y0392219D01*
X0063637Y0392057D01*
X0063725Y0391896D01*
X0063816Y0391738D01*
X0063911Y0391582D01*
X0064010Y0391429D01*
X0064113Y0391278D01*
X0064219Y0391129D01*
X0064329Y0390983D01*
X0064442Y0390840D01*
X0064559Y0390700D01*
X0064679Y0390562D01*
X0064803Y0390428D01*
X0064930Y0390296D01*
X0065059Y0390168D01*
X0065192Y0390043D01*
X0065328Y0389921D01*
X0065467Y0389802D01*
X0065609Y0389687D01*
X0065754Y0389575D01*
X0065901Y0389467D01*
X0066051Y0389363D01*
X0066203Y0389262D01*
X0066358Y0389165D01*
X0066515Y0389072D01*
X0066674Y0388982D01*
X0066836Y0388897D01*
X0066999Y0388815D01*
X0067164Y0388738D01*
X0067332Y0388664D01*
X0067501Y0388595D01*
X0067671Y0388530D01*
X0067843Y0388469D01*
X0068017Y0388412D01*
X0068192Y0388359D01*
X0068368Y0388311D01*
X0068545Y0388267D01*
X0068724Y0388227D01*
X0068903Y0388192D01*
X0069083Y0388161D01*
X0069263Y0388134D01*
X0069445Y0388112D01*
X0069626Y0388094D01*
X0069809Y0388081D01*
X0069991Y0388072D01*
X0070174Y0388068D01*
X0070356Y0388068D01*
X0070539Y0388072D01*
X0070721Y0388081D01*
X0070904Y0388094D01*
X0071085Y0388112D01*
X0071267Y0388134D01*
X0071447Y0388161D01*
X0071627Y0388192D01*
X0071806Y0388227D01*
X0071985Y0388267D01*
X0072162Y0388311D01*
X0072338Y0388359D01*
X0072513Y0388412D01*
X0072687Y0388469D01*
X0072859Y0388530D01*
X0073029Y0388595D01*
X0073198Y0388664D01*
X0073366Y0388738D01*
X0073531Y0388815D01*
X0073694Y0388897D01*
X0073856Y0388982D01*
X0074015Y0389072D01*
X0074172Y0389165D01*
X0074327Y0389262D01*
X0074479Y0389363D01*
X0074629Y0389467D01*
X0074776Y0389575D01*
X0074921Y0389687D01*
X0075063Y0389802D01*
X0075202Y0389921D01*
X0075338Y0390043D01*
X0075471Y0390168D01*
X0075600Y0390296D01*
X0075727Y0390428D01*
X0075851Y0390562D01*
X0075971Y0390700D01*
X0076088Y0390840D01*
X0076201Y0390983D01*
X0076311Y0391129D01*
X0076417Y0391278D01*
X0076520Y0391429D01*
X0076619Y0391582D01*
X0076714Y0391738D01*
X0076805Y0391896D01*
X0076893Y0392057D01*
X0076976Y0392219D01*
X0077056Y0392384D01*
X0077131Y0392550D01*
X0077203Y0392718D01*
X0077270Y0392888D01*
X0077333Y0393059D01*
X0077392Y0393232D01*
X0077447Y0393406D01*
X0077497Y0393582D01*
X0077544Y0393758D01*
X0077586Y0393936D01*
X0077623Y0394115D01*
X0077656Y0394295D01*
X0077685Y0394475D01*
X0077709Y0394656D01*
X0077729Y0394838D01*
X0077745Y0395020D01*
X0077756Y0395202D01*
X0077763Y0395384D01*
X0077765Y0395567D01*
X0092765Y0395567D01*
X0062765Y0395567D02*
X0047765Y0395567D01*
X0143119Y0395567D02*
X0158119Y0395567D01*
X0158121Y0395384D01*
X0158128Y0395202D01*
X0158139Y0395020D01*
X0158155Y0394838D01*
X0158175Y0394656D01*
X0158199Y0394475D01*
X0158228Y0394295D01*
X0158261Y0394115D01*
X0158298Y0393936D01*
X0158340Y0393758D01*
X0158387Y0393582D01*
X0158437Y0393406D01*
X0158492Y0393232D01*
X0158551Y0393059D01*
X0158614Y0392888D01*
X0158681Y0392718D01*
X0158753Y0392550D01*
X0158828Y0392384D01*
X0158908Y0392219D01*
X0158991Y0392057D01*
X0159079Y0391896D01*
X0159170Y0391738D01*
X0159265Y0391582D01*
X0159364Y0391429D01*
X0159467Y0391278D01*
X0159573Y0391129D01*
X0159683Y0390983D01*
X0159796Y0390840D01*
X0159913Y0390700D01*
X0160033Y0390562D01*
X0160157Y0390428D01*
X0160284Y0390296D01*
X0160413Y0390168D01*
X0160546Y0390043D01*
X0160682Y0389921D01*
X0160821Y0389802D01*
X0160963Y0389687D01*
X0161108Y0389575D01*
X0161255Y0389467D01*
X0161405Y0389363D01*
X0161557Y0389262D01*
X0161712Y0389165D01*
X0161869Y0389072D01*
X0162028Y0388982D01*
X0162190Y0388897D01*
X0162353Y0388815D01*
X0162518Y0388738D01*
X0162686Y0388664D01*
X0162855Y0388595D01*
X0163025Y0388530D01*
X0163197Y0388469D01*
X0163371Y0388412D01*
X0163546Y0388359D01*
X0163722Y0388311D01*
X0163899Y0388267D01*
X0164078Y0388227D01*
X0164257Y0388192D01*
X0164437Y0388161D01*
X0164617Y0388134D01*
X0164799Y0388112D01*
X0164980Y0388094D01*
X0165163Y0388081D01*
X0165345Y0388072D01*
X0165528Y0388068D01*
X0165710Y0388068D01*
X0165893Y0388072D01*
X0166075Y0388081D01*
X0166258Y0388094D01*
X0166439Y0388112D01*
X0166621Y0388134D01*
X0166801Y0388161D01*
X0166981Y0388192D01*
X0167160Y0388227D01*
X0167339Y0388267D01*
X0167516Y0388311D01*
X0167692Y0388359D01*
X0167867Y0388412D01*
X0168041Y0388469D01*
X0168213Y0388530D01*
X0168383Y0388595D01*
X0168552Y0388664D01*
X0168720Y0388738D01*
X0168885Y0388815D01*
X0169048Y0388897D01*
X0169210Y0388982D01*
X0169369Y0389072D01*
X0169526Y0389165D01*
X0169681Y0389262D01*
X0169833Y0389363D01*
X0169983Y0389467D01*
X0170130Y0389575D01*
X0170275Y0389687D01*
X0170417Y0389802D01*
X0170556Y0389921D01*
X0170692Y0390043D01*
X0170825Y0390168D01*
X0170954Y0390296D01*
X0171081Y0390428D01*
X0171205Y0390562D01*
X0171325Y0390700D01*
X0171442Y0390840D01*
X0171555Y0390983D01*
X0171665Y0391129D01*
X0171771Y0391278D01*
X0171874Y0391429D01*
X0171973Y0391582D01*
X0172068Y0391738D01*
X0172159Y0391896D01*
X0172247Y0392057D01*
X0172330Y0392219D01*
X0172410Y0392384D01*
X0172485Y0392550D01*
X0172557Y0392718D01*
X0172624Y0392888D01*
X0172687Y0393059D01*
X0172746Y0393232D01*
X0172801Y0393406D01*
X0172851Y0393582D01*
X0172898Y0393758D01*
X0172940Y0393936D01*
X0172977Y0394115D01*
X0173010Y0394295D01*
X0173039Y0394475D01*
X0173063Y0394656D01*
X0173083Y0394838D01*
X0173099Y0395020D01*
X0173110Y0395202D01*
X0173117Y0395384D01*
X0173119Y0395567D01*
X0188119Y0395567D01*
X0241544Y0395567D02*
X0256544Y0395567D01*
X0256546Y0395384D01*
X0256553Y0395202D01*
X0256564Y0395020D01*
X0256580Y0394838D01*
X0256600Y0394656D01*
X0256624Y0394475D01*
X0256653Y0394295D01*
X0256686Y0394115D01*
X0256723Y0393936D01*
X0256765Y0393758D01*
X0256812Y0393582D01*
X0256862Y0393406D01*
X0256917Y0393232D01*
X0256976Y0393059D01*
X0257039Y0392888D01*
X0257106Y0392718D01*
X0257178Y0392550D01*
X0257253Y0392384D01*
X0257333Y0392219D01*
X0257416Y0392057D01*
X0257504Y0391896D01*
X0257595Y0391738D01*
X0257690Y0391582D01*
X0257789Y0391429D01*
X0257892Y0391278D01*
X0257998Y0391129D01*
X0258108Y0390983D01*
X0258221Y0390840D01*
X0258338Y0390700D01*
X0258458Y0390562D01*
X0258582Y0390428D01*
X0258709Y0390296D01*
X0258838Y0390168D01*
X0258971Y0390043D01*
X0259107Y0389921D01*
X0259246Y0389802D01*
X0259388Y0389687D01*
X0259533Y0389575D01*
X0259680Y0389467D01*
X0259830Y0389363D01*
X0259982Y0389262D01*
X0260137Y0389165D01*
X0260294Y0389072D01*
X0260453Y0388982D01*
X0260615Y0388897D01*
X0260778Y0388815D01*
X0260943Y0388738D01*
X0261111Y0388664D01*
X0261280Y0388595D01*
X0261450Y0388530D01*
X0261622Y0388469D01*
X0261796Y0388412D01*
X0261971Y0388359D01*
X0262147Y0388311D01*
X0262324Y0388267D01*
X0262503Y0388227D01*
X0262682Y0388192D01*
X0262862Y0388161D01*
X0263042Y0388134D01*
X0263224Y0388112D01*
X0263405Y0388094D01*
X0263588Y0388081D01*
X0263770Y0388072D01*
X0263953Y0388068D01*
X0264135Y0388068D01*
X0264318Y0388072D01*
X0264500Y0388081D01*
X0264683Y0388094D01*
X0264864Y0388112D01*
X0265046Y0388134D01*
X0265226Y0388161D01*
X0265406Y0388192D01*
X0265585Y0388227D01*
X0265764Y0388267D01*
X0265941Y0388311D01*
X0266117Y0388359D01*
X0266292Y0388412D01*
X0266466Y0388469D01*
X0266638Y0388530D01*
X0266808Y0388595D01*
X0266977Y0388664D01*
X0267145Y0388738D01*
X0267310Y0388815D01*
X0267473Y0388897D01*
X0267635Y0388982D01*
X0267794Y0389072D01*
X0267951Y0389165D01*
X0268106Y0389262D01*
X0268258Y0389363D01*
X0268408Y0389467D01*
X0268555Y0389575D01*
X0268700Y0389687D01*
X0268842Y0389802D01*
X0268981Y0389921D01*
X0269117Y0390043D01*
X0269250Y0390168D01*
X0269379Y0390296D01*
X0269506Y0390428D01*
X0269630Y0390562D01*
X0269750Y0390700D01*
X0269867Y0390840D01*
X0269980Y0390983D01*
X0270090Y0391129D01*
X0270196Y0391278D01*
X0270299Y0391429D01*
X0270398Y0391582D01*
X0270493Y0391738D01*
X0270584Y0391896D01*
X0270672Y0392057D01*
X0270755Y0392219D01*
X0270835Y0392384D01*
X0270910Y0392550D01*
X0270982Y0392718D01*
X0271049Y0392888D01*
X0271112Y0393059D01*
X0271171Y0393232D01*
X0271226Y0393406D01*
X0271276Y0393582D01*
X0271323Y0393758D01*
X0271365Y0393936D01*
X0271402Y0394115D01*
X0271435Y0394295D01*
X0271464Y0394475D01*
X0271488Y0394656D01*
X0271508Y0394838D01*
X0271524Y0395020D01*
X0271535Y0395202D01*
X0271542Y0395384D01*
X0271544Y0395567D01*
X0286544Y0395567D01*
X0338001Y0395567D02*
X0353001Y0395567D01*
X0353003Y0395384D01*
X0353010Y0395202D01*
X0353021Y0395020D01*
X0353037Y0394838D01*
X0353057Y0394656D01*
X0353081Y0394475D01*
X0353110Y0394295D01*
X0353143Y0394115D01*
X0353180Y0393936D01*
X0353222Y0393758D01*
X0353269Y0393582D01*
X0353319Y0393406D01*
X0353374Y0393232D01*
X0353433Y0393059D01*
X0353496Y0392888D01*
X0353563Y0392718D01*
X0353635Y0392550D01*
X0353710Y0392384D01*
X0353790Y0392219D01*
X0353873Y0392057D01*
X0353961Y0391896D01*
X0354052Y0391738D01*
X0354147Y0391582D01*
X0354246Y0391429D01*
X0354349Y0391278D01*
X0354455Y0391129D01*
X0354565Y0390983D01*
X0354678Y0390840D01*
X0354795Y0390700D01*
X0354915Y0390562D01*
X0355039Y0390428D01*
X0355166Y0390296D01*
X0355295Y0390168D01*
X0355428Y0390043D01*
X0355564Y0389921D01*
X0355703Y0389802D01*
X0355845Y0389687D01*
X0355990Y0389575D01*
X0356137Y0389467D01*
X0356287Y0389363D01*
X0356439Y0389262D01*
X0356594Y0389165D01*
X0356751Y0389072D01*
X0356910Y0388982D01*
X0357072Y0388897D01*
X0357235Y0388815D01*
X0357400Y0388738D01*
X0357568Y0388664D01*
X0357737Y0388595D01*
X0357907Y0388530D01*
X0358079Y0388469D01*
X0358253Y0388412D01*
X0358428Y0388359D01*
X0358604Y0388311D01*
X0358781Y0388267D01*
X0358960Y0388227D01*
X0359139Y0388192D01*
X0359319Y0388161D01*
X0359499Y0388134D01*
X0359681Y0388112D01*
X0359862Y0388094D01*
X0360045Y0388081D01*
X0360227Y0388072D01*
X0360410Y0388068D01*
X0360592Y0388068D01*
X0360775Y0388072D01*
X0360957Y0388081D01*
X0361140Y0388094D01*
X0361321Y0388112D01*
X0361503Y0388134D01*
X0361683Y0388161D01*
X0361863Y0388192D01*
X0362042Y0388227D01*
X0362221Y0388267D01*
X0362398Y0388311D01*
X0362574Y0388359D01*
X0362749Y0388412D01*
X0362923Y0388469D01*
X0363095Y0388530D01*
X0363265Y0388595D01*
X0363434Y0388664D01*
X0363602Y0388738D01*
X0363767Y0388815D01*
X0363930Y0388897D01*
X0364092Y0388982D01*
X0364251Y0389072D01*
X0364408Y0389165D01*
X0364563Y0389262D01*
X0364715Y0389363D01*
X0364865Y0389467D01*
X0365012Y0389575D01*
X0365157Y0389687D01*
X0365299Y0389802D01*
X0365438Y0389921D01*
X0365574Y0390043D01*
X0365707Y0390168D01*
X0365836Y0390296D01*
X0365963Y0390428D01*
X0366087Y0390562D01*
X0366207Y0390700D01*
X0366324Y0390840D01*
X0366437Y0390983D01*
X0366547Y0391129D01*
X0366653Y0391278D01*
X0366756Y0391429D01*
X0366855Y0391582D01*
X0366950Y0391738D01*
X0367041Y0391896D01*
X0367129Y0392057D01*
X0367212Y0392219D01*
X0367292Y0392384D01*
X0367367Y0392550D01*
X0367439Y0392718D01*
X0367506Y0392888D01*
X0367569Y0393059D01*
X0367628Y0393232D01*
X0367683Y0393406D01*
X0367733Y0393582D01*
X0367780Y0393758D01*
X0367822Y0393936D01*
X0367859Y0394115D01*
X0367892Y0394295D01*
X0367921Y0394475D01*
X0367945Y0394656D01*
X0367965Y0394838D01*
X0367981Y0395020D01*
X0367992Y0395202D01*
X0367999Y0395384D01*
X0368001Y0395567D01*
X0383001Y0395567D01*
X0363769Y0169169D02*
X0363769Y0154169D01*
X0363586Y0154167D01*
X0363404Y0154160D01*
X0363222Y0154149D01*
X0363040Y0154133D01*
X0362858Y0154113D01*
X0362677Y0154089D01*
X0362497Y0154060D01*
X0362317Y0154027D01*
X0362138Y0153990D01*
X0361960Y0153948D01*
X0361784Y0153901D01*
X0361608Y0153851D01*
X0361434Y0153796D01*
X0361261Y0153737D01*
X0361090Y0153674D01*
X0360920Y0153607D01*
X0360752Y0153535D01*
X0360586Y0153460D01*
X0360421Y0153380D01*
X0360259Y0153297D01*
X0360098Y0153209D01*
X0359940Y0153118D01*
X0359784Y0153023D01*
X0359631Y0152924D01*
X0359480Y0152821D01*
X0359331Y0152715D01*
X0359185Y0152605D01*
X0359042Y0152492D01*
X0358902Y0152375D01*
X0358764Y0152255D01*
X0358630Y0152131D01*
X0358498Y0152004D01*
X0358370Y0151875D01*
X0358245Y0151742D01*
X0358123Y0151606D01*
X0358004Y0151467D01*
X0357889Y0151325D01*
X0357777Y0151180D01*
X0357669Y0151033D01*
X0357565Y0150883D01*
X0357464Y0150731D01*
X0357367Y0150576D01*
X0357274Y0150419D01*
X0357184Y0150260D01*
X0357099Y0150098D01*
X0357017Y0149935D01*
X0356940Y0149770D01*
X0356866Y0149602D01*
X0356797Y0149433D01*
X0356732Y0149263D01*
X0356671Y0149091D01*
X0356614Y0148917D01*
X0356561Y0148742D01*
X0356513Y0148566D01*
X0356469Y0148389D01*
X0356429Y0148210D01*
X0356394Y0148031D01*
X0356363Y0147851D01*
X0356336Y0147671D01*
X0356314Y0147489D01*
X0356296Y0147308D01*
X0356283Y0147125D01*
X0356274Y0146943D01*
X0356270Y0146760D01*
X0356270Y0146578D01*
X0356274Y0146395D01*
X0356283Y0146213D01*
X0356296Y0146030D01*
X0356314Y0145849D01*
X0356336Y0145667D01*
X0356363Y0145487D01*
X0356394Y0145307D01*
X0356429Y0145128D01*
X0356469Y0144949D01*
X0356513Y0144772D01*
X0356561Y0144596D01*
X0356614Y0144421D01*
X0356671Y0144247D01*
X0356732Y0144075D01*
X0356797Y0143905D01*
X0356866Y0143736D01*
X0356940Y0143568D01*
X0357017Y0143403D01*
X0357099Y0143240D01*
X0357184Y0143078D01*
X0357274Y0142919D01*
X0357367Y0142762D01*
X0357464Y0142607D01*
X0357565Y0142455D01*
X0357669Y0142305D01*
X0357777Y0142158D01*
X0357889Y0142013D01*
X0358004Y0141871D01*
X0358123Y0141732D01*
X0358245Y0141596D01*
X0358370Y0141463D01*
X0358498Y0141334D01*
X0358630Y0141207D01*
X0358764Y0141083D01*
X0358902Y0140963D01*
X0359042Y0140846D01*
X0359185Y0140733D01*
X0359331Y0140623D01*
X0359480Y0140517D01*
X0359631Y0140414D01*
X0359784Y0140315D01*
X0359940Y0140220D01*
X0360098Y0140129D01*
X0360259Y0140041D01*
X0360421Y0139958D01*
X0360586Y0139878D01*
X0360752Y0139803D01*
X0360920Y0139731D01*
X0361090Y0139664D01*
X0361261Y0139601D01*
X0361434Y0139542D01*
X0361608Y0139487D01*
X0361784Y0139437D01*
X0361960Y0139390D01*
X0362138Y0139348D01*
X0362317Y0139311D01*
X0362497Y0139278D01*
X0362677Y0139249D01*
X0362858Y0139225D01*
X0363040Y0139205D01*
X0363222Y0139189D01*
X0363404Y0139178D01*
X0363586Y0139171D01*
X0363769Y0139169D01*
X0363769Y0124169D01*
D16*
X0335072Y0084766D02*
X0322072Y0084766D01*
X0322072Y0058966D01*
X0335072Y0058966D01*
X0335072Y0084766D01*
X0348256Y0071866D02*
X0348259Y0072108D01*
X0348268Y0072349D01*
X0348283Y0072590D01*
X0348303Y0072831D01*
X0348330Y0073071D01*
X0348363Y0073310D01*
X0348401Y0073549D01*
X0348445Y0073786D01*
X0348495Y0074023D01*
X0348551Y0074258D01*
X0348613Y0074491D01*
X0348680Y0074723D01*
X0348753Y0074954D01*
X0348831Y0075182D01*
X0348916Y0075408D01*
X0349005Y0075633D01*
X0349100Y0075855D01*
X0349201Y0076074D01*
X0349307Y0076292D01*
X0349418Y0076506D01*
X0349535Y0076718D01*
X0349656Y0076926D01*
X0349783Y0077132D01*
X0349915Y0077334D01*
X0350052Y0077534D01*
X0350193Y0077729D01*
X0350339Y0077922D01*
X0350490Y0078110D01*
X0350646Y0078295D01*
X0350806Y0078476D01*
X0350970Y0078653D01*
X0351139Y0078826D01*
X0351312Y0078995D01*
X0351489Y0079159D01*
X0351670Y0079319D01*
X0351855Y0079475D01*
X0352043Y0079626D01*
X0352236Y0079772D01*
X0352431Y0079913D01*
X0352631Y0080050D01*
X0352833Y0080182D01*
X0353039Y0080309D01*
X0353247Y0080430D01*
X0353459Y0080547D01*
X0353673Y0080658D01*
X0353891Y0080764D01*
X0354110Y0080865D01*
X0354332Y0080960D01*
X0354557Y0081049D01*
X0354783Y0081134D01*
X0355011Y0081212D01*
X0355242Y0081285D01*
X0355474Y0081352D01*
X0355707Y0081414D01*
X0355942Y0081470D01*
X0356179Y0081520D01*
X0356416Y0081564D01*
X0356655Y0081602D01*
X0356894Y0081635D01*
X0357134Y0081662D01*
X0357375Y0081682D01*
X0357616Y0081697D01*
X0357857Y0081706D01*
X0358099Y0081709D01*
X0358341Y0081706D01*
X0358582Y0081697D01*
X0358823Y0081682D01*
X0359064Y0081662D01*
X0359304Y0081635D01*
X0359543Y0081602D01*
X0359782Y0081564D01*
X0360019Y0081520D01*
X0360256Y0081470D01*
X0360491Y0081414D01*
X0360724Y0081352D01*
X0360956Y0081285D01*
X0361187Y0081212D01*
X0361415Y0081134D01*
X0361641Y0081049D01*
X0361866Y0080960D01*
X0362088Y0080865D01*
X0362307Y0080764D01*
X0362525Y0080658D01*
X0362739Y0080547D01*
X0362951Y0080430D01*
X0363159Y0080309D01*
X0363365Y0080182D01*
X0363567Y0080050D01*
X0363767Y0079913D01*
X0363962Y0079772D01*
X0364155Y0079626D01*
X0364343Y0079475D01*
X0364528Y0079319D01*
X0364709Y0079159D01*
X0364886Y0078995D01*
X0365059Y0078826D01*
X0365228Y0078653D01*
X0365392Y0078476D01*
X0365552Y0078295D01*
X0365708Y0078110D01*
X0365859Y0077922D01*
X0366005Y0077729D01*
X0366146Y0077534D01*
X0366283Y0077334D01*
X0366415Y0077132D01*
X0366542Y0076926D01*
X0366663Y0076718D01*
X0366780Y0076506D01*
X0366891Y0076292D01*
X0366997Y0076074D01*
X0367098Y0075855D01*
X0367193Y0075633D01*
X0367282Y0075408D01*
X0367367Y0075182D01*
X0367445Y0074954D01*
X0367518Y0074723D01*
X0367585Y0074491D01*
X0367647Y0074258D01*
X0367703Y0074023D01*
X0367753Y0073786D01*
X0367797Y0073549D01*
X0367835Y0073310D01*
X0367868Y0073071D01*
X0367895Y0072831D01*
X0367915Y0072590D01*
X0367930Y0072349D01*
X0367939Y0072108D01*
X0367942Y0071866D01*
X0367939Y0071624D01*
X0367930Y0071383D01*
X0367915Y0071142D01*
X0367895Y0070901D01*
X0367868Y0070661D01*
X0367835Y0070422D01*
X0367797Y0070183D01*
X0367753Y0069946D01*
X0367703Y0069709D01*
X0367647Y0069474D01*
X0367585Y0069241D01*
X0367518Y0069009D01*
X0367445Y0068778D01*
X0367367Y0068550D01*
X0367282Y0068324D01*
X0367193Y0068099D01*
X0367098Y0067877D01*
X0366997Y0067658D01*
X0366891Y0067440D01*
X0366780Y0067226D01*
X0366663Y0067014D01*
X0366542Y0066806D01*
X0366415Y0066600D01*
X0366283Y0066398D01*
X0366146Y0066198D01*
X0366005Y0066003D01*
X0365859Y0065810D01*
X0365708Y0065622D01*
X0365552Y0065437D01*
X0365392Y0065256D01*
X0365228Y0065079D01*
X0365059Y0064906D01*
X0364886Y0064737D01*
X0364709Y0064573D01*
X0364528Y0064413D01*
X0364343Y0064257D01*
X0364155Y0064106D01*
X0363962Y0063960D01*
X0363767Y0063819D01*
X0363567Y0063682D01*
X0363365Y0063550D01*
X0363159Y0063423D01*
X0362951Y0063302D01*
X0362739Y0063185D01*
X0362525Y0063074D01*
X0362307Y0062968D01*
X0362088Y0062867D01*
X0361866Y0062772D01*
X0361641Y0062683D01*
X0361415Y0062598D01*
X0361187Y0062520D01*
X0360956Y0062447D01*
X0360724Y0062380D01*
X0360491Y0062318D01*
X0360256Y0062262D01*
X0360019Y0062212D01*
X0359782Y0062168D01*
X0359543Y0062130D01*
X0359304Y0062097D01*
X0359064Y0062070D01*
X0358823Y0062050D01*
X0358582Y0062035D01*
X0358341Y0062026D01*
X0358099Y0062023D01*
X0357857Y0062026D01*
X0357616Y0062035D01*
X0357375Y0062050D01*
X0357134Y0062070D01*
X0356894Y0062097D01*
X0356655Y0062130D01*
X0356416Y0062168D01*
X0356179Y0062212D01*
X0355942Y0062262D01*
X0355707Y0062318D01*
X0355474Y0062380D01*
X0355242Y0062447D01*
X0355011Y0062520D01*
X0354783Y0062598D01*
X0354557Y0062683D01*
X0354332Y0062772D01*
X0354110Y0062867D01*
X0353891Y0062968D01*
X0353673Y0063074D01*
X0353459Y0063185D01*
X0353247Y0063302D01*
X0353039Y0063423D01*
X0352833Y0063550D01*
X0352631Y0063682D01*
X0352431Y0063819D01*
X0352236Y0063960D01*
X0352043Y0064106D01*
X0351855Y0064257D01*
X0351670Y0064413D01*
X0351489Y0064573D01*
X0351312Y0064737D01*
X0351139Y0064906D01*
X0350970Y0065079D01*
X0350806Y0065256D01*
X0350646Y0065437D01*
X0350490Y0065622D01*
X0350339Y0065810D01*
X0350193Y0066003D01*
X0350052Y0066198D01*
X0349915Y0066398D01*
X0349783Y0066600D01*
X0349656Y0066806D01*
X0349535Y0067014D01*
X0349418Y0067226D01*
X0349307Y0067440D01*
X0349201Y0067658D01*
X0349100Y0067877D01*
X0349005Y0068099D01*
X0348916Y0068324D01*
X0348831Y0068550D01*
X0348753Y0068778D01*
X0348680Y0069009D01*
X0348613Y0069241D01*
X0348551Y0069474D01*
X0348495Y0069709D01*
X0348445Y0069946D01*
X0348401Y0070183D01*
X0348363Y0070422D01*
X0348330Y0070661D01*
X0348303Y0070901D01*
X0348283Y0071142D01*
X0348268Y0071383D01*
X0348259Y0071624D01*
X0348256Y0071866D01*
X0363599Y0074866D02*
X0363599Y0078866D01*
X0290765Y0078803D02*
X0290765Y0082803D01*
X0275422Y0075803D02*
X0275425Y0076045D01*
X0275434Y0076286D01*
X0275449Y0076527D01*
X0275469Y0076768D01*
X0275496Y0077008D01*
X0275529Y0077247D01*
X0275567Y0077486D01*
X0275611Y0077723D01*
X0275661Y0077960D01*
X0275717Y0078195D01*
X0275779Y0078428D01*
X0275846Y0078660D01*
X0275919Y0078891D01*
X0275997Y0079119D01*
X0276082Y0079345D01*
X0276171Y0079570D01*
X0276266Y0079792D01*
X0276367Y0080011D01*
X0276473Y0080229D01*
X0276584Y0080443D01*
X0276701Y0080655D01*
X0276822Y0080863D01*
X0276949Y0081069D01*
X0277081Y0081271D01*
X0277218Y0081471D01*
X0277359Y0081666D01*
X0277505Y0081859D01*
X0277656Y0082047D01*
X0277812Y0082232D01*
X0277972Y0082413D01*
X0278136Y0082590D01*
X0278305Y0082763D01*
X0278478Y0082932D01*
X0278655Y0083096D01*
X0278836Y0083256D01*
X0279021Y0083412D01*
X0279209Y0083563D01*
X0279402Y0083709D01*
X0279597Y0083850D01*
X0279797Y0083987D01*
X0279999Y0084119D01*
X0280205Y0084246D01*
X0280413Y0084367D01*
X0280625Y0084484D01*
X0280839Y0084595D01*
X0281057Y0084701D01*
X0281276Y0084802D01*
X0281498Y0084897D01*
X0281723Y0084986D01*
X0281949Y0085071D01*
X0282177Y0085149D01*
X0282408Y0085222D01*
X0282640Y0085289D01*
X0282873Y0085351D01*
X0283108Y0085407D01*
X0283345Y0085457D01*
X0283582Y0085501D01*
X0283821Y0085539D01*
X0284060Y0085572D01*
X0284300Y0085599D01*
X0284541Y0085619D01*
X0284782Y0085634D01*
X0285023Y0085643D01*
X0285265Y0085646D01*
X0285507Y0085643D01*
X0285748Y0085634D01*
X0285989Y0085619D01*
X0286230Y0085599D01*
X0286470Y0085572D01*
X0286709Y0085539D01*
X0286948Y0085501D01*
X0287185Y0085457D01*
X0287422Y0085407D01*
X0287657Y0085351D01*
X0287890Y0085289D01*
X0288122Y0085222D01*
X0288353Y0085149D01*
X0288581Y0085071D01*
X0288807Y0084986D01*
X0289032Y0084897D01*
X0289254Y0084802D01*
X0289473Y0084701D01*
X0289691Y0084595D01*
X0289905Y0084484D01*
X0290117Y0084367D01*
X0290325Y0084246D01*
X0290531Y0084119D01*
X0290733Y0083987D01*
X0290933Y0083850D01*
X0291128Y0083709D01*
X0291321Y0083563D01*
X0291509Y0083412D01*
X0291694Y0083256D01*
X0291875Y0083096D01*
X0292052Y0082932D01*
X0292225Y0082763D01*
X0292394Y0082590D01*
X0292558Y0082413D01*
X0292718Y0082232D01*
X0292874Y0082047D01*
X0293025Y0081859D01*
X0293171Y0081666D01*
X0293312Y0081471D01*
X0293449Y0081271D01*
X0293581Y0081069D01*
X0293708Y0080863D01*
X0293829Y0080655D01*
X0293946Y0080443D01*
X0294057Y0080229D01*
X0294163Y0080011D01*
X0294264Y0079792D01*
X0294359Y0079570D01*
X0294448Y0079345D01*
X0294533Y0079119D01*
X0294611Y0078891D01*
X0294684Y0078660D01*
X0294751Y0078428D01*
X0294813Y0078195D01*
X0294869Y0077960D01*
X0294919Y0077723D01*
X0294963Y0077486D01*
X0295001Y0077247D01*
X0295034Y0077008D01*
X0295061Y0076768D01*
X0295081Y0076527D01*
X0295096Y0076286D01*
X0295105Y0076045D01*
X0295108Y0075803D01*
X0295105Y0075561D01*
X0295096Y0075320D01*
X0295081Y0075079D01*
X0295061Y0074838D01*
X0295034Y0074598D01*
X0295001Y0074359D01*
X0294963Y0074120D01*
X0294919Y0073883D01*
X0294869Y0073646D01*
X0294813Y0073411D01*
X0294751Y0073178D01*
X0294684Y0072946D01*
X0294611Y0072715D01*
X0294533Y0072487D01*
X0294448Y0072261D01*
X0294359Y0072036D01*
X0294264Y0071814D01*
X0294163Y0071595D01*
X0294057Y0071377D01*
X0293946Y0071163D01*
X0293829Y0070951D01*
X0293708Y0070743D01*
X0293581Y0070537D01*
X0293449Y0070335D01*
X0293312Y0070135D01*
X0293171Y0069940D01*
X0293025Y0069747D01*
X0292874Y0069559D01*
X0292718Y0069374D01*
X0292558Y0069193D01*
X0292394Y0069016D01*
X0292225Y0068843D01*
X0292052Y0068674D01*
X0291875Y0068510D01*
X0291694Y0068350D01*
X0291509Y0068194D01*
X0291321Y0068043D01*
X0291128Y0067897D01*
X0290933Y0067756D01*
X0290733Y0067619D01*
X0290531Y0067487D01*
X0290325Y0067360D01*
X0290117Y0067239D01*
X0289905Y0067122D01*
X0289691Y0067011D01*
X0289473Y0066905D01*
X0289254Y0066804D01*
X0289032Y0066709D01*
X0288807Y0066620D01*
X0288581Y0066535D01*
X0288353Y0066457D01*
X0288122Y0066384D01*
X0287890Y0066317D01*
X0287657Y0066255D01*
X0287422Y0066199D01*
X0287185Y0066149D01*
X0286948Y0066105D01*
X0286709Y0066067D01*
X0286470Y0066034D01*
X0286230Y0066007D01*
X0285989Y0065987D01*
X0285748Y0065972D01*
X0285507Y0065963D01*
X0285265Y0065960D01*
X0285023Y0065963D01*
X0284782Y0065972D01*
X0284541Y0065987D01*
X0284300Y0066007D01*
X0284060Y0066034D01*
X0283821Y0066067D01*
X0283582Y0066105D01*
X0283345Y0066149D01*
X0283108Y0066199D01*
X0282873Y0066255D01*
X0282640Y0066317D01*
X0282408Y0066384D01*
X0282177Y0066457D01*
X0281949Y0066535D01*
X0281723Y0066620D01*
X0281498Y0066709D01*
X0281276Y0066804D01*
X0281057Y0066905D01*
X0280839Y0067011D01*
X0280625Y0067122D01*
X0280413Y0067239D01*
X0280205Y0067360D01*
X0279999Y0067487D01*
X0279797Y0067619D01*
X0279597Y0067756D01*
X0279402Y0067897D01*
X0279209Y0068043D01*
X0279021Y0068194D01*
X0278836Y0068350D01*
X0278655Y0068510D01*
X0278478Y0068674D01*
X0278305Y0068843D01*
X0278136Y0069016D01*
X0277972Y0069193D01*
X0277812Y0069374D01*
X0277656Y0069559D01*
X0277505Y0069747D01*
X0277359Y0069940D01*
X0277218Y0070135D01*
X0277081Y0070335D01*
X0276949Y0070537D01*
X0276822Y0070743D01*
X0276701Y0070951D01*
X0276584Y0071163D01*
X0276473Y0071377D01*
X0276367Y0071595D01*
X0276266Y0071814D01*
X0276171Y0072036D01*
X0276082Y0072261D01*
X0275997Y0072487D01*
X0275919Y0072715D01*
X0275846Y0072946D01*
X0275779Y0073178D01*
X0275717Y0073411D01*
X0275661Y0073646D01*
X0275611Y0073883D01*
X0275567Y0074120D01*
X0275529Y0074359D01*
X0275496Y0074598D01*
X0275469Y0074838D01*
X0275449Y0075079D01*
X0275434Y0075320D01*
X0275425Y0075561D01*
X0275422Y0075803D01*
X0089950Y0269346D02*
X0050580Y0269346D01*
X0050580Y0341787D01*
X0089950Y0341787D01*
X0089950Y0269346D01*
X0129949Y0325409D02*
X0129951Y0325497D01*
X0129957Y0325585D01*
X0129967Y0325673D01*
X0129981Y0325761D01*
X0129998Y0325847D01*
X0130020Y0325933D01*
X0130045Y0326017D01*
X0130075Y0326101D01*
X0130107Y0326183D01*
X0130144Y0326263D01*
X0130184Y0326342D01*
X0130228Y0326419D01*
X0130275Y0326494D01*
X0130325Y0326566D01*
X0130379Y0326637D01*
X0130435Y0326704D01*
X0130495Y0326770D01*
X0130557Y0326832D01*
X0130623Y0326892D01*
X0130690Y0326948D01*
X0130761Y0327002D01*
X0130833Y0327052D01*
X0130908Y0327099D01*
X0130985Y0327143D01*
X0131064Y0327183D01*
X0131144Y0327220D01*
X0131226Y0327252D01*
X0131310Y0327282D01*
X0131394Y0327307D01*
X0131480Y0327329D01*
X0131566Y0327346D01*
X0131654Y0327360D01*
X0131742Y0327370D01*
X0131830Y0327376D01*
X0131918Y0327378D01*
X0132006Y0327376D01*
X0132094Y0327370D01*
X0132182Y0327360D01*
X0132270Y0327346D01*
X0132356Y0327329D01*
X0132442Y0327307D01*
X0132526Y0327282D01*
X0132610Y0327252D01*
X0132692Y0327220D01*
X0132772Y0327183D01*
X0132851Y0327143D01*
X0132928Y0327099D01*
X0133003Y0327052D01*
X0133075Y0327002D01*
X0133146Y0326948D01*
X0133213Y0326892D01*
X0133279Y0326832D01*
X0133341Y0326770D01*
X0133401Y0326704D01*
X0133457Y0326637D01*
X0133511Y0326566D01*
X0133561Y0326494D01*
X0133608Y0326419D01*
X0133652Y0326342D01*
X0133692Y0326263D01*
X0133729Y0326183D01*
X0133761Y0326101D01*
X0133791Y0326017D01*
X0133816Y0325933D01*
X0133838Y0325847D01*
X0133855Y0325761D01*
X0133869Y0325673D01*
X0133879Y0325585D01*
X0133885Y0325497D01*
X0133887Y0325409D01*
X0133885Y0325321D01*
X0133879Y0325233D01*
X0133869Y0325145D01*
X0133855Y0325057D01*
X0133838Y0324971D01*
X0133816Y0324885D01*
X0133791Y0324801D01*
X0133761Y0324717D01*
X0133729Y0324635D01*
X0133692Y0324555D01*
X0133652Y0324476D01*
X0133608Y0324399D01*
X0133561Y0324324D01*
X0133511Y0324252D01*
X0133457Y0324181D01*
X0133401Y0324114D01*
X0133341Y0324048D01*
X0133279Y0323986D01*
X0133213Y0323926D01*
X0133146Y0323870D01*
X0133075Y0323816D01*
X0133003Y0323766D01*
X0132928Y0323719D01*
X0132851Y0323675D01*
X0132772Y0323635D01*
X0132692Y0323598D01*
X0132610Y0323566D01*
X0132526Y0323536D01*
X0132442Y0323511D01*
X0132356Y0323489D01*
X0132270Y0323472D01*
X0132182Y0323458D01*
X0132094Y0323448D01*
X0132006Y0323442D01*
X0131918Y0323440D01*
X0131830Y0323442D01*
X0131742Y0323448D01*
X0131654Y0323458D01*
X0131566Y0323472D01*
X0131480Y0323489D01*
X0131394Y0323511D01*
X0131310Y0323536D01*
X0131226Y0323566D01*
X0131144Y0323598D01*
X0131064Y0323635D01*
X0130985Y0323675D01*
X0130908Y0323719D01*
X0130833Y0323766D01*
X0130761Y0323816D01*
X0130690Y0323870D01*
X0130623Y0323926D01*
X0130557Y0323986D01*
X0130495Y0324048D01*
X0130435Y0324114D01*
X0130379Y0324181D01*
X0130325Y0324252D01*
X0130275Y0324324D01*
X0130228Y0324399D01*
X0130184Y0324476D01*
X0130144Y0324555D01*
X0130107Y0324635D01*
X0130075Y0324717D01*
X0130045Y0324801D01*
X0130020Y0324885D01*
X0129998Y0324971D01*
X0129981Y0325057D01*
X0129967Y0325145D01*
X0129957Y0325233D01*
X0129951Y0325321D01*
X0129949Y0325409D01*
X0154749Y0348336D02*
X0154749Y0374136D01*
X0167749Y0374136D01*
X0167749Y0348336D01*
X0154749Y0348336D01*
X0228374Y0325409D02*
X0228376Y0325497D01*
X0228382Y0325585D01*
X0228392Y0325673D01*
X0228406Y0325761D01*
X0228423Y0325847D01*
X0228445Y0325933D01*
X0228470Y0326017D01*
X0228500Y0326101D01*
X0228532Y0326183D01*
X0228569Y0326263D01*
X0228609Y0326342D01*
X0228653Y0326419D01*
X0228700Y0326494D01*
X0228750Y0326566D01*
X0228804Y0326637D01*
X0228860Y0326704D01*
X0228920Y0326770D01*
X0228982Y0326832D01*
X0229048Y0326892D01*
X0229115Y0326948D01*
X0229186Y0327002D01*
X0229258Y0327052D01*
X0229333Y0327099D01*
X0229410Y0327143D01*
X0229489Y0327183D01*
X0229569Y0327220D01*
X0229651Y0327252D01*
X0229735Y0327282D01*
X0229819Y0327307D01*
X0229905Y0327329D01*
X0229991Y0327346D01*
X0230079Y0327360D01*
X0230167Y0327370D01*
X0230255Y0327376D01*
X0230343Y0327378D01*
X0230431Y0327376D01*
X0230519Y0327370D01*
X0230607Y0327360D01*
X0230695Y0327346D01*
X0230781Y0327329D01*
X0230867Y0327307D01*
X0230951Y0327282D01*
X0231035Y0327252D01*
X0231117Y0327220D01*
X0231197Y0327183D01*
X0231276Y0327143D01*
X0231353Y0327099D01*
X0231428Y0327052D01*
X0231500Y0327002D01*
X0231571Y0326948D01*
X0231638Y0326892D01*
X0231704Y0326832D01*
X0231766Y0326770D01*
X0231826Y0326704D01*
X0231882Y0326637D01*
X0231936Y0326566D01*
X0231986Y0326494D01*
X0232033Y0326419D01*
X0232077Y0326342D01*
X0232117Y0326263D01*
X0232154Y0326183D01*
X0232186Y0326101D01*
X0232216Y0326017D01*
X0232241Y0325933D01*
X0232263Y0325847D01*
X0232280Y0325761D01*
X0232294Y0325673D01*
X0232304Y0325585D01*
X0232310Y0325497D01*
X0232312Y0325409D01*
X0232310Y0325321D01*
X0232304Y0325233D01*
X0232294Y0325145D01*
X0232280Y0325057D01*
X0232263Y0324971D01*
X0232241Y0324885D01*
X0232216Y0324801D01*
X0232186Y0324717D01*
X0232154Y0324635D01*
X0232117Y0324555D01*
X0232077Y0324476D01*
X0232033Y0324399D01*
X0231986Y0324324D01*
X0231936Y0324252D01*
X0231882Y0324181D01*
X0231826Y0324114D01*
X0231766Y0324048D01*
X0231704Y0323986D01*
X0231638Y0323926D01*
X0231571Y0323870D01*
X0231500Y0323816D01*
X0231428Y0323766D01*
X0231353Y0323719D01*
X0231276Y0323675D01*
X0231197Y0323635D01*
X0231117Y0323598D01*
X0231035Y0323566D01*
X0230951Y0323536D01*
X0230867Y0323511D01*
X0230781Y0323489D01*
X0230695Y0323472D01*
X0230607Y0323458D01*
X0230519Y0323448D01*
X0230431Y0323442D01*
X0230343Y0323440D01*
X0230255Y0323442D01*
X0230167Y0323448D01*
X0230079Y0323458D01*
X0229991Y0323472D01*
X0229905Y0323489D01*
X0229819Y0323511D01*
X0229735Y0323536D01*
X0229651Y0323566D01*
X0229569Y0323598D01*
X0229489Y0323635D01*
X0229410Y0323675D01*
X0229333Y0323719D01*
X0229258Y0323766D01*
X0229186Y0323816D01*
X0229115Y0323870D01*
X0229048Y0323926D01*
X0228982Y0323986D01*
X0228920Y0324048D01*
X0228860Y0324114D01*
X0228804Y0324181D01*
X0228750Y0324252D01*
X0228700Y0324324D01*
X0228653Y0324399D01*
X0228609Y0324476D01*
X0228569Y0324555D01*
X0228532Y0324635D01*
X0228500Y0324717D01*
X0228470Y0324801D01*
X0228445Y0324885D01*
X0228423Y0324971D01*
X0228406Y0325057D01*
X0228392Y0325145D01*
X0228382Y0325233D01*
X0228376Y0325321D01*
X0228374Y0325409D01*
X0253174Y0348336D02*
X0253174Y0374136D01*
X0266174Y0374136D01*
X0266174Y0348336D01*
X0253174Y0348336D01*
X0324831Y0325409D02*
X0324833Y0325497D01*
X0324839Y0325585D01*
X0324849Y0325673D01*
X0324863Y0325761D01*
X0324880Y0325847D01*
X0324902Y0325933D01*
X0324927Y0326017D01*
X0324957Y0326101D01*
X0324989Y0326183D01*
X0325026Y0326263D01*
X0325066Y0326342D01*
X0325110Y0326419D01*
X0325157Y0326494D01*
X0325207Y0326566D01*
X0325261Y0326637D01*
X0325317Y0326704D01*
X0325377Y0326770D01*
X0325439Y0326832D01*
X0325505Y0326892D01*
X0325572Y0326948D01*
X0325643Y0327002D01*
X0325715Y0327052D01*
X0325790Y0327099D01*
X0325867Y0327143D01*
X0325946Y0327183D01*
X0326026Y0327220D01*
X0326108Y0327252D01*
X0326192Y0327282D01*
X0326276Y0327307D01*
X0326362Y0327329D01*
X0326448Y0327346D01*
X0326536Y0327360D01*
X0326624Y0327370D01*
X0326712Y0327376D01*
X0326800Y0327378D01*
X0326888Y0327376D01*
X0326976Y0327370D01*
X0327064Y0327360D01*
X0327152Y0327346D01*
X0327238Y0327329D01*
X0327324Y0327307D01*
X0327408Y0327282D01*
X0327492Y0327252D01*
X0327574Y0327220D01*
X0327654Y0327183D01*
X0327733Y0327143D01*
X0327810Y0327099D01*
X0327885Y0327052D01*
X0327957Y0327002D01*
X0328028Y0326948D01*
X0328095Y0326892D01*
X0328161Y0326832D01*
X0328223Y0326770D01*
X0328283Y0326704D01*
X0328339Y0326637D01*
X0328393Y0326566D01*
X0328443Y0326494D01*
X0328490Y0326419D01*
X0328534Y0326342D01*
X0328574Y0326263D01*
X0328611Y0326183D01*
X0328643Y0326101D01*
X0328673Y0326017D01*
X0328698Y0325933D01*
X0328720Y0325847D01*
X0328737Y0325761D01*
X0328751Y0325673D01*
X0328761Y0325585D01*
X0328767Y0325497D01*
X0328769Y0325409D01*
X0328767Y0325321D01*
X0328761Y0325233D01*
X0328751Y0325145D01*
X0328737Y0325057D01*
X0328720Y0324971D01*
X0328698Y0324885D01*
X0328673Y0324801D01*
X0328643Y0324717D01*
X0328611Y0324635D01*
X0328574Y0324555D01*
X0328534Y0324476D01*
X0328490Y0324399D01*
X0328443Y0324324D01*
X0328393Y0324252D01*
X0328339Y0324181D01*
X0328283Y0324114D01*
X0328223Y0324048D01*
X0328161Y0323986D01*
X0328095Y0323926D01*
X0328028Y0323870D01*
X0327957Y0323816D01*
X0327885Y0323766D01*
X0327810Y0323719D01*
X0327733Y0323675D01*
X0327654Y0323635D01*
X0327574Y0323598D01*
X0327492Y0323566D01*
X0327408Y0323536D01*
X0327324Y0323511D01*
X0327238Y0323489D01*
X0327152Y0323472D01*
X0327064Y0323458D01*
X0326976Y0323448D01*
X0326888Y0323442D01*
X0326800Y0323440D01*
X0326712Y0323442D01*
X0326624Y0323448D01*
X0326536Y0323458D01*
X0326448Y0323472D01*
X0326362Y0323489D01*
X0326276Y0323511D01*
X0326192Y0323536D01*
X0326108Y0323566D01*
X0326026Y0323598D01*
X0325946Y0323635D01*
X0325867Y0323675D01*
X0325790Y0323719D01*
X0325715Y0323766D01*
X0325643Y0323816D01*
X0325572Y0323870D01*
X0325505Y0323926D01*
X0325439Y0323986D01*
X0325377Y0324048D01*
X0325317Y0324114D01*
X0325261Y0324181D01*
X0325207Y0324252D01*
X0325157Y0324324D01*
X0325110Y0324399D01*
X0325066Y0324476D01*
X0325026Y0324555D01*
X0324989Y0324635D01*
X0324957Y0324717D01*
X0324927Y0324801D01*
X0324902Y0324885D01*
X0324880Y0324971D01*
X0324863Y0325057D01*
X0324849Y0325145D01*
X0324839Y0325233D01*
X0324833Y0325321D01*
X0324831Y0325409D01*
X0349631Y0348336D02*
X0349631Y0374136D01*
X0362631Y0374136D01*
X0362631Y0348336D01*
X0349631Y0348336D01*
D17*
X0327936Y0078631D02*
X0328187Y0078380D01*
X0328187Y0077880D01*
X0327936Y0077630D01*
X0327686Y0077157D02*
X0326685Y0077157D01*
X0326936Y0077630D02*
X0326685Y0077880D01*
X0326685Y0078380D01*
X0326936Y0078631D01*
X0327186Y0078631D01*
X0327436Y0078380D01*
X0327686Y0078631D01*
X0327936Y0078631D01*
X0327436Y0078380D02*
X0327436Y0078130D01*
X0327686Y0077157D02*
X0328187Y0076657D01*
X0327686Y0076157D01*
X0326685Y0076157D01*
X0326936Y0075684D02*
X0327186Y0075684D01*
X0327436Y0075434D01*
X0327686Y0075684D01*
X0327936Y0075684D01*
X0328187Y0075434D01*
X0328187Y0074934D01*
X0327936Y0074683D01*
X0327436Y0074211D02*
X0327436Y0073210D01*
X0326936Y0072738D02*
X0327936Y0071737D01*
X0328187Y0071737D01*
X0328187Y0071264D02*
X0328187Y0070264D01*
X0328187Y0069791D02*
X0328187Y0068790D01*
X0328187Y0068318D02*
X0328187Y0067317D01*
X0328187Y0067817D02*
X0326685Y0067817D01*
X0327186Y0067317D01*
X0326936Y0066845D02*
X0326685Y0066594D01*
X0326685Y0066094D01*
X0326936Y0065844D01*
X0327186Y0065844D01*
X0327436Y0066094D01*
X0327436Y0066594D01*
X0327686Y0066845D01*
X0327936Y0066845D01*
X0328187Y0066594D01*
X0328187Y0066094D01*
X0327936Y0065844D01*
X0328187Y0065371D02*
X0326685Y0065371D01*
X0327186Y0064871D01*
X0326685Y0064371D01*
X0328187Y0064371D01*
X0328187Y0063898D02*
X0327186Y0063898D01*
X0326685Y0063398D01*
X0327186Y0062897D01*
X0328187Y0062897D01*
X0327436Y0062897D02*
X0327436Y0063898D01*
X0327186Y0068790D02*
X0326685Y0069291D01*
X0328187Y0069291D01*
X0327186Y0070264D02*
X0326685Y0070764D01*
X0328187Y0070764D01*
X0326685Y0071737D02*
X0326685Y0072738D01*
X0326936Y0072738D01*
X0326936Y0074683D02*
X0326685Y0074934D01*
X0326685Y0075434D01*
X0326936Y0075684D01*
X0327436Y0075434D02*
X0327436Y0075184D01*
X0292815Y0074944D02*
X0292815Y0073943D01*
X0291814Y0074944D01*
X0291564Y0074944D01*
X0291313Y0074694D01*
X0291313Y0074193D01*
X0291564Y0073943D01*
X0291564Y0073470D02*
X0291313Y0073220D01*
X0291313Y0072720D01*
X0291564Y0072470D01*
X0292564Y0072470D01*
X0292815Y0072720D01*
X0292815Y0073220D01*
X0292564Y0073470D01*
X0364148Y0070506D02*
X0365649Y0070506D01*
X0365649Y0070006D02*
X0365649Y0071007D01*
X0364648Y0070006D02*
X0364148Y0070506D01*
X0364398Y0069533D02*
X0364148Y0069283D01*
X0364148Y0068783D01*
X0364398Y0068533D01*
X0365399Y0068533D01*
X0365649Y0068783D01*
X0365649Y0069283D01*
X0365399Y0069533D01*
D18*
X0364054Y0041495D02*
X0364905Y0040645D01*
X0364905Y0039794D01*
X0364054Y0038943D01*
X0364905Y0038092D01*
X0364905Y0037242D01*
X0364054Y0036391D01*
X0362353Y0036391D01*
X0361502Y0037242D01*
X0363203Y0038943D02*
X0364054Y0038943D01*
X0364054Y0041495D02*
X0362353Y0041495D01*
X0361502Y0040645D01*
X0367027Y0040645D02*
X0367877Y0041495D01*
X0369579Y0041495D01*
X0370430Y0040645D01*
X0370430Y0039794D01*
X0367027Y0036391D01*
X0370430Y0036391D01*
X0340902Y0037242D02*
X0340051Y0036391D01*
X0338350Y0036391D01*
X0337499Y0037242D01*
X0337499Y0038943D02*
X0339201Y0039794D01*
X0340051Y0039794D01*
X0340902Y0038943D01*
X0340902Y0037242D01*
X0337499Y0038943D02*
X0337499Y0041495D01*
X0340902Y0041495D01*
X0335377Y0040645D02*
X0335377Y0039794D01*
X0334527Y0038943D01*
X0335377Y0038092D01*
X0335377Y0037242D01*
X0334527Y0036391D01*
X0332825Y0036391D01*
X0331974Y0037242D01*
X0333676Y0038943D02*
X0334527Y0038943D01*
X0335377Y0040645D02*
X0334527Y0041495D01*
X0332825Y0041495D01*
X0331974Y0040645D01*
X0272004Y0040645D02*
X0268601Y0037242D01*
X0269452Y0036391D01*
X0271154Y0036391D01*
X0272004Y0037242D01*
X0272004Y0040645D01*
X0271154Y0041495D01*
X0269452Y0041495D01*
X0268601Y0040645D01*
X0268601Y0037242D01*
X0266480Y0038943D02*
X0263077Y0038943D01*
X0265629Y0041495D01*
X0265629Y0036391D01*
X0222792Y0037242D02*
X0221941Y0036391D01*
X0220240Y0036391D01*
X0219389Y0037242D01*
X0219389Y0038943D02*
X0221090Y0039794D01*
X0221941Y0039794D01*
X0222792Y0038943D01*
X0222792Y0037242D01*
X0219389Y0038943D02*
X0219389Y0041495D01*
X0222792Y0041495D01*
X0217267Y0038943D02*
X0213864Y0038943D01*
X0216416Y0041495D01*
X0216416Y0036391D01*
X0173579Y0037242D02*
X0172728Y0036391D01*
X0171027Y0036391D01*
X0170176Y0037242D01*
X0173579Y0040645D01*
X0173579Y0037242D01*
X0173579Y0040645D02*
X0172728Y0041495D01*
X0171027Y0041495D01*
X0170176Y0040645D01*
X0170176Y0037242D01*
X0168054Y0037242D02*
X0167204Y0036391D01*
X0165502Y0036391D01*
X0164652Y0037242D01*
X0164652Y0038943D02*
X0166353Y0039794D01*
X0167204Y0039794D01*
X0168054Y0038943D01*
X0168054Y0037242D01*
X0164652Y0038943D02*
X0164652Y0041495D01*
X0168054Y0041495D01*
X0124367Y0041495D02*
X0120964Y0041495D01*
X0120964Y0038943D01*
X0122665Y0039794D01*
X0123516Y0039794D01*
X0124367Y0038943D01*
X0124367Y0037242D01*
X0123516Y0036391D01*
X0121814Y0036391D01*
X0120964Y0037242D01*
X0118842Y0037242D02*
X0117991Y0036391D01*
X0116290Y0036391D01*
X0115439Y0037242D01*
X0115439Y0038943D02*
X0117140Y0039794D01*
X0117991Y0039794D01*
X0118842Y0038943D01*
X0118842Y0037242D01*
X0115439Y0038943D02*
X0115439Y0041495D01*
X0118842Y0041495D01*
X0065311Y0040645D02*
X0065311Y0037242D01*
X0064461Y0036391D01*
X0062759Y0036391D01*
X0061909Y0037242D01*
X0062759Y0038943D02*
X0065311Y0038943D01*
X0065311Y0040645D02*
X0064461Y0041495D01*
X0062759Y0041495D01*
X0061909Y0040645D01*
X0061909Y0039794D01*
X0062759Y0038943D01*
X0059787Y0038943D02*
X0059787Y0037242D01*
X0058936Y0036391D01*
X0057235Y0036391D01*
X0056384Y0037242D01*
X0056384Y0038943D02*
X0058085Y0039794D01*
X0058936Y0039794D01*
X0059787Y0038943D01*
X0059787Y0041495D02*
X0056384Y0041495D01*
X0056384Y0038943D01*
X0035784Y0039794D02*
X0035784Y0040645D01*
X0034933Y0041495D01*
X0033232Y0041495D01*
X0032381Y0040645D01*
X0030259Y0041495D02*
X0028558Y0040645D01*
X0026856Y0038943D01*
X0029408Y0038943D01*
X0030259Y0038092D01*
X0030259Y0037242D01*
X0029408Y0036391D01*
X0027707Y0036391D01*
X0026856Y0037242D01*
X0026856Y0038943D01*
X0032381Y0036391D02*
X0035784Y0039794D01*
X0035784Y0036391D02*
X0032381Y0036391D01*
D19*
X0374812Y0062319D02*
X0374814Y0062410D01*
X0374820Y0062500D01*
X0374830Y0062591D01*
X0374844Y0062680D01*
X0374862Y0062769D01*
X0374883Y0062858D01*
X0374909Y0062945D01*
X0374938Y0063031D01*
X0374972Y0063115D01*
X0375008Y0063198D01*
X0375049Y0063280D01*
X0375093Y0063359D01*
X0375140Y0063437D01*
X0375191Y0063512D01*
X0375245Y0063585D01*
X0375302Y0063655D01*
X0375362Y0063723D01*
X0375425Y0063789D01*
X0375491Y0063851D01*
X0375560Y0063910D01*
X0375631Y0063967D01*
X0375705Y0064020D01*
X0375781Y0064070D01*
X0375859Y0064117D01*
X0375939Y0064160D01*
X0376020Y0064199D01*
X0376104Y0064235D01*
X0376189Y0064267D01*
X0376275Y0064296D01*
X0376362Y0064320D01*
X0376451Y0064341D01*
X0376540Y0064358D01*
X0376630Y0064371D01*
X0376720Y0064380D01*
X0376811Y0064385D01*
X0376902Y0064386D01*
X0376992Y0064383D01*
X0377083Y0064376D01*
X0377173Y0064365D01*
X0377263Y0064350D01*
X0377352Y0064331D01*
X0377440Y0064309D01*
X0377526Y0064282D01*
X0377612Y0064252D01*
X0377696Y0064218D01*
X0377779Y0064180D01*
X0377860Y0064139D01*
X0377939Y0064094D01*
X0378016Y0064045D01*
X0378090Y0063994D01*
X0378163Y0063939D01*
X0378233Y0063881D01*
X0378300Y0063820D01*
X0378364Y0063756D01*
X0378426Y0063690D01*
X0378485Y0063620D01*
X0378540Y0063549D01*
X0378593Y0063474D01*
X0378642Y0063398D01*
X0378688Y0063320D01*
X0378730Y0063239D01*
X0378769Y0063157D01*
X0378804Y0063073D01*
X0378835Y0062988D01*
X0378862Y0062901D01*
X0378886Y0062814D01*
X0378906Y0062725D01*
X0378922Y0062636D01*
X0378934Y0062546D01*
X0378942Y0062455D01*
X0378946Y0062364D01*
X0378946Y0062274D01*
X0378942Y0062183D01*
X0378934Y0062092D01*
X0378922Y0062002D01*
X0378906Y0061913D01*
X0378886Y0061824D01*
X0378862Y0061737D01*
X0378835Y0061650D01*
X0378804Y0061565D01*
X0378769Y0061481D01*
X0378730Y0061399D01*
X0378688Y0061318D01*
X0378642Y0061240D01*
X0378593Y0061164D01*
X0378540Y0061089D01*
X0378485Y0061018D01*
X0378426Y0060948D01*
X0378364Y0060882D01*
X0378300Y0060818D01*
X0378233Y0060757D01*
X0378163Y0060699D01*
X0378090Y0060644D01*
X0378016Y0060593D01*
X0377939Y0060544D01*
X0377860Y0060499D01*
X0377779Y0060458D01*
X0377696Y0060420D01*
X0377612Y0060386D01*
X0377526Y0060356D01*
X0377440Y0060329D01*
X0377352Y0060307D01*
X0377263Y0060288D01*
X0377173Y0060273D01*
X0377083Y0060262D01*
X0376992Y0060255D01*
X0376902Y0060252D01*
X0376811Y0060253D01*
X0376720Y0060258D01*
X0376630Y0060267D01*
X0376540Y0060280D01*
X0376451Y0060297D01*
X0376362Y0060318D01*
X0376275Y0060342D01*
X0376189Y0060371D01*
X0376104Y0060403D01*
X0376020Y0060439D01*
X0375939Y0060478D01*
X0375859Y0060521D01*
X0375781Y0060568D01*
X0375705Y0060618D01*
X0375631Y0060671D01*
X0375560Y0060728D01*
X0375491Y0060787D01*
X0375425Y0060849D01*
X0375362Y0060915D01*
X0375302Y0060983D01*
X0375245Y0061053D01*
X0375191Y0061126D01*
X0375140Y0061201D01*
X0375093Y0061279D01*
X0375049Y0061358D01*
X0375008Y0061440D01*
X0374972Y0061523D01*
X0374938Y0061607D01*
X0374909Y0061693D01*
X0374883Y0061780D01*
X0374862Y0061869D01*
X0374844Y0061958D01*
X0374830Y0062047D01*
X0374820Y0062138D01*
X0374814Y0062228D01*
X0374812Y0062319D01*
X0374812Y0081413D02*
X0374814Y0081504D01*
X0374820Y0081594D01*
X0374830Y0081685D01*
X0374844Y0081774D01*
X0374862Y0081863D01*
X0374883Y0081952D01*
X0374909Y0082039D01*
X0374938Y0082125D01*
X0374972Y0082209D01*
X0375008Y0082292D01*
X0375049Y0082374D01*
X0375093Y0082453D01*
X0375140Y0082531D01*
X0375191Y0082606D01*
X0375245Y0082679D01*
X0375302Y0082749D01*
X0375362Y0082817D01*
X0375425Y0082883D01*
X0375491Y0082945D01*
X0375560Y0083004D01*
X0375631Y0083061D01*
X0375705Y0083114D01*
X0375781Y0083164D01*
X0375859Y0083211D01*
X0375939Y0083254D01*
X0376020Y0083293D01*
X0376104Y0083329D01*
X0376189Y0083361D01*
X0376275Y0083390D01*
X0376362Y0083414D01*
X0376451Y0083435D01*
X0376540Y0083452D01*
X0376630Y0083465D01*
X0376720Y0083474D01*
X0376811Y0083479D01*
X0376902Y0083480D01*
X0376992Y0083477D01*
X0377083Y0083470D01*
X0377173Y0083459D01*
X0377263Y0083444D01*
X0377352Y0083425D01*
X0377440Y0083403D01*
X0377526Y0083376D01*
X0377612Y0083346D01*
X0377696Y0083312D01*
X0377779Y0083274D01*
X0377860Y0083233D01*
X0377939Y0083188D01*
X0378016Y0083139D01*
X0378090Y0083088D01*
X0378163Y0083033D01*
X0378233Y0082975D01*
X0378300Y0082914D01*
X0378364Y0082850D01*
X0378426Y0082784D01*
X0378485Y0082714D01*
X0378540Y0082643D01*
X0378593Y0082568D01*
X0378642Y0082492D01*
X0378688Y0082414D01*
X0378730Y0082333D01*
X0378769Y0082251D01*
X0378804Y0082167D01*
X0378835Y0082082D01*
X0378862Y0081995D01*
X0378886Y0081908D01*
X0378906Y0081819D01*
X0378922Y0081730D01*
X0378934Y0081640D01*
X0378942Y0081549D01*
X0378946Y0081458D01*
X0378946Y0081368D01*
X0378942Y0081277D01*
X0378934Y0081186D01*
X0378922Y0081096D01*
X0378906Y0081007D01*
X0378886Y0080918D01*
X0378862Y0080831D01*
X0378835Y0080744D01*
X0378804Y0080659D01*
X0378769Y0080575D01*
X0378730Y0080493D01*
X0378688Y0080412D01*
X0378642Y0080334D01*
X0378593Y0080258D01*
X0378540Y0080183D01*
X0378485Y0080112D01*
X0378426Y0080042D01*
X0378364Y0079976D01*
X0378300Y0079912D01*
X0378233Y0079851D01*
X0378163Y0079793D01*
X0378090Y0079738D01*
X0378016Y0079687D01*
X0377939Y0079638D01*
X0377860Y0079593D01*
X0377779Y0079552D01*
X0377696Y0079514D01*
X0377612Y0079480D01*
X0377526Y0079450D01*
X0377440Y0079423D01*
X0377352Y0079401D01*
X0377263Y0079382D01*
X0377173Y0079367D01*
X0377083Y0079356D01*
X0376992Y0079349D01*
X0376902Y0079346D01*
X0376811Y0079347D01*
X0376720Y0079352D01*
X0376630Y0079361D01*
X0376540Y0079374D01*
X0376451Y0079391D01*
X0376362Y0079412D01*
X0376275Y0079436D01*
X0376189Y0079465D01*
X0376104Y0079497D01*
X0376020Y0079533D01*
X0375939Y0079572D01*
X0375859Y0079615D01*
X0375781Y0079662D01*
X0375705Y0079712D01*
X0375631Y0079765D01*
X0375560Y0079822D01*
X0375491Y0079881D01*
X0375425Y0079943D01*
X0375362Y0080009D01*
X0375302Y0080077D01*
X0375245Y0080147D01*
X0375191Y0080220D01*
X0375140Y0080295D01*
X0375093Y0080373D01*
X0375049Y0080452D01*
X0375008Y0080534D01*
X0374972Y0080617D01*
X0374938Y0080701D01*
X0374909Y0080787D01*
X0374883Y0080874D01*
X0374862Y0080963D01*
X0374844Y0081052D01*
X0374830Y0081141D01*
X0374820Y0081232D01*
X0374814Y0081322D01*
X0374812Y0081413D01*
M02*
