G75*
%MOIN*%
%OFA0B0*%
%FSLAX25Y25*%
%IPPOS*%
%LPD*%
%AMOC8*
5,1,8,0,0,1.08239X$1,22.5*
%
%ADD10C,0.00500*%
%ADD11C,0.01000*%
%ADD12C,0.00600*%
%ADD13C,0.00300*%
%ADD14C,0.02400*%
%ADD15C,0.00900*%
%ADD16C,0.00000*%
D10*
X0052280Y0087864D02*
X0051263Y0088882D01*
X0051263Y0090917D01*
X0052280Y0091934D01*
X0054315Y0091934D01*
X0054315Y0089899D01*
X0056350Y0087864D02*
X0052280Y0087864D01*
X0056350Y0087864D02*
X0057368Y0088882D01*
X0057368Y0090917D01*
X0056350Y0091934D01*
X0057368Y0093941D02*
X0051263Y0098012D01*
X0057368Y0098012D01*
X0057368Y0100019D02*
X0057368Y0103071D01*
X0056350Y0104089D01*
X0052280Y0104089D01*
X0051263Y0103071D01*
X0051263Y0100019D01*
X0057368Y0100019D01*
X0061163Y0098012D02*
X0061163Y0093941D01*
X0065233Y0098012D01*
X0066250Y0098012D01*
X0067268Y0096994D01*
X0067268Y0094959D01*
X0066250Y0093941D01*
X0066250Y0091934D02*
X0067268Y0090917D01*
X0067268Y0087864D01*
X0061163Y0087864D01*
X0061163Y0090917D01*
X0062180Y0091934D01*
X0066250Y0091934D01*
X0071063Y0090917D02*
X0072080Y0091934D01*
X0076150Y0091934D01*
X0077168Y0090917D01*
X0077168Y0087864D01*
X0071063Y0087864D01*
X0071063Y0090917D01*
X0071063Y0093941D02*
X0071063Y0098012D01*
X0071063Y0095976D02*
X0077168Y0095976D01*
X0075133Y0093941D01*
X0080963Y0094959D02*
X0081980Y0093941D01*
X0086050Y0098012D01*
X0081980Y0098012D01*
X0080963Y0096994D01*
X0080963Y0094959D01*
X0081980Y0093941D02*
X0086050Y0093941D01*
X0087068Y0094959D01*
X0087068Y0096994D01*
X0086050Y0098012D01*
X0090863Y0096994D02*
X0090863Y0094959D01*
X0091880Y0093941D01*
X0095950Y0098012D01*
X0091880Y0098012D01*
X0090863Y0096994D01*
X0091880Y0093941D02*
X0095950Y0093941D01*
X0096968Y0094959D01*
X0096968Y0096994D01*
X0095950Y0098012D01*
X0094933Y0091934D02*
X0090863Y0091934D01*
X0093915Y0091934D02*
X0093915Y0087864D01*
X0094933Y0087864D02*
X0096968Y0089899D01*
X0094933Y0091934D01*
X0094933Y0087864D02*
X0090863Y0087864D01*
X0087068Y0087864D02*
X0087068Y0090917D01*
X0086050Y0091934D01*
X0081980Y0091934D01*
X0080963Y0090917D01*
X0080963Y0087864D01*
X0087068Y0087864D01*
X0100763Y0087864D02*
X0104833Y0087864D01*
X0106868Y0089899D01*
X0104833Y0091934D01*
X0100763Y0091934D01*
X0100763Y0093941D02*
X0100763Y0098012D01*
X0100763Y0095976D02*
X0106868Y0095976D01*
X0104833Y0093941D01*
X0103815Y0091934D02*
X0103815Y0087864D01*
X0110663Y0087864D02*
X0114733Y0087864D01*
X0116768Y0089899D01*
X0114733Y0091934D01*
X0110663Y0091934D01*
X0110663Y0093941D02*
X0114733Y0098012D01*
X0115750Y0098012D01*
X0116768Y0096994D01*
X0116768Y0094959D01*
X0115750Y0093941D01*
X0113715Y0091934D02*
X0113715Y0087864D01*
X0110663Y0093941D02*
X0110663Y0098012D01*
X0120563Y0096994D02*
X0120563Y0094959D01*
X0121580Y0093941D01*
X0120563Y0091934D02*
X0124633Y0091934D01*
X0126668Y0089899D01*
X0124633Y0087864D01*
X0120563Y0087864D01*
X0123615Y0087864D02*
X0123615Y0091934D01*
X0125650Y0093941D02*
X0126668Y0094959D01*
X0126668Y0096994D01*
X0125650Y0098012D01*
X0124633Y0098012D01*
X0123615Y0096994D01*
X0122598Y0098012D01*
X0121580Y0098012D01*
X0120563Y0096994D01*
X0123615Y0096994D02*
X0123615Y0095976D01*
X0130463Y0096994D02*
X0136568Y0096994D01*
X0133515Y0093941D01*
X0133515Y0098012D01*
X0133515Y0091934D02*
X0133515Y0087864D01*
X0134533Y0087864D02*
X0136568Y0089899D01*
X0134533Y0091934D01*
X0130463Y0091934D01*
X0130463Y0087864D02*
X0134533Y0087864D01*
X0140363Y0087864D02*
X0144433Y0087864D01*
X0146468Y0089899D01*
X0144433Y0091934D01*
X0140363Y0091934D01*
X0141380Y0093941D02*
X0140363Y0094959D01*
X0140363Y0096994D01*
X0141380Y0098012D01*
X0143415Y0098012D01*
X0144433Y0096994D01*
X0144433Y0095976D01*
X0143415Y0093941D01*
X0146468Y0093941D01*
X0146468Y0098012D01*
X0150263Y0096994D02*
X0150263Y0094959D01*
X0151280Y0093941D01*
X0153315Y0093941D01*
X0153315Y0096994D01*
X0152298Y0098012D01*
X0151280Y0098012D01*
X0150263Y0096994D01*
X0153315Y0093941D02*
X0155350Y0095976D01*
X0156368Y0098012D01*
X0160163Y0093941D02*
X0161180Y0093941D01*
X0165250Y0098012D01*
X0166268Y0098012D01*
X0166268Y0093941D01*
X0164233Y0091934D02*
X0160163Y0091934D01*
X0163215Y0091934D02*
X0163215Y0087864D01*
X0164233Y0087864D02*
X0160163Y0087864D01*
X0156368Y0089899D02*
X0154333Y0091934D01*
X0150263Y0091934D01*
X0153315Y0091934D02*
X0153315Y0087864D01*
X0154333Y0087864D02*
X0156368Y0089899D01*
X0154333Y0087864D02*
X0150263Y0087864D01*
X0143415Y0087864D02*
X0143415Y0091934D01*
X0164233Y0091934D02*
X0166268Y0089899D01*
X0164233Y0087864D01*
X0170063Y0087864D02*
X0174133Y0087864D01*
X0176168Y0089899D01*
X0174133Y0091934D01*
X0170063Y0091934D01*
X0170063Y0093941D02*
X0170063Y0098012D01*
X0170063Y0100019D02*
X0174133Y0104089D01*
X0175150Y0104089D01*
X0176168Y0103071D01*
X0176168Y0101036D01*
X0175150Y0100019D01*
X0176168Y0095976D02*
X0170063Y0095976D01*
X0170063Y0100019D02*
X0170063Y0104089D01*
X0179963Y0103071D02*
X0179963Y0101036D01*
X0180980Y0100019D01*
X0183015Y0100019D02*
X0184033Y0102054D01*
X0184033Y0103071D01*
X0183015Y0104089D01*
X0180980Y0104089D01*
X0179963Y0103071D01*
X0183015Y0100019D02*
X0186068Y0100019D01*
X0186068Y0104089D01*
X0189863Y0103071D02*
X0189863Y0101036D01*
X0190880Y0100019D01*
X0191898Y0100019D01*
X0192915Y0101036D01*
X0192915Y0103071D01*
X0191898Y0104089D01*
X0190880Y0104089D01*
X0189863Y0103071D01*
X0192915Y0103071D02*
X0193933Y0104089D01*
X0194950Y0104089D01*
X0195968Y0103071D01*
X0195968Y0101036D01*
X0194950Y0100019D01*
X0193933Y0100019D01*
X0192915Y0101036D01*
X0189863Y0098012D02*
X0189863Y0093941D01*
X0189863Y0091934D02*
X0193933Y0091934D01*
X0195968Y0089899D01*
X0193933Y0087864D01*
X0189863Y0087864D01*
X0192915Y0087864D02*
X0192915Y0091934D01*
X0193933Y0093941D02*
X0195968Y0095976D01*
X0189863Y0095976D01*
X0186068Y0095976D02*
X0179963Y0095976D01*
X0179963Y0093941D02*
X0179963Y0098012D01*
X0176168Y0095976D02*
X0174133Y0093941D01*
X0173115Y0091934D02*
X0173115Y0087864D01*
X0179963Y0087864D02*
X0184033Y0087864D01*
X0186068Y0089899D01*
X0184033Y0091934D01*
X0179963Y0091934D01*
X0183015Y0091934D02*
X0183015Y0087864D01*
X0184033Y0093941D02*
X0186068Y0095976D01*
X0199763Y0095976D02*
X0205868Y0095976D01*
X0203833Y0093941D01*
X0203833Y0091934D02*
X0199763Y0091934D01*
X0199763Y0093941D02*
X0199763Y0098012D01*
X0199763Y0100019D02*
X0200780Y0100019D01*
X0204850Y0104089D01*
X0205868Y0104089D01*
X0205868Y0100019D01*
X0209663Y0100019D02*
X0209663Y0104089D01*
X0209663Y0102054D02*
X0215768Y0102054D01*
X0213733Y0100019D01*
X0213733Y0098012D02*
X0214750Y0098012D01*
X0215768Y0096994D01*
X0215768Y0094959D01*
X0214750Y0093941D01*
X0213733Y0091934D02*
X0209663Y0091934D01*
X0209663Y0093941D02*
X0213733Y0098012D01*
X0209663Y0098012D02*
X0209663Y0093941D01*
X0212715Y0091934D02*
X0212715Y0087864D01*
X0213733Y0087864D02*
X0215768Y0089899D01*
X0213733Y0091934D01*
X0213733Y0087864D02*
X0209663Y0087864D01*
X0205868Y0089899D02*
X0203833Y0091934D01*
X0202815Y0091934D02*
X0202815Y0087864D01*
X0203833Y0087864D02*
X0205868Y0089899D01*
X0203833Y0087864D02*
X0199763Y0087864D01*
X0219563Y0087864D02*
X0223633Y0087864D01*
X0225668Y0089899D01*
X0223633Y0091934D01*
X0219563Y0091934D01*
X0219563Y0093941D02*
X0223633Y0098012D01*
X0224650Y0098012D01*
X0225668Y0096994D01*
X0225668Y0094959D01*
X0224650Y0093941D01*
X0222615Y0091934D02*
X0222615Y0087864D01*
X0219563Y0093941D02*
X0219563Y0098012D01*
X0220580Y0100019D02*
X0219563Y0101036D01*
X0219563Y0103071D01*
X0220580Y0104089D01*
X0224650Y0104089D01*
X0220580Y0100019D01*
X0224650Y0100019D01*
X0225668Y0101036D01*
X0225668Y0103071D01*
X0224650Y0104089D01*
X0225865Y0120738D02*
X0219759Y0120738D01*
X0221795Y0122773D01*
X0219759Y0124808D01*
X0225865Y0124808D01*
X0225865Y0126815D02*
X0219759Y0126815D01*
X0219759Y0130886D01*
X0222812Y0128850D02*
X0222812Y0126815D01*
X0225865Y0126815D02*
X0225865Y0130886D01*
X0215965Y0129868D02*
X0215965Y0127833D01*
X0214947Y0126815D01*
X0213930Y0124808D02*
X0209859Y0124808D01*
X0209859Y0126815D02*
X0213930Y0130886D01*
X0214947Y0130886D01*
X0215965Y0129868D01*
X0214947Y0132893D02*
X0215965Y0133910D01*
X0215965Y0135945D01*
X0214947Y0136963D01*
X0213930Y0136963D01*
X0209859Y0132893D01*
X0209859Y0136963D01*
X0209859Y0130886D02*
X0209859Y0126815D01*
X0212912Y0124808D02*
X0212912Y0120738D01*
X0213930Y0120738D02*
X0215965Y0122773D01*
X0213930Y0124808D01*
X0213930Y0120738D02*
X0209859Y0120738D01*
X0206065Y0120738D02*
X0206065Y0124808D01*
X0206065Y0126815D02*
X0201995Y0126815D01*
X0199959Y0128850D01*
X0201995Y0130886D01*
X0206065Y0130886D01*
X0203012Y0124808D02*
X0200977Y0124808D01*
X0199959Y0123791D01*
X0199959Y0121756D01*
X0200977Y0120738D01*
X0203012Y0120738D02*
X0204030Y0122773D01*
X0204030Y0123791D01*
X0203012Y0124808D01*
X0203012Y0120738D02*
X0206065Y0120738D01*
X0196165Y0121756D02*
X0195147Y0120738D01*
X0191077Y0120738D01*
X0190059Y0121756D01*
X0190059Y0123791D01*
X0191077Y0124808D01*
X0195147Y0124808D01*
X0196165Y0123791D01*
X0196165Y0121756D01*
X0196165Y0126815D02*
X0190059Y0126815D01*
X0190059Y0130886D01*
X0193112Y0128850D02*
X0193112Y0126815D01*
X0196165Y0126815D02*
X0196165Y0130886D01*
X0186265Y0128850D02*
X0180159Y0128850D01*
X0180159Y0126815D02*
X0180159Y0130886D01*
X0181177Y0132893D02*
X0180159Y0133910D01*
X0180159Y0135945D01*
X0181177Y0136963D01*
X0185247Y0136963D01*
X0186265Y0135945D01*
X0186265Y0133910D01*
X0185247Y0132893D01*
X0184230Y0132893D01*
X0183212Y0133910D01*
X0183212Y0136963D01*
X0176365Y0135945D02*
X0173312Y0132893D01*
X0173312Y0136963D01*
X0170259Y0135945D02*
X0176365Y0135945D01*
X0176365Y0128850D02*
X0170259Y0128850D01*
X0170259Y0126815D02*
X0170259Y0130886D01*
X0166465Y0128850D02*
X0164430Y0126815D01*
X0164430Y0124808D02*
X0160359Y0124808D01*
X0160359Y0126815D02*
X0160359Y0130886D01*
X0160359Y0128850D02*
X0166465Y0128850D01*
X0165447Y0132893D02*
X0166465Y0133910D01*
X0166465Y0135945D01*
X0165447Y0136963D01*
X0164430Y0136963D01*
X0163412Y0135945D01*
X0162395Y0136963D01*
X0161377Y0136963D01*
X0160359Y0135945D01*
X0160359Y0133910D01*
X0161377Y0132893D01*
X0163412Y0134928D02*
X0163412Y0135945D01*
X0156565Y0129868D02*
X0155547Y0130886D01*
X0154530Y0130886D01*
X0153512Y0129868D01*
X0153512Y0127833D01*
X0154530Y0126815D01*
X0155547Y0126815D01*
X0156565Y0127833D01*
X0156565Y0129868D01*
X0153512Y0129868D02*
X0152495Y0130886D01*
X0151477Y0130886D01*
X0150459Y0129868D01*
X0150459Y0127833D01*
X0151477Y0126815D01*
X0152495Y0126815D01*
X0153512Y0127833D01*
X0153512Y0124808D02*
X0153512Y0120738D01*
X0154530Y0120738D02*
X0156565Y0122773D01*
X0154530Y0124808D01*
X0150459Y0124808D01*
X0150459Y0120738D02*
X0154530Y0120738D01*
X0160359Y0120738D02*
X0164430Y0120738D01*
X0166465Y0122773D01*
X0164430Y0124808D01*
X0163412Y0124808D02*
X0163412Y0120738D01*
X0170259Y0120738D02*
X0174330Y0120738D01*
X0176365Y0122773D01*
X0174330Y0124808D01*
X0170259Y0124808D01*
X0173312Y0124808D02*
X0173312Y0120738D01*
X0174330Y0126815D02*
X0176365Y0128850D01*
X0180159Y0124808D02*
X0184230Y0124808D01*
X0186265Y0122773D01*
X0184230Y0120738D01*
X0180159Y0120738D01*
X0183212Y0120738D02*
X0183212Y0124808D01*
X0184230Y0126815D02*
X0186265Y0128850D01*
X0146665Y0127833D02*
X0145647Y0126815D01*
X0144630Y0126815D01*
X0143612Y0127833D01*
X0143612Y0130886D01*
X0141577Y0130886D02*
X0145647Y0130886D01*
X0146665Y0129868D01*
X0146665Y0127833D01*
X0144630Y0124808D02*
X0140559Y0124808D01*
X0141577Y0126815D02*
X0140559Y0127833D01*
X0140559Y0129868D01*
X0141577Y0130886D01*
X0136765Y0128850D02*
X0130659Y0128850D01*
X0130659Y0126815D02*
X0130659Y0130886D01*
X0130659Y0132893D02*
X0130659Y0136963D01*
X0130659Y0134928D02*
X0136765Y0134928D01*
X0134730Y0132893D01*
X0136765Y0128850D02*
X0134730Y0126815D01*
X0134730Y0124808D02*
X0130659Y0124808D01*
X0133712Y0124808D02*
X0133712Y0120738D01*
X0134730Y0120738D02*
X0136765Y0122773D01*
X0134730Y0124808D01*
X0134730Y0120738D02*
X0130659Y0120738D01*
X0126865Y0122773D02*
X0124830Y0124808D01*
X0120759Y0124808D01*
X0120759Y0126815D02*
X0120759Y0130886D01*
X0120759Y0128850D02*
X0126865Y0128850D01*
X0124830Y0126815D01*
X0123812Y0124808D02*
X0123812Y0120738D01*
X0124830Y0120738D02*
X0120759Y0120738D01*
X0124830Y0120738D02*
X0126865Y0122773D01*
X0116965Y0122773D02*
X0114930Y0124808D01*
X0110859Y0124808D01*
X0110859Y0126815D02*
X0110859Y0130886D01*
X0110859Y0128850D02*
X0116965Y0128850D01*
X0114930Y0126815D01*
X0113912Y0124808D02*
X0113912Y0120738D01*
X0114930Y0120738D02*
X0116965Y0122773D01*
X0114930Y0120738D02*
X0110859Y0120738D01*
X0107065Y0121756D02*
X0107065Y0123791D01*
X0106047Y0124808D01*
X0107065Y0126815D02*
X0100959Y0126815D01*
X0100959Y0130886D01*
X0104012Y0128850D02*
X0104012Y0126815D01*
X0101977Y0124808D02*
X0100959Y0123791D01*
X0100959Y0121756D01*
X0101977Y0120738D01*
X0106047Y0120738D01*
X0107065Y0121756D01*
X0107065Y0126815D02*
X0107065Y0130886D01*
X0110859Y0133910D02*
X0111877Y0132893D01*
X0115947Y0136963D01*
X0111877Y0136963D01*
X0110859Y0135945D01*
X0110859Y0133910D01*
X0111877Y0132893D02*
X0115947Y0132893D01*
X0116965Y0133910D01*
X0116965Y0135945D01*
X0115947Y0136963D01*
X0120759Y0135945D02*
X0120759Y0133910D01*
X0121777Y0132893D01*
X0123812Y0132893D01*
X0123812Y0135945D01*
X0122795Y0136963D01*
X0121777Y0136963D01*
X0120759Y0135945D01*
X0123812Y0132893D02*
X0125847Y0134928D01*
X0126865Y0136963D01*
X0143612Y0124808D02*
X0143612Y0120738D01*
X0144630Y0120738D02*
X0140559Y0120738D01*
X0144630Y0120738D02*
X0146665Y0122773D01*
X0144630Y0124808D01*
X0097165Y0123791D02*
X0097165Y0120738D01*
X0091059Y0120738D01*
X0091059Y0123791D01*
X0092077Y0124808D01*
X0096147Y0124808D01*
X0097165Y0123791D01*
X0097165Y0126815D02*
X0097165Y0130886D01*
X0096147Y0130886D01*
X0092077Y0126815D01*
X0091059Y0126815D01*
X0087265Y0123791D02*
X0087265Y0120738D01*
X0081159Y0120738D01*
X0081159Y0123791D01*
X0082177Y0124808D01*
X0086247Y0124808D01*
X0087265Y0123791D01*
X0084212Y0126815D02*
X0084212Y0129868D01*
X0083195Y0130886D01*
X0082177Y0130886D01*
X0081159Y0129868D01*
X0081159Y0127833D01*
X0082177Y0126815D01*
X0084212Y0126815D01*
X0086247Y0128850D01*
X0087265Y0130886D01*
X0077365Y0130886D02*
X0077365Y0126815D01*
X0074312Y0126815D01*
X0075330Y0128850D01*
X0075330Y0129868D01*
X0074312Y0130886D01*
X0072277Y0130886D01*
X0071259Y0129868D01*
X0071259Y0127833D01*
X0072277Y0126815D01*
X0072277Y0124808D02*
X0076347Y0124808D01*
X0077365Y0123791D01*
X0077365Y0120738D01*
X0071259Y0120738D01*
X0071259Y0123791D01*
X0072277Y0124808D01*
X0067465Y0123791D02*
X0067465Y0120738D01*
X0061359Y0120738D01*
X0061359Y0123791D01*
X0062377Y0124808D01*
X0066447Y0124808D01*
X0067465Y0123791D01*
X0064412Y0126815D02*
X0064412Y0130886D01*
X0061359Y0129868D02*
X0067465Y0129868D01*
X0064412Y0126815D01*
X0057565Y0127833D02*
X0056547Y0126815D01*
X0057565Y0127833D02*
X0057565Y0129868D01*
X0056547Y0130886D01*
X0055530Y0130886D01*
X0054512Y0129868D01*
X0053495Y0130886D01*
X0052477Y0130886D01*
X0051459Y0129868D01*
X0051459Y0127833D01*
X0052477Y0126815D01*
X0052477Y0124808D02*
X0056547Y0124808D01*
X0057565Y0123791D01*
X0057565Y0120738D01*
X0051459Y0120738D01*
X0051459Y0123791D01*
X0052477Y0124808D01*
X0054512Y0128850D02*
X0054512Y0129868D01*
X0057368Y0093941D02*
X0051263Y0093941D01*
X0052179Y0218114D02*
X0049126Y0218114D01*
X0048109Y0219131D01*
X0048109Y0223201D01*
X0049126Y0224219D01*
X0052179Y0224219D01*
X0052179Y0218114D01*
X0054186Y0218114D02*
X0054186Y0224219D01*
X0055204Y0228014D02*
X0054186Y0229031D01*
X0054186Y0233101D01*
X0055204Y0234119D01*
X0058256Y0234119D01*
X0058256Y0228014D01*
X0055204Y0228014D01*
X0052179Y0228014D02*
X0048109Y0232084D01*
X0048109Y0233101D01*
X0049126Y0234119D01*
X0051162Y0234119D01*
X0052179Y0233101D01*
X0052179Y0237914D02*
X0048109Y0237914D01*
X0050144Y0237914D02*
X0050144Y0244019D01*
X0052179Y0241984D01*
X0054186Y0243001D02*
X0055204Y0244019D01*
X0058256Y0244019D01*
X0058256Y0237914D01*
X0055204Y0237914D01*
X0054186Y0238931D01*
X0054186Y0243001D01*
X0055204Y0247814D02*
X0054186Y0248831D01*
X0054186Y0252901D01*
X0055204Y0253919D01*
X0058256Y0253919D01*
X0058256Y0247814D01*
X0055204Y0247814D01*
X0052179Y0248831D02*
X0048109Y0252901D01*
X0048109Y0248831D01*
X0049126Y0247814D01*
X0051162Y0247814D01*
X0052179Y0248831D01*
X0052179Y0252901D01*
X0051162Y0253919D01*
X0049126Y0253919D01*
X0048109Y0252901D01*
X0049126Y0257714D02*
X0051162Y0257714D01*
X0052179Y0258731D01*
X0048109Y0262801D01*
X0048109Y0258731D01*
X0049126Y0257714D01*
X0052179Y0258731D02*
X0052179Y0262801D01*
X0051162Y0263819D01*
X0049126Y0263819D01*
X0048109Y0262801D01*
X0054186Y0261784D02*
X0054186Y0257714D01*
X0054186Y0260766D02*
X0058256Y0260766D01*
X0058256Y0261784D02*
X0056221Y0263819D01*
X0054186Y0261784D01*
X0058256Y0261784D02*
X0058256Y0257714D01*
X0058256Y0267614D02*
X0058256Y0271684D01*
X0056221Y0273719D01*
X0054186Y0271684D01*
X0054186Y0267614D01*
X0052179Y0267614D02*
X0048109Y0267614D01*
X0050144Y0267614D02*
X0050144Y0273719D01*
X0052179Y0271684D01*
X0054186Y0270666D02*
X0058256Y0270666D01*
X0058256Y0277514D02*
X0058256Y0281584D01*
X0056221Y0283619D01*
X0054186Y0281584D01*
X0054186Y0277514D01*
X0052179Y0277514D02*
X0048109Y0281584D01*
X0048109Y0282601D01*
X0049126Y0283619D01*
X0051162Y0283619D01*
X0052179Y0282601D01*
X0054186Y0280566D02*
X0058256Y0280566D01*
X0052179Y0277514D02*
X0048109Y0277514D01*
X0049126Y0287414D02*
X0051162Y0287414D01*
X0052179Y0288431D01*
X0054186Y0287414D02*
X0054186Y0291484D01*
X0056221Y0293519D01*
X0058256Y0291484D01*
X0058256Y0287414D01*
X0058256Y0290466D02*
X0054186Y0290466D01*
X0052179Y0292501D02*
X0051162Y0293519D01*
X0049126Y0293519D01*
X0048109Y0292501D01*
X0048109Y0291484D01*
X0049126Y0290466D01*
X0048109Y0289449D01*
X0048109Y0288431D01*
X0049126Y0287414D01*
X0049126Y0290466D02*
X0050144Y0290466D01*
X0049126Y0297314D02*
X0049126Y0303419D01*
X0052179Y0300366D01*
X0048109Y0300366D01*
X0054186Y0300366D02*
X0058256Y0300366D01*
X0058256Y0301384D02*
X0056221Y0303419D01*
X0054186Y0301384D01*
X0054186Y0297314D01*
X0058256Y0297314D02*
X0058256Y0301384D01*
X0058256Y0307214D02*
X0058256Y0311284D01*
X0056221Y0313319D01*
X0054186Y0311284D01*
X0054186Y0307214D01*
X0052179Y0308231D02*
X0051162Y0307214D01*
X0049126Y0307214D01*
X0048109Y0308231D01*
X0048109Y0310266D01*
X0049126Y0311284D01*
X0050144Y0311284D01*
X0052179Y0310266D01*
X0052179Y0313319D01*
X0048109Y0313319D01*
X0049126Y0317114D02*
X0048109Y0318131D01*
X0048109Y0319149D01*
X0049126Y0320166D01*
X0052179Y0320166D01*
X0052179Y0318131D01*
X0051162Y0317114D01*
X0049126Y0317114D01*
X0052179Y0320166D02*
X0050144Y0322201D01*
X0048109Y0323219D01*
X0052179Y0327014D02*
X0052179Y0328031D01*
X0048109Y0332101D01*
X0048109Y0333119D01*
X0052179Y0333119D01*
X0054186Y0331084D02*
X0054186Y0327014D01*
X0054186Y0330066D02*
X0058256Y0330066D01*
X0058256Y0331084D02*
X0058256Y0327014D01*
X0058256Y0331084D02*
X0056221Y0333119D01*
X0054186Y0331084D01*
X0054186Y0336914D02*
X0058256Y0336914D01*
X0060263Y0336914D02*
X0060263Y0340984D01*
X0062298Y0343019D01*
X0064333Y0340984D01*
X0064333Y0336914D01*
X0064333Y0339966D02*
X0060263Y0339966D01*
X0058256Y0340984D02*
X0056221Y0343019D01*
X0056221Y0336914D01*
X0052179Y0336914D02*
X0048109Y0340984D01*
X0048109Y0342001D01*
X0049126Y0343019D01*
X0051162Y0343019D01*
X0052179Y0342001D01*
X0052179Y0336914D02*
X0048109Y0336914D01*
X0049126Y0346814D02*
X0051162Y0346814D01*
X0052179Y0347831D01*
X0052179Y0349866D02*
X0050144Y0350884D01*
X0049126Y0350884D01*
X0048109Y0349866D01*
X0048109Y0347831D01*
X0049126Y0346814D01*
X0052179Y0349866D02*
X0052179Y0352919D01*
X0048109Y0352919D01*
X0049126Y0356714D02*
X0051162Y0356714D01*
X0052179Y0357731D01*
X0052179Y0358749D01*
X0051162Y0359766D01*
X0049126Y0359766D01*
X0048109Y0358749D01*
X0048109Y0357731D01*
X0049126Y0356714D01*
X0049126Y0359766D02*
X0048109Y0360784D01*
X0048109Y0361801D01*
X0049126Y0362819D01*
X0051162Y0362819D01*
X0052179Y0361801D01*
X0052179Y0360784D01*
X0051162Y0359766D01*
X0054186Y0356714D02*
X0058256Y0356714D01*
X0060263Y0356714D02*
X0060263Y0360784D01*
X0062298Y0362819D01*
X0064333Y0360784D01*
X0064333Y0356714D01*
X0064333Y0359766D02*
X0060263Y0359766D01*
X0058256Y0360784D02*
X0056221Y0362819D01*
X0056221Y0356714D01*
X0056221Y0352919D02*
X0056221Y0346814D01*
X0058256Y0346814D02*
X0054186Y0346814D01*
X0058256Y0350884D02*
X0056221Y0352919D01*
X0060263Y0350884D02*
X0060263Y0346814D01*
X0060263Y0349866D02*
X0064333Y0349866D01*
X0064333Y0350884D02*
X0064333Y0346814D01*
X0064333Y0350884D02*
X0062298Y0352919D01*
X0060263Y0350884D01*
X0060263Y0366614D02*
X0060263Y0370684D01*
X0062298Y0372719D01*
X0064333Y0370684D01*
X0064333Y0366614D01*
X0064333Y0369666D02*
X0060263Y0369666D01*
X0058256Y0370684D02*
X0056221Y0372719D01*
X0056221Y0366614D01*
X0058256Y0366614D02*
X0054186Y0366614D01*
X0052179Y0366614D02*
X0052179Y0367631D01*
X0048109Y0371701D01*
X0048109Y0372719D01*
X0052179Y0372719D01*
X0052179Y0376514D02*
X0048109Y0376514D01*
X0050144Y0376514D02*
X0050144Y0382619D01*
X0052179Y0380584D01*
X0054186Y0380584D02*
X0054186Y0381601D01*
X0055204Y0382619D01*
X0057239Y0382619D01*
X0058256Y0381601D01*
X0060263Y0380584D02*
X0060263Y0376514D01*
X0058256Y0376514D02*
X0054186Y0380584D01*
X0054186Y0376514D02*
X0058256Y0376514D01*
X0060263Y0379566D02*
X0064333Y0379566D01*
X0064333Y0380584D02*
X0062298Y0382619D01*
X0060263Y0380584D01*
X0064333Y0380584D02*
X0064333Y0376514D01*
X0064333Y0386414D02*
X0064333Y0390484D01*
X0062298Y0392519D01*
X0060263Y0390484D01*
X0060263Y0386414D01*
X0058256Y0386414D02*
X0054186Y0390484D01*
X0054186Y0391501D01*
X0055204Y0392519D01*
X0057239Y0392519D01*
X0058256Y0391501D01*
X0060263Y0389466D02*
X0064333Y0389466D01*
X0058256Y0386414D02*
X0054186Y0386414D01*
X0052179Y0387431D02*
X0048109Y0391501D01*
X0048109Y0387431D01*
X0049126Y0386414D01*
X0051162Y0386414D01*
X0052179Y0387431D01*
X0052179Y0391501D01*
X0051162Y0392519D01*
X0049126Y0392519D01*
X0048109Y0391501D01*
X0079022Y0381405D02*
X0080039Y0382422D01*
X0082074Y0382422D01*
X0083092Y0381405D01*
X0085099Y0381405D02*
X0086116Y0382422D01*
X0088151Y0382422D01*
X0089169Y0381405D01*
X0091176Y0380387D02*
X0091176Y0376317D01*
X0089169Y0376317D02*
X0085099Y0380387D01*
X0085099Y0381405D01*
X0085099Y0386217D02*
X0089169Y0386217D01*
X0089169Y0392322D01*
X0085099Y0392322D01*
X0087134Y0389270D02*
X0089169Y0389270D01*
X0091176Y0392322D02*
X0091176Y0386217D01*
X0093211Y0388252D01*
X0095246Y0386217D01*
X0095246Y0392322D01*
X0093211Y0382422D02*
X0091176Y0380387D01*
X0091176Y0379370D02*
X0095246Y0379370D01*
X0095246Y0380387D02*
X0093211Y0382422D01*
X0095246Y0380387D02*
X0095246Y0376317D01*
X0095246Y0372522D02*
X0091176Y0372522D01*
X0089169Y0372522D02*
X0089169Y0368452D01*
X0087134Y0366417D01*
X0085099Y0368452D01*
X0085099Y0372522D01*
X0085099Y0376317D02*
X0089169Y0376317D01*
X0095246Y0372522D02*
X0095246Y0369470D01*
X0093211Y0370487D01*
X0092194Y0370487D01*
X0091176Y0369470D01*
X0091176Y0367434D01*
X0092194Y0366417D01*
X0094229Y0366417D01*
X0095246Y0367434D01*
X0094229Y0362622D02*
X0095246Y0361605D01*
X0095246Y0357534D01*
X0094229Y0356517D01*
X0092194Y0356517D01*
X0091176Y0357534D01*
X0091176Y0361605D01*
X0092194Y0362622D01*
X0094229Y0362622D01*
X0089169Y0362622D02*
X0089169Y0356517D01*
X0085099Y0356517D01*
X0087134Y0359570D02*
X0089169Y0359570D01*
X0089169Y0362622D02*
X0085099Y0362622D01*
X0087134Y0352722D02*
X0087134Y0346617D01*
X0089169Y0346617D02*
X0085099Y0346617D01*
X0083092Y0347634D02*
X0082074Y0346617D01*
X0080039Y0346617D01*
X0079022Y0347634D01*
X0079022Y0351705D01*
X0080039Y0352722D01*
X0082074Y0352722D01*
X0083092Y0351705D01*
X0083092Y0350687D01*
X0082074Y0349670D01*
X0079022Y0349670D01*
X0080039Y0342822D02*
X0083092Y0339770D01*
X0079022Y0339770D01*
X0080039Y0342822D02*
X0080039Y0336717D01*
X0080039Y0332922D02*
X0079022Y0331905D01*
X0079022Y0330887D01*
X0080039Y0329870D01*
X0079022Y0328852D01*
X0079022Y0327834D01*
X0080039Y0326817D01*
X0082074Y0326817D01*
X0083092Y0327834D01*
X0085099Y0326817D02*
X0089169Y0326817D01*
X0091176Y0326817D02*
X0091176Y0330887D01*
X0093211Y0332922D01*
X0095246Y0330887D01*
X0095246Y0326817D01*
X0095246Y0329870D02*
X0091176Y0329870D01*
X0089169Y0330887D02*
X0087134Y0332922D01*
X0087134Y0326817D01*
X0088151Y0323022D02*
X0086116Y0323022D01*
X0085099Y0322005D01*
X0085099Y0320987D01*
X0086116Y0319970D01*
X0088151Y0319970D01*
X0089169Y0320987D01*
X0089169Y0322005D01*
X0088151Y0323022D01*
X0088151Y0319970D02*
X0089169Y0318952D01*
X0089169Y0317934D01*
X0088151Y0316917D01*
X0086116Y0316917D01*
X0085099Y0317934D01*
X0085099Y0318952D01*
X0086116Y0319970D01*
X0091176Y0319970D02*
X0095246Y0319970D01*
X0095246Y0320987D02*
X0093211Y0323022D01*
X0091176Y0320987D01*
X0091176Y0316917D01*
X0095246Y0316917D02*
X0095246Y0320987D01*
X0093211Y0313122D02*
X0091176Y0311087D01*
X0091176Y0307017D01*
X0089169Y0308034D02*
X0088151Y0307017D01*
X0086116Y0307017D01*
X0085099Y0308034D01*
X0085099Y0312105D01*
X0086116Y0313122D01*
X0088151Y0313122D01*
X0089169Y0312105D01*
X0089169Y0311087D01*
X0088151Y0310070D01*
X0085099Y0310070D01*
X0091176Y0310070D02*
X0095246Y0310070D01*
X0095246Y0311087D02*
X0095246Y0307017D01*
X0095246Y0311087D02*
X0093211Y0313122D01*
X0093211Y0303222D02*
X0091176Y0301187D01*
X0091176Y0297117D01*
X0089169Y0297117D02*
X0085099Y0297117D01*
X0083092Y0297117D02*
X0079022Y0297117D01*
X0081057Y0297117D02*
X0081057Y0303222D01*
X0083092Y0301187D01*
X0087134Y0303222D02*
X0087134Y0297117D01*
X0087134Y0293322D02*
X0087134Y0287217D01*
X0089169Y0287217D02*
X0085099Y0287217D01*
X0083092Y0288234D02*
X0082074Y0287217D01*
X0080039Y0287217D01*
X0079022Y0288234D01*
X0079022Y0289252D01*
X0080039Y0290270D01*
X0083092Y0290270D01*
X0083092Y0288234D01*
X0083092Y0290270D02*
X0081057Y0292305D01*
X0079022Y0293322D01*
X0087134Y0293322D02*
X0089169Y0291287D01*
X0091176Y0291287D02*
X0091176Y0287217D01*
X0091176Y0290270D02*
X0095246Y0290270D01*
X0095246Y0291287D02*
X0095246Y0287217D01*
X0095246Y0291287D02*
X0093211Y0293322D01*
X0091176Y0291287D01*
X0095246Y0297117D02*
X0095246Y0301187D01*
X0093211Y0303222D01*
X0095246Y0300170D02*
X0091176Y0300170D01*
X0089169Y0301187D02*
X0087134Y0303222D01*
X0087134Y0283422D02*
X0087134Y0277317D01*
X0089169Y0277317D02*
X0085099Y0277317D01*
X0083092Y0278334D02*
X0083092Y0282405D01*
X0082074Y0283422D01*
X0080039Y0283422D01*
X0079022Y0282405D01*
X0083092Y0278334D01*
X0082074Y0277317D01*
X0080039Y0277317D01*
X0079022Y0278334D01*
X0079022Y0282405D01*
X0087134Y0283422D02*
X0089169Y0281387D01*
X0091176Y0281387D02*
X0091176Y0277317D01*
X0091176Y0280370D02*
X0095246Y0280370D01*
X0095246Y0281387D02*
X0093211Y0283422D01*
X0091176Y0281387D01*
X0095246Y0281387D02*
X0095246Y0277317D01*
X0094229Y0273522D02*
X0095246Y0272505D01*
X0095246Y0268434D01*
X0094229Y0267417D01*
X0092194Y0267417D01*
X0091176Y0268434D01*
X0089169Y0267417D02*
X0085099Y0267417D01*
X0087134Y0270470D02*
X0089169Y0270470D01*
X0091176Y0272505D02*
X0092194Y0273522D01*
X0094229Y0273522D01*
X0089169Y0273522D02*
X0089169Y0267417D01*
X0089169Y0263622D02*
X0085099Y0263622D01*
X0085099Y0262605D01*
X0089169Y0258534D01*
X0089169Y0257517D01*
X0091176Y0258534D02*
X0091176Y0262605D01*
X0092194Y0263622D01*
X0095246Y0263622D01*
X0095246Y0257517D01*
X0092194Y0257517D01*
X0091176Y0258534D01*
X0092194Y0253722D02*
X0091176Y0252705D01*
X0091176Y0248634D01*
X0092194Y0247617D01*
X0095246Y0247617D01*
X0095246Y0253722D01*
X0092194Y0253722D01*
X0089169Y0250670D02*
X0086116Y0250670D01*
X0085099Y0249652D01*
X0085099Y0248634D01*
X0086116Y0247617D01*
X0088151Y0247617D01*
X0089169Y0248634D01*
X0089169Y0250670D01*
X0087134Y0252705D01*
X0085099Y0253722D01*
X0085099Y0243822D02*
X0089169Y0243822D01*
X0089169Y0240770D01*
X0087134Y0241787D01*
X0086116Y0241787D01*
X0085099Y0240770D01*
X0085099Y0238734D01*
X0086116Y0237717D01*
X0088151Y0237717D01*
X0089169Y0238734D01*
X0091176Y0238734D02*
X0091176Y0242805D01*
X0092194Y0243822D01*
X0095246Y0243822D01*
X0095246Y0237717D01*
X0092194Y0237717D01*
X0091176Y0238734D01*
X0092194Y0233922D02*
X0091176Y0232905D01*
X0091176Y0228834D01*
X0092194Y0227817D01*
X0095246Y0227817D01*
X0095246Y0233922D01*
X0092194Y0233922D01*
X0089169Y0230870D02*
X0085099Y0230870D01*
X0086116Y0233922D02*
X0086116Y0227817D01*
X0086116Y0224022D02*
X0085099Y0223005D01*
X0085099Y0221987D01*
X0086116Y0220970D01*
X0085099Y0219952D01*
X0085099Y0218934D01*
X0086116Y0217917D01*
X0088151Y0217917D01*
X0089169Y0218934D01*
X0091176Y0218934D02*
X0091176Y0223005D01*
X0092194Y0224022D01*
X0095246Y0224022D01*
X0095246Y0217917D01*
X0092194Y0217917D01*
X0091176Y0218934D01*
X0087134Y0220970D02*
X0086116Y0220970D01*
X0086116Y0224022D02*
X0088151Y0224022D01*
X0089169Y0223005D01*
X0089169Y0230870D02*
X0086116Y0233922D01*
X0064333Y0223201D02*
X0064333Y0219131D01*
X0063316Y0218114D01*
X0061281Y0218114D01*
X0060263Y0219131D01*
X0060263Y0221166D01*
X0062298Y0221166D01*
X0060263Y0223201D02*
X0061281Y0224219D01*
X0063316Y0224219D01*
X0064333Y0223201D01*
X0058256Y0224219D02*
X0058256Y0218114D01*
X0054186Y0218114D02*
X0058256Y0224219D01*
X0052179Y0228014D02*
X0048109Y0228014D01*
X0085099Y0273522D02*
X0089169Y0273522D01*
X0058256Y0310266D02*
X0054186Y0310266D01*
X0054186Y0317114D02*
X0054186Y0321184D01*
X0056221Y0323219D01*
X0058256Y0321184D01*
X0058256Y0317114D01*
X0058256Y0320166D02*
X0054186Y0320166D01*
X0080039Y0329870D02*
X0081057Y0329870D01*
X0083092Y0331905D02*
X0082074Y0332922D01*
X0080039Y0332922D01*
X0085099Y0336717D02*
X0089169Y0336717D01*
X0091176Y0336717D02*
X0091176Y0340787D01*
X0093211Y0342822D01*
X0095246Y0340787D01*
X0095246Y0336717D01*
X0095246Y0339770D02*
X0091176Y0339770D01*
X0089169Y0340787D02*
X0087134Y0342822D01*
X0087134Y0336717D01*
X0091176Y0346617D02*
X0091176Y0350687D01*
X0093211Y0352722D01*
X0095246Y0350687D01*
X0095246Y0346617D01*
X0095246Y0349670D02*
X0091176Y0349670D01*
X0089169Y0350687D02*
X0087134Y0352722D01*
X0083092Y0376317D02*
X0079022Y0376317D01*
X0083092Y0376317D02*
X0079022Y0380387D01*
X0079022Y0381405D01*
X0141861Y0376817D02*
X0145931Y0376817D01*
X0147938Y0376817D02*
X0152008Y0376817D01*
X0147938Y0380887D01*
X0147938Y0381905D01*
X0148956Y0382922D01*
X0150991Y0382922D01*
X0152008Y0381905D01*
X0154015Y0380887D02*
X0154015Y0376817D01*
X0154015Y0379870D02*
X0158085Y0379870D01*
X0158085Y0380887D02*
X0156050Y0382922D01*
X0154015Y0380887D01*
X0158085Y0380887D02*
X0158085Y0376817D01*
X0156050Y0373022D02*
X0154015Y0370987D01*
X0154015Y0366917D01*
X0152008Y0366917D02*
X0147938Y0366917D01*
X0145931Y0366917D02*
X0145931Y0367934D01*
X0141861Y0372005D01*
X0141861Y0373022D01*
X0145931Y0373022D01*
X0149973Y0373022D02*
X0149973Y0366917D01*
X0149973Y0363122D02*
X0149973Y0357017D01*
X0152008Y0357017D02*
X0147938Y0357017D01*
X0145931Y0358034D02*
X0145931Y0359052D01*
X0144914Y0360070D01*
X0142878Y0360070D01*
X0141861Y0359052D01*
X0141861Y0358034D01*
X0142878Y0357017D01*
X0144914Y0357017D01*
X0145931Y0358034D01*
X0144914Y0360070D02*
X0145931Y0361087D01*
X0145931Y0362105D01*
X0144914Y0363122D01*
X0142878Y0363122D01*
X0141861Y0362105D01*
X0141861Y0361087D01*
X0142878Y0360070D01*
X0141861Y0353222D02*
X0145931Y0353222D01*
X0145931Y0350170D01*
X0143896Y0351187D01*
X0142878Y0351187D01*
X0141861Y0350170D01*
X0141861Y0348134D01*
X0142878Y0347117D01*
X0144914Y0347117D01*
X0145931Y0348134D01*
X0147938Y0347117D02*
X0152008Y0347117D01*
X0154015Y0347117D02*
X0154015Y0351187D01*
X0156050Y0353222D01*
X0158085Y0351187D01*
X0158085Y0347117D01*
X0158085Y0350170D02*
X0154015Y0350170D01*
X0152008Y0351187D02*
X0149973Y0353222D01*
X0149973Y0347117D01*
X0149973Y0343322D02*
X0149973Y0337217D01*
X0152008Y0337217D02*
X0147938Y0337217D01*
X0145931Y0337217D02*
X0141861Y0341287D01*
X0141861Y0342305D01*
X0142878Y0343322D01*
X0144914Y0343322D01*
X0145931Y0342305D01*
X0149973Y0343322D02*
X0152008Y0341287D01*
X0154015Y0341287D02*
X0154015Y0337217D01*
X0154015Y0340270D02*
X0158085Y0340270D01*
X0158085Y0341287D02*
X0156050Y0343322D01*
X0154015Y0341287D01*
X0158085Y0341287D02*
X0158085Y0337217D01*
X0152008Y0331387D02*
X0152008Y0327317D01*
X0152008Y0330370D02*
X0147938Y0330370D01*
X0147938Y0331387D02*
X0147938Y0327317D01*
X0145931Y0327317D02*
X0145931Y0328334D01*
X0141861Y0332405D01*
X0141861Y0333422D01*
X0145931Y0333422D01*
X0147938Y0331387D02*
X0149973Y0333422D01*
X0152008Y0331387D01*
X0145931Y0337217D02*
X0141861Y0337217D01*
X0141861Y0323522D02*
X0143896Y0322505D01*
X0145931Y0320470D01*
X0142878Y0320470D01*
X0141861Y0319452D01*
X0141861Y0318434D01*
X0142878Y0317417D01*
X0144914Y0317417D01*
X0145931Y0318434D01*
X0145931Y0320470D01*
X0147938Y0320470D02*
X0152008Y0320470D01*
X0152008Y0321487D02*
X0149973Y0323522D01*
X0147938Y0321487D01*
X0147938Y0317417D01*
X0152008Y0317417D02*
X0152008Y0321487D01*
X0149973Y0313622D02*
X0147938Y0311587D01*
X0147938Y0307517D01*
X0145931Y0308534D02*
X0144914Y0307517D01*
X0142878Y0307517D01*
X0141861Y0308534D01*
X0141861Y0310570D01*
X0142878Y0311587D01*
X0143896Y0311587D01*
X0145931Y0310570D01*
X0145931Y0313622D01*
X0141861Y0313622D01*
X0147938Y0310570D02*
X0152008Y0310570D01*
X0152008Y0311587D02*
X0152008Y0307517D01*
X0152008Y0311587D02*
X0149973Y0313622D01*
X0149973Y0303722D02*
X0147938Y0301687D01*
X0147938Y0297617D01*
X0147938Y0300670D02*
X0152008Y0300670D01*
X0152008Y0301687D02*
X0149973Y0303722D01*
X0152008Y0301687D02*
X0152008Y0297617D01*
X0149973Y0293822D02*
X0147938Y0291787D01*
X0147938Y0287717D01*
X0145931Y0288734D02*
X0144914Y0287717D01*
X0142878Y0287717D01*
X0141861Y0288734D01*
X0141861Y0289752D01*
X0142878Y0290770D01*
X0143896Y0290770D01*
X0142878Y0290770D02*
X0141861Y0291787D01*
X0141861Y0292805D01*
X0142878Y0293822D01*
X0144914Y0293822D01*
X0145931Y0292805D01*
X0147938Y0290770D02*
X0152008Y0290770D01*
X0152008Y0291787D02*
X0152008Y0287717D01*
X0152008Y0291787D02*
X0149973Y0293822D01*
X0145931Y0300670D02*
X0141861Y0300670D01*
X0142878Y0303722D02*
X0142878Y0297617D01*
X0145931Y0300670D02*
X0142878Y0303722D01*
X0142878Y0283922D02*
X0144914Y0283922D01*
X0145931Y0282905D01*
X0147938Y0281887D02*
X0147938Y0277817D01*
X0145931Y0277817D02*
X0141861Y0281887D01*
X0141861Y0282905D01*
X0142878Y0283922D01*
X0147938Y0281887D02*
X0149973Y0283922D01*
X0152008Y0281887D01*
X0152008Y0277817D01*
X0152008Y0280870D02*
X0147938Y0280870D01*
X0145931Y0277817D02*
X0141861Y0277817D01*
X0143896Y0274022D02*
X0143896Y0267917D01*
X0145931Y0267917D02*
X0141861Y0267917D01*
X0142878Y0264122D02*
X0141861Y0263105D01*
X0145931Y0259034D01*
X0144914Y0258017D01*
X0142878Y0258017D01*
X0141861Y0259034D01*
X0141861Y0263105D01*
X0142878Y0264122D02*
X0144914Y0264122D01*
X0145931Y0263105D01*
X0145931Y0259034D01*
X0147938Y0258017D02*
X0147938Y0262087D01*
X0149973Y0264122D01*
X0152008Y0262087D01*
X0152008Y0258017D01*
X0152008Y0261070D02*
X0147938Y0261070D01*
X0147938Y0267917D02*
X0147938Y0271987D01*
X0149973Y0274022D01*
X0152008Y0271987D01*
X0152008Y0267917D01*
X0152008Y0270970D02*
X0147938Y0270970D01*
X0145931Y0271987D02*
X0143896Y0274022D01*
X0142878Y0254222D02*
X0141861Y0253205D01*
X0145931Y0249134D01*
X0144914Y0248117D01*
X0142878Y0248117D01*
X0141861Y0249134D01*
X0141861Y0253205D01*
X0142878Y0254222D02*
X0144914Y0254222D01*
X0145931Y0253205D01*
X0145931Y0249134D01*
X0147938Y0249134D02*
X0147938Y0253205D01*
X0148956Y0254222D01*
X0152008Y0254222D01*
X0152008Y0248117D01*
X0148956Y0248117D01*
X0147938Y0249134D01*
X0148956Y0244322D02*
X0147938Y0243305D01*
X0147938Y0239234D01*
X0148956Y0238217D01*
X0152008Y0238217D01*
X0152008Y0244322D01*
X0148956Y0244322D01*
X0145931Y0242287D02*
X0143896Y0244322D01*
X0143896Y0238217D01*
X0145931Y0238217D02*
X0141861Y0238217D01*
X0142878Y0234422D02*
X0144914Y0234422D01*
X0145931Y0233405D01*
X0147938Y0233405D02*
X0148956Y0234422D01*
X0152008Y0234422D01*
X0152008Y0228317D01*
X0148956Y0228317D01*
X0147938Y0229334D01*
X0147938Y0233405D01*
X0142878Y0234422D02*
X0141861Y0233405D01*
X0141861Y0232387D01*
X0145931Y0228317D01*
X0141861Y0228317D01*
X0142878Y0224522D02*
X0145931Y0224522D01*
X0145931Y0218417D01*
X0142878Y0218417D01*
X0141861Y0219434D01*
X0141861Y0223505D01*
X0142878Y0224522D01*
X0147938Y0224522D02*
X0147938Y0218417D01*
X0152008Y0224522D01*
X0152008Y0218417D01*
X0154015Y0219434D02*
X0154015Y0221470D01*
X0156050Y0221470D01*
X0154015Y0223505D02*
X0155033Y0224522D01*
X0157068Y0224522D01*
X0158085Y0223505D01*
X0158085Y0219434D01*
X0157068Y0218417D01*
X0155033Y0218417D01*
X0154015Y0219434D01*
X0180953Y0219434D02*
X0181971Y0218417D01*
X0184006Y0218417D01*
X0185023Y0219434D01*
X0187030Y0219434D02*
X0187030Y0223505D01*
X0188048Y0224522D01*
X0191100Y0224522D01*
X0191100Y0218417D01*
X0188048Y0218417D01*
X0187030Y0219434D01*
X0182988Y0221470D02*
X0181971Y0221470D01*
X0180953Y0220452D01*
X0180953Y0219434D01*
X0181971Y0221470D02*
X0180953Y0222487D01*
X0180953Y0223505D01*
X0181971Y0224522D01*
X0184006Y0224522D01*
X0185023Y0223505D01*
X0188048Y0228317D02*
X0187030Y0229334D01*
X0187030Y0233405D01*
X0188048Y0234422D01*
X0191100Y0234422D01*
X0191100Y0228317D01*
X0188048Y0228317D01*
X0185023Y0231370D02*
X0180953Y0231370D01*
X0181971Y0234422D02*
X0185023Y0231370D01*
X0181971Y0228317D02*
X0181971Y0234422D01*
X0181971Y0238217D02*
X0184006Y0238217D01*
X0185023Y0239234D01*
X0187030Y0239234D02*
X0187030Y0243305D01*
X0188048Y0244322D01*
X0191100Y0244322D01*
X0191100Y0238217D01*
X0188048Y0238217D01*
X0187030Y0239234D01*
X0185023Y0241270D02*
X0182988Y0242287D01*
X0181971Y0242287D01*
X0180953Y0241270D01*
X0180953Y0239234D01*
X0181971Y0238217D01*
X0185023Y0241270D02*
X0185023Y0244322D01*
X0180953Y0244322D01*
X0181971Y0248117D02*
X0180953Y0249134D01*
X0180953Y0250152D01*
X0181971Y0251170D01*
X0185023Y0251170D01*
X0185023Y0249134D01*
X0184006Y0248117D01*
X0181971Y0248117D01*
X0185023Y0251170D02*
X0182988Y0253205D01*
X0180953Y0254222D01*
X0185023Y0258017D02*
X0185023Y0259034D01*
X0180953Y0263105D01*
X0180953Y0264122D01*
X0185023Y0264122D01*
X0187030Y0263105D02*
X0188048Y0264122D01*
X0191100Y0264122D01*
X0191100Y0258017D01*
X0188048Y0258017D01*
X0187030Y0259034D01*
X0187030Y0263105D01*
X0188048Y0267917D02*
X0187030Y0268934D01*
X0188048Y0267917D02*
X0190083Y0267917D01*
X0191100Y0268934D01*
X0191100Y0273005D01*
X0190083Y0274022D01*
X0188048Y0274022D01*
X0187030Y0273005D01*
X0185023Y0274022D02*
X0185023Y0267917D01*
X0180953Y0267917D01*
X0182988Y0270970D02*
X0185023Y0270970D01*
X0185023Y0274022D02*
X0180953Y0274022D01*
X0180953Y0277817D02*
X0185023Y0277817D01*
X0187030Y0277817D02*
X0187030Y0281887D01*
X0189065Y0283922D01*
X0191100Y0281887D01*
X0191100Y0277817D01*
X0191100Y0280870D02*
X0187030Y0280870D01*
X0185023Y0281887D02*
X0182988Y0283922D01*
X0182988Y0277817D01*
X0178946Y0278834D02*
X0178946Y0282905D01*
X0177929Y0283922D01*
X0175893Y0283922D01*
X0174876Y0282905D01*
X0178946Y0278834D01*
X0177929Y0277817D01*
X0175893Y0277817D01*
X0174876Y0278834D01*
X0174876Y0282905D01*
X0175893Y0287717D02*
X0174876Y0288734D01*
X0174876Y0289752D01*
X0175893Y0290770D01*
X0178946Y0290770D01*
X0178946Y0288734D01*
X0177929Y0287717D01*
X0175893Y0287717D01*
X0178946Y0290770D02*
X0176911Y0292805D01*
X0174876Y0293822D01*
X0174876Y0297617D02*
X0178946Y0297617D01*
X0180953Y0297617D02*
X0185023Y0297617D01*
X0187030Y0297617D02*
X0187030Y0301687D01*
X0189065Y0303722D01*
X0191100Y0301687D01*
X0191100Y0297617D01*
X0191100Y0300670D02*
X0187030Y0300670D01*
X0185023Y0301687D02*
X0182988Y0303722D01*
X0182988Y0297617D01*
X0182988Y0293822D02*
X0182988Y0287717D01*
X0185023Y0287717D02*
X0180953Y0287717D01*
X0185023Y0291787D02*
X0182988Y0293822D01*
X0187030Y0291787D02*
X0187030Y0287717D01*
X0187030Y0290770D02*
X0191100Y0290770D01*
X0191100Y0291787D02*
X0191100Y0287717D01*
X0191100Y0291787D02*
X0189065Y0293822D01*
X0187030Y0291787D01*
X0176911Y0297617D02*
X0176911Y0303722D01*
X0178946Y0301687D01*
X0181971Y0307517D02*
X0180953Y0308534D01*
X0180953Y0312605D01*
X0181971Y0313622D01*
X0184006Y0313622D01*
X0185023Y0312605D01*
X0185023Y0311587D01*
X0184006Y0310570D01*
X0180953Y0310570D01*
X0181971Y0307517D02*
X0184006Y0307517D01*
X0185023Y0308534D01*
X0187030Y0307517D02*
X0187030Y0311587D01*
X0189065Y0313622D01*
X0191100Y0311587D01*
X0191100Y0307517D01*
X0191100Y0310570D02*
X0187030Y0310570D01*
X0187030Y0317417D02*
X0187030Y0321487D01*
X0189065Y0323522D01*
X0191100Y0321487D01*
X0191100Y0317417D01*
X0191100Y0320470D02*
X0187030Y0320470D01*
X0185023Y0321487D02*
X0185023Y0322505D01*
X0184006Y0323522D01*
X0181971Y0323522D01*
X0180953Y0322505D01*
X0180953Y0321487D01*
X0181971Y0320470D01*
X0184006Y0320470D01*
X0185023Y0321487D01*
X0184006Y0320470D02*
X0185023Y0319452D01*
X0185023Y0318434D01*
X0184006Y0317417D01*
X0181971Y0317417D01*
X0180953Y0318434D01*
X0180953Y0319452D01*
X0181971Y0320470D01*
X0182988Y0327317D02*
X0182988Y0333422D01*
X0185023Y0331387D01*
X0187030Y0331387D02*
X0187030Y0327317D01*
X0185023Y0327317D02*
X0180953Y0327317D01*
X0178946Y0328334D02*
X0177929Y0327317D01*
X0175893Y0327317D01*
X0174876Y0328334D01*
X0174876Y0329352D01*
X0175893Y0330370D01*
X0176911Y0330370D01*
X0175893Y0330370D02*
X0174876Y0331387D01*
X0174876Y0332405D01*
X0175893Y0333422D01*
X0177929Y0333422D01*
X0178946Y0332405D01*
X0180953Y0337217D02*
X0185023Y0337217D01*
X0187030Y0337217D02*
X0187030Y0341287D01*
X0189065Y0343322D01*
X0191100Y0341287D01*
X0191100Y0337217D01*
X0191100Y0340270D02*
X0187030Y0340270D01*
X0185023Y0341287D02*
X0182988Y0343322D01*
X0182988Y0337217D01*
X0178946Y0340270D02*
X0174876Y0340270D01*
X0175893Y0343322D02*
X0175893Y0337217D01*
X0178946Y0340270D02*
X0175893Y0343322D01*
X0175893Y0347117D02*
X0174876Y0348134D01*
X0174876Y0352205D01*
X0175893Y0353222D01*
X0177929Y0353222D01*
X0178946Y0352205D01*
X0178946Y0351187D01*
X0177929Y0350170D01*
X0174876Y0350170D01*
X0175893Y0347117D02*
X0177929Y0347117D01*
X0178946Y0348134D01*
X0180953Y0347117D02*
X0185023Y0347117D01*
X0187030Y0347117D02*
X0187030Y0351187D01*
X0189065Y0353222D01*
X0191100Y0351187D01*
X0191100Y0347117D01*
X0191100Y0350170D02*
X0187030Y0350170D01*
X0185023Y0351187D02*
X0182988Y0353222D01*
X0182988Y0347117D01*
X0185023Y0357017D02*
X0180953Y0357017D01*
X0182988Y0360070D02*
X0185023Y0360070D01*
X0187030Y0362105D02*
X0188048Y0363122D01*
X0190083Y0363122D01*
X0191100Y0362105D01*
X0191100Y0358034D01*
X0190083Y0357017D01*
X0188048Y0357017D01*
X0187030Y0358034D01*
X0187030Y0362105D01*
X0185023Y0363122D02*
X0180953Y0363122D01*
X0185023Y0363122D02*
X0185023Y0357017D01*
X0182988Y0366917D02*
X0180953Y0368952D01*
X0180953Y0373022D01*
X0180953Y0376817D02*
X0185023Y0376817D01*
X0180953Y0380887D01*
X0180953Y0381905D01*
X0181971Y0382922D01*
X0184006Y0382922D01*
X0185023Y0381905D01*
X0187030Y0380887D02*
X0187030Y0376817D01*
X0187030Y0379870D02*
X0191100Y0379870D01*
X0191100Y0380887D02*
X0189065Y0382922D01*
X0187030Y0380887D01*
X0191100Y0380887D02*
X0191100Y0376817D01*
X0191100Y0373022D02*
X0187030Y0373022D01*
X0185023Y0373022D02*
X0185023Y0368952D01*
X0182988Y0366917D01*
X0187030Y0367934D02*
X0188048Y0366917D01*
X0190083Y0366917D01*
X0191100Y0367934D01*
X0191100Y0369970D02*
X0189065Y0370987D01*
X0188048Y0370987D01*
X0187030Y0369970D01*
X0187030Y0367934D01*
X0191100Y0369970D02*
X0191100Y0373022D01*
X0178946Y0376817D02*
X0174876Y0380887D01*
X0174876Y0381905D01*
X0175893Y0382922D01*
X0177929Y0382922D01*
X0178946Y0381905D01*
X0178946Y0376817D02*
X0174876Y0376817D01*
X0180953Y0386717D02*
X0185023Y0386717D01*
X0185023Y0392822D01*
X0180953Y0392822D01*
X0182988Y0389770D02*
X0185023Y0389770D01*
X0187030Y0392822D02*
X0187030Y0386717D01*
X0189065Y0388752D01*
X0191100Y0386717D01*
X0191100Y0392822D01*
X0158085Y0390787D02*
X0158085Y0386717D01*
X0158085Y0389770D02*
X0154015Y0389770D01*
X0154015Y0390787D02*
X0154015Y0386717D01*
X0152008Y0386717D02*
X0147938Y0390787D01*
X0147938Y0391805D01*
X0148956Y0392822D01*
X0150991Y0392822D01*
X0152008Y0391805D01*
X0154015Y0390787D02*
X0156050Y0392822D01*
X0158085Y0390787D01*
X0152008Y0386717D02*
X0147938Y0386717D01*
X0145931Y0387734D02*
X0141861Y0391805D01*
X0141861Y0387734D01*
X0142878Y0386717D01*
X0144914Y0386717D01*
X0145931Y0387734D01*
X0145931Y0391805D01*
X0144914Y0392822D01*
X0142878Y0392822D01*
X0141861Y0391805D01*
X0143896Y0382922D02*
X0143896Y0376817D01*
X0145931Y0380887D02*
X0143896Y0382922D01*
X0149973Y0373022D02*
X0152008Y0370987D01*
X0154015Y0369970D02*
X0158085Y0369970D01*
X0158085Y0370987D02*
X0158085Y0366917D01*
X0158085Y0370987D02*
X0156050Y0373022D01*
X0156050Y0363122D02*
X0154015Y0361087D01*
X0154015Y0357017D01*
X0154015Y0360070D02*
X0158085Y0360070D01*
X0158085Y0361087D02*
X0156050Y0363122D01*
X0158085Y0361087D02*
X0158085Y0357017D01*
X0152008Y0361087D02*
X0149973Y0363122D01*
X0187030Y0331387D02*
X0189065Y0333422D01*
X0191100Y0331387D01*
X0191100Y0327317D01*
X0191100Y0330370D02*
X0187030Y0330370D01*
X0240286Y0332405D02*
X0244356Y0328334D01*
X0244356Y0327317D01*
X0246363Y0327317D02*
X0246363Y0331387D01*
X0248398Y0333422D01*
X0250433Y0331387D01*
X0250433Y0327317D01*
X0250433Y0330370D02*
X0246363Y0330370D01*
X0244356Y0333422D02*
X0240286Y0333422D01*
X0240286Y0332405D01*
X0240286Y0337217D02*
X0244356Y0337217D01*
X0240286Y0341287D01*
X0240286Y0342305D01*
X0241304Y0343322D01*
X0243339Y0343322D01*
X0244356Y0342305D01*
X0248398Y0343322D02*
X0248398Y0337217D01*
X0250433Y0337217D02*
X0246363Y0337217D01*
X0250433Y0341287D02*
X0248398Y0343322D01*
X0248398Y0347117D02*
X0248398Y0353222D01*
X0250433Y0351187D01*
X0252440Y0351187D02*
X0252440Y0347117D01*
X0250433Y0347117D02*
X0246363Y0347117D01*
X0244356Y0348134D02*
X0243339Y0347117D01*
X0241304Y0347117D01*
X0240286Y0348134D01*
X0240286Y0350170D01*
X0241304Y0351187D01*
X0242321Y0351187D01*
X0244356Y0350170D01*
X0244356Y0353222D01*
X0240286Y0353222D01*
X0241304Y0357017D02*
X0240286Y0358034D01*
X0240286Y0359052D01*
X0241304Y0360070D01*
X0243339Y0360070D01*
X0244356Y0361087D01*
X0244356Y0362105D01*
X0243339Y0363122D01*
X0241304Y0363122D01*
X0240286Y0362105D01*
X0240286Y0361087D01*
X0241304Y0360070D01*
X0243339Y0360070D02*
X0244356Y0359052D01*
X0244356Y0358034D01*
X0243339Y0357017D01*
X0241304Y0357017D01*
X0246363Y0357017D02*
X0250433Y0357017D01*
X0252440Y0357017D02*
X0252440Y0361087D01*
X0254476Y0363122D01*
X0256511Y0361087D01*
X0256511Y0357017D01*
X0256511Y0360070D02*
X0252440Y0360070D01*
X0250433Y0361087D02*
X0248398Y0363122D01*
X0248398Y0357017D01*
X0252440Y0351187D02*
X0254476Y0353222D01*
X0256511Y0351187D01*
X0256511Y0347117D01*
X0256511Y0350170D02*
X0252440Y0350170D01*
X0254476Y0343322D02*
X0252440Y0341287D01*
X0252440Y0337217D01*
X0252440Y0340270D02*
X0256511Y0340270D01*
X0256511Y0341287D02*
X0254476Y0343322D01*
X0256511Y0341287D02*
X0256511Y0337217D01*
X0248398Y0323522D02*
X0246363Y0321487D01*
X0246363Y0317417D01*
X0244356Y0318434D02*
X0243339Y0317417D01*
X0241304Y0317417D01*
X0240286Y0318434D01*
X0240286Y0319452D01*
X0241304Y0320470D01*
X0244356Y0320470D01*
X0244356Y0318434D01*
X0244356Y0320470D02*
X0242321Y0322505D01*
X0240286Y0323522D01*
X0246363Y0320470D02*
X0250433Y0320470D01*
X0250433Y0321487D02*
X0248398Y0323522D01*
X0250433Y0321487D02*
X0250433Y0317417D01*
X0248398Y0313622D02*
X0246363Y0311587D01*
X0246363Y0307517D01*
X0244356Y0308534D02*
X0243339Y0307517D01*
X0241304Y0307517D01*
X0240286Y0308534D01*
X0240286Y0310570D01*
X0241304Y0311587D01*
X0242321Y0311587D01*
X0244356Y0310570D01*
X0244356Y0313622D01*
X0240286Y0313622D01*
X0246363Y0310570D02*
X0250433Y0310570D01*
X0250433Y0311587D02*
X0250433Y0307517D01*
X0250433Y0311587D02*
X0248398Y0313622D01*
X0248398Y0303722D02*
X0246363Y0301687D01*
X0246363Y0297617D01*
X0246363Y0300670D02*
X0250433Y0300670D01*
X0250433Y0301687D02*
X0248398Y0303722D01*
X0250433Y0301687D02*
X0250433Y0297617D01*
X0248398Y0293822D02*
X0246363Y0291787D01*
X0246363Y0287717D01*
X0244356Y0288734D02*
X0243339Y0287717D01*
X0241304Y0287717D01*
X0240286Y0288734D01*
X0240286Y0289752D01*
X0241304Y0290770D01*
X0242321Y0290770D01*
X0241304Y0290770D02*
X0240286Y0291787D01*
X0240286Y0292805D01*
X0241304Y0293822D01*
X0243339Y0293822D01*
X0244356Y0292805D01*
X0246363Y0290770D02*
X0250433Y0290770D01*
X0250433Y0291787D02*
X0250433Y0287717D01*
X0250433Y0291787D02*
X0248398Y0293822D01*
X0244356Y0300670D02*
X0240286Y0300670D01*
X0241304Y0303722D02*
X0241304Y0297617D01*
X0244356Y0300670D02*
X0241304Y0303722D01*
X0241304Y0283922D02*
X0243339Y0283922D01*
X0244356Y0282905D01*
X0246363Y0281887D02*
X0246363Y0277817D01*
X0244356Y0277817D02*
X0240286Y0281887D01*
X0240286Y0282905D01*
X0241304Y0283922D01*
X0246363Y0281887D02*
X0248398Y0283922D01*
X0250433Y0281887D01*
X0250433Y0277817D01*
X0250433Y0280870D02*
X0246363Y0280870D01*
X0244356Y0277817D02*
X0240286Y0277817D01*
X0242321Y0274022D02*
X0242321Y0267917D01*
X0244356Y0267917D02*
X0240286Y0267917D01*
X0241304Y0264122D02*
X0240286Y0263105D01*
X0244356Y0259034D01*
X0243339Y0258017D01*
X0241304Y0258017D01*
X0240286Y0259034D01*
X0240286Y0263105D01*
X0241304Y0264122D02*
X0243339Y0264122D01*
X0244356Y0263105D01*
X0244356Y0259034D01*
X0246363Y0258017D02*
X0246363Y0262087D01*
X0248398Y0264122D01*
X0250433Y0262087D01*
X0250433Y0258017D01*
X0250433Y0261070D02*
X0246363Y0261070D01*
X0246363Y0267917D02*
X0246363Y0271987D01*
X0248398Y0274022D01*
X0250433Y0271987D01*
X0250433Y0267917D01*
X0250433Y0270970D02*
X0246363Y0270970D01*
X0244356Y0271987D02*
X0242321Y0274022D01*
X0241304Y0254222D02*
X0240286Y0253205D01*
X0244356Y0249134D01*
X0243339Y0248117D01*
X0241304Y0248117D01*
X0240286Y0249134D01*
X0240286Y0253205D01*
X0241304Y0254222D02*
X0243339Y0254222D01*
X0244356Y0253205D01*
X0244356Y0249134D01*
X0246363Y0249134D02*
X0246363Y0253205D01*
X0247381Y0254222D01*
X0250433Y0254222D01*
X0250433Y0248117D01*
X0247381Y0248117D01*
X0246363Y0249134D01*
X0247381Y0244322D02*
X0250433Y0244322D01*
X0250433Y0238217D01*
X0247381Y0238217D01*
X0246363Y0239234D01*
X0246363Y0243305D01*
X0247381Y0244322D01*
X0244356Y0242287D02*
X0242321Y0244322D01*
X0242321Y0238217D01*
X0244356Y0238217D02*
X0240286Y0238217D01*
X0241304Y0234422D02*
X0240286Y0233405D01*
X0240286Y0232387D01*
X0244356Y0228317D01*
X0240286Y0228317D01*
X0241304Y0224522D02*
X0240286Y0223505D01*
X0240286Y0219434D01*
X0241304Y0218417D01*
X0244356Y0218417D01*
X0244356Y0224522D01*
X0241304Y0224522D01*
X0246363Y0224522D02*
X0246363Y0218417D01*
X0250433Y0224522D01*
X0250433Y0218417D01*
X0252440Y0219434D02*
X0252440Y0221470D01*
X0254476Y0221470D01*
X0256511Y0223505D02*
X0255493Y0224522D01*
X0253458Y0224522D01*
X0252440Y0223505D01*
X0252440Y0219434D02*
X0253458Y0218417D01*
X0255493Y0218417D01*
X0256511Y0219434D01*
X0256511Y0223505D01*
X0250433Y0228317D02*
X0250433Y0234422D01*
X0247381Y0234422D01*
X0246363Y0233405D01*
X0246363Y0229334D01*
X0247381Y0228317D01*
X0250433Y0228317D01*
X0244356Y0233405D02*
X0243339Y0234422D01*
X0241304Y0234422D01*
X0279378Y0231370D02*
X0283448Y0231370D01*
X0280396Y0234422D01*
X0280396Y0228317D01*
X0280396Y0224522D02*
X0279378Y0223505D01*
X0279378Y0222487D01*
X0280396Y0221470D01*
X0279378Y0220452D01*
X0279378Y0219434D01*
X0280396Y0218417D01*
X0282431Y0218417D01*
X0283448Y0219434D01*
X0285456Y0219434D02*
X0286473Y0218417D01*
X0289526Y0218417D01*
X0289526Y0224522D01*
X0286473Y0224522D01*
X0285456Y0223505D01*
X0285456Y0219434D01*
X0281413Y0221470D02*
X0280396Y0221470D01*
X0280396Y0224522D02*
X0282431Y0224522D01*
X0283448Y0223505D01*
X0286473Y0228317D02*
X0285456Y0229334D01*
X0285456Y0233405D01*
X0286473Y0234422D01*
X0289526Y0234422D01*
X0289526Y0228317D01*
X0286473Y0228317D01*
X0286473Y0238217D02*
X0285456Y0239234D01*
X0285456Y0243305D01*
X0286473Y0244322D01*
X0289526Y0244322D01*
X0289526Y0238217D01*
X0286473Y0238217D01*
X0283448Y0239234D02*
X0282431Y0238217D01*
X0280396Y0238217D01*
X0279378Y0239234D01*
X0279378Y0241270D01*
X0280396Y0242287D01*
X0281413Y0242287D01*
X0283448Y0241270D01*
X0283448Y0244322D01*
X0279378Y0244322D01*
X0280396Y0248117D02*
X0279378Y0249134D01*
X0279378Y0250152D01*
X0280396Y0251170D01*
X0283448Y0251170D01*
X0283448Y0249134D01*
X0282431Y0248117D01*
X0280396Y0248117D01*
X0283448Y0251170D02*
X0281413Y0253205D01*
X0279378Y0254222D01*
X0283448Y0258017D02*
X0283448Y0259034D01*
X0279378Y0263105D01*
X0279378Y0264122D01*
X0283448Y0264122D01*
X0285456Y0263105D02*
X0285456Y0259034D01*
X0286473Y0258017D01*
X0289526Y0258017D01*
X0289526Y0264122D01*
X0286473Y0264122D01*
X0285456Y0263105D01*
X0286473Y0267917D02*
X0285456Y0268934D01*
X0286473Y0267917D02*
X0288508Y0267917D01*
X0289526Y0268934D01*
X0289526Y0273005D01*
X0288508Y0274022D01*
X0286473Y0274022D01*
X0285456Y0273005D01*
X0283448Y0274022D02*
X0283448Y0267917D01*
X0279378Y0267917D01*
X0281413Y0270970D02*
X0283448Y0270970D01*
X0283448Y0274022D02*
X0279378Y0274022D01*
X0279378Y0277817D02*
X0283448Y0277817D01*
X0285456Y0277817D02*
X0285456Y0281887D01*
X0287491Y0283922D01*
X0289526Y0281887D01*
X0289526Y0277817D01*
X0289526Y0280870D02*
X0285456Y0280870D01*
X0283448Y0281887D02*
X0281413Y0283922D01*
X0281413Y0277817D01*
X0277371Y0278834D02*
X0277371Y0282905D01*
X0276354Y0283922D01*
X0274319Y0283922D01*
X0273301Y0282905D01*
X0277371Y0278834D01*
X0276354Y0277817D01*
X0274319Y0277817D01*
X0273301Y0278834D01*
X0273301Y0282905D01*
X0274319Y0287717D02*
X0273301Y0288734D01*
X0273301Y0289752D01*
X0274319Y0290770D01*
X0277371Y0290770D01*
X0277371Y0288734D01*
X0276354Y0287717D01*
X0274319Y0287717D01*
X0277371Y0290770D02*
X0275336Y0292805D01*
X0273301Y0293822D01*
X0273301Y0297617D02*
X0277371Y0297617D01*
X0279378Y0297617D02*
X0283448Y0297617D01*
X0285456Y0297617D02*
X0285456Y0301687D01*
X0287491Y0303722D01*
X0289526Y0301687D01*
X0289526Y0297617D01*
X0289526Y0300670D02*
X0285456Y0300670D01*
X0283448Y0301687D02*
X0281413Y0303722D01*
X0281413Y0297617D01*
X0281413Y0293822D02*
X0281413Y0287717D01*
X0283448Y0287717D02*
X0279378Y0287717D01*
X0283448Y0291787D02*
X0281413Y0293822D01*
X0285456Y0291787D02*
X0285456Y0287717D01*
X0285456Y0290770D02*
X0289526Y0290770D01*
X0289526Y0291787D02*
X0289526Y0287717D01*
X0289526Y0291787D02*
X0287491Y0293822D01*
X0285456Y0291787D01*
X0277371Y0301687D02*
X0275336Y0303722D01*
X0275336Y0297617D01*
X0280396Y0307517D02*
X0279378Y0308534D01*
X0279378Y0312605D01*
X0280396Y0313622D01*
X0282431Y0313622D01*
X0283448Y0312605D01*
X0283448Y0311587D01*
X0282431Y0310570D01*
X0279378Y0310570D01*
X0280396Y0307517D02*
X0282431Y0307517D01*
X0283448Y0308534D01*
X0285456Y0307517D02*
X0285456Y0311587D01*
X0287491Y0313622D01*
X0289526Y0311587D01*
X0289526Y0307517D01*
X0289526Y0310570D02*
X0285456Y0310570D01*
X0285456Y0317417D02*
X0285456Y0321487D01*
X0287491Y0323522D01*
X0289526Y0321487D01*
X0289526Y0317417D01*
X0289526Y0320470D02*
X0285456Y0320470D01*
X0283448Y0321487D02*
X0283448Y0322505D01*
X0282431Y0323522D01*
X0280396Y0323522D01*
X0279378Y0322505D01*
X0279378Y0321487D01*
X0280396Y0320470D01*
X0282431Y0320470D01*
X0283448Y0321487D01*
X0282431Y0320470D02*
X0283448Y0319452D01*
X0283448Y0318434D01*
X0282431Y0317417D01*
X0280396Y0317417D01*
X0279378Y0318434D01*
X0279378Y0319452D01*
X0280396Y0320470D01*
X0281413Y0327317D02*
X0281413Y0333422D01*
X0283448Y0331387D01*
X0285456Y0331387D02*
X0285456Y0327317D01*
X0283448Y0327317D02*
X0279378Y0327317D01*
X0277371Y0328334D02*
X0276354Y0327317D01*
X0274319Y0327317D01*
X0273301Y0328334D01*
X0273301Y0329352D01*
X0274319Y0330370D01*
X0275336Y0330370D01*
X0274319Y0330370D02*
X0273301Y0331387D01*
X0273301Y0332405D01*
X0274319Y0333422D01*
X0276354Y0333422D01*
X0277371Y0332405D01*
X0279378Y0337217D02*
X0283448Y0337217D01*
X0285456Y0337217D02*
X0285456Y0341287D01*
X0287491Y0343322D01*
X0289526Y0341287D01*
X0289526Y0337217D01*
X0289526Y0340270D02*
X0285456Y0340270D01*
X0283448Y0341287D02*
X0281413Y0343322D01*
X0281413Y0337217D01*
X0277371Y0340270D02*
X0273301Y0340270D01*
X0274319Y0343322D02*
X0274319Y0337217D01*
X0277371Y0340270D02*
X0274319Y0343322D01*
X0274319Y0347117D02*
X0273301Y0348134D01*
X0273301Y0352205D01*
X0274319Y0353222D01*
X0276354Y0353222D01*
X0277371Y0352205D01*
X0277371Y0351187D01*
X0276354Y0350170D01*
X0273301Y0350170D01*
X0274319Y0347117D02*
X0276354Y0347117D01*
X0277371Y0348134D01*
X0279378Y0347117D02*
X0283448Y0347117D01*
X0285456Y0347117D02*
X0285456Y0351187D01*
X0287491Y0353222D01*
X0289526Y0351187D01*
X0289526Y0347117D01*
X0289526Y0350170D02*
X0285456Y0350170D01*
X0283448Y0351187D02*
X0281413Y0353222D01*
X0281413Y0347117D01*
X0283448Y0357017D02*
X0279378Y0357017D01*
X0281413Y0360070D02*
X0283448Y0360070D01*
X0285456Y0362105D02*
X0285456Y0358034D01*
X0286473Y0357017D01*
X0288508Y0357017D01*
X0289526Y0358034D01*
X0289526Y0362105D01*
X0288508Y0363122D01*
X0286473Y0363122D01*
X0285456Y0362105D01*
X0283448Y0363122D02*
X0283448Y0357017D01*
X0283448Y0363122D02*
X0279378Y0363122D01*
X0281413Y0366917D02*
X0279378Y0368952D01*
X0279378Y0373022D01*
X0279378Y0376817D02*
X0283448Y0376817D01*
X0279378Y0380887D01*
X0279378Y0381905D01*
X0280396Y0382922D01*
X0282431Y0382922D01*
X0283448Y0381905D01*
X0285456Y0380887D02*
X0285456Y0376817D01*
X0285456Y0379870D02*
X0289526Y0379870D01*
X0289526Y0380887D02*
X0287491Y0382922D01*
X0285456Y0380887D01*
X0289526Y0380887D02*
X0289526Y0376817D01*
X0289526Y0373022D02*
X0285456Y0373022D01*
X0283448Y0373022D02*
X0283448Y0368952D01*
X0281413Y0366917D01*
X0285456Y0367934D02*
X0286473Y0366917D01*
X0288508Y0366917D01*
X0289526Y0367934D01*
X0289526Y0369970D02*
X0287491Y0370987D01*
X0286473Y0370987D01*
X0285456Y0369970D01*
X0285456Y0367934D01*
X0289526Y0369970D02*
X0289526Y0373022D01*
X0277371Y0376817D02*
X0273301Y0380887D01*
X0273301Y0381905D01*
X0274319Y0382922D01*
X0276354Y0382922D01*
X0277371Y0381905D01*
X0277371Y0376817D02*
X0273301Y0376817D01*
X0279378Y0386717D02*
X0283448Y0386717D01*
X0283448Y0392822D01*
X0279378Y0392822D01*
X0281413Y0389770D02*
X0283448Y0389770D01*
X0285456Y0392822D02*
X0285456Y0386717D01*
X0287491Y0388752D01*
X0289526Y0386717D01*
X0289526Y0392822D01*
X0256511Y0390787D02*
X0256511Y0386717D01*
X0256511Y0389770D02*
X0252440Y0389770D01*
X0252440Y0390787D02*
X0252440Y0386717D01*
X0250433Y0386717D02*
X0246363Y0390787D01*
X0246363Y0391805D01*
X0247381Y0392822D01*
X0249416Y0392822D01*
X0250433Y0391805D01*
X0252440Y0390787D02*
X0254476Y0392822D01*
X0256511Y0390787D01*
X0250433Y0386717D02*
X0246363Y0386717D01*
X0244356Y0387734D02*
X0240286Y0391805D01*
X0240286Y0387734D01*
X0241304Y0386717D01*
X0243339Y0386717D01*
X0244356Y0387734D01*
X0244356Y0391805D01*
X0243339Y0392822D01*
X0241304Y0392822D01*
X0240286Y0391805D01*
X0242321Y0382922D02*
X0242321Y0376817D01*
X0244356Y0376817D02*
X0240286Y0376817D01*
X0240286Y0373022D02*
X0240286Y0372005D01*
X0244356Y0367934D01*
X0244356Y0366917D01*
X0246363Y0366917D02*
X0250433Y0366917D01*
X0252440Y0366917D02*
X0252440Y0370987D01*
X0254476Y0373022D01*
X0256511Y0370987D01*
X0256511Y0366917D01*
X0256511Y0369970D02*
X0252440Y0369970D01*
X0250433Y0370987D02*
X0248398Y0373022D01*
X0248398Y0366917D01*
X0244356Y0373022D02*
X0240286Y0373022D01*
X0246363Y0376817D02*
X0250433Y0376817D01*
X0246363Y0380887D01*
X0246363Y0381905D01*
X0247381Y0382922D01*
X0249416Y0382922D01*
X0250433Y0381905D01*
X0252440Y0380887D02*
X0252440Y0376817D01*
X0252440Y0379870D02*
X0256511Y0379870D01*
X0256511Y0380887D02*
X0254476Y0382922D01*
X0252440Y0380887D01*
X0256511Y0380887D02*
X0256511Y0376817D01*
X0244356Y0380887D02*
X0242321Y0382922D01*
X0287491Y0333422D02*
X0285456Y0331387D01*
X0285456Y0330370D02*
X0289526Y0330370D01*
X0289526Y0331387D02*
X0289526Y0327317D01*
X0289526Y0331387D02*
X0287491Y0333422D01*
X0336940Y0333422D02*
X0336940Y0332405D01*
X0341010Y0328334D01*
X0341010Y0327317D01*
X0343017Y0327317D02*
X0343017Y0331387D01*
X0345052Y0333422D01*
X0347087Y0331387D01*
X0347087Y0327317D01*
X0347087Y0330370D02*
X0343017Y0330370D01*
X0341010Y0333422D02*
X0336940Y0333422D01*
X0336940Y0337217D02*
X0341010Y0337217D01*
X0336940Y0341287D01*
X0336940Y0342305D01*
X0337957Y0343322D01*
X0339992Y0343322D01*
X0341010Y0342305D01*
X0345052Y0343322D02*
X0345052Y0337217D01*
X0347087Y0337217D02*
X0343017Y0337217D01*
X0347087Y0341287D02*
X0345052Y0343322D01*
X0345052Y0347117D02*
X0345052Y0353222D01*
X0347087Y0351187D01*
X0349094Y0351187D02*
X0349094Y0347117D01*
X0347087Y0347117D02*
X0343017Y0347117D01*
X0341010Y0348134D02*
X0339992Y0347117D01*
X0337957Y0347117D01*
X0336940Y0348134D01*
X0336940Y0350170D01*
X0337957Y0351187D01*
X0338975Y0351187D01*
X0341010Y0350170D01*
X0341010Y0353222D01*
X0336940Y0353222D01*
X0337957Y0357017D02*
X0339992Y0357017D01*
X0341010Y0358034D01*
X0341010Y0359052D01*
X0339992Y0360070D01*
X0337957Y0360070D01*
X0336940Y0359052D01*
X0336940Y0358034D01*
X0337957Y0357017D01*
X0337957Y0360070D02*
X0336940Y0361087D01*
X0336940Y0362105D01*
X0337957Y0363122D01*
X0339992Y0363122D01*
X0341010Y0362105D01*
X0341010Y0361087D01*
X0339992Y0360070D01*
X0343017Y0357017D02*
X0347087Y0357017D01*
X0349094Y0357017D02*
X0349094Y0361087D01*
X0351129Y0363122D01*
X0353164Y0361087D01*
X0353164Y0357017D01*
X0353164Y0360070D02*
X0349094Y0360070D01*
X0347087Y0361087D02*
X0345052Y0363122D01*
X0345052Y0357017D01*
X0349094Y0351187D02*
X0351129Y0353222D01*
X0353164Y0351187D01*
X0353164Y0347117D01*
X0353164Y0350170D02*
X0349094Y0350170D01*
X0351129Y0343322D02*
X0349094Y0341287D01*
X0349094Y0337217D01*
X0349094Y0340270D02*
X0353164Y0340270D01*
X0353164Y0341287D02*
X0351129Y0343322D01*
X0353164Y0341287D02*
X0353164Y0337217D01*
X0345052Y0323522D02*
X0343017Y0321487D01*
X0343017Y0317417D01*
X0341010Y0318434D02*
X0339992Y0317417D01*
X0337957Y0317417D01*
X0336940Y0318434D01*
X0336940Y0319452D01*
X0337957Y0320470D01*
X0341010Y0320470D01*
X0341010Y0318434D01*
X0341010Y0320470D02*
X0338975Y0322505D01*
X0336940Y0323522D01*
X0343017Y0320470D02*
X0347087Y0320470D01*
X0347087Y0321487D02*
X0345052Y0323522D01*
X0347087Y0321487D02*
X0347087Y0317417D01*
X0345052Y0313622D02*
X0343017Y0311587D01*
X0343017Y0307517D01*
X0341010Y0308534D02*
X0339992Y0307517D01*
X0337957Y0307517D01*
X0336940Y0308534D01*
X0336940Y0310570D01*
X0337957Y0311587D01*
X0338975Y0311587D01*
X0341010Y0310570D01*
X0341010Y0313622D01*
X0336940Y0313622D01*
X0343017Y0310570D02*
X0347087Y0310570D01*
X0347087Y0311587D02*
X0347087Y0307517D01*
X0347087Y0311587D02*
X0345052Y0313622D01*
X0345052Y0303722D02*
X0343017Y0301687D01*
X0343017Y0297617D01*
X0343017Y0300670D02*
X0347087Y0300670D01*
X0347087Y0301687D02*
X0345052Y0303722D01*
X0347087Y0301687D02*
X0347087Y0297617D01*
X0345052Y0293822D02*
X0343017Y0291787D01*
X0343017Y0287717D01*
X0341010Y0288734D02*
X0339992Y0287717D01*
X0337957Y0287717D01*
X0336940Y0288734D01*
X0336940Y0289752D01*
X0337957Y0290770D01*
X0338975Y0290770D01*
X0337957Y0290770D02*
X0336940Y0291787D01*
X0336940Y0292805D01*
X0337957Y0293822D01*
X0339992Y0293822D01*
X0341010Y0292805D01*
X0343017Y0290770D02*
X0347087Y0290770D01*
X0347087Y0291787D02*
X0347087Y0287717D01*
X0347087Y0291787D02*
X0345052Y0293822D01*
X0341010Y0300670D02*
X0336940Y0300670D01*
X0337957Y0303722D02*
X0337957Y0297617D01*
X0341010Y0300670D02*
X0337957Y0303722D01*
X0337957Y0283922D02*
X0339992Y0283922D01*
X0341010Y0282905D01*
X0343017Y0281887D02*
X0343017Y0277817D01*
X0341010Y0277817D02*
X0336940Y0281887D01*
X0336940Y0282905D01*
X0337957Y0283922D01*
X0343017Y0281887D02*
X0345052Y0283922D01*
X0347087Y0281887D01*
X0347087Y0277817D01*
X0347087Y0280870D02*
X0343017Y0280870D01*
X0341010Y0277817D02*
X0336940Y0277817D01*
X0338975Y0274022D02*
X0338975Y0267917D01*
X0341010Y0267917D02*
X0336940Y0267917D01*
X0337957Y0264122D02*
X0336940Y0263105D01*
X0341010Y0259034D01*
X0339992Y0258017D01*
X0337957Y0258017D01*
X0336940Y0259034D01*
X0336940Y0263105D01*
X0337957Y0264122D02*
X0339992Y0264122D01*
X0341010Y0263105D01*
X0341010Y0259034D01*
X0343017Y0258017D02*
X0343017Y0262087D01*
X0345052Y0264122D01*
X0347087Y0262087D01*
X0347087Y0258017D01*
X0347087Y0261070D02*
X0343017Y0261070D01*
X0343017Y0267917D02*
X0343017Y0271987D01*
X0345052Y0274022D01*
X0347087Y0271987D01*
X0347087Y0267917D01*
X0347087Y0270970D02*
X0343017Y0270970D01*
X0341010Y0271987D02*
X0338975Y0274022D01*
X0339992Y0254222D02*
X0337957Y0254222D01*
X0336940Y0253205D01*
X0341010Y0249134D01*
X0339992Y0248117D01*
X0337957Y0248117D01*
X0336940Y0249134D01*
X0336940Y0253205D01*
X0339992Y0254222D02*
X0341010Y0253205D01*
X0341010Y0249134D01*
X0343017Y0249134D02*
X0343017Y0253205D01*
X0344034Y0254222D01*
X0347087Y0254222D01*
X0347087Y0248117D01*
X0344034Y0248117D01*
X0343017Y0249134D01*
X0344034Y0244322D02*
X0347087Y0244322D01*
X0347087Y0238217D01*
X0344034Y0238217D01*
X0343017Y0239234D01*
X0343017Y0243305D01*
X0344034Y0244322D01*
X0341010Y0242287D02*
X0338975Y0244322D01*
X0338975Y0238217D01*
X0341010Y0238217D02*
X0336940Y0238217D01*
X0337957Y0234422D02*
X0339992Y0234422D01*
X0341010Y0233405D01*
X0343017Y0233405D02*
X0344034Y0234422D01*
X0347087Y0234422D01*
X0347087Y0228317D01*
X0344034Y0228317D01*
X0343017Y0229334D01*
X0343017Y0233405D01*
X0337957Y0234422D02*
X0336940Y0233405D01*
X0336940Y0232387D01*
X0341010Y0228317D01*
X0336940Y0228317D01*
X0337957Y0224522D02*
X0341010Y0224522D01*
X0341010Y0218417D01*
X0337957Y0218417D01*
X0336940Y0219434D01*
X0336940Y0223505D01*
X0337957Y0224522D01*
X0343017Y0224522D02*
X0343017Y0218417D01*
X0347087Y0224522D01*
X0347087Y0218417D01*
X0349094Y0219434D02*
X0349094Y0221470D01*
X0351129Y0221470D01*
X0349094Y0223505D02*
X0350112Y0224522D01*
X0352147Y0224522D01*
X0353164Y0223505D01*
X0353164Y0219434D01*
X0352147Y0218417D01*
X0350112Y0218417D01*
X0349094Y0219434D01*
X0375835Y0219434D02*
X0376853Y0218417D01*
X0378888Y0218417D01*
X0379905Y0219434D01*
X0381912Y0219434D02*
X0382930Y0218417D01*
X0385982Y0218417D01*
X0385982Y0224522D01*
X0382930Y0224522D01*
X0381912Y0223505D01*
X0381912Y0219434D01*
X0377870Y0221470D02*
X0376853Y0221470D01*
X0375835Y0220452D01*
X0375835Y0219434D01*
X0376853Y0221470D02*
X0375835Y0222487D01*
X0375835Y0223505D01*
X0376853Y0224522D01*
X0378888Y0224522D01*
X0379905Y0223505D01*
X0382930Y0228317D02*
X0381912Y0229334D01*
X0381912Y0233405D01*
X0382930Y0234422D01*
X0385982Y0234422D01*
X0385982Y0228317D01*
X0382930Y0228317D01*
X0379905Y0231370D02*
X0375835Y0231370D01*
X0376853Y0234422D02*
X0376853Y0228317D01*
X0379905Y0231370D02*
X0376853Y0234422D01*
X0376853Y0238217D02*
X0378888Y0238217D01*
X0379905Y0239234D01*
X0381912Y0239234D02*
X0382930Y0238217D01*
X0385982Y0238217D01*
X0385982Y0244322D01*
X0382930Y0244322D01*
X0381912Y0243305D01*
X0381912Y0239234D01*
X0379905Y0241270D02*
X0379905Y0244322D01*
X0375835Y0244322D01*
X0376853Y0242287D02*
X0375835Y0241270D01*
X0375835Y0239234D01*
X0376853Y0238217D01*
X0376853Y0242287D02*
X0377870Y0242287D01*
X0379905Y0241270D01*
X0378888Y0248117D02*
X0376853Y0248117D01*
X0375835Y0249134D01*
X0375835Y0250152D01*
X0376853Y0251170D01*
X0379905Y0251170D01*
X0379905Y0249134D01*
X0378888Y0248117D01*
X0381912Y0249134D02*
X0381912Y0253205D01*
X0382930Y0254222D01*
X0385982Y0254222D01*
X0385982Y0248117D01*
X0382930Y0248117D01*
X0381912Y0249134D01*
X0379905Y0251170D02*
X0377870Y0253205D01*
X0375835Y0254222D01*
X0379905Y0258017D02*
X0379905Y0259034D01*
X0375835Y0263105D01*
X0375835Y0264122D01*
X0379905Y0264122D01*
X0381912Y0263105D02*
X0381912Y0259034D01*
X0382930Y0258017D01*
X0385982Y0258017D01*
X0385982Y0264122D01*
X0382930Y0264122D01*
X0381912Y0263105D01*
X0382930Y0267917D02*
X0381912Y0268934D01*
X0382930Y0267917D02*
X0384965Y0267917D01*
X0385982Y0268934D01*
X0385982Y0273005D01*
X0384965Y0274022D01*
X0382930Y0274022D01*
X0381912Y0273005D01*
X0379905Y0274022D02*
X0379905Y0267917D01*
X0375835Y0267917D01*
X0377870Y0270970D02*
X0379905Y0270970D01*
X0379905Y0274022D02*
X0375835Y0274022D01*
X0375835Y0277817D02*
X0379905Y0277817D01*
X0381912Y0277817D02*
X0381912Y0281887D01*
X0383947Y0283922D01*
X0385982Y0281887D01*
X0385982Y0277817D01*
X0385982Y0280870D02*
X0381912Y0280870D01*
X0379905Y0281887D02*
X0377870Y0283922D01*
X0377870Y0277817D01*
X0373828Y0278834D02*
X0373828Y0282905D01*
X0372810Y0283922D01*
X0370775Y0283922D01*
X0369758Y0282905D01*
X0373828Y0278834D01*
X0372810Y0277817D01*
X0370775Y0277817D01*
X0369758Y0278834D01*
X0369758Y0282905D01*
X0370775Y0287717D02*
X0369758Y0288734D01*
X0369758Y0289752D01*
X0370775Y0290770D01*
X0373828Y0290770D01*
X0373828Y0288734D01*
X0372810Y0287717D01*
X0370775Y0287717D01*
X0373828Y0290770D02*
X0371793Y0292805D01*
X0369758Y0293822D01*
X0369758Y0297617D02*
X0373828Y0297617D01*
X0375835Y0297617D02*
X0379905Y0297617D01*
X0381912Y0297617D02*
X0381912Y0301687D01*
X0383947Y0303722D01*
X0385982Y0301687D01*
X0385982Y0297617D01*
X0385982Y0300670D02*
X0381912Y0300670D01*
X0379905Y0301687D02*
X0377870Y0303722D01*
X0377870Y0297617D01*
X0377870Y0293822D02*
X0377870Y0287717D01*
X0379905Y0287717D02*
X0375835Y0287717D01*
X0379905Y0291787D02*
X0377870Y0293822D01*
X0381912Y0291787D02*
X0381912Y0287717D01*
X0381912Y0290770D02*
X0385982Y0290770D01*
X0385982Y0291787D02*
X0385982Y0287717D01*
X0385982Y0291787D02*
X0383947Y0293822D01*
X0381912Y0291787D01*
X0373828Y0301687D02*
X0371793Y0303722D01*
X0371793Y0297617D01*
X0376853Y0307517D02*
X0375835Y0308534D01*
X0375835Y0312605D01*
X0376853Y0313622D01*
X0378888Y0313622D01*
X0379905Y0312605D01*
X0379905Y0311587D01*
X0378888Y0310570D01*
X0375835Y0310570D01*
X0376853Y0307517D02*
X0378888Y0307517D01*
X0379905Y0308534D01*
X0381912Y0307517D02*
X0381912Y0311587D01*
X0383947Y0313622D01*
X0385982Y0311587D01*
X0385982Y0307517D01*
X0385982Y0310570D02*
X0381912Y0310570D01*
X0381912Y0317417D02*
X0381912Y0321487D01*
X0383947Y0323522D01*
X0385982Y0321487D01*
X0385982Y0317417D01*
X0385982Y0320470D02*
X0381912Y0320470D01*
X0379905Y0321487D02*
X0379905Y0322505D01*
X0378888Y0323522D01*
X0376853Y0323522D01*
X0375835Y0322505D01*
X0375835Y0321487D01*
X0376853Y0320470D01*
X0378888Y0320470D01*
X0379905Y0321487D01*
X0378888Y0320470D02*
X0379905Y0319452D01*
X0379905Y0318434D01*
X0378888Y0317417D01*
X0376853Y0317417D01*
X0375835Y0318434D01*
X0375835Y0319452D01*
X0376853Y0320470D01*
X0377870Y0327317D02*
X0377870Y0333422D01*
X0379905Y0331387D01*
X0381912Y0331387D02*
X0381912Y0327317D01*
X0379905Y0327317D02*
X0375835Y0327317D01*
X0373828Y0328334D02*
X0372810Y0327317D01*
X0370775Y0327317D01*
X0369758Y0328334D01*
X0369758Y0329352D01*
X0370775Y0330370D01*
X0371793Y0330370D01*
X0370775Y0330370D02*
X0369758Y0331387D01*
X0369758Y0332405D01*
X0370775Y0333422D01*
X0372810Y0333422D01*
X0373828Y0332405D01*
X0375835Y0337217D02*
X0379905Y0337217D01*
X0381912Y0337217D02*
X0381912Y0341287D01*
X0383947Y0343322D01*
X0385982Y0341287D01*
X0385982Y0337217D01*
X0385982Y0340270D02*
X0381912Y0340270D01*
X0379905Y0341287D02*
X0377870Y0343322D01*
X0377870Y0337217D01*
X0373828Y0340270D02*
X0369758Y0340270D01*
X0370775Y0343322D02*
X0370775Y0337217D01*
X0373828Y0340270D02*
X0370775Y0343322D01*
X0370775Y0347117D02*
X0369758Y0348134D01*
X0369758Y0352205D01*
X0370775Y0353222D01*
X0372810Y0353222D01*
X0373828Y0352205D01*
X0373828Y0351187D01*
X0372810Y0350170D01*
X0369758Y0350170D01*
X0370775Y0347117D02*
X0372810Y0347117D01*
X0373828Y0348134D01*
X0375835Y0347117D02*
X0379905Y0347117D01*
X0381912Y0347117D02*
X0381912Y0351187D01*
X0383947Y0353222D01*
X0385982Y0351187D01*
X0385982Y0347117D01*
X0385982Y0350170D02*
X0381912Y0350170D01*
X0379905Y0351187D02*
X0377870Y0353222D01*
X0377870Y0347117D01*
X0379905Y0357017D02*
X0375835Y0357017D01*
X0377870Y0360070D02*
X0379905Y0360070D01*
X0381912Y0358034D02*
X0381912Y0362105D01*
X0382930Y0363122D01*
X0384965Y0363122D01*
X0385982Y0362105D01*
X0385982Y0358034D01*
X0384965Y0357017D01*
X0382930Y0357017D01*
X0381912Y0358034D01*
X0379905Y0357017D02*
X0379905Y0363122D01*
X0375835Y0363122D01*
X0377870Y0366917D02*
X0375835Y0368952D01*
X0375835Y0373022D01*
X0375835Y0376817D02*
X0379905Y0376817D01*
X0375835Y0380887D01*
X0375835Y0381905D01*
X0376853Y0382922D01*
X0378888Y0382922D01*
X0379905Y0381905D01*
X0381912Y0380887D02*
X0381912Y0376817D01*
X0381912Y0379870D02*
X0385982Y0379870D01*
X0385982Y0380887D02*
X0383947Y0382922D01*
X0381912Y0380887D01*
X0385982Y0380887D02*
X0385982Y0376817D01*
X0385982Y0373022D02*
X0381912Y0373022D01*
X0379905Y0373022D02*
X0379905Y0368952D01*
X0377870Y0366917D01*
X0381912Y0367934D02*
X0382930Y0366917D01*
X0384965Y0366917D01*
X0385982Y0367934D01*
X0385982Y0369970D02*
X0383947Y0370987D01*
X0382930Y0370987D01*
X0381912Y0369970D01*
X0381912Y0367934D01*
X0385982Y0369970D02*
X0385982Y0373022D01*
X0373828Y0376817D02*
X0369758Y0380887D01*
X0369758Y0381905D01*
X0370775Y0382922D01*
X0372810Y0382922D01*
X0373828Y0381905D01*
X0373828Y0376817D02*
X0369758Y0376817D01*
X0375835Y0386717D02*
X0379905Y0386717D01*
X0379905Y0392822D01*
X0375835Y0392822D01*
X0377870Y0389770D02*
X0379905Y0389770D01*
X0381912Y0392822D02*
X0381912Y0386717D01*
X0383947Y0388752D01*
X0385982Y0386717D01*
X0385982Y0392822D01*
X0353164Y0390787D02*
X0353164Y0386717D01*
X0353164Y0389770D02*
X0349094Y0389770D01*
X0349094Y0390787D02*
X0349094Y0386717D01*
X0347087Y0386717D02*
X0343017Y0390787D01*
X0343017Y0391805D01*
X0344034Y0392822D01*
X0346069Y0392822D01*
X0347087Y0391805D01*
X0349094Y0390787D02*
X0351129Y0392822D01*
X0353164Y0390787D01*
X0347087Y0386717D02*
X0343017Y0386717D01*
X0341010Y0387734D02*
X0336940Y0391805D01*
X0336940Y0387734D01*
X0337957Y0386717D01*
X0339992Y0386717D01*
X0341010Y0387734D01*
X0341010Y0391805D01*
X0339992Y0392822D01*
X0337957Y0392822D01*
X0336940Y0391805D01*
X0338975Y0382922D02*
X0338975Y0376817D01*
X0341010Y0376817D02*
X0336940Y0376817D01*
X0336940Y0373022D02*
X0336940Y0372005D01*
X0341010Y0367934D01*
X0341010Y0366917D01*
X0343017Y0366917D02*
X0347087Y0366917D01*
X0349094Y0366917D02*
X0349094Y0370987D01*
X0351129Y0373022D01*
X0353164Y0370987D01*
X0353164Y0366917D01*
X0353164Y0369970D02*
X0349094Y0369970D01*
X0347087Y0370987D02*
X0345052Y0373022D01*
X0345052Y0366917D01*
X0341010Y0373022D02*
X0336940Y0373022D01*
X0343017Y0376817D02*
X0347087Y0376817D01*
X0343017Y0380887D01*
X0343017Y0381905D01*
X0344034Y0382922D01*
X0346069Y0382922D01*
X0347087Y0381905D01*
X0349094Y0380887D02*
X0349094Y0376817D01*
X0349094Y0379870D02*
X0353164Y0379870D01*
X0353164Y0380887D02*
X0351129Y0382922D01*
X0349094Y0380887D01*
X0353164Y0380887D02*
X0353164Y0376817D01*
X0341010Y0380887D02*
X0338975Y0382922D01*
X0383947Y0333422D02*
X0381912Y0331387D01*
X0381912Y0330370D02*
X0385982Y0330370D01*
X0385982Y0331387D02*
X0385982Y0327317D01*
X0385982Y0331387D02*
X0383947Y0333422D01*
X0289526Y0254222D02*
X0289526Y0248117D01*
X0286473Y0248117D01*
X0285456Y0249134D01*
X0285456Y0253205D01*
X0286473Y0254222D01*
X0289526Y0254222D01*
X0191100Y0254222D02*
X0191100Y0248117D01*
X0188048Y0248117D01*
X0187030Y0249134D01*
X0187030Y0253205D01*
X0188048Y0254222D01*
X0191100Y0254222D01*
D11*
X0021485Y0006118D02*
X0021485Y0005724D01*
X0021485Y0006118D01*
X0021485Y0044307D01*
X0001800Y0044307D01*
X0001800Y0199819D01*
X0035265Y0199819D01*
X0035265Y0215567D01*
X0035265Y0396669D01*
X0062824Y0396669D01*
X0062826Y0396479D01*
X0062833Y0396289D01*
X0062845Y0396099D01*
X0062861Y0395909D01*
X0062881Y0395720D01*
X0062907Y0395531D01*
X0062936Y0395343D01*
X0062971Y0395156D01*
X0063010Y0394970D01*
X0063053Y0394785D01*
X0063101Y0394600D01*
X0063153Y0394417D01*
X0063209Y0394236D01*
X0063270Y0394056D01*
X0063336Y0393877D01*
X0063405Y0393700D01*
X0063479Y0393524D01*
X0063557Y0393351D01*
X0063640Y0393179D01*
X0063726Y0393010D01*
X0063816Y0392842D01*
X0063911Y0392677D01*
X0064009Y0392514D01*
X0064112Y0392354D01*
X0064218Y0392196D01*
X0064328Y0392041D01*
X0064441Y0391888D01*
X0064559Y0391738D01*
X0064680Y0391592D01*
X0064804Y0391448D01*
X0064932Y0391307D01*
X0065063Y0391169D01*
X0065198Y0391034D01*
X0065336Y0390903D01*
X0065477Y0390775D01*
X0065621Y0390651D01*
X0065767Y0390530D01*
X0065917Y0390412D01*
X0066070Y0390299D01*
X0066225Y0390189D01*
X0066383Y0390083D01*
X0066543Y0389980D01*
X0066706Y0389882D01*
X0066871Y0389787D01*
X0067039Y0389697D01*
X0067208Y0389611D01*
X0067380Y0389528D01*
X0067553Y0389450D01*
X0067729Y0389376D01*
X0067906Y0389307D01*
X0068085Y0389241D01*
X0068265Y0389180D01*
X0068446Y0389124D01*
X0068629Y0389072D01*
X0068814Y0389024D01*
X0068999Y0388981D01*
X0069185Y0388942D01*
X0069372Y0388907D01*
X0069560Y0388878D01*
X0069749Y0388852D01*
X0069938Y0388832D01*
X0070128Y0388816D01*
X0070318Y0388804D01*
X0070508Y0388797D01*
X0070698Y0388795D01*
X0070850Y0388797D01*
X0071002Y0388803D01*
X0071154Y0388813D01*
X0071305Y0388826D01*
X0071456Y0388844D01*
X0071607Y0388865D01*
X0071757Y0388891D01*
X0071906Y0388920D01*
X0072055Y0388953D01*
X0072202Y0388990D01*
X0072349Y0389030D01*
X0072494Y0389075D01*
X0072638Y0389123D01*
X0072781Y0389175D01*
X0072923Y0389230D01*
X0073063Y0389289D01*
X0073202Y0389352D01*
X0073339Y0389418D01*
X0073474Y0389488D01*
X0073607Y0389561D01*
X0073738Y0389638D01*
X0073868Y0389718D01*
X0073995Y0389801D01*
X0074120Y0389887D01*
X0074243Y0389977D01*
X0074363Y0390070D01*
X0074481Y0390166D01*
X0074597Y0390265D01*
X0074710Y0390367D01*
X0074820Y0390471D01*
X0074928Y0390579D01*
X0075032Y0390689D01*
X0075134Y0390802D01*
X0075233Y0390918D01*
X0075329Y0391036D01*
X0075422Y0391156D01*
X0075512Y0391279D01*
X0075598Y0391404D01*
X0075681Y0391531D01*
X0075761Y0391661D01*
X0075838Y0391792D01*
X0075911Y0391925D01*
X0075981Y0392060D01*
X0076047Y0392197D01*
X0076110Y0392336D01*
X0076169Y0392476D01*
X0076224Y0392618D01*
X0076276Y0392761D01*
X0076324Y0392905D01*
X0076369Y0393050D01*
X0076409Y0393197D01*
X0076446Y0393344D01*
X0076479Y0393493D01*
X0076508Y0393642D01*
X0076534Y0393792D01*
X0076555Y0393943D01*
X0076573Y0394094D01*
X0076586Y0394245D01*
X0076596Y0394397D01*
X0076602Y0394549D01*
X0076604Y0394701D01*
X0076603Y0394701D02*
X0076603Y0396669D01*
X0105146Y0396669D01*
X0157312Y0396669D01*
X0157314Y0396479D01*
X0157321Y0396289D01*
X0157333Y0396099D01*
X0157349Y0395909D01*
X0157369Y0395720D01*
X0157395Y0395531D01*
X0157424Y0395343D01*
X0157459Y0395156D01*
X0157498Y0394970D01*
X0157541Y0394785D01*
X0157589Y0394600D01*
X0157641Y0394417D01*
X0157697Y0394236D01*
X0157758Y0394056D01*
X0157824Y0393877D01*
X0157893Y0393700D01*
X0157967Y0393524D01*
X0158045Y0393351D01*
X0158128Y0393179D01*
X0158214Y0393010D01*
X0158304Y0392842D01*
X0158399Y0392677D01*
X0158497Y0392514D01*
X0158600Y0392354D01*
X0158706Y0392196D01*
X0158816Y0392041D01*
X0158929Y0391888D01*
X0159047Y0391738D01*
X0159168Y0391592D01*
X0159292Y0391448D01*
X0159420Y0391307D01*
X0159551Y0391169D01*
X0159686Y0391034D01*
X0159824Y0390903D01*
X0159965Y0390775D01*
X0160109Y0390651D01*
X0160255Y0390530D01*
X0160405Y0390412D01*
X0160558Y0390299D01*
X0160713Y0390189D01*
X0160871Y0390083D01*
X0161031Y0389980D01*
X0161194Y0389882D01*
X0161359Y0389787D01*
X0161527Y0389697D01*
X0161696Y0389611D01*
X0161868Y0389528D01*
X0162041Y0389450D01*
X0162217Y0389376D01*
X0162394Y0389307D01*
X0162573Y0389241D01*
X0162753Y0389180D01*
X0162934Y0389124D01*
X0163117Y0389072D01*
X0163302Y0389024D01*
X0163487Y0388981D01*
X0163673Y0388942D01*
X0163860Y0388907D01*
X0164048Y0388878D01*
X0164237Y0388852D01*
X0164426Y0388832D01*
X0164616Y0388816D01*
X0164806Y0388804D01*
X0164996Y0388797D01*
X0165186Y0388795D01*
X0165376Y0388797D01*
X0165566Y0388804D01*
X0165756Y0388816D01*
X0165946Y0388832D01*
X0166135Y0388852D01*
X0166324Y0388878D01*
X0166512Y0388907D01*
X0166699Y0388942D01*
X0166885Y0388981D01*
X0167070Y0389024D01*
X0167255Y0389072D01*
X0167438Y0389124D01*
X0167619Y0389180D01*
X0167799Y0389241D01*
X0167978Y0389307D01*
X0168155Y0389376D01*
X0168331Y0389450D01*
X0168504Y0389528D01*
X0168676Y0389611D01*
X0168845Y0389697D01*
X0169013Y0389787D01*
X0169178Y0389882D01*
X0169341Y0389980D01*
X0169501Y0390083D01*
X0169659Y0390189D01*
X0169814Y0390299D01*
X0169967Y0390412D01*
X0170117Y0390530D01*
X0170263Y0390651D01*
X0170407Y0390775D01*
X0170548Y0390903D01*
X0170686Y0391034D01*
X0170821Y0391169D01*
X0170952Y0391307D01*
X0171080Y0391448D01*
X0171204Y0391592D01*
X0171325Y0391738D01*
X0171443Y0391888D01*
X0171556Y0392041D01*
X0171666Y0392196D01*
X0171772Y0392354D01*
X0171875Y0392514D01*
X0171973Y0392677D01*
X0172068Y0392842D01*
X0172158Y0393010D01*
X0172244Y0393179D01*
X0172327Y0393351D01*
X0172405Y0393524D01*
X0172479Y0393700D01*
X0172548Y0393877D01*
X0172614Y0394056D01*
X0172675Y0394236D01*
X0172731Y0394417D01*
X0172783Y0394600D01*
X0172831Y0394785D01*
X0172874Y0394970D01*
X0172913Y0395156D01*
X0172948Y0395343D01*
X0172977Y0395531D01*
X0173003Y0395720D01*
X0173023Y0395909D01*
X0173039Y0396099D01*
X0173051Y0396289D01*
X0173058Y0396479D01*
X0173060Y0396669D01*
X0255737Y0396669D01*
X0255739Y0396479D01*
X0255746Y0396289D01*
X0255758Y0396099D01*
X0255774Y0395909D01*
X0255794Y0395720D01*
X0255820Y0395531D01*
X0255849Y0395343D01*
X0255884Y0395156D01*
X0255923Y0394970D01*
X0255966Y0394785D01*
X0256014Y0394600D01*
X0256066Y0394417D01*
X0256122Y0394236D01*
X0256183Y0394056D01*
X0256249Y0393877D01*
X0256318Y0393700D01*
X0256392Y0393524D01*
X0256470Y0393351D01*
X0256553Y0393179D01*
X0256639Y0393010D01*
X0256729Y0392842D01*
X0256824Y0392677D01*
X0256922Y0392514D01*
X0257025Y0392354D01*
X0257131Y0392196D01*
X0257241Y0392041D01*
X0257354Y0391888D01*
X0257472Y0391738D01*
X0257593Y0391592D01*
X0257717Y0391448D01*
X0257845Y0391307D01*
X0257976Y0391169D01*
X0258111Y0391034D01*
X0258249Y0390903D01*
X0258390Y0390775D01*
X0258534Y0390651D01*
X0258680Y0390530D01*
X0258830Y0390412D01*
X0258983Y0390299D01*
X0259138Y0390189D01*
X0259296Y0390083D01*
X0259456Y0389980D01*
X0259619Y0389882D01*
X0259784Y0389787D01*
X0259952Y0389697D01*
X0260121Y0389611D01*
X0260293Y0389528D01*
X0260466Y0389450D01*
X0260642Y0389376D01*
X0260819Y0389307D01*
X0260998Y0389241D01*
X0261178Y0389180D01*
X0261359Y0389124D01*
X0261542Y0389072D01*
X0261727Y0389024D01*
X0261912Y0388981D01*
X0262098Y0388942D01*
X0262285Y0388907D01*
X0262473Y0388878D01*
X0262662Y0388852D01*
X0262851Y0388832D01*
X0263041Y0388816D01*
X0263231Y0388804D01*
X0263421Y0388797D01*
X0263611Y0388795D01*
X0263801Y0388797D01*
X0263991Y0388804D01*
X0264181Y0388816D01*
X0264371Y0388832D01*
X0264560Y0388852D01*
X0264749Y0388878D01*
X0264937Y0388907D01*
X0265124Y0388942D01*
X0265310Y0388981D01*
X0265495Y0389024D01*
X0265680Y0389072D01*
X0265863Y0389124D01*
X0266044Y0389180D01*
X0266224Y0389241D01*
X0266403Y0389307D01*
X0266580Y0389376D01*
X0266756Y0389450D01*
X0266929Y0389528D01*
X0267101Y0389611D01*
X0267270Y0389697D01*
X0267438Y0389787D01*
X0267603Y0389882D01*
X0267766Y0389980D01*
X0267926Y0390083D01*
X0268084Y0390189D01*
X0268239Y0390299D01*
X0268392Y0390412D01*
X0268542Y0390530D01*
X0268688Y0390651D01*
X0268832Y0390775D01*
X0268973Y0390903D01*
X0269111Y0391034D01*
X0269246Y0391169D01*
X0269377Y0391307D01*
X0269505Y0391448D01*
X0269629Y0391592D01*
X0269750Y0391738D01*
X0269868Y0391888D01*
X0269981Y0392041D01*
X0270091Y0392196D01*
X0270197Y0392354D01*
X0270300Y0392514D01*
X0270398Y0392677D01*
X0270493Y0392842D01*
X0270583Y0393010D01*
X0270669Y0393179D01*
X0270752Y0393351D01*
X0270830Y0393524D01*
X0270904Y0393700D01*
X0270973Y0393877D01*
X0271039Y0394056D01*
X0271100Y0394236D01*
X0271156Y0394417D01*
X0271208Y0394600D01*
X0271256Y0394785D01*
X0271299Y0394970D01*
X0271338Y0395156D01*
X0271373Y0395343D01*
X0271402Y0395531D01*
X0271428Y0395720D01*
X0271448Y0395909D01*
X0271464Y0396099D01*
X0271476Y0396289D01*
X0271483Y0396479D01*
X0271485Y0396669D01*
X0352194Y0396669D01*
X0352196Y0396479D01*
X0352203Y0396289D01*
X0352215Y0396099D01*
X0352231Y0395909D01*
X0352251Y0395720D01*
X0352277Y0395531D01*
X0352306Y0395343D01*
X0352341Y0395156D01*
X0352380Y0394970D01*
X0352423Y0394785D01*
X0352471Y0394600D01*
X0352523Y0394417D01*
X0352579Y0394236D01*
X0352640Y0394056D01*
X0352706Y0393877D01*
X0352775Y0393700D01*
X0352849Y0393524D01*
X0352927Y0393351D01*
X0353010Y0393179D01*
X0353096Y0393010D01*
X0353186Y0392842D01*
X0353281Y0392677D01*
X0353379Y0392514D01*
X0353482Y0392354D01*
X0353588Y0392196D01*
X0353698Y0392041D01*
X0353811Y0391888D01*
X0353929Y0391738D01*
X0354050Y0391592D01*
X0354174Y0391448D01*
X0354302Y0391307D01*
X0354433Y0391169D01*
X0354568Y0391034D01*
X0354706Y0390903D01*
X0354847Y0390775D01*
X0354991Y0390651D01*
X0355137Y0390530D01*
X0355287Y0390412D01*
X0355440Y0390299D01*
X0355595Y0390189D01*
X0355753Y0390083D01*
X0355913Y0389980D01*
X0356076Y0389882D01*
X0356241Y0389787D01*
X0356409Y0389697D01*
X0356578Y0389611D01*
X0356750Y0389528D01*
X0356923Y0389450D01*
X0357099Y0389376D01*
X0357276Y0389307D01*
X0357455Y0389241D01*
X0357635Y0389180D01*
X0357816Y0389124D01*
X0357999Y0389072D01*
X0358184Y0389024D01*
X0358369Y0388981D01*
X0358555Y0388942D01*
X0358742Y0388907D01*
X0358930Y0388878D01*
X0359119Y0388852D01*
X0359308Y0388832D01*
X0359498Y0388816D01*
X0359688Y0388804D01*
X0359878Y0388797D01*
X0360068Y0388795D01*
X0360258Y0388797D01*
X0360448Y0388804D01*
X0360638Y0388816D01*
X0360828Y0388832D01*
X0361017Y0388852D01*
X0361206Y0388878D01*
X0361394Y0388907D01*
X0361581Y0388942D01*
X0361767Y0388981D01*
X0361952Y0389024D01*
X0362137Y0389072D01*
X0362320Y0389124D01*
X0362501Y0389180D01*
X0362681Y0389241D01*
X0362860Y0389307D01*
X0363037Y0389376D01*
X0363213Y0389450D01*
X0363386Y0389528D01*
X0363558Y0389611D01*
X0363727Y0389697D01*
X0363895Y0389787D01*
X0364060Y0389882D01*
X0364223Y0389980D01*
X0364383Y0390083D01*
X0364541Y0390189D01*
X0364696Y0390299D01*
X0364849Y0390412D01*
X0364999Y0390530D01*
X0365145Y0390651D01*
X0365289Y0390775D01*
X0365430Y0390903D01*
X0365568Y0391034D01*
X0365703Y0391169D01*
X0365834Y0391307D01*
X0365962Y0391448D01*
X0366086Y0391592D01*
X0366207Y0391738D01*
X0366325Y0391888D01*
X0366438Y0392041D01*
X0366548Y0392196D01*
X0366654Y0392354D01*
X0366757Y0392514D01*
X0366855Y0392677D01*
X0366950Y0392842D01*
X0367040Y0393010D01*
X0367126Y0393179D01*
X0367209Y0393351D01*
X0367287Y0393524D01*
X0367361Y0393700D01*
X0367430Y0393877D01*
X0367496Y0394056D01*
X0367557Y0394236D01*
X0367613Y0394417D01*
X0367665Y0394600D01*
X0367713Y0394785D01*
X0367756Y0394970D01*
X0367795Y0395156D01*
X0367830Y0395343D01*
X0367859Y0395531D01*
X0367885Y0395720D01*
X0367905Y0395909D01*
X0367921Y0396099D01*
X0367933Y0396289D01*
X0367940Y0396479D01*
X0367942Y0396669D01*
X0395501Y0396669D01*
X0395501Y0044307D01*
X0375816Y0044307D01*
X0375816Y0006118D01*
X0375814Y0006008D01*
X0375808Y0005898D01*
X0375799Y0005789D01*
X0375785Y0005680D01*
X0375768Y0005571D01*
X0375747Y0005463D01*
X0375722Y0005356D01*
X0375694Y0005250D01*
X0375662Y0005145D01*
X0375626Y0005041D01*
X0375587Y0004938D01*
X0375544Y0004837D01*
X0375497Y0004737D01*
X0375447Y0004639D01*
X0375394Y0004543D01*
X0375337Y0004449D01*
X0375277Y0004357D01*
X0375214Y0004266D01*
X0375148Y0004179D01*
X0375079Y0004093D01*
X0375007Y0004010D01*
X0374932Y0003930D01*
X0374854Y0003852D01*
X0374774Y0003777D01*
X0374691Y0003705D01*
X0374605Y0003636D01*
X0374518Y0003570D01*
X0374427Y0003507D01*
X0374335Y0003447D01*
X0374241Y0003390D01*
X0374145Y0003337D01*
X0374047Y0003287D01*
X0373947Y0003240D01*
X0373846Y0003197D01*
X0373743Y0003158D01*
X0373639Y0003122D01*
X0373534Y0003090D01*
X0373428Y0003062D01*
X0373321Y0003037D01*
X0373213Y0003016D01*
X0373104Y0002999D01*
X0372995Y0002985D01*
X0372886Y0002976D01*
X0372776Y0002970D01*
X0372666Y0002968D01*
X0372666Y0002969D02*
X0332115Y0002969D01*
X0332115Y0002968D02*
X0331968Y0002970D01*
X0331822Y0002976D01*
X0331675Y0002986D01*
X0331529Y0002999D01*
X0331383Y0003017D01*
X0331238Y0003038D01*
X0331094Y0003063D01*
X0330950Y0003093D01*
X0330807Y0003125D01*
X0330665Y0003162D01*
X0330524Y0003203D01*
X0330384Y0003247D01*
X0330245Y0003295D01*
X0330108Y0003346D01*
X0329972Y0003402D01*
X0329837Y0003461D01*
X0329705Y0003523D01*
X0329573Y0003589D01*
X0329444Y0003658D01*
X0329317Y0003731D01*
X0329191Y0003807D01*
X0329068Y0003887D01*
X0328947Y0003970D01*
X0328828Y0004055D01*
X0328711Y0004145D01*
X0328597Y0004237D01*
X0328485Y0004332D01*
X0328376Y0004430D01*
X0328270Y0004531D01*
X0328166Y0004635D01*
X0328065Y0004741D01*
X0327967Y0004850D01*
X0327872Y0004962D01*
X0327780Y0005076D01*
X0327690Y0005193D01*
X0327605Y0005312D01*
X0327522Y0005433D01*
X0327442Y0005556D01*
X0327366Y0005682D01*
X0327293Y0005809D01*
X0327224Y0005938D01*
X0327158Y0006070D01*
X0327096Y0006202D01*
X0327037Y0006337D01*
X0326981Y0006473D01*
X0326930Y0006610D01*
X0326882Y0006749D01*
X0326838Y0006889D01*
X0326797Y0007030D01*
X0326760Y0007172D01*
X0326728Y0007315D01*
X0326698Y0007459D01*
X0326673Y0007603D01*
X0326652Y0007748D01*
X0326634Y0007894D01*
X0326621Y0008040D01*
X0326611Y0008187D01*
X0326605Y0008333D01*
X0326603Y0008480D01*
X0326603Y0043913D01*
X0315973Y0043913D01*
X0315973Y0006118D01*
X0315974Y0006118D02*
X0315972Y0006008D01*
X0315966Y0005898D01*
X0315957Y0005789D01*
X0315943Y0005680D01*
X0315926Y0005571D01*
X0315905Y0005463D01*
X0315880Y0005356D01*
X0315852Y0005250D01*
X0315820Y0005145D01*
X0315784Y0005041D01*
X0315745Y0004938D01*
X0315702Y0004837D01*
X0315655Y0004737D01*
X0315605Y0004639D01*
X0315552Y0004543D01*
X0315495Y0004449D01*
X0315435Y0004357D01*
X0315372Y0004266D01*
X0315306Y0004179D01*
X0315237Y0004093D01*
X0315165Y0004010D01*
X0315090Y0003930D01*
X0315012Y0003852D01*
X0314932Y0003777D01*
X0314849Y0003705D01*
X0314763Y0003636D01*
X0314676Y0003570D01*
X0314585Y0003507D01*
X0314493Y0003447D01*
X0314399Y0003390D01*
X0314303Y0003337D01*
X0314205Y0003287D01*
X0314105Y0003240D01*
X0314004Y0003197D01*
X0313901Y0003158D01*
X0313797Y0003122D01*
X0313692Y0003090D01*
X0313586Y0003062D01*
X0313479Y0003037D01*
X0313371Y0003016D01*
X0313262Y0002999D01*
X0313153Y0002985D01*
X0313044Y0002976D01*
X0312934Y0002970D01*
X0312824Y0002968D01*
X0312824Y0002969D02*
X0084871Y0002969D01*
X0084871Y0002968D02*
X0084761Y0002970D01*
X0084651Y0002976D01*
X0084542Y0002985D01*
X0084433Y0002999D01*
X0084324Y0003016D01*
X0084216Y0003037D01*
X0084109Y0003062D01*
X0084003Y0003090D01*
X0083898Y0003122D01*
X0083794Y0003158D01*
X0083691Y0003197D01*
X0083590Y0003240D01*
X0083490Y0003287D01*
X0083392Y0003337D01*
X0083296Y0003390D01*
X0083202Y0003447D01*
X0083110Y0003507D01*
X0083019Y0003570D01*
X0082932Y0003636D01*
X0082846Y0003705D01*
X0082763Y0003777D01*
X0082683Y0003852D01*
X0082605Y0003930D01*
X0082530Y0004010D01*
X0082458Y0004093D01*
X0082389Y0004179D01*
X0082323Y0004266D01*
X0082260Y0004357D01*
X0082200Y0004449D01*
X0082143Y0004543D01*
X0082090Y0004639D01*
X0082040Y0004737D01*
X0081993Y0004837D01*
X0081950Y0004938D01*
X0081911Y0005041D01*
X0081875Y0005145D01*
X0081843Y0005250D01*
X0081815Y0005356D01*
X0081790Y0005463D01*
X0081769Y0005571D01*
X0081752Y0005680D01*
X0081738Y0005789D01*
X0081729Y0005898D01*
X0081723Y0006008D01*
X0081721Y0006118D01*
X0081721Y0044307D01*
X0070698Y0044307D01*
X0070698Y0005724D01*
X0070696Y0005621D01*
X0070690Y0005518D01*
X0070681Y0005415D01*
X0070667Y0005313D01*
X0070650Y0005212D01*
X0070629Y0005111D01*
X0070604Y0005011D01*
X0070576Y0004912D01*
X0070543Y0004814D01*
X0070507Y0004717D01*
X0070468Y0004622D01*
X0070425Y0004528D01*
X0070379Y0004436D01*
X0070329Y0004346D01*
X0070276Y0004258D01*
X0070219Y0004171D01*
X0070159Y0004087D01*
X0070097Y0004006D01*
X0070031Y0003926D01*
X0069962Y0003849D01*
X0069891Y0003775D01*
X0069817Y0003704D01*
X0069740Y0003635D01*
X0069660Y0003569D01*
X0069579Y0003507D01*
X0069495Y0003447D01*
X0069408Y0003390D01*
X0069320Y0003337D01*
X0069230Y0003287D01*
X0069138Y0003241D01*
X0069044Y0003198D01*
X0068949Y0003159D01*
X0068852Y0003123D01*
X0068754Y0003090D01*
X0068655Y0003062D01*
X0068555Y0003037D01*
X0068454Y0003016D01*
X0068353Y0002999D01*
X0068251Y0002985D01*
X0068148Y0002976D01*
X0068045Y0002970D01*
X0067942Y0002968D01*
X0067942Y0002969D02*
X0024635Y0002969D01*
X0024635Y0002968D02*
X0024525Y0002970D01*
X0024415Y0002976D01*
X0024306Y0002985D01*
X0024197Y0002999D01*
X0024088Y0003016D01*
X0023980Y0003037D01*
X0023873Y0003062D01*
X0023767Y0003090D01*
X0023662Y0003122D01*
X0023558Y0003158D01*
X0023455Y0003197D01*
X0023354Y0003240D01*
X0023254Y0003287D01*
X0023156Y0003337D01*
X0023060Y0003390D01*
X0022966Y0003447D01*
X0022874Y0003507D01*
X0022783Y0003570D01*
X0022696Y0003636D01*
X0022610Y0003705D01*
X0022527Y0003777D01*
X0022447Y0003852D01*
X0022369Y0003930D01*
X0022294Y0004010D01*
X0022222Y0004093D01*
X0022153Y0004179D01*
X0022087Y0004266D01*
X0022024Y0004357D01*
X0021964Y0004449D01*
X0021907Y0004543D01*
X0021854Y0004639D01*
X0021804Y0004737D01*
X0021757Y0004837D01*
X0021714Y0004938D01*
X0021675Y0005041D01*
X0021639Y0005145D01*
X0021607Y0005250D01*
X0021579Y0005356D01*
X0021554Y0005463D01*
X0021533Y0005571D01*
X0021516Y0005680D01*
X0021502Y0005789D01*
X0021493Y0005898D01*
X0021487Y0006008D01*
X0021485Y0006118D01*
X0055540Y0199819D02*
X0055540Y0215567D01*
X0105146Y0215567D01*
X0105146Y0375016D01*
X0112036Y0375016D01*
X0112036Y0215567D01*
X0145698Y0215567D01*
X0145894Y0215567D01*
X0145894Y0199819D01*
X0055540Y0199819D01*
X0164989Y0199819D02*
X0164989Y0215567D01*
X0200619Y0215567D01*
X0200619Y0375016D01*
X0210461Y0375016D01*
X0210461Y0215567D01*
X0245107Y0215567D01*
X0245107Y0199819D01*
X0164989Y0199819D01*
X0200619Y0215567D02*
X0200619Y0375016D01*
X0210461Y0375016D02*
X0210461Y0215567D01*
X0262036Y0215567D02*
X0262036Y0199819D01*
X0376800Y0199819D01*
X0376800Y0215567D01*
X0306918Y0215567D01*
X0306918Y0375016D01*
X0299044Y0375016D01*
X0299044Y0215567D01*
X0262036Y0215567D01*
X0299044Y0215567D02*
X0299044Y0375016D01*
X0306918Y0375016D02*
X0306918Y0215567D01*
D12*
X0305695Y0058887D02*
X0302493Y0058887D01*
X0301425Y0057819D01*
X0301425Y0055684D01*
X0302493Y0054616D01*
X0305695Y0054616D01*
X0305695Y0052481D02*
X0305695Y0058887D01*
X0307870Y0056751D02*
X0307870Y0052481D01*
X0307870Y0055684D02*
X0312141Y0055684D01*
X0312141Y0056751D02*
X0312141Y0052481D01*
X0314316Y0053549D02*
X0314316Y0057819D01*
X0315384Y0058887D01*
X0318586Y0058887D01*
X0318586Y0052481D01*
X0315384Y0052481D01*
X0314316Y0053549D01*
X0312141Y0056751D02*
X0310006Y0058887D01*
X0307870Y0056751D01*
X0299250Y0058887D02*
X0294979Y0058887D01*
X0297115Y0058887D02*
X0297115Y0052481D01*
X0292804Y0052481D02*
X0292804Y0058887D01*
X0288534Y0058887D01*
X0286359Y0058887D02*
X0286359Y0052481D01*
X0286359Y0054616D02*
X0283156Y0054616D01*
X0282088Y0055684D01*
X0282088Y0057819D01*
X0283156Y0058887D01*
X0286359Y0058887D01*
X0284224Y0054616D02*
X0282088Y0052481D01*
X0288534Y0052481D02*
X0292804Y0052481D01*
X0292804Y0055684D02*
X0290669Y0055684D01*
X0320761Y0055684D02*
X0325032Y0055684D01*
X0325032Y0056751D02*
X0325032Y0052481D01*
X0325032Y0056751D02*
X0322897Y0058887D01*
X0320761Y0056751D01*
X0320761Y0052481D01*
X0333652Y0052481D02*
X0333652Y0058887D01*
X0333652Y0055684D02*
X0337923Y0055684D01*
X0340098Y0054616D02*
X0340098Y0053549D01*
X0341166Y0052481D01*
X0343301Y0052481D01*
X0344368Y0053549D01*
X0343301Y0055684D02*
X0341166Y0055684D01*
X0340098Y0054616D01*
X0337923Y0052481D02*
X0337923Y0058887D01*
X0340098Y0057819D02*
X0341166Y0058887D01*
X0343301Y0058887D01*
X0344368Y0057819D01*
X0344368Y0056751D01*
X0343301Y0055684D01*
X0346543Y0055684D02*
X0350814Y0055684D01*
X0350814Y0056751D02*
X0350814Y0052481D01*
X0352989Y0052481D02*
X0357259Y0052481D01*
X0357259Y0058887D01*
X0359434Y0058887D02*
X0363705Y0058887D01*
X0363705Y0052481D01*
X0363705Y0055684D02*
X0361570Y0055684D01*
X0350814Y0056751D02*
X0348679Y0058887D01*
X0346543Y0056751D01*
X0346543Y0052481D01*
X0056618Y0179533D02*
X0056618Y0180601D01*
X0055551Y0181668D01*
X0053415Y0181668D01*
X0052348Y0180601D01*
X0052348Y0179533D01*
X0053415Y0178465D01*
X0055551Y0178465D01*
X0056618Y0179533D01*
X0055551Y0181668D02*
X0056618Y0182736D01*
X0056618Y0183803D01*
X0055551Y0184871D01*
X0053415Y0184871D01*
X0052348Y0183803D01*
X0052348Y0182736D01*
X0053415Y0181668D01*
X0050173Y0181668D02*
X0045902Y0181668D01*
X0043727Y0181668D02*
X0040524Y0181668D01*
X0039457Y0180601D01*
X0039457Y0179533D01*
X0040524Y0178465D01*
X0043727Y0178465D01*
X0043727Y0184871D01*
X0040524Y0184871D01*
X0039457Y0183803D01*
X0039457Y0182736D01*
X0040524Y0181668D01*
X0037282Y0178465D02*
X0035146Y0178465D01*
X0036214Y0178465D02*
X0036214Y0184871D01*
X0037282Y0184871D02*
X0035146Y0184871D01*
X0032985Y0184871D02*
X0028714Y0184871D01*
X0030849Y0184871D02*
X0030849Y0178465D01*
D13*
X0118173Y0224217D02*
X0120108Y0224217D01*
X0119141Y0224217D02*
X0119141Y0227119D01*
X0120108Y0226152D01*
X0121120Y0224217D02*
X0123055Y0224217D01*
X0122087Y0224217D02*
X0122087Y0227119D01*
X0123055Y0226152D01*
X0124066Y0226636D02*
X0124550Y0227119D01*
X0126001Y0227119D01*
X0126001Y0224217D01*
X0124550Y0224217D01*
X0124066Y0224701D01*
X0124066Y0226636D01*
X0124550Y0229017D02*
X0124066Y0229501D01*
X0124066Y0231436D01*
X0124550Y0231919D01*
X0126001Y0231919D01*
X0126001Y0229017D01*
X0124550Y0229017D01*
X0123055Y0229501D02*
X0122571Y0229017D01*
X0121604Y0229017D01*
X0121120Y0229501D01*
X0121120Y0229984D01*
X0121604Y0230468D01*
X0122087Y0230468D01*
X0121604Y0230468D02*
X0121120Y0230952D01*
X0121120Y0231436D01*
X0121604Y0231919D01*
X0122571Y0231919D01*
X0123055Y0231436D01*
X0123055Y0233817D02*
X0121120Y0233817D01*
X0122087Y0233817D02*
X0122087Y0236719D01*
X0123055Y0235752D01*
X0124066Y0236236D02*
X0124550Y0236719D01*
X0126001Y0236719D01*
X0126001Y0233817D01*
X0124550Y0233817D01*
X0124066Y0234301D01*
X0124066Y0236236D01*
X0124550Y0238617D02*
X0124066Y0239101D01*
X0124066Y0241036D01*
X0124550Y0241519D01*
X0126001Y0241519D01*
X0126001Y0238617D01*
X0124550Y0238617D01*
X0123055Y0238617D02*
X0121120Y0240552D01*
X0121120Y0241036D01*
X0121604Y0241519D01*
X0122571Y0241519D01*
X0123055Y0241036D01*
X0123055Y0238617D02*
X0121120Y0238617D01*
X0119625Y0236719D02*
X0118657Y0236719D01*
X0118173Y0236236D01*
X0120108Y0234301D01*
X0119625Y0233817D01*
X0118657Y0233817D01*
X0118173Y0234301D01*
X0118173Y0236236D01*
X0119625Y0236719D02*
X0120108Y0236236D01*
X0120108Y0234301D01*
X0121604Y0243417D02*
X0121120Y0243901D01*
X0121120Y0245836D01*
X0121604Y0246319D01*
X0122571Y0246319D01*
X0123055Y0245836D01*
X0123055Y0245352D01*
X0122571Y0244868D01*
X0121120Y0244868D01*
X0121604Y0243417D02*
X0122571Y0243417D01*
X0123055Y0243901D01*
X0124066Y0243901D02*
X0124066Y0245836D01*
X0124550Y0246319D01*
X0126001Y0246319D01*
X0126001Y0243417D01*
X0124550Y0243417D01*
X0124066Y0243901D01*
X0124550Y0248217D02*
X0124066Y0248701D01*
X0124066Y0250636D01*
X0124550Y0251119D01*
X0126001Y0251119D01*
X0126001Y0248217D01*
X0124550Y0248217D01*
X0123055Y0248217D02*
X0121120Y0248217D01*
X0122087Y0248217D02*
X0122087Y0251119D01*
X0123055Y0250152D01*
X0122571Y0253017D02*
X0123055Y0253501D01*
X0123055Y0253984D01*
X0122571Y0254468D01*
X0121604Y0254468D01*
X0121120Y0253984D01*
X0121120Y0253501D01*
X0121604Y0253017D01*
X0122571Y0253017D01*
X0122571Y0254468D02*
X0123055Y0254952D01*
X0123055Y0255436D01*
X0122571Y0255919D01*
X0121604Y0255919D01*
X0121120Y0255436D01*
X0121120Y0254952D01*
X0121604Y0254468D01*
X0124066Y0253501D02*
X0124066Y0255436D01*
X0124550Y0255919D01*
X0126001Y0255919D01*
X0126001Y0253017D01*
X0124550Y0253017D01*
X0124066Y0253501D01*
X0124550Y0257817D02*
X0124066Y0258301D01*
X0124066Y0260236D01*
X0124550Y0260719D01*
X0126001Y0260719D01*
X0126001Y0257817D01*
X0124550Y0257817D01*
X0123055Y0258301D02*
X0121120Y0260236D01*
X0121120Y0258301D01*
X0121604Y0257817D01*
X0122571Y0257817D01*
X0123055Y0258301D01*
X0123055Y0260236D01*
X0122571Y0260719D01*
X0121604Y0260719D01*
X0121120Y0260236D01*
X0121120Y0262617D02*
X0123055Y0262617D01*
X0123055Y0265519D01*
X0121120Y0265519D01*
X0122087Y0264068D02*
X0123055Y0264068D01*
X0124066Y0263101D02*
X0124066Y0265036D01*
X0124550Y0265519D01*
X0125518Y0265519D01*
X0126001Y0265036D01*
X0126001Y0263101D01*
X0125518Y0262617D01*
X0124550Y0262617D01*
X0124066Y0263101D01*
X0124550Y0267417D02*
X0124066Y0267901D01*
X0124066Y0268868D01*
X0125034Y0268868D01*
X0126001Y0267901D02*
X0125518Y0267417D01*
X0124550Y0267417D01*
X0123055Y0267417D02*
X0123055Y0270319D01*
X0121120Y0267417D01*
X0121120Y0270319D01*
X0120108Y0270319D02*
X0118657Y0270319D01*
X0118173Y0269836D01*
X0118173Y0267901D01*
X0118657Y0267417D01*
X0120108Y0267417D01*
X0120108Y0270319D01*
X0121120Y0272217D02*
X0123055Y0272217D01*
X0123055Y0275119D01*
X0121120Y0275119D01*
X0122087Y0273668D02*
X0123055Y0273668D01*
X0124066Y0272701D02*
X0124550Y0272217D01*
X0125518Y0272217D01*
X0126001Y0272701D01*
X0126001Y0274636D01*
X0125518Y0275119D01*
X0124550Y0275119D01*
X0124066Y0274636D01*
X0124066Y0277017D02*
X0124066Y0278952D01*
X0125034Y0279919D01*
X0126001Y0278952D01*
X0126001Y0277017D01*
X0126001Y0278468D02*
X0124066Y0278468D01*
X0123055Y0277501D02*
X0121120Y0279436D01*
X0121120Y0277501D01*
X0121604Y0277017D01*
X0122571Y0277017D01*
X0123055Y0277501D01*
X0123055Y0279436D01*
X0122571Y0279919D01*
X0121604Y0279919D01*
X0121120Y0279436D01*
X0121120Y0281817D02*
X0123055Y0281817D01*
X0122087Y0281817D02*
X0122087Y0284719D01*
X0123055Y0283752D01*
X0124066Y0283752D02*
X0124066Y0281817D01*
X0124066Y0283268D02*
X0126001Y0283268D01*
X0126001Y0283752D02*
X0125034Y0284719D01*
X0124066Y0283752D01*
X0126001Y0283752D02*
X0126001Y0281817D01*
X0126001Y0286617D02*
X0126001Y0288552D01*
X0125034Y0289519D01*
X0124066Y0288552D01*
X0124066Y0286617D01*
X0123055Y0286617D02*
X0121120Y0288552D01*
X0121120Y0289036D01*
X0121604Y0289519D01*
X0122571Y0289519D01*
X0123055Y0289036D01*
X0124066Y0288068D02*
X0126001Y0288068D01*
X0123055Y0286617D02*
X0121120Y0286617D01*
X0121604Y0291417D02*
X0122571Y0291417D01*
X0123055Y0291901D01*
X0124066Y0291417D02*
X0124066Y0293352D01*
X0125034Y0294319D01*
X0126001Y0293352D01*
X0126001Y0291417D01*
X0126001Y0292868D02*
X0124066Y0292868D01*
X0123055Y0293836D02*
X0122571Y0294319D01*
X0121604Y0294319D01*
X0121120Y0293836D01*
X0121120Y0293352D01*
X0121604Y0292868D01*
X0121120Y0292384D01*
X0121120Y0291901D01*
X0121604Y0291417D01*
X0121604Y0292868D02*
X0122087Y0292868D01*
X0121604Y0296217D02*
X0121604Y0299119D01*
X0123055Y0297668D01*
X0121120Y0297668D01*
X0124066Y0297668D02*
X0126001Y0297668D01*
X0126001Y0298152D02*
X0125034Y0299119D01*
X0124066Y0298152D01*
X0124066Y0296217D01*
X0126001Y0296217D02*
X0126001Y0298152D01*
X0126001Y0301017D02*
X0126001Y0302952D01*
X0125034Y0303919D01*
X0124066Y0302952D01*
X0124066Y0301017D01*
X0123055Y0301501D02*
X0122571Y0301017D01*
X0121604Y0301017D01*
X0121120Y0301501D01*
X0121120Y0302468D01*
X0121604Y0302952D01*
X0122087Y0302952D01*
X0123055Y0302468D01*
X0123055Y0303919D01*
X0121120Y0303919D01*
X0121604Y0305817D02*
X0121120Y0306301D01*
X0121120Y0306784D01*
X0121604Y0307268D01*
X0123055Y0307268D01*
X0123055Y0306301D01*
X0122571Y0305817D01*
X0121604Y0305817D01*
X0123055Y0307268D02*
X0122087Y0308236D01*
X0121120Y0308719D01*
X0123055Y0310617D02*
X0123055Y0311101D01*
X0121120Y0313036D01*
X0121120Y0313519D01*
X0123055Y0313519D01*
X0124066Y0312552D02*
X0124066Y0310617D01*
X0124066Y0312068D02*
X0126001Y0312068D01*
X0126001Y0312552D02*
X0125034Y0313519D01*
X0124066Y0312552D01*
X0126001Y0312552D02*
X0126001Y0310617D01*
X0125034Y0308719D02*
X0124066Y0307752D01*
X0124066Y0305817D01*
X0124066Y0307268D02*
X0126001Y0307268D01*
X0126001Y0307752D02*
X0125034Y0308719D01*
X0126001Y0307752D02*
X0126001Y0305817D01*
X0126001Y0302468D02*
X0124066Y0302468D01*
X0124066Y0315417D02*
X0124066Y0317352D01*
X0125034Y0318319D01*
X0126001Y0317352D01*
X0126001Y0315417D01*
X0126001Y0316868D02*
X0124066Y0316868D01*
X0123055Y0317352D02*
X0122087Y0318319D01*
X0122087Y0315417D01*
X0121120Y0315417D02*
X0123055Y0315417D01*
X0120108Y0315417D02*
X0120108Y0315901D01*
X0118173Y0317836D01*
X0118173Y0318319D01*
X0120108Y0318319D01*
X0119625Y0320217D02*
X0120108Y0320701D01*
X0120108Y0321184D01*
X0119625Y0321668D01*
X0118657Y0321668D01*
X0118173Y0321184D01*
X0118173Y0320701D01*
X0118657Y0320217D01*
X0119625Y0320217D01*
X0119625Y0321668D02*
X0120108Y0322152D01*
X0120108Y0322636D01*
X0119625Y0323119D01*
X0118657Y0323119D01*
X0118173Y0322636D01*
X0118173Y0322152D01*
X0118657Y0321668D01*
X0121120Y0320217D02*
X0123055Y0320217D01*
X0122087Y0320217D02*
X0122087Y0323119D01*
X0123055Y0322152D01*
X0124066Y0322152D02*
X0124066Y0320217D01*
X0124066Y0321668D02*
X0126001Y0321668D01*
X0126001Y0322152D02*
X0125034Y0323119D01*
X0124066Y0322152D01*
X0126001Y0322152D02*
X0126001Y0320217D01*
X0126001Y0325017D02*
X0125034Y0325984D01*
X0124066Y0325017D01*
X0124066Y0327919D01*
X0123055Y0327919D02*
X0123055Y0325017D01*
X0121120Y0325017D01*
X0122087Y0326468D02*
X0123055Y0326468D01*
X0123055Y0327919D02*
X0121120Y0327919D01*
X0126001Y0327919D02*
X0126001Y0325017D01*
X0162990Y0325501D02*
X0163474Y0325017D01*
X0164441Y0325017D01*
X0164925Y0325501D01*
X0162990Y0327436D01*
X0162990Y0325501D01*
X0162990Y0327436D02*
X0163474Y0327919D01*
X0164441Y0327919D01*
X0164925Y0327436D01*
X0164925Y0325501D01*
X0165936Y0325017D02*
X0167871Y0325017D01*
X0165936Y0326952D01*
X0165936Y0327436D01*
X0166420Y0327919D01*
X0167388Y0327919D01*
X0167871Y0327436D01*
X0168883Y0326952D02*
X0168883Y0325017D01*
X0168883Y0326468D02*
X0170818Y0326468D01*
X0170818Y0326952D02*
X0170818Y0325017D01*
X0170818Y0326952D02*
X0169850Y0327919D01*
X0168883Y0326952D01*
X0169850Y0323119D02*
X0168883Y0322152D01*
X0168883Y0320217D01*
X0167871Y0320217D02*
X0165936Y0320217D01*
X0166904Y0320217D02*
X0166904Y0323119D01*
X0167871Y0322152D01*
X0168883Y0321668D02*
X0170818Y0321668D01*
X0170818Y0322152D02*
X0169850Y0323119D01*
X0170818Y0322152D02*
X0170818Y0320217D01*
X0169850Y0318319D02*
X0168883Y0317352D01*
X0168883Y0315417D01*
X0167871Y0315901D02*
X0167871Y0316384D01*
X0167388Y0316868D01*
X0166420Y0316868D01*
X0165936Y0316384D01*
X0165936Y0315901D01*
X0166420Y0315417D01*
X0167388Y0315417D01*
X0167871Y0315901D01*
X0167388Y0316868D02*
X0167871Y0317352D01*
X0167871Y0317836D01*
X0167388Y0318319D01*
X0166420Y0318319D01*
X0165936Y0317836D01*
X0165936Y0317352D01*
X0166420Y0316868D01*
X0168883Y0316868D02*
X0170818Y0316868D01*
X0170818Y0317352D02*
X0169850Y0318319D01*
X0170818Y0317352D02*
X0170818Y0315417D01*
X0169850Y0313519D02*
X0168883Y0312552D01*
X0168883Y0310617D01*
X0167871Y0311101D02*
X0167388Y0310617D01*
X0166420Y0310617D01*
X0165936Y0311101D01*
X0165936Y0313036D01*
X0166420Y0313519D01*
X0167388Y0313519D01*
X0167871Y0313036D01*
X0167871Y0312552D01*
X0167388Y0312068D01*
X0165936Y0312068D01*
X0168883Y0312068D02*
X0170818Y0312068D01*
X0170818Y0312552D02*
X0169850Y0313519D01*
X0170818Y0312552D02*
X0170818Y0310617D01*
X0169850Y0308719D02*
X0168883Y0307752D01*
X0168883Y0305817D01*
X0167871Y0305817D02*
X0165936Y0305817D01*
X0166904Y0305817D02*
X0166904Y0308719D01*
X0167871Y0307752D01*
X0168883Y0307268D02*
X0170818Y0307268D01*
X0170818Y0307752D02*
X0169850Y0308719D01*
X0170818Y0307752D02*
X0170818Y0305817D01*
X0169850Y0303919D02*
X0168883Y0302952D01*
X0168883Y0301017D01*
X0167871Y0301017D02*
X0165936Y0301017D01*
X0166904Y0301017D02*
X0166904Y0303919D01*
X0167871Y0302952D01*
X0168883Y0302468D02*
X0170818Y0302468D01*
X0170818Y0302952D02*
X0170818Y0301017D01*
X0170818Y0302952D02*
X0169850Y0303919D01*
X0169850Y0299119D02*
X0168883Y0298152D01*
X0168883Y0296217D01*
X0167871Y0296217D02*
X0165936Y0296217D01*
X0166904Y0296217D02*
X0166904Y0299119D01*
X0167871Y0298152D01*
X0168883Y0297668D02*
X0170818Y0297668D01*
X0170818Y0298152D02*
X0169850Y0299119D01*
X0170818Y0298152D02*
X0170818Y0296217D01*
X0169850Y0294319D02*
X0168883Y0293352D01*
X0168883Y0291417D01*
X0167871Y0291417D02*
X0165936Y0291417D01*
X0166904Y0291417D02*
X0166904Y0294319D01*
X0167871Y0293352D01*
X0168883Y0292868D02*
X0170818Y0292868D01*
X0170818Y0293352D02*
X0169850Y0294319D01*
X0170818Y0293352D02*
X0170818Y0291417D01*
X0169850Y0289519D02*
X0168883Y0288552D01*
X0168883Y0286617D01*
X0167871Y0286617D02*
X0165936Y0286617D01*
X0166904Y0286617D02*
X0166904Y0289519D01*
X0167871Y0288552D01*
X0168883Y0288068D02*
X0170818Y0288068D01*
X0170818Y0288552D02*
X0169850Y0289519D01*
X0170818Y0288552D02*
X0170818Y0286617D01*
X0169850Y0284719D02*
X0168883Y0283752D01*
X0168883Y0281817D01*
X0167871Y0281817D02*
X0165936Y0281817D01*
X0166904Y0281817D02*
X0166904Y0284719D01*
X0167871Y0283752D01*
X0168883Y0283268D02*
X0170818Y0283268D01*
X0170818Y0283752D02*
X0169850Y0284719D01*
X0170818Y0283752D02*
X0170818Y0281817D01*
X0169850Y0279919D02*
X0168883Y0278952D01*
X0168883Y0277017D01*
X0167871Y0277017D02*
X0165936Y0277017D01*
X0166904Y0277017D02*
X0166904Y0279919D01*
X0167871Y0278952D01*
X0168883Y0278468D02*
X0170818Y0278468D01*
X0170818Y0278952D02*
X0170818Y0277017D01*
X0170818Y0275119D02*
X0169367Y0275119D01*
X0168883Y0274636D01*
X0168883Y0274152D01*
X0169367Y0273668D01*
X0170818Y0273668D01*
X0170818Y0272217D02*
X0169367Y0272217D01*
X0168883Y0272701D01*
X0168883Y0273184D01*
X0169367Y0273668D01*
X0167871Y0274636D02*
X0167871Y0275119D01*
X0167871Y0274636D02*
X0166904Y0273668D01*
X0166904Y0272217D01*
X0166904Y0273668D02*
X0165936Y0274636D01*
X0165936Y0275119D01*
X0164925Y0275119D02*
X0162990Y0275119D01*
X0163957Y0275119D02*
X0163957Y0272217D01*
X0163474Y0270319D02*
X0164925Y0270319D01*
X0164925Y0267417D01*
X0163474Y0267417D01*
X0162990Y0267901D01*
X0162990Y0269836D01*
X0163474Y0270319D01*
X0161978Y0272217D02*
X0160043Y0272217D01*
X0161011Y0273668D02*
X0161978Y0273668D01*
X0161978Y0275119D02*
X0161978Y0272217D01*
X0161978Y0275119D02*
X0160043Y0275119D01*
X0162990Y0277501D02*
X0162990Y0277984D01*
X0163474Y0278468D01*
X0164925Y0278468D01*
X0164925Y0277501D01*
X0164441Y0277017D01*
X0163474Y0277017D01*
X0162990Y0277501D01*
X0163957Y0279436D02*
X0164925Y0278468D01*
X0163957Y0279436D02*
X0162990Y0279919D01*
X0163474Y0281817D02*
X0164441Y0281817D01*
X0164925Y0282301D01*
X0164925Y0283268D02*
X0163957Y0283752D01*
X0163474Y0283752D01*
X0162990Y0283268D01*
X0162990Y0282301D01*
X0163474Y0281817D01*
X0164925Y0283268D02*
X0164925Y0284719D01*
X0162990Y0284719D01*
X0163474Y0286617D02*
X0163474Y0289519D01*
X0164925Y0288068D01*
X0162990Y0288068D01*
X0163474Y0291417D02*
X0164441Y0291417D01*
X0164925Y0291901D01*
X0163957Y0292868D02*
X0163474Y0292868D01*
X0162990Y0292384D01*
X0162990Y0291901D01*
X0163474Y0291417D01*
X0163474Y0292868D02*
X0162990Y0293352D01*
X0162990Y0293836D01*
X0163474Y0294319D01*
X0164441Y0294319D01*
X0164925Y0293836D01*
X0164925Y0296217D02*
X0162990Y0298152D01*
X0162990Y0298636D01*
X0163474Y0299119D01*
X0164441Y0299119D01*
X0164925Y0298636D01*
X0164925Y0301017D02*
X0162990Y0301017D01*
X0163957Y0301017D02*
X0163957Y0303919D01*
X0164925Y0302952D01*
X0164441Y0305817D02*
X0164925Y0306301D01*
X0162990Y0308236D01*
X0162990Y0306301D01*
X0163474Y0305817D01*
X0164441Y0305817D01*
X0164925Y0306301D02*
X0164925Y0308236D01*
X0164441Y0308719D01*
X0163474Y0308719D01*
X0162990Y0308236D01*
X0163474Y0320217D02*
X0162990Y0320701D01*
X0162990Y0322636D01*
X0163474Y0323119D01*
X0164441Y0323119D01*
X0164925Y0322636D01*
X0164925Y0322152D01*
X0164441Y0321668D01*
X0162990Y0321668D01*
X0163474Y0320217D02*
X0164441Y0320217D01*
X0164925Y0320701D01*
X0164925Y0296217D02*
X0162990Y0296217D01*
X0169850Y0279919D02*
X0170818Y0278952D01*
X0170818Y0275119D02*
X0170818Y0272217D01*
X0170334Y0270319D02*
X0170818Y0269836D01*
X0170818Y0267901D01*
X0170334Y0267417D01*
X0169367Y0267417D01*
X0168883Y0267901D01*
X0168883Y0268868D01*
X0169850Y0268868D01*
X0168883Y0269836D02*
X0169367Y0270319D01*
X0170334Y0270319D01*
X0167871Y0270319D02*
X0165936Y0267417D01*
X0165936Y0270319D01*
X0167871Y0270319D02*
X0167871Y0267417D01*
X0166904Y0265519D02*
X0166904Y0262617D01*
X0167871Y0262617D02*
X0165936Y0262617D01*
X0164925Y0263101D02*
X0164441Y0262617D01*
X0163474Y0262617D01*
X0162990Y0263101D01*
X0162990Y0264068D01*
X0163474Y0264552D01*
X0163957Y0264552D01*
X0164925Y0264068D01*
X0164925Y0265519D01*
X0162990Y0265519D01*
X0166904Y0265519D02*
X0167871Y0264552D01*
X0168883Y0265036D02*
X0169367Y0265519D01*
X0170818Y0265519D01*
X0170818Y0262617D01*
X0169367Y0262617D01*
X0168883Y0263101D01*
X0168883Y0265036D01*
X0169367Y0260719D02*
X0170818Y0260719D01*
X0170818Y0257817D01*
X0169367Y0257817D01*
X0168883Y0258301D01*
X0168883Y0260236D01*
X0169367Y0260719D01*
X0167871Y0260719D02*
X0165936Y0260719D01*
X0165936Y0260236D01*
X0167871Y0258301D01*
X0167871Y0257817D01*
X0166904Y0255919D02*
X0166904Y0253017D01*
X0167871Y0253017D02*
X0165936Y0253017D01*
X0164925Y0254468D02*
X0162990Y0254468D01*
X0163474Y0253017D02*
X0163474Y0255919D01*
X0164925Y0254468D01*
X0166904Y0255919D02*
X0167871Y0254952D01*
X0168883Y0255436D02*
X0169367Y0255919D01*
X0170818Y0255919D01*
X0170818Y0253017D01*
X0169367Y0253017D01*
X0168883Y0253501D01*
X0168883Y0255436D01*
X0169367Y0251119D02*
X0170818Y0251119D01*
X0170818Y0248217D01*
X0169367Y0248217D01*
X0168883Y0248701D01*
X0168883Y0250636D01*
X0169367Y0251119D01*
X0167871Y0249668D02*
X0166420Y0249668D01*
X0165936Y0249184D01*
X0165936Y0248701D01*
X0166420Y0248217D01*
X0167388Y0248217D01*
X0167871Y0248701D01*
X0167871Y0249668D01*
X0166904Y0250636D01*
X0165936Y0251119D01*
X0166904Y0246319D02*
X0166904Y0243417D01*
X0167871Y0243417D02*
X0165936Y0243417D01*
X0164925Y0243901D02*
X0164441Y0243417D01*
X0163474Y0243417D01*
X0162990Y0243901D01*
X0162990Y0244384D01*
X0163474Y0244868D01*
X0163957Y0244868D01*
X0163474Y0244868D02*
X0162990Y0245352D01*
X0162990Y0245836D01*
X0163474Y0246319D01*
X0164441Y0246319D01*
X0164925Y0245836D01*
X0166904Y0246319D02*
X0167871Y0245352D01*
X0168883Y0245836D02*
X0169367Y0246319D01*
X0170818Y0246319D01*
X0170818Y0243417D01*
X0169367Y0243417D01*
X0168883Y0243901D01*
X0168883Y0245836D01*
X0169367Y0241519D02*
X0170818Y0241519D01*
X0170818Y0238617D01*
X0169367Y0238617D01*
X0168883Y0239101D01*
X0168883Y0241036D01*
X0169367Y0241519D01*
X0167871Y0241519D02*
X0167871Y0240068D01*
X0166904Y0240552D01*
X0166420Y0240552D01*
X0165936Y0240068D01*
X0165936Y0239101D01*
X0166420Y0238617D01*
X0167388Y0238617D01*
X0167871Y0239101D01*
X0167871Y0241519D02*
X0165936Y0241519D01*
X0166904Y0236719D02*
X0166904Y0233817D01*
X0167871Y0233817D02*
X0165936Y0233817D01*
X0164925Y0233817D02*
X0162990Y0235752D01*
X0162990Y0236236D01*
X0163474Y0236719D01*
X0164441Y0236719D01*
X0164925Y0236236D01*
X0166904Y0236719D02*
X0167871Y0235752D01*
X0168883Y0236236D02*
X0168883Y0234301D01*
X0169367Y0233817D01*
X0170818Y0233817D01*
X0170818Y0236719D01*
X0169367Y0236719D01*
X0168883Y0236236D01*
X0169367Y0231919D02*
X0170818Y0231919D01*
X0170818Y0229017D01*
X0169367Y0229017D01*
X0168883Y0229501D01*
X0168883Y0231436D01*
X0169367Y0231919D01*
X0167871Y0230468D02*
X0165936Y0230468D01*
X0166420Y0229017D02*
X0166420Y0231919D01*
X0167871Y0230468D01*
X0167388Y0227119D02*
X0167871Y0226636D01*
X0167871Y0224701D01*
X0167388Y0224217D01*
X0166420Y0224217D01*
X0165936Y0224701D01*
X0164925Y0224701D02*
X0164441Y0224217D01*
X0163474Y0224217D01*
X0162990Y0224701D01*
X0162990Y0226636D02*
X0163474Y0227119D01*
X0164441Y0227119D01*
X0164925Y0226636D01*
X0164925Y0224701D01*
X0165936Y0226636D02*
X0166420Y0227119D01*
X0167388Y0227119D01*
X0168883Y0227119D02*
X0168883Y0225184D01*
X0169850Y0224217D01*
X0170818Y0225184D01*
X0170818Y0227119D01*
X0164925Y0233817D02*
X0162990Y0233817D01*
X0126001Y0267901D02*
X0126001Y0269836D01*
X0125518Y0270319D01*
X0124550Y0270319D01*
X0124066Y0269836D01*
X0216599Y0269836D02*
X0217082Y0270319D01*
X0218534Y0270319D01*
X0218534Y0267417D01*
X0217082Y0267417D01*
X0216599Y0267901D01*
X0216599Y0269836D01*
X0219545Y0270319D02*
X0219545Y0267417D01*
X0221480Y0270319D01*
X0221480Y0267417D01*
X0222492Y0267901D02*
X0222492Y0268868D01*
X0223459Y0268868D01*
X0222492Y0267901D02*
X0222975Y0267417D01*
X0223943Y0267417D01*
X0224427Y0267901D01*
X0224427Y0269836D01*
X0223943Y0270319D01*
X0222975Y0270319D01*
X0222492Y0269836D01*
X0222975Y0272217D02*
X0222492Y0272701D01*
X0222975Y0272217D02*
X0223943Y0272217D01*
X0224427Y0272701D01*
X0224427Y0274636D01*
X0223943Y0275119D01*
X0222975Y0275119D01*
X0222492Y0274636D01*
X0221480Y0275119D02*
X0221480Y0272217D01*
X0219545Y0272217D01*
X0220513Y0273668D02*
X0221480Y0273668D01*
X0221480Y0275119D02*
X0219545Y0275119D01*
X0220029Y0277017D02*
X0220996Y0277017D01*
X0221480Y0277501D01*
X0219545Y0279436D01*
X0219545Y0277501D01*
X0220029Y0277017D01*
X0221480Y0277501D02*
X0221480Y0279436D01*
X0220996Y0279919D01*
X0220029Y0279919D01*
X0219545Y0279436D01*
X0219545Y0281817D02*
X0221480Y0281817D01*
X0220513Y0281817D02*
X0220513Y0284719D01*
X0221480Y0283752D01*
X0222492Y0283752D02*
X0222492Y0281817D01*
X0222492Y0283268D02*
X0224427Y0283268D01*
X0224427Y0283752D02*
X0223459Y0284719D01*
X0222492Y0283752D01*
X0224427Y0283752D02*
X0224427Y0281817D01*
X0223459Y0279919D02*
X0224427Y0278952D01*
X0224427Y0277017D01*
X0224427Y0278468D02*
X0222492Y0278468D01*
X0222492Y0278952D02*
X0222492Y0277017D01*
X0222492Y0278952D02*
X0223459Y0279919D01*
X0222492Y0286617D02*
X0222492Y0288552D01*
X0223459Y0289519D01*
X0224427Y0288552D01*
X0224427Y0286617D01*
X0224427Y0288068D02*
X0222492Y0288068D01*
X0221480Y0289036D02*
X0220996Y0289519D01*
X0220029Y0289519D01*
X0219545Y0289036D01*
X0219545Y0288552D01*
X0221480Y0286617D01*
X0219545Y0286617D01*
X0220029Y0291417D02*
X0220996Y0291417D01*
X0221480Y0291901D01*
X0222492Y0291417D02*
X0222492Y0293352D01*
X0223459Y0294319D01*
X0224427Y0293352D01*
X0224427Y0291417D01*
X0224427Y0292868D02*
X0222492Y0292868D01*
X0221480Y0293836D02*
X0220996Y0294319D01*
X0220029Y0294319D01*
X0219545Y0293836D01*
X0219545Y0293352D01*
X0220029Y0292868D01*
X0219545Y0292384D01*
X0219545Y0291901D01*
X0220029Y0291417D01*
X0220029Y0292868D02*
X0220513Y0292868D01*
X0220029Y0296217D02*
X0220029Y0299119D01*
X0221480Y0297668D01*
X0219545Y0297668D01*
X0222492Y0297668D02*
X0224427Y0297668D01*
X0224427Y0298152D02*
X0223459Y0299119D01*
X0222492Y0298152D01*
X0222492Y0296217D01*
X0224427Y0296217D02*
X0224427Y0298152D01*
X0224427Y0301017D02*
X0224427Y0302952D01*
X0223459Y0303919D01*
X0222492Y0302952D01*
X0222492Y0301017D01*
X0221480Y0301501D02*
X0220996Y0301017D01*
X0220029Y0301017D01*
X0219545Y0301501D01*
X0219545Y0302468D01*
X0220029Y0302952D01*
X0220513Y0302952D01*
X0221480Y0302468D01*
X0221480Y0303919D01*
X0219545Y0303919D01*
X0220029Y0305817D02*
X0219545Y0306301D01*
X0219545Y0306784D01*
X0220029Y0307268D01*
X0221480Y0307268D01*
X0221480Y0306301D01*
X0220996Y0305817D01*
X0220029Y0305817D01*
X0221480Y0307268D02*
X0220513Y0308236D01*
X0219545Y0308719D01*
X0221480Y0310617D02*
X0221480Y0311101D01*
X0219545Y0313036D01*
X0219545Y0313519D01*
X0221480Y0313519D01*
X0222492Y0312552D02*
X0222492Y0310617D01*
X0222492Y0312068D02*
X0224427Y0312068D01*
X0224427Y0312552D02*
X0223459Y0313519D01*
X0222492Y0312552D01*
X0224427Y0312552D02*
X0224427Y0310617D01*
X0223459Y0308719D02*
X0224427Y0307752D01*
X0224427Y0305817D01*
X0224427Y0307268D02*
X0222492Y0307268D01*
X0222492Y0307752D02*
X0222492Y0305817D01*
X0222492Y0307752D02*
X0223459Y0308719D01*
X0224427Y0302468D02*
X0222492Y0302468D01*
X0222492Y0315417D02*
X0222492Y0317352D01*
X0223459Y0318319D01*
X0224427Y0317352D01*
X0224427Y0315417D01*
X0224427Y0316868D02*
X0222492Y0316868D01*
X0221480Y0317352D02*
X0220513Y0318319D01*
X0220513Y0315417D01*
X0221480Y0315417D02*
X0219545Y0315417D01*
X0218534Y0315417D02*
X0218534Y0315901D01*
X0216599Y0317836D01*
X0216599Y0318319D01*
X0218534Y0318319D01*
X0218050Y0320217D02*
X0218534Y0320701D01*
X0218534Y0321184D01*
X0218050Y0321668D01*
X0217082Y0321668D01*
X0216599Y0321184D01*
X0216599Y0320701D01*
X0217082Y0320217D01*
X0218050Y0320217D01*
X0218050Y0321668D02*
X0218534Y0322152D01*
X0218534Y0322636D01*
X0218050Y0323119D01*
X0217082Y0323119D01*
X0216599Y0322636D01*
X0216599Y0322152D01*
X0217082Y0321668D01*
X0219545Y0320217D02*
X0221480Y0320217D01*
X0220513Y0320217D02*
X0220513Y0323119D01*
X0221480Y0322152D01*
X0222492Y0322152D02*
X0222492Y0320217D01*
X0222492Y0321668D02*
X0224427Y0321668D01*
X0224427Y0322152D02*
X0223459Y0323119D01*
X0222492Y0322152D01*
X0224427Y0322152D02*
X0224427Y0320217D01*
X0224427Y0325017D02*
X0223459Y0325984D01*
X0222492Y0325017D01*
X0222492Y0327919D01*
X0221480Y0327919D02*
X0221480Y0325017D01*
X0219545Y0325017D01*
X0220513Y0326468D02*
X0221480Y0326468D01*
X0221480Y0327919D02*
X0219545Y0327919D01*
X0224427Y0327919D02*
X0224427Y0325017D01*
X0261415Y0325501D02*
X0261899Y0325017D01*
X0262866Y0325017D01*
X0263350Y0325501D01*
X0261415Y0327436D01*
X0261415Y0325501D01*
X0261415Y0327436D02*
X0261899Y0327919D01*
X0262866Y0327919D01*
X0263350Y0327436D01*
X0263350Y0325501D01*
X0264362Y0325017D02*
X0266297Y0325017D01*
X0264362Y0326952D01*
X0264362Y0327436D01*
X0264845Y0327919D01*
X0265813Y0327919D01*
X0266297Y0327436D01*
X0267308Y0326952D02*
X0267308Y0325017D01*
X0267308Y0326468D02*
X0269243Y0326468D01*
X0269243Y0326952D02*
X0269243Y0325017D01*
X0269243Y0326952D02*
X0268276Y0327919D01*
X0267308Y0326952D01*
X0268276Y0323119D02*
X0267308Y0322152D01*
X0267308Y0320217D01*
X0266297Y0320217D02*
X0264362Y0320217D01*
X0265329Y0320217D02*
X0265329Y0323119D01*
X0266297Y0322152D01*
X0267308Y0321668D02*
X0269243Y0321668D01*
X0269243Y0322152D02*
X0268276Y0323119D01*
X0269243Y0322152D02*
X0269243Y0320217D01*
X0268276Y0318319D02*
X0267308Y0317352D01*
X0267308Y0315417D01*
X0266297Y0315901D02*
X0266297Y0316384D01*
X0265813Y0316868D01*
X0264845Y0316868D01*
X0264362Y0316384D01*
X0264362Y0315901D01*
X0264845Y0315417D01*
X0265813Y0315417D01*
X0266297Y0315901D01*
X0265813Y0316868D02*
X0266297Y0317352D01*
X0266297Y0317836D01*
X0265813Y0318319D01*
X0264845Y0318319D01*
X0264362Y0317836D01*
X0264362Y0317352D01*
X0264845Y0316868D01*
X0267308Y0316868D02*
X0269243Y0316868D01*
X0269243Y0317352D02*
X0268276Y0318319D01*
X0269243Y0317352D02*
X0269243Y0315417D01*
X0268276Y0313519D02*
X0267308Y0312552D01*
X0267308Y0310617D01*
X0266297Y0311101D02*
X0265813Y0310617D01*
X0264845Y0310617D01*
X0264362Y0311101D01*
X0264362Y0313036D01*
X0264845Y0313519D01*
X0265813Y0313519D01*
X0266297Y0313036D01*
X0266297Y0312552D01*
X0265813Y0312068D01*
X0264362Y0312068D01*
X0267308Y0312068D02*
X0269243Y0312068D01*
X0269243Y0312552D02*
X0268276Y0313519D01*
X0269243Y0312552D02*
X0269243Y0310617D01*
X0268276Y0308719D02*
X0269243Y0307752D01*
X0269243Y0305817D01*
X0269243Y0307268D02*
X0267308Y0307268D01*
X0267308Y0307752D02*
X0267308Y0305817D01*
X0266297Y0305817D02*
X0264362Y0305817D01*
X0265329Y0305817D02*
X0265329Y0308719D01*
X0266297Y0307752D01*
X0267308Y0307752D02*
X0268276Y0308719D01*
X0268276Y0303919D02*
X0267308Y0302952D01*
X0267308Y0301017D01*
X0266297Y0301017D02*
X0264362Y0301017D01*
X0265329Y0301017D02*
X0265329Y0303919D01*
X0266297Y0302952D01*
X0267308Y0302468D02*
X0269243Y0302468D01*
X0269243Y0302952D02*
X0269243Y0301017D01*
X0269243Y0302952D02*
X0268276Y0303919D01*
X0268276Y0299119D02*
X0267308Y0298152D01*
X0267308Y0296217D01*
X0266297Y0296217D02*
X0264362Y0296217D01*
X0265329Y0296217D02*
X0265329Y0299119D01*
X0266297Y0298152D01*
X0267308Y0297668D02*
X0269243Y0297668D01*
X0269243Y0298152D02*
X0268276Y0299119D01*
X0269243Y0298152D02*
X0269243Y0296217D01*
X0268276Y0294319D02*
X0267308Y0293352D01*
X0267308Y0291417D01*
X0266297Y0291417D02*
X0264362Y0291417D01*
X0265329Y0291417D02*
X0265329Y0294319D01*
X0266297Y0293352D01*
X0267308Y0292868D02*
X0269243Y0292868D01*
X0269243Y0293352D02*
X0268276Y0294319D01*
X0269243Y0293352D02*
X0269243Y0291417D01*
X0268276Y0289519D02*
X0267308Y0288552D01*
X0267308Y0286617D01*
X0266297Y0286617D02*
X0264362Y0286617D01*
X0265329Y0286617D02*
X0265329Y0289519D01*
X0266297Y0288552D01*
X0267308Y0288068D02*
X0269243Y0288068D01*
X0269243Y0288552D02*
X0268276Y0289519D01*
X0269243Y0288552D02*
X0269243Y0286617D01*
X0268276Y0284719D02*
X0269243Y0283752D01*
X0269243Y0281817D01*
X0269243Y0283268D02*
X0267308Y0283268D01*
X0267308Y0283752D02*
X0267308Y0281817D01*
X0266297Y0281817D02*
X0264362Y0281817D01*
X0265329Y0281817D02*
X0265329Y0284719D01*
X0266297Y0283752D01*
X0267308Y0283752D02*
X0268276Y0284719D01*
X0268276Y0279919D02*
X0267308Y0278952D01*
X0267308Y0277017D01*
X0266297Y0277017D02*
X0264362Y0277017D01*
X0265329Y0277017D02*
X0265329Y0279919D01*
X0266297Y0278952D01*
X0267308Y0278468D02*
X0269243Y0278468D01*
X0269243Y0278952D02*
X0269243Y0277017D01*
X0269243Y0275119D02*
X0267792Y0275119D01*
X0267308Y0274636D01*
X0267308Y0274152D01*
X0267792Y0273668D01*
X0269243Y0273668D01*
X0269243Y0272217D02*
X0267792Y0272217D01*
X0267308Y0272701D01*
X0267308Y0273184D01*
X0267792Y0273668D01*
X0266297Y0274636D02*
X0265329Y0273668D01*
X0265329Y0272217D01*
X0265329Y0273668D02*
X0264362Y0274636D01*
X0264362Y0275119D01*
X0263350Y0275119D02*
X0261415Y0275119D01*
X0262383Y0275119D02*
X0262383Y0272217D01*
X0261899Y0270319D02*
X0263350Y0270319D01*
X0263350Y0267417D01*
X0261899Y0267417D01*
X0261415Y0267901D01*
X0261415Y0269836D01*
X0261899Y0270319D01*
X0260404Y0272217D02*
X0258469Y0272217D01*
X0259436Y0273668D02*
X0260404Y0273668D01*
X0260404Y0275119D02*
X0260404Y0272217D01*
X0260404Y0275119D02*
X0258469Y0275119D01*
X0261415Y0277501D02*
X0261415Y0277984D01*
X0261899Y0278468D01*
X0263350Y0278468D01*
X0263350Y0277501D01*
X0262866Y0277017D01*
X0261899Y0277017D01*
X0261415Y0277501D01*
X0262383Y0279436D02*
X0263350Y0278468D01*
X0262383Y0279436D02*
X0261415Y0279919D01*
X0261899Y0281817D02*
X0262866Y0281817D01*
X0263350Y0282301D01*
X0263350Y0283268D02*
X0262383Y0283752D01*
X0261899Y0283752D01*
X0261415Y0283268D01*
X0261415Y0282301D01*
X0261899Y0281817D01*
X0263350Y0283268D02*
X0263350Y0284719D01*
X0261415Y0284719D01*
X0261899Y0286617D02*
X0261899Y0289519D01*
X0263350Y0288068D01*
X0261415Y0288068D01*
X0261899Y0291417D02*
X0262866Y0291417D01*
X0263350Y0291901D01*
X0262383Y0292868D02*
X0261899Y0292868D01*
X0261415Y0292384D01*
X0261415Y0291901D01*
X0261899Y0291417D01*
X0261899Y0292868D02*
X0261415Y0293352D01*
X0261415Y0293836D01*
X0261899Y0294319D01*
X0262866Y0294319D01*
X0263350Y0293836D01*
X0263350Y0296217D02*
X0261415Y0298152D01*
X0261415Y0298636D01*
X0261899Y0299119D01*
X0262866Y0299119D01*
X0263350Y0298636D01*
X0263350Y0301017D02*
X0261415Y0301017D01*
X0262383Y0301017D02*
X0262383Y0303919D01*
X0263350Y0302952D01*
X0262866Y0305817D02*
X0263350Y0306301D01*
X0261415Y0308236D01*
X0261415Y0306301D01*
X0261899Y0305817D01*
X0262866Y0305817D01*
X0263350Y0306301D02*
X0263350Y0308236D01*
X0262866Y0308719D01*
X0261899Y0308719D01*
X0261415Y0308236D01*
X0261899Y0320217D02*
X0261415Y0320701D01*
X0261415Y0322636D01*
X0261899Y0323119D01*
X0262866Y0323119D01*
X0263350Y0322636D01*
X0263350Y0322152D01*
X0262866Y0321668D01*
X0261415Y0321668D01*
X0261899Y0320217D02*
X0262866Y0320217D01*
X0263350Y0320701D01*
X0263350Y0296217D02*
X0261415Y0296217D01*
X0268276Y0279919D02*
X0269243Y0278952D01*
X0269243Y0275119D02*
X0269243Y0272217D01*
X0268759Y0270319D02*
X0267792Y0270319D01*
X0267308Y0269836D01*
X0267308Y0268868D02*
X0268276Y0268868D01*
X0267308Y0268868D02*
X0267308Y0267901D01*
X0267792Y0267417D01*
X0268759Y0267417D01*
X0269243Y0267901D01*
X0269243Y0269836D01*
X0268759Y0270319D01*
X0266297Y0270319D02*
X0264362Y0267417D01*
X0264362Y0270319D01*
X0266297Y0270319D02*
X0266297Y0267417D01*
X0265329Y0265519D02*
X0265329Y0262617D01*
X0264362Y0262617D02*
X0266297Y0262617D01*
X0267308Y0263101D02*
X0267792Y0262617D01*
X0269243Y0262617D01*
X0269243Y0265519D01*
X0267792Y0265519D01*
X0267308Y0265036D01*
X0267308Y0263101D01*
X0266297Y0264552D02*
X0265329Y0265519D01*
X0263350Y0265519D02*
X0263350Y0264068D01*
X0262383Y0264552D01*
X0261899Y0264552D01*
X0261415Y0264068D01*
X0261415Y0263101D01*
X0261899Y0262617D01*
X0262866Y0262617D01*
X0263350Y0263101D01*
X0263350Y0265519D02*
X0261415Y0265519D01*
X0264362Y0260719D02*
X0264362Y0260236D01*
X0266297Y0258301D01*
X0266297Y0257817D01*
X0267308Y0258301D02*
X0267308Y0260236D01*
X0267792Y0260719D01*
X0269243Y0260719D01*
X0269243Y0257817D01*
X0267792Y0257817D01*
X0267308Y0258301D01*
X0267792Y0255919D02*
X0269243Y0255919D01*
X0269243Y0253017D01*
X0267792Y0253017D01*
X0267308Y0253501D01*
X0267308Y0255436D01*
X0267792Y0255919D01*
X0266297Y0254952D02*
X0265329Y0255919D01*
X0265329Y0253017D01*
X0264362Y0253017D02*
X0266297Y0253017D01*
X0267792Y0251119D02*
X0269243Y0251119D01*
X0269243Y0248217D01*
X0267792Y0248217D01*
X0267308Y0248701D01*
X0267308Y0250636D01*
X0267792Y0251119D01*
X0266297Y0249668D02*
X0264845Y0249668D01*
X0264362Y0249184D01*
X0264362Y0248701D01*
X0264845Y0248217D01*
X0265813Y0248217D01*
X0266297Y0248701D01*
X0266297Y0249668D01*
X0265329Y0250636D01*
X0264362Y0251119D01*
X0261899Y0253017D02*
X0261899Y0255919D01*
X0263350Y0254468D01*
X0261415Y0254468D01*
X0264362Y0260719D02*
X0266297Y0260719D01*
X0266297Y0274636D02*
X0266297Y0275119D01*
X0265329Y0246319D02*
X0265329Y0243417D01*
X0264362Y0243417D02*
X0266297Y0243417D01*
X0267308Y0243901D02*
X0267308Y0245836D01*
X0267792Y0246319D01*
X0269243Y0246319D01*
X0269243Y0243417D01*
X0267792Y0243417D01*
X0267308Y0243901D01*
X0266297Y0245352D02*
X0265329Y0246319D01*
X0263350Y0245836D02*
X0262866Y0246319D01*
X0261899Y0246319D01*
X0261415Y0245836D01*
X0261415Y0245352D01*
X0261899Y0244868D01*
X0261415Y0244384D01*
X0261415Y0243901D01*
X0261899Y0243417D01*
X0262866Y0243417D01*
X0263350Y0243901D01*
X0262383Y0244868D02*
X0261899Y0244868D01*
X0264362Y0241519D02*
X0266297Y0241519D01*
X0266297Y0240068D01*
X0265329Y0240552D01*
X0264845Y0240552D01*
X0264362Y0240068D01*
X0264362Y0239101D01*
X0264845Y0238617D01*
X0265813Y0238617D01*
X0266297Y0239101D01*
X0267308Y0239101D02*
X0267308Y0241036D01*
X0267792Y0241519D01*
X0269243Y0241519D01*
X0269243Y0238617D01*
X0267792Y0238617D01*
X0267308Y0239101D01*
X0267792Y0236719D02*
X0269243Y0236719D01*
X0269243Y0233817D01*
X0267792Y0233817D01*
X0267308Y0234301D01*
X0267308Y0236236D01*
X0267792Y0236719D01*
X0266297Y0235752D02*
X0265329Y0236719D01*
X0265329Y0233817D01*
X0264362Y0233817D02*
X0266297Y0233817D01*
X0264845Y0231919D02*
X0266297Y0230468D01*
X0264362Y0230468D01*
X0264845Y0229017D02*
X0264845Y0231919D01*
X0263350Y0233817D02*
X0261415Y0235752D01*
X0261415Y0236236D01*
X0261899Y0236719D01*
X0262866Y0236719D01*
X0263350Y0236236D01*
X0263350Y0233817D02*
X0261415Y0233817D01*
X0267308Y0231436D02*
X0267308Y0229501D01*
X0267792Y0229017D01*
X0269243Y0229017D01*
X0269243Y0231919D01*
X0267792Y0231919D01*
X0267308Y0231436D01*
X0267308Y0227119D02*
X0267308Y0225184D01*
X0268276Y0224217D01*
X0269243Y0225184D01*
X0269243Y0227119D01*
X0266297Y0226636D02*
X0266297Y0224701D01*
X0265813Y0224217D01*
X0264845Y0224217D01*
X0264362Y0224701D01*
X0263350Y0224701D02*
X0262866Y0224217D01*
X0261899Y0224217D01*
X0261415Y0224701D01*
X0261415Y0226636D02*
X0261899Y0227119D01*
X0262866Y0227119D01*
X0263350Y0226636D01*
X0263350Y0224701D01*
X0264362Y0226636D02*
X0264845Y0227119D01*
X0265813Y0227119D01*
X0266297Y0226636D01*
X0224427Y0227119D02*
X0222975Y0227119D01*
X0222492Y0226636D01*
X0222492Y0224701D01*
X0222975Y0224217D01*
X0224427Y0224217D01*
X0224427Y0227119D01*
X0224427Y0229017D02*
X0222975Y0229017D01*
X0222492Y0229501D01*
X0222492Y0231436D01*
X0222975Y0231919D01*
X0224427Y0231919D01*
X0224427Y0229017D01*
X0221480Y0229501D02*
X0220996Y0229017D01*
X0220029Y0229017D01*
X0219545Y0229501D01*
X0219545Y0229984D01*
X0220029Y0230468D01*
X0220513Y0230468D01*
X0220029Y0230468D02*
X0219545Y0230952D01*
X0219545Y0231436D01*
X0220029Y0231919D01*
X0220996Y0231919D01*
X0221480Y0231436D01*
X0221480Y0233817D02*
X0219545Y0233817D01*
X0220513Y0233817D02*
X0220513Y0236719D01*
X0221480Y0235752D01*
X0222492Y0236236D02*
X0222975Y0236719D01*
X0224427Y0236719D01*
X0224427Y0233817D01*
X0222975Y0233817D01*
X0222492Y0234301D01*
X0222492Y0236236D01*
X0222975Y0238617D02*
X0222492Y0239101D01*
X0222492Y0241036D01*
X0222975Y0241519D01*
X0224427Y0241519D01*
X0224427Y0238617D01*
X0222975Y0238617D01*
X0221480Y0238617D02*
X0219545Y0240552D01*
X0219545Y0241036D01*
X0220029Y0241519D01*
X0220996Y0241519D01*
X0221480Y0241036D01*
X0221480Y0238617D02*
X0219545Y0238617D01*
X0218050Y0236719D02*
X0217082Y0236719D01*
X0216599Y0236236D01*
X0218534Y0234301D01*
X0218050Y0233817D01*
X0217082Y0233817D01*
X0216599Y0234301D01*
X0216599Y0236236D01*
X0218050Y0236719D02*
X0218534Y0236236D01*
X0218534Y0234301D01*
X0217566Y0227119D02*
X0217566Y0224217D01*
X0216599Y0224217D02*
X0218534Y0224217D01*
X0219545Y0224217D02*
X0221480Y0224217D01*
X0220513Y0224217D02*
X0220513Y0227119D01*
X0221480Y0226152D01*
X0218534Y0226152D02*
X0217566Y0227119D01*
X0220029Y0243417D02*
X0219545Y0243901D01*
X0219545Y0245836D01*
X0220029Y0246319D01*
X0220996Y0246319D01*
X0221480Y0245836D01*
X0221480Y0245352D01*
X0220996Y0244868D01*
X0219545Y0244868D01*
X0220029Y0243417D02*
X0220996Y0243417D01*
X0221480Y0243901D01*
X0222492Y0243901D02*
X0222492Y0245836D01*
X0222975Y0246319D01*
X0224427Y0246319D01*
X0224427Y0243417D01*
X0222975Y0243417D01*
X0222492Y0243901D01*
X0222975Y0248217D02*
X0222492Y0248701D01*
X0222492Y0250636D01*
X0222975Y0251119D01*
X0224427Y0251119D01*
X0224427Y0248217D01*
X0222975Y0248217D01*
X0221480Y0248217D02*
X0219545Y0248217D01*
X0220513Y0248217D02*
X0220513Y0251119D01*
X0221480Y0250152D01*
X0220996Y0253017D02*
X0220029Y0253017D01*
X0219545Y0253501D01*
X0219545Y0253984D01*
X0220029Y0254468D01*
X0220996Y0254468D01*
X0221480Y0254952D01*
X0221480Y0255436D01*
X0220996Y0255919D01*
X0220029Y0255919D01*
X0219545Y0255436D01*
X0219545Y0254952D01*
X0220029Y0254468D01*
X0220996Y0254468D02*
X0221480Y0253984D01*
X0221480Y0253501D01*
X0220996Y0253017D01*
X0222492Y0253501D02*
X0222492Y0255436D01*
X0222975Y0255919D01*
X0224427Y0255919D01*
X0224427Y0253017D01*
X0222975Y0253017D01*
X0222492Y0253501D01*
X0222975Y0257817D02*
X0222492Y0258301D01*
X0222492Y0260236D01*
X0222975Y0260719D01*
X0224427Y0260719D01*
X0224427Y0257817D01*
X0222975Y0257817D01*
X0221480Y0258301D02*
X0219545Y0260236D01*
X0219545Y0258301D01*
X0220029Y0257817D01*
X0220996Y0257817D01*
X0221480Y0258301D01*
X0221480Y0260236D01*
X0220996Y0260719D01*
X0220029Y0260719D01*
X0219545Y0260236D01*
X0219545Y0262617D02*
X0221480Y0262617D01*
X0221480Y0265519D01*
X0219545Y0265519D01*
X0220513Y0264068D02*
X0221480Y0264068D01*
X0222492Y0263101D02*
X0222492Y0265036D01*
X0222975Y0265519D01*
X0223943Y0265519D01*
X0224427Y0265036D01*
X0224427Y0263101D01*
X0223943Y0262617D01*
X0222975Y0262617D01*
X0222492Y0263101D01*
X0313055Y0267901D02*
X0313055Y0269836D01*
X0313539Y0270319D01*
X0314990Y0270319D01*
X0314990Y0267417D01*
X0313539Y0267417D01*
X0313055Y0267901D01*
X0316002Y0267417D02*
X0316002Y0270319D01*
X0316002Y0272217D02*
X0317937Y0272217D01*
X0317937Y0275119D01*
X0316002Y0275119D01*
X0316969Y0273668D02*
X0317937Y0273668D01*
X0318948Y0272701D02*
X0319432Y0272217D01*
X0320400Y0272217D01*
X0320883Y0272701D01*
X0320883Y0274636D01*
X0320400Y0275119D01*
X0319432Y0275119D01*
X0318948Y0274636D01*
X0318948Y0277017D02*
X0318948Y0278952D01*
X0319916Y0279919D01*
X0320883Y0278952D01*
X0320883Y0277017D01*
X0320883Y0278468D02*
X0318948Y0278468D01*
X0317937Y0277501D02*
X0316002Y0279436D01*
X0316002Y0277501D01*
X0316486Y0277017D01*
X0317453Y0277017D01*
X0317937Y0277501D01*
X0317937Y0279436D01*
X0317453Y0279919D01*
X0316486Y0279919D01*
X0316002Y0279436D01*
X0316002Y0281817D02*
X0317937Y0281817D01*
X0316969Y0281817D02*
X0316969Y0284719D01*
X0317937Y0283752D01*
X0318948Y0283752D02*
X0318948Y0281817D01*
X0318948Y0283268D02*
X0320883Y0283268D01*
X0320883Y0283752D02*
X0319916Y0284719D01*
X0318948Y0283752D01*
X0320883Y0283752D02*
X0320883Y0281817D01*
X0320883Y0286617D02*
X0320883Y0288552D01*
X0319916Y0289519D01*
X0318948Y0288552D01*
X0318948Y0286617D01*
X0317937Y0286617D02*
X0316002Y0288552D01*
X0316002Y0289036D01*
X0316486Y0289519D01*
X0317453Y0289519D01*
X0317937Y0289036D01*
X0318948Y0288068D02*
X0320883Y0288068D01*
X0317937Y0286617D02*
X0316002Y0286617D01*
X0316486Y0291417D02*
X0316002Y0291901D01*
X0316002Y0292384D01*
X0316486Y0292868D01*
X0316969Y0292868D01*
X0316486Y0292868D02*
X0316002Y0293352D01*
X0316002Y0293836D01*
X0316486Y0294319D01*
X0317453Y0294319D01*
X0317937Y0293836D01*
X0318948Y0293352D02*
X0318948Y0291417D01*
X0317937Y0291901D02*
X0317453Y0291417D01*
X0316486Y0291417D01*
X0318948Y0292868D02*
X0320883Y0292868D01*
X0320883Y0293352D02*
X0319916Y0294319D01*
X0318948Y0293352D01*
X0320883Y0293352D02*
X0320883Y0291417D01*
X0320883Y0296217D02*
X0320883Y0298152D01*
X0319916Y0299119D01*
X0318948Y0298152D01*
X0318948Y0296217D01*
X0318948Y0297668D02*
X0320883Y0297668D01*
X0317937Y0297668D02*
X0316486Y0299119D01*
X0316486Y0296217D01*
X0316002Y0297668D02*
X0317937Y0297668D01*
X0317453Y0301017D02*
X0317937Y0301501D01*
X0317453Y0301017D02*
X0316486Y0301017D01*
X0316002Y0301501D01*
X0316002Y0302468D01*
X0316486Y0302952D01*
X0316969Y0302952D01*
X0317937Y0302468D01*
X0317937Y0303919D01*
X0316002Y0303919D01*
X0316486Y0305817D02*
X0316002Y0306301D01*
X0316002Y0306784D01*
X0316486Y0307268D01*
X0317937Y0307268D01*
X0317937Y0306301D01*
X0317453Y0305817D01*
X0316486Y0305817D01*
X0317937Y0307268D02*
X0316969Y0308236D01*
X0316002Y0308719D01*
X0317937Y0310617D02*
X0317937Y0311101D01*
X0316002Y0313036D01*
X0316002Y0313519D01*
X0317937Y0313519D01*
X0318948Y0312552D02*
X0318948Y0310617D01*
X0318948Y0312068D02*
X0320883Y0312068D01*
X0320883Y0312552D02*
X0319916Y0313519D01*
X0318948Y0312552D01*
X0320883Y0312552D02*
X0320883Y0310617D01*
X0319916Y0308719D02*
X0320883Y0307752D01*
X0320883Y0305817D01*
X0320883Y0307268D02*
X0318948Y0307268D01*
X0318948Y0307752D02*
X0318948Y0305817D01*
X0318948Y0307752D02*
X0319916Y0308719D01*
X0319916Y0303919D02*
X0318948Y0302952D01*
X0318948Y0301017D01*
X0318948Y0302468D02*
X0320883Y0302468D01*
X0320883Y0302952D02*
X0320883Y0301017D01*
X0320883Y0302952D02*
X0319916Y0303919D01*
X0320883Y0315417D02*
X0320883Y0317352D01*
X0319916Y0318319D01*
X0318948Y0317352D01*
X0318948Y0315417D01*
X0317937Y0315417D02*
X0316002Y0315417D01*
X0316969Y0315417D02*
X0316969Y0318319D01*
X0317937Y0317352D01*
X0318948Y0316868D02*
X0320883Y0316868D01*
X0320883Y0320217D02*
X0320883Y0322152D01*
X0319916Y0323119D01*
X0318948Y0322152D01*
X0318948Y0320217D01*
X0317937Y0320217D02*
X0316002Y0320217D01*
X0316969Y0320217D02*
X0316969Y0323119D01*
X0317937Y0322152D01*
X0318948Y0321668D02*
X0320883Y0321668D01*
X0320883Y0325017D02*
X0319916Y0325984D01*
X0318948Y0325017D01*
X0318948Y0327919D01*
X0317937Y0327919D02*
X0317937Y0325017D01*
X0316002Y0325017D01*
X0316969Y0326468D02*
X0317937Y0326468D01*
X0317937Y0327919D02*
X0316002Y0327919D01*
X0314506Y0323119D02*
X0313539Y0323119D01*
X0313055Y0322636D01*
X0313055Y0322152D01*
X0313539Y0321668D01*
X0314506Y0321668D01*
X0314990Y0322152D01*
X0314990Y0322636D01*
X0314506Y0323119D01*
X0314506Y0321668D02*
X0314990Y0321184D01*
X0314990Y0320701D01*
X0314506Y0320217D01*
X0313539Y0320217D01*
X0313055Y0320701D01*
X0313055Y0321184D01*
X0313539Y0321668D01*
X0313055Y0318319D02*
X0313055Y0317836D01*
X0314990Y0315901D01*
X0314990Y0315417D01*
X0314990Y0318319D02*
X0313055Y0318319D01*
X0320883Y0325017D02*
X0320883Y0327919D01*
X0357872Y0327436D02*
X0359807Y0325501D01*
X0359323Y0325017D01*
X0358356Y0325017D01*
X0357872Y0325501D01*
X0357872Y0327436D01*
X0358356Y0327919D01*
X0359323Y0327919D01*
X0359807Y0327436D01*
X0359807Y0325501D01*
X0360818Y0325017D02*
X0362753Y0325017D01*
X0360818Y0326952D01*
X0360818Y0327436D01*
X0361302Y0327919D01*
X0362270Y0327919D01*
X0362753Y0327436D01*
X0363765Y0326952D02*
X0363765Y0325017D01*
X0363765Y0326468D02*
X0365700Y0326468D01*
X0365700Y0326952D02*
X0365700Y0325017D01*
X0365700Y0326952D02*
X0364732Y0327919D01*
X0363765Y0326952D01*
X0364732Y0323119D02*
X0363765Y0322152D01*
X0363765Y0320217D01*
X0362753Y0320217D02*
X0360818Y0320217D01*
X0361786Y0320217D02*
X0361786Y0323119D01*
X0362753Y0322152D01*
X0363765Y0321668D02*
X0365700Y0321668D01*
X0365700Y0322152D02*
X0364732Y0323119D01*
X0365700Y0322152D02*
X0365700Y0320217D01*
X0364732Y0318319D02*
X0363765Y0317352D01*
X0363765Y0315417D01*
X0362753Y0315901D02*
X0362753Y0316384D01*
X0362270Y0316868D01*
X0361302Y0316868D01*
X0360818Y0316384D01*
X0360818Y0315901D01*
X0361302Y0315417D01*
X0362270Y0315417D01*
X0362753Y0315901D01*
X0362270Y0316868D02*
X0362753Y0317352D01*
X0362753Y0317836D01*
X0362270Y0318319D01*
X0361302Y0318319D01*
X0360818Y0317836D01*
X0360818Y0317352D01*
X0361302Y0316868D01*
X0363765Y0316868D02*
X0365700Y0316868D01*
X0365700Y0317352D02*
X0364732Y0318319D01*
X0365700Y0317352D02*
X0365700Y0315417D01*
X0364732Y0313519D02*
X0363765Y0312552D01*
X0363765Y0310617D01*
X0362753Y0311101D02*
X0362270Y0310617D01*
X0361302Y0310617D01*
X0360818Y0311101D01*
X0360818Y0313036D01*
X0361302Y0313519D01*
X0362270Y0313519D01*
X0362753Y0313036D01*
X0362753Y0312552D01*
X0362270Y0312068D01*
X0360818Y0312068D01*
X0363765Y0312068D02*
X0365700Y0312068D01*
X0365700Y0312552D02*
X0364732Y0313519D01*
X0365700Y0312552D02*
X0365700Y0310617D01*
X0364732Y0308719D02*
X0363765Y0307752D01*
X0363765Y0305817D01*
X0362753Y0305817D02*
X0360818Y0305817D01*
X0361786Y0305817D02*
X0361786Y0308719D01*
X0362753Y0307752D01*
X0363765Y0307268D02*
X0365700Y0307268D01*
X0365700Y0307752D02*
X0364732Y0308719D01*
X0365700Y0307752D02*
X0365700Y0305817D01*
X0364732Y0303919D02*
X0363765Y0302952D01*
X0363765Y0301017D01*
X0362753Y0301017D02*
X0360818Y0301017D01*
X0361786Y0301017D02*
X0361786Y0303919D01*
X0362753Y0302952D01*
X0363765Y0302468D02*
X0365700Y0302468D01*
X0365700Y0302952D02*
X0365700Y0301017D01*
X0365700Y0302952D02*
X0364732Y0303919D01*
X0364732Y0299119D02*
X0363765Y0298152D01*
X0363765Y0296217D01*
X0362753Y0296217D02*
X0360818Y0296217D01*
X0361786Y0296217D02*
X0361786Y0299119D01*
X0362753Y0298152D01*
X0363765Y0297668D02*
X0365700Y0297668D01*
X0365700Y0298152D02*
X0364732Y0299119D01*
X0365700Y0298152D02*
X0365700Y0296217D01*
X0364732Y0294319D02*
X0363765Y0293352D01*
X0363765Y0291417D01*
X0362753Y0291417D02*
X0360818Y0291417D01*
X0361786Y0291417D02*
X0361786Y0294319D01*
X0362753Y0293352D01*
X0363765Y0292868D02*
X0365700Y0292868D01*
X0365700Y0293352D02*
X0364732Y0294319D01*
X0365700Y0293352D02*
X0365700Y0291417D01*
X0364732Y0289519D02*
X0363765Y0288552D01*
X0363765Y0286617D01*
X0362753Y0286617D02*
X0360818Y0286617D01*
X0361786Y0286617D02*
X0361786Y0289519D01*
X0362753Y0288552D01*
X0363765Y0288068D02*
X0365700Y0288068D01*
X0365700Y0288552D02*
X0364732Y0289519D01*
X0365700Y0288552D02*
X0365700Y0286617D01*
X0364732Y0284719D02*
X0363765Y0283752D01*
X0363765Y0281817D01*
X0362753Y0281817D02*
X0360818Y0281817D01*
X0361786Y0281817D02*
X0361786Y0284719D01*
X0362753Y0283752D01*
X0363765Y0283268D02*
X0365700Y0283268D01*
X0365700Y0283752D02*
X0364732Y0284719D01*
X0365700Y0283752D02*
X0365700Y0281817D01*
X0364732Y0279919D02*
X0363765Y0278952D01*
X0363765Y0277017D01*
X0362753Y0277017D02*
X0360818Y0277017D01*
X0361786Y0277017D02*
X0361786Y0279919D01*
X0362753Y0278952D01*
X0363765Y0278468D02*
X0365700Y0278468D01*
X0365700Y0278952D02*
X0365700Y0277017D01*
X0365700Y0275119D02*
X0364249Y0275119D01*
X0363765Y0274636D01*
X0363765Y0274152D01*
X0364249Y0273668D01*
X0365700Y0273668D01*
X0365700Y0272217D02*
X0364249Y0272217D01*
X0363765Y0272701D01*
X0363765Y0273184D01*
X0364249Y0273668D01*
X0362753Y0274636D02*
X0361786Y0273668D01*
X0361786Y0272217D01*
X0361786Y0273668D02*
X0360818Y0274636D01*
X0360818Y0275119D01*
X0359807Y0275119D02*
X0357872Y0275119D01*
X0358839Y0275119D02*
X0358839Y0272217D01*
X0358356Y0270319D02*
X0359807Y0270319D01*
X0359807Y0267417D01*
X0358356Y0267417D01*
X0357872Y0267901D01*
X0357872Y0269836D01*
X0358356Y0270319D01*
X0356860Y0272217D02*
X0354925Y0272217D01*
X0355893Y0273668D02*
X0356860Y0273668D01*
X0356860Y0275119D02*
X0356860Y0272217D01*
X0356860Y0275119D02*
X0354925Y0275119D01*
X0357872Y0277501D02*
X0357872Y0277984D01*
X0358356Y0278468D01*
X0359807Y0278468D01*
X0359807Y0277501D01*
X0359323Y0277017D01*
X0358356Y0277017D01*
X0357872Y0277501D01*
X0358839Y0279436D02*
X0359807Y0278468D01*
X0358839Y0279436D02*
X0357872Y0279919D01*
X0358356Y0281817D02*
X0359323Y0281817D01*
X0359807Y0282301D01*
X0359807Y0283268D02*
X0358839Y0283752D01*
X0358356Y0283752D01*
X0357872Y0283268D01*
X0357872Y0282301D01*
X0358356Y0281817D01*
X0359807Y0283268D02*
X0359807Y0284719D01*
X0357872Y0284719D01*
X0358356Y0286617D02*
X0358356Y0289519D01*
X0359807Y0288068D01*
X0357872Y0288068D01*
X0358356Y0291417D02*
X0359323Y0291417D01*
X0359807Y0291901D01*
X0358839Y0292868D02*
X0358356Y0292868D01*
X0357872Y0292384D01*
X0357872Y0291901D01*
X0358356Y0291417D01*
X0358356Y0292868D02*
X0357872Y0293352D01*
X0357872Y0293836D01*
X0358356Y0294319D01*
X0359323Y0294319D01*
X0359807Y0293836D01*
X0359807Y0296217D02*
X0357872Y0298152D01*
X0357872Y0298636D01*
X0358356Y0299119D01*
X0359323Y0299119D01*
X0359807Y0298636D01*
X0359807Y0301017D02*
X0357872Y0301017D01*
X0358839Y0301017D02*
X0358839Y0303919D01*
X0359807Y0302952D01*
X0359323Y0305817D02*
X0359807Y0306301D01*
X0357872Y0308236D01*
X0357872Y0306301D01*
X0358356Y0305817D01*
X0359323Y0305817D01*
X0359807Y0306301D02*
X0359807Y0308236D01*
X0359323Y0308719D01*
X0358356Y0308719D01*
X0357872Y0308236D01*
X0358356Y0320217D02*
X0357872Y0320701D01*
X0357872Y0322636D01*
X0358356Y0323119D01*
X0359323Y0323119D01*
X0359807Y0322636D01*
X0359807Y0322152D01*
X0359323Y0321668D01*
X0357872Y0321668D01*
X0358356Y0320217D02*
X0359323Y0320217D01*
X0359807Y0320701D01*
X0359807Y0296217D02*
X0357872Y0296217D01*
X0364732Y0279919D02*
X0365700Y0278952D01*
X0365700Y0275119D02*
X0365700Y0272217D01*
X0365216Y0270319D02*
X0364249Y0270319D01*
X0363765Y0269836D01*
X0363765Y0268868D02*
X0364732Y0268868D01*
X0363765Y0268868D02*
X0363765Y0267901D01*
X0364249Y0267417D01*
X0365216Y0267417D01*
X0365700Y0267901D01*
X0365700Y0269836D01*
X0365216Y0270319D01*
X0362753Y0270319D02*
X0360818Y0267417D01*
X0360818Y0270319D01*
X0362753Y0270319D02*
X0362753Y0267417D01*
X0361786Y0265519D02*
X0361786Y0262617D01*
X0362753Y0262617D02*
X0360818Y0262617D01*
X0359807Y0263101D02*
X0359323Y0262617D01*
X0358356Y0262617D01*
X0357872Y0263101D01*
X0357872Y0264068D01*
X0358356Y0264552D01*
X0358839Y0264552D01*
X0359807Y0264068D01*
X0359807Y0265519D01*
X0357872Y0265519D01*
X0361786Y0265519D02*
X0362753Y0264552D01*
X0363765Y0265036D02*
X0364249Y0265519D01*
X0365700Y0265519D01*
X0365700Y0262617D01*
X0364249Y0262617D01*
X0363765Y0263101D01*
X0363765Y0265036D01*
X0364249Y0260719D02*
X0365700Y0260719D01*
X0365700Y0257817D01*
X0364249Y0257817D01*
X0363765Y0258301D01*
X0363765Y0260236D01*
X0364249Y0260719D01*
X0362753Y0260719D02*
X0360818Y0260719D01*
X0360818Y0260236D01*
X0362753Y0258301D01*
X0362753Y0257817D01*
X0361786Y0255919D02*
X0361786Y0253017D01*
X0362753Y0253017D02*
X0360818Y0253017D01*
X0359807Y0254468D02*
X0358356Y0255919D01*
X0358356Y0253017D01*
X0357872Y0254468D02*
X0359807Y0254468D01*
X0361786Y0255919D02*
X0362753Y0254952D01*
X0363765Y0255436D02*
X0363765Y0253501D01*
X0364249Y0253017D01*
X0365700Y0253017D01*
X0365700Y0255919D01*
X0364249Y0255919D01*
X0363765Y0255436D01*
X0364249Y0251119D02*
X0365700Y0251119D01*
X0365700Y0248217D01*
X0364249Y0248217D01*
X0363765Y0248701D01*
X0363765Y0250636D01*
X0364249Y0251119D01*
X0362753Y0249668D02*
X0361302Y0249668D01*
X0360818Y0249184D01*
X0360818Y0248701D01*
X0361302Y0248217D01*
X0362270Y0248217D01*
X0362753Y0248701D01*
X0362753Y0249668D01*
X0361786Y0250636D01*
X0360818Y0251119D01*
X0361786Y0246319D02*
X0361786Y0243417D01*
X0362753Y0243417D02*
X0360818Y0243417D01*
X0359807Y0243901D02*
X0359323Y0243417D01*
X0358356Y0243417D01*
X0357872Y0243901D01*
X0357872Y0244384D01*
X0358356Y0244868D01*
X0358839Y0244868D01*
X0358356Y0244868D02*
X0357872Y0245352D01*
X0357872Y0245836D01*
X0358356Y0246319D01*
X0359323Y0246319D01*
X0359807Y0245836D01*
X0361786Y0246319D02*
X0362753Y0245352D01*
X0363765Y0245836D02*
X0364249Y0246319D01*
X0365700Y0246319D01*
X0365700Y0243417D01*
X0364249Y0243417D01*
X0363765Y0243901D01*
X0363765Y0245836D01*
X0364249Y0241519D02*
X0365700Y0241519D01*
X0365700Y0238617D01*
X0364249Y0238617D01*
X0363765Y0239101D01*
X0363765Y0241036D01*
X0364249Y0241519D01*
X0362753Y0241519D02*
X0362753Y0240068D01*
X0361786Y0240552D01*
X0361302Y0240552D01*
X0360818Y0240068D01*
X0360818Y0239101D01*
X0361302Y0238617D01*
X0362270Y0238617D01*
X0362753Y0239101D01*
X0362753Y0241519D02*
X0360818Y0241519D01*
X0361786Y0236719D02*
X0361786Y0233817D01*
X0362753Y0233817D02*
X0360818Y0233817D01*
X0359807Y0233817D02*
X0357872Y0235752D01*
X0357872Y0236236D01*
X0358356Y0236719D01*
X0359323Y0236719D01*
X0359807Y0236236D01*
X0361786Y0236719D02*
X0362753Y0235752D01*
X0363765Y0236236D02*
X0364249Y0236719D01*
X0365700Y0236719D01*
X0365700Y0233817D01*
X0364249Y0233817D01*
X0363765Y0234301D01*
X0363765Y0236236D01*
X0364249Y0231919D02*
X0365700Y0231919D01*
X0365700Y0229017D01*
X0364249Y0229017D01*
X0363765Y0229501D01*
X0363765Y0231436D01*
X0364249Y0231919D01*
X0362753Y0230468D02*
X0361302Y0231919D01*
X0361302Y0229017D01*
X0360818Y0230468D02*
X0362753Y0230468D01*
X0362270Y0227119D02*
X0362753Y0226636D01*
X0362753Y0224701D01*
X0362270Y0224217D01*
X0361302Y0224217D01*
X0360818Y0224701D01*
X0359807Y0224701D02*
X0359323Y0224217D01*
X0358356Y0224217D01*
X0357872Y0224701D01*
X0357872Y0226636D02*
X0358356Y0227119D01*
X0359323Y0227119D01*
X0359807Y0226636D01*
X0359807Y0224701D01*
X0360818Y0226636D02*
X0361302Y0227119D01*
X0362270Y0227119D01*
X0363765Y0227119D02*
X0363765Y0225184D01*
X0364732Y0224217D01*
X0365700Y0225184D01*
X0365700Y0227119D01*
X0359807Y0233817D02*
X0357872Y0233817D01*
X0320883Y0233817D02*
X0319432Y0233817D01*
X0318948Y0234301D01*
X0318948Y0236236D01*
X0319432Y0236719D01*
X0320883Y0236719D01*
X0320883Y0233817D01*
X0320883Y0231919D02*
X0319432Y0231919D01*
X0318948Y0231436D01*
X0318948Y0229501D01*
X0319432Y0229017D01*
X0320883Y0229017D01*
X0320883Y0231919D01*
X0317937Y0231436D02*
X0317453Y0231919D01*
X0316486Y0231919D01*
X0316002Y0231436D01*
X0316002Y0230952D01*
X0316486Y0230468D01*
X0316002Y0229984D01*
X0316002Y0229501D01*
X0316486Y0229017D01*
X0317453Y0229017D01*
X0317937Y0229501D01*
X0316969Y0230468D02*
X0316486Y0230468D01*
X0316969Y0227119D02*
X0316969Y0224217D01*
X0316002Y0224217D02*
X0317937Y0224217D01*
X0318948Y0224701D02*
X0318948Y0226636D01*
X0319432Y0227119D01*
X0320883Y0227119D01*
X0320883Y0224217D01*
X0319432Y0224217D01*
X0318948Y0224701D01*
X0317937Y0226152D02*
X0316969Y0227119D01*
X0314990Y0226152D02*
X0314023Y0227119D01*
X0314023Y0224217D01*
X0314990Y0224217D02*
X0313055Y0224217D01*
X0313539Y0233817D02*
X0314506Y0233817D01*
X0314990Y0234301D01*
X0313055Y0236236D01*
X0313055Y0234301D01*
X0313539Y0233817D01*
X0314990Y0234301D02*
X0314990Y0236236D01*
X0314506Y0236719D01*
X0313539Y0236719D01*
X0313055Y0236236D01*
X0316002Y0238617D02*
X0317937Y0238617D01*
X0316002Y0240552D01*
X0316002Y0241036D01*
X0316486Y0241519D01*
X0317453Y0241519D01*
X0317937Y0241036D01*
X0318948Y0241036D02*
X0319432Y0241519D01*
X0320883Y0241519D01*
X0320883Y0238617D01*
X0319432Y0238617D01*
X0318948Y0239101D01*
X0318948Y0241036D01*
X0319432Y0243417D02*
X0318948Y0243901D01*
X0318948Y0245836D01*
X0319432Y0246319D01*
X0320883Y0246319D01*
X0320883Y0243417D01*
X0319432Y0243417D01*
X0317937Y0243901D02*
X0317453Y0243417D01*
X0316486Y0243417D01*
X0316002Y0243901D01*
X0316002Y0245836D01*
X0316486Y0246319D01*
X0317453Y0246319D01*
X0317937Y0245836D01*
X0317937Y0245352D01*
X0317453Y0244868D01*
X0316002Y0244868D01*
X0316002Y0248217D02*
X0317937Y0248217D01*
X0316969Y0248217D02*
X0316969Y0251119D01*
X0317937Y0250152D01*
X0318948Y0250636D02*
X0319432Y0251119D01*
X0320883Y0251119D01*
X0320883Y0248217D01*
X0319432Y0248217D01*
X0318948Y0248701D01*
X0318948Y0250636D01*
X0319432Y0253017D02*
X0318948Y0253501D01*
X0318948Y0255436D01*
X0319432Y0255919D01*
X0320883Y0255919D01*
X0320883Y0253017D01*
X0319432Y0253017D01*
X0317937Y0253501D02*
X0317937Y0253984D01*
X0317453Y0254468D01*
X0316486Y0254468D01*
X0316002Y0253984D01*
X0316002Y0253501D01*
X0316486Y0253017D01*
X0317453Y0253017D01*
X0317937Y0253501D01*
X0317453Y0254468D02*
X0317937Y0254952D01*
X0317937Y0255436D01*
X0317453Y0255919D01*
X0316486Y0255919D01*
X0316002Y0255436D01*
X0316002Y0254952D01*
X0316486Y0254468D01*
X0316486Y0257817D02*
X0316002Y0258301D01*
X0316002Y0260236D01*
X0317937Y0258301D01*
X0317453Y0257817D01*
X0316486Y0257817D01*
X0317937Y0258301D02*
X0317937Y0260236D01*
X0317453Y0260719D01*
X0316486Y0260719D01*
X0316002Y0260236D01*
X0316002Y0262617D02*
X0317937Y0262617D01*
X0317937Y0265519D01*
X0316002Y0265519D01*
X0316969Y0264068D02*
X0317937Y0264068D01*
X0318948Y0263101D02*
X0318948Y0265036D01*
X0319432Y0265519D01*
X0320400Y0265519D01*
X0320883Y0265036D01*
X0320883Y0263101D01*
X0320400Y0262617D01*
X0319432Y0262617D01*
X0318948Y0263101D01*
X0319432Y0260719D02*
X0320883Y0260719D01*
X0320883Y0257817D01*
X0319432Y0257817D01*
X0318948Y0258301D01*
X0318948Y0260236D01*
X0319432Y0260719D01*
X0319432Y0267417D02*
X0318948Y0267901D01*
X0318948Y0268868D01*
X0319916Y0268868D01*
X0320883Y0267901D02*
X0320400Y0267417D01*
X0319432Y0267417D01*
X0317937Y0267417D02*
X0317937Y0270319D01*
X0316002Y0267417D01*
X0318948Y0269836D02*
X0319432Y0270319D01*
X0320400Y0270319D01*
X0320883Y0269836D01*
X0320883Y0267901D01*
X0316969Y0236719D02*
X0316969Y0233817D01*
X0316002Y0233817D02*
X0317937Y0233817D01*
X0317937Y0235752D02*
X0316969Y0236719D01*
X0362753Y0274636D02*
X0362753Y0275119D01*
D14*
X0229595Y0133736D02*
X0229595Y0118736D01*
X0229412Y0118734D01*
X0229230Y0118727D01*
X0229048Y0118716D01*
X0228866Y0118700D01*
X0228684Y0118680D01*
X0228503Y0118656D01*
X0228323Y0118627D01*
X0228143Y0118594D01*
X0227964Y0118557D01*
X0227786Y0118515D01*
X0227610Y0118468D01*
X0227434Y0118418D01*
X0227260Y0118363D01*
X0227087Y0118304D01*
X0226916Y0118241D01*
X0226746Y0118174D01*
X0226578Y0118102D01*
X0226412Y0118027D01*
X0226247Y0117947D01*
X0226085Y0117864D01*
X0225924Y0117776D01*
X0225766Y0117685D01*
X0225610Y0117590D01*
X0225457Y0117491D01*
X0225306Y0117388D01*
X0225157Y0117282D01*
X0225011Y0117172D01*
X0224868Y0117059D01*
X0224728Y0116942D01*
X0224590Y0116822D01*
X0224456Y0116698D01*
X0224324Y0116571D01*
X0224196Y0116442D01*
X0224071Y0116309D01*
X0223949Y0116173D01*
X0223830Y0116034D01*
X0223715Y0115892D01*
X0223603Y0115747D01*
X0223495Y0115600D01*
X0223391Y0115450D01*
X0223290Y0115298D01*
X0223193Y0115143D01*
X0223100Y0114986D01*
X0223010Y0114827D01*
X0222925Y0114665D01*
X0222843Y0114502D01*
X0222766Y0114337D01*
X0222692Y0114169D01*
X0222623Y0114000D01*
X0222558Y0113830D01*
X0222497Y0113658D01*
X0222440Y0113484D01*
X0222387Y0113309D01*
X0222339Y0113133D01*
X0222295Y0112956D01*
X0222255Y0112777D01*
X0222220Y0112598D01*
X0222189Y0112418D01*
X0222162Y0112238D01*
X0222140Y0112056D01*
X0222122Y0111875D01*
X0222109Y0111692D01*
X0222100Y0111510D01*
X0222096Y0111327D01*
X0222096Y0111145D01*
X0222100Y0110962D01*
X0222109Y0110780D01*
X0222122Y0110597D01*
X0222140Y0110416D01*
X0222162Y0110234D01*
X0222189Y0110054D01*
X0222220Y0109874D01*
X0222255Y0109695D01*
X0222295Y0109516D01*
X0222339Y0109339D01*
X0222387Y0109163D01*
X0222440Y0108988D01*
X0222497Y0108814D01*
X0222558Y0108642D01*
X0222623Y0108472D01*
X0222692Y0108303D01*
X0222766Y0108135D01*
X0222843Y0107970D01*
X0222925Y0107807D01*
X0223010Y0107645D01*
X0223100Y0107486D01*
X0223193Y0107329D01*
X0223290Y0107174D01*
X0223391Y0107022D01*
X0223495Y0106872D01*
X0223603Y0106725D01*
X0223715Y0106580D01*
X0223830Y0106438D01*
X0223949Y0106299D01*
X0224071Y0106163D01*
X0224196Y0106030D01*
X0224324Y0105901D01*
X0224456Y0105774D01*
X0224590Y0105650D01*
X0224728Y0105530D01*
X0224868Y0105413D01*
X0225011Y0105300D01*
X0225157Y0105190D01*
X0225306Y0105084D01*
X0225457Y0104981D01*
X0225610Y0104882D01*
X0225766Y0104787D01*
X0225924Y0104696D01*
X0226085Y0104608D01*
X0226247Y0104525D01*
X0226412Y0104445D01*
X0226578Y0104370D01*
X0226746Y0104298D01*
X0226916Y0104231D01*
X0227087Y0104168D01*
X0227260Y0104109D01*
X0227434Y0104054D01*
X0227610Y0104004D01*
X0227786Y0103957D01*
X0227964Y0103915D01*
X0228143Y0103878D01*
X0228323Y0103845D01*
X0228503Y0103816D01*
X0228684Y0103792D01*
X0228866Y0103772D01*
X0229048Y0103756D01*
X0229230Y0103745D01*
X0229412Y0103738D01*
X0229595Y0103736D01*
X0229595Y0088736D01*
D15*
X0211263Y0041495D02*
X0211263Y0036391D01*
X0212964Y0036391D02*
X0209561Y0036391D01*
X0207439Y0037242D02*
X0206589Y0036391D01*
X0204887Y0036391D01*
X0204037Y0037242D01*
X0204037Y0038943D01*
X0204887Y0039794D01*
X0205738Y0039794D01*
X0207439Y0038943D01*
X0207439Y0041495D01*
X0204037Y0041495D01*
X0211263Y0041495D02*
X0212964Y0039794D01*
X0253249Y0040645D02*
X0253249Y0037242D01*
X0254100Y0036391D01*
X0255801Y0036391D01*
X0256652Y0037242D01*
X0253249Y0040645D01*
X0254100Y0041495D01*
X0255801Y0041495D01*
X0256652Y0040645D01*
X0256652Y0037242D01*
X0258774Y0036391D02*
X0262177Y0036391D01*
X0260475Y0036391D02*
X0260475Y0041495D01*
X0262177Y0039794D01*
X0305526Y0038943D02*
X0305526Y0037242D01*
X0306377Y0036391D01*
X0308078Y0036391D01*
X0308929Y0037242D01*
X0308929Y0038943D02*
X0307227Y0039794D01*
X0306377Y0039794D01*
X0305526Y0038943D01*
X0305526Y0041495D02*
X0308929Y0041495D01*
X0308929Y0038943D01*
X0335053Y0038943D02*
X0338456Y0038943D01*
X0335904Y0041495D01*
X0335904Y0036391D01*
X0364581Y0036391D02*
X0367984Y0036391D01*
X0366282Y0036391D02*
X0366282Y0041495D01*
X0367984Y0039794D01*
X0163752Y0040645D02*
X0162901Y0041495D01*
X0161199Y0041495D01*
X0160349Y0040645D01*
X0160349Y0039794D01*
X0163752Y0036391D01*
X0160349Y0036391D01*
X0158227Y0037242D02*
X0158227Y0040645D01*
X0157376Y0041495D01*
X0155675Y0041495D01*
X0154824Y0040645D01*
X0158227Y0037242D01*
X0157376Y0036391D01*
X0155675Y0036391D01*
X0154824Y0037242D01*
X0154824Y0040645D01*
X0114539Y0040645D02*
X0113688Y0041495D01*
X0111987Y0041495D01*
X0111136Y0040645D01*
X0111136Y0039794D01*
X0114539Y0036391D01*
X0111136Y0036391D01*
X0109014Y0037242D02*
X0108164Y0036391D01*
X0106462Y0036391D01*
X0105611Y0037242D01*
X0105611Y0038943D01*
X0106462Y0039794D01*
X0107313Y0039794D01*
X0109014Y0038943D01*
X0109014Y0041495D01*
X0105611Y0041495D01*
X0065326Y0040645D02*
X0064476Y0041495D01*
X0062774Y0041495D01*
X0061923Y0040645D01*
X0061923Y0039794D01*
X0065326Y0036391D01*
X0061923Y0036391D01*
X0059802Y0037242D02*
X0059802Y0038092D01*
X0058951Y0038943D01*
X0057249Y0038943D01*
X0056399Y0038092D01*
X0056399Y0037242D01*
X0057249Y0036391D01*
X0058951Y0036391D01*
X0059802Y0037242D01*
X0058951Y0038943D02*
X0059802Y0039794D01*
X0059802Y0040645D01*
X0058951Y0041495D01*
X0057249Y0041495D01*
X0056399Y0040645D01*
X0056399Y0039794D01*
X0057249Y0038943D01*
X0035799Y0037242D02*
X0034948Y0036391D01*
X0033247Y0036391D01*
X0032396Y0037242D01*
X0032396Y0038092D01*
X0033247Y0038943D01*
X0034097Y0038943D01*
X0033247Y0038943D02*
X0032396Y0039794D01*
X0032396Y0040645D01*
X0033247Y0041495D01*
X0034948Y0041495D01*
X0035799Y0040645D01*
X0030274Y0039794D02*
X0028573Y0041495D01*
X0028573Y0036391D01*
X0030274Y0036391D02*
X0026871Y0036391D01*
D16*
X0374812Y0062319D02*
X0374814Y0062410D01*
X0374820Y0062500D01*
X0374830Y0062591D01*
X0374844Y0062680D01*
X0374862Y0062769D01*
X0374883Y0062858D01*
X0374909Y0062945D01*
X0374938Y0063031D01*
X0374972Y0063115D01*
X0375008Y0063198D01*
X0375049Y0063280D01*
X0375093Y0063359D01*
X0375140Y0063437D01*
X0375191Y0063512D01*
X0375245Y0063585D01*
X0375302Y0063655D01*
X0375362Y0063723D01*
X0375425Y0063789D01*
X0375491Y0063851D01*
X0375560Y0063910D01*
X0375631Y0063967D01*
X0375705Y0064020D01*
X0375781Y0064070D01*
X0375859Y0064117D01*
X0375939Y0064160D01*
X0376020Y0064199D01*
X0376104Y0064235D01*
X0376189Y0064267D01*
X0376275Y0064296D01*
X0376362Y0064320D01*
X0376451Y0064341D01*
X0376540Y0064358D01*
X0376630Y0064371D01*
X0376720Y0064380D01*
X0376811Y0064385D01*
X0376902Y0064386D01*
X0376992Y0064383D01*
X0377083Y0064376D01*
X0377173Y0064365D01*
X0377263Y0064350D01*
X0377352Y0064331D01*
X0377440Y0064309D01*
X0377526Y0064282D01*
X0377612Y0064252D01*
X0377696Y0064218D01*
X0377779Y0064180D01*
X0377860Y0064139D01*
X0377939Y0064094D01*
X0378016Y0064045D01*
X0378090Y0063994D01*
X0378163Y0063939D01*
X0378233Y0063881D01*
X0378300Y0063820D01*
X0378364Y0063756D01*
X0378426Y0063690D01*
X0378485Y0063620D01*
X0378540Y0063549D01*
X0378593Y0063474D01*
X0378642Y0063398D01*
X0378688Y0063320D01*
X0378730Y0063239D01*
X0378769Y0063157D01*
X0378804Y0063073D01*
X0378835Y0062988D01*
X0378862Y0062901D01*
X0378886Y0062814D01*
X0378906Y0062725D01*
X0378922Y0062636D01*
X0378934Y0062546D01*
X0378942Y0062455D01*
X0378946Y0062364D01*
X0378946Y0062274D01*
X0378942Y0062183D01*
X0378934Y0062092D01*
X0378922Y0062002D01*
X0378906Y0061913D01*
X0378886Y0061824D01*
X0378862Y0061737D01*
X0378835Y0061650D01*
X0378804Y0061565D01*
X0378769Y0061481D01*
X0378730Y0061399D01*
X0378688Y0061318D01*
X0378642Y0061240D01*
X0378593Y0061164D01*
X0378540Y0061089D01*
X0378485Y0061018D01*
X0378426Y0060948D01*
X0378364Y0060882D01*
X0378300Y0060818D01*
X0378233Y0060757D01*
X0378163Y0060699D01*
X0378090Y0060644D01*
X0378016Y0060593D01*
X0377939Y0060544D01*
X0377860Y0060499D01*
X0377779Y0060458D01*
X0377696Y0060420D01*
X0377612Y0060386D01*
X0377526Y0060356D01*
X0377440Y0060329D01*
X0377352Y0060307D01*
X0377263Y0060288D01*
X0377173Y0060273D01*
X0377083Y0060262D01*
X0376992Y0060255D01*
X0376902Y0060252D01*
X0376811Y0060253D01*
X0376720Y0060258D01*
X0376630Y0060267D01*
X0376540Y0060280D01*
X0376451Y0060297D01*
X0376362Y0060318D01*
X0376275Y0060342D01*
X0376189Y0060371D01*
X0376104Y0060403D01*
X0376020Y0060439D01*
X0375939Y0060478D01*
X0375859Y0060521D01*
X0375781Y0060568D01*
X0375705Y0060618D01*
X0375631Y0060671D01*
X0375560Y0060728D01*
X0375491Y0060787D01*
X0375425Y0060849D01*
X0375362Y0060915D01*
X0375302Y0060983D01*
X0375245Y0061053D01*
X0375191Y0061126D01*
X0375140Y0061201D01*
X0375093Y0061279D01*
X0375049Y0061358D01*
X0375008Y0061440D01*
X0374972Y0061523D01*
X0374938Y0061607D01*
X0374909Y0061693D01*
X0374883Y0061780D01*
X0374862Y0061869D01*
X0374844Y0061958D01*
X0374830Y0062047D01*
X0374820Y0062138D01*
X0374814Y0062228D01*
X0374812Y0062319D01*
X0374812Y0081413D02*
X0374814Y0081504D01*
X0374820Y0081594D01*
X0374830Y0081685D01*
X0374844Y0081774D01*
X0374862Y0081863D01*
X0374883Y0081952D01*
X0374909Y0082039D01*
X0374938Y0082125D01*
X0374972Y0082209D01*
X0375008Y0082292D01*
X0375049Y0082374D01*
X0375093Y0082453D01*
X0375140Y0082531D01*
X0375191Y0082606D01*
X0375245Y0082679D01*
X0375302Y0082749D01*
X0375362Y0082817D01*
X0375425Y0082883D01*
X0375491Y0082945D01*
X0375560Y0083004D01*
X0375631Y0083061D01*
X0375705Y0083114D01*
X0375781Y0083164D01*
X0375859Y0083211D01*
X0375939Y0083254D01*
X0376020Y0083293D01*
X0376104Y0083329D01*
X0376189Y0083361D01*
X0376275Y0083390D01*
X0376362Y0083414D01*
X0376451Y0083435D01*
X0376540Y0083452D01*
X0376630Y0083465D01*
X0376720Y0083474D01*
X0376811Y0083479D01*
X0376902Y0083480D01*
X0376992Y0083477D01*
X0377083Y0083470D01*
X0377173Y0083459D01*
X0377263Y0083444D01*
X0377352Y0083425D01*
X0377440Y0083403D01*
X0377526Y0083376D01*
X0377612Y0083346D01*
X0377696Y0083312D01*
X0377779Y0083274D01*
X0377860Y0083233D01*
X0377939Y0083188D01*
X0378016Y0083139D01*
X0378090Y0083088D01*
X0378163Y0083033D01*
X0378233Y0082975D01*
X0378300Y0082914D01*
X0378364Y0082850D01*
X0378426Y0082784D01*
X0378485Y0082714D01*
X0378540Y0082643D01*
X0378593Y0082568D01*
X0378642Y0082492D01*
X0378688Y0082414D01*
X0378730Y0082333D01*
X0378769Y0082251D01*
X0378804Y0082167D01*
X0378835Y0082082D01*
X0378862Y0081995D01*
X0378886Y0081908D01*
X0378906Y0081819D01*
X0378922Y0081730D01*
X0378934Y0081640D01*
X0378942Y0081549D01*
X0378946Y0081458D01*
X0378946Y0081368D01*
X0378942Y0081277D01*
X0378934Y0081186D01*
X0378922Y0081096D01*
X0378906Y0081007D01*
X0378886Y0080918D01*
X0378862Y0080831D01*
X0378835Y0080744D01*
X0378804Y0080659D01*
X0378769Y0080575D01*
X0378730Y0080493D01*
X0378688Y0080412D01*
X0378642Y0080334D01*
X0378593Y0080258D01*
X0378540Y0080183D01*
X0378485Y0080112D01*
X0378426Y0080042D01*
X0378364Y0079976D01*
X0378300Y0079912D01*
X0378233Y0079851D01*
X0378163Y0079793D01*
X0378090Y0079738D01*
X0378016Y0079687D01*
X0377939Y0079638D01*
X0377860Y0079593D01*
X0377779Y0079552D01*
X0377696Y0079514D01*
X0377612Y0079480D01*
X0377526Y0079450D01*
X0377440Y0079423D01*
X0377352Y0079401D01*
X0377263Y0079382D01*
X0377173Y0079367D01*
X0377083Y0079356D01*
X0376992Y0079349D01*
X0376902Y0079346D01*
X0376811Y0079347D01*
X0376720Y0079352D01*
X0376630Y0079361D01*
X0376540Y0079374D01*
X0376451Y0079391D01*
X0376362Y0079412D01*
X0376275Y0079436D01*
X0376189Y0079465D01*
X0376104Y0079497D01*
X0376020Y0079533D01*
X0375939Y0079572D01*
X0375859Y0079615D01*
X0375781Y0079662D01*
X0375705Y0079712D01*
X0375631Y0079765D01*
X0375560Y0079822D01*
X0375491Y0079881D01*
X0375425Y0079943D01*
X0375362Y0080009D01*
X0375302Y0080077D01*
X0375245Y0080147D01*
X0375191Y0080220D01*
X0375140Y0080295D01*
X0375093Y0080373D01*
X0375049Y0080452D01*
X0375008Y0080534D01*
X0374972Y0080617D01*
X0374938Y0080701D01*
X0374909Y0080787D01*
X0374883Y0080874D01*
X0374862Y0080963D01*
X0374844Y0081052D01*
X0374830Y0081141D01*
X0374820Y0081232D01*
X0374814Y0081322D01*
X0374812Y0081413D01*
M02*
