%
M48
M72
T01C0.01600
T02C0.02000
T03C0.02756
T04C0.04000
T05C0.04134
T06C0.04724
%
T01
X39958Y44493
X47981Y37624
X57828Y35518
X77624Y54543
X83637Y50793
X95594Y43671
X89268Y35486
X104444Y39201
X93528Y90158
X90383Y113205
X69516Y104097
X67785Y114961
X54950Y103362
X54950Y99425
X9674Y93520
X9674Y113205
X9674Y132890
X9674Y152575
X9674Y172260
X9674Y191945
X29359Y191945
X49044Y191945
X68729Y191945
X88414Y191945
X108099Y191945
X127784Y191945
X147469Y191945
X167154Y191945
X186839Y191945
X206524Y191945
X226209Y191945
X245894Y191945
X265580Y191945
X285265Y191945
X304950Y191945
X324635Y191945
X344320Y191945
X364005Y191945
X383690Y191945
X383690Y172260
X383690Y152575
X383690Y132890
X383690Y113205
X383690Y93520
X348430Y103519
X344027Y102495
X344320Y81709
X338414Y81709
X330540Y81709
X330540Y75803
X330540Y67929
X330540Y62024
X338414Y62024
X344320Y62024
X350225Y50213
X338414Y50213
X312824Y46276
X306918Y46276
X298946Y55620
X292646Y56735
X281987Y63624
X280437Y46128
X267864Y44611
X266730Y35410
X240117Y50013
X241957Y60055
X241957Y69898
X238380Y76031
X233979Y74117
X247863Y79740
X234083Y91551
X222272Y91551
X212430Y71866
X217112Y66139
X212901Y63171
X213224Y52707
X227641Y50054
X182381Y36650
X155455Y99809
X243926Y111236
X265592Y129846
X276424Y128091
X299472Y139692
X304950Y87614
X304950Y81709
X304950Y75803
X273454Y81709
X367942Y50213
X383690Y50213
X29359Y54150
X9674Y54150
X9674Y73835
T02
X63490Y238067
X68660Y252454
X82107Y242284
X86997Y255660
X90564Y272342
X65416Y272388
X73860Y307639
X72854Y316827
X82476Y325398
X78563Y329930
X69124Y338640
X57614Y328442
X55501Y337170
X62127Y361781
X79437Y358293
X78362Y371217
X85240Y338736
X83935Y310235
X88209Y307625
X127992Y339175
X157312Y331645
X171602Y346627
X173393Y339074
X176415Y330047
X175285Y302312
X174763Y287653
X175191Y263425
X139700Y284987
X130040Y267287
X226417Y339175
X255737Y331645
X271818Y339074
X270028Y346627
X274840Y330047
X273710Y302312
X273188Y287653
X273616Y263425
X238125Y284987
X228466Y267287
X322873Y339175
X352194Y331645
X368274Y339074
X366484Y346627
X371297Y330047
X370167Y302312
X369645Y287653
X370072Y263425
X334582Y284987
X324922Y267287
X324345Y374510
X313219Y380385
X227888Y374510
X216762Y380385
X129463Y374510
X118337Y380385
T03
X285265Y80803
X285265Y70803
X358099Y66866
X358099Y76866
T04
X358769Y116669
X348769Y116669
X338769Y116669
X328769Y116669
X318769Y116669
X308769Y116669
X298769Y116669
X288769Y116669
X278769Y116669
X268769Y116669
X258769Y116669
X248769Y116669
X238769Y116669
X228769Y116669
X218769Y116669
X208769Y116669
X198769Y116669
X188769Y116669
X178769Y116669
X168769Y116669
X158769Y116669
X148769Y116669
X144595Y141236
X154595Y141236
X164595Y141236
X174595Y141236
X184595Y141236
X194595Y141236
X204595Y141236
X214595Y141236
X224595Y141236
X228769Y176669
X238769Y176669
X248769Y176669
X258769Y176669
X268769Y176669
X278769Y176669
X288769Y176669
X298769Y176669
X308769Y176669
X318769Y176669
X328769Y176669
X338769Y176669
X348769Y176669
X358769Y176669
X330501Y220567
X330501Y230567
X330501Y240567
X330501Y250567
X330501Y260567
X330501Y270567
X330501Y280567
X330501Y290567
X330501Y300567
X330501Y310567
X330501Y320567
X330501Y330567
X330501Y340567
X330501Y350567
X330501Y360567
X330501Y370567
X330501Y380567
X330501Y390567
X294044Y390567
X294044Y380567
X294044Y370567
X294044Y360567
X294044Y350567
X294044Y340567
X294044Y330567
X294044Y320567
X294044Y310567
X294044Y300567
X294044Y290567
X294044Y280567
X294044Y270567
X294044Y260567
X294044Y250567
X294044Y240567
X294044Y230567
X294044Y220567
X234044Y220567
X234044Y230567
X234044Y240567
X234044Y250567
X234044Y260567
X234044Y270567
X234044Y280567
X234044Y290567
X234044Y300567
X234044Y310567
X234044Y320567
X234044Y330567
X234044Y340567
X234044Y350567
X234044Y360567
X234044Y370567
X234044Y380567
X234044Y390567
X195619Y390567
X195619Y380567
X195619Y370567
X195619Y360567
X195619Y350567
X195619Y340567
X195619Y330567
X195619Y320567
X195619Y310567
X195619Y300567
X195619Y290567
X195619Y280567
X195619Y270567
X195619Y260567
X195619Y250567
X195619Y240567
X195619Y230567
X195619Y220567
X198769Y176669
X188769Y176669
X178769Y176669
X168769Y176669
X158769Y176669
X148769Y176669
X134595Y141236
X124595Y141236
X114595Y141236
X104595Y141236
X94595Y141236
X84595Y141236
X74595Y141236
X64595Y141236
X54595Y141236
X54595Y81236
X64595Y81236
X74595Y81236
X84595Y81236
X94595Y81236
X104595Y81236
X114595Y81236
X124595Y81236
X134595Y81236
X144595Y81236
X154595Y81236
X164595Y81236
X174595Y81236
X184595Y81236
X194595Y81236
X204595Y81236
X214595Y81236
X224595Y81236
X253769Y85803
X253769Y75803
X253769Y65803
X218769Y176669
X208769Y176669
X135619Y220567
X135619Y230567
X135619Y240567
X135619Y250567
X135619Y260567
X135619Y270567
X135619Y280567
X135619Y290567
X135619Y300567
X135619Y310567
X135619Y320567
X135619Y330567
X135619Y340567
X135619Y350567
X135619Y360567
X135619Y370567
X135619Y380567
X135619Y390567
X100265Y390567
X100265Y380567
X100265Y370567
X100265Y360567
X100265Y350567
X100265Y340567
X100265Y330567
X100265Y320567
X100265Y310567
X100265Y300567
X100265Y290567
X100265Y280567
X100265Y270567
X100265Y260567
X100265Y250567
X100265Y240567
X100265Y230567
X100265Y220567
X40265Y220567
X40265Y230567
X40265Y240567
X40265Y250567
X40265Y260567
X40265Y270567
X40265Y280567
X40265Y290567
X40265Y300567
X40265Y310567
X40265Y320567
X40265Y330567
X40265Y340567
X40265Y350567
X40265Y360567
X40265Y370567
X40265Y380567
X40265Y390567
X390501Y390567
X390501Y380567
X390501Y370567
X390501Y360567
X390501Y350567
X390501Y340567
X390501Y330567
X390501Y320567
X390501Y310567
X390501Y300567
X390501Y290567
X390501Y280567
X390501Y270567
X390501Y260567
X390501Y250567
X390501Y240567
X390501Y230567
X390501Y220567
T05
X376879Y81413
X376879Y62319
T06
X388808Y61138
X388808Y82594
M30
