solid n64slotsleeve
facet normal 0.0 -1.0 0.0
  outer loop
    vertex 70.5 -0.30000000000000004 15.0
    vertex -0.5 -0.30000000000000004 0.0
    vertex 70.5 -0.30000000000000004 0.0
  endloop
endfacet
facet normal 0.0 -1.0 0.0
  outer loop
    vertex -0.5 -0.30000000000000004 0.0
    vertex 70.5 -0.30000000000000004 15.0
    vertex -0.5 -0.30000000000000004 15.0
  endloop
endfacet
facet normal 0.0 0.0 -1.0
  outer loop
    vertex -0.5 10.299999999999999 0.0
    vertex 0.0 9.8 0.0
    vertex -0.5 -0.30000000000000004 0.0
  endloop
endfacet
facet normal 0.0 0.0 -1.0
  outer loop
    vertex 0.0 9.8 0.0
    vertex -0.5 10.299999999999999 0.0
    vertex 70.5 10.299999999999999 0.0
  endloop
endfacet
facet normal 0.0 0.0 -1.0
  outer loop
    vertex 0.0 9.8 0.0
    vertex 70.5 10.299999999999999 0.0
    vertex 70.0 9.8 0.0
  endloop
endfacet
facet normal 0.0 0.0 -1.0
  outer loop
    vertex 70.0 9.8 0.0
    vertex 70.5 10.299999999999999 0.0
    vertex 70.0 0.20000000000000004 0.0
  endloop
endfacet
facet normal 0.0 0.0 -1.0
  outer loop
    vertex -0.5 -0.30000000000000004 0.0
    vertex 0.0 0.20000000000000004 0.0
    vertex 70.5 -0.30000000000000004 0.0
  endloop
endfacet
facet normal 0.0 0.0 -1.0
  outer loop
    vertex 0.0 0.20000000000000004 0.0
    vertex -0.5 -0.30000000000000004 0.0
    vertex 0.0 9.8 0.0
  endloop
endfacet
facet normal 0.0 0.0 -1.0
  outer loop
    vertex 70.5 -0.30000000000000004 0.0
    vertex 0.0 0.20000000000000004 0.0
    vertex 70.0 0.20000000000000004 0.0
  endloop
endfacet
facet normal 0.0 0.0 -1.0
  outer loop
    vertex 70.5 -0.30000000000000004 0.0
    vertex 70.0 0.20000000000000004 0.0
    vertex 70.5 10.299999999999999 0.0
  endloop
endfacet
facet normal 0.0 1.0 0.0
  outer loop
    vertex -0.5 10.299999999999999 15.0
    vertex 70.5 10.299999999999999 0.0
    vertex -0.5 10.299999999999999 0.0
  endloop
endfacet
facet normal 0.0 1.0 0.0
  outer loop
    vertex 70.5 10.299999999999999 0.0
    vertex -0.5 10.299999999999999 15.0
    vertex 70.5 10.299999999999999 15.0
  endloop
endfacet
facet normal -0.0 -0.0 1.0
  outer loop
    vertex -0.5 -0.30000000000000004 15.0
    vertex 0.0 0.20000000000000004 15.0
    vertex -0.5 10.299999999999999 15.0
  endloop
endfacet
facet normal -0.0 -0.0 1.0
  outer loop
    vertex 0.0 0.20000000000000004 15.0
    vertex -0.5 -0.30000000000000004 15.0
    vertex 70.5 -0.30000000000000004 15.0
  endloop
endfacet
facet normal -0.0 -0.0 1.0
  outer loop
    vertex 0.0 0.20000000000000004 15.0
    vertex 70.5 -0.30000000000000004 15.0
    vertex 70.0 0.20000000000000004 15.0
  endloop
endfacet
facet normal -0.0 -0.0 1.0
  outer loop
    vertex 70.0 0.20000000000000004 15.0
    vertex 70.5 -0.30000000000000004 15.0
    vertex 70.0 9.8 15.0
  endloop
endfacet
facet normal -0.0 -0.0 1.0
  outer loop
    vertex -0.5 10.299999999999999 15.0
    vertex 0.0 9.8 15.0
    vertex 70.5 10.299999999999999 15.0
  endloop
endfacet
facet normal -0.0 -0.0 1.0
  outer loop
    vertex 0.0 9.8 15.0
    vertex -0.5 10.299999999999999 15.0
    vertex 0.0 0.20000000000000004 15.0
  endloop
endfacet
facet normal -0.0 -0.0 1.0
  outer loop
    vertex 70.5 10.299999999999999 15.0
    vertex 0.0 9.8 15.0
    vertex 70.0 9.8 15.0
  endloop
endfacet
facet normal -0.0 -0.0 1.0
  outer loop
    vertex 70.5 10.299999999999999 15.0
    vertex 70.0 9.8 15.0
    vertex 70.5 -0.30000000000000004 15.0
  endloop
endfacet
facet normal 1.0 0.0 0.0
  outer loop
    vertex 70.5 10.299999999999999 0.0
    vertex 70.5 -0.30000000000000004 15.0
    vertex 70.5 -0.30000000000000004 0.0
  endloop
endfacet
facet normal 1.0 0.0 0.0
  outer loop
    vertex 70.5 -0.30000000000000004 15.0
    vertex 70.5 10.299999999999999 0.0
    vertex 70.5 10.299999999999999 15.0
  endloop
endfacet
facet normal -1.0 0.0 0.0
  outer loop
    vertex -0.5 10.299999999999999 15.0
    vertex -0.5 -0.30000000000000004 0.0
    vertex -0.5 -0.30000000000000004 15.0
  endloop
endfacet
facet normal -1.0 0.0 0.0
  outer loop
    vertex -0.5 -0.30000000000000004 0.0
    vertex -0.5 10.299999999999999 15.0
    vertex -0.5 10.299999999999999 0.0
  endloop
endfacet
facet normal 0.0 -1.0 0.0
  outer loop
    vertex 70.0 9.8 15.0
    vertex 0.0 9.8 0.0
    vertex 70.0 9.8 0.0
  endloop
endfacet
facet normal 0.0 -1.0 0.0
  outer loop
    vertex 0.0 9.8 0.0
    vertex 70.0 9.8 15.0
    vertex 0.0 9.8 15.0
  endloop
endfacet
facet normal 1.0 -0.0 -0.0
  outer loop
    vertex 0.0 9.8 0.0
    vertex 0.0 0.20000000000000004 15.0
    vertex 0.0 0.20000000000000004 0.0
  endloop
endfacet
facet normal 1.0 -0.0 -0.0
  outer loop
    vertex 0.0 0.20000000000000004 15.0
    vertex 0.0 9.8 0.0
    vertex 0.0 9.8 15.0
  endloop
endfacet
facet normal -1.0 0.0 0.0
  outer loop
    vertex 70.0 9.8 15.0
    vertex 70.0 0.20000000000000004 0.0
    vertex 70.0 0.20000000000000004 15.0
  endloop
endfacet
facet normal -1.0 0.0 0.0
  outer loop
    vertex 70.0 0.20000000000000004 0.0
    vertex 70.0 9.8 15.0
    vertex 70.0 9.8 0.0
  endloop
endfacet
facet normal 0.0 1.0 0.0
  outer loop
    vertex 0.0 0.20000000000000004 15.0
    vertex 70.0 0.20000000000000004 0.0
    vertex 0.0 0.20000000000000004 0.0
  endloop
endfacet
facet normal 0.0 1.0 0.0
  outer loop
    vertex 70.0 0.20000000000000004 0.0
    vertex 0.0 0.20000000000000004 15.0
    vertex 70.0 0.20000000000000004 15.0
  endloop
endfacet
endsolid n64slotsleeve
