solid sd_spacer
facet normal -1.0 0.0 0.0
  outer loop
    vertex 16.999999999999996 71.20000000000348 7.500000000003307
    vertex 16.999999999999996 71.94999999999621 2.5915491974615177e-12
    vertex 16.999999999999996 71.19999999999621 3.30641070078741e-12
  endloop
endfacet
facet normal -1.0 0.0 0.0
  outer loop
    vertex 16.999999999999996 71.94999999999621 2.5915491974615177e-12
    vertex 16.999999999999996 71.20000000000348 7.500000000003307
    vertex 16.999999999999996 71.95000000000348 7.500000000002592
  endloop
endfacet
facet normal -1.0 0.0 0.0
  outer loop
    vertex 16.999999999999996 77.45000000000347 7.499999999997262
    vertex 16.999999999999996 78.19999999999621 -3.464328823810092e-12
    vertex 16.999999999999996 77.44999999999621 -2.7381874545540083e-12
  endloop
endfacet
facet normal -1.0 0.0 0.0
  outer loop
    vertex 16.999999999999996 78.19999999999621 -3.464328823810092e-12
    vertex 16.999999999999996 77.45000000000347 7.499999999997262
    vertex 16.999999999999996 78.20000000000347 7.499999999996536
  endloop
endfacet
facet normal -0.0 1.0 -9.685644878724512e-13
  outer loop
    vertex 16.999999999999996 71.95000000000348 7.500000000002592
    vertex 23.0 71.94999999999621 2.5915491974615177e-12
    vertex 16.999999999999996 71.94999999999621 2.5915491974615177e-12
  endloop
endfacet
facet normal -0.0 1.0 -9.685644878724512e-13
  outer loop
    vertex 23.0 71.94999999999621 2.5915491974615177e-12
    vertex 16.999999999999996 71.95000000000348 7.500000000002592
    vertex 23.0 71.95000000000348 7.500000000002592
  endloop
endfacet
facet normal 0.0 -1.0 9.685644878724512e-13
  outer loop
    vertex 16.999999999999996 78.20000000000347 7.499999999996536
    vertex 14.000000405226361 78.19931533716114 0.0005845420066280282
    vertex 16.999999999999996 78.19999999999621 -3.464328823810092e-12
  endloop
endfacet
facet normal 0.0 -1.0 9.685644878724512e-13
  outer loop
    vertex 14.000000405226361 78.19931533716114 0.0005845420066280282
    vertex 16.999999999999996 78.20000000000347 7.499999999996536
    vertex 14.000000405226361 78.1993153371684 7.500584542006628
  endloop
endfacet
facet normal 8.73286242932193e-05 0.9999999961868009 -3.310016499841374e-07
  outer loop
    vertex 6.148097936890264 72.20000000000054 7.500000000002348
    vertex 13.976311061533623 72.19931533716539 4.37558454201243
    vertex 6.148097936890606 72.20000000000047 4.375000000002339
  endloop
endfacet
facet normal 8.73286242932193e-05 0.9999999961868009 -3.310016499841374e-07
  outer loop
    vertex 13.976311061533623 72.19931533716539 4.37558454201243
    vertex 6.148097936890264 72.20000000000054 7.500000000002348
    vertex 14.000000405226361 72.19931533716841 7.50058454201244
  endloop
endfacet
facet normal 1.763037044648874e-29 9.688834670896999e-13 1.0
  outer loop
    vertex 14.692024566945886 85.10802400000249 6.49999999998983
    vertex 2.6243315669458873 90.20000000000249 6.499999999984897
    vertex 2.6243315669458873 85.10802400000249 6.49999999998983
  endloop
endfacet
facet normal 1.763037044648874e-29 9.688834670896999e-13 1.0
  outer loop
    vertex 2.6243315669458873 90.20000000000249 6.499999999984897
    vertex 14.692024566945886 85.10802400000249 6.49999999998983
    vertex 14.692024566945882 90.20000000000249 6.499999999984897
  endloop
endfacet
facet normal -1.0 -5.538059257443269e-16 5.373045504743546e-28
  outer loop
    vertex 14.692024566945886 85.10802400000347 7.49999999998983
    vertex 14.692024566945882 90.20000000000249 6.499999999984897
    vertex 14.692024566945886 85.10802400000249 6.49999999998983
  endloop
endfacet
facet normal -1.0 -5.538059257443269e-16 5.373045504743546e-28
  outer loop
    vertex 14.692024566945882 90.20000000000249 6.499999999984897
    vertex 14.692024566945886 85.10802400000347 7.49999999998983
    vertex 14.692024566945882 90.20000000000347 7.4999999999848965
  endloop
endfacet
facet normal -8.732862429034558e-05 -0.9999999961868009 3.310016499828412e-07
  outer loop
    vertex 13.976311061533623 77.19931533716539 4.375584542007603
    vertex 6.148097936890945 77.20000000000051 7.4999999999975016
    vertex 6.1480979368906015 77.20000000000043 4.374999999997512
  endloop
endfacet
facet normal -8.732862429034558e-05 -0.9999999961868009 3.310016499828412e-07
  outer loop
    vertex 6.148097936890945 77.20000000000051 7.4999999999975016
    vertex 13.976311061533623 77.19931533716539 4.375584542007603
    vertex 14.000000405226361 77.1993153371684 7.500584542007598
  endloop
endfacet
facet normal -0.0 1.0 -9.685644878724512e-13
  outer loop
    vertex 14.000000405226361 71.19931533716115 0.0005845420133987677
    vertex 16.999999999999996 71.20000000000348 7.500000000003307
    vertex 16.999999999999996 71.19999999999621 3.30641070078741e-12
  endloop
endfacet
facet normal -0.0 1.0 -9.685644878724512e-13
  outer loop
    vertex 16.999999999999996 71.20000000000348 7.500000000003307
    vertex 14.000000405226361 71.19931533716115 0.0005845420133987677
    vertex 14.000000405226361 71.19931533716841 7.5005845420133985
  endloop
endfacet
facet normal 0.0 1.0 -9.688834670896999e-13
  outer loop
    vertex 2.6243315669458873 85.10802400000347 7.49999999998983
    vertex 14.692024566945886 85.10802400000249 6.49999999998983
    vertex 2.6243315669458873 85.10802400000249 6.49999999998983
  endloop
endfacet
facet normal 0.0 1.0 -9.688834670896999e-13
  outer loop
    vertex 14.692024566945886 85.10802400000249 6.49999999998983
    vertex 2.6243315669458873 85.10802400000347 7.49999999998983
    vertex 14.692024566945886 85.10802400000347 7.49999999998983
  endloop
endfacet
facet normal 1.0 -0.0 -0.0
  outer loop
    vertex 2.6243315669458873 90.20000000000249 6.499999999984897
    vertex 2.6243315669458873 85.10802400000347 7.49999999998983
    vertex 2.6243315669458873 85.10802400000249 6.49999999998983
  endloop
endfacet
facet normal 1.0 -0.0 -0.0
  outer loop
    vertex 2.6243315669458873 85.10802400000347 7.49999999998983
    vertex 2.6243315669458873 90.20000000000249 6.499999999984897
    vertex 2.6243315669458873 90.20000000000347 7.4999999999848965
  endloop
endfacet
facet normal 1.0 -0.0 -0.0
  outer loop
    vertex 23.0 90.19999999999621 -1.510374048052654e-11
    vertex 23.0 77.45000000000347 7.499999999997262
    vertex 23.0 77.44999999999621 -2.7381874545540083e-12
  endloop
endfacet
facet normal 1.0 -0.0 -0.0
  outer loop
    vertex 23.0 77.45000000000347 7.499999999997262
    vertex 23.0 90.19999999999621 -1.510374048052654e-11
    vertex 23.0 90.2000000000035 7.499999999984898
  endloop
endfacet
facet normal 1.0 -0.0 -0.0
  outer loop
    vertex 23.0 71.94999999999621 2.5915491974615177e-12
    vertex 23.0 59.20000000000351 7.500000000014947
    vertex 23.0 59.199999999996216 1.4945822357503857e-11
  endloop
endfacet
facet normal 1.0 -0.0 -0.0
  outer loop
    vertex 23.0 59.20000000000351 7.500000000014947
    vertex 23.0 71.94999999999621 2.5915491974615177e-12
    vertex 23.0 71.95000000000348 7.500000000002592
  endloop
endfacet
facet normal 0.0 -1.0 9.689568863830279e-13
  outer loop
    vertex 23.0 59.20000000000351 7.500000000014947
    vertex 0.0 59.199999999996216 1.4945822357503857e-11
    vertex 23.0 59.199999999996216 1.4945822357503857e-11
  endloop
endfacet
facet normal 0.0 -1.0 9.689568863830279e-13
  outer loop
    vertex 0.0 59.199999999996216 1.4945822357503857e-11
    vertex 23.0 59.20000000000351 7.500000000014947
    vertex 0.0 59.20000000000351 7.500000000014947
  endloop
endfacet
facet normal -0.9999999999928565 3.7798205374048534e-06 -3.662483139010429e-18
  outer loop
    vertex 0.0 59.20000000000351 7.500000000014947
    vertex 2.2678750254678803e-05 65.19995423858754 9.1197716045599e-12
    vertex 0.0 59.199999999996216 1.4945822357503857e-11
  endloop
endfacet
facet normal -0.9999999999928565 3.7798205374048534e-06 -3.662483139010429e-18
  outer loop
    vertex 2.2678750254678803e-05 65.19995423858754 9.1197716045599e-12
    vertex 0.0 59.20000000000351 7.500000000014947
    vertex 2.2678750254678803e-05 65.19995423859484 7.500000000009122
  endloop
endfacet
facet normal -0.39783076349565455 0.9174588184853121 -8.889780401441794e-13
  outer loop
    vertex 2.2678750254678803e-05 65.19995423858754 9.1197716045599e-12
    vertex 0.6219112804887724 65.46961911319633 7.5000000000088605
    vertex 0.6219112804887724 65.46961911318904 8.85892470492422e-12
  endloop
endfacet
facet normal -0.39783076349565455 0.9174588184853121 -8.889780401441794e-13
  outer loop
    vertex 0.6219112804887724 65.46961911319633 7.5000000000088605
    vertex 2.2678750254678803e-05 65.19995423858754 9.1197716045599e-12
    vertex 2.2678750254678803e-05 65.19995423859484 7.500000000009122
  endloop
endfacet
facet normal -0.4578105558263084 0.8890497708081402 -8.614508977617999e-13
  outer loop
    vertex 0.6219112804887724 65.46961911318904 8.85892470492422e-12
    vertex 1.2245431454880316 65.7799405801522 7.500000000008572
    vertex 1.2245431454880316 65.7799405801449 8.56987814046306e-12
  endloop
endfacet
facet normal -0.4578105558263084 0.8890497708081402 -8.614508977617999e-13
  outer loop
    vertex 1.2245431454880316 65.7799405801522 7.500000000008572
    vertex 0.6219112804887724 65.46961911318904 8.85892470492422e-12
    vertex 0.6219112804887724 65.46961911319633 7.5000000000088605
  endloop
endfacet
facet normal -0.5157738531312227 0.8567247705221159 -8.301293661323234e-13
  outer loop
    vertex 1.2245431454880316 65.7799405801449 8.56987814046306e-12
    vertex 1.805263891618478 66.12955178217499 7.500000000008221
    vertex 1.805263891618478 66.1295517821677 8.218792313385848e-12
  endloop
endfacet
facet normal -0.5157738531312227 0.8567247705221159 -8.301293661323234e-13
  outer loop
    vertex 1.805263891618478 66.12955178217499 7.500000000008221
    vertex 1.2245431454880316 65.7799405801449 8.56987814046306e-12
    vertex 1.2245431454880316 65.7799405801522 7.500000000008572
  endloop
endfacet
facet normal -0.57146534740321 0.82062619792286 -7.951514056236766e-13
  outer loop
    vertex 1.805263891618478 66.1295517821677 8.218792313385848e-12
    vertex 2.361515647548826 66.51691280446624 7.500000000007845
    vertex 2.361515647548826 66.51691280445894 7.843736771206976e-12
  endloop
endfacet
facet normal -0.57146534740321 0.82062619792286 -7.951514056236766e-13
  outer loop
    vertex 2.361515647548826 66.51691280446624 7.500000000007845
    vertex 1.805263891618478 66.1295517821677 8.218792313385848e-12
    vertex 1.805263891618478 66.12955178217499 7.500000000008221
  endloop
endfacet
facet normal -0.6246397371310993 0.7809130545693236 -7.566710818913511e-13
  outer loop
    vertex 2.361515647548826 66.51691280445894 7.843736771206976e-12
    vertex 2.8908483192727137 66.94031745750135 7.500000000007435
    vertex 2.8908483192727137 66.94031745749406 7.433431647996257e-12
  endloop
endfacet
facet normal -0.6246397371310993 0.7809130545693236 -7.566710818913511e-13
  outer loop
    vertex 2.8908483192727137 66.94031745750135 7.500000000007435
    vertex 2.361515647548826 66.51691280445894 7.843736771206976e-12
    vertex 2.361515647548826 66.51691280446624 7.500000000007845
  endloop
endfacet
facet normal -0.6750628077669047 0.7377602629376722 -7.148578872732106e-13
  outer loop
    vertex 2.8908483192727137 66.94031745749406 7.433431647996257e-12
    vertex 3.390930381913971 67.39790079219634 7.500000000007004
    vertex 3.390930381913971 67.39790079218905 7.0019767761664294e-12
  endloop
endfacet
facet normal -0.6750628077669047 0.7377602629376722 -7.148578872732106e-13
  outer loop
    vertex 3.390930381913971 67.39790079219634 7.500000000007004
    vertex 2.8908483192727137 66.94031745749406 7.433431647996257e-12
    vertex 2.8908483192727137 66.94031745750135 7.500000000007435
  endloop
endfacet
facet normal -0.7225124633589132 0.691357895949005 -6.69895994235069e-13
  outer loop
    vertex 3.390930381913971 67.39790079219634 7.500000000007004
    vertex 3.859559149276447 67.88764731434765 6.515532557926917e-12
    vertex 3.390930381913971 67.39790079218905 7.0019767761664294e-12
  endloop
endfacet
facet normal -0.7225124633589132 0.691357895949005 -6.69895994235069e-13
  outer loop
    vertex 3.859559149276447 67.88764731434765 6.515532557926917e-12
    vertex 3.390930381913971 67.39790079219634 7.500000000007004
    vertex 3.859559149276447 67.88764731435495 7.5000000000065175
  endloop
endfacet
facet normal -0.766779704806377 0.6419103397648657 -6.219834441556356e-13
  outer loop
    vertex 3.859559149276447 67.88764731435495 7.5000000000065175
    vertex 4.294670475904631 68.40739986220672 6.012168540792117e-12
    vertex 3.859559149276447 67.88764731434765 6.515532557926917e-12
  endloop
endfacet
facet normal -0.766779704806377 0.6419103397648657 -6.219834441556356e-13
  outer loop
    vertex 4.294670475904631 68.40739986220672 6.012168540792117e-12
    vertex 3.859559149276447 67.88764731435495 7.5000000000065175
    vertex 4.294670475904631 68.40739986221402 7.500000000006014
  endloop
endfacet
facet normal -0.8076695504273524 0.5896353935378019 -5.713312750236198e-13
  outer loop
    vertex 4.294670475904631 68.40739986221402 7.500000000006014
    vertex 4.694347848920836 68.95486910797764 5.493294708003304e-12
    vertex 4.294670475904631 68.40739986220672 6.012168540792117e-12
  endloop
endfacet
facet normal -0.8076695504273524 0.5896353935378019 -5.713312750236198e-13
  outer loop
    vertex 4.694347848920836 68.95486910797764 5.493294708003304e-12
    vertex 4.294670475904631 68.40739986221402 7.500000000006014
    vertex 4.694347848920836 68.95486910798495 7.500000000005495
  endloop
endfacet
facet normal -0.8450018947846871 0.5347633100824035 -5.181625918893273e-13
  outer loop
    vertex 4.694347848920836 68.95486910798495 7.500000000005495
    vertex 5.056830829592662 69.52764364153286 4.926481445011177e-12
    vertex 4.694347848920836 68.95486910797764 5.493294708003304e-12
  endloop
endfacet
facet normal -0.8450018947846871 0.5347633100824035 -5.181625918893273e-13
  outer loop
    vertex 5.056830829592662 69.52764364153286 4.926481445011177e-12
    vertex 4.694347848920836 68.95486910798495 7.500000000005495
    vertex 5.056830829592662 69.52764364154017 7.5000000000049285
  endloop
endfacet
facet normal -0.8786123019872883 0.47753578169242794 -4.627115841651802e-13
  outer loop
    vertex 5.056830829592662 69.52764364154017 7.5000000000049285
    vertex 5.380522807448521 70.12320059182215 4.349798299330132e-12
    vertex 5.056830829592662 69.52764364153286 4.926481445011177e-12
  endloop
endfacet
facet normal -0.8786123019872883 0.47753578169242794 -4.627115841651802e-13
  outer loop
    vertex 5.380522807448521 70.12320059182215 4.349798299330132e-12
    vertex 5.056830829592662 69.52764364154017 7.5000000000049285
    vertex 5.380522807448521 70.12320059182944 7.500000000004351
  endloop
endfacet
facet normal -0.9083527299726207 0.41820487557091857 -4.052224941033987e-13
  outer loop
    vertex 5.380522807448521 70.12320059182944 7.500000000004351
    vertex 5.663998032787138 70.73891673923534 3.764655254201443e-12
    vertex 5.380522807448521 70.12320059182215 4.349798299330132e-12
  endloop
endfacet
facet normal -0.9083527299726207 0.41820487557091857 -4.052224941033987e-13
  outer loop
    vertex 5.663998032787138 70.73891673923534 3.764655254201443e-12
    vertex 5.380522807448521 70.12320059182944 7.500000000004351
    vertex 5.663998032787138 70.73891673924264 7.500000000003767
  endloop
endfacet
facet normal -0.9340921825800863 0.3570319235625447 -3.4594854099450646e-13
  outer loop
    vertex 5.663998032787138 70.73891673924264 7.500000000003767
    vertex 5.906007896605214 71.37208006996516 3.1513125442472756e-12
    vertex 5.663998032787138 70.73891673923534 3.764655254201443e-12
  endloop
endfacet
facet normal -0.9340921825800863 0.3570319235625447 -3.4594854099450646e-13
  outer loop
    vertex 5.906007896605214 71.37208006996516 3.1513125442472756e-12
    vertex 5.663998032787138 70.73891673924264 7.500000000003767
    vertex 5.906007896605214 71.37208006997245 7.500000000003153
  endloop
endfacet
facet normal -0.9557172865431932 0.29428637107843764 -2.8515080582512327e-13
  outer loop
    vertex 5.906007896605214 71.37208006997245 7.500000000003153
    vertex 6.1054864302824186 72.01990172147745 2.5238700018803684e-12
    vertex 5.906007896605214 71.37208006996516 3.1513125442472756e-12
  endloop
endfacet
facet normal -0.9557172865431932 0.29428637107843764 -2.8515080582512327e-13
  outer loop
    vertex 6.1054864302824186 72.01990172147745 2.5238700018803684e-12
    vertex 5.906007896605214 71.37208006997245 7.500000000003153
    vertex 6.1054864302824186 72.01990172148476 7.500000000002526
  endloop
endfacet
facet normal -0.9994492671619268 0.033183766656116075 -3.254851359015384e-14
  outer loop
    vertex 6.44090677651095 74.02253514300314 1.9727846693715843
    vertex 6.4634 74.69999999999621 -7.331912854624534e-14
    vertex 6.440906776510952 74.02253514300125 5.710432127159493e-13
  endloop
endfacet
facet normal -0.9994492671619268 0.033183766656116075 -3.254851359015384e-14
  outer loop
    vertex 6.4634 74.69999999999621 -7.331912854624534e-14
    vertex 6.44090677651095 74.02253514300314 1.9727846693715843
    vertex 6.441916691439403 74.05295238724182 1.9601854342778786
  endloop
endfacet
facet normal -0.9994492671619268 0.033183766656116075 -3.254851359015384e-14
  outer loop
    vertex 6.4634 74.69999999999621 -7.331912854624534e-14
    vertex 6.441916691439403 74.05295238724182 1.9601854342778786
    vertex 6.4634 74.69999999999804 1.874999999999925
  endloop
endfacet
facet normal -0.9994492671619268 -0.0331837666561173 3.1878679321087533e-14
  outer loop
    vertex 6.4634 74.69999999999804 1.874999999999925
    vertex 6.440906776510952 75.37746485699115 -7.416511849100971e-13
    vertex 6.4634 74.69999999999621 -7.331912854624534e-14
  endloop
endfacet
facet normal -0.9994492671619268 -0.0331837666561173 3.1878679321087533e-14
  outer loop
    vertex 6.440906776510952 75.37746485699115 -7.416511849100971e-13
    vertex 6.4634 74.69999999999804 1.874999999999925
    vertex 6.441916691439402 75.34704761275442 1.9601854342766307
  endloop
endfacet
facet normal -0.9994492671619268 -0.0331837666561173 3.1878679321087533e-14
  outer loop
    vertex 6.440906776510952 75.37746485699115 -7.416511849100971e-13
    vertex 6.441916691439402 75.34704761275442 1.9601854342766307
    vertex 6.44090677651095 75.37746485699309 1.9727846693702589
  endloop
endfacet
facet normal -0.9950470434690841 -0.09940513710787119 9.597048575996282e-14
  outer loop
    vertex 6.44090677651095 75.37746485699309 1.9727846693702589
    vertex 6.373526180808902 76.05194571875742 -1.3831935596897437e-12
    vertex 6.440906776510952 75.37746485699115 -7.416511849100971e-13
  endloop
endfacet
facet normal -0.9950470434690841 -0.09940513710787119 9.597048575996282e-14
  outer loop
    vertex 6.373526180808902 76.05194571875742 -1.3831935596897437e-12
    vertex 6.44090677651095 75.37746485699309 1.9727846693702589
    vertex 6.383710551706268 75.94999999999837 2.2099364905376278
  endloop
endfacet
facet normal -0.9950470434690841 -0.09940513710787119 9.597048575996282e-14
  outer loop
    vertex 6.373526180808902 76.05194571875742 -1.3831935596897437e-12
    vertex 6.383710551706268 75.94999999999837 2.2099364905376278
    vertex 6.3735261808089 76.05194571875964 2.288162191851902
  endloop
endfacet
facet normal -0.9862619863356891 -0.16518866277435976 1.5969835168342394e-13
  outer loop
    vertex 6.3735261808089 76.05194571875964 2.288162191851902
    vertex 6.261555000799532 76.72047173351933 -2.0430657166059517e-12
    vertex 6.373526180808902 76.05194571875742 -1.3831935596897437e-12
  endloop
endfacet
facet normal -0.9862619863356891 -0.16518866277435976 1.5969835168342394e-13
  outer loop
    vertex 6.261555000799532 76.72047173351933 -2.0430657166059517e-12
    vertex 6.3735261808089 76.05194571875964 2.288162191851902
    vertex 6.3038804329415035 76.46776695296514 2.6072330470318645
  endloop
endfacet
facet normal -0.9862619863356891 -0.16518866277435976 1.5969835168342394e-13
  outer loop
    vertex 6.261555000799532 76.72047173351933 -2.0430657166059517e-12
    vertex 6.3038804329415035 76.46776695296514 2.6072330470318645
    vertex 6.261555000799528 76.72047173352219 2.9365643288914653
  endloop
endfacet
facet normal -0.973132790859063 -0.23024459028357497 1.993267194809845e-13
  outer loop
    vertex 6.261555000799528 76.72047173352219 2.9365643288914653
    vertex 6.1054864302824186 77.38009827851495 -2.670508258972859e-12
    vertex 6.261555000799532 76.72047173351933 -2.0430657166059517e-12
  endloop
endfacet
facet normal -0.973132790859063 -0.23024459028357497 1.993267194809845e-13
  outer loop
    vertex 6.1054864302824186 77.38009827851495 -2.670508258972859e-12
    vertex 6.261555000799528 76.72047173352219 2.9365643288914653
    vertex 6.227344382760624 76.86506350946033 3.1249999999978377
  endloop
endfacet
facet normal -0.973132790859063 -0.23024459028357497 1.993267194809845e-13
  outer loop
    vertex 6.1054864302824186 77.38009827851495 -2.670508258972859e-12
    vertex 6.227344382760624 76.86506350946033 3.1249999999978377
    vertex 6.168252930738872 77.11481456572248 3.727952387241294
  endloop
endfacet
facet normal -0.973132790859063 -0.23024459028357497 1.993267194809845e-13
  outer loop
    vertex 6.1054864302824186 77.38009827851495 -2.670508258972859e-12
    vertex 6.168252930738872 77.11481456572248 3.727952387241294
    vertex 6.1480979368906015 77.20000000000043 4.374999999997512
  endloop
endfacet
facet normal -0.973132790859063 -0.23024459028357497 1.993267194809845e-13
  outer loop
    vertex 6.1054864302824186 77.38009827851495 -2.670508258972859e-12
    vertex 6.1480979368906015 77.20000000000043 4.374999999997512
    vertex 6.148097936890945 77.20000000000051 7.4999999999975016
  endloop
endfacet
facet normal -0.973132790859063 -0.23024459028357497 1.993267194809845e-13
  outer loop
    vertex 6.1054864302824186 77.38009827851495 -2.670508258972859e-12
    vertex 6.148097936890945 77.20000000000051 7.4999999999975016
    vertex 6.1054864302824186 77.38009827852225 7.499999999997331
  endloop
endfacet
facet normal -0.9557172865431932 -0.29428637107843764 2.8515080582512327e-13
  outer loop
    vertex 6.1054864302824186 77.38009827852225 7.499999999997331
    vertex 5.906007896605214 78.02791993002725 -3.297950801339766e-12
    vertex 6.1054864302824186 77.38009827851495 -2.670508258972859e-12
  endloop
endfacet
facet normal -0.9557172865431932 -0.29428637107843764 2.8515080582512327e-13
  outer loop
    vertex 5.906007896605214 78.02791993002725 -3.297950801339766e-12
    vertex 6.1054864302824186 77.38009827852225 7.499999999997331
    vertex 5.906007896605214 78.02791993003454 7.499999999996704
  endloop
endfacet
facet normal -0.9340921825800863 -0.3570319235625447 3.4594854099450646e-13
  outer loop
    vertex 5.906007896605214 78.02791993003454 7.499999999996704
    vertex 5.663998032787138 78.66108326075707 -3.9112935112939335e-12
    vertex 5.906007896605214 78.02791993002725 -3.297950801339766e-12
  endloop
endfacet
facet normal -0.9340921825800863 -0.3570319235625447 3.4594854099450646e-13
  outer loop
    vertex 5.663998032787138 78.66108326075707 -3.9112935112939335e-12
    vertex 5.906007896605214 78.02791993003454 7.499999999996704
    vertex 5.663998032787138 78.66108326076437 7.49999999999609
  endloop
endfacet
facet normal -0.9083527299726236 -0.4182048755709122 4.0522249410339256e-13
  outer loop
    vertex 5.663998032787138 78.66108326076437 7.49999999999609
    vertex 5.380522807448521 79.27679940817026 -4.507716422352814e-12
    vertex 5.663998032787138 78.66108326075707 -3.9112935112939335e-12
  endloop
endfacet
facet normal -0.9083527299726236 -0.4182048755709122 4.0522249410339256e-13
  outer loop
    vertex 5.380522807448521 79.27679940817026 -4.507716422352814e-12
    vertex 5.663998032787138 78.66108326076437 7.49999999999609
    vertex 5.380522807448521 79.27679940817757 7.499999999995494
  endloop
endfacet
facet normal -0.8786123019872883 -0.47753578169242794 4.627115841651802e-13
  outer loop
    vertex 5.380522807448521 79.27679940817757 7.499999999995494
    vertex 5.056830829592662 79.87235635845956 -5.097089417205325e-12
    vertex 5.380522807448521 79.27679940817026 -4.507716422352814e-12
  endloop
endfacet
facet normal -0.8786123019872883 -0.47753578169242794 4.627115841651802e-13
  outer loop
    vertex 5.056830829592662 79.87235635845956 -5.097089417205325e-12
    vertex 5.380522807448521 79.27679940817757 7.499999999995494
    vertex 5.056830829592662 79.87235635846686 7.4999999999949045
  endloop
endfacet
facet normal -0.8450018947846871 -0.5347633100824035 5.181625918893273e-13
  outer loop
    vertex 5.056830829592662 79.87235635846686 7.4999999999949045
    vertex 4.694347848920836 80.44513089201477 -5.639932965095795e-12
    vertex 5.056830829592662 79.87235635845956 -5.097089417205325e-12
  endloop
endfacet
facet normal -0.8450018947846871 -0.5347633100824035 5.181625918893273e-13
  outer loop
    vertex 4.694347848920836 80.44513089201477 -5.639932965095795e-12
    vertex 5.056830829592662 79.87235635846686 7.4999999999949045
    vertex 4.694347848920836 80.44513089202208 7.499999999994362
  endloop
endfacet
facet normal -0.8076695504273544 -0.5896353935377993 5.713312750236171e-13
  outer loop
    vertex 4.694347848920836 80.44513089202208 7.499999999994362
    vertex 4.294670475904634 80.9926001377857 -6.1827765129862655e-12
    vertex 4.694347848920836 80.44513089201477 -5.639932965095795e-12
  endloop
endfacet
facet normal -0.8076695504273544 -0.5896353935377993 5.713312750236171e-13
  outer loop
    vertex 4.294670475904634 80.9926001377857 -6.1827765129862655e-12
    vertex 4.694347848920836 80.44513089202208 7.499999999994362
    vertex 4.294670475904634 80.992600137793 7.499999999993819
  endloop
endfacet
facet normal -0.766779704806375 -0.6419103397648681 6.219834441556379e-13
  outer loop
    vertex 4.294670475904634 80.992600137793 7.499999999993819
    vertex 3.859559149276447 81.51235268564477 -6.6861405301210646e-12
    vertex 4.294670475904634 80.9926001377857 -6.1827765129862655e-12
  endloop
endfacet
facet normal -0.766779704806375 -0.6419103397648681 6.219834441556379e-13
  outer loop
    vertex 3.859559149276447 81.51235268564477 -6.6861405301210646e-12
    vertex 4.294670475904634 80.992600137793 7.499999999993819
    vertex 3.859559149276447 81.51235268565208 7.499999999993316
  endloop
endfacet
facet normal -0.7225124633589132 -0.691357895949005 6.69895994235069e-13
  outer loop
    vertex 3.859559149276447 81.51235268565208 7.499999999993316
    vertex 3.390930381913971 82.00209920780337 -7.1486150332589204e-12
    vertex 3.859559149276447 81.51235268564477 -6.6861405301210646e-12
  endloop
endfacet
facet normal -0.7225124633589132 -0.691357895949005 6.69895994235069e-13
  outer loop
    vertex 3.390930381913971 82.00209920780337 -7.1486150332589204e-12
    vertex 3.859559149276447 81.51235268565208 7.499999999993316
    vertex 3.390930381913971 82.00209920781067 7.499999999992853
  endloop
endfacet
facet normal -0.6750628077669047 -0.7377602629376722 7.148578872732106e-13
  outer loop
    vertex 3.390930381913971 82.00209920780337 -7.1486150332589204e-12
    vertex 2.8908483192727137 82.45968254250566 7.499999999992398
    vertex 2.8908483192727137 82.45968254249836 -7.604039620190405e-12
  endloop
endfacet
facet normal -0.6750628077669047 -0.7377602629376722 7.148578872732106e-13
  outer loop
    vertex 2.8908483192727137 82.45968254250566 7.499999999992398
    vertex 3.390930381913971 82.00209920780337 -7.1486150332589204e-12
    vertex 3.390930381913971 82.00209920781067 7.499999999992853
  endloop
endfacet
facet normal -0.6246397371311033 -0.7809130545693203 7.566710818913479e-13
  outer loop
    vertex 2.8908483192727137 82.45968254249836 -7.604039620190405e-12
    vertex 2.3615156475488317 82.88308719554077 7.499999999991988
    vertex 2.3615156475488317 82.88308719553348 -8.014344743401125e-12
  endloop
endfacet
facet normal -0.6246397371311033 -0.7809130545693203 7.566710818913479e-13
  outer loop
    vertex 2.3615156475488317 82.88308719554077 7.499999999991988
    vertex 2.8908483192727137 82.45968254249836 -7.604039620190405e-12
    vertex 2.8908483192727137 82.45968254250566 7.499999999992398
  endloop
endfacet
facet normal -0.5714653474032061 -0.8206261979228625 7.951514056236791e-13
  outer loop
    vertex 2.3615156475488317 82.88308719553348 -8.014344743401125e-12
    vertex 1.805263891618478 83.27044821783203 7.499999999991612
    vertex 1.805263891618478 83.27044821782472 -8.389400285579995e-12
  endloop
endfacet
facet normal -0.5714653474032061 -0.8206261979228625 7.951514056236791e-13
  outer loop
    vertex 1.805263891618478 83.27044821783203 7.499999999991612
    vertex 2.3615156475488317 82.88308719553348 -8.014344743401125e-12
    vertex 2.3615156475488317 82.88308719554077 7.499999999991988
  endloop
endfacet
facet normal -0.5157738531312227 -0.8567247705221159 8.301293661323234e-13
  outer loop
    vertex 1.805263891618478 83.27044821782472 -8.389400285579995e-12
    vertex 1.2245431454880316 83.62005941985481 7.499999999991285
    vertex 1.2245431454880316 83.62005941984752 -8.716516397555551e-12
  endloop
endfacet
facet normal -0.5157738531312227 -0.8567247705221159 8.301293661323234e-13
  outer loop
    vertex 1.2245431454880316 83.62005941985481 7.499999999991285
    vertex 1.805263891618478 83.27044821782472 -8.389400285579995e-12
    vertex 1.805263891618478 83.27044821783203 7.499999999991612
  endloop
endfacet
facet normal -0.4578105558263084 -0.8890497708081402 8.614508977617999e-13
  outer loop
    vertex 1.2245431454880316 83.62005941984752 -8.716516397555551e-12
    vertex 0.6219112804887724 83.93038088681068 7.499999999990985
    vertex 0.6219112804887724 83.93038088680338 -9.016842827946903e-12
  endloop
endfacet
facet normal -0.4578105558263084 -0.8890497708081402 8.614508977617999e-13
  outer loop
    vertex 0.6219112804887724 83.93038088681068 7.499999999990985
    vertex 1.2245431454880316 83.62005941984752 -8.716516397555551e-12
    vertex 1.2245431454880316 83.62005941985481 7.499999999991285
  endloop
endfacet
facet normal -0.39783076349565755 -0.9174588184853107 8.889780401441779e-13
  outer loop
    vertex 0.6219112804887724 83.93038088680338 -9.016842827946903e-12
    vertex 2.2678750260318734e-05 84.20004576141217 7.499999999990711
    vertex 2.2678750260318734e-05 84.20004576140488 -9.290379576754047e-12
  endloop
endfacet
facet normal -0.39783076349565755 -0.9174588184853107 8.889780401441779e-13
  outer loop
    vertex 2.2678750260318734e-05 84.20004576141217 7.499999999990711
    vertex 0.6219112804887724 83.93038088680338 -9.016842827946903e-12
    vertex 0.6219112804887724 83.93038088681068 7.499999999990985
  endloop
endfacet
facet normal -0.9999999999928565 -3.7798205383448495e-06 3.662483139921244e-18
  outer loop
    vertex 2.2678750260318734e-05 84.20004576141217 7.499999999990711
    vertex 0.0 90.19999999999621 -1.510374048052654e-11
    vertex 2.2678750260318734e-05 84.20004576140488 -9.290379576754047e-12
  endloop
endfacet
facet normal -0.9999999999928565 -3.7798205383448495e-06 3.662483139921244e-18
  outer loop
    vertex 0.0 90.19999999999621 -1.510374048052654e-11
    vertex 2.2678750260318734e-05 84.20004576141217 7.499999999990711
    vertex 0.0 90.2000000000035 7.499999999984898
  endloop
endfacet
facet normal -1.9454125354230032e-16 1.0 -9.704021639967088e-13
  outer loop
    vertex 0.0 90.19999999999621 -1.510374048052654e-11
    vertex 2.6243315669458873 90.20000000000249 6.499999999984897
    vertex 23.0 90.19999999999621 -1.510374048052654e-11
  endloop
endfacet
facet normal -1.9454125354230032e-16 1.0 -9.704021639967088e-13
  outer loop
    vertex 2.6243315669458873 90.20000000000249 6.499999999984897
    vertex 0.0 90.19999999999621 -1.510374048052654e-11
    vertex 0.0 90.2000000000035 7.499999999984898
  endloop
endfacet
facet normal -1.9454125354230032e-16 1.0 -9.704021639967088e-13
  outer loop
    vertex 2.6243315669458873 90.20000000000249 6.499999999984897
    vertex 0.0 90.2000000000035 7.499999999984898
    vertex 2.6243315669458873 90.20000000000347 7.4999999999848965
  endloop
endfacet
facet normal -1.9454125354230032e-16 1.0 -9.704021639967088e-13
  outer loop
    vertex 23.0 90.19999999999621 -1.510374048052654e-11
    vertex 14.692024566945882 90.20000000000249 6.499999999984897
    vertex 23.0 90.2000000000035 7.499999999984898
  endloop
endfacet
facet normal -1.9454125354230032e-16 1.0 -9.704021639967088e-13
  outer loop
    vertex 14.692024566945882 90.20000000000249 6.499999999984897
    vertex 23.0 90.19999999999621 -1.510374048052654e-11
    vertex 2.6243315669458873 90.20000000000249 6.499999999984897
  endloop
endfacet
facet normal -1.9454125354230032e-16 1.0 -9.704021639967088e-13
  outer loop
    vertex 23.0 90.2000000000035 7.499999999984898
    vertex 14.692024566945882 90.20000000000249 6.499999999984897
    vertex 14.692024566945882 90.20000000000347 7.4999999999848965
  endloop
endfacet
facet normal -4.8211342657235414e-17 9.698912401070543e-13 1.0
  outer loop
    vertex 2.2678750260318734e-05 84.20004576141217 7.499999999990711
    vertex 2.6243315669458873 90.20000000000347 7.4999999999848965
    vertex 0.0 90.2000000000035 7.499999999984898
  endloop
endfacet
facet normal -4.8211342657235414e-17 9.698912401070543e-13 1.0
  outer loop
    vertex 2.6243315669458873 90.20000000000347 7.4999999999848965
    vertex 2.2678750260318734e-05 84.20004576141217 7.499999999990711
    vertex 0.6219112804887724 83.93038088681068 7.499999999990985
  endloop
endfacet
facet normal -4.8211342657235414e-17 9.698912401070543e-13 1.0
  outer loop
    vertex 2.6243315669458873 90.20000000000347 7.4999999999848965
    vertex 0.6219112804887724 83.93038088681068 7.499999999990985
    vertex 1.2245431454880316 83.62005941985481 7.499999999991285
  endloop
endfacet
facet normal -4.8211342657235414e-17 9.698912401070543e-13 1.0
  outer loop
    vertex 2.6243315669458873 90.20000000000347 7.4999999999848965
    vertex 1.2245431454880316 83.62005941985481 7.499999999991285
    vertex 1.805263891618478 83.27044821783203 7.499999999991612
  endloop
endfacet
facet normal -4.8211342657235414e-17 9.698912401070543e-13 1.0
  outer loop
    vertex 2.6243315669458873 90.20000000000347 7.4999999999848965
    vertex 1.805263891618478 83.27044821783203 7.499999999991612
    vertex 2.3615156475488317 82.88308719554077 7.499999999991988
  endloop
endfacet
facet normal -4.8211342657235414e-17 9.698912401070543e-13 1.0
  outer loop
    vertex 2.6243315669458873 90.20000000000347 7.4999999999848965
    vertex 2.3615156475488317 82.88308719554077 7.499999999991988
    vertex 2.6243315669458873 85.10802400000347 7.49999999998983
  endloop
endfacet
facet normal -4.8211342657235414e-17 9.698912401070543e-13 1.0
  outer loop
    vertex 2.8908483192727137 82.45968254250566 7.499999999992398
    vertex 2.6243315669458873 85.10802400000347 7.49999999998983
    vertex 2.3615156475488317 82.88308719554077 7.499999999991988
  endloop
endfacet
facet normal -4.8211342657235414e-17 9.698912401070543e-13 1.0
  outer loop
    vertex 2.6243315669458873 85.10802400000347 7.49999999998983
    vertex 2.8908483192727137 82.45968254250566 7.499999999992398
    vertex 14.692024566945886 85.10802400000347 7.49999999998983
  endloop
endfacet
facet normal -4.8211342657235414e-17 9.698912401070543e-13 1.0
  outer loop
    vertex 14.692024566945886 85.10802400000347 7.49999999998983
    vertex 2.8908483192727137 82.45968254250566 7.499999999992398
    vertex 3.390930381913971 82.00209920781067 7.499999999992853
  endloop
endfacet
facet normal -4.8211342657235414e-17 9.698912401070543e-13 1.0
  outer loop
    vertex 14.692024566945886 85.10802400000347 7.49999999998983
    vertex 3.390930381913971 82.00209920781067 7.499999999992853
    vertex 3.859559149276447 81.51235268565208 7.499999999993316
  endloop
endfacet
facet normal -4.8211342657235414e-17 9.698912401070543e-13 1.0
  outer loop
    vertex 14.692024566945886 85.10802400000347 7.49999999998983
    vertex 3.859559149276447 81.51235268565208 7.499999999993316
    vertex 4.294670475904634 80.992600137793 7.499999999993819
  endloop
endfacet
facet normal -4.8211342657235414e-17 9.698912401070543e-13 1.0
  outer loop
    vertex 14.692024566945886 85.10802400000347 7.49999999998983
    vertex 4.294670475904634 80.992600137793 7.499999999993819
    vertex 4.694347848920836 80.44513089202208 7.499999999994362
  endloop
endfacet
facet normal -4.8211342657235414e-17 9.698912401070543e-13 1.0
  outer loop
    vertex 14.692024566945886 85.10802400000347 7.49999999998983
    vertex 4.694347848920836 80.44513089202208 7.499999999994362
    vertex 5.056830829592662 79.87235635846686 7.4999999999949045
  endloop
endfacet
facet normal -4.8211342657235414e-17 9.698912401070543e-13 1.0
  outer loop
    vertex 14.692024566945886 85.10802400000347 7.49999999998983
    vertex 5.056830829592662 79.87235635846686 7.4999999999949045
    vertex 5.380522807448521 79.27679940817757 7.499999999995494
  endloop
endfacet
facet normal -4.8211342657235414e-17 9.698912401070543e-13 1.0
  outer loop
    vertex 14.692024566945886 85.10802400000347 7.49999999998983
    vertex 5.380522807448521 79.27679940817757 7.499999999995494
    vertex 5.663998032787138 78.66108326076437 7.49999999999609
  endloop
endfacet
facet normal -4.8211342657235414e-17 9.698912401070543e-13 1.0
  outer loop
    vertex 14.692024566945886 85.10802400000347 7.49999999998983
    vertex 5.663998032787138 78.66108326076437 7.49999999999609
    vertex 5.906007896605214 78.02791993003454 7.499999999996704
  endloop
endfacet
facet normal -4.8211342657235414e-17 9.698912401070543e-13 1.0
  outer loop
    vertex 14.692024566945886 85.10802400000347 7.49999999998983
    vertex 5.906007896605214 78.02791993003454 7.499999999996704
    vertex 6.1054864302824186 77.38009827852225 7.499999999997331
  endloop
endfacet
facet normal -4.8211342657235414e-17 9.698912401070543e-13 1.0
  outer loop
    vertex 14.692024566945886 85.10802400000347 7.49999999998983
    vertex 6.1054864302824186 77.38009827852225 7.499999999997331
    vertex 6.148097936890945 77.20000000000051 7.4999999999975016
  endloop
endfacet
facet normal -4.8211342657235414e-17 9.698912401070543e-13 1.0
  outer loop
    vertex 14.692024566945886 85.10802400000347 7.49999999998983
    vertex 6.148097936890945 77.20000000000051 7.4999999999975016
    vertex 14.000000405226361 78.1993153371684 7.500584542006628
  endloop
endfacet
facet normal -4.8211342657235414e-17 9.698912401070543e-13 1.0
  outer loop
    vertex 14.000000405226361 78.1993153371684 7.500584542006628
    vertex 6.148097936890945 77.20000000000051 7.4999999999975016
    vertex 14.000000405226361 77.1993153371684 7.500584542007598
  endloop
endfacet
facet normal -4.8211342657235414e-17 9.698912401070543e-13 1.0
  outer loop
    vertex 14.692024566945886 85.10802400000347 7.49999999998983
    vertex 14.000000405226361 78.1993153371684 7.500584542006628
    vertex 16.999999999999996 78.20000000000347 7.499999999996536
  endloop
endfacet
facet normal -4.8211342657235414e-17 9.698912401070543e-13 1.0
  outer loop
    vertex 23.0 77.45000000000347 7.499999999997262
    vertex 16.999999999999996 78.20000000000347 7.499999999996536
    vertex 16.999999999999996 77.45000000000347 7.499999999997262
  endloop
endfacet
facet normal -4.8211342657235414e-17 9.698912401070543e-13 1.0
  outer loop
    vertex 14.692024566945886 85.10802400000347 7.49999999998983
    vertex 23.0 90.2000000000035 7.499999999984898
    vertex 14.692024566945882 90.20000000000347 7.4999999999848965
  endloop
endfacet
facet normal -4.8211342657235414e-17 9.698912401070543e-13 1.0
  outer loop
    vertex 23.0 90.2000000000035 7.499999999984898
    vertex 14.692024566945886 85.10802400000347 7.49999999998983
    vertex 16.999999999999996 78.20000000000347 7.499999999996536
  endloop
endfacet
facet normal -4.8211342657235414e-17 9.698912401070543e-13 1.0
  outer loop
    vertex 23.0 90.2000000000035 7.499999999984898
    vertex 16.999999999999996 78.20000000000347 7.499999999996536
    vertex 23.0 77.45000000000347 7.499999999997262
  endloop
endfacet
facet normal -3.5896610721889963e-06 -0.9238794535981162 0.3826836228614453
  outer loop
    vertex 14.000081884540945 77.1137867337715 3.7256618499440517
    vertex 6.227344382760624 76.86506350946033 3.1249999999978377
    vertex 14.000081884540945 76.86403567750935 3.122709462700594
  endloop
endfacet
facet normal -3.5896610721889963e-06 -0.9238794535981162 0.3826836228614453
  outer loop
    vertex 6.227344382760624 76.86506350946033 3.1249999999978377
    vertex 14.000081884540945 77.1137867337715 3.7256618499440517
    vertex 6.168252930738872 77.11481456572248 3.727952387241294
  endloop
endfacet
facet normal 0.0001210420621579183 0.13052056852721391 0.9914455943419952
  outer loop
    vertex 14.000081884540945 74.05192455529082 1.9578948969806376
    vertex 6.4634 74.69999999999804 1.874999999999925
    vertex 6.441916691439403 74.05295238724182 1.9601854342778786
  endloop
endfacet
facet normal 0.0001210420621579183 0.13052056852721391 0.9914455943419952
  outer loop
    vertex 6.4634 74.69999999999804 1.874999999999925
    vertex 14.000081884540945 74.05192455529082 1.9578948969806376
    vertex 14.000081884540945 74.69897216804705 1.872709462702684
  endloop
endfacet
facet normal 6.234071341450883e-05 -0.6087494287919525 0.7933625457879312
  outer loop
    vertex 6.3735261808089 76.05194571875964 2.288162191851902
    vertex 14.000081884540945 76.46673912101411 2.6049425097346086
    vertex 6.3038804329415035 76.46776695296514 2.6072330470318645
  endloop
endfacet
facet normal 6.234071341450883e-05 -0.6087494287919525 0.7933625457879312
  outer loop
    vertex 14.000081884540945 76.46673912101411 2.6049425097346086
    vertex 6.3735261808089 76.05194571875964 2.288162191851902
    vertex 6.383710551706268 75.94999999999837 2.2099364905376278
  endloop
endfacet
facet normal 6.234071341450883e-05 -0.6087494287919525 0.7933625457879312
  outer loop
    vertex 14.000081884540945 76.46673912101411 2.6049425097346086
    vertex 6.383710551706268 75.94999999999837 2.2099364905376278
    vertex 14.000081884540945 75.94897216804738 2.2076459532403807
  endloop
endfacet
facet normal -3.603355034228693e-05 -0.9914471619193577 0.13050871167716918
  outer loop
    vertex 13.976311061533623 77.19931533716539 4.375584542007603
    vertex 6.168252930738872 77.11481456572248 3.727952387241294
    vertex 14.000081884540945 77.1137867337715 3.7256618499440517
  endloop
endfacet
facet normal -3.603355034228693e-05 -0.9914471619193577 0.13050871167716918
  outer loop
    vertex 6.168252930738872 77.11481456572248 3.727952387241294
    vertex 13.976311061533623 77.19931533716539 4.375584542007603
    vertex 6.1480979368906015 77.20000000000043 4.374999999997512
  endloop
endfacet
facet normal 9.057614196374841e-05 -0.3826548841732572 0.9238913526028447
  outer loop
    vertex 6.44090677651095 75.37746485699309 1.9727846693702589
    vertex 14.000081884540945 75.94897216804738 2.2076459532403807
    vertex 6.383710551706268 75.94999999999837 2.2099364905376278
  endloop
endfacet
facet normal 9.057614196374841e-05 -0.3826548841732572 0.9238913526028447
  outer loop
    vertex 14.000081884540945 75.94897216804738 2.2076459532403807
    vertex 6.44090677651095 75.37746485699309 1.9727846693702589
    vertex 6.441916691439402 75.34704761275442 1.9601854342766307
  endloop
endfacet
facet normal 9.057614196374841e-05 -0.3826548841732572 0.9238913526028447
  outer loop
    vertex 14.000081884540945 75.94897216804738 2.2076459532403807
    vertex 6.441916691439402 75.34704761275442 1.9601854342766307
    vertex 14.000081884540945 75.34601978080343 1.9578948969793888
  endloop
endfacet
facet normal 8.974604510945831e-05 0.9238815015488238 0.38267866812972245
  outer loop
    vertex 6.227344382760628 72.53493649053814 3.125000000002014
    vertex 14.000081884540945 72.28415760232616 3.725661849948713
    vertex 14.000081884540945 72.53390865858717 3.122709462704773
  endloop
endfacet
facet normal 8.974604510945831e-05 0.9238815015488238 0.38267866812972245
  outer loop
    vertex 14.000081884540945 72.28415760232616 3.725661849948713
    vertex 6.227344382760628 72.53493649053814 3.125000000002014
    vertex 6.168252930738875 72.28518543427717 3.7279523872459546
  endloop
endfacet
facet normal -0.9950470434690841 0.0994051371078716 -9.636686580862407e-14
  outer loop
    vertex 6.373526180808903 73.34805428123721 2.2881621918545303
    vertex 6.440906776510952 74.02253514300125 5.710432127159493e-13
    vertex 6.373526180808902 73.348054281235 1.236555302597253e-12
  endloop
endfacet
facet normal -0.9950470434690841 0.0994051371078716 -9.636686580862407e-14
  outer loop
    vertex 6.440906776510952 74.02253514300125 5.710432127159493e-13
    vertex 6.373526180808903 73.34805428123721 2.2881621918545303
    vertex 6.3837105517062716 73.44999999999838 2.2099364905400307
  endloop
endfacet
facet normal -0.9950470434690841 0.0994051371078716 -9.636686580862407e-14
  outer loop
    vertex 6.440906776510952 74.02253514300125 5.710432127159493e-13
    vertex 6.3837105517062716 73.44999999999838 2.2099364905400307
    vertex 6.44090677651095 74.02253514300314 1.9727846693715843
  endloop
endfacet
facet normal 0.00012773115094554153 0.6087284158375782 0.7933786608150143
  outer loop
    vertex 14.000081884540945 72.93120521508139 2.604942509738021
    vertex 6.373526180808903 73.34805428123721 2.2881621918545303
    vertex 6.303880432941509 72.93223304703238 2.6072330470352663
  endloop
endfacet
facet normal 0.00012773115094554153 0.6087284158375782 0.7933786608150143
  outer loop
    vertex 6.373526180808903 73.34805428123721 2.2881621918545303
    vertex 14.000081884540945 72.93120521508139 2.604942509738021
    vertex 6.3837105517062716 73.44999999999838 2.2099364905400307
  endloop
endfacet
facet normal 0.00012773115094554153 0.6087284158375782 0.7933786608150143
  outer loop
    vertex 6.3837105517062716 73.44999999999838 2.2099364905400307
    vertex 14.000081884540945 72.93120521508139 2.604942509738021
    vertex 14.000081884540945 73.44897216804738 2.207645953242794
  endloop
endfacet
facet normal 0.00011472621024317935 0.7933650248223154 0.6087461903179222
  outer loop
    vertex 6.303880432941509 72.93223304703238 2.6072330470352663
    vertex 14.000081884540945 72.53390865858717 3.122709462704773
    vertex 14.000081884540945 72.93120521508139 2.604942509738021
  endloop
endfacet
facet normal 0.00011472621024317935 0.7933650248223154 0.6087461903179222
  outer loop
    vertex 14.000081884540945 72.53390865858717 3.122709462704773
    vertex 6.303880432941509 72.93223304703238 2.6072330470352663
    vertex 6.261555000799535 72.67952826647594 2.9365643288953485
  endloop
endfacet
facet normal 0.00011472621024317935 0.7933650248223154 0.6087461903179222
  outer loop
    vertex 14.000081884540945 72.53390865858717 3.122709462704773
    vertex 6.261555000799535 72.67952826647594 2.9365643288953485
    vertex 6.227344382760628 72.53493649053814 3.125000000002014
  endloop
endfacet
facet normal -0.9862619863356891 0.1651886627743603 -1.5991477394236273e-13
  outer loop
    vertex 6.261555000799535 72.67952826647594 2.9365643288953485
    vertex 6.373526180808902 73.348054281235 1.236555302597253e-12
    vertex 6.261555000799532 72.67952826647308 1.872457744411804e-12
  endloop
endfacet
facet normal -0.9862619863356891 0.1651886627743603 -1.5991477394236273e-13
  outer loop
    vertex 6.373526180808902 73.348054281235 1.236555302597253e-12
    vertex 6.261555000799535 72.67952826647594 2.9365643288953485
    vertex 6.303880432941509 72.93223304703238 2.6072330470352663
  endloop
endfacet
facet normal -0.9862619863356891 0.1651886627743603 -1.5991477394236273e-13
  outer loop
    vertex 6.373526180808902 73.348054281235 1.236555302597253e-12
    vertex 6.303880432941509 72.93223304703238 2.6072330470352663
    vertex 6.373526180808903 73.34805428123721 2.2881621918545303
  endloop
endfacet
facet normal 3.0057046586316043e-05 -0.7933564025511248 0.6087574374311265
  outer loop
    vertex 14.000081884540945 76.86403567750935 3.122709462700594
    vertex 6.3038804329415035 76.46776695296514 2.6072330470318645
    vertex 14.000081884540945 76.46673912101411 2.6049425097346086
  endloop
endfacet
facet normal 3.0057046586316043e-05 -0.7933564025511248 0.6087574374311265
  outer loop
    vertex 6.3038804329415035 76.46776695296514 2.6072330470318645
    vertex 14.000081884540945 76.86403567750935 3.122709462700594
    vertex 6.261555000799528 76.72047173352219 2.9365643288914653
  endloop
endfacet
facet normal 3.0057046586316043e-05 -0.7933564025511248 0.6087574374311265
  outer loop
    vertex 6.261555000799528 76.72047173352219 2.9365643288914653
    vertex 14.000081884540945 76.86403567750935 3.122709462700594
    vertex 6.227344382760624 76.86506350946033 3.1249999999978377
  endloop
endfacet
facet normal 0.00013182414073741156 0.38263359717708323 0.9239001639429023
  outer loop
    vertex 14.000081884540945 73.44897216804738 2.207645953242794
    vertex 6.44090677651095 74.02253514300314 1.9727846693715843
    vertex 6.3837105517062716 73.44999999999838 2.2099364905400307
  endloop
endfacet
facet normal 0.00013182414073741156 0.38263359717708323 0.9239001639429023
  outer loop
    vertex 6.44090677651095 74.02253514300314 1.9727846693715843
    vertex 14.000081884540945 73.44897216804738 2.207645953242794
    vertex 6.441916691439403 74.05295238724182 1.9601854342778786
  endloop
endfacet
facet normal 0.00013182414073741156 0.38263359717708323 0.9239001639429023
  outer loop
    vertex 6.441916691439403 74.05295238724182 1.9601854342778786
    vertex 14.000081884540945 73.44897216804738 2.207645953242794
    vertex 14.000081884540945 74.05192455529082 1.9578948969806376
  endloop
endfacet
facet normal 0.00010753774273410076 -0.1305288471510783 0.9914445060098142
  outer loop
    vertex 6.4634 74.69999999999804 1.874999999999925
    vertex 14.000081884540945 75.34601978080343 1.9578948969793888
    vertex 6.441916691439402 75.34704761275442 1.9601854342766307
  endloop
endfacet
facet normal 0.00010753774273410076 -0.1305288471510783 0.9914445060098142
  outer loop
    vertex 14.000081884540945 75.34601978080343 1.9578948969793888
    vertex 6.4634 74.69999999999804 1.874999999999925
    vertex 14.000081884540945 74.69897216804705 1.872709462702684
  endloop
endfacet
facet normal -0.9731327908590525 0.23024459028361946 -1.9955720381131927e-13
  outer loop
    vertex 6.148097936890264 72.20000000000054 7.500000000002348
    vertex 6.148097936890606 72.20000000000047 4.375000000002339
    vertex 6.1054864302824186 72.01990172148476 7.500000000002526
  endloop
endfacet
facet normal -0.9731327908590525 0.23024459028361946 -1.9955720381131927e-13
  outer loop
    vertex 6.1054864302824186 72.01990172147745 2.5238700018803684e-12
    vertex 6.148097936890606 72.20000000000047 4.375000000002339
    vertex 6.261555000799532 72.67952826647308 1.872457744411804e-12
  endloop
endfacet
facet normal -0.9731327908590525 0.23024459028361946 -1.9955720381131927e-13
  outer loop
    vertex 6.148097936890606 72.20000000000047 4.375000000002339
    vertex 6.1054864302824186 72.01990172147745 2.5238700018803684e-12
    vertex 6.1054864302824186 72.01990172148476 7.500000000002526
  endloop
endfacet
facet normal -0.9731327908590525 0.23024459028361946 -1.9955720381131927e-13
  outer loop
    vertex 6.261555000799532 72.67952826647308 1.872457744411804e-12
    vertex 6.148097936890606 72.20000000000047 4.375000000002339
    vertex 6.168252930738875 72.28518543427717 3.7279523872459546
  endloop
endfacet
facet normal -0.9731327908590525 0.23024459028361946 -1.9955720381131927e-13
  outer loop
    vertex 6.261555000799532 72.67952826647308 1.872457744411804e-12
    vertex 6.168252930738875 72.28518543427717 3.7279523872459546
    vertex 6.227344382760628 72.53493649053814 3.125000000002014
  endloop
endfacet
facet normal -0.9731327908590525 0.23024459028361946 -1.9955720381131927e-13
  outer loop
    vertex 6.261555000799532 72.67952826647308 1.872457744411804e-12
    vertex 6.227344382760628 72.53493649053814 3.125000000002014
    vertex 6.261555000799535 72.67952826647594 2.9365643288953485
  endloop
endfacet
facet normal -1.9763491493892565e-16 9.690330082170873e-13 1.0
  outer loop
    vertex 23.0 59.20000000000351 7.500000000014947
    vertex 2.2678750254678803e-05 65.19995423859484 7.500000000009122
    vertex 0.0 59.20000000000351 7.500000000014947
  endloop
endfacet
facet normal -1.9763491493892565e-16 9.690330082170873e-13 1.0
  outer loop
    vertex 2.2678750254678803e-05 65.19995423859484 7.500000000009122
    vertex 23.0 59.20000000000351 7.500000000014947
    vertex 0.6219112804887724 65.46961911319633 7.5000000000088605
  endloop
endfacet
facet normal -1.9763491493892565e-16 9.690330082170873e-13 1.0
  outer loop
    vertex 0.6219112804887724 65.46961911319633 7.5000000000088605
    vertex 23.0 59.20000000000351 7.500000000014947
    vertex 1.2245431454880316 65.7799405801522 7.500000000008572
  endloop
endfacet
facet normal -1.9763491493892565e-16 9.690330082170873e-13 1.0
  outer loop
    vertex 1.2245431454880316 65.7799405801522 7.500000000008572
    vertex 23.0 59.20000000000351 7.500000000014947
    vertex 1.805263891618478 66.12955178217499 7.500000000008221
  endloop
endfacet
facet normal -1.9763491493892565e-16 9.690330082170873e-13 1.0
  outer loop
    vertex 1.805263891618478 66.12955178217499 7.500000000008221
    vertex 23.0 59.20000000000351 7.500000000014947
    vertex 2.361515647548826 66.51691280446624 7.500000000007845
  endloop
endfacet
facet normal -1.9763491493892565e-16 9.690330082170873e-13 1.0
  outer loop
    vertex 2.361515647548826 66.51691280446624 7.500000000007845
    vertex 23.0 59.20000000000351 7.500000000014947
    vertex 2.8908483192727137 66.94031745750135 7.500000000007435
  endloop
endfacet
facet normal -1.9763491493892565e-16 9.690330082170873e-13 1.0
  outer loop
    vertex 2.8908483192727137 66.94031745750135 7.500000000007435
    vertex 23.0 59.20000000000351 7.500000000014947
    vertex 3.390930381913971 67.39790079219634 7.500000000007004
  endloop
endfacet
facet normal -1.9763491493892565e-16 9.690330082170873e-13 1.0
  outer loop
    vertex 3.390930381913971 67.39790079219634 7.500000000007004
    vertex 23.0 59.20000000000351 7.500000000014947
    vertex 3.859559149276447 67.88764731435495 7.5000000000065175
  endloop
endfacet
facet normal -1.9763491493892565e-16 9.690330082170873e-13 1.0
  outer loop
    vertex 3.859559149276447 67.88764731435495 7.5000000000065175
    vertex 23.0 59.20000000000351 7.500000000014947
    vertex 4.294670475904631 68.40739986221402 7.500000000006014
  endloop
endfacet
facet normal -1.9763491493892565e-16 9.690330082170873e-13 1.0
  outer loop
    vertex 4.294670475904631 68.40739986221402 7.500000000006014
    vertex 23.0 59.20000000000351 7.500000000014947
    vertex 4.694347848920836 68.95486910798495 7.500000000005495
  endloop
endfacet
facet normal -1.9763491493892565e-16 9.690330082170873e-13 1.0
  outer loop
    vertex 4.694347848920836 68.95486910798495 7.500000000005495
    vertex 23.0 59.20000000000351 7.500000000014947
    vertex 5.056830829592662 69.52764364154017 7.5000000000049285
  endloop
endfacet
facet normal -1.9763491493892565e-16 9.690330082170873e-13 1.0
  outer loop
    vertex 5.056830829592662 69.52764364154017 7.5000000000049285
    vertex 23.0 59.20000000000351 7.500000000014947
    vertex 5.380522807448521 70.12320059182944 7.500000000004351
  endloop
endfacet
facet normal -1.9763491493892565e-16 9.690330082170873e-13 1.0
  outer loop
    vertex 5.380522807448521 70.12320059182944 7.500000000004351
    vertex 23.0 59.20000000000351 7.500000000014947
    vertex 5.663998032787138 70.73891673924264 7.500000000003767
  endloop
endfacet
facet normal -1.9763491493892565e-16 9.690330082170873e-13 1.0
  outer loop
    vertex 5.663998032787138 70.73891673924264 7.500000000003767
    vertex 23.0 59.20000000000351 7.500000000014947
    vertex 5.906007896605214 71.37208006997245 7.500000000003153
  endloop
endfacet
facet normal -1.9763491493892565e-16 9.690330082170873e-13 1.0
  outer loop
    vertex 5.906007896605214 71.37208006997245 7.500000000003153
    vertex 23.0 59.20000000000351 7.500000000014947
    vertex 6.1054864302824186 72.01990172148476 7.500000000002526
  endloop
endfacet
facet normal -1.9763491493892565e-16 9.690330082170873e-13 1.0
  outer loop
    vertex 6.1054864302824186 72.01990172148476 7.500000000002526
    vertex 23.0 59.20000000000351 7.500000000014947
    vertex 6.148097936890264 72.20000000000054 7.500000000002348
  endloop
endfacet
facet normal -1.9763491493892565e-16 9.690330082170873e-13 1.0
  outer loop
    vertex 6.148097936890264 72.20000000000054 7.500000000002348
    vertex 23.0 59.20000000000351 7.500000000014947
    vertex 14.000000405226361 71.19931533716841 7.5005845420133985
  endloop
endfacet
facet normal -1.9763491493892565e-16 9.690330082170873e-13 1.0
  outer loop
    vertex 14.000000405226361 71.19931533716841 7.5005845420133985
    vertex 23.0 59.20000000000351 7.500000000014947
    vertex 16.999999999999996 71.20000000000348 7.500000000003307
  endloop
endfacet
facet normal -1.9763491493892565e-16 9.690330082170873e-13 1.0
  outer loop
    vertex 16.999999999999996 71.20000000000348 7.500000000003307
    vertex 23.0 59.20000000000351 7.500000000014947
    vertex 16.999999999999996 71.95000000000348 7.500000000002592
  endloop
endfacet
facet normal -1.9763491493892565e-16 9.690330082170873e-13 1.0
  outer loop
    vertex 16.999999999999996 71.95000000000348 7.500000000002592
    vertex 23.0 59.20000000000351 7.500000000014947
    vertex 23.0 71.95000000000348 7.500000000002592
  endloop
endfacet
facet normal -1.9763491493892565e-16 9.690330082170873e-13 1.0
  outer loop
    vertex 14.000000405226361 72.19931533716841 7.50058454201244
    vertex 6.148097936890264 72.20000000000054 7.500000000002348
    vertex 14.000000405226361 71.19931533716841 7.5005845420133985
  endloop
endfacet
facet normal 0.0 -1.0 9.685644878724512e-13
  outer loop
    vertex 23.0 77.45000000000347 7.499999999997262
    vertex 16.999999999999996 77.44999999999621 -2.7381874545540083e-12
    vertex 23.0 77.44999999999621 -2.7381874545540083e-12
  endloop
endfacet
facet normal 0.0 -1.0 9.685644878724512e-13
  outer loop
    vertex 16.999999999999996 77.44999999999621 -2.7381874545540083e-12
    vertex 23.0 77.45000000000347 7.499999999997262
    vertex 16.999999999999996 77.45000000000347 7.499999999997262
  endloop
endfacet
facet normal -0.0 9.689568863830276e-13 1.0
  outer loop
    vertex 23.0 59.199999999996216 1.4945822357503857e-11
    vertex 2.2678750254678803e-05 65.19995423858754 9.1197716045599e-12
    vertex 0.0 59.199999999996216 1.4945822357503857e-11
  endloop
endfacet
facet normal -0.0 9.689568863830276e-13 1.0
  outer loop
    vertex 2.2678750254678803e-05 65.19995423858754 9.1197716045599e-12
    vertex 23.0 59.199999999996216 1.4945822357503857e-11
    vertex 0.6219112804887724 65.46961911318904 8.85892470492422e-12
  endloop
endfacet
facet normal -0.0 9.689568863830276e-13 1.0
  outer loop
    vertex 0.6219112804887724 65.46961911318904 8.85892470492422e-12
    vertex 23.0 59.199999999996216 1.4945822357503857e-11
    vertex 1.2245431454880316 65.7799405801449 8.56987814046306e-12
  endloop
endfacet
facet normal -0.0 9.689568863830276e-13 1.0
  outer loop
    vertex 1.2245431454880316 65.7799405801449 8.56987814046306e-12
    vertex 23.0 59.199999999996216 1.4945822357503857e-11
    vertex 1.805263891618478 66.1295517821677 8.218792313385848e-12
  endloop
endfacet
facet normal -0.0 9.689568863830276e-13 1.0
  outer loop
    vertex 1.805263891618478 66.1295517821677 8.218792313385848e-12
    vertex 23.0 59.199999999996216 1.4945822357503857e-11
    vertex 2.361515647548826 66.51691280445894 7.843736771206976e-12
  endloop
endfacet
facet normal -0.0 9.689568863830276e-13 1.0
  outer loop
    vertex 2.361515647548826 66.51691280445894 7.843736771206976e-12
    vertex 23.0 59.199999999996216 1.4945822357503857e-11
    vertex 2.8908483192727137 66.94031745749406 7.433431647996257e-12
  endloop
endfacet
facet normal -0.0 9.689568863830276e-13 1.0
  outer loop
    vertex 2.8908483192727137 66.94031745749406 7.433431647996257e-12
    vertex 23.0 59.199999999996216 1.4945822357503857e-11
    vertex 3.390930381913971 67.39790079218905 7.0019767761664294e-12
  endloop
endfacet
facet normal -0.0 9.689568863830276e-13 1.0
  outer loop
    vertex 3.390930381913971 67.39790079218905 7.0019767761664294e-12
    vertex 23.0 59.199999999996216 1.4945822357503857e-11
    vertex 3.859559149276447 67.88764731434765 6.515532557926917e-12
  endloop
endfacet
facet normal -0.0 9.689568863830276e-13 1.0
  outer loop
    vertex 3.859559149276447 67.88764731434765 6.515532557926917e-12
    vertex 23.0 59.199999999996216 1.4945822357503857e-11
    vertex 4.294670475904631 68.40739986220672 6.012168540792117e-12
  endloop
endfacet
facet normal -0.0 9.689568863830276e-13 1.0
  outer loop
    vertex 4.294670475904631 68.40739986220672 6.012168540792117e-12
    vertex 23.0 59.199999999996216 1.4945822357503857e-11
    vertex 4.694347848920836 68.95486910797764 5.493294708003304e-12
  endloop
endfacet
facet normal -0.0 9.689568863830276e-13 1.0
  outer loop
    vertex 4.694347848920836 68.95486910797764 5.493294708003304e-12
    vertex 23.0 59.199999999996216 1.4945822357503857e-11
    vertex 5.056830829592662 69.52764364153286 4.926481445011177e-12
  endloop
endfacet
facet normal -0.0 9.689568863830276e-13 1.0
  outer loop
    vertex 5.056830829592662 69.52764364153286 4.926481445011177e-12
    vertex 23.0 59.199999999996216 1.4945822357503857e-11
    vertex 5.380522807448521 70.12320059182215 4.349798299330132e-12
  endloop
endfacet
facet normal -0.0 9.689568863830276e-13 1.0
  outer loop
    vertex 5.380522807448521 70.12320059182215 4.349798299330132e-12
    vertex 23.0 59.199999999996216 1.4945822357503857e-11
    vertex 5.663998032787138 70.73891673923534 3.764655254201443e-12
  endloop
endfacet
facet normal -0.0 9.689568863830276e-13 1.0
  outer loop
    vertex 5.663998032787138 70.73891673923534 3.764655254201443e-12
    vertex 23.0 59.199999999996216 1.4945822357503857e-11
    vertex 5.906007896605214 71.37208006996516 3.1513125442472756e-12
  endloop
endfacet
facet normal -0.0 9.689568863830276e-13 1.0
  outer loop
    vertex 5.906007896605214 71.37208006996516 3.1513125442472756e-12
    vertex 23.0 59.199999999996216 1.4945822357503857e-11
    vertex 6.1054864302824186 72.01990172147745 2.5238700018803684e-12
  endloop
endfacet
facet normal -0.0 9.689568863830276e-13 1.0
  outer loop
    vertex 6.1054864302824186 72.01990172147745 2.5238700018803684e-12
    vertex 23.0 59.199999999996216 1.4945822357503857e-11
    vertex 6.261555000799532 72.67952826647308 1.872457744411804e-12
  endloop
endfacet
facet normal -0.0 9.689568863830276e-13 1.0
  outer loop
    vertex 6.261555000799532 72.67952826647308 1.872457744411804e-12
    vertex 23.0 59.199999999996216 1.4945822357503857e-11
    vertex 6.373526180808902 73.348054281235 1.236555302597253e-12
  endloop
endfacet
facet normal -0.0 9.689568863830276e-13 1.0
  outer loop
    vertex 6.373526180808902 73.348054281235 1.236555302597253e-12
    vertex 23.0 59.199999999996216 1.4945822357503857e-11
    vertex 6.440906776510952 74.02253514300125 5.710432127159493e-13
  endloop
endfacet
facet normal -0.0 9.689568863830276e-13 1.0
  outer loop
    vertex 6.440906776510952 74.02253514300125 5.710432127159493e-13
    vertex 23.0 59.199999999996216 1.4945822357503857e-11
    vertex 6.4634 74.69999999999621 -7.331912854624534e-14
  endloop
endfacet
facet normal -0.0 9.689568863830276e-13 1.0
  outer loop
    vertex 6.4634 74.69999999999621 -7.331912854624534e-14
    vertex 23.0 59.199999999996216 1.4945822357503857e-11
    vertex 14.000000405226361 71.19931533716115 0.0005845420133987677
  endloop
endfacet
facet normal -0.0 9.689568863830276e-13 1.0
  outer loop
    vertex 14.000000405226361 71.19931533716115 0.0005845420133987677
    vertex 23.0 59.199999999996216 1.4945822357503857e-11
    vertex 16.999999999999996 71.19999999999621 3.30641070078741e-12
  endloop
endfacet
facet normal -0.0 9.689568863830276e-13 1.0
  outer loop
    vertex 16.999999999999996 71.19999999999621 3.30641070078741e-12
    vertex 23.0 59.199999999996216 1.4945822357503857e-11
    vertex 16.999999999999996 71.94999999999621 2.5915491974615177e-12
  endloop
endfacet
facet normal -0.0 9.689568863830276e-13 1.0
  outer loop
    vertex 16.999999999999996 71.94999999999621 2.5915491974615177e-12
    vertex 23.0 59.199999999996216 1.4945822357503857e-11
    vertex 23.0 71.94999999999621 2.5915491974615177e-12
  endloop
endfacet
facet normal -0.0 9.689568863830276e-13 1.0
  outer loop
    vertex 23.0 77.44999999999621 -2.7381874545540083e-12
    vertex 16.999999999999996 78.19999999999621 -3.464328823810092e-12
    vertex 16.999999999999996 77.44999999999621 -2.7381874545540083e-12
  endloop
endfacet
facet normal -0.0 9.689568863830276e-13 1.0
  outer loop
    vertex 2.2678750260318734e-05 84.20004576140488 -9.290379576754047e-12
    vertex 23.0 90.19999999999621 -1.510374048052654e-11
    vertex 0.0 90.19999999999621 -1.510374048052654e-11
  endloop
endfacet
facet normal -0.0 9.689568863830276e-13 1.0
  outer loop
    vertex 23.0 90.19999999999621 -1.510374048052654e-11
    vertex 2.2678750260318734e-05 84.20004576140488 -9.290379576754047e-12
    vertex 0.6219112804887724 83.93038088680338 -9.016842827946903e-12
  endloop
endfacet
facet normal -0.0 9.689568863830276e-13 1.0
  outer loop
    vertex 23.0 90.19999999999621 -1.510374048052654e-11
    vertex 0.6219112804887724 83.93038088680338 -9.016842827946903e-12
    vertex 1.2245431454880316 83.62005941984752 -8.716516397555551e-12
  endloop
endfacet
facet normal -0.0 9.689568863830276e-13 1.0
  outer loop
    vertex 23.0 90.19999999999621 -1.510374048052654e-11
    vertex 1.2245431454880316 83.62005941984752 -8.716516397555551e-12
    vertex 1.805263891618478 83.27044821782472 -8.389400285579995e-12
  endloop
endfacet
facet normal -0.0 9.689568863830276e-13 1.0
  outer loop
    vertex 23.0 90.19999999999621 -1.510374048052654e-11
    vertex 1.805263891618478 83.27044821782472 -8.389400285579995e-12
    vertex 2.3615156475488317 82.88308719553348 -8.014344743401125e-12
  endloop
endfacet
facet normal -0.0 9.689568863830276e-13 1.0
  outer loop
    vertex 23.0 90.19999999999621 -1.510374048052654e-11
    vertex 2.3615156475488317 82.88308719553348 -8.014344743401125e-12
    vertex 2.8908483192727137 82.45968254249836 -7.604039620190405e-12
  endloop
endfacet
facet normal -0.0 9.689568863830276e-13 1.0
  outer loop
    vertex 23.0 90.19999999999621 -1.510374048052654e-11
    vertex 2.8908483192727137 82.45968254249836 -7.604039620190405e-12
    vertex 3.390930381913971 82.00209920780337 -7.1486150332589204e-12
  endloop
endfacet
facet normal -0.0 9.689568863830276e-13 1.0
  outer loop
    vertex 23.0 90.19999999999621 -1.510374048052654e-11
    vertex 3.390930381913971 82.00209920780337 -7.1486150332589204e-12
    vertex 3.859559149276447 81.51235268564477 -6.6861405301210646e-12
  endloop
endfacet
facet normal -0.0 9.689568863830276e-13 1.0
  outer loop
    vertex 23.0 90.19999999999621 -1.510374048052654e-11
    vertex 3.859559149276447 81.51235268564477 -6.6861405301210646e-12
    vertex 4.294670475904634 80.9926001377857 -6.1827765129862655e-12
  endloop
endfacet
facet normal -0.0 9.689568863830276e-13 1.0
  outer loop
    vertex 23.0 90.19999999999621 -1.510374048052654e-11
    vertex 4.294670475904634 80.9926001377857 -6.1827765129862655e-12
    vertex 4.694347848920836 80.44513089201477 -5.639932965095795e-12
  endloop
endfacet
facet normal -0.0 9.689568863830276e-13 1.0
  outer loop
    vertex 23.0 90.19999999999621 -1.510374048052654e-11
    vertex 4.694347848920836 80.44513089201477 -5.639932965095795e-12
    vertex 5.056830829592662 79.87235635845956 -5.097089417205325e-12
  endloop
endfacet
facet normal -0.0 9.689568863830276e-13 1.0
  outer loop
    vertex 23.0 90.19999999999621 -1.510374048052654e-11
    vertex 5.056830829592662 79.87235635845956 -5.097089417205325e-12
    vertex 5.380522807448521 79.27679940817026 -4.507716422352814e-12
  endloop
endfacet
facet normal -0.0 9.689568863830276e-13 1.0
  outer loop
    vertex 23.0 90.19999999999621 -1.510374048052654e-11
    vertex 5.380522807448521 79.27679940817026 -4.507716422352814e-12
    vertex 5.663998032787138 78.66108326075707 -3.9112935112939335e-12
  endloop
endfacet
facet normal -0.0 9.689568863830276e-13 1.0
  outer loop
    vertex 23.0 90.19999999999621 -1.510374048052654e-11
    vertex 5.663998032787138 78.66108326075707 -3.9112935112939335e-12
    vertex 5.906007896605214 78.02791993002725 -3.297950801339766e-12
  endloop
endfacet
facet normal -0.0 9.689568863830276e-13 1.0
  outer loop
    vertex 23.0 90.19999999999621 -1.510374048052654e-11
    vertex 5.906007896605214 78.02791993002725 -3.297950801339766e-12
    vertex 6.1054864302824186 77.38009827851495 -2.670508258972859e-12
  endloop
endfacet
facet normal -0.0 9.689568863830276e-13 1.0
  outer loop
    vertex 23.0 90.19999999999621 -1.510374048052654e-11
    vertex 6.1054864302824186 77.38009827851495 -2.670508258972859e-12
    vertex 6.261555000799532 76.72047173351933 -2.0430657166059517e-12
  endloop
endfacet
facet normal -0.0 9.689568863830276e-13 1.0
  outer loop
    vertex 23.0 90.19999999999621 -1.510374048052654e-11
    vertex 6.261555000799532 76.72047173351933 -2.0430657166059517e-12
    vertex 6.373526180808902 76.05194571875742 -1.3831935596897437e-12
  endloop
endfacet
facet normal -0.0 9.689568863830276e-13 1.0
  outer loop
    vertex 23.0 90.19999999999621 -1.510374048052654e-11
    vertex 6.373526180808902 76.05194571875742 -1.3831935596897437e-12
    vertex 6.440906776510952 75.37746485699115 -7.416511849100971e-13
  endloop
endfacet
facet normal -0.0 9.689568863830276e-13 1.0
  outer loop
    vertex 23.0 90.19999999999621 -1.510374048052654e-11
    vertex 6.440906776510952 75.37746485699115 -7.416511849100971e-13
    vertex 6.4634 74.69999999999621 -7.331912854624534e-14
  endloop
endfacet
facet normal -0.0 9.689568863830276e-13 1.0
  outer loop
    vertex 23.0 90.19999999999621 -1.510374048052654e-11
    vertex 6.4634 74.69999999999621 -7.331912854624534e-14
    vertex 14.000000405226361 78.19931533716114 0.0005845420066280282
  endloop
endfacet
facet normal -0.0 9.689568863830276e-13 1.0
  outer loop
    vertex 14.000000405226361 78.19931533716114 0.0005845420066280282
    vertex 6.4634 74.69999999999621 -7.331912854624534e-14
    vertex 14.000000405226361 71.19931533716115 0.0005845420133987677
  endloop
endfacet
facet normal -0.0 9.689568863830276e-13 1.0
  outer loop
    vertex 23.0 90.19999999999621 -1.510374048052654e-11
    vertex 14.000000405226361 78.19931533716114 0.0005845420066280282
    vertex 16.999999999999996 78.19999999999621 -3.464328823810092e-12
  endloop
endfacet
facet normal -0.0 9.689568863830276e-13 1.0
  outer loop
    vertex 23.0 90.19999999999621 -1.510374048052654e-11
    vertex 16.999999999999996 78.19999999999621 -3.464328823810092e-12
    vertex 23.0 77.44999999999621 -2.7381874545540083e-12
  endloop
endfacet
facet normal 0.9999995947736383 0.0006846628350627224 -0.0005845420100923568
  outer loop
    vertex 14.000000405226361 71.19931533716115 0.0005845420133987677
    vertex 14.000000405226361 72.19931533716236 1.2505845420124349
    vertex 14.000000405226361 71.19931533716841 7.5005845420133985
  endloop
endfacet
facet normal 0.9999995947736383 0.0006846628350627224 -0.0005845420100923568
  outer loop
    vertex 14.000000405226361 72.19931533716236 1.2505845420124349
    vertex 14.000000405226361 71.19931533716115 0.0005845420133987677
    vertex 14.000000405226361 78.19931533716114 0.0005845420066280282
  endloop
endfacet
facet normal 0.9999995947736383 0.0006846628350627224 -0.0005845420100923568
  outer loop
    vertex 14.000000405226361 72.19931533716236 1.2505845420124349
    vertex 14.000000405226361 78.19931533716114 0.0005845420066280282
    vertex 13.976311061533623 77.19931533716235 1.25058454200759
  endloop
endfacet
facet normal 0.9999995947736383 0.0006846628350627224 -0.0005845420100923568
  outer loop
    vertex 13.976311061533623 77.19931533716235 1.25058454200759
    vertex 14.000000405226361 78.19931533716114 0.0005845420066280282
    vertex 13.976311061533623 77.19931533716539 4.375584542007603
  endloop
endfacet
facet normal 0.9999995947736383 0.0006846628350627224 -0.0005845420100923568
  outer loop
    vertex 13.976311061533623 77.19931533716539 4.375584542007603
    vertex 14.000000405226361 78.19931533716114 0.0005845420066280282
    vertex 14.000000405226361 77.1993153371684 7.500584542007598
  endloop
endfacet
facet normal 0.9999995947736383 0.0006846628350627224 -0.0005845420100923568
  outer loop
    vertex 14.000000405226361 77.1993153371684 7.500584542007598
    vertex 14.000000405226361 78.19931533716114 0.0005845420066280282
    vertex 14.000000405226361 78.1993153371684 7.500584542006628
  endloop
endfacet
facet normal 0.9999995947736383 0.0006846628350627224 -0.0005845420100923568
  outer loop
    vertex 14.000000405226361 72.19931533716236 1.2505845420124349
    vertex 14.000000405226361 72.19931533716841 7.50058454201244
    vertex 14.000000405226361 71.19931533716841 7.5005845420133985
  endloop
endfacet
facet normal 0.9999995947736383 0.0006846628350627224 -0.0005845420100923568
  outer loop
    vertex 14.000000405226361 72.19931533716841 7.50058454201244
    vertex 14.000000405226361 72.19931533716236 1.2505845420124349
    vertex 13.976311061533623 72.19931533716539 4.37558454201243
  endloop
endfacet
facet normal 0.9999945145376751 0.0010531639787218887 0.003140340776670802
  outer loop
    vertex 14.000000405226361 72.19931533716236 1.2505845420124349
    vertex 14.000081884540945 72.28415760232616 3.725661849948713
    vertex 13.976311061533623 72.19931533716539 4.37558454201243
  endloop
endfacet
facet normal 0.9999945145376751 0.0010531639787218887 0.003140340776670802
  outer loop
    vertex 14.000081884540945 72.28415760232616 3.725661849948713
    vertex 14.000000405226361 72.19931533716236 1.2505845420124349
    vertex 14.000081884540945 72.53390865858717 3.122709462704773
  endloop
endfacet
facet normal 0.9999945145376751 0.0010531639787218887 0.003140340776670802
  outer loop
    vertex 14.000081884540945 72.53390865858717 3.122709462704773
    vertex 14.000000405226361 72.19931533716236 1.2505845420124349
    vertex 14.000081884540945 72.93120521508139 2.604942509738021
  endloop
endfacet
facet normal 0.9999945145376751 0.0010531639787218887 0.003140340776670802
  outer loop
    vertex 14.000081884540945 72.93120521508139 2.604942509738021
    vertex 14.000000405226361 72.19931533716236 1.2505845420124349
    vertex 14.000081884540945 73.44897216804738 2.207645953242794
  endloop
endfacet
facet normal 0.9999945145376751 0.0010531639787218887 0.003140340776670802
  outer loop
    vertex 14.000081884540945 73.44897216804738 2.207645953242794
    vertex 14.000000405226361 72.19931533716236 1.2505845420124349
    vertex 14.000081884540945 74.05192455529082 1.9578948969806376
  endloop
endfacet
facet normal 0.9999945145376751 0.0010531639787218887 0.003140340776670802
  outer loop
    vertex 14.000081884540945 74.05192455529082 1.9578948969806376
    vertex 14.000000405226361 72.19931533716236 1.2505845420124349
    vertex 13.976311061533623 77.19931533716235 1.25058454200759
  endloop
endfacet
facet normal 0.9999945145376751 0.0010531639787218887 0.003140340776670802
  outer loop
    vertex 14.000081884540945 74.05192455529082 1.9578948969806376
    vertex 13.976311061533623 77.19931533716235 1.25058454200759
    vertex 14.000081884540945 74.69897216804705 1.872709462702684
  endloop
endfacet
facet normal 0.9999945145376751 0.0010531639787218887 0.003140340776670802
  outer loop
    vertex 14.000081884540945 74.69897216804705 1.872709462702684
    vertex 13.976311061533623 77.19931533716235 1.25058454200759
    vertex 14.000081884540945 75.34601978080343 1.9578948969793888
  endloop
endfacet
facet normal 0.9999945145376751 0.0010531639787218887 0.003140340776670802
  outer loop
    vertex 14.000081884540945 75.34601978080343 1.9578948969793888
    vertex 13.976311061533623 77.19931533716235 1.25058454200759
    vertex 14.000081884540945 75.94897216804738 2.2076459532403807
  endloop
endfacet
facet normal 0.9999945145376751 0.0010531639787218887 0.003140340776670802
  outer loop
    vertex 14.000081884540945 75.94897216804738 2.2076459532403807
    vertex 13.976311061533623 77.19931533716235 1.25058454200759
    vertex 14.000081884540945 76.46673912101411 2.6049425097346086
  endloop
endfacet
facet normal 0.9999945145376751 0.0010531639787218887 0.003140340776670802
  outer loop
    vertex 14.000081884540945 76.46673912101411 2.6049425097346086
    vertex 13.976311061533623 77.19931533716235 1.25058454200759
    vertex 14.000081884540945 76.86403567750935 3.122709462700594
  endloop
endfacet
facet normal 0.9999945145376751 0.0010531639787218887 0.003140340776670802
  outer loop
    vertex 14.000081884540945 76.86403567750935 3.122709462700594
    vertex 13.976311061533623 77.19931533716235 1.25058454200759
    vertex 14.000081884540945 77.1137867337715 3.7256618499440517
  endloop
endfacet
facet normal 0.9999945145376751 0.0010531639787218887 0.003140340776670802
  outer loop
    vertex 14.000081884540945 77.1137867337715 3.7256618499440517
    vertex 13.976311061533623 77.19931533716235 1.25058454200759
    vertex 13.976311061533623 77.19931533716539 4.375584542007603
  endloop
endfacet
facet normal 0.00012259753713331832 0.9915157247836123 0.12998673961859297
  outer loop
    vertex 6.168252930738875 72.28518543427717 3.7279523872459546
    vertex 13.976311061533623 72.19931533716539 4.37558454201243
    vertex 14.000081884540945 72.28415760232616 3.725661849948713
  endloop
endfacet
facet normal 0.00012259753713331832 0.9915157247836123 0.12998673961859297
  outer loop
    vertex 13.976311061533623 72.19931533716539 4.37558454201243
    vertex 6.168252930738875 72.28518543427717 3.7279523872459546
    vertex 6.148097936890606 72.20000000000047 4.375000000002339
  endloop
endfacet
endsolid sd_spacer
