solid HW5_BUILT
facet normal 0.007443937237520375 -0.9999722935153763 4.4917733813965115e-08
outer loop
vertex 251.53935575841516 7.955677585618691 -108.06314829621665
vertex 256.12425905115003 7.989807870036533 -113.06314839235422
vertex 256.1242592136554 7.989807434797986 -108.06314829621665
endloop
endfacet
facet normal 0.007443937237520375 -0.9999722935153763 4.4917733813965115e-08
outer loop
vertex 256.12425905115003 7.989807870036533 -113.06314839235422
vertex 251.53935575841516 7.955677585618691 -108.06314829621665
vertex 251.53935550207203 7.955676386118653 -113.0631484237618
endloop
endfacet
facet normal 0.9999722947769827 0.007443767759262645 4.050386505626326e-08
outer loop
vertex 256.09006016445153 12.584007017619435 -108.06314829621665
vertex 256.12425905115003 7.989807870036533 -113.06314839235422
vertex 256.090059859406 12.584005522637485 -113.06314854537834
endloop
endfacet
facet normal 0.9999722947769827 0.007443767759262645 4.050386505626326e-08
outer loop
vertex 256.12425905115003 7.989807870036533 -113.06314839235422
vertex 256.09006016445153 12.584007017619435 -108.06314829621665
vertex 256.1242592136554 7.989807434797986 -108.06314829621665
endloop
endfacet
facet normal -0.0074435633858059265 0.9999722962983114 -6.150038668010544e-08
outer loop
vertex 256.090059859406 12.584005522637485 -113.06314854537834
vertex 251.5051567092112 12.549877168440162 -108.06314844086813
vertex 256.09006016445153 12.584007017619435 -108.06314829621665
endloop
endfacet
facet normal -0.0074435633858059265 0.9999722962983114 -6.150038668010544e-08
outer loop
vertex 251.5051567092112 12.549877168440162 -108.06314844086813
vertex 256.090059859406 12.584005522637485 -113.06314854537834
vertex 253.7929600679954 12.566905998035502 -113.06314854537834
endloop
endfacet
facet normal -0.0074435633858059265 0.9999722962983114 -6.150038668010544e-08
outer loop
vertex 251.5051567092112 12.549877168440162 -108.06314844086813
vertex 253.7929600679954 12.566905998035502 -113.06314854537834
vertex 253.6787711914866 12.566057525424633 -113.06314850687393
endloop
endfacet
facet normal -0.0074435633858059265 0.9999722962983114 -6.150038668010544e-08
outer loop
vertex 251.5051567092112 12.549877168440162 -108.06314844086813
vertex 253.6787711914866 12.566057525424633 -113.06314850687393
vertex 251.50515720985578 12.549877412766783 -113.06314862152716
endloop
endfacet
facet normal 0.39399502037561523 -0.919112574127467 1.315243540518427e-19
outer loop
vertex 253.17966785760441 11.74038781702246 -108.06314829621665
vertex 253.58176173426122 11.853436530338247 -113.06314835969965
vertex 253.5817620867013 11.85343648055689 -108.06314829621665
endloop
endfacet
facet normal 0.1426861374596005 -0.989767986033525 1.0001925870340314e-16
outer loop
vertex 253.58176173426122 11.853436530338247 -113.06314835969965
vertex 253.17966785760441 11.74038781702246 -108.06314829621665
vertex 253.1796675051645 11.740387866803815 -113.06314835969965
endloop
endfacet
facet normal 0.6184538051469556 -0.785821157070266 -2.5557649955332147e-30
outer loop
vertex 252.82053380426396 11.52712154887093 -108.06314829621665
vertex 253.1796675051645 11.740387866803815 -113.06314835969965
vertex 253.17966785760441 11.74038781702246 -108.06314829621665
endloop
endfacet
facet normal 0.3939950296724399 -0.919112570142207 1.3152434394668759e-19
outer loop
vertex 253.1796675051645 11.740387866803815 -113.06314835969965
vertex 252.82053380426396 11.52712154887093 -108.06314829621665
vertex 252.82053345182402 11.527121598652284 -113.06314835969965
endloop
endfacet
facet normal 0.6184538051469556 -0.785821157070266 -2.5557649955332147e-30
outer loop
vertex 252.82053380426396 11.52712154887093 -108.06314829621665
vertex 252.52883396647832 11.228171469619065 -113.06314835969965
vertex 252.82053345182402 11.527121598652284 -113.06314835969965
endloop
endfacet
facet normal 0.8007659884075358 -0.5989773216155203 2.1675015876793302e-19
outer loop
vertex 252.52883396647832 11.228171469619065 -113.06314835969965
vertex 252.82053380426396 11.52712154887093 -108.06314829621665
vertex 252.52883431891817 11.22817141983771 -108.06314829621665
endloop
endfacet
facet normal 0.8007659849983231 -0.5989773261732579 2.167501493971904e-19
outer loop
vertex 252.52883431891817 11.22817141983771 -108.06314829621665
vertex 252.324447886997 10.863910436959392 -113.06314835969965
vertex 252.52883396647832 11.228171469619065 -113.06314835969965
endloop
endfacet
facet normal 0.928507286900945 -0.37131417717594145 2.1675015176910476e-19
outer loop
vertex 252.324447886997 10.863910436959392 -113.06314835969965
vertex 252.52883431891817 11.22817141983771 -108.06314829621665
vertex 252.32444823943717 10.863910387178036 -108.06314829621665
endloop
endfacet
facet normal 0.9285072858562877 -0.37131417978820863 2.1675015640104117e-19
outer loop
vertex 252.32444823943717 10.863910387178036 -108.06314829621665
vertex 252.22130378693342 10.4591622880791 -113.06314835969965
vertex 252.324447886997 10.863910436959392 -113.06314835969965
endloop
endfacet
facet normal 0.9929723489032565 -0.11834658555932134 -1.364255718403039e-16
outer loop
vertex 252.22130378693342 10.4591622880791 -113.06314835969965
vertex 252.32444823943717 10.863910387178036 -108.06314829621665
vertex 252.22130413937327 10.459162238297747 -108.06314829621665
endloop
endfacet
facet normal 0.992972347697368 -0.11834659567717846 -1.3642556128141867e-16
outer loop
vertex 252.22130413937327 10.459162238297747 -108.06314829621665
vertex 252.22643076625266 10.041509940446531 -113.06314835969965
vertex 252.22130378693342 10.4591622880791 -113.06314835969965
endloop
endfacet
facet normal 0.9897679870799619 0.14268613020080292 -1.3642557368787167e-16
outer loop
vertex 252.22643076625266 10.041509940446531 -113.06314835969965
vertex 252.22130413937327 10.459162238297747 -108.06314829621665
vertex 252.22377355558442 10.257999445634026 -108.0631483463649
endloop
endfacet
facet normal 0.9897679852227921 0.1426861430833945 -1.3642556020021457e-16
outer loop
vertex 252.22643111869283 10.041509890665179 -108.06314829621665
vertex 252.22643076625266 10.041509940446531 -113.06314835969965
vertex 252.22377355558442 10.257999445634026 -108.0631483463649
endloop
endfacet
facet normal 0.9897679852227921 0.1426861430833945 -1.3642556020021457e-16
outer loop
vertex 252.22643111869283 10.041509890665179 -108.06314829621665
vertex 252.33947942978716 9.639415711349573 -113.06314835969965
vertex 252.22643076625266 10.041509940446531 -113.06314835969965
endloop
endfacet
facet normal 0.9191125733436508 0.3939950222041039 0.0
outer loop
vertex 252.33947942978716 9.639415711349573 -113.06314835969965
vertex 252.22643111869283 10.041509890665179 -108.06314829621665
vertex 252.33947978222722 9.639415661568218 -108.06314829621665
endloop
endfacet
facet normal 0.9191125709259987 0.3939950278440088 0.0
outer loop
vertex 252.33947978222722 9.639415661568218 -108.06314829621665
vertex 252.55274569793855 9.280281658009221 -113.06314835969965
vertex 252.33947942978716 9.639415711349573 -113.06314835969965
endloop
endfacet
facet normal 0.7858211571825137 0.6184538050043311 1.9416390026016246e-30
outer loop
vertex 252.55274569793855 9.280281658009221 -113.06314835969965
vertex 252.33947978222722 9.639415661568218 -108.06314829621665
vertex 252.55274605037866 9.280281608227865 -108.06314829621665
endloop
endfacet
facet normal 0.5989773280470201 0.8007659835967388 1.9416391420959118e-30
outer loop
vertex 252.85169582697193 8.988582172663405 -113.06314835969965
vertex 252.7022211148953 9.134431865554937 -108.06314829621665
vertex 252.85169617941196 8.988582122882052 -108.06314829621665
endloop
endfacet
facet normal 0.6983739249582018 0.71573309336545 3.850056148491781e-30
outer loop
vertex 252.7022211148953 9.134431865554937 -108.06314829621665
vertex 252.85169582697193 8.988582172663405 -113.06314835969965
vertex 252.55274569793855 9.280281658009221 -113.06314835969965
endloop
endfacet
facet normal 0.6983739249582018 0.71573309336545 3.850056148491781e-30
outer loop
vertex 252.7022211148953 9.134431865554937 -108.06314829621665
vertex 252.55274569793855 9.280281658009221 -113.06314835969965
vertex 252.55274605037866 9.280281608227865 -108.06314829621665
endloop
endfacet
facet normal 0.37131418381699144 0.9285072842451596 3.6825840264251668e-19
outer loop
vertex 253.2159568596315 8.78419609318232 -113.06314835969965
vertex 252.85169617941196 8.988582122882052 -108.06314829621665
vertex 253.21595721207157 8.78419604340097 -108.06314829621665
endloop
endfacet
facet normal 0.5989773197417544 0.8007659898091227 1.941638989132586e-30
outer loop
vertex 252.85169617941196 8.988582122882052 -108.06314829621665
vertex 253.2159568596315 8.78419609318232 -113.06314835969965
vertex 252.85169582697193 8.988582172663405 -113.06314835969965
endloop
endfacet
facet normal 0.11834659130432729 0.9929723482185426 1.0025599260589727e-16
outer loop
vertex 253.62070500851186 8.681051993118585 -113.06314835969965
vertex 253.21595721207157 8.78419604340097 -108.06314829621665
vertex 253.62070536095175 8.681051943337234 -108.06314829621665
endloop
endfacet
facet normal 0.37131417314716764 0.9285072885120694 3.6825843478619043e-19
outer loop
vertex 253.21595721207157 8.78419604340097 -108.06314829621665
vertex 253.62070500851186 8.681051993118585 -113.06314835969965
vertex 253.2159568596315 8.78419609318232 -113.06314835969965
endloop
endfacet
facet normal -0.14268612621729815 0.9897679876542287 9.988774296669319e-17
outer loop
vertex 254.03835735614456 8.686178972437904 -113.06314835969965
vertex 253.8218681536156 8.683521359548196 -108.06314829621665
vertex 254.03835770858439 8.686178922656552 -108.06314829621665
endloop
endfacet
facet normal -0.012274785696551747 0.9999246619801434 1.9806637041288442e-16
outer loop
vertex 253.8218681536156 8.683521359548196 -108.06314829621665
vertex 254.03835735614456 8.686178972437904 -113.06314835969965
vertex 253.62070500851186 8.681051993118585 -113.06314835969965
endloop
endfacet
facet normal -0.012274785696551747 0.9999246619801434 1.9806637041288442e-16
outer loop
vertex 253.8218681536156 8.683521359548196 -108.06314829621665
vertex 253.62070500851186 8.681051993118585 -113.06314835969965
vertex 253.62070536095175 8.681051943337234 -108.06314829621665
endloop
endfacet
facet normal -0.3939950203756175 0.9191125741274663 -3.961439894088962e-30
outer loop
vertex 254.44045158524142 8.79922763597234 -113.06314835969965
vertex 254.03835770858439 8.686178922656552 -108.06314829621665
vertex 254.44045193768136 8.799227586190987 -108.06314829621665
endloop
endfacet
facet normal -0.14268613745959347 0.9897679860335261 9.988773434872941e-17
outer loop
vertex 254.03835770858439 8.686178922656552 -108.06314829621665
vertex 254.44045158524142 8.79922763597234 -113.06314835969965
vertex 254.03835735614456 8.686178972437904 -113.06314835969965
endloop
endfacet
facet normal -0.6184538051469664 0.7858211570702575 -3.658702202189121e-30
outer loop
vertex 254.79958563858162 9.012493904123842 -113.06314835969965
vertex 254.44045193768136 8.799227586190987 -108.06314829621665
vertex 254.79958599102181 9.01249385434249 -108.06314829621665
endloop
endfacet
facet normal -0.3939950296724433 0.9191125701422055 -3.9614396600726215e-30
outer loop
vertex 254.44045193768136 8.799227586190987 -108.06314829621665
vertex 254.79958563858162 9.012493904123842 -113.06314835969965
vertex 254.44045158524142 8.79922763597234 -113.06314835969965
endloop
endfacet
facet normal -0.6184538115766873 0.7858211520099643 -3.6587023726731904e-30
outer loop
vertex 254.79958599102181 9.01249385434249 -108.06314829621665
vertex 255.0912851239277 9.31144403315709 -113.06314835969965
vertex 254.79958563858162 9.012493904123842 -113.06314835969965
endloop
endfacet
facet normal -0.8007659849983216 0.59897732617326 -3.2009102277337064e-30
outer loop
vertex 255.0912851239277 9.31144403315709 -113.06314835969965
vertex 254.79958599102181 9.01249385434249 -108.06314829621665
vertex 255.0912854763676 9.311443983375735 -108.06314829621665
endloop
endfacet
facet normal -0.8007659884075348 0.5989773216155218 -3.200910089348982e-30
outer loop
vertex 255.0912854763676 9.311443983375735 -108.06314829621665
vertex 255.29567120340877 9.675705065816782 -113.06314835969965
vertex 255.0912851239277 9.31144403315709 -113.06314835969965
endloop
endfacet
facet normal -0.9285072858562838 0.37131417978821823 -4.4884647475536026e-32
outer loop
vertex 255.29567120340877 9.675705065816782 -113.06314835969965
vertex 255.0912854763676 9.311443983375735 -108.06314829621665
vertex 255.29567155584868 9.67570501603543 -108.06314829621665
endloop
endfacet
facet normal -0.9285072869009401 0.3713141771759536 -4.4884648434717035e-32
outer loop
vertex 255.29567155584868 9.67570501603543 -108.06314829621665
vertex 255.3988153034724 10.080453214697052 -113.06314835969965
vertex 255.29567120340877 9.675705065816782 -113.06314835969965
endloop
endfacet
facet normal -0.9929723489336296 0.11834658530447777 2.30327458682559e-17
outer loop
vertex 255.3988153034724 10.080453214697052 -113.06314835969965
vertex 255.29567155584868 9.67570501603543 -108.06314829621665
vertex 255.39881565591244 10.0804531649157 -108.06314829621665
endloop
endfacet
facet normal -0.9929723489032564 0.1183465855593209 2.303274582335528e-17
outer loop
vertex 255.39881565591244 10.0804531649157 -108.06314829621665
vertex 255.39368832415312 10.498105562329622 -113.06314835969965
vertex 255.3988153034724 10.080453214697052 -113.06314835969965
endloop
endfacet
facet normal -0.989767986607784 -0.14268613347615017 2.3032745556331067e-17
outer loop
vertex 255.39368832415312 10.498105562329622 -113.06314835969965
vertex 255.39881565591244 10.0804531649157 -108.06314829621665
vertex 255.393688676593 10.498105512548273 -108.06314829621665
endloop
endfacet
facet normal -0.9897679870799617 -0.14268613020080376 2.3032746135280254e-17
outer loop
vertex 255.393688676593 10.498105512548273 -108.06314829621665
vertex 255.39881565591244 10.0804531649157 -108.06314829621665
vertex 255.39634623970147 10.281615957579422 -108.06314829621665
endloop
endfacet
facet normal -0.9897679870799617 -0.14268613020080376 2.3032746135280254e-17
outer loop
vertex 255.393688676593 10.498105512548273 -108.06314829621665
vertex 255.28063966061862 10.900199791426557 -113.06314835969965
vertex 255.39368832415312 10.498105562329622 -113.06314835969965
endloop
endfacet
facet normal -0.9191125709259989 -0.39399502784400847 0.0
outer loop
vertex 255.28063966061862 10.900199791426557 -113.06314835969965
vertex 255.393688676593 10.498105512548273 -108.06314829621665
vertex 255.28064001305856 10.900199741645205 -108.06314829621665
endloop
endfacet
facet normal -0.9191125733436506 -0.39399502220410415 0.0
outer loop
vertex 255.28064001305856 10.900199741645205 -108.06314829621665
vertex 255.06737339246718 11.259333844766934 -113.06314835969965
vertex 255.28063966061862 10.900199791426557 -113.06314835969965
endloop
endfacet
facet normal -0.7858211518977525 -0.618453811719266 1.9416391286268475e-30
outer loop
vertex 255.06737339246718 11.259333844766934 -113.06314835969965
vertex 255.28064001305856 10.900199741645205 -108.06314829621665
vertex 255.06737374490712 11.259333794985578 -108.06314829621665
endloop
endfacet
facet normal -0.5989773280470192 -0.8007659835967396 1.941639142095894e-30
outer loop
vertex 254.76842361587393 11.551033280331417 -108.06314829621665
vertex 255.06737339246718 11.259333844766934 -113.06314835969965
vertex 255.06737374490712 11.259333794985578 -108.06314829621665
endloop
endfacet
facet normal -0.7858211518977525 -0.618453811719266 1.9416391286268475e-30
outer loop
vertex 255.06737339246718 11.259333844766934 -113.06314835969965
vertex 254.76842361587393 11.551033280331417 -108.06314829621665
vertex 254.768423263434 11.551033330112762 -113.06314835969965
endloop
endfacet
facet normal -0.37131418381698894 -0.9285072842451605 3.682584026425245e-19
outer loop
vertex 254.4041625832141 11.755419359812501 -108.06314829621665
vertex 254.768423263434 11.551033330112762 -113.06314835969965
vertex 254.76842361587393 11.551033280331417 -108.06314829621665
endloop
endfacet
facet normal -0.5989773197417553 -0.8007659898091222 1.9416389891326044e-30
outer loop
vertex 254.768423263434 11.551033330112762 -113.06314835969965
vertex 254.4041625832141 11.755419359812501 -108.06314829621665
vertex 254.40416223077423 11.755419409593856 -113.06314835969965
endloop
endfacet
facet normal -0.11834659130432948 -0.9929723482185424 1.0025599260589559e-16
outer loop
vertex 253.99941443433403 11.858563459876212 -108.06314829621665
vertex 254.40416223077423 11.755419409593856 -113.06314835969965
vertex 254.4041625832141 11.755419359812501 -108.06314829621665
endloop
endfacet
facet normal -0.3713141731471703 -0.9285072885120684 3.682584347861828e-19
outer loop
vertex 254.40416223077423 11.755419409593856 -113.06314835969965
vertex 253.99941443433403 11.858563459876212 -108.06314829621665
vertex 253.99941408189392 11.858563509657564 -113.06314835969965
endloop
endfacet
facet normal 0.012274785696551747 -0.9999246619801434 1.9806637041288442e-16
outer loop
vertex 253.79825164167008 11.856094043665225 -108.06314829621665
vertex 253.99941408189392 11.858563509657564 -113.06314835969965
vertex 253.99941443433403 11.858563459876212 -108.06314829621665
endloop
endfacet
facet normal -0.11834657955947561 -0.9929723496183429 1.0025600154696483e-16
outer loop
vertex 253.99941408189392 11.858563509657564 -113.06314835969965
vertex 253.79825164167008 11.856094043665225 -108.06314829621665
vertex 253.58176173426122 11.853436530338247 -113.06314835969965
endloop
endfacet
facet normal 0.1426861374596005 -0.989767986033525 1.0001925870340314e-16
outer loop
vertex 253.58176173426122 11.853436530338247 -113.06314835969965
vertex 253.79825164167008 11.856094043665225 -108.06314829621665
vertex 253.5817620867013 11.85343648055689 -108.06314829621665
endloop
endfacet
facet normal 1.7260925824138068e-08 -2.6974026959562236e-08 -0.9999999999999996
outer loop
vertex 251.53935550207203 7.955676386118653 -113.0631484237618
vertex 253.2159568596315 8.78419609318232 -113.06314835969965
vertex 256.12425905115003 7.989807870036533 -113.06314839235422
endloop
endfacet
facet normal 1.7260925824138068e-08 -2.6974026959562236e-08 -0.9999999999999996
outer loop
vertex 253.2159568596315 8.78419609318232 -113.06314835969965
vertex 251.53935550207203 7.955676386118653 -113.0631484237618
vertex 252.85169582697193 8.988582172663405 -113.06314835969965
endloop
endfacet
facet normal 1.7260925824138068e-08 -2.6974026959562236e-08 -0.9999999999999996
outer loop
vertex 252.85169582697193 8.988582172663405 -113.06314835969965
vertex 251.53935550207203 7.955676386118653 -113.0631484237618
vertex 252.55274569793855 9.280281658009221 -113.06314835969965
endloop
endfacet
facet normal 1.7260925824138068e-08 -2.6974026959562236e-08 -0.9999999999999996
outer loop
vertex 252.55274569793855 9.280281658009221 -113.06314835969965
vertex 251.53935550207203 7.955676386118653 -113.0631484237618
vertex 252.33947942978716 9.639415711349573 -113.06314835969965
endloop
endfacet
facet normal 1.7260925824138068e-08 -2.6974026959562236e-08 -0.9999999999999996
outer loop
vertex 252.33947942978716 9.639415711349573 -113.06314835969965
vertex 251.53935550207203 7.955676386118653 -113.0631484237618
vertex 251.50515720985578 12.549877412766783 -113.06314862152716
endloop
endfacet
facet normal 1.7260925824138068e-08 -2.6974026959562236e-08 -0.9999999999999996
outer loop
vertex 256.12425905115003 7.989807870036533 -113.06314839235422
vertex 253.2159568596315 8.78419609318232 -113.06314835969965
vertex 253.62070500851186 8.681051993118585 -113.06314835969965
endloop
endfacet
facet normal 1.7260925824138068e-08 -2.6974026959562236e-08 -0.9999999999999996
outer loop
vertex 252.33947942978716 9.639415711349573 -113.06314835969965
vertex 251.50515720985578 12.549877412766783 -113.06314862152716
vertex 252.22643076625266 10.041509940446531 -113.06314835969965
endloop
endfacet
facet normal 1.7260925824138068e-08 -2.6974026959562236e-08 -0.9999999999999996
outer loop
vertex 252.22643076625266 10.041509940446531 -113.06314835969965
vertex 251.50515720985578 12.549877412766783 -113.06314862152716
vertex 252.22130378693342 10.4591622880791 -113.06314835969965
endloop
endfacet
facet normal 1.7260925824138068e-08 -2.6974026959562236e-08 -0.9999999999999996
outer loop
vertex 252.22130378693342 10.4591622880791 -113.06314835969965
vertex 251.50515720985578 12.549877412766783 -113.06314862152716
vertex 252.324447886997 10.863910436959392 -113.06314835969965
endloop
endfacet
facet normal 1.7260925824138068e-08 -2.6974026959562236e-08 -0.9999999999999996
outer loop
vertex 252.324447886997 10.863910436959392 -113.06314835969965
vertex 251.50515720985578 12.549877412766783 -113.06314862152716
vertex 252.52883396647832 11.228171469619065 -113.06314835969965
endloop
endfacet
facet normal 1.7260925824138068e-08 -2.6974026959562236e-08 -0.9999999999999996
outer loop
vertex 252.52883396647832 11.228171469619065 -113.06314835969965
vertex 251.50515720985578 12.549877412766783 -113.06314862152716
vertex 252.82053345182402 11.527121598652284 -113.06314835969965
endloop
endfacet
facet normal 1.7260925824138068e-08 -2.6974026959562236e-08 -0.9999999999999996
outer loop
vertex 252.82053345182402 11.527121598652284 -113.06314835969965
vertex 251.50515720985578 12.549877412766783 -113.06314862152716
vertex 253.1796675051645 11.740387866803815 -113.06314835969965
endloop
endfacet
facet normal 1.7260925824138068e-08 -2.6974026959562236e-08 -0.9999999999999996
outer loop
vertex 253.1796675051645 11.740387866803815 -113.06314835969965
vertex 251.50515720985578 12.549877412766783 -113.06314862152716
vertex 253.58176173426122 11.853436530338247 -113.06314835969965
endloop
endfacet
facet normal 1.7260925824138068e-08 -2.6974026959562236e-08 -0.9999999999999996
outer loop
vertex 253.58176173426122 11.853436530338247 -113.06314835969965
vertex 251.50515720985578 12.549877412766783 -113.06314862152716
vertex 253.99941408189392 11.858563509657564 -113.06314835969965
endloop
endfacet
facet normal 1.7260925824138068e-08 -2.6974026959562236e-08 -0.9999999999999996
outer loop
vertex 253.99941408189392 11.858563509657564 -113.06314835969965
vertex 251.50515720985578 12.549877412766783 -113.06314862152716
vertex 253.7929600679954 12.566905998035502 -113.06314854537834
endloop
endfacet
facet normal 1.7260925824138068e-08 -2.6974026959562236e-08 -0.9999999999999996
outer loop
vertex 253.7929600679954 12.566905998035502 -113.06314854537834
vertex 251.50515720985578 12.549877412766783 -113.06314862152716
vertex 253.6787711914866 12.566057525424633 -113.06314850687393
endloop
endfacet
facet normal 1.7260925824138068e-08 -2.6974026959562236e-08 -0.9999999999999996
outer loop
vertex 256.12425905115003 7.989807870036533 -113.06314839235422
vertex 255.29567120340877 9.675705065816782 -113.06314835969965
vertex 256.090059859406 12.584005522637485 -113.06314854537834
endloop
endfacet
facet normal 1.7260925824138068e-08 -2.6974026959562236e-08 -0.9999999999999996
outer loop
vertex 255.29567120340877 9.675705065816782 -113.06314835969965
vertex 256.12425905115003 7.989807870036533 -113.06314839235422
vertex 255.0912851239277 9.31144403315709 -113.06314835969965
endloop
endfacet
facet normal 1.7260925824138068e-08 -2.6974026959562236e-08 -0.9999999999999996
outer loop
vertex 255.0912851239277 9.31144403315709 -113.06314835969965
vertex 256.12425905115003 7.989807870036533 -113.06314839235422
vertex 254.79958563858162 9.012493904123842 -113.06314835969965
endloop
endfacet
facet normal 1.7260925824138068e-08 -2.6974026959562236e-08 -0.9999999999999996
outer loop
vertex 254.79958563858162 9.012493904123842 -113.06314835969965
vertex 256.12425905115003 7.989807870036533 -113.06314839235422
vertex 254.44045158524142 8.79922763597234 -113.06314835969965
endloop
endfacet
facet normal 1.7260925824138068e-08 -2.6974026959562236e-08 -0.9999999999999996
outer loop
vertex 254.44045158524142 8.79922763597234 -113.06314835969965
vertex 256.12425905115003 7.989807870036533 -113.06314839235422
vertex 254.03835735614456 8.686178972437904 -113.06314835969965
endloop
endfacet
facet normal 1.7260925824138068e-08 -2.6974026959562236e-08 -0.9999999999999996
outer loop
vertex 254.03835735614456 8.686178972437904 -113.06314835969965
vertex 256.12425905115003 7.989807870036533 -113.06314839235422
vertex 253.62070500851186 8.681051993118585 -113.06314835969965
endloop
endfacet
facet normal 1.7260925824138068e-08 -2.6974026959562236e-08 -0.9999999999999996
outer loop
vertex 256.090059859406 12.584005522637485 -113.06314854537834
vertex 255.29567120340877 9.675705065816782 -113.06314835969965
vertex 255.3988153034724 10.080453214697052 -113.06314835969965
endloop
endfacet
facet normal 1.7260925824138068e-08 -2.6974026959562236e-08 -0.9999999999999996
outer loop
vertex 256.090059859406 12.584005522637485 -113.06314854537834
vertex 255.3988153034724 10.080453214697052 -113.06314835969965
vertex 255.39368832415312 10.498105562329622 -113.06314835969965
endloop
endfacet
facet normal 1.7260925824138068e-08 -2.6974026959562236e-08 -0.9999999999999996
outer loop
vertex 256.090059859406 12.584005522637485 -113.06314854537834
vertex 255.39368832415312 10.498105562329622 -113.06314835969965
vertex 255.28063966061862 10.900199791426557 -113.06314835969965
endloop
endfacet
facet normal 1.7260925824138068e-08 -2.6974026959562236e-08 -0.9999999999999996
outer loop
vertex 256.090059859406 12.584005522637485 -113.06314854537834
vertex 255.28063966061862 10.900199791426557 -113.06314835969965
vertex 255.06737339246718 11.259333844766934 -113.06314835969965
endloop
endfacet
facet normal 1.7260925824138068e-08 -2.6974026959562236e-08 -0.9999999999999996
outer loop
vertex 256.090059859406 12.584005522637485 -113.06314854537834
vertex 255.06737339246718 11.259333844766934 -113.06314835969965
vertex 254.768423263434 11.551033330112762 -113.06314835969965
endloop
endfacet
facet normal 1.7260925824138068e-08 -2.6974026959562236e-08 -0.9999999999999996
outer loop
vertex 256.090059859406 12.584005522637485 -113.06314854537834
vertex 254.768423263434 11.551033330112762 -113.06314835969965
vertex 254.40416223077423 11.755419409593856 -113.06314835969965
endloop
endfacet
facet normal 1.7260925824138068e-08 -2.6974026959562236e-08 -0.9999999999999996
outer loop
vertex 256.090059859406 12.584005522637485 -113.06314854537834
vertex 254.40416223077423 11.755419409593856 -113.06314835969965
vertex 253.99941408189392 11.858563509657564 -113.06314835969965
endloop
endfacet
facet normal 1.7260925824138068e-08 -2.6974026959562236e-08 -0.9999999999999996
outer loop
vertex 256.090059859406 12.584005522637485 -113.06314854537834
vertex 253.99941408189392 11.858563509657564 -113.06314835969965
vertex 253.7929600679954 12.566905998035502 -113.06314854537834
endloop
endfacet
facet normal -5.1163437279054114e-08 7.226721092181423e-09 0.9999999999999987
outer loop
vertex 256.1242592136554 7.989807434797986 -108.06314829621665
vertex 253.8218681536156 8.683521359548196 -108.06314829621665
vertex 253.62070536095175 8.681051943337234 -108.06314829621665
endloop
endfacet
facet normal -5.1163437279054114e-08 7.226721092181423e-09 0.9999999999999987
outer loop
vertex 253.8218681536156 8.683521359548196 -108.06314829621665
vertex 256.1242592136554 7.989807434797986 -108.06314829621665
vertex 254.03835770858439 8.686178922656552 -108.06314829621665
endloop
endfacet
facet normal -5.1163437279054114e-08 7.226721092181423e-09 0.9999999999999987
outer loop
vertex 254.03835770858439 8.686178922656552 -108.06314829621665
vertex 256.1242592136554 7.989807434797986 -108.06314829621665
vertex 254.44045193768136 8.799227586190987 -108.06314829621665
endloop
endfacet
facet normal -5.1163437279054114e-08 7.226721092181423e-09 0.9999999999999987
outer loop
vertex 254.44045193768136 8.799227586190987 -108.06314829621665
vertex 256.1242592136554 7.989807434797986 -108.06314829621665
vertex 254.79958599102181 9.01249385434249 -108.06314829621665
endloop
endfacet
facet normal -5.1163437279054114e-08 7.226721092181423e-09 0.9999999999999987
outer loop
vertex 254.79958599102181 9.01249385434249 -108.06314829621665
vertex 256.1242592136554 7.989807434797986 -108.06314829621665
vertex 255.0912854763676 9.311443983375735 -108.06314829621665
endloop
endfacet
facet normal -5.1163437279054114e-08 7.226721092181423e-09 0.9999999999999987
outer loop
vertex 255.0912854763676 9.311443983375735 -108.06314829621665
vertex 256.1242592136554 7.989807434797986 -108.06314829621665
vertex 255.29567155584868 9.67570501603543 -108.06314829621665
endloop
endfacet
facet normal -5.1163437279054114e-08 7.226721092181423e-09 0.9999999999999987
outer loop
vertex 255.29567155584868 9.67570501603543 -108.06314829621665
vertex 256.1242592136554 7.989807434797986 -108.06314829621665
vertex 256.09006016445153 12.584007017619435 -108.06314829621665
endloop
endfacet
facet normal -5.1163437279054114e-08 7.226721092181423e-09 0.9999999999999987
outer loop
vertex 255.29567155584868 9.67570501603543 -108.06314829621665
vertex 256.09006016445153 12.584007017619435 -108.06314829621665
vertex 255.39881565591244 10.0804531649157 -108.06314829621665
endloop
endfacet
facet normal -5.1163437279054114e-08 7.226721092181423e-09 0.9999999999999987
outer loop
vertex 255.39881565591244 10.0804531649157 -108.06314829621665
vertex 256.09006016445153 12.584007017619435 -108.06314829621665
vertex 255.39634623970147 10.281615957579422 -108.06314829621665
endloop
endfacet
facet normal -5.1163437279054114e-08 7.226721092181423e-09 0.9999999999999987
outer loop
vertex 255.39634623970147 10.281615957579422 -108.06314829621665
vertex 256.09006016445153 12.584007017619435 -108.06314829621665
vertex 255.393688676593 10.498105512548273 -108.06314829621665
endloop
endfacet
facet normal -5.1163437279054114e-08 7.226721092181423e-09 0.9999999999999987
outer loop
vertex 255.393688676593 10.498105512548273 -108.06314829621665
vertex 256.09006016445153 12.584007017619435 -108.06314829621665
vertex 255.28064001305856 10.900199741645205 -108.06314829621665
endloop
endfacet
facet normal -5.1163437279054114e-08 7.226721092181423e-09 0.9999999999999987
outer loop
vertex 255.28064001305856 10.900199741645205 -108.06314829621665
vertex 256.09006016445153 12.584007017619435 -108.06314829621665
vertex 255.06737374490712 11.259333794985578 -108.06314829621665
endloop
endfacet
facet normal -5.1163437279054114e-08 7.226721092181423e-09 0.9999999999999987
outer loop
vertex 255.06737374490712 11.259333794985578 -108.06314829621665
vertex 256.09006016445153 12.584007017619435 -108.06314829621665
vertex 254.76842361587393 11.551033280331417 -108.06314829621665
endloop
endfacet
facet normal -5.1163437279054114e-08 7.226721092181423e-09 0.9999999999999987
outer loop
vertex 254.76842361587393 11.551033280331417 -108.06314829621665
vertex 256.09006016445153 12.584007017619435 -108.06314829621665
vertex 254.4041625832141 11.755419359812501 -108.06314829621665
endloop
endfacet
facet normal -5.1163437279054114e-08 7.226721092181423e-09 0.9999999999999987
outer loop
vertex 254.4041625832141 11.755419359812501 -108.06314829621665
vertex 256.09006016445153 12.584007017619435 -108.06314829621665
vertex 253.99941443433403 11.858563459876212 -108.06314829621665
endloop
endfacet
facet normal -5.1163437279054114e-08 7.226721092181423e-09 0.9999999999999987
outer loop
vertex 253.99941443433403 11.858563459876212 -108.06314829621665
vertex 256.09006016445153 12.584007017619435 -108.06314829621665
vertex 251.5051567092112 12.549877168440162 -108.06314844086813
endloop
endfacet
facet normal -5.1163437279054114e-08 7.226721092181423e-09 0.9999999999999987
outer loop
vertex 251.53935575841516 7.955677585618691 -108.06314829621665
vertex 252.33947978222722 9.639415661568218 -108.06314829621665
vertex 251.5051567092112 12.549877168440162 -108.06314844086813
endloop
endfacet
facet normal -5.1163437279054114e-08 7.226721092181423e-09 0.9999999999999987
outer loop
vertex 252.33947978222722 9.639415661568218 -108.06314829621665
vertex 251.53935575841516 7.955677585618691 -108.06314829621665
vertex 252.55274605037866 9.280281608227865 -108.06314829621665
endloop
endfacet
facet normal -5.1163437279054114e-08 7.226721092181423e-09 0.9999999999999987
outer loop
vertex 252.55274605037866 9.280281608227865 -108.06314829621665
vertex 251.53935575841516 7.955677585618691 -108.06314829621665
vertex 252.7022211148953 9.134431865554937 -108.06314829621665
endloop
endfacet
facet normal -5.1163437279054114e-08 7.226721092181423e-09 0.9999999999999987
outer loop
vertex 252.7022211148953 9.134431865554937 -108.06314829621665
vertex 251.53935575841516 7.955677585618691 -108.06314829621665
vertex 252.85169617941196 8.988582122882052 -108.06314829621665
endloop
endfacet
facet normal -5.1163437279054114e-08 7.226721092181423e-09 0.9999999999999987
outer loop
vertex 252.85169617941196 8.988582122882052 -108.06314829621665
vertex 251.53935575841516 7.955677585618691 -108.06314829621665
vertex 253.21595721207157 8.78419604340097 -108.06314829621665
endloop
endfacet
facet normal -5.1163437279054114e-08 7.226721092181423e-09 0.9999999999999987
outer loop
vertex 253.21595721207157 8.78419604340097 -108.06314829621665
vertex 251.53935575841516 7.955677585618691 -108.06314829621665
vertex 256.1242592136554 7.989807434797986 -108.06314829621665
endloop
endfacet
facet normal -5.1163437279054114e-08 7.226721092181423e-09 0.9999999999999987
outer loop
vertex 253.21595721207157 8.78419604340097 -108.06314829621665
vertex 256.1242592136554 7.989807434797986 -108.06314829621665
vertex 253.62070536095175 8.681051943337234 -108.06314829621665
endloop
endfacet
facet normal -5.1163437279054114e-08 7.226721092181423e-09 0.9999999999999987
outer loop
vertex 251.5051567092112 12.549877168440162 -108.06314844086813
vertex 252.33947978222722 9.639415661568218 -108.06314829621665
vertex 252.22643111869283 10.041509890665179 -108.06314829621665
endloop
endfacet
facet normal -5.1163437279054114e-08 7.226721092181423e-09 0.9999999999999987
outer loop
vertex 251.5051567092112 12.549877168440162 -108.06314844086813
vertex 252.22643111869283 10.041509890665179 -108.06314829621665
vertex 252.22377355558442 10.257999445634026 -108.0631483463649
endloop
endfacet
facet normal -5.1163437279054114e-08 7.226721092181423e-09 0.9999999999999987
outer loop
vertex 251.5051567092112 12.549877168440162 -108.06314844086813
vertex 252.22377355558442 10.257999445634026 -108.0631483463649
vertex 252.22130413937327 10.459162238297747 -108.06314829621665
endloop
endfacet
facet normal -5.1163437279054114e-08 7.226721092181423e-09 0.9999999999999987
outer loop
vertex 251.5051567092112 12.549877168440162 -108.06314844086813
vertex 252.22130413937327 10.459162238297747 -108.06314829621665
vertex 252.32444823943717 10.863910387178036 -108.06314829621665
endloop
endfacet
facet normal -5.1163437279054114e-08 7.226721092181423e-09 0.9999999999999987
outer loop
vertex 251.5051567092112 12.549877168440162 -108.06314844086813
vertex 252.32444823943717 10.863910387178036 -108.06314829621665
vertex 252.52883431891817 11.22817141983771 -108.06314829621665
endloop
endfacet
facet normal -5.1163437279054114e-08 7.226721092181423e-09 0.9999999999999987
outer loop
vertex 251.5051567092112 12.549877168440162 -108.06314844086813
vertex 252.52883431891817 11.22817141983771 -108.06314829621665
vertex 252.82053380426396 11.52712154887093 -108.06314829621665
endloop
endfacet
facet normal -5.1163437279054114e-08 7.226721092181423e-09 0.9999999999999987
outer loop
vertex 251.5051567092112 12.549877168440162 -108.06314844086813
vertex 252.82053380426396 11.52712154887093 -108.06314829621665
vertex 253.17966785760441 11.74038781702246 -108.06314829621665
endloop
endfacet
facet normal -5.1163437279054114e-08 7.226721092181423e-09 0.9999999999999987
outer loop
vertex 251.5051567092112 12.549877168440162 -108.06314844086813
vertex 253.17966785760441 11.74038781702246 -108.06314829621665
vertex 253.5817620867013 11.85343648055689 -108.06314829621665
endloop
endfacet
facet normal -5.1163437279054114e-08 7.226721092181423e-09 0.9999999999999987
outer loop
vertex 251.5051567092112 12.549877168440162 -108.06314844086813
vertex 253.5817620867013 11.85343648055689 -108.06314829621665
vertex 253.79825164167008 11.856094043665225 -108.06314829621665
endloop
endfacet
facet normal -5.1163437279054114e-08 7.226721092181423e-09 0.9999999999999987
outer loop
vertex 251.5051567092112 12.549877168440162 -108.06314844086813
vertex 253.79825164167008 11.856094043665225 -108.06314829621665
vertex 253.99941443433403 11.858563459876212 -108.06314829621665
endloop
endfacet
facet normal -0.9999722954848141 -0.007443672670797949 -3.958880771761831e-08
outer loop
vertex 251.53935550207203 7.955676386118653 -113.0631484237618
vertex 251.5051567092112 12.549877168440162 -108.06314844086813
vertex 251.50515720985578 12.549877412766783 -113.06314862152716
endloop
endfacet
facet normal -0.9999722954848141 -0.007443672670797949 -3.958880771761831e-08
outer loop
vertex 251.5051567092112 12.549877168440162 -108.06314844086813
vertex 251.53935550207203 7.955676386118653 -113.0631484237618
vertex 251.53935575841516 7.955677585618691 -108.06314829621665
endloop
endfacet
endsolid HW5_BUILT
