solid v17_case
facet normal -4.0791187565334403e-29 -1.8045663536496889e-13 -1.0
  outer loop
    vertex 135.9868458759265 242.36324690332773 21.000258504691462
    vertex 135.9868458759265 240.29269454250755 21.000258504691832
    vertex 135.85054918108276 241.32797072291766 21.000258504691647
  endloop
endfacet
facet normal -4.0791187565334403e-29 -1.8045663536496889e-13 -1.0
  outer loop
    vertex 135.9868458759265 240.29269454250755 21.000258504691832
    vertex 135.9868458759265 242.36324690332773 21.000258504691462
    vertex 136.386447565945 243.32797072291766 21.000258504691285
  endloop
endfacet
facet normal -4.0791187565334403e-29 -1.8045663536496889e-13 -1.0
  outer loop
    vertex 135.9868458759265 240.29269454250755 21.000258504691832
    vertex 136.386447565945 243.32797072291766 21.000258504691285
    vertex 136.386447565945 239.32797072291766 21.00025850469201
  endloop
endfacet
facet normal -4.0791187565334403e-29 -1.8045663536496889e-13 -1.0
  outer loop
    vertex 136.386447565945 239.32797072291766 21.00025850469201
    vertex 136.386447565945 243.32797072291766 21.000258504691285
    vertex 137.02212205633657 244.15639784766384 21.000258504691136
  endloop
endfacet
facet normal -4.0791187565334403e-29 -1.8045663536496889e-13 -1.0
  outer loop
    vertex 136.386447565945 239.32797072291766 21.00025850469201
    vertex 137.02212205633657 244.15639784766384 21.000258504691136
    vertex 137.02212205633654 238.49954359817144 21.00025850469216
  endloop
endfacet
facet normal -4.0791187565334403e-29 -1.8045663536496889e-13 -1.0
  outer loop
    vertex 137.02212205633654 238.49954359817144 21.00025850469216
    vertex 137.02212205633657 244.15639784766384 21.000258504691136
    vertex 137.85054918108276 237.86386910777992 21.000258504692273
  endloop
endfacet
facet normal -4.0791187565334403e-29 -1.8045663536496889e-13 -1.0
  outer loop
    vertex 137.85054918108276 237.86386910777992 21.000258504692273
    vertex 137.02212205633657 244.15639784766384 21.000258504691136
    vertex 137.85054918108276 244.7920723380554 21.000258504691022
  endloop
endfacet
facet normal -4.0791187565334403e-29 -1.8045663536496889e-13 -1.0
  outer loop
    vertex 137.85054918108276 237.86386910777992 21.000258504692273
    vertex 137.85054918108276 244.7920723380554 21.000258504691022
    vertex 138.18601804181912 241.6734212786008 21.000258504691587
  endloop
endfacet
facet normal -4.0791187565334403e-29 -1.8045663536496889e-13 -1.0
  outer loop
    vertex 138.18601804181912 241.6734212786008 21.000258504691587
    vertex 137.85054918108276 244.7920723380554 21.000258504691022
    vertex 138.81527300067265 245.19167402807395 21.00025850469095
  endloop
endfacet
facet normal -4.0791187565334403e-29 -1.8045663536496889e-13 -1.0
  outer loop
    vertex 137.85054918108276 237.86386910777992 21.000258504692273
    vertex 138.18601804181912 241.6734212786008 21.000258504691587
    vertex 138.15332638205368 241.23083797635033 21.00025850469167
  endloop
endfacet
facet normal -4.0791187565334403e-29 -1.8045663536496889e-13 -1.0
  outer loop
    vertex 138.18601804181912 241.6734212786008 21.000258504691587
    vertex 138.81527300067265 245.19167402807395 21.00025850469095
    vertex 138.33214474795764 242.09246269636557 21.000258504691512
  endloop
endfacet
facet normal -4.0791187565334403e-29 -1.8045663536496889e-13 -1.0
  outer loop
    vertex 138.33214474795764 242.09246269636557 21.000258504691512
    vertex 138.81527300067265 245.19167402807395 21.00025850469095
    vertex 138.58174820693168 242.4594052495226 21.00025850469145
  endloop
endfacet
facet normal -4.0791187565334403e-29 -1.8045663536496889e-13 -1.0
  outer loop
    vertex 138.58174820693168 242.4594052495226 21.00025850469145
    vertex 138.81527300067265 245.19167402807395 21.00025850469095
    vertex 138.9178183555013 242.74924240947547 21.000258504691395
  endloop
endfacet
facet normal -4.0791187565334403e-29 -1.8045663536496889e-13 -1.0
  outer loop
    vertex 138.9178183555013 242.74924240947547 21.000258504691395
    vertex 138.81527300067265 245.19167402807395 21.00025850469095
    vertex 139.85054918108276 245.32797072291766 21.000258504690926
  endloop
endfacet
facet normal -4.0791187565334403e-29 -1.8045663536496889e-13 -1.0
  outer loop
    vertex 138.9178183555013 242.74924240947547 21.000258504691395
    vertex 139.85054918108276 245.32797072291766 21.000258504690926
    vertex 139.3174525684238 242.94222225275195 21.00025850469136
  endloop
endfacet
facet normal -4.0791187565334403e-29 -1.8045663536496889e-13 -1.0
  outer loop
    vertex 139.3174525684238 242.94222225275195 21.00025850469136
    vertex 139.85054918108276 245.32797072291766 21.000258504690926
    vertex 139.75341643451517 243.02519352194702 21.00025850469134
  endloop
endfacet
facet normal -4.0791187565334403e-29 -1.8045663536496889e-13 -1.0
  outer loop
    vertex 139.75341643451517 243.02519352194702 21.00025850469134
    vertex 139.85054918108276 245.32797072291766 21.000258504690926
    vertex 140.19599973676569 242.99250186218157 21.000258504691352
  endloop
endfacet
facet normal -4.0791187565334403e-29 -1.8045663536496889e-13 -1.0
  outer loop
    vertex 140.19599973676569 242.99250186218157 21.000258504691352
    vertex 139.85054918108276 245.32797072291766 21.000258504690926
    vertex 140.88582536149283 245.19167402807395 21.00025850469095
  endloop
endfacet
facet normal -4.0791187565334403e-29 -1.8045663536496889e-13 -1.0
  outer loop
    vertex 140.19599973676569 242.99250186218157 21.000258504691352
    vertex 140.88582536149283 245.19167402807395 21.00025850469095
    vertex 140.61504115453042 242.84637515604305 21.000258504691377
  endloop
endfacet
facet normal -4.0791187565334403e-29 -1.8045663536496889e-13 -1.0
  outer loop
    vertex 140.61504115453042 242.84637515604305 21.000258504691377
    vertex 140.88582536149283 245.19167402807395 21.00025850469095
    vertex 140.98198370768745 242.59677169706907 21.00025850469142
  endloop
endfacet
facet normal -4.0791187565334403e-29 -1.8045663536496889e-13 -1.0
  outer loop
    vertex 140.98198370768745 242.59677169706907 21.00025850469142
    vertex 140.88582536149283 245.19167402807395 21.00025850469095
    vertex 141.85054918108276 244.7920723380554 21.000258504691022
  endloop
endfacet
facet normal -4.0791187565334403e-29 -1.8045663536496889e-13 -1.0
  outer loop
    vertex 140.98198370768745 242.59677169706907 21.00025850469142
    vertex 141.85054918108276 244.7920723380554 21.000258504691022
    vertex 141.27182086764032 242.26070154849938 21.00025850469148
  endloop
endfacet
facet normal -4.0791187565334403e-29 -1.8045663536496889e-13 -1.0
  outer loop
    vertex 141.27182086764032 242.26070154849938 21.00025850469148
    vertex 141.85054918108276 244.7920723380554 21.000258504691022
    vertex 141.4648007109168 241.8610673355769 21.000258504691555
  endloop
endfacet
facet normal -4.0791187565334403e-29 -1.8045663536496889e-13 -1.0
  outer loop
    vertex 141.4648007109168 241.8610673355769 21.000258504691555
    vertex 141.85054918108276 244.7920723380554 21.000258504691022
    vertex 141.5477719801119 241.42510346948555 21.000258504691633
  endloop
endfacet
facet normal -4.0791187565334403e-29 -1.8045663536496889e-13 -1.0
  outer loop
    vertex 138.15332638205368 241.23083797635033 21.00025850469167
    vertex 138.81527300067265 237.46426741776142 21.000258504692344
    vertex 137.85054918108276 237.86386910777992 21.000258504692273
  endloop
endfacet
facet normal -4.0791187565334403e-29 -1.8045663536496889e-13 -1.0
  outer loop
    vertex 138.81527300067265 237.46426741776142 21.000258504692344
    vertex 138.15332638205368 241.23083797635033 21.00025850469167
    vertex 138.23629765124878 240.79487411025895 21.000258504691747
  endloop
endfacet
facet normal -4.0791187565334403e-29 -1.8045663536496889e-13 -1.0
  outer loop
    vertex 138.81527300067265 237.46426741776142 21.000258504692344
    vertex 138.23629765124878 240.79487411025895 21.000258504691747
    vertex 138.42927749452525 240.39523989733647 21.000258504691818
  endloop
endfacet
facet normal -4.0791187565334403e-29 -1.8045663536496889e-13 -1.0
  outer loop
    vertex 138.81527300067265 237.46426741776142 21.000258504692344
    vertex 138.42927749452525 240.39523989733647 21.000258504691818
    vertex 138.71911465447815 240.05916974876678 21.000258504691878
  endloop
endfacet
facet normal -4.0791187565334403e-29 -1.8045663536496889e-13 -1.0
  outer loop
    vertex 138.81527300067265 237.46426741776142 21.000258504692344
    vertex 138.71911465447815 240.05916974876678 21.000258504691878
    vertex 139.08605720763515 239.80956628979277 21.000258504691924
  endloop
endfacet
facet normal -4.0791187565334403e-29 -1.8045663536496889e-13 -1.0
  outer loop
    vertex 138.81527300067265 237.46426741776142 21.000258504692344
    vertex 139.08605720763515 239.80956628979277 21.000258504691924
    vertex 139.85054918108276 237.32797072291766 21.00025850469237
  endloop
endfacet
facet normal -4.0791187565334403e-29 -1.8045663536496889e-13 -1.0
  outer loop
    vertex 139.85054918108276 237.32797072291766 21.00025850469237
    vertex 139.08605720763515 239.80956628979277 21.000258504691924
    vertex 139.5050986253999 239.66343958365425 21.00025850469195
  endloop
endfacet
facet normal -4.0791187565334403e-29 -1.8045663536496889e-13 -1.0
  outer loop
    vertex 139.85054918108276 237.32797072291766 21.00025850469237
    vertex 139.5050986253999 239.66343958365425 21.00025850469195
    vertex 139.94768192765042 239.6307479238888 21.000258504691956
  endloop
endfacet
facet normal -4.0791187565334403e-29 -1.8045663536496889e-13 -1.0
  outer loop
    vertex 139.85054918108276 237.32797072291766 21.00025850469237
    vertex 139.94768192765042 239.6307479238888 21.000258504691956
    vertex 140.8858253614928 237.46426741776136 21.000258504692344
  endloop
endfacet
facet normal -4.0791187565334403e-29 -1.8045663536496889e-13 -1.0
  outer loop
    vertex 140.8858253614928 237.46426741776136 21.000258504692344
    vertex 139.94768192765042 239.6307479238888 21.000258504691956
    vertex 140.3836457937418 239.71371919308388 21.000258504691942
  endloop
endfacet
facet normal -4.0791187565334403e-29 -1.8045663536496889e-13 -1.0
  outer loop
    vertex 140.8858253614928 237.46426741776136 21.000258504692344
    vertex 140.3836457937418 239.71371919308388 21.000258504691942
    vertex 140.78328000666426 239.90669903636038 21.000258504691907
  endloop
endfacet
facet normal -4.0791187565334403e-29 -1.8045663536496889e-13 -1.0
  outer loop
    vertex 140.8858253614928 237.46426741776136 21.000258504692344
    vertex 140.78328000666426 239.90669903636038 21.000258504691907
    vertex 141.11935015523392 240.19653619631325 21.000258504691853
  endloop
endfacet
facet normal -4.0791187565334403e-29 -1.8045663536496889e-13 -1.0
  outer loop
    vertex 140.8858253614928 237.46426741776136 21.000258504692344
    vertex 141.11935015523392 240.19653619631325 21.000258504691853
    vertex 141.85054918108276 237.86386910777992 21.000258504692273
  endloop
endfacet
facet normal -4.0791187565334403e-29 -1.8045663536496889e-13 -1.0
  outer loop
    vertex 141.85054918108276 237.86386910777992 21.000258504692273
    vertex 141.11935015523392 240.19653619631325 21.000258504691853
    vertex 141.36895361420792 240.56347874947028 21.00025850469179
  endloop
endfacet
facet normal -4.0791187565334403e-29 -1.8045663536496889e-13 -1.0
  outer loop
    vertex 141.85054918108276 237.86386910777992 21.000258504692273
    vertex 141.36895361420792 240.56347874947028 21.00025850469179
    vertex 141.51508032034644 240.98252016723504 21.00025850469171
  endloop
endfacet
facet normal -4.0791187565334403e-29 -1.8045663536496889e-13 -1.0
  outer loop
    vertex 141.85054918108276 237.86386910777992 21.000258504692273
    vertex 141.51508032034644 240.98252016723504 21.00025850469171
    vertex 141.5477719801119 241.42510346948555 21.000258504691633
  endloop
endfacet
facet normal -4.0791187565334403e-29 -1.8045663536496889e-13 -1.0
  outer loop
    vertex 141.85054918108276 237.86386910777992 21.000258504692273
    vertex 141.5477719801119 241.42510346948555 21.000258504691633
    vertex 141.85054918108276 244.7920723380554 21.000258504691022
  endloop
endfacet
facet normal -4.0791187565334403e-29 -1.8045663536496889e-13 -1.0
  outer loop
    vertex 141.85054918108276 237.86386910777992 21.000258504692273
    vertex 141.85054918108276 244.7920723380554 21.000258504691022
    vertex 142.6789763058289 244.15639784766384 21.000258504691136
  endloop
endfacet
facet normal -4.0791187565334403e-29 -1.8045663536496889e-13 -1.0
  outer loop
    vertex 141.85054918108276 237.86386910777992 21.000258504692273
    vertex 142.6789763058289 244.15639784766384 21.000258504691136
    vertex 142.6789763058289 238.49954359817144 21.00025850469216
  endloop
endfacet
facet normal -4.0791187565334403e-29 -1.8045663536496889e-13 -1.0
  outer loop
    vertex 142.6789763058289 238.49954359817144 21.00025850469216
    vertex 142.6789763058289 244.15639784766384 21.000258504691136
    vertex 143.3146507962205 243.32797072291766 21.000258504691285
  endloop
endfacet
facet normal -4.0791187565334403e-29 -1.8045663536496889e-13 -1.0
  outer loop
    vertex 142.6789763058289 238.49954359817144 21.00025850469216
    vertex 143.3146507962205 243.32797072291766 21.000258504691285
    vertex 143.3146507962205 239.32797072291766 21.00025850469201
  endloop
endfacet
facet normal -4.0791187565334403e-29 -1.8045663536496889e-13 -1.0
  outer loop
    vertex 143.3146507962205 239.32797072291766 21.00025850469201
    vertex 143.3146507962205 243.32797072291766 21.000258504691285
    vertex 143.71425248623902 242.36324690332773 21.000258504691462
  endloop
endfacet
facet normal -4.0791187565334403e-29 -1.8045663536496889e-13 -1.0
  outer loop
    vertex 143.3146507962205 239.32797072291766 21.00025850469201
    vertex 143.71425248623902 242.36324690332773 21.000258504691462
    vertex 143.71425248623902 240.29269454250755 21.000258504691832
  endloop
endfacet
facet normal -4.0791187565334403e-29 -1.8045663536496889e-13 -1.0
  outer loop
    vertex 143.71425248623902 240.29269454250755 21.000258504691832
    vertex 143.71425248623902 242.36324690332773 21.000258504691462
    vertex 143.85054918108273 241.32797072291766 21.000258504691647
  endloop
endfacet
facet normal 0.6087614290087096 0.7933533402912437 -1.43165874444517e-13
  outer loop
    vertex 141.85054918108276 244.79207233805548 21.500258504691022
    vertex 142.6789763058289 244.15639784766384 21.000258504691136
    vertex 141.85054918108276 244.7920723380554 21.000258504691022
  endloop
endfacet
facet normal 0.6087614290087096 0.7933533402912437 -1.43165874444517e-13
  outer loop
    vertex 142.6789763058289 244.15639784766384 21.000258504691136
    vertex 141.85054918108276 244.79207233805548 21.500258504691022
    vertex 142.6789763058289 244.15639784766392 21.500258504691136
  endloop
endfacet
facet normal 0.38268343236512276 0.9238795325112731 -1.6672019191954466e-13
  outer loop
    vertex 140.88582536149283 245.19167402807403 21.50025850469095
    vertex 141.85054918108276 244.7920723380554 21.000258504691022
    vertex 140.88582536149283 245.19167402807395 21.00025850469095
  endloop
endfacet
facet normal 0.38268343236512276 0.9238795325112731 -1.6672019191954466e-13
  outer loop
    vertex 141.85054918108276 244.7920723380554 21.000258504691022
    vertex 140.88582536149283 245.19167402807403 21.50025850469095
    vertex 141.85054918108276 244.79207233805548 21.500258504691022
  endloop
endfacet
facet normal -0.793353340291231 0.6087614290087263 -1.0985503921888505e-13
  outer loop
    vertex 136.386447565945 243.32797072291774 21.500258504691285
    vertex 137.02212205633657 244.15639784766384 21.000258504691136
    vertex 136.386447565945 243.32797072291766 21.000258504691285
  endloop
endfacet
facet normal -0.793353340291231 0.6087614290087263 -1.0985503921888505e-13
  outer loop
    vertex 137.02212205633657 244.15639784766384 21.000258504691136
    vertex 136.386447565945 243.32797072291774 21.500258504691285
    vertex 137.02212205633657 244.15639784766392 21.500258504691136
  endloop
endfacet
facet normal -0.38268343236512276 0.9238795325112731 -1.6672019191954463e-13
  outer loop
    vertex 137.85054918108276 244.7920723380554 21.000258504691022
    vertex 138.81527300067265 245.19167402807403 21.50025850469095
    vertex 138.81527300067265 245.19167402807395 21.00025850469095
  endloop
endfacet
facet normal -0.38268343236512276 0.9238795325112731 -1.6672019191954463e-13
  outer loop
    vertex 138.81527300067265 245.19167402807403 21.50025850469095
    vertex 137.85054918108276 244.7920723380554 21.000258504691022
    vertex 137.85054918108276 244.79207233805548 21.500258504691022
  endloop
endfacet
facet normal 0.13052619222002954 0.9914448613738135 -1.789128038334063e-13
  outer loop
    vertex 139.85054918108276 245.32797072291774 21.500258504690926
    vertex 140.88582536149283 245.19167402807395 21.00025850469095
    vertex 139.85054918108276 245.32797072291766 21.000258504690926
  endloop
endfacet
facet normal 0.13052619222002954 0.9914448613738135 -1.789128038334063e-13
  outer loop
    vertex 140.88582536149283 245.19167402807395 21.00025850469095
    vertex 139.85054918108276 245.32797072291774 21.500258504690926
    vertex 140.88582536149283 245.19167402807403 21.50025850469095
  endloop
endfacet
facet normal -0.6087614290087096 0.7933533402912437 -1.4316587444451697e-13
  outer loop
    vertex 137.02212205633657 244.15639784766384 21.000258504691136
    vertex 137.85054918108276 244.79207233805548 21.500258504691022
    vertex 137.85054918108276 244.7920723380554 21.000258504691022
  endloop
endfacet
facet normal -0.6087614290087096 0.7933533402912437 -1.4316587444451697e-13
  outer loop
    vertex 137.85054918108276 244.79207233805548 21.500258504691022
    vertex 137.02212205633657 244.15639784766384 21.000258504691136
    vertex 137.02212205633657 244.15639784766392 21.500258504691136
  endloop
endfacet
facet normal -0.9238795325112884 0.38268343236508595 -6.905776461452098e-14
  outer loop
    vertex 135.9868458759265 242.36324690332782 21.50025850469146
    vertex 136.386447565945 243.32797072291766 21.000258504691285
    vertex 135.9868458759265 242.36324690332773 21.000258504691462
  endloop
endfacet
facet normal -0.9238795325112884 0.38268343236508595 -6.905776461452098e-14
  outer loop
    vertex 136.386447565945 243.32797072291766 21.000258504691285
    vertex 135.9868458759265 242.36324690332782 21.50025850469146
    vertex 136.386447565945 243.32797072291774 21.500258504691285
  endloop
endfacet
facet normal -0.9914448613738106 0.13052619222005077 -2.355431747503148e-14
  outer loop
    vertex 135.85054918108276 241.32797072291774 21.500258504691647
    vertex 135.9868458759265 242.36324690332773 21.000258504691462
    vertex 135.85054918108276 241.32797072291766 21.000258504691647
  endloop
endfacet
facet normal -0.9914448613738106 0.13052619222005077 -2.355431747503148e-14
  outer loop
    vertex 135.9868458759265 242.36324690332773 21.000258504691462
    vertex 135.85054918108276 241.32797072291774 21.500258504691647
    vertex 135.9868458759265 242.36324690332782 21.50025850469146
  endloop
endfacet
facet normal -0.13052619222002954 0.9914448613738135 -1.789128038334063e-13
  outer loop
    vertex 138.81527300067265 245.19167402807395 21.00025850469095
    vertex 139.85054918108276 245.32797072291774 21.500258504690926
    vertex 139.85054918108276 245.32797072291766 21.000258504690926
  endloop
endfacet
facet normal -0.13052619222002954 0.9914448613738135 -1.789128038334063e-13
  outer loop
    vertex 139.85054918108276 245.32797072291774 21.500258504690926
    vertex 138.81527300067265 245.19167402807395 21.00025850469095
    vertex 138.81527300067265 245.19167402807403 21.50025850469095
  endloop
endfacet
facet normal -0.9914448613738106 -0.13052619222005077 2.3554317475031577e-14
  outer loop
    vertex 135.9868458759265 240.29269454250766 21.500258504691832
    vertex 135.85054918108276 241.32797072291766 21.000258504691647
    vertex 135.9868458759265 240.29269454250755 21.000258504691832
  endloop
endfacet
facet normal -0.9914448613738106 -0.13052619222005077 2.3554317475031577e-14
  outer loop
    vertex 135.85054918108276 241.32797072291766 21.000258504691647
    vertex 135.9868458759265 240.29269454250766 21.500258504691832
    vertex 135.85054918108276 241.32797072291774 21.500258504691647
  endloop
endfacet
facet normal -0.7933533402912413 -0.6087614290087128 1.0985503921888266e-13
  outer loop
    vertex 137.02212205633654 238.49954359817156 21.500258504692155
    vertex 136.386447565945 239.32797072291766 21.00025850469201
    vertex 137.02212205633654 238.49954359817144 21.00025850469216
  endloop
endfacet
facet normal -0.7933533402912413 -0.6087614290087128 1.0985503921888266e-13
  outer loop
    vertex 136.386447565945 239.32797072291766 21.00025850469201
    vertex 137.02212205633654 238.49954359817156 21.500258504692155
    vertex 136.386447565945 239.32797072291774 21.500258504692006
  endloop
endfacet
facet normal -0.6087614290086991 -0.7933533402912518 1.4316587444451846e-13
  outer loop
    vertex 137.85054918108276 237.86386910777992 21.000258504692273
    vertex 137.02212205633654 238.49954359817156 21.500258504692155
    vertex 137.02212205633654 238.49954359817144 21.00025850469216
  endloop
endfacet
facet normal -0.6087614290086991 -0.7933533402912518 1.4316587444451846e-13
  outer loop
    vertex 137.02212205633654 238.49954359817156 21.500258504692155
    vertex 137.85054918108276 237.86386910777992 21.000258504692273
    vertex 137.85054918108276 237.86386910778 21.500258504692273
  endloop
endfacet
facet normal -0.9238795325112884 -0.38268343236508595 6.905776461452105e-14
  outer loop
    vertex 136.386447565945 239.32797072291774 21.500258504692006
    vertex 135.9868458759265 240.29269454250755 21.000258504691832
    vertex 136.386447565945 239.32797072291766 21.00025850469201
  endloop
endfacet
facet normal -0.9238795325112884 -0.38268343236508595 6.905776461452105e-14
  outer loop
    vertex 135.9868458759265 240.29269454250755 21.000258504691832
    vertex 136.386447565945 239.32797072291774 21.500258504692006
    vertex 135.9868458759265 240.29269454250766 21.500258504691832
  endloop
endfacet
facet normal -0.38268343236508595 -0.9238795325112884 1.6672019191954743e-13
  outer loop
    vertex 138.81527300067265 237.46426741776142 21.000258504692344
    vertex 137.85054918108276 237.86386910778 21.500258504692273
    vertex 137.85054918108276 237.86386910777992 21.000258504692273
  endloop
endfacet
facet normal -0.38268343236508595 -0.9238795325112884 1.6672019191954743e-13
  outer loop
    vertex 137.85054918108276 237.86386910778 21.500258504692273
    vertex 138.81527300067265 237.46426741776142 21.000258504692344
    vertex 138.81527300067265 237.4642674177615 21.500258504692344
  endloop
endfacet
facet normal 0.3826834323651152 -0.9238795325112764 1.6672019191954524e-13
  outer loop
    vertex 141.85054918108276 237.86386910778 21.500258504692273
    vertex 140.8858253614928 237.46426741776136 21.000258504692344
    vertex 141.85054918108276 237.86386910777992 21.000258504692273
  endloop
endfacet
facet normal 0.3826834323651152 -0.9238795325112764 1.6672019191954524e-13
  outer loop
    vertex 140.8858253614928 237.46426741776136 21.000258504692344
    vertex 141.85054918108276 237.86386910778 21.500258504692273
    vertex 140.8858253614928 237.46426741776145 21.500258504692344
  endloop
endfacet
facet normal 0.9238795325112884 -0.38268343236508595 6.905776461452098e-14
  outer loop
    vertex 143.71425248623902 240.29269454250755 21.000258504691832
    vertex 143.3146507962205 239.32797072291774 21.500258504692006
    vertex 143.3146507962205 239.32797072291766 21.00025850469201
  endloop
endfacet
facet normal 0.9238795325112884 -0.38268343236508595 6.905776461452098e-14
  outer loop
    vertex 143.3146507962205 239.32797072291774 21.500258504692006
    vertex 143.71425248623902 240.29269454250755 21.000258504691832
    vertex 143.71425248623902 240.29269454250766 21.500258504691832
  endloop
endfacet
facet normal 0.9238795325112884 0.38268343236508595 -6.905776461452105e-14
  outer loop
    vertex 143.3146507962205 243.32797072291766 21.000258504691285
    vertex 143.71425248623902 242.36324690332782 21.50025850469146
    vertex 143.71425248623902 242.36324690332773 21.000258504691462
  endloop
endfacet
facet normal 0.9238795325112884 0.38268343236508595 -6.905776461452105e-14
  outer loop
    vertex 143.71425248623902 242.36324690332782 21.50025850469146
    vertex 143.3146507962205 243.32797072291766 21.000258504691285
    vertex 143.3146507962205 243.32797072291774 21.500258504691285
  endloop
endfacet
facet normal 0.13052619222003234 -0.9914448613738132 1.7891280383340628e-13
  outer loop
    vertex 140.8858253614928 237.46426741776145 21.500258504692344
    vertex 139.85054918108276 237.32797072291766 21.00025850469237
    vertex 140.8858253614928 237.46426741776136 21.000258504692344
  endloop
endfacet
facet normal 0.13052619222003234 -0.9914448613738132 1.7891280383340628e-13
  outer loop
    vertex 139.85054918108276 237.32797072291766 21.00025850469237
    vertex 140.8858253614928 237.46426741776145 21.500258504692344
    vertex 139.85054918108276 237.32797072291774 21.50025850469237
  endloop
endfacet
facet normal 0.6087614290087096 -0.7933533402912437 1.4316587444451697e-13
  outer loop
    vertex 142.6789763058289 238.49954359817156 21.500258504692155
    vertex 141.85054918108276 237.86386910777992 21.000258504692273
    vertex 142.6789763058289 238.49954359817144 21.00025850469216
  endloop
endfacet
facet normal 0.6087614290087096 -0.7933533402912437 1.4316587444451697e-13
  outer loop
    vertex 141.85054918108276 237.86386910777992 21.000258504692273
    vertex 142.6789763058289 238.49954359817156 21.500258504692155
    vertex 141.85054918108276 237.86386910778 21.500258504692273
  endloop
endfacet
facet normal 0.793353340291231 0.6087614290087263 -1.0985503921888512e-13
  outer loop
    vertex 142.6789763058289 244.15639784766384 21.000258504691136
    vertex 143.3146507962205 243.32797072291774 21.500258504691285
    vertex 143.3146507962205 243.32797072291766 21.000258504691285
  endloop
endfacet
facet normal 0.793353340291231 0.6087614290087263 -1.0985503921888512e-13
  outer loop
    vertex 143.3146507962205 243.32797072291774 21.500258504691285
    vertex 142.6789763058289 244.15639784766384 21.000258504691136
    vertex 142.6789763058289 244.15639784766392 21.500258504691136
  endloop
endfacet
facet normal 0.9914448613738106 -0.13052619222005077 2.355431747503148e-14
  outer loop
    vertex 143.85054918108273 241.32797072291766 21.000258504691647
    vertex 143.71425248623902 240.29269454250766 21.500258504691832
    vertex 143.71425248623902 240.29269454250755 21.000258504691832
  endloop
endfacet
facet normal 0.9914448613738106 -0.13052619222005077 2.355431747503148e-14
  outer loop
    vertex 143.71425248623902 240.29269454250766 21.500258504691832
    vertex 143.85054918108273 241.32797072291766 21.000258504691647
    vertex 143.85054918108273 241.32797072291774 21.500258504691647
  endloop
endfacet
facet normal 0.793353340291231 -0.6087614290087263 1.0985503921888505e-13
  outer loop
    vertex 143.3146507962205 239.32797072291766 21.00025850469201
    vertex 142.6789763058289 238.49954359817156 21.500258504692155
    vertex 142.6789763058289 238.49954359817144 21.00025850469216
  endloop
endfacet
facet normal 0.793353340291231 -0.6087614290087263 1.0985503921888505e-13
  outer loop
    vertex 142.6789763058289 238.49954359817156 21.500258504692155
    vertex 143.3146507962205 239.32797072291766 21.00025850469201
    vertex 143.3146507962205 239.32797072291774 21.500258504692006
  endloop
endfacet
facet normal 0.9914448613738106 0.13052619222005077 -2.3554317475031577e-14
  outer loop
    vertex 143.71425248623902 242.36324690332773 21.000258504691462
    vertex 143.85054918108273 241.32797072291774 21.500258504691647
    vertex 143.85054918108273 241.32797072291766 21.000258504691647
  endloop
endfacet
facet normal 0.9914448613738106 0.13052619222005077 -2.3554317475031577e-14
  outer loop
    vertex 143.85054918108273 241.32797072291774 21.500258504691647
    vertex 143.71425248623902 242.36324690332773 21.000258504691462
    vertex 143.71425248623902 242.36324690332782 21.50025850469146
  endloop
endfacet
facet normal -0.13052619222007197 -0.9914448613738077 1.7891280383340527e-13
  outer loop
    vertex 139.85054918108276 237.32797072291766 21.00025850469237
    vertex 138.81527300067265 237.4642674177615 21.500258504692344
    vertex 138.81527300067265 237.46426741776142 21.000258504692344
  endloop
endfacet
facet normal -0.13052619222007197 -0.9914448613738077 1.7891280383340527e-13
  outer loop
    vertex 138.81527300067265 237.4642674177615 21.500258504692344
    vertex 139.85054918108276 237.32797072291766 21.00025850469237
    vertex 139.85054918108276 237.32797072291774 21.50025850469237
  endloop
endfacet
facet normal -2.239214437294264e-18 -1.8023953380890754e-13 -1.0
  outer loop
    vertex 138.18601804181912 241.67342127860113 22.34632747942778
    vertex 138.23629765124878 240.79487411025926 22.346327479427938
    vertex 138.15332638205368 241.23083797635064 22.34632747942786
  endloop
endfacet
facet normal -2.239214437294264e-18 -1.8023953380890754e-13 -1.0
  outer loop
    vertex 138.23629765124878 240.79487411025926 22.346327479427938
    vertex 138.18601804181912 241.67342127860113 22.34632747942778
    vertex 138.33214474795764 242.09246269636589 22.346327479427703
  endloop
endfacet
facet normal -2.239214437294264e-18 -1.8023953380890754e-13 -1.0
  outer loop
    vertex 138.23629765124878 240.79487411025926 22.346327479427938
    vertex 138.33214474795764 242.09246269636589 22.346327479427703
    vertex 138.42927749452525 240.39523989733678 22.346327479428012
  endloop
endfacet
facet normal -2.239214437294264e-18 -1.8023953380890754e-13 -1.0
  outer loop
    vertex 138.42927749452525 240.39523989733678 22.346327479428012
    vertex 138.33214474795764 242.09246269636589 22.346327479427703
    vertex 138.58174820693168 242.45940524952292 22.34632747942764
  endloop
endfacet
facet normal -2.239214437294264e-18 -1.8023953380890754e-13 -1.0
  outer loop
    vertex 138.42927749452525 240.39523989733678 22.346327479428012
    vertex 138.58174820693168 242.45940524952292 22.34632747942764
    vertex 138.71911465447815 240.0591697487671 22.346327479428073
  endloop
endfacet
facet normal -2.239214437294264e-18 -1.8023953380890754e-13 -1.0
  outer loop
    vertex 138.71911465447815 240.0591697487671 22.346327479428073
    vertex 138.58174820693168 242.45940524952292 22.34632747942764
    vertex 138.9178183555013 242.74924240947578 22.346327479427586
  endloop
endfacet
facet normal -2.239214437294264e-18 -1.8023953380890754e-13 -1.0
  outer loop
    vertex 138.71911465447815 240.0591697487671 22.346327479428073
    vertex 138.9178183555013 242.74924240947578 22.346327479427586
    vertex 139.08605720763515 239.80956628979308 22.346327479428115
  endloop
endfacet
facet normal -2.239214437294264e-18 -1.8023953380890754e-13 -1.0
  outer loop
    vertex 139.08605720763515 239.80956628979308 22.346327479428115
    vertex 138.9178183555013 242.74924240947578 22.346327479427586
    vertex 139.3174525684238 242.94222225275226 22.346327479427554
  endloop
endfacet
facet normal -2.239214437294264e-18 -1.8023953380890754e-13 -1.0
  outer loop
    vertex 139.08605720763515 239.80956628979308 22.346327479428115
    vertex 139.3174525684238 242.94222225275226 22.346327479427554
    vertex 139.5050986253999 239.6634395836546 22.34632747942814
  endloop
endfacet
facet normal -2.239214437294264e-18 -1.8023953380890754e-13 -1.0
  outer loop
    vertex 139.5050986253999 239.6634395836546 22.34632747942814
    vertex 139.3174525684238 242.94222225275226 22.346327479427554
    vertex 139.75341643451517 243.02519352194733 22.346327479427536
  endloop
endfacet
facet normal -2.239214437294264e-18 -1.8023953380890754e-13 -1.0
  outer loop
    vertex 139.5050986253999 239.6634395836546 22.34632747942814
    vertex 139.75341643451517 243.02519352194733 22.346327479427536
    vertex 139.94768192765042 239.63074792388912 22.34632747942815
  endloop
endfacet
facet normal -2.239214437294264e-18 -1.8023953380890754e-13 -1.0
  outer loop
    vertex 139.94768192765042 239.63074792388912 22.34632747942815
    vertex 139.75341643451517 243.02519352194733 22.346327479427536
    vertex 140.19599973676569 242.99250186218188 22.346327479427543
  endloop
endfacet
facet normal -2.239214437294264e-18 -1.8023953380890754e-13 -1.0
  outer loop
    vertex 139.94768192765042 239.63074792388912 22.34632747942815
    vertex 140.19599973676569 242.99250186218188 22.346327479427543
    vertex 140.3836457937418 239.7137191930842 22.346327479428133
  endloop
endfacet
facet normal -2.239214437294264e-18 -1.8023953380890754e-13 -1.0
  outer loop
    vertex 140.3836457937418 239.7137191930842 22.346327479428133
    vertex 140.19599973676569 242.99250186218188 22.346327479427543
    vertex 140.61504115453042 242.8463751560434 22.34632747942757
  endloop
endfacet
facet normal -2.239214437294264e-18 -1.8023953380890754e-13 -1.0
  outer loop
    vertex 140.3836457937418 239.7137191930842 22.346327479428133
    vertex 140.61504115453042 242.8463751560434 22.34632747942757
    vertex 140.78328000666426 239.9066990363607 22.346327479428098
  endloop
endfacet
facet normal -2.239214437294264e-18 -1.8023953380890754e-13 -1.0
  outer loop
    vertex 140.78328000666426 239.9066990363607 22.346327479428098
    vertex 140.61504115453042 242.8463751560434 22.34632747942757
    vertex 140.98198370768745 242.59677169706939 22.346327479427615
  endloop
endfacet
facet normal -2.239214437294264e-18 -1.8023953380890754e-13 -1.0
  outer loop
    vertex 140.78328000666426 239.9066990363607 22.346327479428098
    vertex 140.98198370768745 242.59677169706939 22.346327479427615
    vertex 141.11935015523392 240.19653619631356 22.346327479428044
  endloop
endfacet
facet normal -2.239214437294264e-18 -1.8023953380890754e-13 -1.0
  outer loop
    vertex 141.11935015523392 240.19653619631356 22.346327479428044
    vertex 140.98198370768745 242.59677169706939 22.346327479427615
    vertex 141.27182086764032 242.2607015484997 22.346327479427675
  endloop
endfacet
facet normal -2.239214437294264e-18 -1.8023953380890754e-13 -1.0
  outer loop
    vertex 141.11935015523392 240.19653619631356 22.346327479428044
    vertex 141.27182086764032 242.2607015484997 22.346327479427675
    vertex 141.36895361420792 240.5634787494706 22.34632747942798
  endloop
endfacet
facet normal -2.239214437294264e-18 -1.8023953380890754e-13 -1.0
  outer loop
    vertex 141.36895361420792 240.5634787494706 22.34632747942798
    vertex 141.27182086764032 242.2607015484997 22.346327479427675
    vertex 141.4648007109168 241.86106733557722 22.346327479427746
  endloop
endfacet
facet normal -2.239214437294264e-18 -1.8023953380890754e-13 -1.0
  outer loop
    vertex 141.36895361420792 240.5634787494706 22.34632747942798
    vertex 141.4648007109168 241.86106733557722 22.346327479427746
    vertex 141.51508032034644 240.98252016723535 22.346327479427906
  endloop
endfacet
facet normal -2.239214437294264e-18 -1.8023953380890754e-13 -1.0
  outer loop
    vertex 141.51508032034644 240.98252016723535 22.346327479427906
    vertex 141.4648007109168 241.86106733557722 22.346327479427746
    vertex 141.5477719801119 241.4251034694859 22.346327479427824
  endloop
endfacet
facet normal -0.43484588394774837 0.9005048901664562 -1.623056078830622e-13
  outer loop
    vertex 140.3836457937418 239.71371919308388 21.000258504691942
    vertex 140.78328000666426 239.9066990363607 22.346327479428098
    vertex 140.78328000666426 239.90669903636038 21.000258504691907
  endloop
endfacet
facet normal -0.43484588394774837 0.9005048901664562 -1.623056078830622e-13
  outer loop
    vertex 140.78328000666426 239.9066990363607 22.346327479428098
    vertex 140.3836457937418 239.71371919308388 21.000258504691942
    vertex 140.3836457937418 239.7137191930842 22.346327479428133
  endloop
endfacet
facet normal -0.1869610539775557 0.9823673265615066 -1.7706101032265748e-13
  outer loop
    vertex 139.94768192765042 239.6307479238888 21.000258504691956
    vertex 140.3836457937418 239.7137191930842 22.346327479428133
    vertex 140.3836457937418 239.71371919308388 21.000258504691942
  endloop
endfacet
facet normal -0.1869610539775557 0.9823673265615066 -1.7706101032265748e-13
  outer loop
    vertex 140.3836457937418 239.7137191930842 22.346327479428133
    vertex 139.94768192765042 239.6307479238888 21.000258504691956
    vertex 139.94768192765042 239.63074792388912 22.34632747942815
  endloop
endfacet
facet normal 0.07366486285335963 0.9972830530901424 -1.7974999751591565e-13
  outer loop
    vertex 139.5050986253999 239.6634395836546 22.34632747942814
    vertex 139.94768192765042 239.6307479238888 21.000258504691956
    vertex 139.5050986253999 239.66343958365425 21.00025850469195
  endloop
endfacet
facet normal 0.07366486285335963 0.9972830530901424 -1.7974999751591565e-13
  outer loop
    vertex 139.94768192765042 239.6307479238888 21.000258504691956
    vertex 139.5050986253999 239.6634395836546 22.34632747942814
    vertex 139.94768192765042 239.63074792388912 22.34632747942815
  endloop
endfacet
facet normal 0.3292706410178388 0.9442355876388592 -1.7018931942938096e-13
  outer loop
    vertex 139.08605720763515 239.80956628979308 22.346327479428115
    vertex 139.5050986253999 239.66343958365425 21.00025850469195
    vertex 139.08605720763515 239.80956628979277 21.000258504691924
  endloop
endfacet
facet normal 0.3292706410178388 0.9442355876388592 -1.7018931942938096e-13
  outer loop
    vertex 139.5050986253999 239.66343958365425 21.00025850469195
    vertex 139.08605720763515 239.80956628979308 22.346327479428115
    vertex 139.5050986253999 239.6634395836546 22.34632747942814
  endloop
endfacet
facet normal 0.5624371691423847 0.8268400273130836 -1.4903052047488377e-13
  outer loop
    vertex 138.71911465447815 240.0591697487671 22.346327479428073
    vertex 139.08605720763515 239.80956628979277 21.000258504691924
    vertex 138.71911465447815 240.05916974876678 21.000258504691878
  endloop
endfacet
facet normal 0.5624371691423847 0.8268400273130836 -1.4903052047488377e-13
  outer loop
    vertex 139.08605720763515 239.80956628979277 21.000258504691924
    vertex 138.71911465447815 240.0591697487671 22.346327479428073
    vertex 139.08605720763515 239.80956628979308 22.346327479428115
  endloop
endfacet
facet normal 0.7572745336612875 0.6530966855436335 -1.1771553783459595e-13
  outer loop
    vertex 138.42927749452525 240.39523989733647 21.000258504691818
    vertex 138.71911465447815 240.0591697487671 22.346327479428073
    vertex 138.71911465447815 240.05916974876678 21.000258504691878
  endloop
endfacet
facet normal 0.7572745336612875 0.6530966855436335 -1.1771553783459595e-13
  outer loop
    vertex 138.71911465447815 240.0591697487671 22.346327479428073
    vertex 138.42927749452525 240.39523989733647 21.000258504691818
    vertex 138.42927749452525 240.39523989733678 22.346327479428012
  endloop
endfacet
facet normal 0.9005048901664562 0.43484588394774837 -7.837843582501537e-14
  outer loop
    vertex 138.23629765124878 240.79487411025895 21.000258504691747
    vertex 138.42927749452525 240.39523989733678 22.346327479428012
    vertex 138.42927749452525 240.39523989733647 21.000258504691818
  endloop
endfacet
facet normal 0.9005048901664562 0.43484588394774837 -7.837843582501537e-14
  outer loop
    vertex 138.42927749452525 240.39523989733678 22.346327479428012
    vertex 138.23629765124878 240.79487411025895 21.000258504691747
    vertex 138.23629765124878 240.79487411025926 22.346327479427938
  endloop
endfacet
facet normal 0.9823673265614973 0.18696105397760474 -3.369997294044584e-14
  outer loop
    vertex 138.15332638205368 241.23083797635033 21.00025850469167
    vertex 138.23629765124878 240.79487411025926 22.346327479427938
    vertex 138.23629765124878 240.79487411025895 21.000258504691747
  endloop
endfacet
facet normal 0.9823673265614973 0.18696105397760474 -3.369997294044584e-14
  outer loop
    vertex 138.23629765124878 240.79487411025926 22.346327479427938
    vertex 138.15332638205368 241.23083797635033 21.00025850469167
    vertex 138.15332638205368 241.23083797635064 22.34632747942786
  endloop
endfacet
facet normal 0.9972830530901421 -0.07366486285336336 1.3275087408176771e-14
  outer loop
    vertex 138.18601804181912 241.6734212786008 21.000258504691587
    vertex 138.15332638205368 241.23083797635064 22.34632747942786
    vertex 138.15332638205368 241.23083797635033 21.00025850469167
  endloop
endfacet
facet normal 0.9972830530901421 -0.07366486285336336 1.3275087408176771e-14
  outer loop
    vertex 138.15332638205368 241.23083797635064 22.34632747942786
    vertex 138.18601804181912 241.6734212786008 21.000258504691587
    vertex 138.18601804181912 241.67342127860113 22.34632747942778
  endloop
endfacet
facet normal 0.9442355876388592 -0.3292706410178388 5.934547248805537e-14
  outer loop
    vertex 138.33214474795764 242.09246269636557 21.000258504691512
    vertex 138.18601804181912 241.67342127860113 22.34632747942778
    vertex 138.18601804181912 241.6734212786008 21.000258504691587
  endloop
endfacet
facet normal 0.9442355876388592 -0.3292706410178388 5.934547248805537e-14
  outer loop
    vertex 138.18601804181912 241.67342127860113 22.34632747942778
    vertex 138.33214474795764 242.09246269636557 21.000258504691512
    vertex 138.33214474795764 242.09246269636589 22.346327479427703
  endloop
endfacet
facet normal 0.8268400273130759 -0.5624371691423957 1.0137156169090058e-13
  outer loop
    vertex 138.58174820693168 242.4594052495226 21.00025850469145
    vertex 138.33214474795764 242.09246269636589 22.346327479427703
    vertex 138.33214474795764 242.09246269636557 21.000258504691512
  endloop
endfacet
facet normal 0.8268400273130759 -0.5624371691423957 1.0137156169090058e-13
  outer loop
    vertex 138.33214474795764 242.09246269636589 22.346327479427703
    vertex 138.58174820693168 242.4594052495226 21.00025850469145
    vertex 138.58174820693168 242.45940524952292 22.34632747942764
  endloop
endfacet
facet normal 0.6530966855436838 -0.757274533661244 1.3648934648893322e-13
  outer loop
    vertex 138.9178183555013 242.74924240947578 22.346327479427586
    vertex 138.58174820693168 242.4594052495226 21.00025850469145
    vertex 138.9178183555013 242.74924240947547 21.000258504691395
  endloop
endfacet
facet normal 0.6530966855436838 -0.757274533661244 1.3648934648893322e-13
  outer loop
    vertex 138.58174820693168 242.4594052495226 21.00025850469145
    vertex 138.9178183555013 242.74924240947578 22.346327479427586
    vertex 138.58174820693168 242.45940524952292 22.34632747942764
  endloop
endfacet
facet normal 0.43484588394774837 -0.9005048901664562 1.623056078830622e-13
  outer loop
    vertex 139.3174525684238 242.94222225275226 22.346327479427554
    vertex 138.9178183555013 242.74924240947547 21.000258504691395
    vertex 139.3174525684238 242.94222225275195 21.00025850469136
  endloop
endfacet
facet normal 0.43484588394774837 -0.9005048901664562 1.623056078830622e-13
  outer loop
    vertex 138.9178183555013 242.74924240947547 21.000258504691395
    vertex 139.3174525684238 242.94222225275226 22.346327479427554
    vertex 138.9178183555013 242.74924240947578 22.346327479427586
  endloop
endfacet
facet normal 0.1869610539775557 -0.9823673265615066 1.7706101032265748e-13
  outer loop
    vertex 139.75341643451517 243.02519352194733 22.346327479427536
    vertex 139.3174525684238 242.94222225275195 21.00025850469136
    vertex 139.75341643451517 243.02519352194702 21.00025850469134
  endloop
endfacet
facet normal 0.1869610539775557 -0.9823673265615066 1.7706101032265748e-13
  outer loop
    vertex 139.3174525684238 242.94222225275195 21.00025850469136
    vertex 139.75341643451517 243.02519352194733 22.346327479427536
    vertex 139.3174525684238 242.94222225275226 22.346327479427554
  endloop
endfacet
facet normal -0.07366486285335963 -0.9972830530901424 1.7974999751591565e-13
  outer loop
    vertex 140.19599973676569 242.99250186218157 21.000258504691352
    vertex 139.75341643451517 243.02519352194733 22.346327479427536
    vertex 139.75341643451517 243.02519352194702 21.00025850469134
  endloop
endfacet
facet normal -0.07366486285335963 -0.9972830530901424 1.7974999751591565e-13
  outer loop
    vertex 139.75341643451517 243.02519352194733 22.346327479427536
    vertex 140.19599973676569 242.99250186218157 21.000258504691352
    vertex 140.19599973676569 242.99250186218188 22.346327479427543
  endloop
endfacet
facet normal -0.32927064101785464 -0.9442355876388537 1.7018931942937998e-13
  outer loop
    vertex 140.61504115453042 242.84637515604305 21.000258504691377
    vertex 140.19599973676569 242.99250186218188 22.346327479427543
    vertex 140.19599973676569 242.99250186218157 21.000258504691352
  endloop
endfacet
facet normal -0.32927064101785464 -0.9442355876388537 1.7018931942937998e-13
  outer loop
    vertex 140.19599973676569 242.99250186218188 22.346327479427543
    vertex 140.61504115453042 242.84637515604305 21.000258504691377
    vertex 140.61504115453042 242.8463751560434 22.34632747942757
  endloop
endfacet
facet normal -0.5624371691423611 -0.8268400273130997 1.4903052047488667e-13
  outer loop
    vertex 140.98198370768745 242.59677169706907 21.00025850469142
    vertex 140.61504115453042 242.8463751560434 22.34632747942757
    vertex 140.61504115453042 242.84637515604305 21.000258504691377
  endloop
endfacet
facet normal -0.5624371691423611 -0.8268400273130997 1.4903052047488667e-13
  outer loop
    vertex 140.61504115453042 242.8463751560434 22.34632747942757
    vertex 140.98198370768745 242.59677169706907 21.00025850469142
    vertex 140.98198370768745 242.59677169706939 22.346327479427615
  endloop
endfacet
facet normal -0.7572745336612875 -0.6530966855436335 1.1771553783459595e-13
  outer loop
    vertex 141.27182086764032 242.2607015484997 22.346327479427675
    vertex 140.98198370768745 242.59677169706907 21.00025850469142
    vertex 141.27182086764032 242.26070154849938 21.00025850469148
  endloop
endfacet
facet normal -0.7572745336612875 -0.6530966855436335 1.1771553783459595e-13
  outer loop
    vertex 140.98198370768745 242.59677169706907 21.00025850469142
    vertex 141.27182086764032 242.2607015484997 22.346327479427675
    vertex 140.98198370768745 242.59677169706939 22.346327479427615
  endloop
endfacet
facet normal -0.9005048901664562 -0.43484588394774837 7.837843582501537e-14
  outer loop
    vertex 141.4648007109168 241.86106733557722 22.346327479427746
    vertex 141.27182086764032 242.26070154849938 21.00025850469148
    vertex 141.4648007109168 241.8610673355769 21.000258504691555
  endloop
endfacet
facet normal -0.9005048901664562 -0.43484588394774837 7.837843582501537e-14
  outer loop
    vertex 141.27182086764032 242.26070154849938 21.00025850469148
    vertex 141.4648007109168 241.86106733557722 22.346327479427746
    vertex 141.27182086764032 242.2607015484997 22.346327479427675
  endloop
endfacet
facet normal -0.9823673265614937 -0.18696105397762341 3.36999729404492e-14
  outer loop
    vertex 141.5477719801119 241.4251034694859 22.346327479427824
    vertex 141.4648007109168 241.8610673355769 21.000258504691555
    vertex 141.5477719801119 241.42510346948555 21.000258504691633
  endloop
endfacet
facet normal -0.9823673265614937 -0.18696105397762341 3.36999729404492e-14
  outer loop
    vertex 141.4648007109168 241.8610673355769 21.000258504691555
    vertex 141.5477719801119 241.4251034694859 22.346327479427824
    vertex 141.4648007109168 241.86106733557722 22.346327479427746
  endloop
endfacet
facet normal -0.9972830530901428 0.0736648628533559 -1.3275087408175425e-14
  outer loop
    vertex 141.51508032034644 240.98252016723535 22.346327479427906
    vertex 141.5477719801119 241.42510346948555 21.000258504691633
    vertex 141.51508032034644 240.98252016723504 21.00025850469171
  endloop
endfacet
facet normal -0.9972830530901428 0.0736648628533559 -1.3275087408175425e-14
  outer loop
    vertex 141.5477719801119 241.42510346948555 21.000258504691633
    vertex 141.51508032034644 240.98252016723535 22.346327479427906
    vertex 141.5477719801119 241.4251034694859 22.346327479427824
  endloop
endfacet
facet normal -0.9442355876388592 0.3292706410178388 -5.934547248805537e-14
  outer loop
    vertex 141.36895361420792 240.5634787494706 22.34632747942798
    vertex 141.51508032034644 240.98252016723504 21.00025850469171
    vertex 141.36895361420792 240.56347874947028 21.00025850469179
  endloop
endfacet
facet normal -0.9442355876388592 0.3292706410178388 -5.934547248805537e-14
  outer loop
    vertex 141.51508032034644 240.98252016723504 21.00025850469171
    vertex 141.36895361420792 240.5634787494706 22.34632747942798
    vertex 141.51508032034644 240.98252016723535 22.346327479427906
  endloop
endfacet
facet normal -0.8268400273130759 0.5624371691423957 -1.0137156169090058e-13
  outer loop
    vertex 141.11935015523392 240.19653619631356 22.346327479428044
    vertex 141.36895361420792 240.56347874947028 21.00025850469179
    vertex 141.11935015523392 240.19653619631325 21.000258504691853
  endloop
endfacet
facet normal -0.8268400273130759 0.5624371691423957 -1.0137156169090058e-13
  outer loop
    vertex 141.36895361420792 240.56347874947028 21.00025850469179
    vertex 141.11935015523392 240.19653619631356 22.346327479428044
    vertex 141.36895361420792 240.5634787494706 22.34632747942798
  endloop
endfacet
facet normal -0.6530966855436838 0.757274533661244 -1.3648934648893322e-13
  outer loop
    vertex 140.78328000666426 239.90669903636038 21.000258504691907
    vertex 141.11935015523392 240.19653619631356 22.346327479428044
    vertex 141.11935015523392 240.19653619631325 21.000258504691853
  endloop
endfacet
facet normal -0.6530966855436838 0.757274533661244 -1.3648934648893322e-13
  outer loop
    vertex 141.11935015523392 240.19653619631356 22.346327479428044
    vertex 140.78328000666426 239.90669903636038 21.000258504691907
    vertex 140.78328000666426 239.9066990363607 22.346327479428098
  endloop
endfacet
facet normal -1.1423732730425223e-30 1.7968290926079767e-13 1.0
  outer loop
    vertex 137.62891978061796 240.7326869191828 25.500085054821966
    vertex 137.62891978061796 241.92325452665438 25.500085054821753
    vertex 137.5505491810828 241.3279707229186 25.50008505482186
  endloop
endfacet
facet normal -1.1423732730425223e-30 1.7968290926079767e-13 1.0
  outer loop
    vertex 137.62891978061796 241.92325452665438 25.500085054821753
    vertex 137.62891978061796 240.7326869191828 25.500085054821966
    vertex 137.85869075237858 240.1779707229186 25.50008505482207
  endloop
endfacet
facet normal -1.1423732730425223e-30 1.7968290926079767e-13 1.0
  outer loop
    vertex 137.62891978061796 241.92325452665438 25.500085054821753
    vertex 137.85869075237858 240.1779707229186 25.50008505482207
    vertex 137.85869075237858 242.4779707229186 25.50008505482165
  endloop
endfacet
facet normal -1.1423732730425223e-30 1.7968290926079767e-13 1.0
  outer loop
    vertex 137.85869075237858 242.4779707229186 25.50008505482165
    vertex 137.85869075237858 240.1779707229186 25.50008505482207
    vertex 138.22420358435375 239.70162512618953 25.500085054822154
  endloop
endfacet
facet normal -1.1423732730425223e-30 1.7968290926079767e-13 1.0
  outer loop
    vertex 137.85869075237858 242.4779707229186 25.50008505482165
    vertex 138.22420358435375 239.70162512618953 25.500085054822154
    vertex 138.22420358435375 242.95431631964766 25.500085054821568
  endloop
endfacet
facet normal -1.1423732730425223e-30 1.7968290926079767e-13 1.0
  outer loop
    vertex 138.22420358435375 242.95431631964766 25.500085054821568
    vertex 138.22420358435375 239.70162512618953 25.500085054822154
    vertex 138.7005491810828 239.33611229421442 25.500085054822215
  endloop
endfacet
facet normal -1.1423732730425223e-30 1.7968290926079767e-13 1.0
  outer loop
    vertex 138.22420358435375 242.95431631964766 25.500085054821568
    vertex 138.7005491810828 239.33611229421442 25.500085054822215
    vertex 138.70054918108278 243.3198291516228 25.500085054821504
  endloop
endfacet
facet normal -1.1423732730425223e-30 1.7968290926079767e-13 1.0
  outer loop
    vertex 138.70054918108278 243.3198291516228 25.500085054821504
    vertex 138.7005491810828 239.33611229421442 25.500085054822215
    vertex 139.25526537734697 243.54960012338344 25.500085054821458
  endloop
endfacet
facet normal -1.1423732730425223e-30 1.7968290926079767e-13 1.0
  outer loop
    vertex 139.25526537734697 243.54960012338344 25.500085054821458
    vertex 138.7005491810828 239.33611229421442 25.500085054822215
    vertex 139.25526537734697 239.10634132245374 25.50008505482226
  endloop
endfacet
facet normal -1.1423732730425223e-30 1.7968290926079767e-13 1.0
  outer loop
    vertex 139.25526537734697 243.54960012338344 25.500085054821458
    vertex 139.25526537734697 239.10634132245374 25.50008505482226
    vertex 139.85054918108278 239.02797072291858 25.50008505482227
  endloop
endfacet
facet normal -1.1423732730425223e-30 1.7968290926079767e-13 1.0
  outer loop
    vertex 139.25526537734697 243.54960012338344 25.500085054821458
    vertex 139.85054918108278 239.02797072291858 25.50008505482227
    vertex 139.85054918108278 243.6279707229186 25.500085054821447
  endloop
endfacet
facet normal -1.1423732730425223e-30 1.7968290926079767e-13 1.0
  outer loop
    vertex 139.85054918108278 243.6279707229186 25.500085054821447
    vertex 139.85054918108278 239.02797072291858 25.50008505482227
    vertex 140.4458329848186 239.10634132245374 25.50008505482226
  endloop
endfacet
facet normal -1.1423732730425223e-30 1.7968290926079767e-13 1.0
  outer loop
    vertex 139.85054918108278 243.6279707229186 25.500085054821447
    vertex 140.4458329848186 239.10634132245374 25.50008505482226
    vertex 140.4458329848186 243.54960012338344 25.500085054821458
  endloop
endfacet
facet normal -1.1423732730425223e-30 1.7968290926079767e-13 1.0
  outer loop
    vertex 140.4458329848186 243.54960012338344 25.500085054821458
    vertex 140.4458329848186 239.10634132245374 25.50008505482226
    vertex 141.0005491810828 239.33611229421442 25.500085054822215
  endloop
endfacet
facet normal -1.1423732730425223e-30 1.7968290926079767e-13 1.0
  outer loop
    vertex 140.4458329848186 243.54960012338344 25.500085054821458
    vertex 141.0005491810828 239.33611229421442 25.500085054822215
    vertex 141.0005491810828 243.3198291516228 25.500085054821504
  endloop
endfacet
facet normal -1.1423732730425223e-30 1.7968290926079767e-13 1.0
  outer loop
    vertex 141.0005491810828 243.3198291516228 25.500085054821504
    vertex 141.0005491810828 239.33611229421442 25.500085054822215
    vertex 141.47689477781185 239.70162512618953 25.500085054822154
  endloop
endfacet
facet normal -1.1423732730425223e-30 1.7968290926079767e-13 1.0
  outer loop
    vertex 141.0005491810828 243.3198291516228 25.500085054821504
    vertex 141.47689477781185 239.70162512618953 25.500085054822154
    vertex 141.47689477781185 242.95431631964766 25.500085054821568
  endloop
endfacet
facet normal -1.1423732730425223e-30 1.7968290926079767e-13 1.0
  outer loop
    vertex 141.47689477781185 242.95431631964766 25.500085054821568
    vertex 141.47689477781185 239.70162512618953 25.500085054822154
    vertex 141.84240760978702 240.1779707229186 25.50008505482207
  endloop
endfacet
facet normal -1.1423732730425223e-30 1.7968290926079767e-13 1.0
  outer loop
    vertex 141.47689477781185 242.95431631964766 25.500085054821568
    vertex 141.84240760978702 240.1779707229186 25.50008505482207
    vertex 141.84240760978702 242.4779707229186 25.50008505482165
  endloop
endfacet
facet normal -1.1423732730425223e-30 1.7968290926079767e-13 1.0
  outer loop
    vertex 141.84240760978702 242.4779707229186 25.50008505482165
    vertex 141.84240760978702 240.1779707229186 25.50008505482207
    vertex 142.07217858154763 240.7326869191828 25.500085054821966
  endloop
endfacet
facet normal -1.1423732730425223e-30 1.7968290926079767e-13 1.0
  outer loop
    vertex 141.84240760978702 242.4779707229186 25.50008505482165
    vertex 142.07217858154763 240.7326869191828 25.500085054821966
    vertex 142.07217858154763 241.92325452665438 25.500085054821753
  endloop
endfacet
facet normal -1.1423732730425223e-30 1.7968290926079767e-13 1.0
  outer loop
    vertex 142.07217858154763 241.92325452665438 25.500085054821753
    vertex 142.07217858154763 240.7326869191828 25.500085054821966
    vertex 142.1505491810828 241.3279707229186 25.50008505482186
  endloop
endfacet
facet normal 4.648186484625036e-29 1.804566353649688e-13 1.0
  outer loop
    vertex 135.9868458759265 240.29269454250766 21.500258504691832
    vertex 135.9868458759265 242.36324690332782 21.50025850469146
    vertex 135.85054918108276 241.32797072291774 21.500258504691647
  endloop
endfacet
facet normal 4.648186484625036e-29 1.804566353649688e-13 1.0
  outer loop
    vertex 135.9868458759265 242.36324690332782 21.50025850469146
    vertex 135.9868458759265 240.29269454250766 21.500258504691832
    vertex 136.386447565945 239.32797072291774 21.500258504692006
  endloop
endfacet
facet normal 4.648186484625036e-29 1.804566353649688e-13 1.0
  outer loop
    vertex 135.9868458759265 242.36324690332782 21.50025850469146
    vertex 136.386447565945 239.32797072291774 21.500258504692006
    vertex 136.386447565945 243.32797072291774 21.500258504691285
  endloop
endfacet
facet normal 4.648186484625036e-29 1.804566353649688e-13 1.0
  outer loop
    vertex 136.386447565945 243.32797072291774 21.500258504691285
    vertex 136.386447565945 239.32797072291774 21.500258504692006
    vertex 137.02212205633654 238.49954359817156 21.500258504692155
  endloop
endfacet
facet normal 4.648186484625036e-29 1.804566353649688e-13 1.0
  outer loop
    vertex 136.386447565945 243.32797072291774 21.500258504691285
    vertex 137.02212205633654 238.49954359817156 21.500258504692155
    vertex 137.02212205633657 244.15639784766392 21.500258504691136
  endloop
endfacet
facet normal 4.648186484625036e-29 1.804566353649688e-13 1.0
  outer loop
    vertex 137.02212205633657 244.15639784766392 21.500258504691136
    vertex 137.02212205633654 238.49954359817156 21.500258504692155
    vertex 137.85054918108276 237.86386910778 21.500258504692273
  endloop
endfacet
facet normal 4.648186484625036e-29 1.804566353649688e-13 1.0
  outer loop
    vertex 137.02212205633657 244.15639784766392 21.500258504691136
    vertex 137.85054918108276 237.86386910778 21.500258504692273
    vertex 137.5505491810828 241.3279707229181 21.500258504691637
  endloop
endfacet
facet normal 4.648186484625036e-29 1.804566353649688e-13 1.0
  outer loop
    vertex 137.5505491810828 241.3279707229181 21.500258504691637
    vertex 137.85054918108276 237.86386910778 21.500258504692273
    vertex 137.62891978061796 240.73268691918233 21.500258504691747
  endloop
endfacet
facet normal 4.648186484625036e-29 1.804566353649688e-13 1.0
  outer loop
    vertex 137.62891978061796 240.73268691918233 21.500258504691747
    vertex 137.85054918108276 237.86386910778 21.500258504692273
    vertex 137.85869075237858 240.1779707229181 21.500258504691846
  endloop
endfacet
facet normal 4.648186484625036e-29 1.804566353649688e-13 1.0
  outer loop
    vertex 137.85869075237858 240.1779707229181 21.500258504691846
    vertex 137.85054918108276 237.86386910778 21.500258504692273
    vertex 138.81527300067265 237.4642674177615 21.500258504692344
  endloop
endfacet
facet normal 4.648186484625036e-29 1.804566353649688e-13 1.0
  outer loop
    vertex 137.85869075237858 240.1779707229181 21.500258504691846
    vertex 138.81527300067265 237.4642674177615 21.500258504692344
    vertex 138.22420358435375 239.70162512618904 21.50025850469193
  endloop
endfacet
facet normal 4.648186484625036e-29 1.804566353649688e-13 1.0
  outer loop
    vertex 138.22420358435375 239.70162512618904 21.50025850469193
    vertex 138.81527300067265 237.4642674177615 21.500258504692344
    vertex 138.7005491810828 239.3361122942139 21.500258504691992
  endloop
endfacet
facet normal 4.648186484625036e-29 1.804566353649688e-13 1.0
  outer loop
    vertex 138.7005491810828 239.3361122942139 21.500258504691992
    vertex 138.81527300067265 237.4642674177615 21.500258504692344
    vertex 139.25526537734697 239.10634132245326 21.500258504692038
  endloop
endfacet
facet normal 4.648186484625036e-29 1.804566353649688e-13 1.0
  outer loop
    vertex 139.25526537734697 239.10634132245326 21.500258504692038
    vertex 138.81527300067265 237.4642674177615 21.500258504692344
    vertex 139.85054918108276 237.32797072291774 21.50025850469237
  endloop
endfacet
facet normal 4.648186484625036e-29 1.804566353649688e-13 1.0
  outer loop
    vertex 139.25526537734697 239.10634132245326 21.500258504692038
    vertex 139.85054918108276 237.32797072291774 21.50025850469237
    vertex 139.85054918108278 239.02797072291807 21.50025850469205
  endloop
endfacet
facet normal 4.648186484625036e-29 1.804566353649688e-13 1.0
  outer loop
    vertex 139.85054918108278 239.02797072291807 21.50025850469205
    vertex 139.85054918108276 237.32797072291774 21.50025850469237
    vertex 140.8858253614928 237.46426741776145 21.500258504692344
  endloop
endfacet
facet normal 4.648186484625036e-29 1.804566353649688e-13 1.0
  outer loop
    vertex 139.85054918108278 239.02797072291807 21.50025850469205
    vertex 140.8858253614928 237.46426741776145 21.500258504692344
    vertex 140.4458329848186 239.10634132245326 21.500258504692038
  endloop
endfacet
facet normal 4.648186484625036e-29 1.804566353649688e-13 1.0
  outer loop
    vertex 140.4458329848186 239.10634132245326 21.500258504692038
    vertex 140.8858253614928 237.46426741776145 21.500258504692344
    vertex 141.0005491810828 239.3361122942139 21.500258504691992
  endloop
endfacet
facet normal 4.648186484625036e-29 1.804566353649688e-13 1.0
  outer loop
    vertex 141.0005491810828 239.3361122942139 21.500258504691992
    vertex 140.8858253614928 237.46426741776145 21.500258504692344
    vertex 141.85054918108276 237.86386910778 21.500258504692273
  endloop
endfacet
facet normal 4.648186484625036e-29 1.804566353649688e-13 1.0
  outer loop
    vertex 141.0005491810828 239.3361122942139 21.500258504691992
    vertex 141.85054918108276 237.86386910778 21.500258504692273
    vertex 141.47689477781185 239.70162512618904 21.50025850469193
  endloop
endfacet
facet normal 4.648186484625036e-29 1.804566353649688e-13 1.0
  outer loop
    vertex 141.47689477781185 239.70162512618904 21.50025850469193
    vertex 141.85054918108276 237.86386910778 21.500258504692273
    vertex 141.84240760978702 240.1779707229181 21.500258504691846
  endloop
endfacet
facet normal 4.648186484625036e-29 1.804566353649688e-13 1.0
  outer loop
    vertex 141.84240760978702 240.1779707229181 21.500258504691846
    vertex 141.85054918108276 237.86386910778 21.500258504692273
    vertex 142.07217858154763 240.73268691918233 21.500258504691747
  endloop
endfacet
facet normal 4.648186484625036e-29 1.804566353649688e-13 1.0
  outer loop
    vertex 142.07217858154763 240.73268691918233 21.500258504691747
    vertex 141.85054918108276 237.86386910778 21.500258504692273
    vertex 142.6789763058289 238.49954359817156 21.500258504692155
  endloop
endfacet
facet normal 4.648186484625036e-29 1.804566353649688e-13 1.0
  outer loop
    vertex 142.07217858154763 240.73268691918233 21.500258504691747
    vertex 142.6789763058289 238.49954359817156 21.500258504692155
    vertex 142.1505491810828 241.3279707229181 21.500258504691637
  endloop
endfacet
facet normal 4.648186484625036e-29 1.804566353649688e-13 1.0
  outer loop
    vertex 137.5505491810828 241.3279707229181 21.500258504691637
    vertex 137.85054918108276 244.79207233805548 21.500258504691022
    vertex 137.02212205633657 244.15639784766392 21.500258504691136
  endloop
endfacet
facet normal 4.648186484625036e-29 1.804566353649688e-13 1.0
  outer loop
    vertex 137.85054918108276 244.79207233805548 21.500258504691022
    vertex 137.5505491810828 241.3279707229181 21.500258504691637
    vertex 137.62891978061796 241.9232545266539 21.50025850469153
  endloop
endfacet
facet normal 4.648186484625036e-29 1.804566353649688e-13 1.0
  outer loop
    vertex 137.85054918108276 244.79207233805548 21.500258504691022
    vertex 137.62891978061796 241.9232545266539 21.50025850469153
    vertex 137.85869075237858 242.47797072291812 21.50025850469143
  endloop
endfacet
facet normal 4.648186484625036e-29 1.804566353649688e-13 1.0
  outer loop
    vertex 137.85054918108276 244.79207233805548 21.500258504691022
    vertex 137.85869075237858 242.47797072291812 21.50025850469143
    vertex 138.81527300067265 245.19167402807403 21.50025850469095
  endloop
endfacet
facet normal 4.648186484625036e-29 1.804566353649688e-13 1.0
  outer loop
    vertex 138.81527300067265 245.19167402807403 21.50025850469095
    vertex 137.85869075237858 242.47797072291812 21.50025850469143
    vertex 138.22420358435375 242.95431631964715 21.500258504691345
  endloop
endfacet
facet normal 4.648186484625036e-29 1.804566353649688e-13 1.0
  outer loop
    vertex 138.81527300067265 245.19167402807403 21.50025850469095
    vertex 138.22420358435375 242.95431631964715 21.500258504691345
    vertex 138.70054918108278 243.3198291516223 21.50025850469128
  endloop
endfacet
facet normal 4.648186484625036e-29 1.804566353649688e-13 1.0
  outer loop
    vertex 138.81527300067265 245.19167402807403 21.50025850469095
    vertex 138.70054918108278 243.3198291516223 21.50025850469128
    vertex 139.25526537734697 243.54960012338293 21.50025850469124
  endloop
endfacet
facet normal 4.648186484625036e-29 1.804566353649688e-13 1.0
  outer loop
    vertex 138.81527300067265 245.19167402807403 21.50025850469095
    vertex 139.25526537734697 243.54960012338293 21.50025850469124
    vertex 139.85054918108276 245.32797072291774 21.500258504690926
  endloop
endfacet
facet normal 4.648186484625036e-29 1.804566353649688e-13 1.0
  outer loop
    vertex 139.85054918108276 245.32797072291774 21.500258504690926
    vertex 139.25526537734697 243.54960012338293 21.50025850469124
    vertex 139.85054918108278 243.62797072291812 21.500258504691224
  endloop
endfacet
facet normal 4.648186484625036e-29 1.804566353649688e-13 1.0
  outer loop
    vertex 139.85054918108276 245.32797072291774 21.500258504690926
    vertex 139.85054918108278 243.62797072291812 21.500258504691224
    vertex 140.88582536149283 245.19167402807403 21.50025850469095
  endloop
endfacet
facet normal 4.648186484625036e-29 1.804566353649688e-13 1.0
  outer loop
    vertex 140.88582536149283 245.19167402807403 21.50025850469095
    vertex 139.85054918108278 243.62797072291812 21.500258504691224
    vertex 140.4458329848186 243.54960012338293 21.50025850469124
  endloop
endfacet
facet normal 4.648186484625036e-29 1.804566353649688e-13 1.0
  outer loop
    vertex 140.88582536149283 245.19167402807403 21.50025850469095
    vertex 140.4458329848186 243.54960012338293 21.50025850469124
    vertex 141.0005491810828 243.3198291516223 21.50025850469128
  endloop
endfacet
facet normal 4.648186484625036e-29 1.804566353649688e-13 1.0
  outer loop
    vertex 140.88582536149283 245.19167402807403 21.50025850469095
    vertex 141.0005491810828 243.3198291516223 21.50025850469128
    vertex 141.85054918108276 244.79207233805548 21.500258504691022
  endloop
endfacet
facet normal 4.648186484625036e-29 1.804566353649688e-13 1.0
  outer loop
    vertex 141.85054918108276 244.79207233805548 21.500258504691022
    vertex 141.0005491810828 243.3198291516223 21.50025850469128
    vertex 141.47689477781185 242.95431631964715 21.500258504691345
  endloop
endfacet
facet normal 4.648186484625036e-29 1.804566353649688e-13 1.0
  outer loop
    vertex 141.85054918108276 244.79207233805548 21.500258504691022
    vertex 141.47689477781185 242.95431631964715 21.500258504691345
    vertex 141.84240760978702 242.47797072291812 21.50025850469143
  endloop
endfacet
facet normal 4.648186484625036e-29 1.804566353649688e-13 1.0
  outer loop
    vertex 141.85054918108276 244.79207233805548 21.500258504691022
    vertex 141.84240760978702 242.47797072291812 21.50025850469143
    vertex 142.07217858154763 241.9232545266539 21.50025850469153
  endloop
endfacet
facet normal 4.648186484625036e-29 1.804566353649688e-13 1.0
  outer loop
    vertex 141.85054918108276 244.79207233805548 21.500258504691022
    vertex 142.07217858154763 241.9232545266539 21.50025850469153
    vertex 142.6789763058289 244.15639784766392 21.500258504691136
  endloop
endfacet
facet normal 4.648186484625036e-29 1.804566353649688e-13 1.0
  outer loop
    vertex 142.6789763058289 244.15639784766392 21.500258504691136
    vertex 142.07217858154763 241.9232545266539 21.50025850469153
    vertex 142.1505491810828 241.3279707229181 21.500258504691637
  endloop
endfacet
facet normal 4.648186484625036e-29 1.804566353649688e-13 1.0
  outer loop
    vertex 142.6789763058289 244.15639784766392 21.500258504691136
    vertex 142.1505491810828 241.3279707229181 21.500258504691637
    vertex 142.6789763058289 238.49954359817156 21.500258504692155
  endloop
endfacet
facet normal 4.648186484625036e-29 1.804566353649688e-13 1.0
  outer loop
    vertex 142.6789763058289 244.15639784766392 21.500258504691136
    vertex 142.6789763058289 238.49954359817156 21.500258504692155
    vertex 143.3146507962205 239.32797072291774 21.500258504692006
  endloop
endfacet
facet normal 4.648186484625036e-29 1.804566353649688e-13 1.0
  outer loop
    vertex 142.6789763058289 244.15639784766392 21.500258504691136
    vertex 143.3146507962205 239.32797072291774 21.500258504692006
    vertex 143.3146507962205 243.32797072291774 21.500258504691285
  endloop
endfacet
facet normal 4.648186484625036e-29 1.804566353649688e-13 1.0
  outer loop
    vertex 143.3146507962205 243.32797072291774 21.500258504691285
    vertex 143.3146507962205 239.32797072291774 21.500258504692006
    vertex 143.71425248623902 240.29269454250766 21.500258504691832
  endloop
endfacet
facet normal 4.648186484625036e-29 1.804566353649688e-13 1.0
  outer loop
    vertex 143.3146507962205 243.32797072291774 21.500258504691285
    vertex 143.71425248623902 240.29269454250766 21.500258504691832
    vertex 143.71425248623902 242.36324690332782 21.50025850469146
  endloop
endfacet
facet normal 4.648186484625036e-29 1.804566353649688e-13 1.0
  outer loop
    vertex 143.71425248623902 242.36324690332782 21.50025850469146
    vertex 143.71425248623902 240.29269454250766 21.500258504691832
    vertex 143.85054918108273 241.32797072291774 21.500258504691647
  endloop
endfacet
facet normal 0.6087614290086937 -0.7933533402912559 1.4255203625530446e-13
  outer loop
    vertex 141.47689477781185 239.70162512618953 25.500085054822154
    vertex 141.0005491810828 239.3361122942139 21.500258504691992
    vertex 141.47689477781185 239.70162512618904 21.50025850469193
  endloop
endfacet
facet normal 0.6087614290086937 -0.7933533402912559 1.4255203625530446e-13
  outer loop
    vertex 141.0005491810828 239.3361122942139 21.500258504691992
    vertex 141.47689477781185 239.70162512618953 25.500085054822154
    vertex 141.0005491810828 239.33611229421442 25.500085054822215
  endloop
endfacet
facet normal 0.7933533402912237 -0.6087614290087354 1.0938402461005012e-13
  outer loop
    vertex 141.84240760978702 240.1779707229181 21.500258504691846
    vertex 141.47689477781185 239.70162512618953 25.500085054822154
    vertex 141.47689477781185 239.70162512618904 21.50025850469193
  endloop
endfacet
facet normal 0.7933533402912237 -0.6087614290087354 1.0938402461005012e-13
  outer loop
    vertex 141.47689477781185 239.70162512618953 25.500085054822154
    vertex 141.84240760978702 240.1779707229181 21.500258504691846
    vertex 141.84240760978702 240.1779707229186 25.50008505482207
  endloop
endfacet
facet normal 0.9238795325113051 -0.3826834323650455 6.876167245325907e-14
  outer loop
    vertex 142.07217858154763 240.73268691918233 21.500258504691747
    vertex 141.84240760978702 240.1779707229186 25.50008505482207
    vertex 141.84240760978702 240.1779707229181 21.500258504691846
  endloop
endfacet
facet normal 0.9238795325113051 -0.3826834323650455 6.876167245325907e-14
  outer loop
    vertex 141.84240760978702 240.1779707229186 25.50008505482207
    vertex 142.07217858154763 240.73268691918233 21.500258504691747
    vertex 142.07217858154763 240.7326869191828 25.500085054821966
  endloop
endfacet
facet normal 0.9914448613738078 -0.13052619222007245 2.3453325952836715e-14
  outer loop
    vertex 142.1505491810828 241.3279707229181 21.500258504691637
    vertex 142.07217858154763 240.7326869191828 25.500085054821966
    vertex 142.07217858154763 240.73268691918233 21.500258504691747
  endloop
endfacet
facet normal 0.9914448613738078 -0.13052619222007245 2.3453325952836715e-14
  outer loop
    vertex 142.07217858154763 240.7326869191828 25.500085054821966
    vertex 142.1505491810828 241.3279707229181 21.500258504691637
    vertex 142.1505491810828 241.3279707229186 25.50008505482186
  endloop
endfacet
facet normal 0.9914448613738078 0.13052619222007245 -2.3453325952836715e-14
  outer loop
    vertex 142.07217858154763 241.9232545266539 21.50025850469153
    vertex 142.1505491810828 241.3279707229186 25.50008505482186
    vertex 142.1505491810828 241.3279707229181 21.500258504691637
  endloop
endfacet
facet normal 0.9914448613738078 0.13052619222007245 -2.3453325952836715e-14
  outer loop
    vertex 142.1505491810828 241.3279707229186 25.50008505482186
    vertex 142.07217858154763 241.9232545266539 21.50025850469153
    vertex 142.07217858154763 241.92325452665438 25.500085054821753
  endloop
endfacet
facet normal 0.9238795325113051 0.3826834323650455 -6.876167245325907e-14
  outer loop
    vertex 141.84240760978702 242.47797072291812 21.50025850469143
    vertex 142.07217858154763 241.92325452665438 25.500085054821753
    vertex 142.07217858154763 241.9232545266539 21.50025850469153
  endloop
endfacet
facet normal 0.9238795325113051 0.3826834323650455 -6.876167245325907e-14
  outer loop
    vertex 142.07217858154763 241.92325452665438 25.500085054821753
    vertex 141.84240760978702 242.47797072291812 21.50025850469143
    vertex 141.84240760978702 242.4779707229186 25.50008505482165
  endloop
endfacet
facet normal 0.7933533402912237 0.6087614290087354 -1.0938402461005012e-13
  outer loop
    vertex 141.47689477781185 242.95431631964715 21.500258504691345
    vertex 141.84240760978702 242.4779707229186 25.50008505482165
    vertex 141.84240760978702 242.47797072291812 21.50025850469143
  endloop
endfacet
facet normal 0.7933533402912237 0.6087614290087354 -1.0938402461005012e-13
  outer loop
    vertex 141.84240760978702 242.4779707229186 25.50008505482165
    vertex 141.47689477781185 242.95431631964715 21.500258504691345
    vertex 141.47689477781185 242.95431631964766 25.500085054821568
  endloop
endfacet
facet normal 0.6087614290086937 0.7933533402912559 -1.4255203625530446e-13
  outer loop
    vertex 141.0005491810828 243.3198291516228 25.500085054821504
    vertex 141.47689477781185 242.95431631964715 21.500258504691345
    vertex 141.0005491810828 243.3198291516223 21.50025850469128
  endloop
endfacet
facet normal 0.6087614290086937 0.7933533402912559 -1.4255203625530446e-13
  outer loop
    vertex 141.47689477781185 242.95431631964715 21.500258504691345
    vertex 141.0005491810828 243.3198291516228 25.500085054821504
    vertex 141.47689477781185 242.95431631964766 25.500085054821568
  endloop
endfacet
facet normal 0.38268343236510427 0.923879532511281 -1.6600536220813266e-13
  outer loop
    vertex 140.4458329848186 243.54960012338344 25.500085054821458
    vertex 141.0005491810828 243.3198291516223 21.50025850469128
    vertex 140.4458329848186 243.54960012338293 21.50025850469124
  endloop
endfacet
facet normal 0.38268343236510427 0.923879532511281 -1.6600536220813266e-13
  outer loop
    vertex 141.0005491810828 243.3198291516223 21.50025850469128
    vertex 140.4458329848186 243.54960012338344 25.500085054821458
    vertex 141.0005491810828 243.3198291516228 25.500085054821504
  endloop
endfacet
facet normal 0.1305261922201045 0.9914448613738036 -1.7814569706331328e-13
  outer loop
    vertex 139.85054918108278 243.6279707229186 25.500085054821447
    vertex 140.4458329848186 243.54960012338293 21.50025850469124
    vertex 139.85054918108278 243.62797072291812 21.500258504691224
  endloop
endfacet
facet normal 0.1305261922201045 0.9914448613738036 -1.7814569706331328e-13
  outer loop
    vertex 140.4458329848186 243.54960012338293 21.50025850469124
    vertex 139.85054918108278 243.6279707229186 25.500085054821447
    vertex 140.4458329848186 243.54960012338344 25.500085054821458
  endloop
endfacet
facet normal -0.1305261922201045 0.9914448613738036 -1.7814569706331328e-13
  outer loop
    vertex 139.25526537734697 243.54960012338293 21.50025850469124
    vertex 139.85054918108278 243.6279707229186 25.500085054821447
    vertex 139.85054918108278 243.62797072291812 21.500258504691224
  endloop
endfacet
facet normal -0.1305261922201045 0.9914448613738036 -1.7814569706331328e-13
  outer loop
    vertex 139.85054918108278 243.6279707229186 25.500085054821447
    vertex 139.25526537734697 243.54960012338293 21.50025850469124
    vertex 139.25526537734697 243.54960012338344 25.500085054821458
  endloop
endfacet
facet normal -0.3826834323650909 0.9238795325112864 -1.6600536220813365e-13
  outer loop
    vertex 138.70054918108278 243.3198291516223 21.50025850469128
    vertex 139.25526537734697 243.54960012338344 25.500085054821458
    vertex 139.25526537734697 243.54960012338293 21.50025850469124
  endloop
endfacet
facet normal -0.3826834323650909 0.9238795325112864 -1.6600536220813365e-13
  outer loop
    vertex 139.25526537734697 243.54960012338344 25.500085054821458
    vertex 138.70054918108278 243.3198291516223 21.50025850469128
    vertex 138.70054918108278 243.3198291516228 25.500085054821504
  endloop
endfacet
facet normal -0.6087614290087118 0.7933533402912419 -1.4255203625530197e-13
  outer loop
    vertex 138.22420358435375 242.95431631964715 21.500258504691345
    vertex 138.70054918108278 243.3198291516228 25.500085054821504
    vertex 138.70054918108278 243.3198291516223 21.50025850469128
  endloop
endfacet
facet normal -0.6087614290087118 0.7933533402912419 -1.4255203625530197e-13
  outer loop
    vertex 138.70054918108278 243.3198291516228 25.500085054821504
    vertex 138.22420358435375 242.95431631964715 21.500258504691345
    vertex 138.22420358435375 242.95431631964766 25.500085054821568
  endloop
endfacet
facet normal -0.7933533402912237 0.6087614290087354 -1.0938402461005012e-13
  outer loop
    vertex 137.85869075237858 242.4779707229186 25.50008505482165
    vertex 138.22420358435375 242.95431631964715 21.500258504691345
    vertex 137.85869075237858 242.47797072291812 21.50025850469143
  endloop
endfacet
facet normal -0.7933533402912237 0.6087614290087354 -1.0938402461005012e-13
  outer loop
    vertex 138.22420358435375 242.95431631964715 21.500258504691345
    vertex 137.85869075237858 242.4779707229186 25.50008505482165
    vertex 138.22420358435375 242.95431631964766 25.500085054821568
  endloop
endfacet
facet normal -0.9238795325113051 0.3826834323650455 -6.876167245325907e-14
  outer loop
    vertex 137.62891978061796 241.92325452665438 25.500085054821753
    vertex 137.85869075237858 242.47797072291812 21.50025850469143
    vertex 137.62891978061796 241.9232545266539 21.50025850469153
  endloop
endfacet
facet normal -0.9238795325113051 0.3826834323650455 -6.876167245325907e-14
  outer loop
    vertex 137.85869075237858 242.47797072291812 21.50025850469143
    vertex 137.62891978061796 241.92325452665438 25.500085054821753
    vertex 137.85869075237858 242.4779707229186 25.50008505482165
  endloop
endfacet
facet normal -0.9914448613738078 0.13052619222007245 -2.3453325952836715e-14
  outer loop
    vertex 137.5505491810828 241.3279707229186 25.50008505482186
    vertex 137.62891978061796 241.9232545266539 21.50025850469153
    vertex 137.5505491810828 241.3279707229181 21.500258504691637
  endloop
endfacet
facet normal -0.9914448613738078 0.13052619222007245 -2.3453325952836715e-14
  outer loop
    vertex 137.62891978061796 241.9232545266539 21.50025850469153
    vertex 137.5505491810828 241.3279707229186 25.50008505482186
    vertex 137.62891978061796 241.92325452665438 25.500085054821753
  endloop
endfacet
facet normal -0.9914448613738078 -0.13052619222007245 2.3453325952836715e-14
  outer loop
    vertex 137.62891978061796 240.7326869191828 25.500085054821966
    vertex 137.5505491810828 241.3279707229181 21.500258504691637
    vertex 137.62891978061796 240.73268691918233 21.500258504691747
  endloop
endfacet
facet normal -0.9914448613738078 -0.13052619222007245 2.3453325952836715e-14
  outer loop
    vertex 137.5505491810828 241.3279707229181 21.500258504691637
    vertex 137.62891978061796 240.7326869191828 25.500085054821966
    vertex 137.5505491810828 241.3279707229186 25.50008505482186
  endloop
endfacet
facet normal -0.9238795325113051 -0.3826834323650455 6.876167245325907e-14
  outer loop
    vertex 137.85869075237858 240.1779707229186 25.50008505482207
    vertex 137.62891978061796 240.73268691918233 21.500258504691747
    vertex 137.85869075237858 240.1779707229181 21.500258504691846
  endloop
endfacet
facet normal -0.9238795325113051 -0.3826834323650455 6.876167245325907e-14
  outer loop
    vertex 137.62891978061796 240.73268691918233 21.500258504691747
    vertex 137.85869075237858 240.1779707229186 25.50008505482207
    vertex 137.62891978061796 240.7326869191828 25.500085054821966
  endloop
endfacet
facet normal -0.7933533402912237 -0.6087614290087354 1.0938402461005012e-13
  outer loop
    vertex 138.22420358435375 239.70162512618953 25.500085054822154
    vertex 137.85869075237858 240.1779707229181 21.500258504691846
    vertex 138.22420358435375 239.70162512618904 21.50025850469193
  endloop
endfacet
facet normal -0.7933533402912237 -0.6087614290087354 1.0938402461005012e-13
  outer loop
    vertex 137.85869075237858 240.1779707229181 21.500258504691846
    vertex 138.22420358435375 239.70162512618953 25.500085054822154
    vertex 137.85869075237858 240.1779707229186 25.50008505482207
  endloop
endfacet
facet normal -0.6087614290086937 -0.7933533402912559 1.4255203625530446e-13
  outer loop
    vertex 138.7005491810828 239.3361122942139 21.500258504691992
    vertex 138.22420358435375 239.70162512618953 25.500085054822154
    vertex 138.22420358435375 239.70162512618904 21.50025850469193
  endloop
endfacet
facet normal -0.6087614290086937 -0.7933533402912559 1.4255203625530446e-13
  outer loop
    vertex 138.22420358435375 239.70162512618953 25.500085054822154
    vertex 138.7005491810828 239.3361122942139 21.500258504691992
    vertex 138.7005491810828 239.33611229421442 25.500085054822215
  endloop
endfacet
facet normal -0.38268343236510427 -0.923879532511281 1.6600536220813266e-13
  outer loop
    vertex 139.25526537734697 239.10634132245326 21.500258504692038
    vertex 138.7005491810828 239.33611229421442 25.500085054822215
    vertex 138.7005491810828 239.3361122942139 21.500258504691992
  endloop
endfacet
facet normal -0.38268343236510427 -0.923879532511281 1.6600536220813266e-13
  outer loop
    vertex 138.7005491810828 239.33611229421442 25.500085054822215
    vertex 139.25526537734697 239.10634132245326 21.500258504692038
    vertex 139.25526537734697 239.10634132245374 25.50008505482226
  endloop
endfacet
facet normal -0.1305261922201045 -0.9914448613738036 1.7814569706331328e-13
  outer loop
    vertex 139.85054918108278 239.02797072291807 21.50025850469205
    vertex 139.25526537734697 239.10634132245374 25.50008505482226
    vertex 139.25526537734697 239.10634132245326 21.500258504692038
  endloop
endfacet
facet normal -0.1305261922201045 -0.9914448613738036 1.7814569706331328e-13
  outer loop
    vertex 139.25526537734697 239.10634132245374 25.50008505482226
    vertex 139.85054918108278 239.02797072291807 21.50025850469205
    vertex 139.85054918108278 239.02797072291858 25.50008505482227
  endloop
endfacet
facet normal 0.1305261922201045 -0.9914448613738036 1.7814569706331328e-13
  outer loop
    vertex 140.4458329848186 239.10634132245374 25.50008505482226
    vertex 139.85054918108278 239.02797072291807 21.50025850469205
    vertex 140.4458329848186 239.10634132245326 21.500258504692038
  endloop
endfacet
facet normal 0.1305261922201045 -0.9914448613738036 1.7814569706331328e-13
  outer loop
    vertex 139.85054918108278 239.02797072291807 21.50025850469205
    vertex 140.4458329848186 239.10634132245374 25.50008505482226
    vertex 139.85054918108278 239.02797072291858 25.50008505482227
  endloop
endfacet
facet normal 0.38268343236510427 -0.923879532511281 1.6600536220813266e-13
  outer loop
    vertex 141.0005491810828 239.33611229421442 25.500085054822215
    vertex 140.4458329848186 239.10634132245326 21.500258504692038
    vertex 141.0005491810828 239.3361122942139 21.500258504691992
  endloop
endfacet
facet normal 0.38268343236510427 -0.923879532511281 1.6600536220813266e-13
  outer loop
    vertex 140.4458329848186 239.10634132245326 21.500258504692038
    vertex 141.0005491810828 239.33611229421442 25.500085054822215
    vertex 140.4458329848186 239.10634132245374 25.50008505482226
  endloop
endfacet
endsolid v17_case
