solid Untitled-5eb7dca6
facet normal -0.3780082031153018 -0.9258022458265808 -4.5896260361700454e-18
  outer loop
    vertex 0.7399978637695334 0.0339965820312532 0.6000546752617975
    vertex 0.49999999999999906 0.13198852539064135 0.0
    vertex 0.7399978637695334 0.0339965820312532 0.0
  endloop
endfacet
facet normal -0.3780082031153018 -0.9258022458265808 -4.5896260361700454e-18
  outer loop
    vertex 0.49999999999999906 0.13198852539064135 0.0
    vertex 0.7399978637695334 0.0339965820312532 0.6000546752617975
    vertex 0.49999999999999906 0.13198852539064135 0.6000546752617975
  endloop
endfacet
facet normal -0.6097191909077102 -0.79261750437323 -9.62364812409051e-18
  outer loop
    vertex 0.49999999999999906 0.13198852539064135 0.6000546752617975
    vertex 0.2919998168945323 0.2919921875000295 0.0
    vertex 0.49999999999999906 0.13198852539064135 0.0
  endloop
endfacet
facet normal -0.6097191909077102 -0.79261750437323 -9.62364812409051e-18
  outer loop
    vertex 0.2919998168945323 0.2919921875000295 0.0
    vertex 0.49999999999999906 0.13198852539064135 0.6000546752617975
    vertex 0.2919998168945323 0.2919921875000295 0.6000546752617975
  endloop
endfacet
facet normal -0.13063879747316587 -0.9914300301053854 -5.474044495538414e-30
  outer loop
    vertex 0.9980010986328124 0.0 0.6000546752617975
    vertex 0.7399978637695334 0.0339965820312532 0.0
    vertex 0.9980010986328124 0.0 0.0
  endloop
endfacet
facet normal -0.13063879747316587 -0.9914300301053854 -5.474044495538414e-30
  outer loop
    vertex 0.7399978637695334 0.0339965820312532 0.0
    vertex 0.9980010986328124 0.0 0.6000546752617975
    vertex 0.7399978637695334 0.0339965820312532 0.6000546752617975
  endloop
endfacet
facet normal -0.39120940369606066 0.9203016910012568 4.749909790318503e-18
  outer loop
    vertex 0.49999999999999906 16.463989257812504 0.6000546752617975
    vertex 0.7399978637695334 16.566009521484364 0.0
    vertex 0.49999999999999906 16.463989257812504 0.0
  endloop
endfacet
facet normal -0.39120940369606066 0.9203016910012568 4.749909790318503e-18
  outer loop
    vertex 0.7399978637695334 16.566009521484364 0.0
    vertex 0.49999999999999906 16.463989257812504 0.6000546752617975
    vertex 0.7399978637695334 16.566009521484364 0.6000546752617975
  endloop
endfacet
facet normal -0.9925126404652332 0.12214196050797038 0.0
  outer loop
    vertex 0.031997680664067475 15.858001708984395 0.6000546752617975
    vertex 0.0 15.597991943359382 0.0
    vertex 0.0 15.597991943359382 0.6000546752617975
  endloop
endfacet
facet normal -0.9925126404652332 0.12214196050797038 0.0
  outer loop
    vertex 0.0 15.597991943359382 0.0
    vertex 0.031997680664067475 15.858001708984395 0.6000546752617975
    vertex 0.031997680664067475 15.858001708984395 0.0
  endloop
endfacet
facet normal 0.0 1.0 0.0
  outer loop
    vertex 0.9980010986328124 16.597991943359382 0.6000546752617975
    vertex 51.99799346923828 16.597991943359382 0.0
    vertex 0.9980010986328124 16.597991943359382 0.0
  endloop
endfacet
facet normal 0.0 1.0 0.0
  outer loop
    vertex 51.99799346923828 16.597991943359382 0.0
    vertex 0.9980010986328124 16.597991943359382 0.6000546752617975
    vertex 51.99799346923828 16.597991943359382 0.6000546752617975
  endloop
endfacet
facet normal 0.9242381807343448 0.38181642876239436 9.197994677469044e-30
  outer loop
    vertex 76.86400604248045 16.10000610351564 0.0
    vertex 76.96398162841795 15.858001708984395 0.6027211512463366
    vertex 76.96398162841795 15.858001708984395 0.0
  endloop
endfacet
facet normal 0.9242381807343448 0.38181642876239436 9.197994677469044e-30
  outer loop
    vertex 76.96398162841795 15.858001708984395 0.6027211512463366
    vertex 76.86400604248045 16.10000610351564 0.0
    vertex 76.86400604248045 16.10000610351564 0.6027211512463366
  endloop
endfacet
facet normal -0.1230197388035405 0.992404224026031 -5.47942337322717e-30
  outer loop
    vertex 0.7399978637695334 16.566009521484364 0.6000546752617975
    vertex 0.9980010986328124 16.597991943359382 0.0
    vertex 0.7399978637695334 16.566009521484364 0.0
  endloop
endfacet
facet normal -0.1230197388035405 0.992404224026031 -5.47942337322717e-30
  outer loop
    vertex 0.9980010986328124 16.597991943359382 0.0
    vertex 0.7399978637695334 16.566009521484364 0.6000546752617975
    vertex 0.9980010986328124 16.597991943359382 0.6000546752617975
  endloop
endfacet
facet normal -0.6048632870241676 0.7963293313763594 -1.669834706608576e-30
  outer loop
    vertex 0.2919998168945323 16.305999755859396 0.6000546752617975
    vertex 0.49999999999999906 16.463989257812504 0.0
    vertex 0.2919998168945323 16.305999755859396 0.0
  endloop
endfacet
facet normal -0.6048632870241676 0.7963293313763594 -1.669834706608576e-30
  outer loop
    vertex 0.49999999999999906 16.463989257812504 0.0
    vertex 0.2919998168945323 16.305999755859396 0.6000546752617975
    vertex 0.49999999999999906 16.463989257812504 0.6000546752617975
  endloop
endfacet
facet normal -0.7897631222590268 0.6134119421071564 0.0
  outer loop
    vertex 0.2919998168945323 16.305999755859396 0.6000546752617975
    vertex 0.1320037841796921 16.10000610351564 0.0
    vertex 0.1320037841796921 16.10000610351564 0.6000546752617975
  endloop
endfacet
facet normal -0.7897631222590268 0.6134119421071564 0.0
  outer loop
    vertex 0.1320037841796921 16.10000610351564 0.0
    vertex 0.2919998168945323 16.305999755859396 0.6000546752617975
    vertex 0.2919998168945323 16.305999755859396 0.0
  endloop
endfacet
facet normal 1.0 0.0 0.0
  outer loop
    vertex 74.10001373291016 13.700012207031246 0.6027211512463366
    vertex 74.10001373291016 2.8999938964843697 15.00000190734863
    vertex 74.10001373291016 2.8999938964843697 0.6027211512463366
  endloop
endfacet
facet normal 1.0 0.0 0.0
  outer loop
    vertex 74.10001373291016 2.8999938964843697 15.00000190734863
    vertex 74.10001373291016 13.700012207031246 0.6027211512463366
    vertex 74.10001373291016 13.700012207031246 15.00000190734863
  endloop
endfacet
facet normal 0.0 -1.0 0.0
  outer loop
    vertex 72.8580093383789 0.0 0.6027211512463366
    vertex 65.50000762939452 0.0 0.0020008087158203125
    vertex 72.8580093383789 0.0 0.0020008087158203125
  endloop
endfacet
facet normal 0.0 -1.0 0.0
  outer loop
    vertex 65.50000762939452 0.0 0.0020008087158203125
    vertex 72.8580093383789 0.0 0.6027211512463366
    vertex 65.50000762939452 0.0 0.6027211512463366
  endloop
endfacet
facet normal -1.0 0.0 0.0
  outer loop
    vertex 73.59799957275389 13.19799804687499 15.00000190734863
    vertex 73.59799957275389 3.3980102539062567 0.0
    vertex 73.59799957275389 3.3980102539062567 15.00000190734863
  endloop
endfacet
facet normal -1.0 0.0 0.0
  outer loop
    vertex 73.59799957275389 3.3980102539062567 0.0
    vertex 73.59799957275389 13.19799804687499 15.00000190734863
    vertex 73.59799957275389 13.19799804687499 0.0
  endloop
endfacet
facet normal 0.9915526455003862 0.12970486190265046 -5.9411360375313935e-18
  outer loop
    vertex 76.96398162841795 15.858001708984395 0.0
    vertex 76.99799346923828 15.597991943359382 0.6027211512463366
    vertex 76.99799346923828 15.597991943359382 0.0
  endloop
endfacet
facet normal 0.9915526455003862 0.12970486190265046 -5.9411360375313935e-18
  outer loop
    vertex 76.99799346923828 15.597991943359382 0.6027211512463366
    vertex 76.96398162841795 15.858001708984395 0.0
    vertex 76.96398162841795 15.858001708984395 0.6027211512463366
  endloop
endfacet
facet normal 0.6085796073044277 0.7934928238952061 0.0
  outer loop
    vertex 76.50000762939452 16.463989257812504 0.6027211512463366
    vertex 76.70600128173828 16.305999755859396 0.0
    vertex 76.50000762939452 16.463989257812504 0.0
  endloop
endfacet
facet normal 0.6085796073044277 0.7934928238952061 0.0
  outer loop
    vertex 76.70600128173828 16.305999755859396 0.0
    vertex 76.50000762939452 16.463989257812504 0.6027211512463366
    vertex 76.70600128173828 16.305999755859396 0.6027211512463366
  endloop
endfacet
facet normal -0.9241970481003351 0.3819159806588708 -2.1086965375273337e-30
  outer loop
    vertex 0.1320037841796921 16.10000610351564 0.6000546752617975
    vertex 0.031997680664067475 15.858001708984395 0.0
    vertex 0.031997680664067475 15.858001708984395 0.6000546752617975
  endloop
endfacet
facet normal -0.9241970481003351 0.3819159806588708 -2.1086965375273337e-30
  outer loop
    vertex 0.031997680664067475 15.858001708984395 0.0
    vertex 0.1320037841796921 16.10000610351564 0.6000546752617975
    vertex 0.1320037841796921 16.10000610351564 0.0
  endloop
endfacet
facet normal 0.7934644403066087 0.6086166132869857 -1.901696375756611e-17
  outer loop
    vertex 76.70600128173828 16.305999755859396 0.0
    vertex 76.86400604248045 16.10000610351564 0.6027211512463366
    vertex 76.86400604248045 16.10000610351564 0.0
  endloop
endfacet
facet normal 0.7934644403066087 0.6086166132869857 -1.901696375756611e-17
  outer loop
    vertex 76.86400604248045 16.10000610351564 0.6027211512463366
    vertex 76.70600128173828 16.305999755859396 0.0
    vertex 76.70600128173828 16.305999755859396 0.6027211512463366
  endloop
endfacet
facet normal 0.0 1.0 0.0
  outer loop
    vertex 3.397994995117183 3.3980102539062567 15.00000190734863
    vertex 73.59799957275389 3.3980102539062567 0.0
    vertex 3.397994995117183 3.3980102539062567 0.0
  endloop
endfacet
facet normal 0.0 1.0 0.0
  outer loop
    vertex 73.59799957275389 3.3980102539062567 0.0
    vertex 3.397994995117183 3.3980102539062567 15.00000190734863
    vertex 73.59799957275389 3.3980102539062567 15.00000190734863
  endloop
endfacet
facet normal -1.0 0.0 0.0
  outer loop
    vertex 2.900001525878895 13.700012207031246 15.00000190734863
    vertex 2.900001525878895 2.8999938964843697 0.6000546752617975
    vertex 2.900001525878895 2.8999938964843697 15.00000190734863
  endloop
endfacet
facet normal -1.0 0.0 0.0
  outer loop
    vertex 2.900001525878895 2.8999938964843697 0.6000546752617975
    vertex 2.900001525878895 13.700012207031246 15.00000190734863
    vertex 2.900001525878895 13.700012207031246 0.6000546752617975
  endloop
endfacet
facet normal 0.0 -1.0 0.0
  outer loop
    vertex 48.49799346923827 0.0 0.0020008087158203125
    vertex 0.9980010986328124 0.0 0.6000546752617975
    vertex 0.9980010986328124 0.0 0.0
  endloop
endfacet
facet normal 0.0 -1.0 0.0
  outer loop
    vertex 0.9980010986328124 0.0 0.6000546752617975
    vertex 48.49799346923827 0.0 0.0020008087158203125
    vertex 48.49799346923827 0.0 0.6000546752617975
  endloop
endfacet
facet normal 0.0 -1.0 0.0
  outer loop
    vertex 73.59799957275389 13.19799804687499 15.00000190734863
    vertex 3.397994995117183 13.19799804687499 0.0
    vertex 73.59799957275389 13.19799804687499 0.0
  endloop
endfacet
facet normal 0.0 -1.0 0.0
  outer loop
    vertex 3.397994995117183 13.19799804687499 0.0
    vertex 73.59799957275389 13.19799804687499 15.00000190734863
    vertex 3.397994995117183 13.19799804687499 15.00000190734863
  endloop
endfacet
facet normal 0.0 1.0 0.0
  outer loop
    vertex 2.900001525878895 13.700012207031246 15.00000190734863
    vertex 51.99799346923828 13.700012207031246 0.6000546752617975
    vertex 2.900001525878895 13.700012207031246 0.6000546752617975
  endloop
endfacet
facet normal 0.0 1.0 0.0
  outer loop
    vertex 51.99799346923828 13.700012207031246 0.6000546752617975
    vertex 2.900001525878895 13.700012207031246 15.00000190734863
    vertex 63.25000762939453 13.700012207031246 0.6027211512463366
  endloop
endfacet
facet normal 0.0 1.0 0.0
  outer loop
    vertex 63.25000762939453 13.700012207031246 0.6027211512463366
    vertex 2.900001525878895 13.700012207031246 15.00000190734863
    vertex 74.10001373291016 13.700012207031246 0.6027211512463366
  endloop
endfacet
facet normal 0.0 1.0 0.0
  outer loop
    vertex 74.10001373291016 13.700012207031246 0.6027211512463366
    vertex 2.900001525878895 13.700012207031246 15.00000190734863
    vertex 74.10001373291016 13.700012207031246 15.00000190734863
  endloop
endfacet
facet normal 0.0 1.0 0.0
  outer loop
    vertex 51.99799346923828 13.700012207031246 0.6000546752617975
    vertex 63.25000762939453 13.700012207031246 0.0
    vertex 51.99799346923828 13.700012207031246 0.0
  endloop
endfacet
facet normal 0.0 1.0 0.0
  outer loop
    vertex 63.25000762939453 13.700012207031246 0.0
    vertex 51.99799346923828 13.700012207031246 0.6000546752617975
    vertex 63.25000762939453 13.700012207031246 0.6027211512463366
  endloop
endfacet
facet normal -2.5231477225010367e-34 1.0692786837518865e-35 1.0
  outer loop
    vertex 0.031997680664067475 0.7399902343750305 0.6000546752617975
    vertex 0.0 15.597991943359382 0.6000546752617975
    vertex 0.0 0.9979858398437617 0.6000546752617975
  endloop
endfacet
facet normal -2.5231477225010367e-34 1.0692786837518865e-35 1.0
  outer loop
    vertex 0.0 15.597991943359382 0.6000546752617975
    vertex 0.031997680664067475 0.7399902343750305 0.6000546752617975
    vertex 0.031997680664067475 15.858001708984395 0.6000546752617975
  endloop
endfacet
facet normal -2.5231477225010367e-34 1.0692786837518865e-35 1.0
  outer loop
    vertex 0.031997680664067475 15.858001708984395 0.6000546752617975
    vertex 0.031997680664067475 0.7399902343750305 0.6000546752617975
    vertex 0.1320037841796921 0.5000000000000216 0.6000546752617975
  endloop
endfacet
facet normal -2.5231477225010367e-34 1.0692786837518865e-35 1.0
  outer loop
    vertex 0.031997680664067475 15.858001708984395 0.6000546752617975
    vertex 0.1320037841796921 0.5000000000000216 0.6000546752617975
    vertex 0.1320037841796921 16.10000610351564 0.6000546752617975
  endloop
endfacet
facet normal -2.5231477225010367e-34 1.0692786837518865e-35 1.0
  outer loop
    vertex 0.1320037841796921 16.10000610351564 0.6000546752617975
    vertex 0.1320037841796921 0.5000000000000216 0.6000546752617975
    vertex 0.2919998168945323 0.2919921875000295 0.6000546752617975
  endloop
endfacet
facet normal -2.5231477225010367e-34 1.0692786837518865e-35 1.0
  outer loop
    vertex 0.1320037841796921 16.10000610351564 0.6000546752617975
    vertex 0.2919998168945323 0.2919921875000295 0.6000546752617975
    vertex 0.2919998168945323 16.305999755859396 0.6000546752617975
  endloop
endfacet
facet normal -2.5231477225010367e-34 1.0692786837518865e-35 1.0
  outer loop
    vertex 0.2919998168945323 16.305999755859396 0.6000546752617975
    vertex 0.2919998168945323 0.2919921875000295 0.6000546752617975
    vertex 0.49999999999999906 0.13198852539064135 0.6000546752617975
  endloop
endfacet
facet normal -2.5231477225010367e-34 1.0692786837518865e-35 1.0
  outer loop
    vertex 0.2919998168945323 16.305999755859396 0.6000546752617975
    vertex 0.49999999999999906 0.13198852539064135 0.6000546752617975
    vertex 0.49999999999999906 16.463989257812504 0.6000546752617975
  endloop
endfacet
facet normal -2.5231477225010367e-34 1.0692786837518865e-35 1.0
  outer loop
    vertex 0.49999999999999906 16.463989257812504 0.6000546752617975
    vertex 0.49999999999999906 0.13198852539064135 0.6000546752617975
    vertex 0.7399978637695334 0.0339965820312532 0.6000546752617975
  endloop
endfacet
facet normal -2.5231477225010367e-34 1.0692786837518865e-35 1.0
  outer loop
    vertex 0.49999999999999906 16.463989257812504 0.6000546752617975
    vertex 0.7399978637695334 0.0339965820312532 0.6000546752617975
    vertex 0.7399978637695334 16.566009521484364 0.6000546752617975
  endloop
endfacet
facet normal -2.5231477225010367e-34 1.0692786837518865e-35 1.0
  outer loop
    vertex 0.7399978637695334 16.566009521484364 0.6000546752617975
    vertex 0.7399978637695334 0.0339965820312532 0.6000546752617975
    vertex 0.9980010986328124 0.0 0.6000546752617975
  endloop
endfacet
facet normal -2.5231477225010367e-34 1.0692786837518865e-35 1.0
  outer loop
    vertex 0.7399978637695334 16.566009521484364 0.6000546752617975
    vertex 0.9980010986328124 0.0 0.6000546752617975
    vertex 0.9980010986328124 16.597991943359382 0.6000546752617975
  endloop
endfacet
facet normal -2.5231477225010367e-34 1.0692786837518865e-35 1.0
  outer loop
    vertex 0.9980010986328124 16.597991943359382 0.6000546752617975
    vertex 0.9980010986328124 0.0 0.6000546752617975
    vertex 2.900001525878895 2.8999938964843697 0.6000546752617975
  endloop
endfacet
facet normal -2.5231477225010367e-34 1.0692786837518865e-35 1.0
  outer loop
    vertex 2.900001525878895 2.8999938964843697 0.6000546752617975
    vertex 0.9980010986328124 0.0 0.6000546752617975
    vertex 48.49799346923827 0.0 0.6000546752617975
  endloop
endfacet
facet normal -2.5231477225010367e-34 1.0692786837518865e-35 1.0
  outer loop
    vertex 2.900001525878895 2.8999938964843697 0.6000546752617975
    vertex 48.49799346923827 0.0 0.6000546752617975
    vertex 48.49799346923827 2.8999938964843697 0.6000546752617975
  endloop
endfacet
facet normal -2.5231477225010367e-34 1.0692786837518865e-35 1.0
  outer loop
    vertex 0.9980010986328124 16.597991943359382 0.6000546752617975
    vertex 2.900001525878895 13.700012207031246 0.6000546752617975
    vertex 51.99799346923828 16.597991943359382 0.6000546752617975
  endloop
endfacet
facet normal -2.5231477225010367e-34 1.0692786837518865e-35 1.0
  outer loop
    vertex 2.900001525878895 13.700012207031246 0.6000546752617975
    vertex 0.9980010986328124 16.597991943359382 0.6000546752617975
    vertex 2.900001525878895 2.8999938964843697 0.6000546752617975
  endloop
endfacet
facet normal -2.5231477225010367e-34 1.0692786837518865e-35 1.0
  outer loop
    vertex 51.99799346923828 16.597991943359382 0.6000546752617975
    vertex 2.900001525878895 13.700012207031246 0.6000546752617975
    vertex 51.99799346923828 13.700012207031246 0.6000546752617975
  endloop
endfacet
facet normal 0.38845696529737983 0.9214668665296385 -1.0043003454275105e-29
  outer loop
    vertex 76.25800323486328 16.566009521484364 0.6027211512463366
    vertex 76.50000762939452 16.463989257812504 0.0
    vertex 76.25800323486328 16.566009521484364 0.0
  endloop
endfacet
facet normal 0.38845696529737983 0.9214668665296385 -1.0043003454275105e-29
  outer loop
    vertex 76.50000762939452 16.463989257812504 0.0
    vertex 76.25800323486328 16.566009521484364 0.6027211512463366
    vertex 76.50000762939452 16.463989257812504 0.6027211512463366
  endloop
endfacet
facet normal 0.0 -1.0 0.0
  outer loop
    vertex 74.10001373291016 2.8999938964843697 15.00000190734863
    vertex 65.50000762939452 2.8999938964843697 0.6027211512463366
    vertex 74.10001373291016 2.8999938964843697 0.6027211512463366
  endloop
endfacet
facet normal 0.0 -1.0 0.0
  outer loop
    vertex 65.50000762939452 2.8999938964843697 0.6027211512463366
    vertex 48.49799346923827 2.8999938964843697 0.0020008087158203125
    vertex 65.50000762939452 2.8999938964843697 0.0020008087158203125
  endloop
endfacet
facet normal 0.0 -1.0 0.0
  outer loop
    vertex 48.49799346923827 2.8999938964843697 0.0020008087158203125
    vertex 65.50000762939452 2.8999938964843697 0.6027211512463366
    vertex 48.49799346923827 2.8999938964843697 0.6000546752617975
  endloop
endfacet
facet normal 0.0 -1.0 0.0
  outer loop
    vertex 48.49799346923827 2.8999938964843697 0.6000546752617975
    vertex 65.50000762939452 2.8999938964843697 0.6027211512463366
    vertex 2.900001525878895 2.8999938964843697 0.6000546752617975
  endloop
endfacet
facet normal 0.0 -1.0 0.0
  outer loop
    vertex 2.900001525878895 2.8999938964843697 0.6000546752617975
    vertex 65.50000762939452 2.8999938964843697 0.6027211512463366
    vertex 2.900001525878895 2.8999938964843697 15.00000190734863
  endloop
endfacet
facet normal 0.0 -1.0 0.0
  outer loop
    vertex 2.900001525878895 2.8999938964843697 15.00000190734863
    vertex 65.50000762939452 2.8999938964843697 0.6027211512463366
    vertex 74.10001373291016 2.8999938964843697 15.00000190734863
  endloop
endfacet
facet normal 0.7072790327461668 -0.7069344876432517 -4.26849702527363e-06
  outer loop
    vertex 76.99799346923828 4.141998291015659 0.0020008087158203125
    vertex 72.8580093383789 0.0 0.6027211512463366
    vertex 72.8580093383789 0.0 0.0020008087158203125
  endloop
endfacet
facet normal 0.7072790327461668 -0.7069344876432517 -4.26849702527363e-06
  outer loop
    vertex 72.8580093383789 0.0 0.6027211512463366
    vertex 76.99799346923828 4.141998291015659 0.0020008087158203125
    vertex 76.99799346923828 4.141998291015659 0.6027211512463366
  endloop
endfacet
facet normal -0.9923966123307786 -0.12308112704389154 1.4944023452051678e-18
  outer loop
    vertex 0.0 0.9979858398437617 0.6000546752617975
    vertex 0.031997680664067475 0.7399902343750305 0.0
    vertex 0.031997680664067475 0.7399902343750305 0.6000546752617975
  endloop
endfacet
facet normal -0.9923966123307786 -0.12308112704389154 1.4944023452051678e-18
  outer loop
    vertex 0.031997680664067475 0.7399902343750305 0.0
    vertex 0.0 0.9979858398437617 0.6000546752617975
    vertex 0.0 0.9979858398437617 0.0
  endloop
endfacet
facet normal 1.0 0.0 0.0
  outer loop
    vertex 48.49799346923827 2.8999938964843697 0.0020008087158203125
    vertex 48.49799346923827 0.0 0.6000546752617975
    vertex 48.49799346923827 0.0 0.0020008087158203125
  endloop
endfacet
facet normal 1.0 0.0 0.0
  outer loop
    vertex 48.49799346923827 0.0 0.6000546752617975
    vertex 48.49799346923827 2.8999938964843697 0.0020008087158203125
    vertex 48.49799346923827 2.8999938964843697 0.6000546752617975
  endloop
endfacet
facet normal 0.0 0.0 1.0
  outer loop
    vertex 2.900001525878895 2.8999938964843697 15.00000190734863
    vertex 3.397994995117183 3.3980102539062567 15.00000190734863
    vertex 2.900001525878895 13.700012207031246 15.00000190734863
  endloop
endfacet
facet normal 0.0 0.0 1.0
  outer loop
    vertex 3.397994995117183 3.3980102539062567 15.00000190734863
    vertex 2.900001525878895 2.8999938964843697 15.00000190734863
    vertex 74.10001373291016 2.8999938964843697 15.00000190734863
  endloop
endfacet
facet normal 0.0 0.0 1.0
  outer loop
    vertex 3.397994995117183 3.3980102539062567 15.00000190734863
    vertex 74.10001373291016 2.8999938964843697 15.00000190734863
    vertex 73.59799957275389 3.3980102539062567 15.00000190734863
  endloop
endfacet
facet normal 0.0 0.0 1.0
  outer loop
    vertex 73.59799957275389 3.3980102539062567 15.00000190734863
    vertex 74.10001373291016 2.8999938964843697 15.00000190734863
    vertex 73.59799957275389 13.19799804687499 15.00000190734863
  endloop
endfacet
facet normal 0.0 0.0 1.0
  outer loop
    vertex 2.900001525878895 13.700012207031246 15.00000190734863
    vertex 3.397994995117183 13.19799804687499 15.00000190734863
    vertex 74.10001373291016 13.700012207031246 15.00000190734863
  endloop
endfacet
facet normal 0.0 0.0 1.0
  outer loop
    vertex 3.397994995117183 13.19799804687499 15.00000190734863
    vertex 2.900001525878895 13.700012207031246 15.00000190734863
    vertex 3.397994995117183 3.3980102539062567 15.00000190734863
  endloop
endfacet
facet normal 0.0 0.0 1.0
  outer loop
    vertex 74.10001373291016 13.700012207031246 15.00000190734863
    vertex 3.397994995117183 13.19799804687499 15.00000190734863
    vertex 73.59799957275389 13.19799804687499 15.00000190734863
  endloop
endfacet
facet normal 0.0 0.0 1.0
  outer loop
    vertex 74.10001373291016 13.700012207031246 15.00000190734863
    vertex 73.59799957275389 13.19799804687499 15.00000190734863
    vertex 74.10001373291016 2.8999938964843697 15.00000190734863
  endloop
endfacet
facet normal 1.0 0.0 0.0
  outer loop
    vertex 3.397994995117183 13.19799804687499 0.0
    vertex 3.397994995117183 3.3980102539062567 15.00000190734863
    vertex 3.397994995117183 3.3980102539062567 0.0
  endloop
endfacet
facet normal 1.0 0.0 0.0
  outer loop
    vertex 3.397994995117183 3.3980102539062567 15.00000190734863
    vertex 3.397994995117183 13.19799804687499 0.0
    vertex 3.397994995117183 13.19799804687499 15.00000190734863
  endloop
endfacet
facet normal 0.12208458280172847 0.9925196998760921 -2.9260014293891922e-18
  outer loop
    vertex 75.99799346923828 16.597991943359382 0.6027211512463366
    vertex 76.25800323486328 16.566009521484364 0.0
    vertex 75.99799346923828 16.597991943359382 0.0
  endloop
endfacet
facet normal 0.12208458280172847 0.9925196998760921 -2.9260014293891922e-18
  outer loop
    vertex 76.25800323486328 16.566009521484364 0.0
    vertex 75.99799346923828 16.597991943359382 0.6027211512463366
    vertex 76.25800323486328 16.566009521484364 0.6027211512463366
  endloop
endfacet
facet normal -0.7926423619254566 -0.6096868754379037 0.0
  outer loop
    vertex 0.1320037841796921 0.5000000000000216 0.6000546752617975
    vertex 0.2919998168945323 0.2919921875000295 0.0
    vertex 0.2919998168945323 0.2919921875000295 0.6000546752617975
  endloop
endfacet
facet normal -0.7926423619254566 -0.6096868754379037 0.0
  outer loop
    vertex 0.2919998168945323 0.2919921875000295 0.0
    vertex 0.1320037841796921 0.5000000000000216 0.6000546752617975
    vertex 0.1320037841796921 0.5000000000000216 0.0
  endloop
endfacet
facet normal 0.0 1.0 0.0
  outer loop
    vertex 63.25000762939453 16.597991943359382 0.6027211512463366
    vertex 75.99799346923828 16.597991943359382 0.0
    vertex 63.25000762939453 16.597991943359382 0.0
  endloop
endfacet
facet normal 0.0 1.0 0.0
  outer loop
    vertex 75.99799346923828 16.597991943359382 0.0
    vertex 63.25000762939453 16.597991943359382 0.6027211512463366
    vertex 75.99799346923828 16.597991943359382 0.6027211512463366
  endloop
endfacet
facet normal 1.0 0.0 0.0
  outer loop
    vertex 51.99799346923828 16.597991943359382 0.0
    vertex 51.99799346923828 13.700012207031246 0.6000546752617975
    vertex 51.99799346923828 13.700012207031246 0.0
  endloop
endfacet
facet normal 1.0 0.0 0.0
  outer loop
    vertex 51.99799346923828 13.700012207031246 0.6000546752617975
    vertex 51.99799346923828 16.597991943359382 0.0
    vertex 51.99799346923828 16.597991943359382 0.6000546752617975
  endloop
endfacet
facet normal -0.9230630315506144 -0.3846487225828129 -2.123784996049104e-30
  outer loop
    vertex 0.031997680664067475 0.7399902343750305 0.6000546752617975
    vertex 0.1320037841796921 0.5000000000000216 0.0
    vertex 0.1320037841796921 0.5000000000000216 0.6000546752617975
  endloop
endfacet
facet normal -0.9230630315506144 -0.3846487225828129 -2.123784996049104e-30
  outer loop
    vertex 0.1320037841796921 0.5000000000000216 0.0
    vertex 0.031997680664067475 0.7399902343750305 0.6000546752617975
    vertex 0.031997680664067475 0.7399902343750305 0.0
  endloop
endfacet
facet normal -1.0 0.0 0.0
  outer loop
    vertex 0.0 15.597991943359382 0.6000546752617975
    vertex 0.0 0.9979858398437617 0.0
    vertex 0.0 0.9979858398437617 0.6000546752617975
  endloop
endfacet
facet normal -1.0 0.0 0.0
  outer loop
    vertex 0.0 0.9979858398437617 0.0
    vertex 0.0 15.597991943359382 0.6000546752617975
    vertex 0.0 15.597991943359382 0.0
  endloop
endfacet
facet normal 1.1770579204758422e-05 -6.730471122509164e-05 -0.9999999976657648
  outer loop
    vertex 75.99799346923828 16.597991943359382 0.0
    vertex 63.25000762939453 13.700012207031246 0.0
    vertex 63.25000762939453 16.597991943359382 0.0
  endloop
endfacet
facet normal 1.1770579204758422e-05 -6.730471122509164e-05 -0.9999999976657648
  outer loop
    vertex 63.25000762939453 13.700012207031246 0.0
    vertex 75.99799346923828 16.597991943359382 0.0
    vertex 73.59799957275389 13.19799804687499 0.0
  endloop
endfacet
facet normal 1.1770579204758422e-05 -6.730471122509164e-05 -0.9999999976657648
  outer loop
    vertex 73.59799957275389 13.19799804687499 0.0
    vertex 75.99799346923828 16.597991943359382 0.0
    vertex 73.59799957275389 3.3980102539062567 0.0
  endloop
endfacet
facet normal 1.1770579204758422e-05 -6.730471122509164e-05 -0.9999999976657648
  outer loop
    vertex 73.59799957275389 3.3980102539062567 0.0
    vertex 48.49799346923827 2.8999938964843697 0.0020008087158203125
    vertex 3.397994995117183 3.3980102539062567 0.0
  endloop
endfacet
facet normal 1.1770579204758422e-05 -6.730471122509164e-05 -0.9999999976657648
  outer loop
    vertex 48.49799346923827 2.8999938964843697 0.0020008087158203125
    vertex 73.59799957275389 3.3980102539062567 0.0
    vertex 65.50000762939452 2.8999938964843697 0.0020008087158203125
  endloop
endfacet
facet normal 1.1770579204758422e-05 -6.730471122509164e-05 -0.9999999976657648
  outer loop
    vertex 65.50000762939452 2.8999938964843697 0.0020008087158203125
    vertex 73.59799957275389 3.3980102539062567 0.0
    vertex 65.50000762939452 0.0 0.0020008087158203125
  endloop
endfacet
facet normal 1.1770579204758422e-05 -6.730471122509164e-05 -0.9999999976657648
  outer loop
    vertex 65.50000762939452 0.0 0.0020008087158203125
    vertex 73.59799957275389 3.3980102539062567 0.0
    vertex 72.8580093383789 0.0 0.0020008087158203125
  endloop
endfacet
facet normal 1.1770579204758422e-05 -6.730471122509164e-05 -0.9999999976657648
  outer loop
    vertex 72.8580093383789 0.0 0.0020008087158203125
    vertex 73.59799957275389 3.3980102539062567 0.0
    vertex 76.99799346923828 4.141998291015659 0.0020008087158203125
  endloop
endfacet
facet normal 1.1770579204758422e-05 -6.730471122509164e-05 -0.9999999976657648
  outer loop
    vertex 76.99799346923828 4.141998291015659 0.0020008087158203125
    vertex 73.59799957275389 3.3980102539062567 0.0
    vertex 75.99799346923828 16.597991943359382 0.0
  endloop
endfacet
facet normal 1.1770579204758422e-05 -6.730471122509164e-05 -0.9999999976657648
  outer loop
    vertex 76.99799346923828 4.141998291015659 0.0020008087158203125
    vertex 75.99799346923828 16.597991943359382 0.0
    vertex 76.25800323486328 16.566009521484364 0.0
  endloop
endfacet
facet normal 1.1770579204758422e-05 -6.730471122509164e-05 -0.9999999976657648
  outer loop
    vertex 76.99799346923828 4.141998291015659 0.0020008087158203125
    vertex 76.25800323486328 16.566009521484364 0.0
    vertex 76.50000762939452 16.463989257812504 0.0
  endloop
endfacet
facet normal 1.1770579204758422e-05 -6.730471122509164e-05 -0.9999999976657648
  outer loop
    vertex 76.99799346923828 4.141998291015659 0.0020008087158203125
    vertex 76.50000762939452 16.463989257812504 0.0
    vertex 76.70600128173828 16.305999755859396 0.0
  endloop
endfacet
facet normal 1.1770579204758422e-05 -6.730471122509164e-05 -0.9999999976657648
  outer loop
    vertex 76.99799346923828 4.141998291015659 0.0020008087158203125
    vertex 76.70600128173828 16.305999755859396 0.0
    vertex 76.86400604248045 16.10000610351564 0.0
  endloop
endfacet
facet normal 1.1770579204758422e-05 -6.730471122509164e-05 -0.9999999976657648
  outer loop
    vertex 76.99799346923828 4.141998291015659 0.0020008087158203125
    vertex 76.86400604248045 16.10000610351564 0.0
    vertex 76.96398162841795 15.858001708984395 0.0
  endloop
endfacet
facet normal 1.1770579204758422e-05 -6.730471122509164e-05 -0.9999999976657648
  outer loop
    vertex 76.99799346923828 4.141998291015659 0.0020008087158203125
    vertex 76.96398162841795 15.858001708984395 0.0
    vertex 76.99799346923828 15.597991943359382 0.0
  endloop
endfacet
facet normal 1.1770579204758422e-05 -6.730471122509164e-05 -0.9999999976657648
  outer loop
    vertex 0.031997680664067475 15.858001708984395 0.0
    vertex 0.0 0.9979858398437617 0.0
    vertex 0.0 15.597991943359382 0.0
  endloop
endfacet
facet normal 1.1770579204758422e-05 -6.730471122509164e-05 -0.9999999976657648
  outer loop
    vertex 0.0 0.9979858398437617 0.0
    vertex 0.031997680664067475 15.858001708984395 0.0
    vertex 0.031997680664067475 0.7399902343750305 0.0
  endloop
endfacet
facet normal 1.1770579204758422e-05 -6.730471122509164e-05 -0.9999999976657648
  outer loop
    vertex 0.031997680664067475 0.7399902343750305 0.0
    vertex 0.031997680664067475 15.858001708984395 0.0
    vertex 0.1320037841796921 16.10000610351564 0.0
  endloop
endfacet
facet normal 1.1770579204758422e-05 -6.730471122509164e-05 -0.9999999976657648
  outer loop
    vertex 0.031997680664067475 0.7399902343750305 0.0
    vertex 0.1320037841796921 16.10000610351564 0.0
    vertex 0.1320037841796921 0.5000000000000216 0.0
  endloop
endfacet
facet normal 1.1770579204758422e-05 -6.730471122509164e-05 -0.9999999976657648
  outer loop
    vertex 0.1320037841796921 0.5000000000000216 0.0
    vertex 0.1320037841796921 16.10000610351564 0.0
    vertex 0.2919998168945323 16.305999755859396 0.0
  endloop
endfacet
facet normal 1.1770579204758422e-05 -6.730471122509164e-05 -0.9999999976657648
  outer loop
    vertex 0.1320037841796921 0.5000000000000216 0.0
    vertex 0.2919998168945323 16.305999755859396 0.0
    vertex 0.2919998168945323 0.2919921875000295 0.0
  endloop
endfacet
facet normal 1.1770579204758422e-05 -6.730471122509164e-05 -0.9999999976657648
  outer loop
    vertex 0.2919998168945323 0.2919921875000295 0.0
    vertex 0.2919998168945323 16.305999755859396 0.0
    vertex 0.49999999999999906 16.463989257812504 0.0
  endloop
endfacet
facet normal 1.1770579204758422e-05 -6.730471122509164e-05 -0.9999999976657648
  outer loop
    vertex 0.2919998168945323 0.2919921875000295 0.0
    vertex 0.49999999999999906 16.463989257812504 0.0
    vertex 0.49999999999999906 0.13198852539064135 0.0
  endloop
endfacet
facet normal 1.1770579204758422e-05 -6.730471122509164e-05 -0.9999999976657648
  outer loop
    vertex 0.49999999999999906 0.13198852539064135 0.0
    vertex 0.49999999999999906 16.463989257812504 0.0
    vertex 0.7399978637695334 16.566009521484364 0.0
  endloop
endfacet
facet normal 1.1770579204758422e-05 -6.730471122509164e-05 -0.9999999976657648
  outer loop
    vertex 0.49999999999999906 0.13198852539064135 0.0
    vertex 0.7399978637695334 16.566009521484364 0.0
    vertex 0.7399978637695334 0.0339965820312532 0.0
  endloop
endfacet
facet normal 1.1770579204758422e-05 -6.730471122509164e-05 -0.9999999976657648
  outer loop
    vertex 0.7399978637695334 0.0339965820312532 0.0
    vertex 0.7399978637695334 16.566009521484364 0.0
    vertex 0.9980010986328124 16.597991943359382 0.0
  endloop
endfacet
facet normal 1.1770579204758422e-05 -6.730471122509164e-05 -0.9999999976657648
  outer loop
    vertex 0.7399978637695334 0.0339965820312532 0.0
    vertex 0.9980010986328124 16.597991943359382 0.0
    vertex 0.9980010986328124 0.0 0.0
  endloop
endfacet
facet normal 1.1770579204758422e-05 -6.730471122509164e-05 -0.9999999976657648
  outer loop
    vertex 0.9980010986328124 0.0 0.0
    vertex 0.9980010986328124 16.597991943359382 0.0
    vertex 3.397994995117183 13.19799804687499 0.0
  endloop
endfacet
facet normal 1.1770579204758422e-05 -6.730471122509164e-05 -0.9999999976657648
  outer loop
    vertex 3.397994995117183 13.19799804687499 0.0
    vertex 0.9980010986328124 16.597991943359382 0.0
    vertex 51.99799346923828 16.597991943359382 0.0
  endloop
endfacet
facet normal 1.1770579204758422e-05 -6.730471122509164e-05 -0.9999999976657648
  outer loop
    vertex 3.397994995117183 13.19799804687499 0.0
    vertex 51.99799346923828 16.597991943359382 0.0
    vertex 51.99799346923828 13.700012207031246 0.0
  endloop
endfacet
facet normal 1.1770579204758422e-05 -6.730471122509164e-05 -0.9999999976657648
  outer loop
    vertex 3.397994995117183 13.19799804687499 0.0
    vertex 51.99799346923828 13.700012207031246 0.0
    vertex 73.59799957275389 13.19799804687499 0.0
  endloop
endfacet
facet normal 1.1770579204758422e-05 -6.730471122509164e-05 -0.9999999976657648
  outer loop
    vertex 73.59799957275389 13.19799804687499 0.0
    vertex 51.99799346923828 13.700012207031246 0.0
    vertex 63.25000762939453 13.700012207031246 0.0
  endloop
endfacet
facet normal 1.1770579204758422e-05 -6.730471122509164e-05 -0.9999999976657648
  outer loop
    vertex 0.9980010986328124 0.0 0.0
    vertex 3.397994995117183 3.3980102539062567 0.0
    vertex 48.49799346923827 0.0 0.0020008087158203125
  endloop
endfacet
facet normal 1.1770579204758422e-05 -6.730471122509164e-05 -0.9999999976657648
  outer loop
    vertex 3.397994995117183 3.3980102539062567 0.0
    vertex 0.9980010986328124 0.0 0.0
    vertex 3.397994995117183 13.19799804687499 0.0
  endloop
endfacet
facet normal 1.1770579204758422e-05 -6.730471122509164e-05 -0.9999999976657648
  outer loop
    vertex 48.49799346923827 0.0 0.0020008087158203125
    vertex 3.397994995117183 3.3980102539062567 0.0
    vertex 48.49799346923827 2.8999938964843697 0.0020008087158203125
  endloop
endfacet
facet normal 1.0 0.0 0.0
  outer loop
    vertex 76.99799346923828 15.597991943359382 0.0
    vertex 76.99799346923828 4.141998291015659 0.6027211512463366
    vertex 76.99799346923828 4.141998291015659 0.0020008087158203125
  endloop
endfacet
facet normal 1.0 0.0 0.0
  outer loop
    vertex 76.99799346923828 4.141998291015659 0.6027211512463366
    vertex 76.99799346923828 15.597991943359382 0.0
    vertex 76.99799346923828 15.597991943359382 0.6027211512463366
  endloop
endfacet
facet normal -1.0 0.0 0.0
  outer loop
    vertex 63.25000762939453 16.597991943359382 0.6027211512463366
    vertex 63.25000762939453 13.700012207031246 0.0
    vertex 63.25000762939453 13.700012207031246 0.6027211512463366
  endloop
endfacet
facet normal -1.0 0.0 0.0
  outer loop
    vertex 63.25000762939453 13.700012207031246 0.0
    vertex 63.25000762939453 16.597991943359382 0.6027211512463366
    vertex 63.25000762939453 16.597991943359382 0.0
  endloop
endfacet
facet normal -1.0 0.0 0.0
  outer loop
    vertex 65.50000762939452 2.8999938964843697 0.6027211512463366
    vertex 65.50000762939452 0.0 0.0020008087158203125
    vertex 65.50000762939452 0.0 0.6027211512463366
  endloop
endfacet
facet normal -1.0 0.0 0.0
  outer loop
    vertex 65.50000762939452 0.0 0.0020008087158203125
    vertex 65.50000762939452 2.8999938964843697 0.6027211512463366
    vertex 65.50000762939452 2.8999938964843697 0.0020008087158203125
  endloop
endfacet
facet normal 0.0 0.0 1.0
  outer loop
    vertex 72.8580093383789 0.0 0.6027211512463366
    vertex 65.50000762939452 2.8999938964843697 0.6027211512463366
    vertex 65.50000762939452 0.0 0.6027211512463366
  endloop
endfacet
facet normal 0.0 0.0 1.0
  outer loop
    vertex 65.50000762939452 2.8999938964843697 0.6027211512463366
    vertex 72.8580093383789 0.0 0.6027211512463366
    vertex 74.10001373291016 2.8999938964843697 0.6027211512463366
  endloop
endfacet
facet normal 0.0 0.0 1.0
  outer loop
    vertex 74.10001373291016 2.8999938964843697 0.6027211512463366
    vertex 72.8580093383789 0.0 0.6027211512463366
    vertex 76.99799346923828 4.141998291015659 0.6027211512463366
  endloop
endfacet
facet normal 0.0 0.0 1.0
  outer loop
    vertex 74.10001373291016 2.8999938964843697 0.6027211512463366
    vertex 76.99799346923828 4.141998291015659 0.6027211512463366
    vertex 74.10001373291016 13.700012207031246 0.6027211512463366
  endloop
endfacet
facet normal 0.0 0.0 1.0
  outer loop
    vertex 74.10001373291016 13.700012207031246 0.6027211512463366
    vertex 76.99799346923828 4.141998291015659 0.6027211512463366
    vertex 75.99799346923828 16.597991943359382 0.6027211512463366
  endloop
endfacet
facet normal 0.0 0.0 1.0
  outer loop
    vertex 75.99799346923828 16.597991943359382 0.6027211512463366
    vertex 76.99799346923828 4.141998291015659 0.6027211512463366
    vertex 76.25800323486328 16.566009521484364 0.6027211512463366
  endloop
endfacet
facet normal 0.0 0.0 1.0
  outer loop
    vertex 76.25800323486328 16.566009521484364 0.6027211512463366
    vertex 76.99799346923828 4.141998291015659 0.6027211512463366
    vertex 76.50000762939452 16.463989257812504 0.6027211512463366
  endloop
endfacet
facet normal 0.0 0.0 1.0
  outer loop
    vertex 76.50000762939452 16.463989257812504 0.6027211512463366
    vertex 76.99799346923828 4.141998291015659 0.6027211512463366
    vertex 76.70600128173828 16.305999755859396 0.6027211512463366
  endloop
endfacet
facet normal 0.0 0.0 1.0
  outer loop
    vertex 76.70600128173828 16.305999755859396 0.6027211512463366
    vertex 76.99799346923828 4.141998291015659 0.6027211512463366
    vertex 76.86400604248045 16.10000610351564 0.6027211512463366
  endloop
endfacet
facet normal 0.0 0.0 1.0
  outer loop
    vertex 76.86400604248045 16.10000610351564 0.6027211512463366
    vertex 76.99799346923828 4.141998291015659 0.6027211512463366
    vertex 76.96398162841795 15.858001708984395 0.6027211512463366
  endloop
endfacet
facet normal 0.0 0.0 1.0
  outer loop
    vertex 76.96398162841795 15.858001708984395 0.6027211512463366
    vertex 76.99799346923828 4.141998291015659 0.6027211512463366
    vertex 76.99799346923828 15.597991943359382 0.6027211512463366
  endloop
endfacet
facet normal 0.0 0.0 1.0
  outer loop
    vertex 74.10001373291016 13.700012207031246 0.6027211512463366
    vertex 63.25000762939453 16.597991943359382 0.6027211512463366
    vertex 63.25000762939453 13.700012207031246 0.6027211512463366
  endloop
endfacet
facet normal 0.0 0.0 1.0
  outer loop
    vertex 63.25000762939453 16.597991943359382 0.6027211512463366
    vertex 74.10001373291016 13.700012207031246 0.6027211512463366
    vertex 75.99799346923828 16.597991943359382 0.6027211512463366
  endloop
endfacet
endsolid Untitled-5eb7dca6
