solid 3d_model
facet normal 1.0 0.0 0.0
  outer loop
    vertex 15.796167830078634 76.914962 0.7999999999999985
    vertex 15.796167830078634 68.59262100000001 3.3000000000000047
    vertex 15.796167830078634 68.59262100000001 0.7999999999999985
  endloop
endfacet
facet normal 1.0 0.0 0.0
  outer loop
    vertex 15.796167830078634 68.59262100000001 3.3000000000000047
    vertex 15.796167830078634 76.914962 0.7999999999999985
    vertex 15.796167830078634 76.914962 3.3000000000000003
  endloop
endfacet
facet normal -0.0 -1.0 -0.0
  outer loop
    vertex 15.796167830078634 68.59262100000001 3.3000000000000047
    vertex 11.232856830078635 68.59262100000001 0.7999999999999985
    vertex 15.796167830078634 68.59262100000001 0.7999999999999985
  endloop
endfacet
facet normal -0.0 -1.0 -0.0
  outer loop
    vertex 11.232856830078635 68.59262100000001 0.7999999999999985
    vertex 15.796167830078634 68.59262100000001 3.3000000000000047
    vertex 11.232856830078635 68.59262100000001 3.3000000000000047
  endloop
endfacet
facet normal -1.0 0.0 0.0
  outer loop
    vertex 11.232856830078635 76.914962 3.3000000000000025
    vertex 11.232856830078635 68.59262100000001 0.7999999999999985
    vertex 11.232856830078635 68.59262100000001 3.3000000000000047
  endloop
endfacet
facet normal -1.0 0.0 0.0
  outer loop
    vertex 11.232856830078635 68.59262100000001 0.7999999999999985
    vertex 11.232856830078635 76.914962 3.3000000000000025
    vertex 11.232856830078635 76.914962 0.7999999999999985
  endloop
endfacet
facet normal -0.0 -1.0 -0.0
  outer loop
    vertex 78.26996483007864 68.59262099999998 3.3000000000000016
    vertex 73.57839283007863 68.59262099999998 0.7999999999999985
    vertex 78.26996483007864 68.59262099999998 0.7999999999999985
  endloop
endfacet
facet normal -0.0 -1.0 -0.0
  outer loop
    vertex 73.57839283007863 68.59262099999998 0.7999999999999985
    vertex 78.26996483007864 68.59262099999998 3.3000000000000016
    vertex 73.57839283007863 68.59262099999998 3.3000000000000016
  endloop
endfacet
facet normal -1.0 0.0 0.0
  outer loop
    vertex 73.57839283007863 76.914962 3.3000000000000003
    vertex 73.57839283007863 68.59262099999998 0.7999999999999985
    vertex 73.57839283007863 68.59262099999998 3.3000000000000016
  endloop
endfacet
facet normal -1.0 0.0 0.0
  outer loop
    vertex 73.57839283007863 68.59262099999998 0.7999999999999985
    vertex 73.57839283007863 76.914962 3.3000000000000003
    vertex 73.57839283007863 76.914962 0.7999999999999985
  endloop
endfacet
facet normal 0.0 -1.0 0.0
  outer loop
    vertex 73.57839283007863 76.914962 3.3000000000000003
    vertex 15.796167830078634 76.914962 0.7999999999999985
    vertex 73.57839283007863 76.914962 0.7999999999999985
  endloop
endfacet
facet normal 0.0 -1.0 0.0
  outer loop
    vertex 15.796167830078634 76.914962 0.7999999999999985
    vertex 73.57839283007863 76.914962 3.3000000000000003
    vertex 15.796167830078634 76.914962 3.3000000000000003
  endloop
endfacet
facet normal 0.0 1.0 0.0
  outer loop
    vertex -2.767143169921365 79.546167 3.3000000000000047
    vertex 92.26996483007864 79.546167 0.7999999999999985
    vertex -2.767143169921365 79.546167 0.7999999999999985
  endloop
endfacet
facet normal 0.0 1.0 0.0
  outer loop
    vertex 92.26996483007864 79.546167 0.7999999999999985
    vertex -2.767143169921365 79.546167 3.3000000000000047
    vertex 92.26996483007864 79.546167 3.3000000000000016
  endloop
endfacet
facet normal 0.0 0.0 -1.0
  outer loop
    vertex 92.26996483007864 79.546167 0.7999999999999985
    vertex -2.767143169921365 76.914962 0.7999999999999985
    vertex -2.767143169921365 79.546167 0.7999999999999985
  endloop
endfacet
facet normal 0.0 0.0 -1.0
  outer loop
    vertex -2.767143169921365 76.914962 0.7999999999999985
    vertex 92.26996483007864 79.546167 0.7999999999999985
    vertex 11.232856830078635 76.914962 0.7999999999999985
  endloop
endfacet
facet normal 0.0 0.0 -1.0
  outer loop
    vertex 11.232856830078635 76.914962 0.7999999999999985
    vertex 92.26996483007864 79.546167 0.7999999999999985
    vertex 15.796167830078634 76.914962 0.7999999999999985
  endloop
endfacet
facet normal 0.0 0.0 -1.0
  outer loop
    vertex 11.232856830078635 76.914962 0.7999999999999985
    vertex 15.796167830078634 76.914962 0.7999999999999985
    vertex 11.232856830078635 68.59262100000001 0.7999999999999985
  endloop
endfacet
facet normal 0.0 0.0 -1.0
  outer loop
    vertex 15.796167830078634 76.914962 0.7999999999999985
    vertex 92.26996483007864 79.546167 0.7999999999999985
    vertex 73.57839283007863 76.914962 0.7999999999999985
  endloop
endfacet
facet normal 0.0 0.0 -1.0
  outer loop
    vertex 73.57839283007863 76.914962 0.7999999999999985
    vertex 92.26996483007864 79.546167 0.7999999999999985
    vertex 78.26996483007864 76.914962 0.7999999999999985
  endloop
endfacet
facet normal 0.0 0.0 -1.0
  outer loop
    vertex 73.57839283007863 76.914962 0.7999999999999985
    vertex 78.26996483007864 76.914962 0.7999999999999985
    vertex 73.57839283007863 68.59262099999998 0.7999999999999985
  endloop
endfacet
facet normal 0.0 0.0 -1.0
  outer loop
    vertex 78.26996483007864 76.914962 0.7999999999999985
    vertex 92.26996483007864 79.546167 0.7999999999999985
    vertex 92.26996483007864 76.914962 0.7999999999999985
  endloop
endfacet
facet normal 0.0 0.0 -1.0
  outer loop
    vertex 78.26996483007864 68.59262099999998 0.7999999999999985
    vertex 73.57839283007863 68.59262099999998 0.7999999999999985
    vertex 78.26996483007864 76.914962 0.7999999999999985
  endloop
endfacet
facet normal 0.0 0.0 -1.0
  outer loop
    vertex 15.796167830078634 68.59262100000001 0.7999999999999985
    vertex 11.232856830078635 68.59262100000001 0.7999999999999985
    vertex 15.796167830078634 76.914962 0.7999999999999985
  endloop
endfacet
facet normal 2.1756873773109856e-17 1.0221100503581913e-16 1.0
  outer loop
    vertex 15.796167830078634 68.59262100000001 3.3000000000000047
    vertex 11.232856830078635 76.914962 3.3000000000000025
    vertex 11.232856830078635 68.59262100000001 3.3000000000000047
  endloop
endfacet
facet normal 2.1756873773109856e-17 1.0221100503581913e-16 1.0
  outer loop
    vertex 78.26996483007864 68.59262099999998 3.3000000000000016
    vertex 73.57839283007863 76.914962 3.3000000000000003
    vertex 73.57839283007863 68.59262099999998 3.3000000000000016
  endloop
endfacet
facet normal 2.1756873773109856e-17 1.0221100503581913e-16 1.0
  outer loop
    vertex 11.232856830078635 76.914962 3.3000000000000025
    vertex -2.767143169921365 79.546167 3.3000000000000047
    vertex -2.767143169921365 76.914962 3.3000000000000025
  endloop
endfacet
facet normal 2.1756873773109856e-17 1.0221100503581913e-16 1.0
  outer loop
    vertex -2.767143169921365 79.546167 3.3000000000000047
    vertex 11.232856830078635 76.914962 3.3000000000000025
    vertex 92.26996483007864 79.546167 3.3000000000000016
  endloop
endfacet
facet normal 2.1756873773109856e-17 1.0221100503581913e-16 1.0
  outer loop
    vertex 92.26996483007864 79.546167 3.3000000000000016
    vertex 11.232856830078635 76.914962 3.3000000000000025
    vertex 15.796167830078634 76.914962 3.3000000000000003
  endloop
endfacet
facet normal 2.1756873773109856e-17 1.0221100503581913e-16 1.0
  outer loop
    vertex 15.796167830078634 76.914962 3.3000000000000003
    vertex 11.232856830078635 76.914962 3.3000000000000025
    vertex 15.796167830078634 68.59262100000001 3.3000000000000047
  endloop
endfacet
facet normal 2.1756873773109856e-17 1.0221100503581913e-16 1.0
  outer loop
    vertex 92.26996483007864 79.546167 3.3000000000000016
    vertex 15.796167830078634 76.914962 3.3000000000000003
    vertex 73.57839283007863 76.914962 3.3000000000000003
  endloop
endfacet
facet normal 2.1756873773109856e-17 1.0221100503581913e-16 1.0
  outer loop
    vertex 92.26996483007864 79.546167 3.3000000000000016
    vertex 73.57839283007863 76.914962 3.3000000000000003
    vertex 78.26996483007864 76.914962 3.3000000000000016
  endloop
endfacet
facet normal 2.1756873773109856e-17 1.0221100503581913e-16 1.0
  outer loop
    vertex 78.26996483007864 76.914962 3.3000000000000016
    vertex 73.57839283007863 76.914962 3.3000000000000003
    vertex 78.26996483007864 68.59262099999998 3.3000000000000016
  endloop
endfacet
facet normal 2.1756873773109856e-17 1.0221100503581913e-16 1.0
  outer loop
    vertex 92.26996483007864 79.546167 3.3000000000000016
    vertex 78.26996483007864 76.914962 3.3000000000000016
    vertex 92.26996483007864 76.914962 3.3000000000000016
  endloop
endfacet
facet normal 1.0 -0.0 -0.0
  outer loop
    vertex 78.26996483007864 76.914962 0.7999999999999985
    vertex 78.26996483007864 68.59262099999998 3.3000000000000016
    vertex 78.26996483007864 68.59262099999998 0.7999999999999985
  endloop
endfacet
facet normal 1.0 -0.0 -0.0
  outer loop
    vertex 78.26996483007864 68.59262099999998 3.3000000000000016
    vertex 78.26996483007864 76.914962 0.7999999999999985
    vertex 78.26996483007864 76.914962 3.3000000000000016
  endloop
endfacet
facet normal 1.0 0.0 0.0
  outer loop
    vertex 92.26996483007864 79.546167 0.7999999999999985
    vertex 92.26996483007864 76.914962 3.3000000000000016
    vertex 92.26996483007864 76.914962 0.7999999999999985
  endloop
endfacet
facet normal 1.0 0.0 0.0
  outer loop
    vertex 92.26996483007864 76.914962 3.3000000000000016
    vertex 92.26996483007864 79.546167 0.7999999999999985
    vertex 92.26996483007864 79.546167 3.3000000000000016
  endloop
endfacet
facet normal -0.0 -1.0 -0.0
  outer loop
    vertex 92.26996483007864 76.914962 3.3000000000000016
    vertex 78.26996483007864 76.914962 0.7999999999999985
    vertex 92.26996483007864 76.914962 0.7999999999999985
  endloop
endfacet
facet normal -0.0 -1.0 -0.0
  outer loop
    vertex 78.26996483007864 76.914962 0.7999999999999985
    vertex 92.26996483007864 76.914962 3.3000000000000016
    vertex 78.26996483007864 76.914962 3.3000000000000016
  endloop
endfacet
facet normal -1.0 0.0 0.0
  outer loop
    vertex -2.767143169921365 79.546167 3.3000000000000047
    vertex -2.767143169921365 76.914962 0.7999999999999985
    vertex -2.767143169921365 76.914962 3.3000000000000025
  endloop
endfacet
facet normal -1.0 0.0 0.0
  outer loop
    vertex -2.767143169921365 76.914962 0.7999999999999985
    vertex -2.767143169921365 79.546167 3.3000000000000047
    vertex -2.767143169921365 79.546167 0.7999999999999985
  endloop
endfacet
facet normal 0.0 -1.0 0.0
  outer loop
    vertex 11.232856830078635 76.914962 3.3000000000000025
    vertex -2.767143169921365 76.914962 0.7999999999999985
    vertex 11.232856830078635 76.914962 0.7999999999999985
  endloop
endfacet
facet normal 0.0 -1.0 0.0
  outer loop
    vertex -2.767143169921365 76.914962 0.7999999999999985
    vertex 11.232856830078635 76.914962 3.3000000000000025
    vertex -2.767143169921365 76.914962 3.3000000000000025
  endloop
endfacet
endsolid 3d_model
