solid button
facet normal 1.3801568129163809e-27 -3.73912034163239e-12 1.0
  outer loop
    vertex -1.0352761804100823 -3.863703305160949 2.499999999985547
    vertex -1.1300000000000001 -4.677002535258272e-12 2.499999999999995
    vertex -1.9999999999999984 -3.4641016151424315 2.4999999999870415
  endloop
endfacet
facet normal 1.3801568129163809e-27 -3.73912034163239e-12 1.0
  outer loop
    vertex -1.1300000000000001 -4.677002535258272e-12 2.499999999999995
    vertex -1.0352761804100823 -3.863703305160949 2.499999999985547
    vertex -1.091496183706647 -0.29246552097052536 2.4999999999989018
  endloop
endfacet
facet normal 1.3801568129163809e-27 -3.73912034163239e-12 1.0
  outer loop
    vertex -1.091496183706647 -0.29246552097052536 2.4999999999989018
    vertex -1.0352761804100823 -3.863703305160949 2.499999999985547
    vertex -0.9786087062764153 -0.5650000000046768 2.4999999999978826
  endloop
endfacet
facet normal 1.3801568129163809e-27 -3.73912034163239e-12 1.0
  outer loop
    vertex -0.9786087062764153 -0.5650000000046768 2.4999999999978826
    vertex -1.0352761804100823 -3.863703305160949 2.499999999985547
    vertex 0.0 -4.000000000004676 2.4999999999850377
  endloop
endfacet
facet normal 1.3801568129163809e-27 -3.73912034163239e-12 1.0
  outer loop
    vertex -0.9786087062764153 -0.5650000000046768 2.4999999999978826
    vertex 0.0 -4.000000000004676 2.4999999999850377
    vertex -0.7990306627407976 -0.7990306627454761 2.4999999999970073
  endloop
endfacet
facet normal 1.3801568129163809e-27 -3.73912034163239e-12 1.0
  outer loop
    vertex -0.7990306627407976 -0.7990306627454761 2.4999999999970073
    vertex 0.0 -4.000000000004676 2.4999999999850377
    vertex -0.5649999999999988 -0.9786087062810925 2.4999999999963363
  endloop
endfacet
facet normal 1.3801568129163809e-27 -3.73912034163239e-12 1.0
  outer loop
    vertex -0.5649999999999988 -0.9786087062810925 2.4999999999963363
    vertex 0.0 -4.000000000004676 2.4999999999850377
    vertex -0.2924655209658476 -1.0914961837113237 2.499999999995914
  endloop
endfacet
facet normal 1.3801568129163809e-27 -3.73912034163239e-12 1.0
  outer loop
    vertex -0.2924655209658476 -1.0914961837113237 2.499999999995914
    vertex 0.0 -4.000000000004676 2.4999999999850377
    vertex 1.4981071938535704e-15 -1.1300000000046762 2.49999999999577
  endloop
endfacet
facet normal 1.3801568129163809e-27 -3.73912034163239e-12 1.0
  outer loop
    vertex 1.4981071938535704e-15 -1.1300000000046762 2.49999999999577
    vertex 0.0 -4.000000000004676 2.4999999999850377
    vertex 1.0352761804100834 -3.863703305160949 2.499999999985547
  endloop
endfacet
facet normal 1.3801568129163809e-27 -3.73912034163239e-12 1.0
  outer loop
    vertex 1.4981071938535704e-15 -1.1300000000046762 2.49999999999577
    vertex 1.0352761804100834 -3.863703305160949 2.499999999985547
    vertex 0.2924655209658496 -1.091496183711323 2.499999999995914
  endloop
endfacet
facet normal 1.3801568129163809e-27 -3.73912034163239e-12 1.0
  outer loop
    vertex 0.2924655209658496 -1.091496183711323 2.499999999995914
    vertex 1.0352761804100834 -3.863703305160949 2.499999999985547
    vertex 0.5650000000000007 -0.9786087062810913 2.499999999996336
  endloop
endfacet
facet normal 1.3801568129163809e-27 -3.73912034163239e-12 1.0
  outer loop
    vertex 0.5650000000000007 -0.9786087062810913 2.499999999996336
    vertex 1.0352761804100834 -3.863703305160949 2.499999999985547
    vertex 0.7990306627407997 -0.7990306627454737 2.4999999999970073
  endloop
endfacet
facet normal 1.3801568129163809e-27 -3.73912034163239e-12 1.0
  outer loop
    vertex 0.7990306627407997 -0.7990306627454737 2.4999999999970073
    vertex 1.0352761804100834 -3.863703305160949 2.499999999985547
    vertex 0.9786087062764164 -0.5650000000046751 2.4999999999978826
  endloop
endfacet
facet normal 1.3801568129163809e-27 -3.73912034163239e-12 1.0
  outer loop
    vertex 0.9786087062764164 -0.5650000000046751 2.4999999999978826
    vertex 1.0352761804100834 -3.863703305160949 2.499999999985547
    vertex 1.0914961837066472 -0.2924655209705235 2.4999999999989013
  endloop
endfacet
facet normal 1.3801568129163809e-27 -3.73912034163239e-12 1.0
  outer loop
    vertex 1.0914961837066472 -0.2924655209705235 2.4999999999989013
    vertex 1.0352761804100834 -3.863703305160949 2.499999999985547
    vertex 1.9999999999999998 -3.46410161514243 2.4999999999870415
  endloop
endfacet
facet normal 1.3801568129163809e-27 -3.73912034163239e-12 1.0
  outer loop
    vertex 1.0914961837066472 -0.2924655209705235 2.4999999999989013
    vertex 1.9999999999999998 -3.46410161514243 2.4999999999870415
    vertex 1.13 -4.675240056206679e-12 2.499999999999995
  endloop
endfacet
facet normal 1.3801568129163809e-27 -3.73912034163239e-12 1.0
  outer loop
    vertex 1.13 -4.675240056206679e-12 2.499999999999995
    vertex 1.9999999999999998 -3.46410161514243 2.4999999999870415
    vertex 1.9999999999999971 3.46410161513308 2.500000000012947
  endloop
endfacet
facet normal 1.3801568129163809e-27 -3.73912034163239e-12 1.0
  outer loop
    vertex 1.9999999999999971 3.46410161513308 2.500000000012947
    vertex 1.9999999999999998 -3.46410161514243 2.4999999999870415
    vertex 2.828427124746188 2.828427124741514 2.5000000000105698
  endloop
endfacet
facet normal 1.3801568129163809e-27 -3.73912034163239e-12 1.0
  outer loop
    vertex 2.828427124746188 2.828427124741514 2.5000000000105698
    vertex 1.9999999999999998 -3.46410161514243 2.4999999999870415
    vertex 2.8284271247461894 -2.828427124750866 2.4999999999894182
  endloop
endfacet
facet normal 1.3801568129163809e-27 -3.73912034163239e-12 1.0
  outer loop
    vertex 2.828427124746188 2.828427124741514 2.5000000000105698
    vertex 2.8284271247461894 -2.828427124750866 2.4999999999894182
    vertex 3.464101615137753 1.9999999999953255 2.5000000000074727
  endloop
endfacet
facet normal 1.3801568129163809e-27 -3.73912034163239e-12 1.0
  outer loop
    vertex 3.464101615137753 1.9999999999953255 2.5000000000074727
    vertex 2.8284271247461894 -2.828427124750866 2.4999999999894182
    vertex 3.464101615137753 -2.0000000000046754 2.4999999999925158
  endloop
endfacet
facet normal 1.3801568129163809e-27 -3.73912034163239e-12 1.0
  outer loop
    vertex 3.464101615137753 1.9999999999953255 2.5000000000074727
    vertex 3.464101615137753 -2.0000000000046754 2.4999999999925158
    vertex 3.863703305156272 -1.0352761804147588 2.499999999996123
  endloop
endfacet
facet normal 1.3801568129163809e-27 -3.73912034163239e-12 1.0
  outer loop
    vertex 3.464101615137753 1.9999999999953255 2.5000000000074727
    vertex 3.863703305156272 -1.0352761804147588 2.499999999996123
    vertex 3.8637033051562706 1.03527618040541 2.500000000003865
  endloop
endfacet
facet normal 1.3801568129163809e-27 -3.73912034163239e-12 1.0
  outer loop
    vertex 3.8637033051562706 1.03527618040541 2.500000000003865
    vertex 3.863703305156272 -1.0352761804147588 2.499999999996123
    vertex 3.999999999999999 -4.676209419685051e-12 2.4999999999999942
  endloop
endfacet
facet normal 1.3801568129163809e-27 -3.73912034163239e-12 1.0
  outer loop
    vertex -3.863703305156272 -1.0352761804147603 2.499999999996123
    vertex -3.863703305156273 1.035276180405405 2.500000000003865
    vertex -3.999999999999999 -4.6769144113056875e-12 2.4999999999999942
  endloop
endfacet
facet normal 1.3801568129163809e-27 -3.73912034163239e-12 1.0
  outer loop
    vertex -3.863703305156273 1.035276180405405 2.500000000003865
    vertex -3.863703305156272 -1.0352761804147603 2.499999999996123
    vertex -3.4641016151377544 1.9999999999953226 2.5000000000074727
  endloop
endfacet
facet normal 1.3801568129163809e-27 -3.73912034163239e-12 1.0
  outer loop
    vertex -3.4641016151377544 1.9999999999953226 2.5000000000074727
    vertex -3.863703305156272 -1.0352761804147603 2.499999999996123
    vertex -3.464101615137753 -2.0000000000046776 2.4999999999925158
  endloop
endfacet
facet normal 1.3801568129163809e-27 -3.73912034163239e-12 1.0
  outer loop
    vertex -3.4641016151377544 1.9999999999953226 2.5000000000074727
    vertex -3.464101615137753 -2.0000000000046776 2.4999999999925158
    vertex -2.828427124746191 2.8284271247415123 2.5000000000105698
  endloop
endfacet
facet normal 1.3801568129163809e-27 -3.73912034163239e-12 1.0
  outer loop
    vertex -2.828427124746191 2.8284271247415123 2.5000000000105698
    vertex -3.464101615137753 -2.0000000000046776 2.4999999999925158
    vertex -2.8284271247461894 -2.828427124750866 2.4999999999894182
  endloop
endfacet
facet normal 1.3801568129163809e-27 -3.73912034163239e-12 1.0
  outer loop
    vertex -2.828427124746191 2.8284271247415123 2.5000000000105698
    vertex -2.8284271247461894 -2.828427124750866 2.4999999999894182
    vertex -2.0000000000000013 3.464101615133077 2.500000000012947
  endloop
endfacet
facet normal 1.3801568129163809e-27 -3.73912034163239e-12 1.0
  outer loop
    vertex -2.0000000000000013 3.464101615133077 2.500000000012947
    vertex -2.8284271247461894 -2.828427124750866 2.4999999999894182
    vertex -1.9999999999999984 -3.4641016151424315 2.4999999999870415
  endloop
endfacet
facet normal 1.3801568129163809e-27 -3.73912034163239e-12 1.0
  outer loop
    vertex -2.0000000000000013 3.464101615133077 2.500000000012947
    vertex -1.9999999999999984 -3.4641016151424315 2.4999999999870415
    vertex -1.0352761804100858 3.8637033051515957 2.500000000014441
  endloop
endfacet
facet normal 1.3801568129163809e-27 -3.73912034163239e-12 1.0
  outer loop
    vertex -1.0352761804100858 3.8637033051515957 2.500000000014441
    vertex -1.9999999999999984 -3.4641016151424315 2.4999999999870415
    vertex -1.1300000000000001 -4.677002535258272e-12 2.499999999999995
  endloop
endfacet
facet normal 1.3801568129163809e-27 -3.73912034163239e-12 1.0
  outer loop
    vertex -1.0352761804100858 3.8637033051515957 2.500000000014441
    vertex -1.1300000000000001 -4.677002535258272e-12 2.499999999999995
    vertex -1.0914961837066472 0.2924655209611717 2.500000000001089
  endloop
endfacet
facet normal 1.3801568129163809e-27 -3.73912034163239e-12 1.0
  outer loop
    vertex -1.0352761804100858 3.8637033051515957 2.500000000014441
    vertex -1.0914961837066472 0.2924655209611717 2.500000000001089
    vertex -0.9786087062764159 0.5649999999953231 2.5000000000021076
  endloop
endfacet
facet normal 1.3801568129163809e-27 -3.73912034163239e-12 1.0
  outer loop
    vertex -1.0352761804100858 3.8637033051515957 2.500000000014441
    vertex -0.9786087062764159 0.5649999999953231 2.5000000000021076
    vertex -7.049916206369744e-16 3.9999999999953233 2.5000000000149507
  endloop
endfacet
facet normal 1.3801568129163809e-27 -3.73912034163239e-12 1.0
  outer loop
    vertex -7.049916206369744e-16 3.9999999999953233 2.5000000000149507
    vertex -0.9786087062764159 0.5649999999953231 2.5000000000021076
    vertex -0.7990306627407994 0.7990306627361219 2.500000000002983
  endloop
endfacet
facet normal 1.3801568129163809e-27 -3.73912034163239e-12 1.0
  outer loop
    vertex -7.049916206369744e-16 3.9999999999953233 2.5000000000149507
    vertex -0.7990306627407994 0.7990306627361219 2.500000000002983
    vertex -0.5650000000000006 0.9786087062717391 2.5000000000036544
  endloop
endfacet
facet normal 1.3801568129163809e-27 -3.73912034163239e-12 1.0
  outer loop
    vertex -7.049916206369744e-16 3.9999999999953233 2.5000000000149507
    vertex -0.5650000000000006 0.9786087062717391 2.5000000000036544
    vertex -0.29246552096584927 1.091496183701971 2.5000000000040763
  endloop
endfacet
facet normal 1.3801568129163809e-27 -3.73912034163239e-12 1.0
  outer loop
    vertex -7.049916206369744e-16 3.9999999999953233 2.5000000000149507
    vertex -0.29246552096584927 1.091496183701971 2.5000000000040763
    vertex -8.81239525796218e-16 1.1299999999953236 2.50000000000422
  endloop
endfacet
facet normal 1.3801568129163809e-27 -3.73912034163239e-12 1.0
  outer loop
    vertex -7.049916206369744e-16 3.9999999999953233 2.5000000000149507
    vertex -8.81239525796218e-16 1.1299999999953236 2.50000000000422
    vertex 0.2924655209658477 1.091496183701971 2.5000000000040763
  endloop
endfacet
facet normal 1.3801568129163809e-27 -3.73912034163239e-12 1.0
  outer loop
    vertex -7.049916206369744e-16 3.9999999999953233 2.5000000000149507
    vertex 0.2924655209658477 1.091496183701971 2.5000000000040763
    vertex 1.0352761804100805 3.863703305151597 2.500000000014441
  endloop
endfacet
facet normal 1.3801568129163809e-27 -3.73912034163239e-12 1.0
  outer loop
    vertex 1.0352761804100805 3.863703305151597 2.500000000014441
    vertex 0.2924655209658477 1.091496183701971 2.5000000000040763
    vertex 0.5649999999999991 0.97860870627174 2.500000000003654
  endloop
endfacet
facet normal 1.3801568129163809e-27 -3.73912034163239e-12 1.0
  outer loop
    vertex 1.0352761804100805 3.863703305151597 2.500000000014441
    vertex 0.5649999999999991 0.97860870627174 2.500000000003654
    vertex 0.7990306627407981 0.7990306627361231 2.500000000002983
  endloop
endfacet
facet normal 1.3801568129163809e-27 -3.73912034163239e-12 1.0
  outer loop
    vertex 1.0352761804100805 3.863703305151597 2.500000000014441
    vertex 0.7990306627407981 0.7990306627361231 2.500000000002983
    vertex 0.9786087062764153 0.5649999999953245 2.5000000000021076
  endloop
endfacet
facet normal 1.3801568129163809e-27 -3.73912034163239e-12 1.0
  outer loop
    vertex 1.0352761804100805 3.863703305151597 2.500000000014441
    vertex 0.9786087062764153 0.5649999999953245 2.5000000000021076
    vertex 1.091496183706647 0.29246552096117334 2.5000000000010885
  endloop
endfacet
facet normal 1.3801568129163809e-27 -3.73912034163239e-12 1.0
  outer loop
    vertex 1.0352761804100805 3.863703305151597 2.500000000014441
    vertex 1.091496183706647 0.29246552096117334 2.5000000000010885
    vertex 1.9999999999999971 3.46410161513308 2.500000000012947
  endloop
endfacet
facet normal 1.3801568129163809e-27 -3.73912034163239e-12 1.0
  outer loop
    vertex 1.9999999999999971 3.46410161513308 2.500000000012947
    vertex 1.091496183706647 0.29246552096117334 2.5000000000010885
    vertex 1.13 -4.675240056206679e-12 2.499999999999995
  endloop
endfacet
facet normal 0.0 4.6717586515242636e-12 -1.0
  outer loop
    vertex -3.092402476425967 0.8286067462350123 3.865116560142212e-12
    vertex -3.092402476425966 -0.8286067462256701 -3.8767489218827224e-12
    vertex -3.201490624084957 4.671473038638948e-12 -5.992428775414282e-15
  endloop
endfacet
facet normal 0.0 4.6717586515242636e-12 -1.0
  outer loop
    vertex -3.092402476425966 -0.8286067462256701 -3.8767489218827224e-12
    vertex -3.092402476425967 0.8286067462350123 3.865116560142212e-12
    vertex -2.77257221043527 1.6007453120471486 7.47255868294161e-12
  endloop
endfacet
facet normal 0.0 4.6717586515242636e-12 -1.0
  outer loop
    vertex -3.092402476425966 -0.8286067462256701 -3.8767489218827224e-12
    vertex -2.77257221043527 1.6007453120471486 7.47255868294161e-12
    vertex -2.7725722104352686 -1.600745312037807 -7.48419104468212e-12
  endloop
endfacet
facet normal 0.0 4.6717586515242636e-12 -1.0
  outer loop
    vertex -2.7725722104352686 -1.600745312037807 -7.48419104468212e-12
    vertex -2.77257221043527 1.6007453120471486 7.47255868294161e-12
    vertex -2.263795730195626 2.263795730200295 1.0569939368210156e-11
  endloop
endfacet
facet normal 0.0 4.6717586515242636e-12 -1.0
  outer loop
    vertex -2.7725722104352686 -1.600745312037807 -7.48419104468212e-12
    vertex -2.263795730195626 2.263795730200295 1.0569939368210156e-11
    vertex -2.2637957301956244 -2.2637957301909535 -1.0581571729950667e-11
  endloop
endfacet
facet normal 0.0 4.6717586515242636e-12 -1.0
  outer loop
    vertex -2.2637957301956244 -2.2637957301909535 -1.0581571729950667e-11
    vertex -2.263795730195626 2.263795730200295 1.0569939368210156e-11
    vertex -1.6007453120424804 2.772572210439939 1.2946818617187716e-11
  endloop
endfacet
facet normal 0.0 4.6717586515242636e-12 -1.0
  outer loop
    vertex -2.2637957301956244 -2.2637957301909535 -1.0581571729950667e-11
    vertex -1.6007453120424804 2.772572210439939 1.2946818617187716e-11
    vertex -1.6007453120424777 -2.772572210430601 -1.2958450978928226e-11
  endloop
endfacet
facet normal 0.0 4.6717586515242636e-12 -1.0
  outer loop
    vertex -1.6007453120424777 -2.772572210430601 -1.2958450978928226e-11
    vertex -1.6007453120424804 2.772572210439939 1.2946818617187716e-11
    vertex -0.8286067462303445 3.092402476430635 1.4441048357127783e-11
  endloop
endfacet
facet normal 0.0 4.6717586515242636e-12 -1.0
  outer loop
    vertex -1.6007453120424777 -2.772572210430601 -1.2958450978928226e-11
    vertex -0.8286067462303445 3.092402476430635 1.4441048357127783e-11
    vertex -0.828606746230341 -3.092402476421299 -1.4452680718868292e-11
  endloop
endfacet
facet normal 0.0 4.6717586515242636e-12 -1.0
  outer loop
    vertex -0.828606746230341 -3.092402476421299 -1.4452680718868292e-11
    vertex -0.8286067462303445 3.092402476430635 1.4441048357127783e-11
    vertex -5.642560158819331e-16 3.2014906240896286 1.4950757298848314e-11
  endloop
endfacet
facet normal 0.0 4.6717586515242636e-12 -1.0
  outer loop
    vertex -0.828606746230341 -3.092402476421299 -1.4452680718868292e-11
    vertex -5.642560158819331e-16 3.2014906240896286 1.4950757298848314e-11
    vertex 0.0 -3.2014906240802827 -1.4962389660588827e-11
  endloop
endfacet
facet normal 0.0 4.6717586515242636e-12 -1.0
  outer loop
    vertex 0.0 -3.2014906240802827 -1.4962389660588827e-11
    vertex -5.642560158819331e-16 3.2014906240896286 1.4950757298848314e-11
    vertex 0.8286067462303397 3.092402476430636 1.4441048357127783e-11
  endloop
endfacet
facet normal 0.0 4.6717586515242636e-12 -1.0
  outer loop
    vertex 0.0 -3.2014906240802827 -1.4962389660588827e-11
    vertex 0.8286067462303397 3.092402476430636 1.4441048357127783e-11
    vertex 0.8286067462303419 -3.092402476421299 -1.4452680718868292e-11
  endloop
endfacet
facet normal 0.0 4.6717586515242636e-12 -1.0
  outer loop
    vertex 0.8286067462303419 -3.092402476421299 -1.4452680718868292e-11
    vertex 0.8286067462303397 3.092402476430636 1.4441048357127783e-11
    vertex 1.6007453120424768 2.7725722104399417 1.2946818617187716e-11
  endloop
endfacet
facet normal 0.0 4.6717586515242636e-12 -1.0
  outer loop
    vertex 0.8286067462303419 -3.092402476421299 -1.4452680718868292e-11
    vertex 1.6007453120424768 2.7725722104399417 1.2946818617187716e-11
    vertex 1.600745312042479 -2.7725722104306 -1.2958450978928226e-11
  endloop
endfacet
facet normal 0.0 4.6717586515242636e-12 -1.0
  outer loop
    vertex 1.600745312042479 -2.7725722104306 -1.2958450978928226e-11
    vertex 1.6007453120424768 2.7725722104399417 1.2946818617187716e-11
    vertex 2.263795730195623 2.2637957302002967 1.0569939368210156e-11
  endloop
endfacet
facet normal 0.0 4.6717586515242636e-12 -1.0
  outer loop
    vertex 1.600745312042479 -2.7725722104306 -1.2958450978928226e-11
    vertex 2.263795730195623 2.2637957302002967 1.0569939368210156e-11
    vertex 2.2637957301956244 -2.2637957301909535 -1.0581571729950667e-11
  endloop
endfacet
facet normal 0.0 4.6717586515242636e-12 -1.0
  outer loop
    vertex 2.2637957301956244 -2.2637957301909535 -1.0581571729950667e-11
    vertex 2.263795730195623 2.2637957302002967 1.0569939368210156e-11
    vertex 2.7725722104352686 1.60074531204715 7.47255868294161e-12
  endloop
endfacet
facet normal 0.0 4.6717586515242636e-12 -1.0
  outer loop
    vertex 2.2637957301956244 -2.2637957301909535 -1.0581571729950667e-11
    vertex 2.7725722104352686 1.60074531204715 7.47255868294161e-12
    vertex 2.7725722104352686 -1.600745312037805 -7.48419104468212e-12
  endloop
endfacet
facet normal 0.0 4.6717586515242636e-12 -1.0
  outer loop
    vertex 2.7725722104352686 -1.600745312037805 -7.48419104468212e-12
    vertex 2.7725722104352686 1.60074531204715 7.47255868294161e-12
    vertex 3.0924024764259648 0.8286067462350166 3.865116560142212e-12
  endloop
endfacet
facet normal 0.0 4.6717586515242636e-12 -1.0
  outer loop
    vertex 2.7725722104352686 -1.600745312037805 -7.48419104468212e-12
    vertex 3.0924024764259648 0.8286067462350166 3.865116560142212e-12
    vertex 3.092402476425966 -0.8286067462256691 -3.8767489218827224e-12
  endloop
endfacet
facet normal 0.0 4.6717586515242636e-12 -1.0
  outer loop
    vertex 3.092402476425966 -0.8286067462256691 -3.8767489218827224e-12
    vertex 3.0924024764259648 0.8286067462350166 3.865116560142212e-12
    vertex 3.201490624084957 4.672037294654826e-12 -5.992428775414282e-15
  endloop
endfacet
facet normal 0.880772218535422 -0.36482779827757295 -0.3018956386901436
  outer loop
    vertex 2.7725722104352686 -1.600745312037805 -7.48419104468212e-12
    vertex 3.863703305156272 -1.0352761804147588 2.499999999996123
    vertex 3.464101615137753 -2.0000000000046754 2.4999999999925158
  endloop
endfacet
facet normal 0.880772218535422 -0.36482779827757295 -0.3018956386901436
  outer loop
    vertex 3.863703305156272 -1.0352761804147588 2.499999999996123
    vertex 2.7725722104352686 -1.600745312037805 -7.48419104468212e-12
    vertex 3.092402476425966 -0.8286067462256691 -3.8767489218827224e-12
  endloop
endfacet
facet normal 0.945185015338552 0.12443596795274181 -0.3018956386884806
  outer loop
    vertex 3.201490624084957 4.672037294654826e-12 -5.992428775414282e-15
    vertex 3.8637033051562706 1.03527618040541 2.500000000003865
    vertex 3.999999999999999 -4.676209419685051e-12 2.4999999999999942
  endloop
endfacet
facet normal 0.945185015338552 0.12443596795274181 -0.3018956386884806
  outer loop
    vertex 3.8637033051562706 1.03527618040541 2.500000000003865
    vertex 3.201490624084957 4.672037294654826e-12 -5.992428775414282e-15
    vertex 3.0924024764259648 0.8286067462350166 3.865116560142212e-12
  endloop
endfacet
facet normal 0.7563362505839453 -0.5803572170586384 -0.301895638690876
  outer loop
    vertex 2.2637957301956244 -2.2637957301909535 -1.0581571729950667e-11
    vertex 3.464101615137753 -2.0000000000046754 2.4999999999925158
    vertex 2.8284271247461894 -2.828427124750866 2.4999999999894182
  endloop
endfacet
facet normal 0.7563362505839453 -0.5803572170586384 -0.301895638690876
  outer loop
    vertex 3.464101615137753 -2.0000000000046754 2.4999999999925158
    vertex 2.2637957301956244 -2.2637957301909535 -1.0581571729950667e-11
    vertex 2.7725722104352686 -1.600745312037805 -7.48419104468212e-12
  endloop
endfacet
facet normal -0.5803572170596971 0.7563362505849461 -0.3018956386863335
  outer loop
    vertex -2.828427124746191 2.8284271247415123 2.5000000000105698
    vertex -1.6007453120424804 2.772572210439939 1.2946818617187716e-11
    vertex -2.263795730195626 2.263795730200295 1.0569939368210156e-11
  endloop
endfacet
facet normal -0.5803572170596971 0.7563362505849461 -0.3018956386863335
  outer loop
    vertex -1.6007453120424804 2.772572210439939 1.2946818617187716e-11
    vertex -2.828427124746191 2.8284271247415123 2.5000000000105698
    vertex -2.0000000000000013 3.464101615133077 2.500000000012947
  endloop
endfacet
facet normal 0.12443596795147853 0.945185015339609 -0.3018956386856922
  outer loop
    vertex -5.642560158819331e-16 3.2014906240896286 1.4950757298848314e-11
    vertex 1.0352761804100805 3.863703305151597 2.500000000014441
    vertex 0.8286067462303397 3.092402476430636 1.4441048357127783e-11
  endloop
endfacet
facet normal 0.12443596795147853 0.945185015339609 -0.3018956386856922
  outer loop
    vertex 1.0352761804100805 3.863703305151597 2.500000000014441
    vertex -5.642560158819331e-16 3.2014906240896286 1.4950757298848314e-11
    vertex -7.049916206369744e-16 3.9999999999953233 2.5000000000149507
  endloop
endfacet
facet normal 0.5803572170596971 0.7563362505849464 -0.3018956386863335
  outer loop
    vertex 1.6007453120424768 2.7725722104399417 1.2946818617187716e-11
    vertex 2.828427124746188 2.828427124741514 2.5000000000105698
    vertex 2.263795730195623 2.2637957302002967 1.0569939368210156e-11
  endloop
endfacet
facet normal 0.5803572170596971 0.7563362505849464 -0.3018956386863335
  outer loop
    vertex 2.828427124746188 2.828427124741514 2.5000000000105698
    vertex 1.6007453120424768 2.7725722104399417 1.2946818617187716e-11
    vertex 1.9999999999999971 3.46410161513308 2.500000000012947
  endloop
endfacet
facet normal -0.7563362505837391 0.580357217060959 -0.3018956386869315
  outer loop
    vertex -3.4641016151377544 1.9999999999953226 2.5000000000074727
    vertex -2.263795730195626 2.263795730200295 1.0569939368210156e-11
    vertex -2.77257221043527 1.6007453120471486 7.47255868294161e-12
  endloop
endfacet
facet normal -0.7563362505837391 0.580357217060959 -0.3018956386869315
  outer loop
    vertex -2.263795730195626 2.263795730200295 1.0569939368210156e-11
    vertex -3.4641016151377544 1.9999999999953226 2.5000000000074727
    vertex -2.828427124746191 2.8284271247415123 2.5000000000105698
  endloop
endfacet
facet normal 0.7563362505837383 0.5803572170609601 -0.30189563868693164
  outer loop
    vertex 2.263795730195623 2.2637957302002967 1.0569939368210156e-11
    vertex 3.464101615137753 1.9999999999953255 2.5000000000074727
    vertex 2.7725722104352686 1.60074531204715 7.47255868294161e-12
  endloop
endfacet
facet normal 0.7563362505837383 0.5803572170609601 -0.30189563868693164
  outer loop
    vertex 3.464101615137753 1.9999999999953255 2.5000000000074727
    vertex 2.263795730195623 2.2637957302002967 1.0569939368210156e-11
    vertex 2.828427124746188 2.828427124741514 2.5000000000105698
  endloop
endfacet
facet normal -0.1244359679514794 0.9451850153396087 -0.3018956386856921
  outer loop
    vertex -1.0352761804100858 3.8637033051515957 2.500000000014441
    vertex -5.642560158819331e-16 3.2014906240896286 1.4950757298848314e-11
    vertex -0.8286067462303445 3.092402476430635 1.4441048357127783e-11
  endloop
endfacet
facet normal -0.1244359679514794 0.9451850153396087 -0.3018956386856921
  outer loop
    vertex -5.642560158819331e-16 3.2014906240896286 1.4950757298848314e-11
    vertex -1.0352761804100858 3.8637033051515957 2.500000000014441
    vertex -7.049916206369744e-16 3.9999999999953233 2.5000000000149507
  endloop
endfacet
facet normal 0.9451850153386072 -0.1244359679502707 -0.30189563868932634
  outer loop
    vertex 3.092402476425966 -0.8286067462256691 -3.8767489218827224e-12
    vertex 3.999999999999999 -4.676209419685051e-12 2.4999999999999942
    vertex 3.863703305156272 -1.0352761804147588 2.499999999996123
  endloop
endfacet
facet normal 0.9451850153386072 -0.1244359679502707 -0.30189563868932634
  outer loop
    vertex 3.999999999999999 -4.676209419685051e-12 2.4999999999999942
    vertex 3.092402476425966 -0.8286067462256691 -3.8767489218827224e-12
    vertex 3.201490624084957 4.672037294654826e-12 -5.992428775414282e-15
  endloop
endfacet
facet normal -0.3648277982787045 0.880772218536404 -0.3018956386859111
  outer loop
    vertex -2.0000000000000013 3.464101615133077 2.500000000012947
    vertex -0.8286067462303445 3.092402476430635 1.4441048357127783e-11
    vertex -1.6007453120424804 2.772572210439939 1.2946818617187716e-11
  endloop
endfacet
facet normal -0.3648277982787045 0.880772218536404 -0.3018956386859111
  outer loop
    vertex -0.8286067462303445 3.092402476430635 1.4441048357127783e-11
    vertex -2.0000000000000013 3.464101615133077 2.500000000012947
    vertex -1.0352761804100858 3.8637033051515957 2.500000000014441
  endloop
endfacet
facet normal 0.8807722185352718 0.3648277982799874 -0.3018956386876639
  outer loop
    vertex 2.7725722104352686 1.60074531204715 7.47255868294161e-12
    vertex 3.8637033051562706 1.03527618040541 2.500000000003865
    vertex 3.0924024764259648 0.8286067462350166 3.865116560142212e-12
  endloop
endfacet
facet normal 0.8807722185352718 0.3648277982799874 -0.3018956386876639
  outer loop
    vertex 3.8637033051562706 1.03527618040541 2.500000000003865
    vertex 2.7725722104352686 1.60074531204715 7.47255868294161e-12
    vertex 3.464101615137753 1.9999999999953255 2.5000000000074727
  endloop
endfacet
facet normal 0.364827798278703 0.8807722185364046 -0.3018956386859111
  outer loop
    vertex 0.8286067462303397 3.092402476430636 1.4441048357127783e-11
    vertex 1.9999999999999971 3.46410161513308 2.500000000012947
    vertex 1.6007453120424768 2.7725722104399417 1.2946818617187716e-11
  endloop
endfacet
facet normal 0.364827798278703 0.8807722185364046 -0.3018956386859111
  outer loop
    vertex 1.9999999999999971 3.46410161513308 2.500000000012947
    vertex 0.8286067462303397 3.092402476430636 1.4441048357127783e-11
    vertex 1.0352761804100805 3.863703305151597 2.500000000014441
  endloop
endfacet
facet normal -0.5803572170599034 -0.7563362505827363 -0.3018956386914736
  outer loop
    vertex -1.9999999999999984 -3.4641016151424315 2.4999999999870415
    vertex -2.2637957301956244 -2.2637957301909535 -1.0581571729950667e-11
    vertex -1.6007453120424777 -2.772572210430601 -1.2958450978928226e-11
  endloop
endfacet
facet normal -0.5803572170599034 -0.7563362505827363 -0.3018956386914736
  outer loop
    vertex -2.2637957301956244 -2.2637957301909535 -1.0581571729950667e-11
    vertex -1.9999999999999984 -3.4641016151424315 2.4999999999870415
    vertex -2.8284271247461894 -2.828427124750866 2.4999999999894182
  endloop
endfacet
facet normal 0.5803572170599031 -0.7563362505827363 -0.30189563869147357
  outer loop
    vertex 2.2637957301956244 -2.2637957301909535 -1.0581571729950667e-11
    vertex 1.9999999999999998 -3.46410161514243 2.4999999999870415
    vertex 1.600745312042479 -2.7725722104306 -1.2958450978928226e-11
  endloop
endfacet
facet normal 0.5803572170599031 -0.7563362505827363 -0.30189563869147357
  outer loop
    vertex 1.9999999999999998 -3.46410161514243 2.4999999999870415
    vertex 2.2637957301956244 -2.2637957301909535 -1.0581571729950667e-11
    vertex 2.8284271247461894 -2.828427124750866 2.4999999999894182
  endloop
endfacet
facet normal -0.8807722185354221 -0.36482779827757245 -0.3018956386901436
  outer loop
    vertex -3.863703305156272 -1.0352761804147603 2.499999999996123
    vertex -2.7725722104352686 -1.600745312037807 -7.48419104468212e-12
    vertex -3.464101615137753 -2.0000000000046776 2.4999999999925158
  endloop
endfacet
facet normal -0.8807722185354221 -0.36482779827757245 -0.3018956386901436
  outer loop
    vertex -2.7725722104352686 -1.600745312037807 -7.48419104468212e-12
    vertex -3.863703305156272 -1.0352761804147603 2.499999999996123
    vertex -3.092402476425966 -0.8286067462256701 -3.8767489218827224e-12
  endloop
endfacet
facet normal 0.36482779827885636 -0.8807722185342897 -0.3018956386918958
  outer loop
    vertex 1.600745312042479 -2.7725722104306 -1.2958450978928226e-11
    vertex 1.0352761804100834 -3.863703305160949 2.499999999985547
    vertex 0.8286067462303419 -3.092402476421299 -1.4452680718868292e-11
  endloop
endfacet
facet normal 0.36482779827885636 -0.8807722185342897 -0.3018956386918958
  outer loop
    vertex 1.0352761804100834 -3.863703305160949 2.499999999985547
    vertex 1.600745312042479 -2.7725722104306 -1.2958450978928226e-11
    vertex 1.9999999999999998 -3.46410161514243 2.4999999999870415
  endloop
endfacet
facet normal -0.7563362505839444 -0.5803572170586397 -0.3018956386908761
  outer loop
    vertex -3.464101615137753 -2.0000000000046776 2.4999999999925158
    vertex -2.2637957301956244 -2.2637957301909535 -1.0581571729950667e-11
    vertex -2.8284271247461894 -2.828427124750866 2.4999999999894182
  endloop
endfacet
facet normal -0.7563362505839444 -0.5803572170586397 -0.3018956386908761
  outer loop
    vertex -2.2637957301956244 -2.2637957301909535 -1.0581571729950667e-11
    vertex -3.464101615137753 -2.0000000000046776 2.4999999999925158
    vertex -2.7725722104352686 -1.600745312037807 -7.48419104468212e-12
  endloop
endfacet
facet normal 0.12443596795152985 -0.9451850153375506 -0.30189563869211555
  outer loop
    vertex 0.8286067462303419 -3.092402476421299 -1.4452680718868292e-11
    vertex 0.0 -4.000000000004676 2.4999999999850377
    vertex 0.0 -3.2014906240802827 -1.4962389660588827e-11
  endloop
endfacet
facet normal 0.12443596795152985 -0.9451850153375506 -0.30189563869211555
  outer loop
    vertex 0.0 -4.000000000004676 2.4999999999850377
    vertex 0.8286067462303419 -3.092402476421299 -1.4452680718868292e-11
    vertex 1.0352761804100834 -3.863703305160949 2.499999999985547
  endloop
endfacet
facet normal -0.8807722185352718 0.36482779827998735 -0.3018956386876639
  outer loop
    vertex -3.863703305156273 1.035276180405405 2.500000000003865
    vertex -2.77257221043527 1.6007453120471486 7.47255868294161e-12
    vertex -3.092402476425967 0.8286067462350123 3.865116560142212e-12
  endloop
endfacet
facet normal -0.8807722185352718 0.36482779827998735 -0.3018956386876639
  outer loop
    vertex -2.77257221043527 1.6007453120471486 7.47255868294161e-12
    vertex -3.863703305156273 1.035276180405405 2.500000000003865
    vertex -3.4641016151377544 1.9999999999953226 2.5000000000074727
  endloop
endfacet
facet normal -0.945185015338552 0.12443596795274027 -0.30189563868848057
  outer loop
    vertex -3.863703305156273 1.035276180405405 2.500000000003865
    vertex -3.201490624084957 4.671473038638948e-12 -5.992428775414282e-15
    vertex -3.999999999999999 -4.6769144113056875e-12 2.4999999999999942
  endloop
endfacet
facet normal -0.945185015338552 0.12443596795274027 -0.30189563868848057
  outer loop
    vertex -3.201490624084957 4.671473038638948e-12 -5.992428775414282e-15
    vertex -3.863703305156273 1.035276180405405 2.500000000003865
    vertex -3.092402476425967 0.8286067462350123 3.865116560142212e-12
  endloop
endfacet
facet normal -0.1244359679515299 -0.9451850153375506 -0.30189563869211555
  outer loop
    vertex 0.0 -4.000000000004676 2.4999999999850377
    vertex -0.828606746230341 -3.092402476421299 -1.4452680718868292e-11
    vertex 0.0 -3.2014906240802827 -1.4962389660588827e-11
  endloop
endfacet
facet normal -0.1244359679515299 -0.9451850153375506 -0.30189563869211555
  outer loop
    vertex -0.828606746230341 -3.092402476421299 -1.4452680718868292e-11
    vertex 0.0 -4.000000000004676 2.4999999999850377
    vertex -1.0352761804100823 -3.863703305160949 2.499999999985547
  endloop
endfacet
facet normal -0.9451850153386072 -0.12443596795027063 -0.3018956386893264
  outer loop
    vertex -3.999999999999999 -4.6769144113056875e-12 2.4999999999999942
    vertex -3.092402476425966 -0.8286067462256701 -3.8767489218827224e-12
    vertex -3.863703305156272 -1.0352761804147603 2.499999999996123
  endloop
endfacet
facet normal -0.9451850153386072 -0.12443596795027063 -0.3018956386893264
  outer loop
    vertex -3.092402476425966 -0.8286067462256701 -3.8767489218827224e-12
    vertex -3.999999999999999 -4.6769144113056875e-12 2.4999999999999942
    vertex -3.201490624084957 4.671473038638948e-12 -5.992428775414282e-15
  endloop
endfacet
facet normal -0.3648277982788552 -0.8807722185342902 -0.30189563869189584
  outer loop
    vertex -1.0352761804100823 -3.863703305160949 2.499999999985547
    vertex -1.6007453120424777 -2.772572210430601 -1.2958450978928226e-11
    vertex -0.828606746230341 -3.092402476421299 -1.4452680718868292e-11
  endloop
endfacet
facet normal -0.3648277982788552 -0.8807722185342902 -0.30189563869189584
  outer loop
    vertex -1.6007453120424777 -2.772572210430601 -1.2958450978928226e-11
    vertex -1.0352761804100823 -3.863703305160949 2.499999999985547
    vertex -1.9999999999999984 -3.4641016151424315 2.4999999999870415
  endloop
endfacet
facet normal 7.62142643107699e-17 -3.7390747773151974e-12 1.0
  outer loop
    vertex -1.0914961837066472 -0.29246552096454287 0.8999999999989013
    vertex -1.0914961837066475 0.29246552096715417 0.9000000000010886
    vertex -1.1300000000000001 1.305517108446045e-12 0.8999999999999948
  endloop
endfacet
facet normal 7.62142643107699e-17 -3.7390747773151974e-12 1.0
  outer loop
    vertex -1.0914961837066475 0.29246552096715417 0.9000000000010886
    vertex -1.0914961837066472 -0.29246552096454287 0.8999999999989013
    vertex -0.9786087062764162 0.5650000000013057 0.9000000000021073
  endloop
endfacet
facet normal 7.62142643107699e-17 -3.7390747773151974e-12 1.0
  outer loop
    vertex -0.9786087062764162 0.5650000000013057 0.9000000000021073
    vertex -1.0914961837066472 -0.29246552096454287 0.8999999999989013
    vertex -0.9786087062764155 -0.5649999999986942 0.8999999999978823
  endloop
endfacet
facet normal 7.62142643107699e-17 -3.7390747773151974e-12 1.0
  outer loop
    vertex -0.9786087062764162 0.5650000000013057 0.9000000000021073
    vertex -0.9786087062764155 -0.5649999999986942 0.8999999999978823
    vertex -0.7990306627407995 0.7990306627421044 0.9000000000029825
  endloop
endfacet
facet normal 7.62142643107699e-17 -3.7390747773151974e-12 1.0
  outer loop
    vertex -0.7990306627407995 0.7990306627421044 0.9000000000029825
    vertex -0.9786087062764155 -0.5649999999986942 0.8999999999978823
    vertex -0.7990306627407977 -0.7990306627394935 0.8999999999970071
  endloop
endfacet
facet normal 7.62142643107699e-17 -3.7390747773151974e-12 1.0
  outer loop
    vertex -0.7990306627407995 0.7990306627421044 0.9000000000029825
    vertex -0.7990306627407977 -0.7990306627394935 0.8999999999970071
    vertex -0.5650000000000007 0.9786087062777217 0.9000000000036541
  endloop
endfacet
facet normal 7.62142643107699e-17 -3.7390747773151974e-12 1.0
  outer loop
    vertex -0.5650000000000007 0.9786087062777217 0.9000000000036541
    vertex -0.7990306627407977 -0.7990306627394935 0.8999999999970071
    vertex -0.564999999999999 -0.97860870627511 0.899999999996336
  endloop
endfacet
facet normal 7.62142643107699e-17 -3.7390747773151974e-12 1.0
  outer loop
    vertex -0.5650000000000007 0.9786087062777217 0.9000000000036541
    vertex -0.564999999999999 -0.97860870627511 0.899999999996336
    vertex -0.29246552096584943 1.0914961837079535 0.900000000004076
  endloop
endfacet
facet normal 7.62142643107699e-17 -3.7390747773151974e-12 1.0
  outer loop
    vertex -0.29246552096584943 1.0914961837079535 0.900000000004076
    vertex -0.564999999999999 -0.97860870627511 0.899999999996336
    vertex -0.29246552096584777 -1.0914961837053412 0.8999999999959136
  endloop
endfacet
facet normal 7.62142643107699e-17 -3.7390747773151974e-12 1.0
  outer loop
    vertex -0.29246552096584943 1.0914961837079535 0.900000000004076
    vertex -0.29246552096584777 -1.0914961837053412 0.8999999999959136
    vertex -1.0031823486934498e-15 1.1300000000013062 0.9000000000042199
  endloop
endfacet
facet normal 7.62142643107699e-17 -3.7390747773151974e-12 1.0
  outer loop
    vertex -1.0031823486934498e-15 1.1300000000013062 0.9000000000042199
    vertex -0.29246552096584777 -1.0914961837053412 0.8999999999959136
    vertex 1.3761643709563387e-15 -1.1299999999986936 0.8999999999957699
  endloop
endfacet
facet normal 7.62142643107699e-17 -3.7390747773151974e-12 1.0
  outer loop
    vertex -1.0031823486934498e-15 1.1300000000013062 0.9000000000042199
    vertex 1.3761643709563387e-15 -1.1299999999986936 0.8999999999957699
    vertex 0.29246552096584755 1.0914961837079535 0.900000000004076
  endloop
endfacet
facet normal 7.62142643107699e-17 -3.7390747773151974e-12 1.0
  outer loop
    vertex 0.29246552096584755 1.0914961837079535 0.900000000004076
    vertex 1.3761643709563387e-15 -1.1299999999986936 0.8999999999957699
    vertex 0.29246552096584943 -1.0914961837053405 0.8999999999959136
  endloop
endfacet
facet normal 7.62142643107699e-17 -3.7390747773151974e-12 1.0
  outer loop
    vertex 0.29246552096584755 1.0914961837079535 0.900000000004076
    vertex 0.29246552096584943 -1.0914961837053405 0.8999999999959136
    vertex 0.564999999999999 0.9786087062777226 0.9000000000036538
  endloop
endfacet
facet normal 7.62142643107699e-17 -3.7390747773151974e-12 1.0
  outer loop
    vertex 0.564999999999999 0.9786087062777226 0.9000000000036538
    vertex 0.29246552096584943 -1.0914961837053405 0.8999999999959136
    vertex 0.5650000000000006 -0.9786087062751088 0.8999999999963356
  endloop
endfacet
facet normal 7.62142643107699e-17 -3.7390747773151974e-12 1.0
  outer loop
    vertex 0.564999999999999 0.9786087062777226 0.9000000000036538
    vertex 0.5650000000000006 -0.9786087062751088 0.8999999999963356
    vertex 0.7990306627407979 0.7990306627421057 0.9000000000029825
  endloop
endfacet
facet normal 7.62142643107699e-17 -3.7390747773151974e-12 1.0
  outer loop
    vertex 0.7990306627407979 0.7990306627421057 0.9000000000029825
    vertex 0.5650000000000006 -0.9786087062751088 0.8999999999963356
    vertex 0.7990306627407995 -0.7990306627394912 0.8999999999970071
  endloop
endfacet
facet normal 7.62142643107699e-17 -3.7390747773151974e-12 1.0
  outer loop
    vertex 0.7990306627407979 0.7990306627421057 0.9000000000029825
    vertex 0.7990306627407995 -0.7990306627394912 0.8999999999970071
    vertex 0.9786087062764152 0.565000000001307 0.9000000000021073
  endloop
endfacet
facet normal 7.62142643107699e-17 -3.7390747773151974e-12 1.0
  outer loop
    vertex 0.9786087062764152 0.565000000001307 0.9000000000021073
    vertex 0.7990306627407995 -0.7990306627394912 0.8999999999970071
    vertex 0.9786087062764162 -0.5649999999986925 0.8999999999978823
  endloop
endfacet
facet normal 7.62142643107699e-17 -3.7390747773151974e-12 1.0
  outer loop
    vertex 0.9786087062764152 0.565000000001307 0.9000000000021073
    vertex 0.9786087062764162 -0.5649999999986925 0.8999999999978823
    vertex 1.0914961837066468 0.29246552096715583 0.9000000000010883
  endloop
endfacet
facet normal 7.62142643107699e-17 -3.7390747773151974e-12 1.0
  outer loop
    vertex 1.0914961837066468 0.29246552096715583 0.9000000000010883
    vertex 0.9786087062764162 -0.5649999999986925 0.8999999999978823
    vertex 1.091496183706647 -0.2924655209645409 0.899999999998901
  endloop
endfacet
facet normal 7.62142643107699e-17 -3.7390747773151974e-12 1.0
  outer loop
    vertex 1.0914961837066468 0.29246552096715583 0.9000000000010883
    vertex 1.091496183706647 -0.2924655209645409 0.899999999998901
    vertex 1.1299999999999997 1.3072795874976374e-12 0.8999999999999948
  endloop
endfacet
facet normal 0.7933533402912348 0.6087614290087212 2.276144039767697e-12
  outer loop
    vertex -0.7990306627407977 -0.7990306627394935 0.8999999999970071
    vertex -0.9786087062764153 -0.5650000000046768 2.4999999999978826
    vertex -0.7990306627407976 -0.7990306627454761 2.4999999999970073
  endloop
endfacet
facet normal 0.7933533402912348 0.6087614290087212 2.276144039767697e-12
  outer loop
    vertex -0.9786087062764153 -0.5650000000046768 2.4999999999978826
    vertex -0.7990306627407977 -0.7990306627394935 0.8999999999970071
    vertex -0.9786087062764155 -0.5649999999986942 0.8999999999978823
  endloop
endfacet
facet normal 0.6087614290087197 0.793353340291236 2.9663610678772686e-12
  outer loop
    vertex -0.7990306627407977 -0.7990306627394935 0.8999999999970071
    vertex -0.5649999999999988 -0.9786087062810925 2.4999999999963363
    vertex -0.564999999999999 -0.97860870627511 0.899999999996336
  endloop
endfacet
facet normal 0.6087614290087197 0.793353340291236 2.9663610678772686e-12
  outer loop
    vertex -0.5649999999999988 -0.9786087062810925 2.4999999999963363
    vertex -0.7990306627407977 -0.7990306627394935 0.8999999999970071
    vertex -0.7990306627407976 -0.7990306627454761 2.4999999999970073
  endloop
endfacet
facet normal 0.3826834323650891 0.9238795325112872 3.454425491354448e-12
  outer loop
    vertex -0.564999999999999 -0.97860870627511 0.899999999996336
    vertex -0.2924655209658476 -1.0914961837113237 2.499999999995914
    vertex -0.29246552096584777 -1.0914961837053412 0.8999999999959136
  endloop
endfacet
facet normal 0.3826834323650891 0.9238795325112872 3.454425491354448e-12
  outer loop
    vertex -0.2924655209658476 -1.0914961837113237 2.499999999995914
    vertex -0.564999999999999 -0.97860870627511 0.899999999996336
    vertex -0.5649999999999988 -0.9786087062810925 2.4999999999963363
  endloop
endfacet
facet normal 0.13052619222005035 0.9914448613738107 3.7070765263038644e-12
  outer loop
    vertex -0.29246552096584777 -1.0914961837053412 0.8999999999959136
    vertex 1.4981071938535704e-15 -1.1300000000046762 2.49999999999577
    vertex 1.3761643709563387e-15 -1.1299999999986936 0.8999999999957699
  endloop
endfacet
facet normal 0.13052619222005035 0.9914448613738107 3.7070765263038644e-12
  outer loop
    vertex 1.4981071938535704e-15 -1.1300000000046762 2.49999999999577
    vertex -0.29246552096584777 -1.0914961837053412 0.8999999999959136
    vertex -0.2924655209658476 -1.0914961837113237 2.499999999995914
  endloop
endfacet
facet normal -0.13052619222005254 0.9914448613738104 3.70709642221929e-12
  outer loop
    vertex 1.4981071938535704e-15 -1.1300000000046762 2.49999999999577
    vertex 0.29246552096584943 -1.0914961837053405 0.8999999999959136
    vertex 1.3761643709563387e-15 -1.1299999999986936 0.8999999999957699
  endloop
endfacet
facet normal -0.13052619222005254 0.9914448613738104 3.70709642221929e-12
  outer loop
    vertex 0.29246552096584943 -1.0914961837053405 0.8999999999959136
    vertex 1.4981071938535704e-15 -1.1300000000046762 2.49999999999577
    vertex 0.2924655209658496 -1.091496183711323 2.499999999995914
  endloop
endfacet
facet normal -0.3826834323650912 0.9238795325112862 3.4544838232269677e-12
  outer loop
    vertex 0.2924655209658496 -1.091496183711323 2.499999999995914
    vertex 0.5650000000000006 -0.9786087062751088 0.8999999999963356
    vertex 0.29246552096584943 -1.0914961837053405 0.8999999999959136
  endloop
endfacet
facet normal -0.3826834323650912 0.9238795325112862 3.4544838232269677e-12
  outer loop
    vertex 0.5650000000000006 -0.9786087062751088 0.8999999999963356
    vertex 0.2924655209658496 -1.091496183711323 2.499999999995914
    vertex 0.5650000000000007 -0.9786087062810913 2.499999999996336
  endloop
endfacet
facet normal -0.6087614290087214 0.7933533402912346 2.9664538604861686e-12
  outer loop
    vertex 0.5650000000000007 -0.9786087062810913 2.499999999996336
    vertex 0.7990306627407995 -0.7990306627394912 0.8999999999970071
    vertex 0.5650000000000006 -0.9786087062751088 0.8999999999963356
  endloop
endfacet
facet normal -0.6087614290087214 0.7933533402912346 2.9664538604861686e-12
  outer loop
    vertex 0.7990306627407995 -0.7990306627394912 0.8999999999970071
    vertex 0.5650000000000007 -0.9786087062810913 2.499999999996336
    vertex 0.7990306627407997 -0.7990306627454737 2.4999999999970073
  endloop
endfacet
facet normal -0.7933533402912358 0.6087614290087201 2.27626496945003e-12
  outer loop
    vertex 0.9786087062764164 -0.5650000000046751 2.4999999999978826
    vertex 0.7990306627407995 -0.7990306627394912 0.8999999999970071
    vertex 0.7990306627407997 -0.7990306627454737 2.4999999999970073
  endloop
endfacet
facet normal -0.7933533402912358 0.6087614290087201 2.27626496945003e-12
  outer loop
    vertex 0.7990306627407995 -0.7990306627394912 0.8999999999970071
    vertex 0.9786087062764164 -0.5650000000046751 2.4999999999978826
    vertex 0.9786087062764162 -0.5649999999986925 0.8999999999978823
  endloop
endfacet
facet normal -0.9238795325112875 0.3826834323650881 1.4309523824515893e-12
  outer loop
    vertex 1.0914961837066472 -0.2924655209705235 2.4999999999989013
    vertex 0.9786087062764162 -0.5649999999986925 0.8999999999978823
    vertex 0.9786087062764164 -0.5650000000046751 2.4999999999978826
  endloop
endfacet
facet normal -0.9238795325112875 0.3826834323650881 1.4309523824515893e-12
  outer loop
    vertex 0.9786087062764162 -0.5649999999986925 0.8999999999978823
    vertex 1.0914961837066472 -0.2924655209705235 2.4999999999989013
    vertex 1.091496183706647 -0.2924655209645409 0.899999999998901
  endloop
endfacet
facet normal -0.9914448613738105 0.1305261922200507 4.881227553497011e-13
  outer loop
    vertex 1.13 -4.675240056206679e-12 2.499999999999995
    vertex 1.091496183706647 -0.2924655209645409 0.899999999998901
    vertex 1.0914961837066472 -0.2924655209705235 2.4999999999989013
  endloop
endfacet
facet normal -0.9914448613738105 0.1305261922200507 4.881227553497011e-13
  outer loop
    vertex 1.091496183706647 -0.2924655209645409 0.899999999998901
    vertex 1.13 -4.675240056206679e-12 2.499999999999995
    vertex 1.1299999999999997 1.3072795874976374e-12 0.8999999999999948
  endloop
endfacet
facet normal -0.9914448613738104 -0.13052619222005174 -4.879716308682764e-13
  outer loop
    vertex 1.091496183706647 0.29246552096117334 2.5000000000010885
    vertex 1.1299999999999997 1.3072795874976374e-12 0.8999999999999948
    vertex 1.13 -4.675240056206679e-12 2.499999999999995
  endloop
endfacet
facet normal -0.9914448613738104 -0.13052619222005174 -4.879716308682764e-13
  outer loop
    vertex 1.1299999999999997 1.3072795874976374e-12 0.8999999999999948
    vertex 1.091496183706647 0.29246552096117334 2.5000000000010885
    vertex 1.0914961837066468 0.29246552096715583 0.9000000000010883
  endloop
endfacet
facet normal -0.9238795325112863 -0.3826834323650908 -1.4308115568538351e-12
  outer loop
    vertex 0.9786087062764153 0.5649999999953245 2.5000000000021076
    vertex 1.0914961837066468 0.29246552096715583 0.9000000000010883
    vertex 1.091496183706647 0.29246552096117334 2.5000000000010885
  endloop
endfacet
facet normal -0.9238795325112863 -0.3826834323650908 -1.4308115568538351e-12
  outer loop
    vertex 1.0914961837066468 0.29246552096715583 0.9000000000010883
    vertex 0.9786087062764153 0.5649999999953245 2.5000000000021076
    vertex 0.9786087062764152 0.565000000001307 0.9000000000021073
  endloop
endfacet
facet normal -0.7933533402912348 -0.6087614290087211 -2.2761440397676966e-12
  outer loop
    vertex 0.7990306627407981 0.7990306627361231 2.500000000002983
    vertex 0.9786087062764152 0.565000000001307 0.9000000000021073
    vertex 0.9786087062764153 0.5649999999953245 2.5000000000021076
  endloop
endfacet
facet normal -0.7933533402912348 -0.6087614290087211 -2.2761440397676966e-12
  outer loop
    vertex 0.9786087062764152 0.565000000001307 0.9000000000021073
    vertex 0.7990306627407981 0.7990306627361231 2.500000000002983
    vertex 0.7990306627407979 0.7990306627421057 0.9000000000029825
  endloop
endfacet
facet normal -0.6087614290087199 -0.7933533402912359 -2.9663610678772686e-12
  outer loop
    vertex 0.7990306627407981 0.7990306627361231 2.500000000002983
    vertex 0.564999999999999 0.9786087062777226 0.9000000000036538
    vertex 0.7990306627407979 0.7990306627421057 0.9000000000029825
  endloop
endfacet
facet normal -0.6087614290087199 -0.7933533402912359 -2.9663610678772686e-12
  outer loop
    vertex 0.564999999999999 0.9786087062777226 0.9000000000036538
    vertex 0.7990306627407981 0.7990306627361231 2.500000000002983
    vertex 0.5649999999999991 0.97860870627174 2.500000000003654
  endloop
endfacet
facet normal -0.3826834323650889 -0.9238795325112871 -3.4544254913544477e-12
  outer loop
    vertex 0.5649999999999991 0.97860870627174 2.500000000003654
    vertex 0.29246552096584755 1.0914961837079535 0.900000000004076
    vertex 0.564999999999999 0.9786087062777226 0.9000000000036538
  endloop
endfacet
facet normal -0.3826834323650889 -0.9238795325112871 -3.4544254913544477e-12
  outer loop
    vertex 0.29246552096584755 1.0914961837079535 0.900000000004076
    vertex 0.5649999999999991 0.97860870627174 2.500000000003654
    vertex 0.2924655209658477 1.091496183701971 2.5000000000040763
  endloop
endfacet
facet normal -0.13052619222005057 -0.9914448613738106 -3.7070765263038644e-12
  outer loop
    vertex 0.2924655209658477 1.091496183701971 2.5000000000040763
    vertex -1.0031823486934498e-15 1.1300000000013062 0.9000000000042199
    vertex 0.29246552096584755 1.0914961837079535 0.900000000004076
  endloop
endfacet
facet normal -0.13052619222005057 -0.9914448613738106 -3.7070765263038644e-12
  outer loop
    vertex -1.0031823486934498e-15 1.1300000000013062 0.9000000000042199
    vertex 0.2924655209658477 1.091496183701971 2.5000000000040763
    vertex -8.81239525796218e-16 1.1299999999953236 2.50000000000422
  endloop
endfacet
facet normal 0.1305261922200512 -0.9914448613738105 -3.70709642221929e-12
  outer loop
    vertex -1.0031823486934498e-15 1.1300000000013062 0.9000000000042199
    vertex -0.29246552096584927 1.091496183701971 2.5000000000040763
    vertex -0.29246552096584943 1.0914961837079535 0.900000000004076
  endloop
endfacet
facet normal 0.1305261922200512 -0.9914448613738105 -3.70709642221929e-12
  outer loop
    vertex -0.29246552096584927 1.091496183701971 2.5000000000040763
    vertex -1.0031823486934498e-15 1.1300000000013062 0.9000000000042199
    vertex -8.81239525796218e-16 1.1299999999953236 2.50000000000422
  endloop
endfacet
facet normal 0.38268343236509106 -0.9238795325112864 -3.4544838232269685e-12
  outer loop
    vertex -0.29246552096584943 1.0914961837079535 0.900000000004076
    vertex -0.5650000000000006 0.9786087062717391 2.5000000000036544
    vertex -0.5650000000000007 0.9786087062777217 0.9000000000036541
  endloop
endfacet
facet normal 0.38268343236509106 -0.9238795325112864 -3.4544838232269685e-12
  outer loop
    vertex -0.5650000000000006 0.9786087062717391 2.5000000000036544
    vertex -0.29246552096584943 1.0914961837079535 0.900000000004076
    vertex -0.29246552096584927 1.091496183701971 2.5000000000040763
  endloop
endfacet
facet normal 0.6087614290087211 -0.7933533402912348 -2.9664538604861698e-12
  outer loop
    vertex -0.5650000000000007 0.9786087062777217 0.9000000000036541
    vertex -0.7990306627407994 0.7990306627361219 2.500000000002983
    vertex -0.7990306627407995 0.7990306627421044 0.9000000000029825
  endloop
endfacet
facet normal 0.6087614290087211 -0.7933533402912348 -2.9664538604861698e-12
  outer loop
    vertex -0.7990306627407994 0.7990306627361219 2.500000000002983
    vertex -0.5650000000000007 0.9786087062777217 0.9000000000036541
    vertex -0.5650000000000006 0.9786087062717391 2.5000000000036544
  endloop
endfacet
facet normal 0.7933533402912358 -0.6087614290087199 -2.276264969450029e-12
  outer loop
    vertex -0.9786087062764162 0.5650000000013057 0.9000000000021073
    vertex -0.7990306627407994 0.7990306627361219 2.500000000002983
    vertex -0.9786087062764159 0.5649999999953231 2.5000000000021076
  endloop
endfacet
facet normal 0.7933533402912358 -0.6087614290087199 -2.276264969450029e-12
  outer loop
    vertex -0.7990306627407994 0.7990306627361219 2.500000000002983
    vertex -0.9786087062764162 0.5650000000013057 0.9000000000021073
    vertex -0.7990306627407995 0.7990306627421044 0.9000000000029825
  endloop
endfacet
facet normal 0.9238795325112868 -0.3826834323650893 -1.4309523824515938e-12
  outer loop
    vertex -1.0914961837066475 0.29246552096715417 0.9000000000010886
    vertex -0.9786087062764159 0.5649999999953231 2.5000000000021076
    vertex -1.0914961837066472 0.2924655209611717 2.500000000001089
  endloop
endfacet
facet normal 0.9238795325112868 -0.3826834323650893 -1.4309523824515938e-12
  outer loop
    vertex -0.9786087062764159 0.5649999999953231 2.5000000000021076
    vertex -1.0914961837066475 0.29246552096715417 0.9000000000010886
    vertex -0.9786087062764162 0.5650000000013057 0.9000000000021073
  endloop
endfacet
facet normal 0.9914448613738105 -0.13052619222005113 -4.881227553497026e-13
  outer loop
    vertex -1.1300000000000001 1.305517108446045e-12 0.8999999999999948
    vertex -1.0914961837066472 0.2924655209611717 2.500000000001089
    vertex -1.1300000000000001 -4.677002535258272e-12 2.499999999999995
  endloop
endfacet
facet normal 0.9914448613738105 -0.13052619222005113 -4.881227553497026e-13
  outer loop
    vertex -1.0914961837066472 0.2924655209611717 2.500000000001089
    vertex -1.1300000000000001 1.305517108446045e-12 0.8999999999999948
    vertex -1.0914961837066475 0.29246552096715417 0.9000000000010886
  endloop
endfacet
facet normal 0.9914448613738105 0.13052619222005185 4.879716308682768e-13
  outer loop
    vertex -1.0914961837066472 -0.29246552096454287 0.8999999999989013
    vertex -1.1300000000000001 -4.677002535258272e-12 2.499999999999995
    vertex -1.091496183706647 -0.29246552097052536 2.4999999999989018
  endloop
endfacet
facet normal 0.9914448613738105 0.13052619222005185 4.879716308682768e-13
  outer loop
    vertex -1.1300000000000001 -4.677002535258272e-12 2.499999999999995
    vertex -1.0914961837066472 -0.29246552096454287 0.8999999999989013
    vertex -1.1300000000000001 1.305517108446045e-12 0.8999999999999948
  endloop
endfacet
facet normal 0.9238795325112863 0.38268343236509095 1.4308115568538355e-12
  outer loop
    vertex -0.9786087062764155 -0.5649999999986942 0.8999999999978823
    vertex -1.091496183706647 -0.29246552097052536 2.4999999999989018
    vertex -0.9786087062764153 -0.5650000000046768 2.4999999999978826
  endloop
endfacet
facet normal 0.9238795325112863 0.38268343236509095 1.4308115568538355e-12
  outer loop
    vertex -1.091496183706647 -0.29246552097052536 2.4999999999989018
    vertex -0.9786087062764155 -0.5649999999986942 0.8999999999978823
    vertex -1.0914961837066472 -0.29246552096454287 0.8999999999989013
  endloop
endfacet
endsolid button
