solid v17_case
facet normal -0.0002142438831113776 -7.3032534350940696e-06 0.9999999770231104
  outer loop
    vertex 142.99084025127314 261.44552138845887 14.070985440611375
    vertex 145.07134637582237 235.83506933019936 14.070985440609512
    vertex 145.07136064474943 261.44552643251524 14.070985440609512
  endloop
endfacet
facet normal -0.0002142438831113776 -7.3032534350940696e-06 0.9999999770231104
  outer loop
    vertex 145.07134637582237 235.83506933019936 14.070985440609512
    vertex 142.99084025127314 261.44552138845887 14.070985440611375
    vertex 143.08923833409193 235.85539435377248 14.070985440611283
  endloop
endfacet
facet normal -0.0002142438831113776 -7.3032534350940696e-06 0.9999999770231104
  outer loop
    vertex 143.08923833409193 235.85539435377248 14.070985440611283
    vertex 142.99084025127314 261.44552138845887 14.070985440611375
    vertex 142.99140937176378 236.66133261137892 14.069826172272478
  endloop
endfacet
facet normal -0.0002142438831113776 -7.3032534350940696e-06 0.9999999770231104
  outer loop
    vertex 142.98923833428788 235.8554006136764 14.070985440611373
    vertex 143.08923833409193 235.85539435377248 14.070985440611283
    vertex 142.99140937176378 236.66133261137892 14.069826172272478
  endloop
endfacet
facet normal -1.0 0.0 8.964072131958336e-13
  outer loop
    vertex 133.58304544063586 254.40063139192435 10.57098544061981
    vertex 133.58304544063088 242.90063139192426 5.0038256943272135
    vertex 133.58304544063586 242.90063139192426 10.57098544061981
  endloop
endfacet
facet normal -1.0 0.0 8.964072131958336e-13
  outer loop
    vertex 133.58304544063088 242.90063139192426 5.0038256943272135
    vertex 133.58304544063586 254.40063139192435 10.57098544061981
    vertex 133.58304544063088 254.40063139192435 5.0038256943272135
  endloop
endfacet
facet normal -1.0 0.0 8.964072131958336e-13
  outer loop
    vertex 133.08468622703074 261.43564864680593 10.568030818601464
    vertex 133.08304544063088 254.40063139192435 5.003825694327662
    vertex 133.08304544063586 254.40063139192435 10.570985440620257
  endloop
endfacet
facet normal -1.0 0.0 8.964072131958336e-13
  outer loop
    vertex 133.08304544063088 254.40063139192435 5.003825694327662
    vertex 133.08468622703074 261.43564864680593 10.568030818601464
    vertex 133.08468622702577 261.448825115015 5.000871072308888
  endloop
endfacet
facet normal -9.229408477990213e-29 1.0 -1.0295999789075672e-16
  outer loop
    vertex 133.58304544063088 242.90063139192426 5.0038256943272135
    vertex 127.62729276034469 242.90063139192426 10.570985440625147
    vertex 133.58304544063586 242.90063139192426 10.57098544061981
  endloop
endfacet
facet normal -9.229408477990213e-29 1.0 -1.0295999789075672e-16
  outer loop
    vertex 127.62729276034469 242.90063139192426 10.570985440625147
    vertex 133.58304544063088 242.90063139192426 5.0038256943272135
    vertex 127.6272927603397 242.90063139192426 5.003825694332551
  endloop
endfacet
facet normal 1.0 0.0 -8.964072131958336e-13
  outer loop
    vertex 127.6272927603397 254.40063139192435 5.003825694332551
    vertex 127.62729276034469 242.90063139192426 10.570985440625147
    vertex 127.6272927603397 242.90063139192426 5.003825694332551
  endloop
endfacet
facet normal 1.0 0.0 -8.964072131958336e-13
  outer loop
    vertex 127.62729276034469 242.90063139192426 10.570985440625147
    vertex 127.6272927603397 254.40063139192435 5.003825694332551
    vertex 127.62729276034469 254.40063139192435 10.570985440625147
  endloop
endfacet
facet normal 0.002406301186407637 -5.755225876772011e-05 0.9999971031969731
  outer loop
    vertex 118.89080931101454 261.4455231296562 14.07098544063298
    vertex 118.89187449760011 235.85540164423588 14.070985440632974
    vertex 118.89564159937831 236.67397191610942 14.069993227878086
  endloop
endfacet
facet normal 0.002406301186407637 -5.755225876772011e-05 0.9999971031969731
  outer loop
    vertex 118.89187449760011 235.85540164423588 14.070985440632974
    vertex 118.89080931101454 261.4455231296562 14.07098544063298
    vertex 118.79187449768675 235.85539748174457 14.070985440633065
  endloop
endfacet
facet normal 0.002406301186407637 -5.755225876772011e-05 0.9999971031969731
  outer loop
    vertex 118.79187449768675 235.85539748174457 14.070985440633065
    vertex 118.89080931101454 261.4455231296562 14.07098544063298
    vertex 117.6713297043146 261.4455264325301 14.070985440634074
  endloop
endfacet
facet normal 0.002406301186407637 -5.755225876772011e-05 0.9999971031969731
  outer loop
    vertex 118.79187449768675 235.85539748174457 14.070985440633065
    vertex 117.6713297043146 261.4455264325301 14.070985440634074
    vertex 117.67134637582244 235.8350693301999 14.070985440634074
  endloop
endfacet
facet normal 0.9999999842437585 0.00015026983390068336 -9.450640212580963e-05
  outer loop
    vertex 123.11719914166368 239.3178263093335 5.003825694336595
    vertex 123.11824765674513 235.85973151395646 10.589680440629184
    vertex 123.11719914166368 235.83506933019999 5.003825694336595
  endloop
endfacet
facet normal 0.9999999842437585 0.00015026983390068336 -9.450640212580963e-05
  outer loop
    vertex 123.11824765674513 235.85973151395646 10.589680440629184
    vertex 123.11719914166368 239.3178263093335 5.003825694336595
    vertex 123.11722355062828 236.65970533122993 10.581657757092113
  endloop
endfacet
facet normal 0.9999999842437585 0.00015026983390068336 -9.450640212580963e-05
  outer loop
    vertex 123.11722355062828 236.65970533122993 10.581657757092113
    vertex 123.11719914166368 239.3178263093335 5.003825694336595
    vertex 123.11719914166866 239.3178263093335 10.570757041465457
  endloop
endfacet
facet normal -1.0 0.0 8.964072131958336e-13
  outer loop
    vertex 117.6713297043146 261.4455264325301 14.070985440634074
    vertex 117.67134637581432 235.8350693301999 5.003825694341477
    vertex 117.67134637582244 235.8350693301999 14.070985440634074
  endloop
endfacet
facet normal -1.0 0.0 8.964072131958336e-13
  outer loop
    vertex 117.67134637581432 235.8350693301999 5.003825694341477
    vertex 117.6713297043146 261.4455264325301 14.070985440634074
    vertex 117.67132970430649 261.4455264325301 5.003825694341477
  endloop
endfacet
facet normal 1.0 0.0 -8.964072131958336e-13
  outer loop
    vertex 145.0713606447413 261.44552643251524 5.003825694316915
    vertex 145.07134637582237 235.83506933019936 14.070985440609512
    vertex 145.07134637581424 235.83506933019936 5.003825694316915
  endloop
endfacet
facet normal 1.0 0.0 -8.964072131958336e-13
  outer loop
    vertex 145.07134637582237 235.83506933019936 14.070985440609512
    vertex 145.0713606447413 261.44552643251524 5.003825694316915
    vertex 145.07136064474943 261.44552643251524 14.070985440609512
  endloop
endfacet
facet normal -0.0 -1.0 0.0
  outer loop
    vertex 133.08304544063088 254.40063139192435 5.003825694327662
    vertex 133.58304544063586 254.40063139192435 10.57098544061981
    vertex 133.08304544063586 254.40063139192435 10.570985440620257
  endloop
endfacet
facet normal -0.0 -1.0 0.0
  outer loop
    vertex 133.58304544063586 254.40063139192435 10.57098544061981
    vertex 133.08304544063088 254.40063139192435 5.003825694327662
    vertex 133.58304544063088 254.40063139192435 5.0038256943272135
  endloop
endfacet
facet normal -0.0 -1.0 0.0
  outer loop
    vertex 127.6272927603397 254.40063139192435 5.003825694332551
    vertex 128.1272927603447 254.40063139192435 10.570985440624698
    vertex 127.62729276034469 254.40063139192435 10.570985440625147
  endloop
endfacet
facet normal -0.0 -1.0 0.0
  outer loop
    vertex 128.1272927603447 254.40063139192435 10.570985440624698
    vertex 127.6272927603397 254.40063139192435 5.003825694332551
    vertex 128.1272927603397 254.40063139192435 5.003825694332103
  endloop
endfacet
facet normal 6.119608804581822e-10 -1.0 1.8741423405195153e-09
  outer loop
    vertex 123.11719914166866 239.3178263093335 10.570757041465457
    vertex 140.1656871416629 239.3178263093335 5.003825694321312
    vertex 140.16568714166786 239.31782633019995 10.570985440613905
  endloop
endfacet
facet normal 6.119608804581822e-10 -1.0 1.8741423405195153e-09
  outer loop
    vertex 140.1656871416629 239.3178263093335 5.003825694321312
    vertex 123.11719914166866 239.3178263093335 10.570757041465457
    vertex 123.11719914166368 239.3178263093335 5.003825694336595
  endloop
endfacet
facet normal 4.430273208757205e-06 -4.672108702014586e-05 -0.9999999988987565
  outer loop
    vertex 140.1640994936033 235.85973222457838 5.003825694321314
    vertex 140.1656871416629 239.3178263093335 5.003825694321312
    vertex 143.08923833408383 235.85539435377248 5.003825694318691
  endloop
endfacet
facet normal 4.430273208757205e-06 -4.672108702014586e-05 -0.9999999988987565
  outer loop
    vertex 145.07134637581424 235.83506933019936 5.003825694316915
    vertex 143.0908402510691 261.4455151285549 5.00382569431869
    vertex 145.0713606447413 261.44552643251524 5.003825694316915
  endloop
endfacet
facet normal 4.430273208757205e-06 -4.672108702014586e-05 -0.9999999988987565
  outer loop
    vertex 143.0908402510691 261.4455151285549 5.00382569431869
    vertex 145.07134637581424 235.83506933019936 5.003825694316915
    vertex 143.08923833408383 235.85539435377248 5.003825694318691
  endloop
endfacet
facet normal 4.430273208757205e-06 -4.672108702014586e-05 -0.9999999988987565
  outer loop
    vertex 143.0908402510691 261.4455151285549 5.00382569431869
    vertex 143.08923833408383 235.85539435377248 5.003825694318691
    vertex 133.08468622702577 261.448825115015 5.000871072308888
  endloop
endfacet
facet normal 4.430273208757205e-06 -4.672108702014586e-05 -0.9999999988987565
  outer loop
    vertex 133.08468622702577 261.448825115015 5.000871072308888
    vertex 143.08923833408383 235.85539435377248 5.003825694318691
    vertex 140.1656871416629 239.3178263093335 5.003825694321312
  endloop
endfacet
facet normal 4.430273208757205e-06 -4.672108702014586e-05 -0.9999999988987565
  outer loop
    vertex 133.08468622702577 261.448825115015 5.000871072308888
    vertex 140.1656871416629 239.3178263093335 5.003825694321312
    vertex 133.58304544063088 254.40063139192435 5.0038256943272135
  endloop
endfacet
facet normal 4.430273208757205e-06 -4.672108702014586e-05 -0.9999999988987565
  outer loop
    vertex 133.58304544063088 254.40063139192435 5.0038256943272135
    vertex 140.1656871416629 239.3178263093335 5.003825694321312
    vertex 133.58304544063088 242.90063139192426 5.0038256943272135
  endloop
endfacet
facet normal 4.430273208757205e-06 -4.672108702014586e-05 -0.9999999988987565
  outer loop
    vertex 133.08468622702577 261.448825115015 5.000871072308888
    vertex 133.58304544063088 254.40063139192435 5.0038256943272135
    vertex 133.08304544063088 254.40063139192435 5.003825694327662
  endloop
endfacet
facet normal 4.430273208757205e-06 -4.672108702014586e-05 -0.9999999988987565
  outer loop
    vertex 123.11719914166368 239.3178263093335 5.003825694336595
    vertex 133.58304544063088 242.90063139192426 5.0038256943272135
    vertex 140.1656871416629 239.3178263093335 5.003825694321312
  endloop
endfacet
facet normal 4.430273208757205e-06 -4.672108702014586e-05 -0.9999999988987565
  outer loop
    vertex 133.58304544063088 242.90063139192426 5.0038256943272135
    vertex 123.11719914166368 239.3178263093335 5.003825694336595
    vertex 127.6272927603397 242.90063139192426 5.003825694332551
  endloop
endfacet
facet normal 4.430273208757205e-06 -4.672108702014586e-05 -0.9999999988987565
  outer loop
    vertex 127.6272927603397 242.90063139192426 5.003825694332551
    vertex 123.11719914166368 239.3178263093335 5.003825694336595
    vertex 127.6272927603397 254.40063139192435 5.003825694332551
  endloop
endfacet
facet normal 4.430273208757205e-06 -4.672108702014586e-05 -0.9999999988987565
  outer loop
    vertex 118.79187449767862 235.85539748174457 5.003825694340471
    vertex 123.11719914166368 239.3178263093335 5.003825694336595
    vertex 123.11719914166368 235.83506933019999 5.003825694336595
  endloop
endfacet
facet normal 4.430273208757205e-06 -4.672108702014586e-05 -0.9999999988987565
  outer loop
    vertex 127.6272927603397 254.40063139192435 5.003825694332551
    vertex 128.12408751461365 261.45760369522543 4.99847395293322
    vertex 128.1272927603397 254.40063139192435 5.003825694332103
  endloop
endfacet
facet normal 4.430273208757205e-06 -4.672108702014586e-05 -0.9999999988987565
  outer loop
    vertex 128.12408751461365 261.45760369522543 4.99847395293322
    vertex 127.6272927603397 254.40063139192435 5.003825694332551
    vertex 118.79080931109304 261.4455189671649 5.003825694340473
  endloop
endfacet
facet normal 4.430273208757205e-06 -4.672108702014586e-05 -0.9999999988987565
  outer loop
    vertex 118.79080931109304 261.4455189671649 5.003825694340473
    vertex 127.6272927603397 254.40063139192435 5.003825694332551
    vertex 123.11719914166368 239.3178263093335 5.003825694336595
  endloop
endfacet
facet normal 4.430273208757205e-06 -4.672108702014586e-05 -0.9999999988987565
  outer loop
    vertex 118.79080931109304 261.4455189671649 5.003825694340473
    vertex 123.11719914166368 239.3178263093335 5.003825694336595
    vertex 118.79187449767862 235.85539748174457 5.003825694340471
  endloop
endfacet
facet normal 4.430273208757205e-06 -4.672108702014586e-05 -0.9999999988987565
  outer loop
    vertex 118.79080931109304 261.4455189671649 5.003825694340473
    vertex 118.79187449767862 235.85539748174457 5.003825694340471
    vertex 117.67134637581432 235.8350693301999 5.003825694341477
  endloop
endfacet
facet normal 4.430273208757205e-06 -4.672108702014586e-05 -0.9999999988987565
  outer loop
    vertex 118.79080931109304 261.4455189671649 5.003825694340473
    vertex 117.67134637581432 235.8350693301999 5.003825694341477
    vertex 117.67132970430649 261.4455264325301 5.003825694341477
  endloop
endfacet
facet normal -0.9999998946086914 0.0004591106686426579 3.6003673468728995e-14
  outer loop
    vertex 140.1656885011882 236.65973286398076 10.572200103473273
    vertex 140.1640994936033 235.85973222457838 5.003825694321314
    vertex 140.16409949360826 235.85973222457838 10.570985440613907
  endloop
endfacet
facet normal -0.9999998946086914 0.0004591106686426579 3.6003673468728995e-14
  outer loop
    vertex 140.1640994936033 235.85973222457838 5.003825694321314
    vertex 140.1656885011882 236.65973286398076 10.572200103473273
    vertex 140.1656871416629 239.3178263093335 5.003825694321312
  endloop
endfacet
facet normal -0.9999998946086914 0.0004591106686426579 3.6003673468728995e-14
  outer loop
    vertex 140.1656871416629 239.3178263093335 5.003825694321312
    vertex 140.1656885011882 236.65973286398076 10.572200103473273
    vertex 140.16568714166786 239.31782633019995 10.570985440613905
  endloop
endfacet
facet normal -0.0018483151308472474 -0.9999958548406226 0.00220772116661912
  outer loop
    vertex 118.79187449767862 235.85539748174457 5.003825694340471
    vertex 118.891874497597 235.85540164423588 10.58968044063297
    vertex 118.79187449768364 235.85539748174457 10.58968044063306
  endloop
endfacet
facet normal -0.0018483151308472474 -0.9999958548406226 0.00220772116661912
  outer loop
    vertex 118.891874497597 235.85540164423588 10.58968044063297
    vertex 123.11719914166368 235.83506933019999 5.003825694336595
    vertex 123.11824765674513 235.85973151395646 10.589680440629184
  endloop
endfacet
facet normal -0.0018483151308472474 -0.9999958548406226 0.00220772116661912
  outer loop
    vertex 123.11719914166368 235.83506933019999 5.003825694336595
    vertex 118.891874497597 235.85540164423588 10.58968044063297
    vertex 118.79187449767862 235.85539748174457 5.003825694340471
  endloop
endfacet
facet normal 0.018138596260011755 -0.9998354821297933 -1.625967869700494e-14
  outer loop
    vertex 117.67134637581432 235.8350693301999 5.003825694341477
    vertex 118.79187449768675 235.85539748174457 14.070985440633065
    vertex 117.67134637582244 235.8350693301999 14.070985440634074
  endloop
endfacet
facet normal 0.018138596260011755 -0.9998354821297933 -1.625967869700494e-14
  outer loop
    vertex 118.79187449768675 235.85539748174457 14.070985440633065
    vertex 117.67134637581432 235.8350693301999 5.003825694341477
    vertex 118.79187449768364 235.85539748174457 10.58968044063306
  endloop
endfacet
facet normal 0.018138596260011755 -0.9998354821297933 -1.625967869700494e-14
  outer loop
    vertex 118.79187449768364 235.85539748174457 10.58968044063306
    vertex 117.67134637581432 235.8350693301999 5.003825694341477
    vertex 118.79187449767862 235.85539748174457 5.003825694340471
  endloop
endfacet
facet normal -0.010253706985603636 -0.9999474293646908 9.191539173597061e-15
  outer loop
    vertex 143.08923833409193 235.85539435377248 14.070985440611283
    vertex 145.07134637581424 235.83506933019936 5.003825694316915
    vertex 145.07134637582237 235.83506933019936 14.070985440609512
  endloop
endfacet
facet normal -0.010253706985603636 -0.9999474293646908 9.191539173597061e-15
  outer loop
    vertex 145.07134637581424 235.83506933019936 5.003825694316915
    vertex 143.08923833409193 235.85539435377248 14.070985440611283
    vertex 143.0892383340888 235.85539435377248 10.570985440611276
  endloop
endfacet
facet normal -0.010253706985603636 -0.9999474293646908 9.191539173597061e-15
  outer loop
    vertex 145.07134637581424 235.83506933019936 5.003825694316915
    vertex 143.0892383340888 235.85539435377248 10.570985440611276
    vertex 143.08923833408383 235.85539435377248 5.003825694318691
  endloop
endfacet
facet normal -0.0014829607319835983 -0.9999989004131292 1.3292850931407533e-15
  outer loop
    vertex 140.1640994936033 235.85973222457838 5.003825694321314
    vertex 142.98923833428475 235.8554006136764 10.570985440611366
    vertex 140.16409949360826 235.85973222457838 10.570985440613907
  endloop
endfacet
facet normal -0.0014829607319835983 -0.9999989004131292 1.3292850931407533e-15
  outer loop
    vertex 142.98923833428475 235.8554006136764 10.570985440611366
    vertex 140.1640994936033 235.85973222457838 5.003825694321314
    vertex 143.0892383340888 235.85539435377248 10.570985440611276
  endloop
endfacet
facet normal -0.0014829607319835983 -0.9999989004131292 1.3292850931407533e-15
  outer loop
    vertex 143.0892383340888 235.85539435377248 10.570985440611276
    vertex 140.1640994936033 235.85973222457838 5.003825694321314
    vertex 143.08923833408383 235.85539435377248 5.003825694318691
  endloop
endfacet
facet normal -0.010253706985603635 -0.9999474293646908 9.191482813989788e-15
  outer loop
    vertex 143.08923833409193 235.85539435377248 14.070985440611283
    vertex 145.07134637581424 235.83506933019936 5.003825694316915
    vertex 145.07134637582237 235.83506933019936 14.070985440609512
  endloop
endfacet
facet normal -0.010253706985603635 -0.9999474293646908 9.191482813989788e-15
  outer loop
    vertex 145.07134637581424 235.83506933019936 5.003825694316915
    vertex 143.08923833409193 235.85539435377248 14.070985440611283
    vertex 143.0892383340888 235.85539435377248 10.570985440611276
  endloop
endfacet
facet normal -0.010253706985603635 -0.9999474293646908 9.191482813989788e-15
  outer loop
    vertex 145.07134637581424 235.83506933019936 5.003825694316915
    vertex 143.0892383340888 235.85539435377248 10.570985440611276
    vertex 143.08923833408383 235.85539435377248 5.003825694318691
  endloop
endfacet
facet normal 0.9999998965008279 0.0004549696359372575 9.819693463955018e-07
  outer loop
    vertex 128.12408751461365 261.45760369522543 4.99847395293322
    vertex 128.1272927603447 254.40063139192435 10.570985440624698
    vertex 128.1272927603397 254.40063139192435 5.003825694332103
  endloop
endfacet
facet normal 0.9999998965008279 0.0004549696359372575 9.819693463955018e-07
  outer loop
    vertex 128.1272927603447 254.40063139192435 10.570985440624698
    vertex 128.12408751461365 261.45760369522543 4.99847395293322
    vertex 128.12408751461865 261.4335722270163 10.565633699225833
  endloop
endfacet
facet normal -4.004434784193995e-06 0.9999976864096541 0.0021510832860744205
  outer loop
    vertex 128.12408751461865 261.4335722270163 10.565633699225833
    vertex 118.79080931109804 261.4455189671649 10.589680440633064
    vertex 118.89080931101142 261.4455231296562 10.589680440632973
  endloop
endfacet
facet normal -4.004434784193995e-06 0.9999976864096541 0.0021510832860744205
  outer loop
    vertex 118.79080931109804 261.4455189671649 10.589680440633064
    vertex 128.12408751461865 261.4335722270163 10.565633699225833
    vertex 118.79080931109304 261.4455189671649 5.003825694340473
  endloop
endfacet
facet normal -4.004434784193995e-06 0.9999976864096541 0.0021510832860744205
  outer loop
    vertex 118.79080931109304 261.4455189671649 5.003825694340473
    vertex 128.12408751461865 261.4335722270163 10.565633699225833
    vertex 128.12408751461365 261.45760369522543 4.99847395293322
  endloop
endfacet
facet normal 6.668603138224721e-06 0.9999999999777649 -5.977767783621312e-18
  outer loop
    vertex 118.89080931101142 261.4455231296562 10.589680440632973
    vertex 117.6713297043146 261.4455264325301 14.070985440634074
    vertex 118.89080931101454 261.4455231296562 14.07098544063298
  endloop
endfacet
facet normal 6.668603138224721e-06 0.9999999999777649 -5.977767783621312e-18
  outer loop
    vertex 117.6713297043146 261.4455264325301 14.070985440634074
    vertex 118.89080931101142 261.4455231296562 10.589680440632973
    vertex 118.79080931109804 261.4455189671649 10.589680440633064
  endloop
endfacet
facet normal 6.668603138224721e-06 0.9999999999777649 -5.977767783621312e-18
  outer loop
    vertex 117.6713297043146 261.4455264325301 14.070985440634074
    vertex 118.79080931109804 261.4455189671649 10.589680440633064
    vertex 117.67132970430649 261.4455264325301 5.003825694341477
  endloop
endfacet
facet normal 6.668603138224721e-06 0.9999999999777649 -5.977767783621312e-18
  outer loop
    vertex 117.67132970430649 261.4455264325301 5.003825694341477
    vertex 118.79080931109804 261.4455189671649 10.589680440633064
    vertex 118.79080931109304 261.4455189671649 5.003825694340473
  endloop
endfacet
facet normal -5.707570793728334e-06 0.9999999999837119 5.116293846860432e-18
  outer loop
    vertex 145.0713606447413 261.44552643251524 5.003825694316915
    vertex 142.99084025127314 261.44552138845887 14.070985440611375
    vertex 145.07136064474943 261.44552643251524 14.070985440609512
  endloop
endfacet
facet normal -5.707570793728334e-06 0.9999999999837119 5.116293846860432e-18
  outer loop
    vertex 142.99084025127314 261.44552138845887 14.070985440611375
    vertex 145.0713606447413 261.44552643251524 5.003825694316915
    vertex 143.09084025107407 261.4455151285549 10.570985440611278
  endloop
endfacet
facet normal -5.707570793728334e-06 0.9999999999837119 5.116293846860432e-18
  outer loop
    vertex 143.09084025107407 261.4455151285549 10.570985440611278
    vertex 145.0713606447413 261.44552643251524 5.003825694316915
    vertex 143.0908402510691 261.4455151285549 5.00382569431869
  endloop
endfacet
facet normal -5.707570793728334e-06 0.9999999999837119 5.116293846860432e-18
  outer loop
    vertex 142.99084025127001 261.44552138845887 10.570985440611366
    vertex 142.99084025127314 261.44552138845887 14.070985440611375
    vertex 143.09084025107407 261.4455151285549 10.570985440611278
  endloop
endfacet
facet normal -0.00032797233504167707 0.9999992459878936 0.00118340939314695
  outer loop
    vertex 143.0908402510691 261.4455151285549 5.00382569431869
    vertex 142.99084025127001 261.44552138845887 10.570985440611366
    vertex 143.09084025107407 261.4455151285549 10.570985440611278
  endloop
endfacet
facet normal -0.00032797233504167707 0.9999992459878936 0.00118340939314695
  outer loop
    vertex 142.99084025127001 261.44552138845887 10.570985440611366
    vertex 143.0908402510691 261.4455151285549 5.00382569431869
    vertex 133.08468622703074 261.43564864680593 10.568030818601464
  endloop
endfacet
facet normal -0.00032797233504167707 0.9999992459878936 0.00118340939314695
  outer loop
    vertex 133.08468622703074 261.43564864680593 10.568030818601464
    vertex 143.0908402510691 261.4455151285549 5.00382569431869
    vertex 133.08468622702577 261.448825115015 5.000871072308888
  endloop
endfacet
facet normal 0.9999997088188961 -0.0005214566753363242 -0.0005571759674802584
  outer loop
    vertex 118.89175478343049 236.65970533122993 10.591119456677765
    vertex 118.89187449760011 235.85540164423588 14.070985440632974
    vertex 118.891874497597 235.85540164423588 10.58968044063297
  endloop
endfacet
facet normal 0.9999997088188961 -0.0005214566753363242 -0.0005571759674802584
  outer loop
    vertex 118.89187449760011 235.85540164423588 14.070985440632974
    vertex 118.89175478343049 236.65970533122993 10.591119456677765
    vertex 118.89564159937831 236.67397191610942 14.069993227878086
  endloop
endfacet
facet normal 4.162491297776595e-05 -0.9999999991336834 -3.7312872241918266e-17
  outer loop
    vertex 118.79187449768364 235.85539748174457 10.58968044063306
    vertex 118.89187449760011 235.85540164423588 14.070985440632974
    vertex 118.79187449768675 235.85539748174457 14.070985440633065
  endloop
endfacet
facet normal 4.162491297776595e-05 -0.9999999991336834 -3.7312872241918266e-17
  outer loop
    vertex 118.89187449760011 235.85540164423588 14.070985440632974
    vertex 118.79187449768364 235.85539748174457 10.58968044063306
    vertex 118.891874497597 235.85540164423588 10.58968044063297
  endloop
endfacet
facet normal -0.9999999606277561 1.8597539407109194e-05 0.0002799975317120743
  outer loop
    vertex 142.99140937176378 236.66133261137892 14.069826172272478
    vertex 142.99084025127001 261.44552138845887 10.570985440611366
    vertex 142.98944935911078 236.65973286353764 10.569038618743333
  endloop
endfacet
facet normal -0.9999999606277561 1.8597539407109194e-05 0.0002799975317120743
  outer loop
    vertex 142.99084025127001 261.44552138845887 10.570985440611366
    vertex 142.99140937176378 236.66133261137892 14.069826172272478
    vertex 142.99084025127314 261.44552138845887 14.070985440611375
  endloop
endfacet
facet normal -6.259903949867828e-05 -0.9999999980406802 5.611423054574611e-17
  outer loop
    vertex 142.98923833428475 235.8554006136764 10.570985440611366
    vertex 143.08923833409193 235.85539435377248 14.070985440611283
    vertex 142.98923833428788 235.8554006136764 14.070985440611373
  endloop
endfacet
facet normal -6.259903949867828e-05 -0.9999999980406802 5.611423054574611e-17
  outer loop
    vertex 143.08923833409193 235.85539435377248 14.070985440611283
    vertex 142.98923833428475 235.8554006136764 10.570985440611366
    vertex 143.0892383340888 235.85539435377248 10.570985440611276
  endloop
endfacet
facet normal 0.0004592309571659155 -3.32908438790287e-05 0.9999998939993183
  outer loop
    vertex 133.08468622703074 261.43564864680593 10.568030818601464
    vertex 142.98944935911078 236.65973286353764 10.569038618743333
    vertex 142.99084025127001 261.44552138845887 10.570985440611366
  endloop
endfacet
facet normal 0.0004592309571659155 -3.32908438790287e-05 0.9999998939993183
  outer loop
    vertex 142.98944935911078 236.65973286353764 10.569038618743333
    vertex 133.08468622703074 261.43564864680593 10.568030818601464
    vertex 140.16568714166786 239.31782633019995 10.570985440613905
  endloop
endfacet
facet normal 0.0004592309571659155 -3.32908438790287e-05 0.9999998939993183
  outer loop
    vertex 142.98944935911078 236.65973286353764 10.569038618743333
    vertex 140.16568714166786 239.31782633019995 10.570985440613905
    vertex 140.1656885011882 236.65973286398076 10.572200103473273
  endloop
endfacet
facet normal 0.0004592309571659155 -3.32908438790287e-05 0.9999998939993183
  outer loop
    vertex 140.16568714166786 239.31782633019995 10.570985440613905
    vertex 133.08468622703074 261.43564864680593 10.568030818601464
    vertex 133.58304544063586 254.40063139192435 10.57098544061981
  endloop
endfacet
facet normal 0.0004592309571659155 -3.32908438790287e-05 0.9999998939993183
  outer loop
    vertex 133.58304544063586 254.40063139192435 10.57098544061981
    vertex 133.08468622703074 261.43564864680593 10.568030818601464
    vertex 133.08304544063586 254.40063139192435 10.570985440620257
  endloop
endfacet
facet normal 0.0004592309571659155 -3.32908438790287e-05 0.9999998939993183
  outer loop
    vertex 128.12408751461865 261.4335722270163 10.565633699225833
    vertex 127.62729276034469 254.40063139192435 10.570985440625147
    vertex 128.1272927603447 254.40063139192435 10.570985440624698
  endloop
endfacet
facet normal 0.0004592309571659155 -3.32908438790287e-05 0.9999998939993183
  outer loop
    vertex 127.62729276034469 254.40063139192435 10.570985440625147
    vertex 128.12408751461865 261.4335722270163 10.565633699225833
    vertex 118.89080931101142 261.4455231296562 10.589680440632973
  endloop
endfacet
facet normal 0.0004592309571659155 -3.32908438790287e-05 0.9999998939993183
  outer loop
    vertex 127.62729276034469 254.40063139192435 10.570985440625147
    vertex 118.89080931101142 261.4455231296562 10.589680440632973
    vertex 127.62729276034469 242.90063139192426 10.570985440625147
  endloop
endfacet
facet normal 0.0004592309571659155 -3.32908438790287e-05 0.9999998939993183
  outer loop
    vertex 127.62729276034469 242.90063139192426 10.570985440625147
    vertex 118.89080931101142 261.4455231296562 10.589680440632973
    vertex 123.11719914166866 239.3178263093335 10.570757041465457
  endloop
endfacet
facet normal 0.0004592309571659155 -3.32908438790287e-05 0.9999998939993183
  outer loop
    vertex 123.11719914166866 239.3178263093335 10.570757041465457
    vertex 118.89080931101142 261.4455231296562 10.589680440632973
    vertex 118.89173037447084 239.3178263093335 10.580218741051107
  endloop
endfacet
facet normal 0.0004592309571659155 -3.32908438790287e-05 0.9999998939993183
  outer loop
    vertex 140.16568714166786 239.31782633019995 10.570985440613905
    vertex 133.58304544063586 242.90063139192426 10.57098544061981
    vertex 123.11719914166866 239.3178263093335 10.570757041465457
  endloop
endfacet
facet normal 0.0004592309571659155 -3.32908438790287e-05 0.9999998939993183
  outer loop
    vertex 133.58304544063586 242.90063139192426 10.57098544061981
    vertex 140.16568714166786 239.31782633019995 10.570985440613905
    vertex 133.58304544063586 254.40063139192435 10.57098544061981
  endloop
endfacet
facet normal 0.0004592309571659155 -3.32908438790287e-05 0.9999998939993183
  outer loop
    vertex 123.11719914166866 239.3178263093335 10.570757041465457
    vertex 133.58304544063586 242.90063139192426 10.57098544061981
    vertex 127.62729276034469 242.90063139192426 10.570985440625147
  endloop
endfacet
facet normal 0.0011172526210210317 0.004100883490053291 0.9999909672097954
  outer loop
    vertex 123.11722355062828 236.65970533122993 10.581657757092113
    vertex 118.891874497597 235.85540164423588 10.58968044063297
    vertex 123.11824765674513 235.85973151395646 10.589680440629184
  endloop
endfacet
facet normal 0.0011172526210210317 0.004100883490053291 0.9999909672097954
  outer loop
    vertex 118.891874497597 235.85540164423588 10.58968044063297
    vertex 123.11722355062828 236.65970533122993 10.581657757092113
    vertex 123.11719914166866 239.3178263093335 10.570757041465457
  endloop
endfacet
facet normal 0.0011172526210210317 0.004100883490053291 0.9999909672097954
  outer loop
    vertex 118.891874497597 235.85540164423588 10.58968044063297
    vertex 123.11719914166866 239.3178263093335 10.570757041465457
    vertex 118.89173037447084 239.3178263093335 10.580218741051107
  endloop
endfacet
facet normal 0.0011172526210210317 0.004100883490053291 0.9999909672097954
  outer loop
    vertex 118.891874497597 235.85540164423588 10.58968044063297
    vertex 118.89173037447084 239.3178263093335 10.580218741051107
    vertex 118.89175478343049 236.65970533122993 10.591119456677765
  endloop
endfacet
facet normal 0.0005598774879020992 0.0004569678677179715 0.9999997388587493
  outer loop
    vertex 140.1656885011882 236.65973286398076 10.572200103473273
    vertex 142.98923833428475 235.8554006136764 10.570985440611366
    vertex 142.98944935911078 236.65973286353764 10.569038618743333
  endloop
endfacet
facet normal 0.0005598774879020992 0.0004569678677179715 0.9999997388587493
  outer loop
    vertex 142.98923833428475 235.8554006136764 10.570985440611366
    vertex 140.1656885011882 236.65973286398076 10.572200103473273
    vertex 140.16409949360826 235.85973222457838 10.570985440613907
  endloop
endfacet
facet normal 0.0013962363656167592 0.004440389419064509 0.9999891666742289
  outer loop
    vertex 123.12111036657613 236.67397191610942 14.060531528292435
    vertex 118.89187449760011 235.85540164423588 14.070985440632974
    vertex 123.12213447269295 235.87399809883595 14.068554211829507
  endloop
endfacet
facet normal 0.0013962363656167592 0.004440389419064509 0.9999891666742289
  outer loop
    vertex 118.89187449760011 235.85540164423588 14.070985440632974
    vertex 123.12111036657613 236.67397191610942 14.060531528292435
    vertex 118.89564159937831 236.67397191610942 14.069993227878086
  endloop
endfacet
facet normal 0.9999993303708786 0.00029708524091598984 -0.0011184802878335398
  outer loop
    vertex 123.11722355062828 236.65970533122993 10.581657757092113
    vertex 123.12213447269295 235.87399809883595 14.068554211829507
    vertex 123.11824765674513 235.85973151395646 10.589680440629184
  endloop
endfacet
facet normal 0.9999993303708786 0.00029708524091598984 -0.0011184802878335398
  outer loop
    vertex 123.12213447269295 235.87399809883595 14.068554211829507
    vertex 123.11722355062828 236.65970533122993 10.581657757092113
    vertex 123.12111036657613 236.67397191610942 14.060531528292435
  endloop
endfacet
facet normal 0.0027123946816965273 -0.9999942253084085 0.0020475021188487512
  outer loop
    vertex 118.891874497597 235.85540164423588 10.58968044063297
    vertex 123.12213447269295 235.87399809883595 14.068554211829507
    vertex 118.89187449760011 235.85540164423588 14.070985440632974
  endloop
endfacet
facet normal 0.0027123946816965273 -0.9999942253084085 0.0020475021188487512
  outer loop
    vertex 123.12213447269295 235.87399809883595 14.068554211829507
    vertex 118.891874497597 235.85540164423588 10.58968044063297
    vertex 123.11824765674513 235.85973151395646 10.589680440629184
  endloop
endfacet
facet normal 0.9999998356197972 0.0001297347994732509 -0.0005585062762655317
  outer loop
    vertex 118.89173037447084 239.3178263093335 10.580218741051107
    vertex 118.89564159937831 236.67397191610942 14.069993227878086
    vertex 118.89175478343049 236.65970533122993 10.591119456677765
  endloop
endfacet
facet normal 0.9999998356197972 0.0001297347994732509 -0.0005585062762655317
  outer loop
    vertex 118.89564159937831 236.67397191610942 14.069993227878086
    vertex 118.89173037447084 239.3178263093335 10.580218741051107
    vertex 118.89080931101454 261.4455231296562 14.07098544063298
  endloop
endfacet
facet normal 0.9999998356197972 0.0001297347994732509 -0.0005585062762655317
  outer loop
    vertex 118.89080931101454 261.4455231296562 14.07098544063298
    vertex 118.89173037447084 239.3178263093335 10.580218741051107
    vertex 118.89080931101142 261.4455231296562 10.589680440632973
  endloop
endfacet
facet normal 0.0005989877649350274 0.00038390954743625284 0.9999997469135264
  outer loop
    vertex 140.16764851384121 236.66133261182205 14.072987657002418
    vertex 142.98923833428788 235.8554006136764 14.070985440611373
    vertex 142.99140937176378 236.66133261137892 14.069826172272478
  endloop
endfacet
facet normal 0.0005989877649350274 0.00038390954743625284 0.9999997469135264
  outer loop
    vertex 142.98923833428788 235.8554006136764 14.070985440611373
    vertex 140.16764851384121 236.66133261182205 14.072987657002418
    vertex 140.16605950626126 235.86133197241963 14.071772994143055
  endloop
endfacet
facet normal -0.9999997379947355 0.0004591105953543557 0.0005596676885737642
  outer loop
    vertex 140.16605950626126 235.86133197241963 14.071772994143055
    vertex 140.1656885011882 236.65973286398076 10.572200103473273
    vertex 140.16409949360826 235.85973222457838 10.570985440613907
  endloop
endfacet
facet normal -0.9999997379947355 0.0004591105953543557 0.0005596676885737642
  outer loop
    vertex 140.1656885011882 236.65973286398076 10.572200103473273
    vertex 140.16605950626126 235.86133197241963 14.071772994143055
    vertex 140.16764851384121 236.66133261182205 14.072987657002418
  endloop
endfacet
facet normal -0.0018168623684856763 -0.9999983232736415 0.0002290437505935156
  outer loop
    vertex 140.16409949360826 235.85973222457838 10.570985440613907
    vertex 142.98923833428788 235.8554006136764 14.070985440611373
    vertex 140.16605950626126 235.86133197241963 14.071772994143055
  endloop
endfacet
facet normal -0.0018168623684856763 -0.9999983232736415 0.0002290437505935156
  outer loop
    vertex 142.98923833428788 235.8554006136764 14.070985440611373
    vertex 140.16409949360826 235.85973222457838 10.570985440613907
    vertex 142.98923833428475 235.8554006136764 10.570985440611366
  endloop
endfacet
facet normal -0.9999998990071695 0.00033253846244329937 0.0003023306497701199
  outer loop
    vertex 142.99140937176378 236.66133261137892 14.069826172272478
    vertex 142.98923833428475 235.8554006136764 10.570985440611366
    vertex 142.98923833428788 235.8554006136764 14.070985440611373
  endloop
endfacet
facet normal -0.9999998990071695 0.00033253846244329937 0.0003023306497701199
  outer loop
    vertex 142.98923833428475 235.8554006136764 10.570985440611366
    vertex 142.99140937176378 236.66133261137892 14.069826172272478
    vertex 142.98944935911078 236.65973286353764 10.569038618743333
  endloop
endfacet
facet normal -9.182710108950292e-06 0.9999915913313635 -0.0041008757900584
  outer loop
    vertex 123.12111036657613 236.67397191610942 14.060531528292435
    vertex 118.89175478343049 236.65970533122993 10.591119456677765
    vertex 118.89564159937831 236.67397191610942 14.069993227878086
  endloop
endfacet
facet normal -9.182710108950292e-06 0.9999915913313635 -0.0041008757900584
  outer loop
    vertex 118.89175478343049 236.65970533122993 10.591119456677765
    vertex 123.12111036657613 236.67397191610942 14.060531528292435
    vertex 123.11722355062828 236.65970533122993 10.581657757092113
  endloop
endfacet
facet normal 0.0022391826389496247 0.004100886071040263 0.9999890843376951
  outer loop
    vertex 123.11719914166866 239.3178263093335 10.570757041465457
    vertex 118.89175478343049 236.65970533122993 10.591119456677765
    vertex 123.11722355062828 236.65970533122993 10.581657757092113
  endloop
endfacet
facet normal 0.0022391826389496247 0.004100886071040263 0.9999890843376951
  outer loop
    vertex 118.89175478343049 236.65970533122993 10.591119456677765
    vertex 123.11719914166866 239.3178263093335 10.570757041465457
    vertex 118.89173037447084 239.3178263093335 10.580218741051107
  endloop
endfacet
facet normal -5.114643949309767e-07 0.9999998955901459 -0.00045696765293623613
  outer loop
    vertex 142.99140937176378 236.66133261137892 14.069826172272478
    vertex 140.1656885011882 236.65973286398076 10.572200103473273
    vertex 140.16764851384121 236.66133261182205 14.072987657002418
  endloop
endfacet
facet normal -5.114643949309767e-07 0.9999998955901459 -0.00045696765293623613
  outer loop
    vertex 140.1656885011882 236.65973286398076 10.572200103473273
    vertex 142.99140937176378 236.66133261137892 14.069826172272478
    vertex 142.98944935911078 236.65973286353764 10.569038618743333
  endloop
endfacet
endsolid v17_case
