solid n64sleeve
facet normal 3.1029560767472467e-19 -1.0 1.5299297322851009e-18
  outer loop
    vertex 61.99999999999998 -0.3999999999999997 0.5999999999999989
    vertex 44.99999999999998 -0.3999999999999997 0.0027604802631584022
    vertex 61.99999999999998 -0.3999999999999997 0.002760480263158226
  endloop
endfacet
facet normal 3.1029560767472467e-19 -1.0 1.5299297322851009e-18
  outer loop
    vertex 44.99999999999998 -0.3999999999999997 0.0027604802631584022
    vertex 61.99999999999998 -0.3999999999999997 0.5999999999999989
    vertex 44.99999999999998 -0.3999999999999997 0.5999999999999991
  endloop
endfacet
facet normal 3.1029560767472467e-19 -1.0 1.5299297322851009e-18
  outer loop
    vertex 44.99999999999998 -0.3999999999999997 0.5999999999999991
    vertex 61.99999999999998 -0.3999999999999997 0.5999999999999989
    vertex 70.6 -0.4000000000000001 0.6
  endloop
endfacet
facet normal 3.1029560767472467e-19 -1.0 1.5299297322851009e-18
  outer loop
    vertex 44.99999999999998 -0.3999999999999997 0.5999999999999991
    vertex 70.6 -0.4000000000000001 0.6
    vertex -0.6000000000000002 -0.4000000000000001 0.6
  endloop
endfacet
facet normal 3.1029560767472467e-19 -1.0 1.5299297322851009e-18
  outer loop
    vertex -0.6000000000000002 -0.4000000000000001 0.6
    vertex 70.6 -0.4000000000000001 0.6
    vertex 70.6 -0.4000000000000001 14.999999999999998
  endloop
endfacet
facet normal 3.1029560767472467e-19 -1.0 1.5299297322851009e-18
  outer loop
    vertex -0.6000000000000002 -0.4000000000000001 0.6
    vertex 70.6 -0.4000000000000001 14.999999999999998
    vertex -0.6 -0.4000000000000001 14.999999999999998
  endloop
endfacet
facet normal 2.1753120581996594e-05 -0.00010690540144889024 -0.9999999940490185
  outer loop
    vertex 72.5 13.299999999999999 0.00020532051282033252
    vertex 59.75 10.399999999999999 0.00017155069163247056
    vertex 59.75 13.299999999999999 0.00017155069163282306
  endloop
endfacet
facet normal 2.1753120581996594e-05 -0.00010690540144889024 -0.9999999940490185
  outer loop
    vertex 59.75 10.399999999999999 0.00017155069163247056
    vertex 72.5 13.299999999999999 0.00020532051282033252
    vertex 70.1 9.9 0.0
  endloop
endfacet
facet normal 2.1753120581996594e-05 -0.00010690540144889024 -0.9999999940490185
  outer loop
    vertex 70.1 9.9 0.0
    vertex 72.5 13.299999999999999 0.00020532051282033252
    vertex 70.1 0.10000000000000002 0.0
  endloop
endfacet
facet normal 2.1753120581996594e-05 -0.00010690540144889024 -0.9999999940490185
  outer loop
    vertex -2.4999999999999973 -3.3000000000000025 4.2144736842370656e-05
    vertex -0.10000000000000002 0.10000000000000002 0.0
    vertex 44.99999999999997 -3.3000000000000003 0.0027604802631584022
  endloop
endfacet
facet normal 2.1753120581996594e-05 -0.00010690540144889024 -0.9999999940490185
  outer loop
    vertex -0.10000000000000002 0.10000000000000002 0.0
    vertex -2.4999999999999973 -3.3000000000000025 4.2144736842370656e-05
    vertex -0.10000000000000002 9.9 0.0
  endloop
endfacet
facet normal 2.1753120581996594e-05 -0.00010690540144889024 -0.9999999940490185
  outer loop
    vertex 44.99999999999997 -3.3000000000000003 0.0027604802631584022
    vertex -0.10000000000000002 0.10000000000000002 0.0
    vertex 44.99999999999998 -0.3999999999999997 0.0027604802631584022
  endloop
endfacet
facet normal 2.1753120581996594e-05 -0.00010690540144889024 -0.9999999940490185
  outer loop
    vertex 44.99999999999998 -0.3999999999999997 0.0027604802631584022
    vertex -0.10000000000000002 0.10000000000000002 0.0
    vertex 70.1 0.10000000000000002 0.0
  endloop
endfacet
facet normal 2.1753120581996594e-05 -0.00010690540144889024 -0.9999999940490185
  outer loop
    vertex 44.99999999999998 -0.3999999999999997 0.0027604802631584022
    vertex 70.1 0.10000000000000002 0.0
    vertex 61.99999999999998 -0.3999999999999997 0.002760480263158226
  endloop
endfacet
facet normal 2.1753120581996594e-05 -0.00010690540144889024 -0.9999999940490185
  outer loop
    vertex 61.99999999999998 -0.3999999999999997 0.002760480263158226
    vertex 70.1 0.10000000000000002 0.0
    vertex 61.99999999999998 -3.299999999999998 0.002760480263158226
  endloop
endfacet
facet normal 2.1753120581996594e-05 -0.00010690540144889024 -0.9999999940490185
  outer loop
    vertex 61.99999999999998 -3.299999999999998 0.002760480263158226
    vertex 70.1 0.10000000000000002 0.0
    vertex 72.5 -3.299999999999998 0.0032030000000003423
  endloop
endfacet
facet normal 2.1753120581996594e-05 -0.00010690540144889024 -0.9999999940490185
  outer loop
    vertex 72.5 -3.299999999999998 0.0032030000000003423
    vertex 70.1 0.10000000000000002 0.0
    vertex 72.5 13.299999999999999 0.00020532051282033252
  endloop
endfacet
facet normal 2.1753120581996594e-05 -0.00010690540144889024 -0.9999999940490185
  outer loop
    vertex 72.5 -3.299999999999998 0.0032030000000003423
    vertex 72.5 13.299999999999999 0.00020532051282033252
    vertex 72.75881904510253 13.265925826289067 0.00020532051282033252
  endloop
endfacet
facet normal 2.1753120581996594e-05 -0.00010690540144889024 -0.9999999940490185
  outer loop
    vertex 72.5 -3.299999999999998 0.0032030000000003423
    vertex 72.75881904510253 13.265925826289067 0.00020532051282033252
    vertex 72.75881904510253 -3.2659258262890662 0.0032030000000003423
  endloop
endfacet
facet normal 2.1753120581996594e-05 -0.00010690540144889024 -0.9999999940490185
  outer loop
    vertex 72.75881904510253 -3.2659258262890662 0.0032030000000003423
    vertex 72.75881904510253 13.265925826289067 0.00020532051282033252
    vertex 73.0 13.166025403784436 0.00020532051282050876
  endloop
endfacet
facet normal 2.1753120581996594e-05 -0.00010690540144889024 -0.9999999940490185
  outer loop
    vertex 72.75881904510253 -3.2659258262890662 0.0032030000000003423
    vertex 73.0 13.166025403784436 0.00020532051282050876
    vertex 73.0 -3.1660254037844373 0.0032030000000003423
  endloop
endfacet
facet normal 2.1753120581996594e-05 -0.00010690540144889024 -0.9999999940490185
  outer loop
    vertex 73.0 -3.1660254037844373 0.0032030000000003423
    vertex 73.0 13.166025403784436 0.00020532051282050876
    vertex 73.20710678118655 13.007106781186547 0.00020532051282050876
  endloop
endfacet
facet normal 2.1753120581996594e-05 -0.00010690540144889024 -0.9999999940490185
  outer loop
    vertex 73.0 -3.1660254037844373 0.0032030000000003423
    vertex 73.20710678118655 13.007106781186547 0.00020532051282050876
    vertex 73.20710678118655 -3.0071067811865464 0.0032030000000003423
  endloop
endfacet
facet normal 2.1753120581996594e-05 -0.00010690540144889024 -0.9999999940490185
  outer loop
    vertex 73.20710678118655 -3.0071067811865464 0.0032030000000003423
    vertex 73.20710678118655 13.007106781186547 0.00020532051282050876
    vertex 73.36602540378443 12.799999999999999 0.00020532051282050876
  endloop
endfacet
facet normal 2.1753120581996594e-05 -0.00010690540144889024 -0.9999999940490185
  outer loop
    vertex 73.20710678118655 -3.0071067811865464 0.0032030000000003423
    vertex 73.36602540378443 12.799999999999999 0.00020532051282050876
    vertex 73.36602540378443 -2.7999999999999994 0.0032030000000003423
  endloop
endfacet
facet normal 2.1753120581996594e-05 -0.00010690540144889024 -0.9999999940490185
  outer loop
    vertex 73.36602540378443 -2.7999999999999994 0.0032030000000003423
    vertex 73.36602540378443 12.799999999999999 0.00020532051282050876
    vertex 73.46592582628908 12.55881904510252 0.00020532051282050876
  endloop
endfacet
facet normal 2.1753120581996594e-05 -0.00010690540144889024 -0.9999999940490185
  outer loop
    vertex 73.36602540378443 -2.7999999999999994 0.0032030000000003423
    vertex 73.46592582628908 12.55881904510252 0.00020532051282050876
    vertex 73.46592582628908 -2.5588190451025206 0.0032030000000003423
  endloop
endfacet
facet normal 2.1753120581996594e-05 -0.00010690540144889024 -0.9999999940490185
  outer loop
    vertex 73.46592582628908 -2.5588190451025206 0.0032030000000003423
    vertex 73.46592582628908 12.55881904510252 0.00020532051282050876
    vertex 73.5 12.299999999999999 0.00020532051282050876
  endloop
endfacet
facet normal 2.1753120581996594e-05 -0.00010690540144889024 -0.9999999940490185
  outer loop
    vertex 73.46592582628908 -2.5588190451025206 0.0032030000000003423
    vertex 73.5 12.299999999999999 0.00020532051282050876
    vertex 73.5 -2.3000000000000003 0.0032030000000003423
  endloop
endfacet
facet normal 2.1753120581996594e-05 -0.00010690540144889024 -0.9999999940490185
  outer loop
    vertex -3.499999999999999 12.299999999999999 2.7015856955400762e-06
    vertex -3.465925826289069 -2.5588190451025223 4.2144736842370656e-05
    vertex -3.5000000000000004 -2.3 4.2144736842370656e-05
  endloop
endfacet
facet normal 2.1753120581996594e-05 -0.00010690540144889024 -0.9999999940490185
  outer loop
    vertex -3.465925826289069 -2.5588190451025223 4.2144736842370656e-05
    vertex -3.499999999999999 12.299999999999999 2.7015856955400762e-06
    vertex -3.4659258262890673 12.558819045102519 2.7015856955400762e-06
  endloop
endfacet
facet normal 2.1753120581996594e-05 -0.00010690540144889024 -0.9999999940490185
  outer loop
    vertex -3.465925826289069 -2.5588190451025223 4.2144736842370656e-05
    vertex -3.4659258262890673 12.558819045102519 2.7015856955400762e-06
    vertex -3.366025403784439 -2.800000000000002 4.2144736842370656e-05
  endloop
endfacet
facet normal 2.1753120581996594e-05 -0.00010690540144889024 -0.9999999940490185
  outer loop
    vertex -3.366025403784439 -2.800000000000002 4.2144736842370656e-05
    vertex -3.4659258262890673 12.558819045102519 2.7015856955400762e-06
    vertex -3.366025403784438 12.799999999999999 2.7015856955400762e-06
  endloop
endfacet
facet normal 2.1753120581996594e-05 -0.00010690540144889024 -0.9999999940490185
  outer loop
    vertex -3.366025403784439 -2.800000000000002 4.2144736842370656e-05
    vertex -3.366025403784438 12.799999999999999 2.7015856955400762e-06
    vertex -3.2071067811865475 -3.0071067811865495 4.2144736842370656e-05
  endloop
endfacet
facet normal 2.1753120581996594e-05 -0.00010690540144889024 -0.9999999940490185
  outer loop
    vertex -3.2071067811865475 -3.0071067811865495 4.2144736842370656e-05
    vertex -3.366025403784438 12.799999999999999 2.7015856955400762e-06
    vertex -3.207106781186547 13.007106781186547 2.7015856955400762e-06
  endloop
endfacet
facet normal 2.1753120581996594e-05 -0.00010690540144889024 -0.9999999940490185
  outer loop
    vertex -3.2071067811865475 -3.0071067811865495 4.2144736842370656e-05
    vertex -3.207106781186547 13.007106781186547 2.7015856955400762e-06
    vertex -2.9999999999999987 -3.1660254037844413 4.2144736842370656e-05
  endloop
endfacet
facet normal 2.1753120581996594e-05 -0.00010690540144889024 -0.9999999940490185
  outer loop
    vertex -2.9999999999999987 -3.1660254037844413 4.2144736842370656e-05
    vertex -3.207106781186547 13.007106781186547 2.7015856955400762e-06
    vertex -2.9999999999999996 13.166025403784436 2.7015856955400762e-06
  endloop
endfacet
facet normal 2.1753120581996594e-05 -0.00010690540144889024 -0.9999999940490185
  outer loop
    vertex -2.9999999999999987 -3.1660254037844413 4.2144736842370656e-05
    vertex -2.9999999999999996 13.166025403784436 2.7015856955400762e-06
    vertex -2.7588190451025207 13.265925826289067 2.7015856955400762e-06
  endloop
endfacet
facet normal 2.1753120581996594e-05 -0.00010690540144889024 -0.9999999940490185
  outer loop
    vertex -2.9999999999999987 -3.1660254037844413 4.2144736842370656e-05
    vertex -2.7588190451025207 13.265925826289067 2.7015856955400762e-06
    vertex -2.758819045102519 -3.2659258262890707 4.2144736842370656e-05
  endloop
endfacet
facet normal 2.1753120581996594e-05 -0.00010690540144889024 -0.9999999940490185
  outer loop
    vertex -2.758819045102519 -3.2659258262890707 4.2144736842370656e-05
    vertex -2.7588190451025207 13.265925826289067 2.7015856955400762e-06
    vertex -2.4999999999999996 13.299999999999999 2.7015856955400762e-06
  endloop
endfacet
facet normal 2.1753120581996594e-05 -0.00010690540144889024 -0.9999999940490185
  outer loop
    vertex -2.758819045102519 -3.2659258262890707 4.2144736842370656e-05
    vertex -2.4999999999999996 13.299999999999999 2.7015856955400762e-06
    vertex -2.4999999999999973 -3.3000000000000025 4.2144736842370656e-05
  endloop
endfacet
facet normal 2.1753120581996594e-05 -0.00010690540144889024 -0.9999999940490185
  outer loop
    vertex -2.4999999999999973 -3.3000000000000025 4.2144736842370656e-05
    vertex -2.4999999999999996 13.299999999999999 2.7015856955400762e-06
    vertex -0.10000000000000002 9.9 0.0
  endloop
endfacet
facet normal 2.1753120581996594e-05 -0.00010690540144889024 -0.9999999940490185
  outer loop
    vertex -0.10000000000000002 9.9 0.0
    vertex -2.4999999999999996 13.299999999999999 2.7015856955400762e-06
    vertex 48.5 13.299999999999999 0.00017155069163282306
  endloop
endfacet
facet normal 2.1753120581996594e-05 -0.00010690540144889024 -0.9999999940490185
  outer loop
    vertex -0.10000000000000002 9.9 0.0
    vertex 48.5 13.299999999999999 0.00017155069163282306
    vertex 48.5 10.399999999999999 0.00017155069163247056
  endloop
endfacet
facet normal 2.1753120581996594e-05 -0.00010690540144889024 -0.9999999940490185
  outer loop
    vertex -0.10000000000000002 9.9 0.0
    vertex 48.5 10.399999999999999 0.00017155069163247056
    vertex 70.1 9.9 0.0
  endloop
endfacet
facet normal 2.1753120581996594e-05 -0.00010690540144889024 -0.9999999940490185
  outer loop
    vertex 70.1 9.9 0.0
    vertex 48.5 10.399999999999999 0.00017155069163247056
    vertex 59.75 10.399999999999999 0.00017155069163247056
  endloop
endfacet
facet normal 0.0 1.0 0.0
  outer loop
    vertex -0.6 10.399999999999999 14.999999999999998
    vertex 48.5 10.399999999999999 0.5999999999999994
    vertex -0.5999999999999995 10.399999999999999 0.5999999999999994
  endloop
endfacet
facet normal 0.0 1.0 0.0
  outer loop
    vertex 48.5 10.399999999999999 0.5999999999999994
    vertex -0.6 10.399999999999999 14.999999999999998
    vertex 59.75 10.399999999999999 0.5999999999999994
  endloop
endfacet
facet normal 0.0 1.0 0.0
  outer loop
    vertex 59.75 10.399999999999999 0.5999999999999994
    vertex -0.6 10.399999999999999 14.999999999999998
    vertex 70.6 10.399999999999999 0.5999999999999994
  endloop
endfacet
facet normal 0.0 1.0 0.0
  outer loop
    vertex 70.6 10.399999999999999 0.5999999999999994
    vertex -0.6 10.399999999999999 14.999999999999998
    vertex 70.6 10.399999999999999 14.999999999999998
  endloop
endfacet
facet normal 0.0 1.0 0.0
  outer loop
    vertex 48.5 10.399999999999999 0.5999999999999994
    vertex 59.75 10.399999999999999 0.00017155069163247056
    vertex 48.5 10.399999999999999 0.00017155069163247056
  endloop
endfacet
facet normal 0.0 1.0 0.0
  outer loop
    vertex 59.75 10.399999999999999 0.00017155069163247056
    vertex 48.5 10.399999999999999 0.5999999999999994
    vertex 59.75 10.399999999999999 0.5999999999999994
  endloop
endfacet
facet normal -0.0 -0.0 1.0
  outer loop
    vertex -0.6 -0.4000000000000001 14.999999999999998
    vertex -0.10000000000000002 0.10000000000000002 14.999999999999998
    vertex -0.6 10.399999999999999 14.999999999999998
  endloop
endfacet
facet normal -0.0 -0.0 1.0
  outer loop
    vertex -0.10000000000000002 0.10000000000000002 14.999999999999998
    vertex -0.6 -0.4000000000000001 14.999999999999998
    vertex 70.6 -0.4000000000000001 14.999999999999998
  endloop
endfacet
facet normal -0.0 -0.0 1.0
  outer loop
    vertex -0.10000000000000002 0.10000000000000002 14.999999999999998
    vertex 70.6 -0.4000000000000001 14.999999999999998
    vertex 70.1 0.10000000000000002 14.999999999999998
  endloop
endfacet
facet normal -0.0 -0.0 1.0
  outer loop
    vertex 70.1 0.10000000000000002 14.999999999999998
    vertex 70.6 -0.4000000000000001 14.999999999999998
    vertex 70.1 9.9 14.999999999999998
  endloop
endfacet
facet normal -0.0 -0.0 1.0
  outer loop
    vertex -0.6 10.399999999999999 14.999999999999998
    vertex -0.10000000000000002 9.9 14.999999999999998
    vertex 70.6 10.399999999999999 14.999999999999998
  endloop
endfacet
facet normal -0.0 -0.0 1.0
  outer loop
    vertex -0.10000000000000002 9.9 14.999999999999998
    vertex -0.6 10.399999999999999 14.999999999999998
    vertex -0.10000000000000002 0.10000000000000002 14.999999999999998
  endloop
endfacet
facet normal -0.0 -0.0 1.0
  outer loop
    vertex 70.6 10.399999999999999 14.999999999999998
    vertex -0.10000000000000002 9.9 14.999999999999998
    vertex 70.1 9.9 14.999999999999998
  endloop
endfacet
facet normal -0.0 -0.0 1.0
  outer loop
    vertex 70.6 10.399999999999999 14.999999999999998
    vertex 70.1 9.9 14.999999999999998
    vertex 70.6 -0.4000000000000001 14.999999999999998
  endloop
endfacet
facet normal 1.0 0.0 0.0
  outer loop
    vertex 70.6 10.399999999999999 0.5999999999999994
    vertex 70.6 -0.4000000000000001 14.999999999999998
    vertex 70.6 -0.4000000000000001 0.6
  endloop
endfacet
facet normal 1.0 0.0 0.0
  outer loop
    vertex 70.6 -0.4000000000000001 14.999999999999998
    vertex 70.6 10.399999999999999 0.5999999999999994
    vertex 70.6 10.399999999999999 14.999999999999998
  endloop
endfacet
facet normal -1.0 3.325432172815918e-17 -6.119718929140403e-18
  outer loop
    vertex -0.6 10.399999999999999 14.999999999999998
    vertex -0.6000000000000002 -0.4000000000000001 0.6
    vertex -0.6 -0.4000000000000001 14.999999999999998
  endloop
endfacet
facet normal -1.0 3.325432172815918e-17 -6.119718929140403e-18
  outer loop
    vertex -0.6000000000000002 -0.4000000000000001 0.6
    vertex -0.6 10.399999999999999 14.999999999999998
    vertex -0.5999999999999995 10.399999999999999 0.5999999999999994
  endloop
endfacet
facet normal 0.0 -1.0 0.0
  outer loop
    vertex 70.1 9.9 14.999999999999998
    vertex -0.10000000000000002 9.9 0.0
    vertex 70.1 9.9 0.0
  endloop
endfacet
facet normal 0.0 -1.0 0.0
  outer loop
    vertex -0.10000000000000002 9.9 0.0
    vertex 70.1 9.9 14.999999999999998
    vertex -0.10000000000000002 9.9 14.999999999999998
  endloop
endfacet
facet normal 1.0 0.0 0.0
  outer loop
    vertex -0.10000000000000002 9.9 0.0
    vertex -0.10000000000000002 0.10000000000000002 14.999999999999998
    vertex -0.10000000000000002 0.10000000000000002 0.0
  endloop
endfacet
facet normal 1.0 0.0 0.0
  outer loop
    vertex -0.10000000000000002 0.10000000000000002 14.999999999999998
    vertex -0.10000000000000002 9.9 0.0
    vertex -0.10000000000000002 9.9 14.999999999999998
  endloop
endfacet
facet normal -1.0 0.0 0.0
  outer loop
    vertex 70.1 9.9 14.999999999999998
    vertex 70.1 0.10000000000000002 0.0
    vertex 70.1 0.10000000000000002 14.999999999999998
  endloop
endfacet
facet normal -1.0 0.0 0.0
  outer loop
    vertex 70.1 0.10000000000000002 0.0
    vertex 70.1 9.9 14.999999999999998
    vertex 70.1 9.9 0.0
  endloop
endfacet
facet normal 0.0 1.0 0.0
  outer loop
    vertex -0.10000000000000002 0.10000000000000002 14.999999999999998
    vertex 70.1 0.10000000000000002 0.0
    vertex -0.10000000000000002 0.10000000000000002 0.0
  endloop
endfacet
facet normal 0.0 1.0 0.0
  outer loop
    vertex 70.1 0.10000000000000002 0.0
    vertex -0.10000000000000002 0.10000000000000002 14.999999999999998
    vertex 70.1 0.10000000000000002 14.999999999999998
  endloop
endfacet
facet normal -0.0 1.0 -0.0
  outer loop
    vertex 59.75 13.299999999999999 0.5999999999999998
    vertex 72.5 13.299999999999999 0.00020532051282033252
    vertex 59.75 13.299999999999999 0.00017155069163282306
  endloop
endfacet
facet normal -0.0 1.0 -0.0
  outer loop
    vertex 72.5 13.299999999999999 0.00020532051282033252
    vertex 59.75 13.299999999999999 0.5999999999999998
    vertex 72.5 13.299999999999999 0.5999999999999996
  endloop
endfacet
facet normal 4.452578656654577e-17 -1.0 -1.3169015991744981e-31
  outer loop
    vertex 44.99999999999997 -3.3000000000000003 0.0027604802631584022
    vertex -2.4999999999999973 -3.3000000000000025 0.6000000000000005
    vertex -2.4999999999999973 -3.3000000000000025 4.2144736842370656e-05
  endloop
endfacet
facet normal 4.452578656654577e-17 -1.0 -1.3169015991744981e-31
  outer loop
    vertex -2.4999999999999973 -3.3000000000000025 0.6000000000000005
    vertex 44.99999999999997 -3.3000000000000003 0.0027604802631584022
    vertex 44.99999999999997 -3.3000000000000003 0.5999999999999991
  endloop
endfacet
facet normal 1.0 -0.0 -0.0
  outer loop
    vertex 73.5 12.299999999999999 0.00020532051282050876
    vertex 73.5 -2.3000000000000003 0.6000000000000003
    vertex 73.5 -2.3000000000000003 0.0032030000000003423
  endloop
endfacet
facet normal 1.0 -0.0 -0.0
  outer loop
    vertex 73.5 -2.3000000000000003 0.6000000000000003
    vertex 73.5 12.299999999999999 0.00020532051282050876
    vertex 73.5 12.299999999999999 0.5999999999999998
  endloop
endfacet
facet normal 1.316752701201327e-17 2.6611407411557055e-17 1.0
  outer loop
    vertex 44.99999999999997 -3.3000000000000003 0.5999999999999991
    vertex -0.6000000000000002 -0.4000000000000001 0.6
    vertex -2.4999999999999973 -3.3000000000000025 0.6000000000000005
  endloop
endfacet
facet normal 1.316752701201327e-17 2.6611407411557055e-17 1.0
  outer loop
    vertex -0.6000000000000002 -0.4000000000000001 0.6
    vertex 44.99999999999997 -3.3000000000000003 0.5999999999999991
    vertex 44.99999999999998 -0.3999999999999997 0.5999999999999991
  endloop
endfacet
facet normal 1.316752701201327e-17 2.6611407411557055e-17 1.0
  outer loop
    vertex -3.465925826289069 -2.5588190451025223 0.6000000000000005
    vertex -3.499999999999999 12.299999999999999 0.5999999999999998
    vertex -3.5000000000000004 -2.3 0.6000000000000005
  endloop
endfacet
facet normal 1.316752701201327e-17 2.6611407411557055e-17 1.0
  outer loop
    vertex -3.499999999999999 12.299999999999999 0.5999999999999998
    vertex -3.465925826289069 -2.5588190451025223 0.6000000000000005
    vertex -3.4659258262890673 12.558819045102519 0.5999999999999998
  endloop
endfacet
facet normal 1.316752701201327e-17 2.6611407411557055e-17 1.0
  outer loop
    vertex -3.4659258262890673 12.558819045102519 0.5999999999999998
    vertex -3.465925826289069 -2.5588190451025223 0.6000000000000005
    vertex -3.366025403784439 -2.800000000000002 0.6000000000000005
  endloop
endfacet
facet normal 1.316752701201327e-17 2.6611407411557055e-17 1.0
  outer loop
    vertex -3.4659258262890673 12.558819045102519 0.5999999999999998
    vertex -3.366025403784439 -2.800000000000002 0.6000000000000005
    vertex -3.366025403784438 12.799999999999999 0.5999999999999998
  endloop
endfacet
facet normal 1.316752701201327e-17 2.6611407411557055e-17 1.0
  outer loop
    vertex -3.366025403784438 12.799999999999999 0.5999999999999998
    vertex -3.366025403784439 -2.800000000000002 0.6000000000000005
    vertex -3.2071067811865475 -3.0071067811865495 0.6000000000000005
  endloop
endfacet
facet normal 1.316752701201327e-17 2.6611407411557055e-17 1.0
  outer loop
    vertex -3.366025403784438 12.799999999999999 0.5999999999999998
    vertex -3.2071067811865475 -3.0071067811865495 0.6000000000000005
    vertex -3.207106781186547 13.007106781186547 0.5999999999999998
  endloop
endfacet
facet normal 1.316752701201327e-17 2.6611407411557055e-17 1.0
  outer loop
    vertex -3.207106781186547 13.007106781186547 0.5999999999999998
    vertex -3.2071067811865475 -3.0071067811865495 0.6000000000000005
    vertex -2.9999999999999987 -3.1660254037844413 0.6000000000000005
  endloop
endfacet
facet normal 1.316752701201327e-17 2.6611407411557055e-17 1.0
  outer loop
    vertex -3.207106781186547 13.007106781186547 0.5999999999999998
    vertex -2.9999999999999987 -3.1660254037844413 0.6000000000000005
    vertex -2.9999999999999996 13.166025403784436 0.5999999999999998
  endloop
endfacet
facet normal 1.316752701201327e-17 2.6611407411557055e-17 1.0
  outer loop
    vertex -2.9999999999999996 13.166025403784436 0.5999999999999998
    vertex -2.9999999999999987 -3.1660254037844413 0.6000000000000005
    vertex -2.7588190451025207 13.265925826289067 0.5999999999999998
  endloop
endfacet
facet normal 1.316752701201327e-17 2.6611407411557055e-17 1.0
  outer loop
    vertex -2.7588190451025207 13.265925826289067 0.5999999999999998
    vertex -2.9999999999999987 -3.1660254037844413 0.6000000000000005
    vertex -2.758819045102519 -3.2659258262890707 0.6000000000000005
  endloop
endfacet
facet normal 1.316752701201327e-17 2.6611407411557055e-17 1.0
  outer loop
    vertex -2.7588190451025207 13.265925826289067 0.5999999999999998
    vertex -2.758819045102519 -3.2659258262890707 0.6000000000000005
    vertex -2.4999999999999996 13.299999999999999 0.5999999999999998
  endloop
endfacet
facet normal 1.316752701201327e-17 2.6611407411557055e-17 1.0
  outer loop
    vertex -2.4999999999999996 13.299999999999999 0.5999999999999998
    vertex -2.758819045102519 -3.2659258262890707 0.6000000000000005
    vertex -2.4999999999999973 -3.3000000000000025 0.6000000000000005
  endloop
endfacet
facet normal 1.316752701201327e-17 2.6611407411557055e-17 1.0
  outer loop
    vertex -2.4999999999999996 13.299999999999999 0.5999999999999998
    vertex -2.4999999999999973 -3.3000000000000025 0.6000000000000005
    vertex -0.5999999999999995 10.399999999999999 0.5999999999999994
  endloop
endfacet
facet normal 1.316752701201327e-17 2.6611407411557055e-17 1.0
  outer loop
    vertex -2.4999999999999996 13.299999999999999 0.5999999999999998
    vertex -0.5999999999999995 10.399999999999999 0.5999999999999994
    vertex 48.5 13.299999999999999 0.5999999999999998
  endloop
endfacet
facet normal 1.316752701201327e-17 2.6611407411557055e-17 1.0
  outer loop
    vertex -0.5999999999999995 10.399999999999999 0.5999999999999994
    vertex -2.4999999999999973 -3.3000000000000025 0.6000000000000005
    vertex -0.6000000000000002 -0.4000000000000001 0.6
  endloop
endfacet
facet normal 1.316752701201327e-17 2.6611407411557055e-17 1.0
  outer loop
    vertex 48.5 13.299999999999999 0.5999999999999998
    vertex -0.5999999999999995 10.399999999999999 0.5999999999999994
    vertex 48.5 10.399999999999999 0.5999999999999994
  endloop
endfacet
facet normal 0.13052619222005077 -0.9914448613738106 -4.782429756740586e-16
  outer loop
    vertex 72.75881904510253 -3.2659258262890662 0.6000000000000003
    vertex 72.5 -3.299999999999998 0.0032030000000003423
    vertex 72.75881904510253 -3.2659258262890662 0.0032030000000003423
  endloop
endfacet
facet normal 0.13052619222005077 -0.9914448613738106 -4.782429756740586e-16
  outer loop
    vertex 72.5 -3.299999999999998 0.0032030000000003423
    vertex 72.75881904510253 -3.2659258262890662 0.6000000000000003
    vertex 72.5 -3.299999999999998 0.6000000000000003
  endloop
endfacet
facet normal 0.9914448613738132 -0.13052619222003073 -4.782429756740507e-16
  outer loop
    vertex 73.5 -2.3000000000000003 0.0032030000000003423
    vertex 73.46592582628908 -2.5588190451025206 0.6000000000000003
    vertex 73.46592582628908 -2.5588190451025206 0.0032030000000003423
  endloop
endfacet
facet normal 0.9914448613738132 -0.13052619222003073 -4.782429756740507e-16
  outer loop
    vertex 73.46592582628908 -2.5588190451025206 0.6000000000000003
    vertex 73.5 -2.3000000000000003 0.0032030000000003423
    vertex 73.5 -2.3000000000000003 0.6000000000000003
  endloop
endfacet
facet normal 0.9238795325112746 -0.38268343236511954 -5.569257408437524e-16
  outer loop
    vertex 73.46592582628908 -2.5588190451025206 0.0032030000000003423
    vertex 73.36602540378443 -2.7999999999999994 0.6000000000000003
    vertex 73.36602540378443 -2.7999999999999994 0.0032030000000003423
  endloop
endfacet
facet normal 0.9238795325112746 -0.38268343236511954 -5.569257408437524e-16
  outer loop
    vertex 73.36602540378443 -2.7999999999999994 0.6000000000000003
    vertex 73.46592582628908 -2.5588190451025206 0.0032030000000003423
    vertex 73.46592582628908 -2.5588190451025206 0.6000000000000003
  endloop
endfacet
facet normal 0.7933533402912474 -0.608761429008705 -5.976549371382318e-16
  outer loop
    vertex 73.36602540378443 -2.7999999999999994 0.0032030000000003423
    vertex 73.20710678118655 -3.0071067811865464 0.6000000000000003
    vertex 73.20710678118655 -3.0071067811865464 0.0032030000000003423
  endloop
endfacet
facet normal 0.7933533402912474 -0.608761429008705 -5.976549371382318e-16
  outer loop
    vertex 73.20710678118655 -3.0071067811865464 0.6000000000000003
    vertex 73.36602540378443 -2.7999999999999994 0.0032030000000003423
    vertex 73.36602540378443 -2.7999999999999994 0.6000000000000003
  endloop
endfacet
facet normal 0.6087614290087153 -0.7933533402912394 -5.976549371382329e-16
  outer loop
    vertex 73.20710678118655 -3.0071067811865464 0.6000000000000003
    vertex 73.0 -3.1660254037844373 0.0032030000000003423
    vertex 73.20710678118655 -3.0071067811865464 0.0032030000000003423
  endloop
endfacet
facet normal 0.6087614290087153 -0.7933533402912394 -5.976549371382329e-16
  outer loop
    vertex 73.0 -3.1660254037844373 0.0032030000000003423
    vertex 73.20710678118655 -3.0071067811865464 0.6000000000000003
    vertex 73.0 -3.1660254037844373 0.6000000000000003
  endloop
endfacet
facet normal 0.3826834323650917 -0.9238795325112861 -5.569257408437457e-16
  outer loop
    vertex 73.0 -3.1660254037844373 0.6000000000000003
    vertex 72.75881904510253 -3.2659258262890662 0.0032030000000003423
    vertex 73.0 -3.1660254037844373 0.0032030000000003423
  endloop
endfacet
facet normal 0.3826834323650917 -0.9238795325112861 -5.569257408437457e-16
  outer loop
    vertex 72.75881904510253 -3.2659258262890662 0.0032030000000003423
    vertex 73.0 -3.1660254037844373 0.6000000000000003
    vertex 72.75881904510253 -3.2659258262890662 0.6000000000000003
  endloop
endfacet
facet normal 0.13052619222005074 0.9914448613738105 -0.0
  outer loop
    vertex 72.5 13.299999999999999 0.5999999999999996
    vertex 72.75881904510253 13.265925826289067 0.00020532051282033252
    vertex 72.5 13.299999999999999 0.00020532051282033252
  endloop
endfacet
facet normal 0.13052619222005074 0.9914448613738105 -0.0
  outer loop
    vertex 72.75881904510253 13.265925826289067 0.00020532051282033252
    vertex 72.5 13.299999999999999 0.5999999999999996
    vertex 72.75881904510253 13.265925826289067 0.5999999999999996
  endloop
endfacet
facet normal 0.3826834323650951 0.9238795325112845 -4.005107149209831e-16
  outer loop
    vertex 72.75881904510253 13.265925826289067 0.5999999999999996
    vertex 73.0 13.166025403784436 0.00020532051282050876
    vertex 72.75881904510253 13.265925826289067 0.00020532051282033252
  endloop
endfacet
facet normal 0.3826834323650951 0.9238795325112845 -4.005107149209831e-16
  outer loop
    vertex 73.0 13.166025403784436 0.00020532051282050876
    vertex 72.75881904510253 13.265925826289067 0.5999999999999996
    vertex 73.0 13.166025403784436 0.5999999999999998
  endloop
endfacet
facet normal 0.6087614290087128 0.7933533402912413 -4.115630212992406e-16
  outer loop
    vertex 73.0 13.166025403784436 0.5999999999999998
    vertex 73.20710678118655 13.007106781186547 0.00020532051282050876
    vertex 73.0 13.166025403784436 0.00020532051282050876
  endloop
endfacet
facet normal 0.6087614290087128 0.7933533402912413 -4.115630212992406e-16
  outer loop
    vertex 73.20710678118655 13.007106781186547 0.00020532051282050876
    vertex 73.0 13.166025403784436 0.5999999999999998
    vertex 73.20710678118655 13.007106781186547 0.5999999999999998
  endloop
endfacet
facet normal 0.7933533402912477 0.6087614290087043 -3.945679879160036e-16
  outer loop
    vertex 73.20710678118655 13.007106781186547 0.00020532051282050876
    vertex 73.36602540378443 12.799999999999999 0.5999999999999998
    vertex 73.36602540378443 12.799999999999999 0.00020532051282050876
  endloop
endfacet
facet normal 0.7933533402912477 0.6087614290087043 -3.945679879160036e-16
  outer loop
    vertex 73.36602540378443 12.799999999999999 0.5999999999999998
    vertex 73.20710678118655 13.007106781186547 0.00020532051282050876
    vertex 73.20710678118655 13.007106781186547 0.5999999999999998
  endloop
endfacet
facet normal 0.9238795325112747 0.382683432365119 -3.506837982107328e-16
  outer loop
    vertex 73.36602540378443 12.799999999999999 0.00020532051282050876
    vertex 73.46592582628908 12.55881904510252 0.5999999999999998
    vertex 73.46592582628908 12.55881904510252 0.00020532051282050876
  endloop
endfacet
facet normal 0.9238795325112747 0.382683432365119 -3.506837982107328e-16
  outer loop
    vertex 73.46592582628908 12.55881904510252 0.5999999999999998
    vertex 73.36602540378443 12.799999999999999 0.00020532051282050876
    vertex 73.36602540378443 12.799999999999999 0.5999999999999998
  endloop
endfacet
facet normal 0.9914448613738134 0.13052619222003023 -2.829010871897563e-16
  outer loop
    vertex 73.46592582628908 12.55881904510252 0.00020532051282050876
    vertex 73.5 12.299999999999999 0.5999999999999998
    vertex 73.5 12.299999999999999 0.00020532051282050876
  endloop
endfacet
facet normal 0.9914448613738134 0.13052619222003023 -2.829010871897563e-16
  outer loop
    vertex 73.5 12.299999999999999 0.5999999999999998
    vertex 73.46592582628908 12.55881904510252 0.00020532051282050876
    vertex 73.46592582628908 12.55881904510252 0.5999999999999998
  endloop
endfacet
facet normal -0.13052619222005163 0.9914448613738104 9.56485951348115e-17
  outer loop
    vertex -2.7588190451025207 13.265925826289067 0.5999999999999998
    vertex -2.4999999999999996 13.299999999999999 2.7015856955400762e-06
    vertex -2.7588190451025207 13.265925826289067 2.7015856955400762e-06
  endloop
endfacet
facet normal -0.13052619222005163 0.9914448613738104 9.56485951348115e-17
  outer loop
    vertex -2.4999999999999996 13.299999999999999 2.7015856955400762e-06
    vertex -2.7588190451025207 13.265925826289067 0.5999999999999998
    vertex -2.4999999999999996 13.299999999999999 0.5999999999999998
  endloop
endfacet
facet normal -0.9914448613738104 0.13052619222005216 9.564859513481159e-17
  outer loop
    vertex -3.4659258262890673 12.558819045102519 0.5999999999999998
    vertex -3.499999999999999 12.299999999999999 2.7015856955400762e-06
    vertex -3.499999999999999 12.299999999999999 0.5999999999999998
  endloop
endfacet
facet normal -0.9914448613738104 0.13052619222005216 9.564859513481159e-17
  outer loop
    vertex -3.499999999999999 12.299999999999999 2.7015856955400762e-06
    vertex -3.4659258262890673 12.558819045102519 0.5999999999999998
    vertex -3.4659258262890673 12.558819045102519 2.7015856955400762e-06
  endloop
endfacet
facet normal -0.923879532511288 0.3826834323650871 1.1138514816874868e-16
  outer loop
    vertex -3.366025403784438 12.799999999999999 0.5999999999999998
    vertex -3.4659258262890673 12.558819045102519 2.7015856955400762e-06
    vertex -3.4659258262890673 12.558819045102519 0.5999999999999998
  endloop
endfacet
facet normal -0.923879532511288 0.3826834323650871 1.1138514816874868e-16
  outer loop
    vertex -3.4659258262890673 12.558819045102519 2.7015856955400762e-06
    vertex -3.366025403784438 12.799999999999999 0.5999999999999998
    vertex -3.366025403784438 12.799999999999999 2.7015856955400762e-06
  endloop
endfacet
facet normal -0.7933533402912347 0.6087614290087213 1.1953098742764645e-16
  outer loop
    vertex -3.207106781186547 13.007106781186547 0.5999999999999998
    vertex -3.366025403784438 12.799999999999999 2.7015856955400762e-06
    vertex -3.366025403784438 12.799999999999999 0.5999999999999998
  endloop
endfacet
facet normal -0.7933533402912347 0.6087614290087213 1.1953098742764645e-16
  outer loop
    vertex -3.366025403784438 12.799999999999999 2.7015856955400762e-06
    vertex -3.207106781186547 13.007106781186547 0.5999999999999998
    vertex -3.207106781186547 13.007106781186547 2.7015856955400762e-06
  endloop
endfacet
facet normal -0.6087614290087179 0.7933533402912372 1.1953098742764635e-16
  outer loop
    vertex -3.207106781186547 13.007106781186547 0.5999999999999998
    vertex -2.9999999999999996 13.166025403784436 2.7015856955400762e-06
    vertex -3.207106781186547 13.007106781186547 2.7015856955400762e-06
  endloop
endfacet
facet normal -0.6087614290087179 0.7933533402912372 1.1953098742764635e-16
  outer loop
    vertex -2.9999999999999996 13.166025403784436 2.7015856955400762e-06
    vertex -3.207106781186547 13.007106781186547 0.5999999999999998
    vertex -2.9999999999999996 13.166025403784436 0.5999999999999998
  endloop
endfacet
facet normal -0.3826834323650917 0.9238795325112859 1.1138514816874888e-16
  outer loop
    vertex -2.9999999999999996 13.166025403784436 0.5999999999999998
    vertex -2.7588190451025207 13.265925826289067 2.7015856955400762e-06
    vertex -2.9999999999999996 13.166025403784436 2.7015856955400762e-06
  endloop
endfacet
facet normal -0.3826834323650917 0.9238795325112859 1.1138514816874888e-16
  outer loop
    vertex -2.7588190451025207 13.265925826289067 2.7015856955400762e-06
    vertex -2.9999999999999996 13.166025403784436 0.5999999999999998
    vertex -2.7588190451025207 13.265925826289067 0.5999999999999998
  endloop
endfacet
facet normal -0.13052619222005143 -0.9914448613738105 -1.9129719026962286e-16
  outer loop
    vertex -2.4999999999999973 -3.3000000000000025 0.6000000000000005
    vertex -2.758819045102519 -3.2659258262890707 4.2144736842370656e-05
    vertex -2.4999999999999973 -3.3000000000000025 4.2144736842370656e-05
  endloop
endfacet
facet normal -0.13052619222005143 -0.9914448613738105 -1.9129719026962286e-16
  outer loop
    vertex -2.758819045102519 -3.2659258262890707 4.2144736842370656e-05
    vertex -2.4999999999999973 -3.3000000000000025 0.6000000000000005
    vertex -2.758819045102519 -3.2659258262890707 0.6000000000000005
  endloop
endfacet
facet normal -0.38268343236508806 -0.9238795325112875 -2.2277029633749716e-16
  outer loop
    vertex -2.758819045102519 -3.2659258262890707 0.6000000000000005
    vertex -2.9999999999999987 -3.1660254037844413 4.2144736842370656e-05
    vertex -2.758819045102519 -3.2659258262890707 4.2144736842370656e-05
  endloop
endfacet
facet normal -0.38268343236508806 -0.9238795325112875 -2.2277029633749716e-16
  outer loop
    vertex -2.9999999999999987 -3.1660254037844413 4.2144736842370656e-05
    vertex -2.758819045102519 -3.2659258262890707 0.6000000000000005
    vertex -2.9999999999999987 -3.1660254037844413 0.6000000000000005
  endloop
endfacet
facet normal -0.6087614290087195 -0.793353340291236 -2.390619748552925e-16
  outer loop
    vertex -2.9999999999999987 -3.1660254037844413 0.6000000000000005
    vertex -3.2071067811865475 -3.0071067811865495 4.2144736842370656e-05
    vertex -2.9999999999999987 -3.1660254037844413 4.2144736842370656e-05
  endloop
endfacet
facet normal -0.6087614290087195 -0.793353340291236 -2.390619748552925e-16
  outer loop
    vertex -3.2071067811865475 -3.0071067811865495 4.2144736842370656e-05
    vertex -2.9999999999999987 -3.1660254037844413 0.6000000000000005
    vertex -3.2071067811865475 -3.0071067811865495 0.6000000000000005
  endloop
endfacet
facet normal -0.793353340291235 -0.6087614290087207 -2.390619748552925e-16
  outer loop
    vertex -3.366025403784439 -2.800000000000002 0.6000000000000005
    vertex -3.2071067811865475 -3.0071067811865495 4.2144736842370656e-05
    vertex -3.2071067811865475 -3.0071067811865495 0.6000000000000005
  endloop
endfacet
facet normal -0.793353340291235 -0.6087614290087207 -2.390619748552925e-16
  outer loop
    vertex -3.2071067811865475 -3.0071067811865495 4.2144736842370656e-05
    vertex -3.366025403784439 -2.800000000000002 0.6000000000000005
    vertex -3.366025403784439 -2.800000000000002 4.2144736842370656e-05
  endloop
endfacet
facet normal -0.9238795325112863 -0.38268343236509084 -2.227702963374974e-16
  outer loop
    vertex -3.465925826289069 -2.5588190451025223 0.6000000000000005
    vertex -3.366025403784439 -2.800000000000002 4.2144736842370656e-05
    vertex -3.366025403784439 -2.800000000000002 0.6000000000000005
  endloop
endfacet
facet normal -0.9238795325112863 -0.38268343236509084 -2.227702963374974e-16
  outer loop
    vertex -3.366025403784439 -2.800000000000002 4.2144736842370656e-05
    vertex -3.465925826289069 -2.5588190451025223 0.6000000000000005
    vertex -3.465925826289069 -2.5588190451025223 4.2144736842370656e-05
  endloop
endfacet
facet normal -0.9914448613738105 -0.1305261922200509 -1.9129719026962263e-16
  outer loop
    vertex -3.5000000000000004 -2.3 0.6000000000000005
    vertex -3.465925826289069 -2.5588190451025223 4.2144736842370656e-05
    vertex -3.465925826289069 -2.5588190451025223 0.6000000000000005
  endloop
endfacet
facet normal -0.9914448613738105 -0.1305261922200509 -1.9129719026962263e-16
  outer loop
    vertex -3.465925826289069 -2.5588190451025223 4.2144736842370656e-05
    vertex -3.5000000000000004 -2.3 0.6000000000000005
    vertex -3.5000000000000004 -2.3 4.2144736842370656e-05
  endloop
endfacet
facet normal -1.0 4.224710345053309e-17 -2.9374650859874e-16
  outer loop
    vertex -3.499999999999999 12.299999999999999 0.5999999999999998
    vertex -3.5000000000000004 -2.3 4.2144736842370656e-05
    vertex -3.5000000000000004 -2.3 0.6000000000000005
  endloop
endfacet
facet normal -1.0 4.224710345053309e-17 -2.9374650859874e-16
  outer loop
    vertex -3.5000000000000004 -2.3 4.2144736842370656e-05
    vertex -3.499999999999999 12.299999999999999 0.5999999999999998
    vertex -3.499999999999999 12.299999999999999 2.7015856955400762e-06
  endloop
endfacet
facet normal -5.957964971634084e-17 1.9328712796290882e-17 1.0
  outer loop
    vertex 72.5 -3.299999999999998 0.6000000000000003
    vertex 61.99999999999998 -0.3999999999999997 0.5999999999999989
    vertex 61.99999999999998 -3.299999999999998 0.5999999999999989
  endloop
endfacet
facet normal -5.957964971634084e-17 1.9328712796290882e-17 1.0
  outer loop
    vertex 61.99999999999998 -0.3999999999999997 0.5999999999999989
    vertex 72.5 -3.299999999999998 0.6000000000000003
    vertex 70.6 -0.4000000000000001 0.6
  endloop
endfacet
facet normal -5.957964971634084e-17 1.9328712796290882e-17 1.0
  outer loop
    vertex 70.6 -0.4000000000000001 0.6
    vertex 72.5 -3.299999999999998 0.6000000000000003
    vertex 70.6 10.399999999999999 0.5999999999999994
  endloop
endfacet
facet normal -5.957964971634084e-17 1.9328712796290882e-17 1.0
  outer loop
    vertex 70.6 10.399999999999999 0.5999999999999994
    vertex 59.75 13.299999999999999 0.5999999999999998
    vertex 59.75 10.399999999999999 0.5999999999999994
  endloop
endfacet
facet normal -5.957964971634084e-17 1.9328712796290882e-17 1.0
  outer loop
    vertex 59.75 13.299999999999999 0.5999999999999998
    vertex 70.6 10.399999999999999 0.5999999999999994
    vertex 72.5 13.299999999999999 0.5999999999999996
  endloop
endfacet
facet normal -5.957964971634084e-17 1.9328712796290882e-17 1.0
  outer loop
    vertex 72.5 13.299999999999999 0.5999999999999996
    vertex 70.6 10.399999999999999 0.5999999999999994
    vertex 72.5 -3.299999999999998 0.6000000000000003
  endloop
endfacet
facet normal -5.957964971634084e-17 1.9328712796290882e-17 1.0
  outer loop
    vertex 72.5 13.299999999999999 0.5999999999999996
    vertex 72.5 -3.299999999999998 0.6000000000000003
    vertex 72.75881904510253 -3.2659258262890662 0.6000000000000003
  endloop
endfacet
facet normal -5.957964971634084e-17 1.9328712796290882e-17 1.0
  outer loop
    vertex 72.5 13.299999999999999 0.5999999999999996
    vertex 72.75881904510253 -3.2659258262890662 0.6000000000000003
    vertex 72.75881904510253 13.265925826289067 0.5999999999999996
  endloop
endfacet
facet normal -5.957964971634084e-17 1.9328712796290882e-17 1.0
  outer loop
    vertex 72.75881904510253 13.265925826289067 0.5999999999999996
    vertex 72.75881904510253 -3.2659258262890662 0.6000000000000003
    vertex 73.0 -3.1660254037844373 0.6000000000000003
  endloop
endfacet
facet normal -5.957964971634084e-17 1.9328712796290882e-17 1.0
  outer loop
    vertex 72.75881904510253 13.265925826289067 0.5999999999999996
    vertex 73.0 -3.1660254037844373 0.6000000000000003
    vertex 73.0 13.166025403784436 0.5999999999999998
  endloop
endfacet
facet normal -5.957964971634084e-17 1.9328712796290882e-17 1.0
  outer loop
    vertex 73.0 13.166025403784436 0.5999999999999998
    vertex 73.0 -3.1660254037844373 0.6000000000000003
    vertex 73.20710678118655 -3.0071067811865464 0.6000000000000003
  endloop
endfacet
facet normal -5.957964971634084e-17 1.9328712796290882e-17 1.0
  outer loop
    vertex 73.0 13.166025403784436 0.5999999999999998
    vertex 73.20710678118655 -3.0071067811865464 0.6000000000000003
    vertex 73.20710678118655 13.007106781186547 0.5999999999999998
  endloop
endfacet
facet normal -5.957964971634084e-17 1.9328712796290882e-17 1.0
  outer loop
    vertex 73.20710678118655 13.007106781186547 0.5999999999999998
    vertex 73.20710678118655 -3.0071067811865464 0.6000000000000003
    vertex 73.36602540378443 -2.7999999999999994 0.6000000000000003
  endloop
endfacet
facet normal -5.957964971634084e-17 1.9328712796290882e-17 1.0
  outer loop
    vertex 73.20710678118655 13.007106781186547 0.5999999999999998
    vertex 73.36602540378443 -2.7999999999999994 0.6000000000000003
    vertex 73.36602540378443 12.799999999999999 0.5999999999999998
  endloop
endfacet
facet normal -5.957964971634084e-17 1.9328712796290882e-17 1.0
  outer loop
    vertex 73.36602540378443 12.799999999999999 0.5999999999999998
    vertex 73.36602540378443 -2.7999999999999994 0.6000000000000003
    vertex 73.46592582628908 -2.5588190451025206 0.6000000000000003
  endloop
endfacet
facet normal -5.957964971634084e-17 1.9328712796290882e-17 1.0
  outer loop
    vertex 73.36602540378443 12.799999999999999 0.5999999999999998
    vertex 73.46592582628908 -2.5588190451025206 0.6000000000000003
    vertex 73.46592582628908 12.55881904510252 0.5999999999999998
  endloop
endfacet
facet normal -5.957964971634084e-17 1.9328712796290882e-17 1.0
  outer loop
    vertex 73.46592582628908 12.55881904510252 0.5999999999999998
    vertex 73.46592582628908 -2.5588190451025206 0.6000000000000003
    vertex 73.5 -2.3000000000000003 0.6000000000000003
  endloop
endfacet
facet normal -5.957964971634084e-17 1.9328712796290882e-17 1.0
  outer loop
    vertex 73.46592582628908 12.55881904510252 0.5999999999999998
    vertex 73.5 -2.3000000000000003 0.6000000000000003
    vertex 73.5 12.299999999999999 0.5999999999999998
  endloop
endfacet
facet normal 1.0 0.0 0.0
  outer loop
    vertex 48.5 13.299999999999999 0.00017155069163282306
    vertex 48.5 10.399999999999999 0.5999999999999994
    vertex 48.5 10.399999999999999 0.00017155069163247056
  endloop
endfacet
facet normal 1.0 0.0 0.0
  outer loop
    vertex 48.5 10.399999999999999 0.5999999999999994
    vertex 48.5 13.299999999999999 0.00017155069163282306
    vertex 48.5 13.299999999999999 0.5999999999999998
  endloop
endfacet
facet normal -1.0 0.0 0.0
  outer loop
    vertex 59.75 13.299999999999999 0.5999999999999998
    vertex 59.75 10.399999999999999 0.00017155069163247056
    vertex 59.75 10.399999999999999 0.5999999999999994
  endloop
endfacet
facet normal -1.0 0.0 0.0
  outer loop
    vertex 59.75 10.399999999999999 0.00017155069163247056
    vertex 59.75 13.299999999999999 0.5999999999999998
    vertex 59.75 13.299999999999999 0.00017155069163282306
  endloop
endfacet
facet normal -0.0 1.0 -0.0
  outer loop
    vertex -2.4999999999999996 13.299999999999999 0.5999999999999998
    vertex 48.5 13.299999999999999 0.00017155069163282306
    vertex -2.4999999999999996 13.299999999999999 2.7015856955400762e-06
  endloop
endfacet
facet normal -0.0 1.0 -0.0
  outer loop
    vertex 48.5 13.299999999999999 0.00017155069163282306
    vertex -2.4999999999999996 13.299999999999999 0.5999999999999998
    vertex 48.5 13.299999999999999 0.5999999999999998
  endloop
endfacet
facet normal -1.0 0.0 0.0
  outer loop
    vertex 61.99999999999998 -0.3999999999999997 0.5999999999999989
    vertex 61.99999999999998 -3.299999999999998 0.002760480263158226
    vertex 61.99999999999998 -3.299999999999998 0.5999999999999989
  endloop
endfacet
facet normal -1.0 0.0 0.0
  outer loop
    vertex 61.99999999999998 -3.299999999999998 0.002760480263158226
    vertex 61.99999999999998 -0.3999999999999997 0.5999999999999989
    vertex 61.99999999999998 -0.3999999999999997 0.002760480263158226
  endloop
endfacet
facet normal 1.0 -1.879977655031931e-15 -3.686661967365056e-31
  outer loop
    vertex 44.99999999999998 -0.3999999999999997 0.0027604802631584022
    vertex 44.99999999999997 -3.3000000000000003 0.5999999999999991
    vertex 44.99999999999997 -3.3000000000000003 0.0027604802631584022
  endloop
endfacet
facet normal 1.0 -1.879977655031931e-15 -3.686661967365056e-31
  outer loop
    vertex 44.99999999999997 -3.3000000000000003 0.5999999999999991
    vertex 44.99999999999998 -0.3999999999999997 0.0027604802631584022
    vertex 44.99999999999998 -0.3999999999999997 0.5999999999999991
  endloop
endfacet
facet normal 0.0 -1.0 0.0
  outer loop
    vertex 72.5 -3.299999999999998 0.0032030000000003423
    vertex 61.99999999999998 -3.299999999999998 0.5999999999999989
    vertex 61.99999999999998 -3.299999999999998 0.002760480263158226
  endloop
endfacet
facet normal 0.0 -1.0 0.0
  outer loop
    vertex 61.99999999999998 -3.299999999999998 0.5999999999999989
    vertex 72.5 -3.299999999999998 0.0032030000000003423
    vertex 72.5 -3.299999999999998 0.6000000000000003
  endloop
endfacet
endsolid n64sleeve
