solid v17_case
facet normal 1.8227745654040037e-18 -1.0 -1.9059413470125096e-17
  outer loop
    vertex 186.65694062133724 263.441209612301 33.81759402447639
    vertex 178.05694062133722 263.441209612301 20.82035450473955
    vertex 186.65694062133724 263.441209612301 20.82035450473955
  endloop
endfacet
facet normal 1.8227745654040037e-18 -1.0 -1.9059413470125096e-17
  outer loop
    vertex 178.05694062133722 263.441209612301 20.82035450473955
    vertex 186.65694062133724 263.441209612301 33.81759402447639
    vertex 161.0569406213372 263.441209612301 20.820354504739562
  endloop
endfacet
facet normal 1.8227745654040037e-18 -1.0 -1.9059413470125096e-17
  outer loop
    vertex 161.0569406213372 263.441209612301 20.820354504739562
    vertex 186.65694062133724 263.441209612301 33.81759402447639
    vertex 115.45694062133724 263.441209612301 20.820354504739562
  endloop
endfacet
facet normal 1.8227745654040037e-18 -1.0 -1.9059413470125096e-17
  outer loop
    vertex 115.45694062133724 263.441209612301 20.820354504739562
    vertex 186.65694062133724 263.441209612301 33.81759402447639
    vertex 115.45694062133724 263.441209612301 33.81759402447639
  endloop
endfacet
facet normal 1.8227745654040037e-18 -1.0 -1.9059413470125096e-17
  outer loop
    vertex 178.05694062133722 263.441209612301 20.82035450473955
    vertex 161.0569406213372 263.441209612301 18.82035450473955
    vertex 178.05694062133722 263.441209612301 18.82035450473955
  endloop
endfacet
facet normal 1.8227745654040037e-18 -1.0 -1.9059413470125096e-17
  outer loop
    vertex 161.0569406213372 263.441209612301 18.82035450473955
    vertex 178.05694062133722 263.441209612301 20.82035450473955
    vertex 161.0569406213372 263.441209612301 20.820354504739562
  endloop
endfacet
facet normal -2.847291483191946e-05 -0.00021088204109979473 -0.9999999773590288
  outer loop
    vertex 188.55694062133722 277.141209612301 18.81779934498921
    vertex 189.53060858198768 264.6585545994818 18.820456463849478
    vertex 188.55694057005746 263.6842891619488 18.820513230954138
  endloop
endfacet
facet normal -2.847291483191946e-05 -0.00021088204109979473 -0.9999999773590288
  outer loop
    vertex 189.53060858198768 264.6585545994818 18.820456463849478
    vertex 188.55694062133722 277.141209612301 18.81779934498921
    vertex 188.81575966643976 277.1071354385901 18.81779934498921
  endloop
endfacet
facet normal -2.847291483191946e-05 -0.00021088204109979473 -0.9999999773590288
  outer loop
    vertex 189.53060858198768 264.6585545994818 18.820456463849478
    vertex 188.81575966643976 277.1071354385901 18.81779934498921
    vertex 189.05694062133725 277.0072350160854 18.81779934498921
  endloop
endfacet
facet normal -2.847291483191946e-05 -0.00021088204109979473 -0.9999999773590288
  outer loop
    vertex 189.53060858198768 264.6585545994818 18.820456463849478
    vertex 189.05694062133725 277.0072350160854 18.81779934498921
    vertex 189.2640474025238 276.84831639348755 18.81779934498921
  endloop
endfacet
facet normal -2.847291483191946e-05 -0.00021088204109979473 -0.9999999773590288
  outer loop
    vertex 189.53060858198768 264.6585545994818 18.820456463849478
    vertex 189.2640474025238 276.84831639348755 18.81779934498921
    vertex 189.42296602512167 276.641209612301 18.81779934498921
  endloop
endfacet
facet normal -2.847291483191946e-05 -0.00021088204109979473 -0.9999999773590288
  outer loop
    vertex 189.53060858198768 264.6585545994818 18.820456463849478
    vertex 189.42296602512167 276.641209612301 18.81779934498921
    vertex 189.5228664476263 276.40002865740354 18.81779934498921
  endloop
endfacet
facet normal -0.0017275842385346045 -0.00022744077979557588 -0.9999984818605429
  outer loop
    vertex 189.55694062133722 276.141209612301 18.81779934498921
    vertex 189.53060858198768 264.6585545994818 18.820456463849478
    vertex 189.5228664476263 276.40002865740354 18.81779934498921
  endloop
endfacet
facet normal 0.0 1.0 0.0
  outer loop
    vertex 115.45694062133724 274.24120961230096 33.81759402447639
    vertex 164.55694062133725 274.24120961230096 20.820354504739562
    vertex 115.45694062133724 274.24120961230096 20.820354504739562
  endloop
endfacet
facet normal 0.0 1.0 0.0
  outer loop
    vertex 164.55694062133725 274.24120961230096 20.820354504739562
    vertex 175.80694062133722 274.24120961230096 18.81776557516803
    vertex 164.55694062133725 274.24120961230096 18.81776557516803
  endloop
endfacet
facet normal 0.0 1.0 0.0
  outer loop
    vertex 175.80694062133722 274.24120961230096 18.81776557516803
    vertex 164.55694062133725 274.24120961230096 20.820354504739562
    vertex 175.80694062133722 274.24120961230096 20.82035450473955
  endloop
endfacet
facet normal 0.0 1.0 0.0
  outer loop
    vertex 175.80694062133722 274.24120961230096 20.82035450473955
    vertex 164.55694062133725 274.24120961230096 20.820354504739562
    vertex 186.65694062133724 274.24120961230096 20.82035450473955
  endloop
endfacet
facet normal 0.0 1.0 0.0
  outer loop
    vertex 186.65694062133724 274.24120961230096 20.82035450473955
    vertex 164.55694062133725 274.24120961230096 20.820354504739562
    vertex 186.65694062133724 274.24120961230096 33.81759402447639
  endloop
endfacet
facet normal 0.0 1.0 0.0
  outer loop
    vertex 186.65694062133724 274.24120961230096 33.81759402447639
    vertex 164.55694062133725 274.24120961230096 20.820354504739562
    vertex 115.45694062133724 274.24120961230096 33.81759402447639
  endloop
endfacet
facet normal 0.0 0.0 1.0
  outer loop
    vertex 115.45694062133724 263.441209612301 33.81759402447639
    vertex 115.95694062133724 263.941209612301 33.81759402447639
    vertex 115.45694062133724 274.24120961230096 33.81759402447639
  endloop
endfacet
facet normal 0.0 0.0 1.0
  outer loop
    vertex 115.95694062133724 263.941209612301 33.81759402447639
    vertex 115.45694062133724 263.441209612301 33.81759402447639
    vertex 186.65694062133724 263.441209612301 33.81759402447639
  endloop
endfacet
facet normal 0.0 0.0 1.0
  outer loop
    vertex 115.95694062133724 263.941209612301 33.81759402447639
    vertex 186.65694062133724 263.441209612301 33.81759402447639
    vertex 186.1569406213372 263.941209612301 33.81759402447639
  endloop
endfacet
facet normal 0.0 0.0 1.0
  outer loop
    vertex 186.1569406213372 263.941209612301 33.81759402447639
    vertex 186.65694062133724 263.441209612301 33.81759402447639
    vertex 186.1569406213372 273.741209612301 33.81759402447639
  endloop
endfacet
facet normal 0.0 0.0 1.0
  outer loop
    vertex 115.45694062133724 274.24120961230096 33.81759402447639
    vertex 115.95694062133724 273.741209612301 33.81759402447639
    vertex 186.65694062133724 274.24120961230096 33.81759402447639
  endloop
endfacet
facet normal 0.0 0.0 1.0
  outer loop
    vertex 115.95694062133724 273.741209612301 33.81759402447639
    vertex 115.45694062133724 274.24120961230096 33.81759402447639
    vertex 115.95694062133724 263.941209612301 33.81759402447639
  endloop
endfacet
facet normal 0.0 0.0 1.0
  outer loop
    vertex 186.65694062133724 274.24120961230096 33.81759402447639
    vertex 115.95694062133724 273.741209612301 33.81759402447639
    vertex 186.1569406213372 273.741209612301 33.81759402447639
  endloop
endfacet
facet normal 0.0 0.0 1.0
  outer loop
    vertex 186.65694062133724 274.24120961230096 33.81759402447639
    vertex 186.1569406213372 273.741209612301 33.81759402447639
    vertex 186.65694062133724 263.441209612301 33.81759402447639
  endloop
endfacet
facet normal 1.0 0.0 0.0
  outer loop
    vertex 186.65694062133724 274.24120961230096 20.82035450473955
    vertex 186.65694062133724 263.441209612301 33.81759402447639
    vertex 186.65694062133724 263.441209612301 20.82035450473955
  endloop
endfacet
facet normal 1.0 0.0 0.0
  outer loop
    vertex 186.65694062133724 263.441209612301 33.81759402447639
    vertex 186.65694062133724 274.24120961230096 20.82035450473955
    vertex 186.65694062133724 274.24120961230096 33.81759402447639
  endloop
endfacet
facet normal -1.0 2.855868833598855e-17 -9.179578393710603e-18
  outer loop
    vertex 115.45694062133724 274.24120961230096 33.81759402447639
    vertex 115.45694062133724 263.441209612301 20.820354504739562
    vertex 115.45694062133724 263.441209612301 33.81759402447639
  endloop
endfacet
facet normal -1.0 2.855868833598855e-17 -9.179578393710603e-18
  outer loop
    vertex 115.45694062133724 263.441209612301 20.820354504739562
    vertex 115.45694062133724 274.24120961230096 33.81759402447639
    vertex 115.45694062133724 274.24120961230096 20.820354504739562
  endloop
endfacet
facet normal 0.0 -1.0 0.0
  outer loop
    vertex 186.1569406213372 273.741209612301 33.81759402447639
    vertex 115.95694062133724 273.741209612301 18.817594024476392
    vertex 186.1569406213372 273.741209612301 18.817594024476392
  endloop
endfacet
facet normal 0.0 -1.0 0.0
  outer loop
    vertex 115.95694062133724 273.741209612301 18.817594024476392
    vertex 186.1569406213372 273.741209612301 33.81759402447639
    vertex 115.95694062133724 273.741209612301 33.81759402447639
  endloop
endfacet
facet normal 1.0 0.0 0.0
  outer loop
    vertex 115.95694062133724 273.741209612301 18.817594024476392
    vertex 115.95694062133724 263.941209612301 33.81759402447639
    vertex 115.95694062133724 263.941209612301 18.817594024476392
  endloop
endfacet
facet normal 1.0 0.0 0.0
  outer loop
    vertex 115.95694062133724 263.941209612301 33.81759402447639
    vertex 115.95694062133724 273.741209612301 18.817594024476392
    vertex 115.95694062133724 273.741209612301 33.81759402447639
  endloop
endfacet
facet normal -1.0 0.0 0.0
  outer loop
    vertex 186.1569406213372 273.741209612301 33.81759402447639
    vertex 186.1569406213372 263.941209612301 18.817594024476392
    vertex 186.1569406213372 263.941209612301 33.81759402447639
  endloop
endfacet
facet normal -1.0 0.0 0.0
  outer loop
    vertex 186.1569406213372 263.941209612301 18.817594024476392
    vertex 186.1569406213372 273.741209612301 33.81759402447639
    vertex 186.1569406213372 273.741209612301 18.817594024476392
  endloop
endfacet
facet normal 0.0 1.0 0.0
  outer loop
    vertex 115.95694062133724 263.941209612301 33.81759402447639
    vertex 186.1569406213372 263.941209612301 18.817594024476392
    vertex 115.95694062133724 263.941209612301 18.817594024476392
  endloop
endfacet
facet normal 0.0 1.0 0.0
  outer loop
    vertex 186.1569406213372 263.941209612301 18.817594024476392
    vertex 115.95694062133724 263.941209612301 33.81759402447639
    vertex 186.1569406213372 263.941209612301 33.81759402447639
  endloop
endfacet
facet normal 0.0 1.0 0.0
  outer loop
    vertex 175.80694062133722 277.141209612301 20.82035450473955
    vertex 188.55694062133722 277.141209612301 18.81779934498921
    vertex 175.80694062133722 277.141209612301 18.81776557516803
  endloop
endfacet
facet normal 0.0 1.0 0.0
  outer loop
    vertex 188.55694062133722 277.141209612301 18.81779934498921
    vertex 175.80694062133722 277.141209612301 20.82035450473955
    vertex 188.55694062133722 277.141209612301 20.82035450473955
  endloop
endfacet
facet normal 4.452578656654578e-17 -1.0 -1.3169015991744986e-31
  outer loop
    vertex 161.0569406213372 260.541209612301 18.82035450473955
    vertex 113.55694062133725 260.541209612301 20.820354504739562
    vertex 113.55694062133725 260.541209612301 18.817636169213237
  endloop
endfacet
facet normal 4.452578656654578e-17 -1.0 -1.3169015991744986e-31
  outer loop
    vertex 113.55694062133725 260.541209612301 20.820354504739562
    vertex 161.0569406213372 260.541209612301 18.82035450473955
    vertex 161.0569406213372 260.541209612301 20.820354504739562
  endloop
endfacet
facet normal 1.0 0.0 0.0
  outer loop
    vertex 189.55694062133722 276.141209612301 18.81779934498921
    vertex 189.55694062133722 264.68490293447474 20.82035450473955
    vertex 189.55694062133722 264.68490293447474 18.820797024476395
  endloop
endfacet
facet normal 1.0 0.0 0.0
  outer loop
    vertex 189.55694062133722 264.68490293447474 20.82035450473955
    vertex 189.55694062133722 276.141209612301 18.81779934498921
    vertex 189.55694062133722 276.141209612301 20.82035450473955
  endloop
endfacet
facet normal 1.4682995369204338e-17 3.5319613235752745e-17 1.0
  outer loop
    vertex 112.59101479504817 261.2823905671985 20.820354504739562
    vertex 112.55694062133725 276.141209612301 20.820354504739562
    vertex 112.55694062133725 261.541209612301 20.820354504739562
  endloop
endfacet
facet normal 1.4682995369204338e-17 3.5319613235752745e-17 1.0
  outer loop
    vertex 112.55694062133725 276.141209612301 20.820354504739562
    vertex 112.59101479504817 261.2823905671985 20.820354504739562
    vertex 112.59101479504818 276.40002865740354 20.820354504739562
  endloop
endfacet
facet normal 1.4682995369204338e-17 3.5319613235752745e-17 1.0
  outer loop
    vertex 112.59101479504818 276.40002865740354 20.820354504739562
    vertex 112.59101479504817 261.2823905671985 20.820354504739562
    vertex 112.69091521755281 261.04120961230103 20.820354504739562
  endloop
endfacet
facet normal 1.4682995369204338e-17 3.5319613235752745e-17 1.0
  outer loop
    vertex 112.59101479504818 276.40002865740354 20.820354504739562
    vertex 112.69091521755281 261.04120961230103 20.820354504739562
    vertex 112.69091521755281 276.641209612301 20.820354504739562
  endloop
endfacet
facet normal 1.4682995369204338e-17 3.5319613235752745e-17 1.0
  outer loop
    vertex 112.69091521755281 276.641209612301 20.820354504739562
    vertex 112.69091521755281 261.04120961230103 20.820354504739562
    vertex 112.8498338401507 260.8341028311144 20.820354504739562
  endloop
endfacet
facet normal 1.4682995369204338e-17 3.5319613235752745e-17 1.0
  outer loop
    vertex 112.69091521755281 276.641209612301 20.820354504739562
    vertex 112.8498338401507 260.8341028311144 20.820354504739562
    vertex 112.8498338401507 276.84831639348755 20.820354504739562
  endloop
endfacet
facet normal 1.4682995369204338e-17 3.5319613235752745e-17 1.0
  outer loop
    vertex 112.8498338401507 276.84831639348755 20.820354504739562
    vertex 112.8498338401507 260.8341028311144 20.820354504739562
    vertex 113.05694062133725 260.67518420851655 20.820354504739562
  endloop
endfacet
facet normal 1.4682995369204338e-17 3.5319613235752745e-17 1.0
  outer loop
    vertex 112.8498338401507 276.84831639348755 20.820354504739562
    vertex 113.05694062133725 260.67518420851655 20.820354504739562
    vertex 113.05694062133725 277.0072350160854 20.820354504739562
  endloop
endfacet
facet normal 1.4682995369204338e-17 3.5319613235752745e-17 1.0
  outer loop
    vertex 113.05694062133725 277.0072350160854 20.820354504739562
    vertex 113.05694062133725 260.67518420851655 20.820354504739562
    vertex 113.2981215762347 260.57528378601194 20.820354504739562
  endloop
endfacet
facet normal 1.4682995369204338e-17 3.5319613235752745e-17 1.0
  outer loop
    vertex 113.05694062133725 277.0072350160854 20.820354504739562
    vertex 113.2981215762347 260.57528378601194 20.820354504739562
    vertex 113.2981215762347 277.1071354385901 20.820354504739562
  endloop
endfacet
facet normal 1.4682995369204338e-17 3.5319613235752745e-17 1.0
  outer loop
    vertex 113.2981215762347 277.1071354385901 20.820354504739562
    vertex 113.2981215762347 260.57528378601194 20.820354504739562
    vertex 113.55694062133725 260.541209612301 20.820354504739562
  endloop
endfacet
facet normal 1.4682995369204338e-17 3.5319613235752745e-17 1.0
  outer loop
    vertex 113.2981215762347 277.1071354385901 20.820354504739562
    vertex 113.55694062133725 260.541209612301 20.820354504739562
    vertex 113.55694062133725 277.141209612301 20.820354504739562
  endloop
endfacet
facet normal 1.4682995369204338e-17 3.5319613235752745e-17 1.0
  outer loop
    vertex 113.55694062133725 277.141209612301 20.820354504739562
    vertex 113.55694062133725 260.541209612301 20.820354504739562
    vertex 115.45694062133724 263.441209612301 20.820354504739562
  endloop
endfacet
facet normal 1.4682995369204338e-17 3.5319613235752745e-17 1.0
  outer loop
    vertex 115.45694062133724 263.441209612301 20.820354504739562
    vertex 113.55694062133725 260.541209612301 20.820354504739562
    vertex 161.0569406213372 260.541209612301 20.820354504739562
  endloop
endfacet
facet normal 1.4682995369204338e-17 3.5319613235752745e-17 1.0
  outer loop
    vertex 115.45694062133724 263.441209612301 20.820354504739562
    vertex 161.0569406213372 260.541209612301 20.820354504739562
    vertex 161.0569406213372 263.441209612301 20.820354504739562
  endloop
endfacet
facet normal 1.4682995369204338e-17 3.5319613235752745e-17 1.0
  outer loop
    vertex 113.55694062133725 277.141209612301 20.820354504739562
    vertex 115.45694062133724 274.24120961230096 20.820354504739562
    vertex 164.55694062133725 277.141209612301 20.820354504739562
  endloop
endfacet
facet normal 1.4682995369204338e-17 3.5319613235752745e-17 1.0
  outer loop
    vertex 115.45694062133724 274.24120961230096 20.820354504739562
    vertex 113.55694062133725 277.141209612301 20.820354504739562
    vertex 115.45694062133724 263.441209612301 20.820354504739562
  endloop
endfacet
facet normal 1.4682995369204338e-17 3.5319613235752745e-17 1.0
  outer loop
    vertex 164.55694062133725 277.141209612301 20.820354504739562
    vertex 115.45694062133724 274.24120961230096 20.820354504739562
    vertex 164.55694062133725 274.24120961230096 20.820354504739562
  endloop
endfacet
facet normal 0.1305261922200452 0.9914448613738114 0.0
  outer loop
    vertex 188.55694062133722 277.141209612301 20.82035450473955
    vertex 188.81575966643976 277.1071354385901 18.81779934498921
    vertex 188.55694062133722 277.141209612301 18.81779934498921
  endloop
endfacet
facet normal 0.1305261922200452 0.9914448613738114 0.0
  outer loop
    vertex 188.81575966643976 277.1071354385901 18.81779934498921
    vertex 188.55694062133722 277.141209612301 20.82035450473955
    vertex 188.81575966643976 277.1071354385901 20.82035450473955
  endloop
endfacet
facet normal 0.38268343236511043 0.9238795325112782 1.1283810745868987e-18
  outer loop
    vertex 188.81575966643976 277.1071354385901 20.82035450473955
    vertex 189.05694062133725 277.0072350160854 18.81779934498921
    vertex 188.81575966643976 277.1071354385901 18.81779934498921
  endloop
endfacet
facet normal 0.38268343236511043 0.9238795325112782 1.1283810745868987e-18
  outer loop
    vertex 189.05694062133725 277.0072350160854 18.81779934498921
    vertex 188.81575966643976 277.1071354385901 20.82035450473955
    vertex 189.05694062133725 277.0072350160854 20.82035450473955
  endloop
endfacet
facet normal 0.6087614290086918 0.7933533402912574 0.0
  outer loop
    vertex 189.05694062133725 277.0072350160854 20.82035450473955
    vertex 189.2640474025238 276.84831639348755 18.81779934498921
    vertex 189.05694062133725 277.0072350160854 18.81779934498921
  endloop
endfacet
facet normal 0.6087614290086918 0.7933533402912574 0.0
  outer loop
    vertex 189.2640474025238 276.84831639348755 18.81779934498921
    vertex 189.05694062133725 277.0072350160854 20.82035450473955
    vertex 189.2640474025238 276.84831639348755 20.82035450473955
  endloop
endfacet
facet normal 0.7933533402912687 0.6087614290086771 0.0
  outer loop
    vertex 189.2640474025238 276.84831639348755 18.81779934498921
    vertex 189.42296602512167 276.641209612301 20.82035450473955
    vertex 189.42296602512167 276.641209612301 18.81779934498921
  endloop
endfacet
facet normal 0.7933533402912687 0.6087614290086771 0.0
  outer loop
    vertex 189.42296602512167 276.641209612301 20.82035450473955
    vertex 189.2640474025238 276.84831639348755 18.81779934498921
    vertex 189.2640474025238 276.84831639348755 20.82035450473955
  endloop
endfacet
facet normal 0.9238795325112594 0.38268343236515584 0.0
  outer loop
    vertex 189.42296602512167 276.641209612301 18.81779934498921
    vertex 189.5228664476263 276.40002865740354 20.82035450473955
    vertex 189.5228664476263 276.40002865740354 18.81779934498921
  endloop
endfacet
facet normal 0.9238795325112594 0.38268343236515584 0.0
  outer loop
    vertex 189.5228664476263 276.40002865740354 20.82035450473955
    vertex 189.42296602512167 276.641209612301 18.81779934498921
    vertex 189.42296602512167 276.641209612301 20.82035450473955
  endloop
endfacet
facet normal 0.9914448613738188 0.13052619221998776 0.0
  outer loop
    vertex 189.5228664476263 276.40002865740354 18.81779934498921
    vertex 189.55694062133722 276.141209612301 20.82035450473955
    vertex 189.55694062133722 276.141209612301 18.81779934498921
  endloop
endfacet
facet normal 0.9914448613738188 0.13052619221998776 0.0
  outer loop
    vertex 189.55694062133722 276.141209612301 20.82035450473955
    vertex 189.5228664476263 276.40002865740354 18.81779934498921
    vertex 189.5228664476263 276.40002865740354 20.82035450473955
  endloop
endfacet
facet normal -0.13052619222005143 0.9914448613738105 0.0
  outer loop
    vertex 113.2981215762347 277.1071354385901 20.820354504739562
    vertex 113.55694062133725 277.141209612301 18.81759672606209
    vertex 113.2981215762347 277.1071354385901 18.81759672606209
  endloop
endfacet
facet normal -0.13052619222005143 0.9914448613738105 0.0
  outer loop
    vertex 113.55694062133725 277.141209612301 18.81759672606209
    vertex 113.2981215762347 277.1071354385901 20.820354504739562
    vertex 113.55694062133725 277.141209612301 20.820354504739562
  endloop
endfacet
facet normal -0.9914448613738105 0.13052619222005213 0.0
  outer loop
    vertex 112.59101479504818 276.40002865740354 20.820354504739562
    vertex 112.55694062133725 276.141209612301 18.81759672606209
    vertex 112.55694062133725 276.141209612301 20.820354504739562
  endloop
endfacet
facet normal -0.9914448613738105 0.13052619222005213 0.0
  outer loop
    vertex 112.55694062133725 276.141209612301 18.81759672606209
    vertex 112.59101479504818 276.40002865740354 20.820354504739562
    vertex 112.59101479504818 276.40002865740354 18.81759672606209
  endloop
endfacet
facet normal -0.9238795325112881 0.3826834323650872 0.0
  outer loop
    vertex 112.69091521755281 276.641209612301 20.820354504739562
    vertex 112.59101479504818 276.40002865740354 18.81759672606209
    vertex 112.59101479504818 276.40002865740354 20.820354504739562
  endloop
endfacet
facet normal -0.9238795325112881 0.3826834323650872 0.0
  outer loop
    vertex 112.59101479504818 276.40002865740354 18.81759672606209
    vertex 112.69091521755281 276.641209612301 20.820354504739562
    vertex 112.69091521755281 276.641209612301 18.81759672606209
  endloop
endfacet
facet normal -0.793353340291236 0.6087614290087195 0.0
  outer loop
    vertex 112.8498338401507 276.84831639348755 20.820354504739562
    vertex 112.69091521755281 276.641209612301 18.81759672606209
    vertex 112.69091521755281 276.641209612301 20.820354504739562
  endloop
endfacet
facet normal -0.793353340291236 0.6087614290087195 0.0
  outer loop
    vertex 112.69091521755281 276.641209612301 18.81759672606209
    vertex 112.8498338401507 276.84831639348755 20.820354504739562
    vertex 112.8498338401507 276.84831639348755 18.81759672606209
  endloop
endfacet
facet normal -0.608761429008718 0.7933533402912372 0.0
  outer loop
    vertex 112.8498338401507 276.84831639348755 20.820354504739562
    vertex 113.05694062133725 277.0072350160854 18.81759672606209
    vertex 112.8498338401507 276.84831639348755 18.81759672606209
  endloop
endfacet
facet normal -0.608761429008718 0.7933533402912372 0.0
  outer loop
    vertex 113.05694062133725 277.0072350160854 18.81759672606209
    vertex 112.8498338401507 276.84831639348755 20.820354504739562
    vertex 113.05694062133725 277.0072350160854 20.820354504739562
  endloop
endfacet
facet normal -0.3826834323650917 0.923879532511286 0.0
  outer loop
    vertex 113.05694062133725 277.0072350160854 20.820354504739562
    vertex 113.2981215762347 277.1071354385901 18.81759672606209
    vertex 113.05694062133725 277.0072350160854 18.81759672606209
  endloop
endfacet
facet normal -0.3826834323650917 0.923879532511286 0.0
  outer loop
    vertex 113.2981215762347 277.1071354385901 18.81759672606209
    vertex 113.05694062133725 277.0072350160854 20.820354504739562
    vertex 113.2981215762347 277.1071354385901 20.820354504739562
  endloop
endfacet
facet normal -0.13052619222005127 -0.9914448613738105 0.0
  outer loop
    vertex 113.55694062133725 260.541209612301 20.820354504739562
    vertex 113.2981215762347 260.57528378601194 18.817636169213237
    vertex 113.55694062133725 260.541209612301 18.817636169213237
  endloop
endfacet
facet normal -0.13052619222005127 -0.9914448613738105 0.0
  outer loop
    vertex 113.2981215762347 260.57528378601194 18.817636169213237
    vertex 113.55694062133725 260.541209612301 20.820354504739562
    vertex 113.2981215762347 260.57528378601194 20.820354504739562
  endloop
endfacet
facet normal -0.3826834323650897 -0.9238795325112867 0.0
  outer loop
    vertex 113.2981215762347 260.57528378601194 20.820354504739562
    vertex 113.05694062133725 260.67518420851655 18.817636169213237
    vertex 113.2981215762347 260.57528378601194 18.817636169213237
  endloop
endfacet
facet normal -0.3826834323650897 -0.9238795325112867 0.0
  outer loop
    vertex 113.05694062133725 260.67518420851655 18.817636169213237
    vertex 113.2981215762347 260.57528378601194 20.820354504739562
    vertex 113.05694062133725 260.67518420851655 20.820354504739562
  endloop
endfacet
facet normal -0.608761429008719 -0.7933533402912365 0.0
  outer loop
    vertex 113.05694062133725 260.67518420851655 20.820354504739562
    vertex 112.8498338401507 260.8341028311144 18.817636169213237
    vertex 113.05694062133725 260.67518420851655 18.817636169213237
  endloop
endfacet
facet normal -0.608761429008719 -0.7933533402912365 0.0
  outer loop
    vertex 112.8498338401507 260.8341028311144 18.817636169213237
    vertex 113.05694062133725 260.67518420851655 20.820354504739562
    vertex 112.8498338401507 260.8341028311144 20.820354504739562
  endloop
endfacet
facet normal -0.7933533402912347 -0.6087614290087213 0.0
  outer loop
    vertex 112.69091521755281 261.04120961230103 20.820354504739562
    vertex 112.8498338401507 260.8341028311144 18.817636169213237
    vertex 112.8498338401507 260.8341028311144 20.820354504739562
  endloop
endfacet
facet normal -0.7933533402912347 -0.6087614290087213 0.0
  outer loop
    vertex 112.8498338401507 260.8341028311144 18.817636169213237
    vertex 112.69091521755281 261.04120961230103 20.820354504739562
    vertex 112.69091521755281 261.04120961230103 18.817636169213237
  endloop
endfacet
facet normal -0.9238795325112865 -0.38268343236509034 0.0
  outer loop
    vertex 112.59101479504817 261.2823905671985 20.820354504739562
    vertex 112.69091521755281 261.04120961230103 18.817636169213237
    vertex 112.69091521755281 261.04120961230103 20.820354504739562
  endloop
endfacet
facet normal -0.9238795325112865 -0.38268343236509034 0.0
  outer loop
    vertex 112.69091521755281 261.04120961230103 18.817636169213237
    vertex 112.59101479504817 261.2823905671985 20.820354504739562
    vertex 112.59101479504817 261.2823905671985 18.817636169213237
  endloop
endfacet
facet normal -0.9914448613738109 -0.1305261922200483 3.0104041966195363e-18
  outer loop
    vertex 112.55694062133725 261.541209612301 20.820354504739562
    vertex 112.59101479504817 261.2823905671985 18.817636169213237
    vertex 112.59101479504817 261.2823905671985 20.820354504739562
  endloop
endfacet
facet normal -0.9914448613738109 -0.1305261922200483 3.0104041966195363e-18
  outer loop
    vertex 112.59101479504817 261.2823905671985 18.817636169213237
    vertex 112.55694062133725 261.541209612301 20.820354504739562
    vertex 112.55694062133725 261.541209612301 18.817636169213237
  endloop
endfacet
facet normal -1.0 9.65741946078047e-17 8.289398416091557e-33
  outer loop
    vertex 112.55694062133725 276.141209612301 20.820354504739562
    vertex 112.55694062133725 261.541209612301 18.817636169213237
    vertex 112.55694062133725 261.541209612301 20.820354504739562
  endloop
endfacet
facet normal -1.0 9.65741946078047e-17 8.289398416091557e-33
  outer loop
    vertex 112.55694062133725 261.541209612301 18.817636169213237
    vertex 112.55694062133725 276.141209612301 20.820354504739562
    vertex 112.55694062133725 276.141209612301 18.81759672606209
  endloop
endfacet
facet normal 1.0 0.0 0.0
  outer loop
    vertex 164.55694062133725 277.141209612301 18.81776557516803
    vertex 164.55694062133725 274.24120961230096 20.820354504739562
    vertex 164.55694062133725 274.24120961230096 18.81776557516803
  endloop
endfacet
facet normal 1.0 0.0 0.0
  outer loop
    vertex 164.55694062133725 274.24120961230096 20.820354504739562
    vertex 164.55694062133725 277.141209612301 18.81776557516803
    vertex 164.55694062133725 277.141209612301 20.820354504739562
  endloop
endfacet
facet normal -1.0 0.0 0.0
  outer loop
    vertex 175.80694062133722 277.141209612301 20.82035450473955
    vertex 175.80694062133722 274.24120961230096 18.81776557516803
    vertex 175.80694062133722 274.24120961230096 20.82035450473955
  endloop
endfacet
facet normal -1.0 0.0 0.0
  outer loop
    vertex 175.80694062133722 274.24120961230096 18.81776557516803
    vertex 175.80694062133722 277.141209612301 20.82035450473955
    vertex 175.80694062133722 277.141209612301 18.81776557516803
  endloop
endfacet
facet normal 0.0 1.0 0.0
  outer loop
    vertex 113.55694062133725 277.141209612301 20.820354504739562
    vertex 164.55694062133725 277.141209612301 18.81776557516803
    vertex 113.55694062133725 277.141209612301 18.81759672606209
  endloop
endfacet
facet normal 0.0 1.0 0.0
  outer loop
    vertex 164.55694062133725 277.141209612301 18.81776557516803
    vertex 113.55694062133725 277.141209612301 20.820354504739562
    vertex 164.55694062133725 277.141209612301 20.820354504739562
  endloop
endfacet
facet normal -1.0 0.0 0.0
  outer loop
    vertex 178.05694062133722 263.441209612301 20.82035450473955
    vertex 178.05694062133722 260.541209612301 18.82035450473955
    vertex 178.05694062133722 260.541209612301 20.82035450473955
  endloop
endfacet
facet normal -1.0 0.0 0.0
  outer loop
    vertex 178.05694062133722 260.541209612301 18.82035450473955
    vertex 178.05694062133722 263.441209612301 20.82035450473955
    vertex 178.05694062133722 263.441209612301 18.82035450473955
  endloop
endfacet
facet normal 1.0 -1.9448044707226873e-15 0.0
  outer loop
    vertex 161.0569406213372 263.441209612301 18.82035450473955
    vertex 161.0569406213372 260.541209612301 20.820354504739562
    vertex 161.0569406213372 260.541209612301 18.82035450473955
  endloop
endfacet
facet normal 1.0 -1.9448044707226873e-15 0.0
  outer loop
    vertex 161.0569406213372 260.541209612301 20.820354504739562
    vertex 161.0569406213372 263.441209612301 18.82035450473955
    vertex 161.0569406213372 263.441209612301 20.820354504739562
  endloop
endfacet
facet normal 0.0 -1.0 0.0
  outer loop
    vertex 185.41578838742808 260.541209612301 18.820797024476395
    vertex 178.05694062133722 260.541209612301 20.82035450473955
    vertex 178.05694062133722 260.541209612301 18.82035450473955
  endloop
endfacet
facet normal 0.0 -1.0 0.0
  outer loop
    vertex 178.05694062133722 260.541209612301 20.82035450473955
    vertex 185.41578838742808 260.541209612301 18.820797024476395
    vertex 185.41578838742808 260.541209612301 20.82035450473955
  endloop
endfacet
facet normal -8.7010546395878e-05 -0.0005269848056632816 -0.9999998573580796
  outer loop
    vertex 186.1569406213372 263.941209612301 18.817594024476392
    vertex 178.05694062133722 260.541209612301 18.82035450473955
    vertex 178.05694062133722 263.441209612301 18.82035450473955
  endloop
endfacet
facet normal -8.7010546395878e-05 -0.0005269848056632816 -0.9999998573580796
  outer loop
    vertex 178.05694062133722 260.541209612301 18.82035450473955
    vertex 186.1569406213372 263.941209612301 18.817594024476392
    vertex 185.41578838742808 260.541209612301 18.820797024476395
  endloop
endfacet
facet normal -8.7010546395878e-05 -0.0005269848056632816 -0.9999998573580796
  outer loop
    vertex 185.41578838742808 260.541209612301 18.820797024476395
    vertex 186.1569406213372 263.941209612301 18.817594024476392
    vertex 187.25668637942394 262.3832362549994 18.819929375976066
  endloop
endfacet
facet normal 1.5553073749834187e-05 -5.314715163274064e-05 -0.9999999984667411
  outer loop
    vertex 188.55694062133722 277.141209612301 18.81779934498921
    vertex 175.80694062133722 274.24120961230096 18.81776557516803
    vertex 175.80694062133722 277.141209612301 18.81776557516803
  endloop
endfacet
facet normal 1.5553073749834187e-05 -5.314715163274064e-05 -0.9999999984667411
  outer loop
    vertex 175.80694062133722 274.24120961230096 18.81776557516803
    vertex 188.55694062133722 277.141209612301 18.81779934498921
    vertex 186.1569406213372 273.741209612301 18.817594024476392
  endloop
endfacet
facet normal 1.5553073749834187e-05 -5.314715163274064e-05 -0.9999999984667411
  outer loop
    vertex 186.1569406213372 273.741209612301 18.817594024476392
    vertex 188.55694062133722 277.141209612301 18.81779934498921
    vertex 186.1569406213372 263.941209612301 18.817594024476392
  endloop
endfacet
facet normal 1.5553073749834187e-05 -5.314715163274064e-05 -0.9999999984667411
  outer loop
    vertex 186.1569406213372 263.941209612301 18.817594024476392
    vertex 188.55694062133722 277.141209612301 18.81779934498921
    vertex 187.25668637942394 262.3832362549994 18.819929375976066
  endloop
endfacet
facet normal 1.5553073749834187e-05 -5.314715163274064e-05 -0.9999999984667411
  outer loop
    vertex 187.25668637942394 262.3832362549994 18.819929375976066
    vertex 188.55694062133722 277.141209612301 18.81779934498921
    vertex 188.55694057005746 263.6842891619488 18.820513230954138
  endloop
endfacet
facet normal 1.5553073749834187e-05 -5.314715163274064e-05 -0.9999999984667411
  outer loop
    vertex 112.59101479504818 276.40002865740354 18.81759672606209
    vertex 112.55694062133725 261.541209612301 18.817636169213237
    vertex 112.55694062133725 276.141209612301 18.81759672606209
  endloop
endfacet
facet normal 1.5553073749834187e-05 -5.314715163274064e-05 -0.9999999984667411
  outer loop
    vertex 112.55694062133725 261.541209612301 18.817636169213237
    vertex 112.59101479504818 276.40002865740354 18.81759672606209
    vertex 112.59101479504817 261.2823905671985 18.817636169213237
  endloop
endfacet
facet normal 1.5553073749834187e-05 -5.314715163274064e-05 -0.9999999984667411
  outer loop
    vertex 112.59101479504817 261.2823905671985 18.817636169213237
    vertex 112.59101479504818 276.40002865740354 18.81759672606209
    vertex 112.69091521755281 261.04120961230103 18.817636169213237
  endloop
endfacet
facet normal 1.5553073749834187e-05 -5.314715163274064e-05 -0.9999999984667411
  outer loop
    vertex 112.69091521755281 261.04120961230103 18.817636169213237
    vertex 112.59101479504818 276.40002865740354 18.81759672606209
    vertex 112.69091521755281 276.641209612301 18.81759672606209
  endloop
endfacet
facet normal 1.5553073749834187e-05 -5.314715163274064e-05 -0.9999999984667411
  outer loop
    vertex 112.69091521755281 261.04120961230103 18.817636169213237
    vertex 112.69091521755281 276.641209612301 18.81759672606209
    vertex 112.8498338401507 276.84831639348755 18.81759672606209
  endloop
endfacet
facet normal 1.5553073749834187e-05 -5.314715163274064e-05 -0.9999999984667411
  outer loop
    vertex 112.69091521755281 261.04120961230103 18.817636169213237
    vertex 112.8498338401507 276.84831639348755 18.81759672606209
    vertex 112.8498338401507 260.8341028311144 18.817636169213237
  endloop
endfacet
facet normal 1.5553073749834187e-05 -5.314715163274064e-05 -0.9999999984667411
  outer loop
    vertex 112.8498338401507 260.8341028311144 18.817636169213237
    vertex 112.8498338401507 276.84831639348755 18.81759672606209
    vertex 113.05694062133725 277.0072350160854 18.81759672606209
  endloop
endfacet
facet normal 1.5553073749834187e-05 -5.314715163274064e-05 -0.9999999984667411
  outer loop
    vertex 112.8498338401507 260.8341028311144 18.817636169213237
    vertex 113.05694062133725 277.0072350160854 18.81759672606209
    vertex 113.05694062133725 260.67518420851655 18.817636169213237
  endloop
endfacet
facet normal 1.5553073749834187e-05 -5.314715163274064e-05 -0.9999999984667411
  outer loop
    vertex 113.05694062133725 260.67518420851655 18.817636169213237
    vertex 113.05694062133725 277.0072350160854 18.81759672606209
    vertex 113.2981215762347 277.1071354385901 18.81759672606209
  endloop
endfacet
facet normal 1.5553073749834187e-05 -5.314715163274064e-05 -0.9999999984667411
  outer loop
    vertex 113.05694062133725 260.67518420851655 18.817636169213237
    vertex 113.2981215762347 277.1071354385901 18.81759672606209
    vertex 113.2981215762347 260.57528378601194 18.817636169213237
  endloop
endfacet
facet normal 1.5553073749834187e-05 -5.314715163274064e-05 -0.9999999984667411
  outer loop
    vertex 113.2981215762347 260.57528378601194 18.817636169213237
    vertex 113.2981215762347 277.1071354385901 18.81759672606209
    vertex 113.55694062133725 277.141209612301 18.81759672606209
  endloop
endfacet
facet normal 1.5553073749834187e-05 -5.314715163274064e-05 -0.9999999984667411
  outer loop
    vertex 113.2981215762347 260.57528378601194 18.817636169213237
    vertex 113.55694062133725 277.141209612301 18.81759672606209
    vertex 113.55694062133725 260.541209612301 18.817636169213237
  endloop
endfacet
facet normal 1.5553073749834187e-05 -5.314715163274064e-05 -0.9999999984667411
  outer loop
    vertex 113.55694062133725 260.541209612301 18.817636169213237
    vertex 113.55694062133725 277.141209612301 18.81759672606209
    vertex 115.95694062133724 273.741209612301 18.817594024476392
  endloop
endfacet
facet normal 1.5553073749834187e-05 -5.314715163274064e-05 -0.9999999984667411
  outer loop
    vertex 115.95694062133724 273.741209612301 18.817594024476392
    vertex 113.55694062133725 277.141209612301 18.81759672606209
    vertex 164.55694062133725 277.141209612301 18.81776557516803
  endloop
endfacet
facet normal 1.5553073749834187e-05 -5.314715163274064e-05 -0.9999999984667411
  outer loop
    vertex 115.95694062133724 273.741209612301 18.817594024476392
    vertex 164.55694062133725 277.141209612301 18.81776557516803
    vertex 164.55694062133725 274.24120961230096 18.81776557516803
  endloop
endfacet
facet normal 1.5553073749834187e-05 -5.314715163274064e-05 -0.9999999984667411
  outer loop
    vertex 115.95694062133724 273.741209612301 18.817594024476392
    vertex 164.55694062133725 274.24120961230096 18.81776557516803
    vertex 186.1569406213372 273.741209612301 18.817594024476392
  endloop
endfacet
facet normal 1.5553073749834187e-05 -5.314715163274064e-05 -0.9999999984667411
  outer loop
    vertex 186.1569406213372 273.741209612301 18.817594024476392
    vertex 164.55694062133725 274.24120961230096 18.81776557516803
    vertex 175.80694062133722 274.24120961230096 18.81776557516803
  endloop
endfacet
facet normal 1.5553073749834187e-05 -5.314715163274064e-05 -0.9999999984667411
  outer loop
    vertex 113.55694062133725 260.541209612301 18.817636169213237
    vertex 115.95694062133724 263.941209612301 18.817594024476392
    vertex 161.0569406213372 260.541209612301 18.82035450473955
  endloop
endfacet
facet normal 1.5553073749834187e-05 -5.314715163274064e-05 -0.9999999984667411
  outer loop
    vertex 115.95694062133724 263.941209612301 18.817594024476392
    vertex 113.55694062133725 260.541209612301 18.817636169213237
    vertex 115.95694062133724 273.741209612301 18.817594024476392
  endloop
endfacet
facet normal 1.5553073749834187e-05 -5.314715163274064e-05 -0.9999999984667411
  outer loop
    vertex 161.0569406213372 260.541209612301 18.82035450473955
    vertex 115.95694062133724 263.941209612301 18.817594024476392
    vertex 161.0569406213372 263.441209612301 18.82035450473955
  endloop
endfacet
facet normal -5.701881279847309e-19 -0.005520876386027088 -0.9999847598458341
  outer loop
    vertex 186.1569406213372 263.941209612301 18.817594024476392
    vertex 161.0569406213372 263.441209612301 18.82035450473955
    vertex 115.95694062133724 263.941209612301 18.817594024476392
  endloop
endfacet
facet normal -5.701881279847309e-19 -0.005520876386027088 -0.9999847598458341
  outer loop
    vertex 161.0569406213372 263.441209612301 18.82035450473955
    vertex 186.1569406213372 263.941209612301 18.817594024476392
    vertex 178.05694062133722 263.441209612301 18.82035450473955
  endloop
endfacet
facet normal 0.0 0.0 1.0
  outer loop
    vertex 185.41578838742808 260.541209612301 20.82035450473955
    vertex 178.05694062133722 263.441209612301 20.82035450473955
    vertex 178.05694062133722 260.541209612301 20.82035450473955
  endloop
endfacet
facet normal 0.0 0.0 1.0
  outer loop
    vertex 178.05694062133722 263.441209612301 20.82035450473955
    vertex 185.41578838742808 260.541209612301 20.82035450473955
    vertex 186.65694062133724 263.441209612301 20.82035450473955
  endloop
endfacet
facet normal 0.0 0.0 1.0
  outer loop
    vertex 186.65694062133724 263.441209612301 20.82035450473955
    vertex 185.41578838742808 260.541209612301 20.82035450473955
    vertex 189.55694062133722 264.68490293447474 20.82035450473955
  endloop
endfacet
facet normal 0.0 0.0 1.0
  outer loop
    vertex 186.65694062133724 263.441209612301 20.82035450473955
    vertex 189.55694062133722 264.68490293447474 20.82035450473955
    vertex 186.65694062133724 274.24120961230096 20.82035450473955
  endloop
endfacet
facet normal 0.0 0.0 1.0
  outer loop
    vertex 186.65694062133724 274.24120961230096 20.82035450473955
    vertex 189.55694062133722 264.68490293447474 20.82035450473955
    vertex 188.55694062133722 277.141209612301 20.82035450473955
  endloop
endfacet
facet normal 0.0 0.0 1.0
  outer loop
    vertex 188.55694062133722 277.141209612301 20.82035450473955
    vertex 189.55694062133722 264.68490293447474 20.82035450473955
    vertex 188.81575966643976 277.1071354385901 20.82035450473955
  endloop
endfacet
facet normal 0.0 0.0 1.0
  outer loop
    vertex 188.81575966643976 277.1071354385901 20.82035450473955
    vertex 189.55694062133722 264.68490293447474 20.82035450473955
    vertex 189.05694062133725 277.0072350160854 20.82035450473955
  endloop
endfacet
facet normal 0.0 0.0 1.0
  outer loop
    vertex 189.05694062133725 277.0072350160854 20.82035450473955
    vertex 189.55694062133722 264.68490293447474 20.82035450473955
    vertex 189.2640474025238 276.84831639348755 20.82035450473955
  endloop
endfacet
facet normal 0.0 0.0 1.0
  outer loop
    vertex 189.2640474025238 276.84831639348755 20.82035450473955
    vertex 189.55694062133722 264.68490293447474 20.82035450473955
    vertex 189.42296602512167 276.641209612301 20.82035450473955
  endloop
endfacet
facet normal 0.0 0.0 1.0
  outer loop
    vertex 189.42296602512167 276.641209612301 20.82035450473955
    vertex 189.55694062133722 264.68490293447474 20.82035450473955
    vertex 189.5228664476263 276.40002865740354 20.82035450473955
  endloop
endfacet
facet normal 0.0 0.0 1.0
  outer loop
    vertex 189.5228664476263 276.40002865740354 20.82035450473955
    vertex 189.55694062133722 264.68490293447474 20.82035450473955
    vertex 189.55694062133722 276.141209612301 20.82035450473955
  endloop
endfacet
facet normal 0.0 0.0 1.0
  outer loop
    vertex 186.65694062133724 274.24120961230096 20.82035450473955
    vertex 175.80694062133722 277.141209612301 20.82035450473955
    vertex 175.80694062133722 274.24120961230096 20.82035450473955
  endloop
endfacet
facet normal 0.0 0.0 1.0
  outer loop
    vertex 175.80694062133722 277.141209612301 20.82035450473955
    vertex 186.65694062133724 274.24120961230096 20.82035450473955
    vertex 188.55694062133722 277.141209612301 20.82035450473955
  endloop
endfacet
facet normal 0.7073236371471112 -0.706889858700048 8.992198211760605e-08
  outer loop
    vertex 187.25668637942394 262.3832362549994 18.819929375976066
    vertex 185.41578838742808 260.541209612301 20.82035450473955
    vertex 185.41578838742808 260.541209612301 18.820797024476395
  endloop
endfacet
facet normal 0.7073236371471112 -0.706889858700048 8.992198211760605e-08
  outer loop
    vertex 185.41578838742808 260.541209612301 20.82035450473955
    vertex 187.25668637942394 262.3832362549994 18.819929375976066
    vertex 189.55694062133722 264.68490293447474 20.82035450473955
  endloop
endfacet
facet normal 0.7073236371471112 -0.706889858700048 8.992198211760605e-08
  outer loop
    vertex 189.55694062133722 264.68490293447474 20.82035450473955
    vertex 187.25668637942394 262.3832362549994 18.819929375976066
    vertex 188.55694057005746 263.6842891619488 18.820513230954138
  endloop
endfacet
facet normal 0.7073236371471112 -0.706889858700048 8.992198211760605e-08
  outer loop
    vertex 189.55694062133722 264.68490293447474 20.82035450473955
    vertex 188.55694057005746 263.6842891619488 18.820513230954138
    vertex 189.53060858198768 264.6585545994818 18.820456463849478
  endloop
endfacet
facet normal 0.7073236371471112 -0.706889858700048 8.992198211760605e-08
  outer loop
    vertex 189.55694062133722 264.68490293447474 20.82035450473955
    vertex 189.53060858198768 264.6585545994818 18.820456463849478
    vertex 189.55694062133722 264.68490293447474 18.820797024476395
  endloop
endfacet
endsolid v17_case
