solid sd_spacer
facet normal -0.47634899950642295 -0.879256293373969 3.5092714872022407e-05
  outer loop
    vertex 20.239155301307143 4.678902806760288 5.000009785430646
    vertex 18.455993161643 5.644755475752878 1.1819678615471173e-05
    vertex 20.238812103284744 4.678889179858284 9.797227704072541e-06
  endloop
endfacet
facet normal -0.47634899950642295 -0.879256293373969 3.5092714872022407e-05
  outer loop
    vertex 18.455993161643 5.644755475752878 1.1819678615471173e-05
    vertex 20.239155301307143 4.678902806760288 5.000009785430646
    vertex 18.456336359665396 5.644769102654883 5.000011807881558
  endloop
endfacet
facet normal -0.2935119997154475 -0.9559553888678021 2.275188970480764e-05
  outer loop
    vertex 18.456336359665396 5.644769102654883 5.000011807881558
    vertex 16.517655742964582 6.239893385464069 1.3065850482463226e-05
    vertex 18.455993161643 5.644755475752878 1.1819678615471173e-05
  endloop
endfacet
facet normal -0.2935119997154475 -0.9559553888678021 2.275188970480764e-05
  outer loop
    vertex 16.517655742964582 6.239893385464069 1.3065850482463226e-05
    vertex 18.456336359665396 5.644769102654883 5.000011807881558
    vertex 16.517998940986978 6.239907012366074 5.000013054053427
  endloop
endfacet
facet normal -0.6404597101890054 -0.7679917691639977 4.6053971016258605e-05
  outer loop
    vertex 21.796369374123593 3.3802783762027273 5.000007066207534
    vertex 20.238812103284744 4.678889179858284 9.797227704072541e-06
    vertex 21.796026176101194 3.3802647493007236 7.07800458615293e-06
  endloop
endfacet
facet normal -0.6404597101890054 -0.7679917691639977 4.6053971016258605e-05
  outer loop
    vertex 20.238812103284744 4.678889179858284 9.797227704072541e-06
    vertex 21.796369374123593 3.3802783762027273 5.000007066207534
    vertex 20.239155301307143 4.678902806760288 5.000009785430646
  endloop
endfacet
facet normal 0.2935119997737459 -0.9559553889597164 -1.7541205534437526e-05
  outer loop
    vertex 12.482344257108618 6.239893385456022 1.3065841526954668e-05
    vertex 10.544350036454984 5.6447691026391045 5.000011807864004
    vertex 10.544006838432589 5.6447554757371 1.1819661056244878e-05
  endloop
endfacet
facet normal 0.2935119997737459 -0.9559553889597164 -1.7541205534437526e-05
  outer loop
    vertex 10.544350036454984 5.6447691026391045 5.000011807864004
    vertex 12.482344257108618 6.239893385456022 1.3065841526954668e-05
    vertex 12.482687455131014 6.239907012358027 5.00001305404447
  endloop
endfacet
facet normal 0.6404597104004865 -0.7679917692272551 -4.1867831589327934e-05
  outer loop
    vertex 8.761187896794658 4.678889179835395 9.797202232020295e-06
    vertex 7.204317022005815 3.380278376173631 5.0000070661751455
    vertex 7.203973823983419 3.380264749271628 7.077972200952853e-06
  endloop
endfacet
facet normal 0.6404597104004865 -0.7679917692272551 -4.1867831589327934e-05
  outer loop
    vertex 7.204317022005815 3.380278376173631 5.0000070661751455
    vertex 8.761187896794658 4.678889179835395 9.797202232020295e-06
    vertex 8.761531094817053 4.6789028067374 5.000009785405175
  endloop
endfacet
facet normal 0.8876858988321529 -0.46044949935186863 -5.967550909681665e-05
  outer loop
    vertex 5.933582006159935 1.7999338632157542 3.768869664499963e-06
    vertex 5.000297436662758 3.630566223706469e-05 4.999999988185391
    vertex 4.999954238640339 2.267876023269464e-05 -1.7555701337101935e-11
  endloop
endfacet
facet normal 0.8876858988321529 -0.46044949935186863 -5.967550909681665e-05
  outer loop
    vertex 5.000297436662758 3.630566223706469e-05 4.999999988185391
    vertex 5.933582006159935 1.7999338632157542 3.768869664499963e-06
    vertex 5.933925204182354 1.7999474901177586 5.000003757072605
  endloop
endfacet
facet normal 0.47634899964192323 -0.8792562934787802 -3.0300099131147272e-05
  outer loop
    vertex 10.544006838432589 5.6447554757371 1.1819661056244878e-05
    vertex 8.761531094817053 4.6789028067374 5.000009785405175
    vertex 8.761187896794658 4.678889179835395 9.797202232020295e-06
  endloop
endfacet
facet normal 0.47634899964192323 -0.8792562934787802 -3.0300099131147272e-05
  outer loop
    vertex 8.761531094817053 4.6789028067374 5.000009785405175
    vertex 10.544006838432589 5.6447554757371 1.1819661056244878e-05
    vertex 10.544350036454984 5.6447691026391045 5.000011807864004
  endloop
endfacet
facet normal 4.535793559407593e-06 -0.9999999999860003 2.725069072172056e-06
  outer loop
    vertex 4.999954238640339 2.267876023269464e-05 -1.7555701337101935e-11
    vertex 0.000343198071441364 1.3626902003958121e-05 4.999999988174282
    vertex 4.902229733261265e-11 -4.119380626337759e-16 -2.8660729345375557e-11
  endloop
endfacet
facet normal 4.535793559407593e-06 -0.9999999999860003 2.725069072172056e-06
  outer loop
    vertex 0.000343198071441364 1.3626902003958121e-05 4.999999988174282
    vertex 4.999954238640339 2.267876023269464e-05 -1.7555701337101935e-11
    vertex 5.000297436662758 3.630566223706469e-05 4.999999988185391
  endloop
endfacet
facet normal 0.7793925921381923 -0.6265358606160876 -5.1789650825210356e-05
  outer loop
    vertex 7.203973823983419 3.380264749271628 7.077972200952853e-06
    vertex 5.933925204182354 1.7999474901177586 5.000003757072605
    vertex 5.933582006159935 1.7999338632157542 3.768869664499963e-06
  endloop
endfacet
facet normal 0.7793925921381923 -0.6265358606160876 -5.1789650825210356e-05
  outer loop
    vertex 5.933925204182354 1.7999474901177586 5.000003757072605
    vertex 7.203973823983419 3.380264749271628 7.077972200952853e-06
    vertex 7.204317022005815 3.380278376173631 5.0000070661751455
  endloop
endfacet
facet normal 1.9962283119199704e-12 -0.9999999999962863 2.7253804071397176e-06
  outer loop
    vertex 11.75000000001427 17.440918115760805 -2.5640545242566756e-12
    vertex 11.000343198036669 17.440931742661313 4.999999988198721
    vertex 11.000000000014271 17.440918115759324 -4.225014782477387e-12
  endloop
endfacet
facet normal 1.9962283119199704e-12 -0.9999999999962863 2.7253804071397176e-06
  outer loop
    vertex 11.000343198036669 17.440931742661313 4.999999988198721
    vertex 11.75000000001427 17.440918115760805 -2.5640545242566756e-12
    vertex 11.750343198036667 17.44093174266281 4.999999988200375
  endloop
endfacet
facet normal 0.9999999390076066 0.00034245183620500933 -6.864053376565434e-05
  outer loop
    vertex 11.000000000014271 17.440918115759324 -4.225014782477387e-12
    vertex 11.001028143545037 15.440926308783574 5.000581763170909
    vertex 11.000684945522652 15.440912681881569 0.0005817749679627392
  endloop
endfacet
facet normal 0.9999999390076066 0.00034245183620500933 -6.864053376565434e-05
  outer loop
    vertex 11.001028143545037 15.440926308783574 5.000581763170909
    vertex 11.000000000014271 17.440918115759324 -4.225014782477387e-12
    vertex 11.000343198036669 17.440931742661313 4.999999988198721
  endloop
endfacet
facet normal 0.9999999976443025 1.99441721093343e-12 -6.863960447893455e-05
  outer loop
    vertex 11.750000000003181 23.00000000002343 -2.5633495326360388e-12
    vertex 11.750343198036667 17.44093174266281 4.999999988200375
    vertex 11.75000000001427 17.440918115760805 -2.5640545242566756e-12
  endloop
endfacet
facet normal 0.9999999976443025 1.99441721093343e-12 -6.863960447893455e-05
  outer loop
    vertex 11.750343198036667 17.44093174266281 4.999999988200375
    vertex 11.750000000003181 23.00000000002343 -2.5633495326360388e-12
    vertex 11.750343198025579 23.000013626925437 4.999999988200375
  endloop
endfacet
facet normal -6.406085534744412e-11 0.9999999999962863 -2.7253804007319197e-06
  outer loop
    vertex 0.0003431980661849465 2.6243451938478897 5.00330898817428
    vertex 4.091976000038223 2.624331566954043 2.5033089999804248
    vertex 3.8227465637419296e-11 2.624331566945885 2.5033089999713383
  endloop
endfacet
facet normal -6.406085534744412e-11 0.9999999999962863 -2.7253804007319197e-06
  outer loop
    vertex 4.091976000038223 2.624331566954043 2.5033089999804248
    vertex 0.0003431980661849465 2.6243451938478897 5.00330898817428
    vertex 4.09231919806618 2.624345193856045 5.003308988183365
  endloop
endfacet
facet normal -1.994388302175483e-12 0.9999999999962863 -2.725380407139844e-06
  outer loop
    vertex 0.0003431980255999889 23.000013626902003 4.999999988174282
    vertex 11.750000000003181 23.00000000002343 -2.5633495326360388e-12
    vertex 3.2034819241744114e-12 23.000000000000014 -2.8660729345375557e-11
  endloop
endfacet
facet normal -1.994388302175483e-12 0.9999999999962863 -2.725380407139844e-06
  outer loop
    vertex 11.750000000003181 23.00000000002343 -2.5633495326360388e-12
    vertex 0.0003431980255999889 23.000013626902003 4.999999988174282
    vertex 11.750343198025579 23.000013626925437 4.999999988200375
  endloop
endfacet
facet normal -0.9999999976443024 5.145840458642691e-12 6.86396044254782e-05
  outer loop
    vertex 4.09231919806618 2.624345193856045 5.003308988183365
    vertex 4.09197600001423 14.692024566954027 2.5033089999804248
    vertex 4.091976000038223 2.624331566954043 2.5033089999804248
  endloop
endfacet
facet normal -0.9999999976443024 5.145840458642691e-12 6.86396044254782e-05
  outer loop
    vertex 4.09197600001423 14.692024566954027 2.5033089999804248
    vertex 4.09231919806618 2.624345193856045 5.003308988183365
    vertex 4.092319198042176 14.69203819385605 5.003308988183365
  endloop
endfacet
facet normal 6.406886666156906e-11 -0.9999999999962863 2.7253804006784957e-06
  outer loop
    vertex 4.09197600001423 14.692024566954027 2.5033089999804248
    vertex 0.00034319804215883205 14.692038193847841 5.00330898817428
    vertex 1.4212631072041404e-11 14.692024566945854 2.5033089999713383
  endloop
endfacet
facet normal 6.406886666156906e-11 -0.9999999999962863 2.7253804006784957e-06
  outer loop
    vertex 0.00034319804215883205 14.692038193847841 5.00330898817428
    vertex 4.09197600001423 14.692024566954027 2.5033089999804248
    vertex 4.092319198042176 14.69203819385605 5.003308988183365
  endloop
endfacet
facet normal 0.9999999976443024 5.453208445564729e-11 -6.863960447907773e-05
  outer loop
    vertex 11.750000000018241 15.440918115743804 3.233109599017903e-05
    vertex 11.750343198054614 8.440931742689243 5.000026961700612
    vertex 11.750000000032239 8.440918115787237 2.6973497672405643e-05
  endloop
endfacet
facet normal 0.9999999976443024 5.453208445564729e-11 -6.863960447907773e-05
  outer loop
    vertex 11.750343198054614 8.440931742689243 5.000026961700612
    vertex 11.750000000018241 15.440918115743804 3.233109599017903e-05
    vertex 11.750343198040637 15.440931742645807 5.000032319298929
  endloop
endfacet
facet normal -7.25377045445616e-06 0.9999999999699791 -2.7248825112688933e-06
  outer loop
    vertex 11.000684945522652 15.440912681881569 0.0005817749679627392
    vertex 11.750343198040637 15.440931742645807 5.000032319298929
    vertex 11.750000000018241 15.440918115743804 3.233109599017903e-05
  endloop
endfacet
facet normal -7.25377045445616e-06 0.9999999999699791 -2.7248825112688933e-06
  outer loop
    vertex 11.750343198040637 15.440931742645807 5.000032319298929
    vertex 11.000684945522652 15.440912681881569 0.0005817749679627392
    vertex 11.001028143545037 15.440926308783574 5.000581763170909
  endloop
endfacet
facet normal 0.9999999976443024 1.9944360882180092e-12 -6.863960447893455e-05
  outer loop
    vertex 29.500000000003173 23.000000000058833 3.683017224531681e-11
    vertex 29.500343198071445 1.362696084257015e-05 4.999999988239772
    vertex 29.50000000004905 5.883820009347416e-11 3.683017224531681e-11
  endloop
endfacet
facet normal 0.9999999976443024 1.9944360882180092e-12 -6.863960447893455e-05
  outer loop
    vertex 29.500343198071445 1.362696084257015e-05 4.999999988239772
    vertex 29.500000000003173 23.000000000058833 3.683017224531681e-11
    vertex 29.50034319802557 23.000013626960836 4.999999988239772
  endloop
endfacet
facet normal -0.9999999976443025 -1.99442547475901e-12 6.863960447893455e-05
  outer loop
    vertex 17.250343198036667 17.440908710674975 4.999999988212583
    vertex 17.250000000003183 23.0000000000344 9.640055420589987e-12
    vertex 17.25000000001427 17.440895083772972 9.640055420589987e-12
  endloop
endfacet
facet normal -0.9999999976443025 -1.99442547475901e-12 6.863960447893455e-05
  outer loop
    vertex 17.250000000003183 23.0000000000344 9.640055420589987e-12
    vertex 17.250343198036667 17.440908710674975 4.999999988212583
    vertex 17.25034319802558 23.000013626936404 4.999999988212583
  endloop
endfacet
facet normal -0.9999999390062562 -0.0003424557799087027 6.864053377630974e-05
  outer loop
    vertex 18.001028143545025 15.440926308797536 5.000581763186424
    vertex 18.00000000001427 17.440895083774464 1.1292555779363055e-11
    vertex 18.00068494552264 15.440912681895531 0.0005817749834796048
  endloop
endfacet
facet normal -0.9999999390062562 -0.0003424557799087027 6.864053377630974e-05
  outer loop
    vertex 18.00000000001427 17.440895083774464 1.1292555779363055e-11
    vertex 18.001028143545025 15.440926308797536 5.000581763186424
    vertex 18.000343198036667 17.440908710676453 4.9999999882142365
  endloop
endfacet
facet normal -1.9945401400689033e-12 0.9999999999962863 -2.7253804071398332e-06
  outer loop
    vertex 17.25034319802558 23.000013626936404 4.999999988212583
    vertex 29.500000000003173 23.000000000058833 3.683017224531681e-11
    vertex 17.250000000003183 23.0000000000344 9.640055420589987e-12
  endloop
endfacet
facet normal -1.9945401400689033e-12 0.9999999999962863 -2.7253804071398332e-06
  outer loop
    vertex 29.500000000003173 23.000000000058833 3.683017224531681e-11
    vertex 17.25034319802558 23.000013626936404 4.999999988212583
    vertex 29.50034319802557 23.000013626960836 4.999999988239772
  endloop
endfacet
facet normal -4.123441450702834e-06 -0.999999999987784 2.7256634386445016e-06
  outer loop
    vertex 29.50000000004905 5.883820009347416e-11 3.683017224531681e-11
    vertex 24.000388959480127 3.630570012720845e-05 4.999999988227555
    vertex 24.00004576145773 2.2678798122838393e-05 2.4611257476436776e-11
  endloop
endfacet
facet normal -4.123441450702834e-06 -0.999999999987784 2.7256634386445016e-06
  outer loop
    vertex 24.000388959480127 3.630570012720845e-05 4.999999988227555
    vertex 29.50000000004905 5.883820009347416e-11 3.683017224531681e-11
    vertex 29.500343198071445 1.362696084257015e-05 4.999999988239772
  endloop
endfacet
facet normal -2.2970466144662616e-05 0.9999999997324694 -2.7238037228431563e-06
  outer loop
    vertex 17.25034319804065 15.440909063717827 5.000032319311144
    vertex 18.00068494552264 15.440912681895531 0.0005817749834796048
    vertex 17.250000000018254 15.440895436815824 3.23311081999289e-05
  endloop
endfacet
facet normal -2.2970466144662616e-05 0.9999999997324694 -2.7238037228431563e-06
  outer loop
    vertex 18.00068494552264 15.440912681895531 0.0005817749834796048
    vertex 17.25034319804065 15.440909063717827 5.000032319311144
    vertex 18.001028143545025 15.440926308797536 5.000581763186424
  endloop
endfacet
facet normal -0.9999999976443024 -5.453047301858086e-11 6.863960447907773e-05
  outer loop
    vertex 17.250343198054615 8.440909063761266 5.0000269617128295
    vertex 17.250000000018254 15.440895436815824 3.23311081999289e-05
    vertex 17.25000000003223 8.440895436859261 2.697350988568048e-05
  endloop
endfacet
facet normal -0.9999999976443024 -5.453047301858086e-11 6.863960447907773e-05
  outer loop
    vertex 17.250000000018254 15.440895436815824 3.23311081999289e-05
    vertex 17.250343198054615 8.440909063761266 5.0000269617128295
    vertex 17.25034319804065 15.440909063717827 5.000032319311144
  endloop
endfacet
facet normal 1.966148684810534e-12 -0.9999999999962863 2.7253804071417823e-06
  outer loop
    vertex 18.00000000001427 17.440895083774464 1.1292555779363055e-11
    vertex 17.250343198036667 17.440908710674975 4.999999988212583
    vertex 17.25000000001427 17.440895083772972 9.640055420589987e-12
  endloop
endfacet
facet normal 1.966148684810534e-12 -0.9999999999962863 2.7253804071417823e-06
  outer loop
    vertex 17.250343198036667 17.440908710674975 4.999999988212583
    vertex 18.00000000001427 17.440895083774464 1.1292555779363055e-11
    vertex 18.000343198036667 17.440908710676453 4.9999999882142365
  endloop
endfacet
facet normal 0.3827468461860563 9.39878851004625e-07 0.923853263096334
  outer loop
    vertex 14.111869501012839 6.402232199578894 1.5511704303155185
    vertex 13.750116761618251 8.44092119667135 1.7010403387874808
    vertex 13.750108206586805 6.366190283112594 1.7010459938056732
  endloop
endfacet
facet normal 0.3827468461860563 9.39878851004625e-07 0.923853263096334
  outer loop
    vertex 13.750116761618251 8.44092119667135 1.7010403387874808
    vertex 14.111869501012839 6.402232199578894 1.5511704303155185
    vertex 14.111877907419698 8.44091929646037 1.5511648735406394
  endloop
endfacet
facet normal 0.608815883028963 -3.481163517094295e-07 0.7933115532825316
  outer loop
    vertex 13.750108206586805 6.366190283112594 1.7010459938056732
    vertex 13.439472952741022 8.440923127389047 1.9394395957089074
    vertex 13.439464270082778 6.335240687519628 1.9394453350905423
  endloop
endfacet
facet normal 0.608815883028963 -3.481163517094295e-07 0.7933115532825316
  outer loop
    vertex 13.439472952741022 8.440923127389047 1.9394395957089074
    vertex 13.750108206586805 6.366190283112594 1.7010459938056732
    vertex 13.750116761618251 8.44092119667135 1.7010403387874808
  endloop
endfacet
facet normal 0.9239057975664905 -2.7667780705833717e-06 0.38262001674686613
  outer loop
    vertex 13.201107562410145 6.311492576593034 2.250121933035104
    vertex 13.051290541445761 8.440926560931361 2.6118978460971007
    vertex 13.05128169929372 6.296564344846848 2.6119036909067908
  endloop
endfacet
facet normal 0.9239057975664905 -2.7667780705833717e-06 0.38262001674686613
  outer loop
    vertex 13.051290541445761 8.440926560931361 2.6118978460971007
    vertex 13.201107562410145 6.311492576593034 2.250121933035104
    vertex 13.201116342999892 8.44092495703824 2.250116128919124
  endloop
endfacet
facet normal 0.9914538182960463 -3.732616787897444e-06 0.13045813954007718
  outer loop
    vertex 13.05128169929372 6.296564344846848 2.6119036909067908
    vertex 13.000205928855705 8.44092782976574 3.0001299210897154
    vertex 13.000197065705912 6.291473326604506 3.0001357797792663
  endloop
endfacet
facet normal 0.9914538182960463 -3.732616787897444e-06 0.13045813954007718
  outer loop
    vertex 13.000205928855705 8.44092782976574 3.0001299210897154
    vertex 13.05128169929372 6.296564344846848 2.6119036909067908
    vertex 13.051290541445761 8.440926560931361 2.6118978460971007
  endloop
endfacet
facet normal -0.991435899763627 4.4440838418063776e-06 0.13059424428410915
  outer loop
    vertex 16.000205921752972 8.440915458880154 2.999924002309998
    vertex 15.949059171356266 6.296565988822469 2.6117047886022964
    vertex 16.000197058661023 6.291474979700178 2.9999298609613225
  endloop
endfacet
facet normal -0.991435899763627 4.4440838418063776e-06 0.13059424428410915
  outer loop
    vertex 15.949059171356266 6.296565988822469 2.6117047886022964
    vertex 16.000205921752972 8.440915458880154 2.999924002309998
    vertex 15.949068013452257 8.440914611573476 2.6116989438296536
  endloop
endfacet
facet normal -0.9999999976447822 5.107707021386925e-07 6.863071239501982e-05
  outer loop
    vertex 0.0003431980661849465 2.6243451938478897 5.00330898817428
    vertex 3.8227465637419296e-11 2.624331566945885 2.5033089999713383
    vertex 0.000343198071441364 1.3626902003958121e-05 4.999999988174282
  endloop
endfacet
facet normal -0.9999999976447822 5.107707021386925e-07 6.863071239501982e-05
  outer loop
    vertex 4.902229733261265e-11 -4.119380626337759e-16 -2.8660729345375557e-11
    vertex 3.8227465637419296e-11 2.624331566945885 2.5033089999713383
    vertex 3.2034819241744114e-12 23.000000000000014 -2.8660729345375557e-11
  endloop
endfacet
facet normal -0.9999999976447822 5.107707021386925e-07 6.863071239501982e-05
  outer loop
    vertex 3.8227465637419296e-11 2.624331566945885 2.5033089999713383
    vertex 4.902229733261265e-11 -4.119380626337759e-16 -2.8660729345375557e-11
    vertex 0.000343198071441364 1.3626902003958121e-05 4.999999988174282
  endloop
endfacet
facet normal -0.9999999976447822 5.107707021386925e-07 6.863071239501982e-05
  outer loop
    vertex 3.2034819241744114e-12 23.000000000000014 -2.8660729345375557e-11
    vertex 3.8227465637419296e-11 2.624331566945885 2.5033089999713383
    vertex 1.4212631072041404e-11 14.692024566945854 2.5033089999713383
  endloop
endfacet
facet normal -0.9999999976447822 5.107707021386925e-07 6.863071239501982e-05
  outer loop
    vertex 3.2034819241744114e-12 23.000000000000014 -2.8660729345375557e-11
    vertex 1.4212631072041404e-11 14.692024566945854 2.5033089999713383
    vertex 0.00034319804215883205 14.692038193847841 5.00330898817428
  endloop
endfacet
facet normal -0.9999999976447822 5.107707021386925e-07 6.863071239501982e-05
  outer loop
    vertex 3.2034819241744114e-12 23.000000000000014 -2.8660729345375557e-11
    vertex 0.00034319804215883205 14.692038193847841 5.00330898817428
    vertex 0.0003431980255999889 23.000013626902003 4.999999988174282
  endloop
endfacet
facet normal -0.38262001679123153 4.095956030222212e-06 0.9239057975431809
  outer loop
    vertex 15.250108203066954 6.366191741690005 1.7009430343949847
    vertex 14.888335040888931 8.440916094639576 1.5511115778387046
    vertex 14.888326634507292 6.402233557747968 1.551117134552346
  endloop
endfacet
facet normal -0.38262001679123153 4.095956030222212e-06 0.9239057975431809
  outer loop
    vertex 14.888335040888931 8.440916094639576 1.5511115778387046
    vertex 15.250108203066954 6.366191741690005 1.7009430343949847
    vertex 15.250116758066884 8.440915011228556 1.7009373793976226
  endloop
endfacet
facet normal 4.123461329039959e-06 0.999999999989305 -2.094575917404803e-06
  outer loop
    vertex 11.750000000032239 8.440918115787237 2.6973497672405643e-05
    vertex 13.750116761618251 8.44092119667135 1.7010403387874808
    vertex 17.25000000003223 8.440895436859261 2.697350988568048e-05
  endloop
endfacet
facet normal 4.123461329039959e-06 0.999999999989305 -2.094575917404803e-06
  outer loop
    vertex 13.750116761618251 8.44092119667135 1.7010403387874808
    vertex 11.750000000032239 8.440918115787237 2.6973497672405643e-05
    vertex 13.439472952741022 8.440923127389047 1.9394395957089074
  endloop
endfacet
facet normal 4.123461329039959e-06 0.999999999989305 -2.094575917404803e-06
  outer loop
    vertex 13.439472952741022 8.440923127389047 1.9394395957089074
    vertex 11.750000000032239 8.440918115787237 2.6973497672405643e-05
    vertex 13.201116342999892 8.44092495703824 2.250116128919124
  endloop
endfacet
facet normal 4.123461329039959e-06 0.999999999989305 -2.094575917404803e-06
  outer loop
    vertex 13.201116342999892 8.44092495703824 2.250116128919124
    vertex 11.750000000032239 8.440918115787237 2.6973497672405643e-05
    vertex 11.750343198054614 8.440931742689243 5.000026961700612
  endloop
endfacet
facet normal 4.123461329039959e-06 0.999999999989305 -2.094575917404803e-06
  outer loop
    vertex 17.25000000003223 8.440895436859261 2.697350988568048e-05
    vertex 13.750116761618251 8.44092119667135 1.7010403387874808
    vertex 14.111877907419698 8.44091929646037 1.5511648735406394
  endloop
endfacet
facet normal 4.123461329039959e-06 0.999999999989305 -2.094575917404803e-06
  outer loop
    vertex 17.25000000003223 8.440895436859261 2.697350988568048e-05
    vertex 14.111877907419698 8.44091929646037 1.5511648735406394
    vertex 14.500102965897621 8.440917556252344 1.5000269652440394
  endloop
endfacet
facet normal 4.123461329039959e-06 0.999999999989305 -2.094575917404803e-06
  outer loop
    vertex 13.201116342999892 8.44092495703824 2.250116128919124
    vertex 11.750343198054614 8.440931742689243 5.000026961700612
    vertex 13.051290541445761 8.440926560931361 2.6118978460971007
  endloop
endfacet
facet normal 4.123461329039959e-06 0.999999999989305 -2.094575917404803e-06
  outer loop
    vertex 13.051290541445761 8.440926560931361 2.6118978460971007
    vertex 11.750343198054614 8.440931742689243 5.000026961700612
    vertex 13.000205928855705 8.44092782976574 3.0001299210897154
  endloop
endfacet
facet normal 4.123461329039959e-06 0.999999999989305 -2.094575917404803e-06
  outer loop
    vertex 13.000205928855705 8.44092782976574 3.0001299210897154
    vertex 11.750343198054614 8.440931742689243 5.000026961700612
    vertex 13.000205928853202 8.44092782976574 5.000026961703387
  endloop
endfacet
facet normal 4.123461329039959e-06 0.999999999989305 -2.094575917404803e-06
  outer loop
    vertex 17.25000000003223 8.440895436859261 2.697350988568048e-05
    vertex 15.799192548202056 8.440914243537053 2.249937798024772
    vertex 17.250343198054615 8.440909063761266 5.0000269617128295
  endloop
endfacet
facet normal 4.123461329039959e-06 0.999999999989305 -2.094575917404803e-06
  outer loop
    vertex 15.799192548202056 8.440914243537053 2.249937798024772
    vertex 17.25000000003223 8.440895436859261 2.697350988568048e-05
    vertex 15.560793291278276 8.440914379851959 1.939293989143395
  endloop
endfacet
facet normal 4.123461329039959e-06 0.999999999989305 -2.094575917404803e-06
  outer loop
    vertex 15.560793291278276 8.440914379851959 1.939293989143395
    vertex 17.25000000003223 8.440895436859261 2.697350988568048e-05
    vertex 15.250116758066884 8.440915011228556 1.7009373793976226
  endloop
endfacet
facet normal 4.123461329039959e-06 0.999999999989305 -2.094575917404803e-06
  outer loop
    vertex 15.250116758066884 8.440915011228556 1.7009373793976226
    vertex 17.25000000003223 8.440895436859261 2.697350988568048e-05
    vertex 14.888335040888931 8.440916094639576 1.5511115778387046
  endloop
endfacet
facet normal 4.123461329039959e-06 0.999999999989305 -2.094575917404803e-06
  outer loop
    vertex 14.888335040888931 8.440916094639576 1.5511115778387046
    vertex 17.25000000003223 8.440895436859261 2.697350988568048e-05
    vertex 14.500102965897621 8.440917556252344 1.5000269652440394
  endloop
endfacet
facet normal 4.123461329039959e-06 0.999999999989305 -2.094575917404803e-06
  outer loop
    vertex 17.250343198054615 8.440909063761266 5.0000269617128295
    vertex 15.799192548202056 8.440914243537053 2.249937798024772
    vertex 15.949068013452257 8.440914611573476 2.6116989438296536
  endloop
endfacet
facet normal 4.123461329039959e-06 0.999999999989305 -2.094575917404803e-06
  outer loop
    vertex 17.250343198054615 8.440909063761266 5.0000269617128295
    vertex 15.949068013452257 8.440914611573476 2.6116989438296536
    vertex 16.000205921752972 8.440915458880154 2.999924002309998
  endloop
endfacet
facet normal 4.123461329039959e-06 0.999999999989305 -2.094575917404803e-06
  outer loop
    vertex 17.250343198054615 8.440909063761266 5.0000269617128295
    vertex 16.000205921752972 8.440915458880154 2.999924002309998
    vertex 16.000205921750467 8.440915458880154 5.000026961710052
  endloop
endfacet
facet normal -0.7793925918839005 -0.6265358606408189 5.520474792579468e-05
  outer loop
    vertex 23.066761191953347 1.7999474901519217 5.000003757110625
    vertex 21.796026176101194 3.3802647493007236 7.07800458615293e-06
    vertex 23.066417993930962 1.7999338632499178 3.7689076832880806e-06
  endloop
endfacet
facet normal -0.7793925918839005 -0.6265358606408189 5.520474792579468e-05
  outer loop
    vertex 21.796026176101194 3.3802647493007236 7.07800458615293e-06
    vertex 23.066761191953347 1.7999474901519217 5.000003757110625
    vertex 21.796369374123593 3.3802783762027273 5.000007066207534
  endloop
endfacet
facet normal -0.9238532630876162 4.8526939242965764e-06 0.3827468461774906
  outer loop
    vertex 15.949068013452257 8.440914611573476 2.6116989438296536
    vertex 15.799183767663125 6.311494183114471 2.2499436021071775
    vertex 15.949059171356266 6.296565988822469 2.6117047886022964
  endloop
endfacet
facet normal -0.9238532630876162 4.8526939242965764e-06 0.3827468461774906
  outer loop
    vertex 15.799183767663125 6.311494183114471 2.2499436021071775
    vertex 15.949068013452257 8.440914611573476 2.6116989438296536
    vertex 15.799192548202056 8.440914243537053 2.249937798024772
  endloop
endfacet
facet normal -0.7933115532718793 4.930600934558421e-06 0.6088158830229774
  outer loop
    vertex 15.799192548202056 8.440914243537053 2.249937798024772
    vertex 15.560784608662468 6.3352422308051874 1.9392997284969866
    vertex 15.799183767663125 6.311494183114471 2.2499436021071775
  endloop
endfacet
facet normal -0.7933115532718793 4.930600934558421e-06 0.6088158830229774
  outer loop
    vertex 15.560784608662468 6.3352422308051874 1.9392997284969866
    vertex 15.799192548202056 8.440914243537053 2.249937798024772
    vertex 15.560793291278276 8.440914379851959 1.939293989143395
  endloop
endfacet
facet normal -0.13045882686826452 3.1084005758010867e-06 0.99145372785748
  outer loop
    vertex 14.888326634507292 6.402233557747968 1.551117134552346
    vertex 14.500102965897621 8.440917556252344 1.5000269652440394
    vertex 14.50009883986479 6.440910864335932 1.5000324163063
  endloop
endfacet
facet normal -0.13045882686826452 3.1084005758010867e-06 0.99145372785748
  outer loop
    vertex 14.500102965897621 8.440917556252344 1.5000269652440394
    vertex 14.888326634507292 6.402233557747968 1.551117134552346
    vertex 14.888335040888931 8.440916094639576 1.5511115778387046
  endloop
endfacet
facet normal 0.7933951235592978 -1.6123880006615294e-06 0.6087069721218307
  outer loop
    vertex 13.439464270082778 6.335240687519628 1.9394453350905423
    vertex 13.201116342999892 8.44092495703824 2.250116128919124
    vertex 13.201107562410145 6.311492576593034 2.250121933035104
  endloop
endfacet
facet normal 0.7933951235592978 -1.6123880006615294e-06 0.6087069721218307
  outer loop
    vertex 13.201116342999892 8.44092495703824 2.250116128919124
    vertex 13.439464270082778 6.335240687519628 1.9394453350905423
    vertex 13.439472952741022 8.440923127389047 1.9394395957089074
  endloop
endfacet
facet normal 0.0991369391606898 -0.9950737999183052 -3.161408084685797e-06
  outer loop
    vertex 12.482344257108618 6.239893385456022 1.3065841526954668e-05
    vertex 13.05128169929372 6.296564344846848 2.6119036909067908
    vertex 12.482687455131014 6.239907012358027 5.00001305404447
  endloop
endfacet
facet normal 0.0991369391606898 -0.9950737999183052 -3.161408084685797e-06
  outer loop
    vertex 13.05128169929372 6.296564344846848 2.6119036909067908
    vertex 12.482344257108618 6.239893385456022 1.3065841526954668e-05
    vertex 13.201107562410145 6.311492576593034 2.250121933035104
  endloop
endfacet
facet normal 0.0991369391606898 -0.9950737999183052 -3.161408084685797e-06
  outer loop
    vertex 13.201107562410145 6.311492576593034 2.250121933035104
    vertex 12.482344257108618 6.239893385456022 1.3065841526954668e-05
    vertex 14.500000000036193 6.440906776196739 1.3486753652353077e-05
  endloop
endfacet
facet normal 0.0991369391606898 -0.9950737999183052 -3.161408084685797e-06
  outer loop
    vertex 13.201107562410145 6.311492576593034 2.250121933035104
    vertex 14.500000000036193 6.440906776196739 1.3486753652353077e-05
    vertex 13.439464270082778 6.335240687519628 1.9394453350905423
  endloop
endfacet
facet normal 0.0991369391606898 -0.9950737999183052 -3.161408084685797e-06
  outer loop
    vertex 13.439464270082778 6.335240687519628 1.9394453350905423
    vertex 14.500000000036193 6.440906776196739 1.3486753652353077e-05
    vertex 13.750108206586805 6.366190283112594 1.7010459938056732
  endloop
endfacet
facet normal 0.0991369391606898 -0.9950737999183052 -3.161408084685797e-06
  outer loop
    vertex 13.750108206586805 6.366190283112594 1.7010459938056732
    vertex 14.500000000036193 6.440906776196739 1.3486753652353077e-05
    vertex 14.111869501012839 6.402232199578894 1.5511704303155185
  endloop
endfacet
facet normal 0.0991369391606898 -0.9950737999183052 -3.161408084685797e-06
  outer loop
    vertex 14.111869501012839 6.402232199578894 1.5511704303155185
    vertex 14.500000000036193 6.440906776196739 1.3486753652353077e-05
    vertex 14.50009883986479 6.440910864335932 1.5000324163063
  endloop
endfacet
facet normal 0.0991369391606898 -0.9950737999183052 -3.161408084685797e-06
  outer loop
    vertex 12.482687455131014 6.239907012358027 5.00001305404447
    vertex 13.05128169929372 6.296564344846848 2.6119036909067908
    vertex 13.000197065705912 6.291473326604506 3.0001357797792663
  endloop
endfacet
facet normal 0.0991369391606898 -0.9950737999183052 -3.161408084685797e-06
  outer loop
    vertex 12.482687455131014 6.239907012358027 5.00001305404447
    vertex 13.000197065705912 6.291473326604506 3.0001357797792663
    vertex 13.000197065703407 6.291473326604506 5.0000131620046195
  endloop
endfacet
facet normal -0.8876858985902712 -0.4604494994860678 6.218530916873699e-05
  outer loop
    vertex 24.000388959480127 3.630570012720845e-05 4.999999988227555
    vertex 23.066417993930962 1.7999338632499178 3.7689076832880806e-06
    vertex 24.00004576145773 2.2678798122838393e-05 2.4611257476436776e-11
  endloop
endfacet
facet normal -0.8876858985902712 -0.4604494994860678 6.218530916873699e-05
  outer loop
    vertex 23.066417993930962 1.7999338632499178 3.7689076832880806e-06
    vertex 24.000388959480127 3.630570012720845e-05 4.999999988227555
    vertex 23.066761191953347 1.7999474901519217 5.000003757110625
  endloop
endfacet
facet normal -4.6348087985471e-05 -2.2090687574014957e-07 -0.9999999989259031
  outer loop
    vertex 11.750000000003181 23.00000000002343 -2.5633495326360388e-12
    vertex 4.902229733261265e-11 -4.119380626337759e-16 -2.8660729345375557e-11
    vertex 3.2034819241744114e-12 23.000000000000014 -2.8660729345375557e-11
  endloop
endfacet
facet normal -4.6348087985471e-05 -2.2090687574014957e-07 -0.9999999989259031
  outer loop
    vertex 4.902229733261265e-11 -4.119380626337759e-16 -2.8660729345375557e-11
    vertex 11.750000000003181 23.00000000002343 -2.5633495326360388e-12
    vertex 4.999954238640339 2.267876023269464e-05 -1.7555701337101935e-11
  endloop
endfacet
facet normal -4.6348087985471e-05 -2.2090687574014957e-07 -0.9999999989259031
  outer loop
    vertex 4.999954238640339 2.267876023269464e-05 -1.7555701337101935e-11
    vertex 11.750000000003181 23.00000000002343 -2.5633495326360388e-12
    vertex 5.933582006159935 1.7999338632157542 3.768869664499963e-06
  endloop
endfacet
facet normal -4.6348087985471e-05 -2.2090687574014957e-07 -0.9999999989259031
  outer loop
    vertex 5.933582006159935 1.7999338632157542 3.768869664499963e-06
    vertex 11.750000000003181 23.00000000002343 -2.5633495326360388e-12
    vertex 7.203973823983419 3.380264749271628 7.077972200952853e-06
  endloop
endfacet
facet normal -4.6348087985471e-05 -2.2090687574014957e-07 -0.9999999989259031
  outer loop
    vertex 7.203973823983419 3.380264749271628 7.077972200952853e-06
    vertex 11.750000000003181 23.00000000002343 -2.5633495326360388e-12
    vertex 8.761187896794658 4.678889179835395 9.797202232020295e-06
  endloop
endfacet
facet normal -4.6348087985471e-05 -2.2090687574014957e-07 -0.9999999989259031
  outer loop
    vertex 8.761187896794658 4.678889179835395 9.797202232020295e-06
    vertex 11.750000000003181 23.00000000002343 -2.5633495326360388e-12
    vertex 11.000000000014271 17.440918115759324 -4.225014782477387e-12
  endloop
endfacet
facet normal -4.6348087985471e-05 -2.2090687574014957e-07 -0.9999999989259031
  outer loop
    vertex 8.761187896794658 4.678889179835395 9.797202232020295e-06
    vertex 11.000000000014271 17.440918115759324 -4.225014782477387e-12
    vertex 10.544006838432589 5.6447554757371 1.1819661056244878e-05
  endloop
endfacet
facet normal -4.6348087985471e-05 -2.2090687574014957e-07 -0.9999999989259031
  outer loop
    vertex 11.000000000014271 17.440918115759324 -4.225014782477387e-12
    vertex 11.750000000003181 23.00000000002343 -2.5633495326360388e-12
    vertex 11.75000000001427 17.440918115760805 -2.5640545242566756e-12
  endloop
endfacet
facet normal -4.6348087985471e-05 -2.2090687574014957e-07 -0.9999999989259031
  outer loop
    vertex 18.00068494552264 15.440912681895531 0.0005817749834796048
    vertex 17.25000000003223 8.440895436859261 2.697350988568048e-05
    vertex 17.250000000018254 15.440895436815824 3.23311081999289e-05
  endloop
endfacet
facet normal -4.6348087985471e-05 -2.2090687574014957e-07 -0.9999999989259031
  outer loop
    vertex 29.500000000003173 23.000000000058833 3.683017224531681e-11
    vertex 17.25000000001427 17.440895083772972 9.640055420589987e-12
    vertex 17.250000000003183 23.0000000000344 9.640055420589987e-12
  endloop
endfacet
facet normal -4.6348087985471e-05 -2.2090687574014957e-07 -0.9999999989259031
  outer loop
    vertex 17.25000000001427 17.440895083772972 9.640055420589987e-12
    vertex 29.500000000003173 23.000000000058833 3.683017224531681e-11
    vertex 18.00000000001427 17.440895083774464 1.1292555779363055e-11
  endloop
endfacet
facet normal -4.6348087985471e-05 -2.2090687574014957e-07 -0.9999999989259031
  outer loop
    vertex 18.00000000001427 17.440895083774464 1.1292555779363055e-11
    vertex 29.500000000003173 23.000000000058833 3.683017224531681e-11
    vertex 18.00068494552264 15.440912681895531 0.0005817749834796048
  endloop
endfacet
facet normal -4.6348087985471e-05 -2.2090687574014957e-07 -0.9999999989259031
  outer loop
    vertex 18.00068494552264 15.440912681895531 0.0005817749834796048
    vertex 29.500000000003173 23.000000000058833 3.683017224531681e-11
    vertex 18.455993161643 5.644755475752878 1.1819678615471173e-05
  endloop
endfacet
facet normal -4.6348087985471e-05 -2.2090687574014957e-07 -0.9999999989259031
  outer loop
    vertex 18.455993161643 5.644755475752878 1.1819678615471173e-05
    vertex 29.500000000003173 23.000000000058833 3.683017224531681e-11
    vertex 20.238812103284744 4.678889179858284 9.797227704072541e-06
  endloop
endfacet
facet normal -4.6348087985471e-05 -2.2090687574014957e-07 -0.9999999989259031
  outer loop
    vertex 20.238812103284744 4.678889179858284 9.797227704072541e-06
    vertex 29.500000000003173 23.000000000058833 3.683017224531681e-11
    vertex 21.796026176101194 3.3802647493007236 7.07800458615293e-06
  endloop
endfacet
facet normal -4.6348087985471e-05 -2.2090687574014957e-07 -0.9999999989259031
  outer loop
    vertex 21.796026176101194 3.3802647493007236 7.07800458615293e-06
    vertex 29.500000000003173 23.000000000058833 3.683017224531681e-11
    vertex 23.066417993930962 1.7999338632499178 3.7689076832880806e-06
  endloop
endfacet
facet normal -4.6348087985471e-05 -2.2090687574014957e-07 -0.9999999989259031
  outer loop
    vertex 23.066417993930962 1.7999338632499178 3.7689076832880806e-06
    vertex 29.500000000003173 23.000000000058833 3.683017224531681e-11
    vertex 24.00004576145773 2.2678798122838393e-05 2.4611257476436776e-11
  endloop
endfacet
facet normal -4.6348087985471e-05 -2.2090687574014957e-07 -0.9999999989259031
  outer loop
    vertex 24.00004576145773 2.2678798122838393e-05 2.4611257476436776e-11
    vertex 29.500000000003173 23.000000000058833 3.683017224531681e-11
    vertex 29.50000000004905 5.883820009347416e-11 3.683017224531681e-11
  endloop
endfacet
facet normal -4.6348087985471e-05 -2.2090687574014957e-07 -0.9999999989259031
  outer loop
    vertex 10.544006838432589 5.6447554757371 1.1819661056244878e-05
    vertex 11.750000000032239 8.440918115787237 2.6973497672405643e-05
    vertex 12.482344257108618 6.239893385456022 1.3065841526954668e-05
  endloop
endfacet
facet normal -4.6348087985471e-05 -2.2090687574014957e-07 -0.9999999989259031
  outer loop
    vertex 11.750000000032239 8.440918115787237 2.6973497672405643e-05
    vertex 10.544006838432589 5.6447554757371 1.1819661056244878e-05
    vertex 11.000684945522652 15.440912681881569 0.0005817749679627392
  endloop
endfacet
facet normal -4.6348087985471e-05 -2.2090687574014957e-07 -0.9999999989259031
  outer loop
    vertex 11.000684945522652 15.440912681881569 0.0005817749679627392
    vertex 10.544006838432589 5.6447554757371 1.1819661056244878e-05
    vertex 11.000000000014271 17.440918115759324 -4.225014782477387e-12
  endloop
endfacet
facet normal -4.6348087985471e-05 -2.2090687574014957e-07 -0.9999999989259031
  outer loop
    vertex 11.750000000032239 8.440918115787237 2.6973497672405643e-05
    vertex 11.000684945522652 15.440912681881569 0.0005817749679627392
    vertex 11.750000000018241 15.440918115743804 3.233109599017903e-05
  endloop
endfacet
facet normal -4.6348087985471e-05 -2.2090687574014957e-07 -0.9999999989259031
  outer loop
    vertex 12.482344257108618 6.239893385456022 1.3065841526954668e-05
    vertex 11.750000000032239 8.440918115787237 2.6973497672405643e-05
    vertex 17.25000000003223 8.440895436859261 2.697350988568048e-05
  endloop
endfacet
facet normal -4.6348087985471e-05 -2.2090687574014957e-07 -0.9999999989259031
  outer loop
    vertex 12.482344257108618 6.239893385456022 1.3065841526954668e-05
    vertex 17.25000000003223 8.440895436859261 2.697350988568048e-05
    vertex 14.500000000036193 6.440906776196739 1.3486753652353077e-05
  endloop
endfacet
facet normal -4.6348087985471e-05 -2.2090687574014957e-07 -0.9999999989259031
  outer loop
    vertex 14.500000000036193 6.440906776196739 1.3486753652353077e-05
    vertex 17.25000000003223 8.440895436859261 2.697350988568048e-05
    vertex 16.517655742964582 6.239893385464069 1.3065850482463226e-05
  endloop
endfacet
facet normal -4.6348087985471e-05 -2.2090687574014957e-07 -0.9999999989259031
  outer loop
    vertex 16.517655742964582 6.239893385464069 1.3065850482463226e-05
    vertex 17.25000000003223 8.440895436859261 2.697350988568048e-05
    vertex 18.455993161643 5.644755475752878 1.1819678615471173e-05
  endloop
endfacet
facet normal -4.6348087985471e-05 -2.2090687574014957e-07 -0.9999999989259031
  outer loop
    vertex 18.455993161643 5.644755475752878 1.1819678615471173e-05
    vertex 17.25000000003223 8.440895436859261 2.697350988568048e-05
    vertex 18.00068494552264 15.440912681895531 0.0005817749834796048
  endloop
endfacet
facet normal -0.6087069721100064 4.672495639548454e-06 0.7933951235562491
  outer loop
    vertex 15.560784608662468 6.3352422308051874 1.9392997284969866
    vertex 15.250116758066884 8.440915011228556 1.7009373793976226
    vertex 15.250108203066954 6.366191741690005 1.7009430343949847
  endloop
endfacet
facet normal -0.6087069721100064 4.672495639548454e-06 0.7933951235562491
  outer loop
    vertex 15.250116758066884 8.440915011228556 1.7009373793976226
    vertex 15.560784608662468 6.3352422308051874 1.9392997284969866
    vertex 15.560793291278276 8.440914379851959 1.939293989143395
  endloop
endfacet
facet normal -2.219725919106335e-12 -5.794452996981835e-25 1.0
  outer loop
    vertex 3.8227465637419296e-11 2.624331566945885 2.5033089999713383
    vertex 4.09197600001423 14.692024566954027 2.5033089999804248
    vertex 1.4212631072041404e-11 14.692024566945854 2.5033089999713383
  endloop
endfacet
facet normal -2.219725919106335e-12 -5.794452996981835e-25 1.0
  outer loop
    vertex 4.09197600001423 14.692024566954027 2.5033089999804248
    vertex 3.8227465637419296e-11 2.624331566945885 2.5033089999713383
    vertex 4.091976000038223 2.624331566954043 2.5033089999804248
  endloop
endfacet
facet normal 0.1305935569055095 2.295719896695395e-06 0.9914359903137959
  outer loop
    vertex 14.50009883986479 6.440910864335932 1.5000324163063
    vertex 14.111877907419698 8.44091929646037 1.5511648735406394
    vertex 14.111869501012839 6.402232199578894 1.5511704303155185
  endloop
endfacet
facet normal 0.1305935569055095 2.295719896695395e-06 0.9914359903137959
  outer loop
    vertex 14.111877907419698 8.44091929646037 1.5511648735406394
    vertex 14.50009883986479 6.440910864335932 1.5000324163063
    vertex 14.500102965897621 8.440917556252344 1.5000269652440394
  endloop
endfacet
facet normal 0.00016297157917629165 -1.1696499868041725e-05 0.9999999866517281
  outer loop
    vertex 0.000343198071441364 1.3626902003958121e-05 4.999999988174282
    vertex 4.09231919806618 2.624345193856045 5.003308988183365
    vertex 0.0003431980661849465 2.6243451938478897 5.00330898817428
  endloop
endfacet
facet normal 0.00016297157917629165 -1.1696499868041725e-05 0.9999999866517281
  outer loop
    vertex 4.09231919806618 2.624345193856045 5.003308988183365
    vertex 0.000343198071441364 1.3626902003958121e-05 4.999999988174282
    vertex 5.000297436662758 3.630566223706469e-05 4.999999988185391
  endloop
endfacet
facet normal 0.00016297157917629165 -1.1696499868041725e-05 0.9999999866517281
  outer loop
    vertex 10.544350036454984 5.6447691026391045 5.000011807864004
    vertex 11.001028143545037 15.440926308783574 5.000581763170909
    vertex 11.000343198036669 17.440931742661313 4.999999988198721
  endloop
endfacet
facet normal 0.00016297157917629165 -1.1696499868041725e-05 0.9999999866517281
  outer loop
    vertex 11.001028143545037 15.440926308783574 5.000581763170909
    vertex 10.544350036454984 5.6447691026391045 5.000011807864004
    vertex 11.750343198054614 8.440931742689243 5.000026961700612
  endloop
endfacet
facet normal 0.00016297157917629165 -1.1696499868041725e-05 0.9999999866517281
  outer loop
    vertex 11.750343198054614 8.440931742689243 5.000026961700612
    vertex 10.544350036454984 5.6447691026391045 5.000011807864004
    vertex 12.482687455131014 6.239907012358027 5.00001305404447
  endloop
endfacet
facet normal 0.00016297157917629165 -1.1696499868041725e-05 0.9999999866517281
  outer loop
    vertex 11.001028143545037 15.440926308783574 5.000581763170909
    vertex 11.750343198054614 8.440931742689243 5.000026961700612
    vertex 11.750343198040637 15.440931742645807 5.000032319298929
  endloop
endfacet
facet normal 0.00016297157917629165 -1.1696499868041725e-05 0.9999999866517281
  outer loop
    vertex 11.750343198054614 8.440931742689243 5.000026961700612
    vertex 12.482687455131014 6.239907012358027 5.00001305404447
    vertex 13.000205928853202 8.44092782976574 5.000026961703387
  endloop
endfacet
facet normal 0.00016297157917629165 -1.1696499868041725e-05 0.9999999866517281
  outer loop
    vertex 13.000205928853202 8.44092782976574 5.000026961703387
    vertex 12.482687455131014 6.239907012358027 5.00001305404447
    vertex 13.000197065703407 6.291473326604506 5.0000131620046195
  endloop
endfacet
facet normal 0.00016297157917629165 -1.1696499868041725e-05 0.9999999866517281
  outer loop
    vertex 0.00034319804215883205 14.692038193847841 5.00330898817428
    vertex 11.750343198025579 23.000013626925437 4.999999988200375
    vertex 0.0003431980255999889 23.000013626902003 4.999999988174282
  endloop
endfacet
facet normal 0.00016297157917629165 -1.1696499868041725e-05 0.9999999866517281
  outer loop
    vertex 11.750343198025579 23.000013626925437 4.999999988200375
    vertex 0.00034319804215883205 14.692038193847841 5.00330898817428
    vertex 4.092319198042176 14.69203819385605 5.003308988183365
  endloop
endfacet
facet normal 0.00016297157917629165 -1.1696499868041725e-05 0.9999999866517281
  outer loop
    vertex 11.750343198025579 23.000013626925437 4.999999988200375
    vertex 4.092319198042176 14.69203819385605 5.003308988183365
    vertex 4.09231919806618 2.624345193856045 5.003308988183365
  endloop
endfacet
facet normal 0.00016297157917629165 -1.1696499868041725e-05 0.9999999866517281
  outer loop
    vertex 11.750343198025579 23.000013626925437 4.999999988200375
    vertex 4.09231919806618 2.624345193856045 5.003308988183365
    vertex 5.000297436662758 3.630566223706469e-05 4.999999988185391
  endloop
endfacet
facet normal 0.00016297157917629165 -1.1696499868041725e-05 0.9999999866517281
  outer loop
    vertex 11.750343198025579 23.000013626925437 4.999999988200375
    vertex 5.000297436662758 3.630566223706469e-05 4.999999988185391
    vertex 5.933925204182354 1.7999474901177586 5.000003757072605
  endloop
endfacet
facet normal 0.00016297157917629165 -1.1696499868041725e-05 0.9999999866517281
  outer loop
    vertex 11.750343198025579 23.000013626925437 4.999999988200375
    vertex 5.933925204182354 1.7999474901177586 5.000003757072605
    vertex 7.204317022005815 3.380278376173631 5.0000070661751455
  endloop
endfacet
facet normal 0.00016297157917629165 -1.1696499868041725e-05 0.9999999866517281
  outer loop
    vertex 11.750343198025579 23.000013626925437 4.999999988200375
    vertex 7.204317022005815 3.380278376173631 5.0000070661751455
    vertex 8.761531094817053 4.6789028067374 5.000009785405175
  endloop
endfacet
facet normal 0.00016297157917629165 -1.1696499868041725e-05 0.9999999866517281
  outer loop
    vertex 11.750343198025579 23.000013626925437 4.999999988200375
    vertex 8.761531094817053 4.6789028067374 5.000009785405175
    vertex 11.000343198036669 17.440931742661313 4.999999988198721
  endloop
endfacet
facet normal 0.00016297157917629165 -1.1696499868041725e-05 0.9999999866517281
  outer loop
    vertex 11.000343198036669 17.440931742661313 4.999999988198721
    vertex 8.761531094817053 4.6789028067374 5.000009785405175
    vertex 10.544350036454984 5.6447691026391045 5.000011807864004
  endloop
endfacet
facet normal 0.00016297157917629165 -1.1696499868041725e-05 0.9999999866517281
  outer loop
    vertex 11.750343198025579 23.000013626925437 4.999999988200375
    vertex 11.000343198036669 17.440931742661313 4.999999988198721
    vertex 11.750343198036667 17.44093174266281 4.999999988200375
  endloop
endfacet
facet normal -0.9999999999914988 4.123441450902629e-06 -1.250680471879252e-12
  outer loop
    vertex 16.000205921750467 8.440915458880154 5.000026961710052
    vertex 16.000197058661023 6.291474979700178 2.9999298609613225
    vertex 16.000197058658518 6.291474979700178 5.000013162071682
  endloop
endfacet
facet normal -0.9999999999914988 4.123441450902629e-06 -1.250680471879252e-12
  outer loop
    vertex 16.000197058661023 6.291474979700178 2.9999298609613225
    vertex 16.000205921750467 8.440915458880154 5.000026961710052
    vertex 16.000205921752972 8.440915458880154 2.999924002309998
  endloop
endfacet
facet normal 4.155338778559396e-06 -3.012910624101504e-06 0.9999999999868279
  outer loop
    vertex 16.517998940986978 6.239907012366074 5.000013054053427
    vertex 16.000205921750467 8.440915458880154 5.000026961710052
    vertex 16.000197058658518 6.291474979700178 5.000013162071682
  endloop
endfacet
facet normal 4.155338778559396e-06 -3.012910624101504e-06 0.9999999999868279
  outer loop
    vertex 16.000205921750467 8.440915458880154 5.000026961710052
    vertex 16.517998940986978 6.239907012366074 5.000013054053427
    vertex 17.250343198054615 8.440909063761266 5.0000269617128295
  endloop
endfacet
facet normal 4.155338778559396e-06 -3.012910624101504e-06 0.9999999999868279
  outer loop
    vertex 17.250343198054615 8.440909063761266 5.0000269617128295
    vertex 16.517998940986978 6.239907012366074 5.000013054053427
    vertex 18.456336359665396 5.644769102654883 5.000011807881558
  endloop
endfacet
facet normal 4.155338778559396e-06 -3.012910624101504e-06 0.9999999999868279
  outer loop
    vertex 17.250343198054615 8.440909063761266 5.0000269617128295
    vertex 18.456336359665396 5.644769102654883 5.000011807881558
    vertex 18.001028143545025 15.440926308797536 5.000581763186424
  endloop
endfacet
facet normal 4.155338778559396e-06 -3.012910624101504e-06 0.9999999999868279
  outer loop
    vertex 17.250343198036667 17.440908710674975 4.999999988212583
    vertex 29.50034319802557 23.000013626960836 4.999999988239772
    vertex 17.25034319802558 23.000013626936404 4.999999988212583
  endloop
endfacet
facet normal 4.155338778559396e-06 -3.012910624101504e-06 0.9999999999868279
  outer loop
    vertex 29.50034319802557 23.000013626960836 4.999999988239772
    vertex 17.250343198036667 17.440908710674975 4.999999988212583
    vertex 18.000343198036667 17.440908710676453 4.9999999882142365
  endloop
endfacet
facet normal 4.155338778559396e-06 -3.012910624101504e-06 0.9999999999868279
  outer loop
    vertex 29.50034319802557 23.000013626960836 4.999999988239772
    vertex 18.000343198036667 17.440908710676453 4.9999999882142365
    vertex 18.001028143545025 15.440926308797536 5.000581763186424
  endloop
endfacet
facet normal 4.155338778559396e-06 -3.012910624101504e-06 0.9999999999868279
  outer loop
    vertex 29.50034319802557 23.000013626960836 4.999999988239772
    vertex 18.001028143545025 15.440926308797536 5.000581763186424
    vertex 18.456336359665396 5.644769102654883 5.000011807881558
  endloop
endfacet
facet normal 4.155338778559396e-06 -3.012910624101504e-06 0.9999999999868279
  outer loop
    vertex 29.50034319802557 23.000013626960836 4.999999988239772
    vertex 18.456336359665396 5.644769102654883 5.000011807881558
    vertex 20.239155301307143 4.678902806760288 5.000009785430646
  endloop
endfacet
facet normal 4.155338778559396e-06 -3.012910624101504e-06 0.9999999999868279
  outer loop
    vertex 29.50034319802557 23.000013626960836 4.999999988239772
    vertex 20.239155301307143 4.678902806760288 5.000009785430646
    vertex 21.796369374123593 3.3802783762027273 5.000007066207534
  endloop
endfacet
facet normal 4.155338778559396e-06 -3.012910624101504e-06 0.9999999999868279
  outer loop
    vertex 29.50034319802557 23.000013626960836 4.999999988239772
    vertex 21.796369374123593 3.3802783762027273 5.000007066207534
    vertex 23.066761191953347 1.7999474901519217 5.000003757110625
  endloop
endfacet
facet normal 4.155338778559396e-06 -3.012910624101504e-06 0.9999999999868279
  outer loop
    vertex 29.50034319802557 23.000013626960836 4.999999988239772
    vertex 23.066761191953347 1.7999474901519217 5.000003757110625
    vertex 24.000388959480127 3.630570012720845e-05 4.999999988227555
  endloop
endfacet
facet normal 4.155338778559396e-06 -3.012910624101504e-06 0.9999999999868279
  outer loop
    vertex 29.50034319802557 23.000013626960836 4.999999988239772
    vertex 24.000388959480127 3.630570012720845e-05 4.999999988227555
    vertex 29.500343198071445 1.362696084257015e-05 4.999999988239772
  endloop
endfacet
facet normal 4.155338778559396e-06 -3.012910624101504e-06 0.9999999999868279
  outer loop
    vertex 18.001028143545025 15.440926308797536 5.000581763186424
    vertex 17.25034319804065 15.440909063717827 5.000032319311144
    vertex 17.250343198054615 8.440909063761266 5.0000269617128295
  endloop
endfacet
facet normal -0.09913536835667092 -0.995073956390407 7.370882537430664e-06
  outer loop
    vertex 16.517655742964582 6.239893385464069 1.3065850482463226e-05
    vertex 15.799183767663125 6.311494183114471 2.2499436021071775
    vertex 14.500000000036193 6.440906776196739 1.3486753652353077e-05
  endloop
endfacet
facet normal -0.09913536835667092 -0.995073956390407 7.370882537430664e-06
  outer loop
    vertex 15.799183767663125 6.311494183114471 2.2499436021071775
    vertex 16.517655742964582 6.239893385464069 1.3065850482463226e-05
    vertex 15.949059171356266 6.296565988822469 2.6117047886022964
  endloop
endfacet
facet normal -0.09913536835667092 -0.995073956390407 7.370882537430664e-06
  outer loop
    vertex 15.949059171356266 6.296565988822469 2.6117047886022964
    vertex 16.517655742964582 6.239893385464069 1.3065850482463226e-05
    vertex 16.517998940986978 6.239907012366074 5.000013054053427
  endloop
endfacet
facet normal -0.09913536835667092 -0.995073956390407 7.370882537430664e-06
  outer loop
    vertex 14.500000000036193 6.440906776196739 1.3486753652353077e-05
    vertex 15.799183767663125 6.311494183114471 2.2499436021071775
    vertex 15.560784608662468 6.3352422308051874 1.9392997284969866
  endloop
endfacet
facet normal -0.09913536835667092 -0.995073956390407 7.370882537430664e-06
  outer loop
    vertex 14.500000000036193 6.440906776196739 1.3486753652353077e-05
    vertex 15.560784608662468 6.3352422308051874 1.9392997284969866
    vertex 15.250108203066954 6.366191741690005 1.7009430343949847
  endloop
endfacet
facet normal -0.09913536835667092 -0.995073956390407 7.370882537430664e-06
  outer loop
    vertex 14.500000000036193 6.440906776196739 1.3486753652353077e-05
    vertex 15.250108203066954 6.366191741690005 1.7009430343949847
    vertex 14.888326634507292 6.402233557747968 1.551117134552346
  endloop
endfacet
facet normal -0.09913536835667092 -0.995073956390407 7.370882537430664e-06
  outer loop
    vertex 14.500000000036193 6.440906776196739 1.3486753652353077e-05
    vertex 14.888326634507292 6.402233557747968 1.551117134552346
    vertex 14.50009883986479 6.440910864335932 1.5000324163063
  endloop
endfacet
facet normal -0.09913536835667092 -0.995073956390407 7.370882537430664e-06
  outer loop
    vertex 15.949059171356266 6.296565988822469 2.6117047886022964
    vertex 16.517998940986978 6.239907012366074 5.000013054053427
    vertex 16.000197058661023 6.291474979700178 2.9999298609613225
  endloop
endfacet
facet normal -0.09913536835667092 -0.995073956390407 7.370882537430664e-06
  outer loop
    vertex 16.000197058661023 6.291474979700178 2.9999298609613225
    vertex 16.517998940986978 6.239907012366074 5.000013054053427
    vertex 16.000197058658518 6.291474979700178 5.000013162071682
  endloop
endfacet
facet normal 0.9999999999914988 -4.1234414491771486e-06 1.2507796248801677e-12
  outer loop
    vertex 13.000205928855705 8.44092782976574 3.0001299210897154
    vertex 13.000197065703407 6.291473326604506 5.0000131620046195
    vertex 13.000197065705912 6.291473326604506 3.0001357797792663
  endloop
endfacet
facet normal 0.9999999999914988 -4.1234414491771486e-06 1.2507796248801677e-12
  outer loop
    vertex 13.000197065703407 6.291473326604506 5.0000131620046195
    vertex 13.000205928855705 8.44092782976574 3.0001299210897154
    vertex 13.000205928853202 8.44092782976574 5.000026961703387
  endloop
endfacet
endsolid sd_spacer
