solid sd_spacer
facet normal -0.9999999888314005 0.00014945634398666634 -1.4904031811642027e-08
  outer loop
    vertex 16.7658374720876 12.509400693047722 4.990444120066026
    vertex 16.767405433071506 22.999998846435673 -0.009556036236607349
    vertex 16.765837546596487 12.5094006185401 -0.009555879933937021
  endloop
endfacet
facet normal -0.9999999888314005 0.00014945634398666634 -1.4904031811642027e-08
  outer loop
    vertex 16.767405433071506 22.999998846435673 -0.009556036236607349
    vertex 16.7658374720876 12.509400693047722 4.990444120066026
    vertex 16.767405358562385 22.99999892094335 4.990443963763343
  endloop
endfacet
facet normal 0.9999999888513859 -0.0001493225639055606 1.490402573520192e-08
  outer loop
    vertex 10.767405433071536 22.999999259223866 -0.009556125647563021
    vertex 10.765837471440694 12.49999810583594 4.990444030795193
    vertex 10.765837545949601 12.49999803132832 -0.009555969204774905
  endloop
endfacet
facet normal 0.9999999888513859 -0.0001493225639055606 1.490402573520192e-08
  outer loop
    vertex 10.765837471440694 12.49999810583594 4.990444030795193
    vertex 10.767405433071536 22.999999259223866 -0.009556125647563021
    vertex 10.767405358562447 22.99999933373154 4.990443874352387
  endloop
endfacet
facet normal -0.0015670959442282964 0.999998772104397 -1.4924859888925027e-08
  outer loop
    vertex 10.765837471440694 12.49999810583594 4.990444030795193
    vertex 16.765837546596487 12.5094006185401 -0.009555879933937021
    vertex 10.765837545949601 12.49999803132832 -0.009555969204774905
  endloop
endfacet
facet normal -0.0015670959442282964 0.999998772104397 -1.4924859888925027e-08
  outer loop
    vertex 16.765837546596487 12.5094006185401 -0.009555879933937021
    vertex 10.765837471440694 12.49999810583594 4.990444030795193
    vertex 16.7658374720876 12.509400693047722 4.990444120066026
  endloop
endfacet
facet normal -6.879803607221543e-08 -0.9999999999999977 1.4901532838542636e-08
  outer loop
    vertex 26.400001420682745 21.375666666706156 3.3404441315116515
    vertex 22.17542924681158 21.375666981935954 4.9904440685578315
    vertex 22.175429271399537 21.37566695734842 3.3404440685578294
  endloop
endfacet
facet normal -6.879803607221543e-08 -0.9999999999999977 1.4901532838542636e-08
  outer loop
    vertex 22.17542924681158 21.375666981935954 4.9904440685578315
    vertex 26.400001420682745 21.375666666706156 3.3404441315116515
    vertex 26.40000139609481 21.37566669129369 4.99044413151166
  endloop
endfacet
facet normal -1.4901820077730168e-08 1.4901533863758655e-08 0.9999999999999999
  outer loop
    vertex 26.400000521651123 8.307973666706149 3.3404443262403225
    vertex 22.175429271399537 21.37566695734842 3.3404440685578294
    vertex 22.175428372367914 8.307973957348402 3.3404442632864955
  endloop
endfacet
facet normal -1.4901820077730168e-08 1.4901533863758655e-08 0.9999999999999999
  outer loop
    vertex 22.175429271399537 21.37566695734842 3.3404440685578294
    vertex 26.400000521651123 8.307973666706149 3.3404443262403225
    vertex 26.400001420682745 21.375666666706156 3.3404441315116515
  endloop
endfacet
facet normal 6.87980355184095e-08 0.9999999999999977 -1.4901532838542646e-08
  outer loop
    vertex 22.17542834777996 8.307973981935957 4.990444263286492
    vertex 26.400000521651123 8.307973666706149 3.3404443262403225
    vertex 22.175428372367914 8.307973957348402 3.3404442632864955
  endloop
endfacet
facet normal 6.87980355184095e-08 0.9999999999999977 -1.4901532838542646e-08
  outer loop
    vertex 26.400000521651123 8.307973666706149 3.3404443262403225
    vertex 22.17542834777996 8.307973981935957 4.990444263286492
    vertex 26.400000497063143 8.30797369129366 4.990444326240326
  endloop
endfacet
facet normal 0.9999999999999976 -6.879803585015551e-08 1.490182110292638e-08
  outer loop
    vertex 22.175429271399537 21.37566695734842 3.3404440685578294
    vertex 22.17542834777996 8.307973981935957 4.990444263286492
    vertex 22.175428372367914 8.307973957348402 3.3404442632864955
  endloop
endfacet
facet normal 0.9999999999999976 -6.879803585015551e-08 1.490182110292638e-08
  outer loop
    vertex 22.17542834777996 8.307973981935957 4.990444263286492
    vertex 22.175429271399537 21.37566695734842 3.3404440685578294
    vertex 22.17542924681158 21.375666981935954 4.9904440685578315
  endloop
endfacet
facet normal -8.86129847449476e-05 -0.00013803788503530335 -0.9999999865466407
  outer loop
    vertex 1.5846011759730183e-06 22.999999992369748 -0.0095562861013799
    vertex -4.999998417645176 20.000000000000053 -0.009556263637860395
    vertex -4.999998417645176 23.000000000000053 -0.009556263637860395
  endloop
endfacet
facet normal -8.86129847449476e-05 -0.00013803788503530335 -0.9999999865466407
  outer loop
    vertex -4.999998417645176 20.000000000000053 -0.009556263637860395
    vertex 1.5846011759730183e-06 22.999999992369748 -0.0095562861013799
    vertex 1.5823548240312402e-06 20.000000000000053 -0.009556286101379811
  endloop
endfacet
facet normal -8.86129847449476e-05 -0.00013803788503530335 -0.9999999865466407
  outer loop
    vertex 10.767405433071536 22.999999259223866 -0.009556125647563021
    vertex 10.765837545949601 12.49999803132832 -0.009555969204774905
    vertex 3.000001584601176 22.999999992369748 -0.009556286101379811
  endloop
endfacet
facet normal -8.86129847449476e-05 -0.00013803788503530335 -0.9999999865466407
  outer loop
    vertex 26.400001584609026 27.999998176101617 -0.009555968996361493
    vertex 23.400001584609026 22.999998176101617 -0.009555892693313525
    vertex 23.400001584609026 27.999998176101617 -0.009555968996361405
  endloop
endfacet
facet normal -8.86129847449476e-05 -0.00013803788503530335 -0.9999999865466407
  outer loop
    vertex 23.400001584609026 22.999998176101617 -0.009555892693313525
    vertex 26.400001584609026 27.999998176101617 -0.009555968996361493
    vertex 26.399999999999906 2.9999981837318956 -0.00955554995805509
  endloop
endfacet
facet normal -8.86129847449476e-05 -0.00013803788503530335 -0.9999999865466407
  outer loop
    vertex 23.400001584609026 22.999998176101617 -0.009555892693313525
    vertex 26.399999999999906 2.9999981837318956 -0.00955554995805509
    vertex 26.399999992548995 -1.8361649839194405e-06 -0.009555549958054736
  endloop
endfacet
facet normal -8.86129847449476e-05 -0.00013803788503530335 -0.9999999865466407
  outer loop
    vertex 26.399999999999906 2.9999981837318956 -0.00955554995805509
    vertex 26.400001584609026 27.999998176101617 -0.009555968996361493
    vertex 26.400001582354722 19.999998183731922 -0.009555892693313525
  endloop
endfacet
facet normal -8.86129847449476e-05 -0.00013803788503530335 -0.9999999865466407
  outer loop
    vertex 26.400001582354722 19.999998183731922 -0.009555892693313525
    vertex 26.400001584609026 27.999998176101617 -0.009555968996361493
    vertex 26.400001584609026 22.999998176101617 -0.009555892693313613
  endloop
endfacet
facet normal -8.86129847449476e-05 -0.00013803788503530335 -0.9999999865466407
  outer loop
    vertex 26.400001582354722 19.999998183731922 -0.009555892693313525
    vertex 26.400001584609026 22.999998176101617 -0.009555892693313613
    vertex 31.400001582354722 19.999998183731922 -0.009555915236351183
  endloop
endfacet
facet normal -8.86129847449476e-05 -0.00013803788503530335 -0.9999999865466407
  outer loop
    vertex 31.400001582354722 19.999998183731922 -0.009555915236351183
    vertex 26.400001584609026 22.999998176101617 -0.009555892693313613
    vertex 31.400001582354722 22.999998183731922 -0.009555915236351183
  endloop
endfacet
facet normal -8.86129847449476e-05 -0.00013803788503530335 -0.9999999865466407
  outer loop
    vertex 26.399999999999906 2.9999981837318956 -0.00955554995805509
    vertex 31.39999999999991 -1.8162681046485217e-06 -0.009555475448957088
    vertex 26.399999992548995 -1.8361649839194405e-06 -0.009555549958054736
  endloop
endfacet
facet normal -8.86129847449476e-05 -0.00013803788503530335 -0.9999999865466407
  outer loop
    vertex 31.39999999999991 -1.8162681046485217e-06 -0.009555475448957088
    vertex 26.399999999999906 2.9999981837318956 -0.00955554995805509
    vertex 31.39999999999991 2.9999981837318956 -0.009555475448957088
  endloop
endfacet
facet normal -8.86129847449476e-05 -0.00013803788503530335 -0.9999999865466407
  outer loop
    vertex 3.000001584601176 27.99999999236975 -0.009556362404427692
    vertex 1.5846011759730183e-06 22.999999992369748 -0.0095562861013799
    vertex 1.5846011759730183e-06 27.99999999236975 -0.00955636240442778
  endloop
endfacet
facet normal -8.86129847449476e-05 -0.00013803788503530335 -0.9999999865466407
  outer loop
    vertex 1.5846011759730183e-06 22.999999992369748 -0.0095562861013799
    vertex 3.000001584601176 27.99999999236975 -0.009556362404427692
    vertex 3.0 0.0 0.0
  endloop
endfacet
facet normal -8.86129847449476e-05 -0.00013803788503530335 -0.9999999865466407
  outer loop
    vertex 3.0 0.0 0.0
    vertex 3.000001584601176 27.99999999236975 -0.009556362404427692
    vertex 3.000001584601176 22.999999992369748 -0.009556286101379811
  endloop
endfacet
facet normal -8.86129847449476e-05 -0.00013803788503530335 -0.9999999865466407
  outer loop
    vertex 3.0 0.0 0.0
    vertex 3.000001584601176 22.999999992369748 -0.009556286101379811
    vertex 10.765837545949601 12.49999803132832 -0.009555969204774905
  endloop
endfacet
facet normal -8.86129847449476e-05 -0.00013803788503530335 -0.9999999865466407
  outer loop
    vertex 3.0 0.0 0.0
    vertex 10.765837545949601 12.49999803132832 -0.009555969204774905
    vertex 23.399999992548995 -1.8361649839194405e-06 -0.00955554995805465
  endloop
endfacet
facet normal -8.86129847449476e-05 -0.00013803788503530335 -0.9999999865466407
  outer loop
    vertex 23.399999992548995 -1.8361649839194405e-06 -0.00955554995805465
    vertex 10.765837545949601 12.49999803132832 -0.009555969204774905
    vertex 16.765837546596487 12.5094006185401 -0.009555879933937021
  endloop
endfacet
facet normal -8.86129847449476e-05 -0.00013803788503530335 -0.9999999865466407
  outer loop
    vertex 23.399999992548995 -1.8361649839194405e-06 -0.00955554995805465
    vertex 16.765837546596487 12.5094006185401 -0.009555879933937021
    vertex 16.767405433071506 22.999998846435673 -0.009556036236607349
  endloop
endfacet
facet normal -8.86129847449476e-05 -0.00013803788503530335 -0.9999999865466407
  outer loop
    vertex 23.399999992548995 -1.8361649839194405e-06 -0.00955554995805465
    vertex 16.767405433071506 22.999998846435673 -0.009556036236607349
    vertex 23.400001584609026 22.999998176101617 -0.009555892693313525
  endloop
endfacet
facet normal -8.86129847449476e-05 -0.00013803788503530335 -0.9999999865466407
  outer loop
    vertex 23.399999992548995 -1.8361649839194405e-06 -0.00955554995805465
    vertex 23.400001584609026 22.999998176101617 -0.009555892693313525
    vertex 23.399999992548995 -5.00000183616498 -0.00955535098926194
  endloop
endfacet
facet normal -8.86129847449476e-05 -0.00013803788503530335 -0.9999999865466407
  outer loop
    vertex 23.399999992548995 -5.00000183616498 -0.00955535098926194
    vertex 23.400001584609026 22.999998176101617 -0.009555892693313525
    vertex 26.399999992548995 -5.00000183616498 -0.009555350989262027
  endloop
endfacet
facet normal -8.86129847449476e-05 -0.00013803788503530335 -0.9999999865466407
  outer loop
    vertex 26.399999992548995 -5.00000183616498 -0.009555350989262027
    vertex 23.400001584609026 22.999998176101617 -0.009555892693313525
    vertex 26.399999992548995 -1.8361649839194405e-06 -0.009555549958054736
  endloop
endfacet
facet normal -8.86129847449476e-05 -0.00013803788503530335 -0.9999999865466407
  outer loop
    vertex 1.762479051592436e-16 3.0000000000000733 -0.009555943366125254
    vertex -5.0 7.331912854624528e-14 -0.009556017875230402
    vertex -5.0 3.0000000000000733 -0.009556017875230402
  endloop
endfacet
facet normal -8.86129847449476e-05 -0.00013803788503530335 -0.9999999865466407
  outer loop
    vertex -5.0 7.331912854624528e-14 -0.009556017875230402
    vertex 1.762479051592436e-16 3.0000000000000733 -0.009555943366125254
    vertex 0.0 0.0 0.0
  endloop
endfacet
facet normal -8.86129847449476e-05 -0.00013803788503530335 -0.9999999865466407
  outer loop
    vertex 0.0 0.0 0.0
    vertex 1.762479051592436e-16 3.0000000000000733 -0.009555943366125254
    vertex 2.3278084339124575e-08 -4.999999999999998 1.4376438948503666e-07
  endloop
endfacet
facet normal -8.86129847449476e-05 -0.00013803788503530335 -0.9999999865466407
  outer loop
    vertex 2.3278084339124575e-08 -4.999999999999998 1.4376438948503666e-07
    vertex 1.762479051592436e-16 3.0000000000000733 -0.009555943366125254
    vertex 1.5823548240312402e-06 20.000000000000053 -0.009556286101379811
  endloop
endfacet
facet normal -8.86129847449476e-05 -0.00013803788503530335 -0.9999999865466407
  outer loop
    vertex 2.3278084339124575e-08 -4.999999999999998 1.4376438948503666e-07
    vertex 1.5823548240312402e-06 20.000000000000053 -0.009556286101379811
    vertex 3.000000023278085 -4.999999999999998 1.4376438948503666e-07
  endloop
endfacet
facet normal -8.86129847449476e-05 -0.00013803788503530335 -0.9999999865466407
  outer loop
    vertex 3.000000023278085 -4.999999999999998 1.4376438948503666e-07
    vertex 1.5823548240312402e-06 20.000000000000053 -0.009556286101379811
    vertex 1.5846011759730183e-06 22.999999992369748 -0.0095562861013799
  endloop
endfacet
facet normal -8.86129847449476e-05 -0.00013803788503530335 -0.9999999865466407
  outer loop
    vertex 3.000000023278085 -4.999999999999998 1.4376438948503666e-07
    vertex 1.5846011759730183e-06 22.999999992369748 -0.0095562861013799
    vertex 3.0 0.0 0.0
  endloop
endfacet
facet normal -1.490182058823276e-08 1.490153501812709e-08 0.9999999999999999
  outer loop
    vertex -7.45090625069571e-08 7.450769389347423e-08 4.990444056633814
    vertex 10.765837471440694 12.49999810583594 4.990444030795193
    vertex 1.5078457610836632e-06 23.00000007450773 4.990443713898566
  endloop
endfacet
facet normal -1.490182058823276e-08 1.490153501812709e-08 0.9999999999999999
  outer loop
    vertex 10.765837471440694 12.49999810583594 4.990444030795193
    vertex -7.45090625069571e-08 7.450769389347423e-08 4.990444056633814
    vertex 26.399999925490807 -1.7417604389547125e-06 4.990444450041886
  endloop
endfacet
facet normal -1.490182058823276e-08 1.490153501812709e-08 0.9999999999999999
  outer loop
    vertex 10.765837471440694 12.49999810583594 4.990444030795193
    vertex 26.399999925490807 -1.7417604389547125e-06 4.990444450041886
    vertex 16.7658374720876 12.509400693047722 4.990444120066026
  endloop
endfacet
facet normal -1.490182058823276e-08 1.490153501812709e-08 0.9999999999999999
  outer loop
    vertex 16.7658374720876 12.509400693047722 4.990444120066026
    vertex 26.399999925490807 -1.7417604389547125e-06 4.990444450041886
    vertex 22.17542834777996 8.307973981935957 4.990444263286492
  endloop
endfacet
facet normal -1.490182058823276e-08 1.490153501812709e-08 0.9999999999999999
  outer loop
    vertex 16.7658374720876 12.509400693047722 4.990444120066026
    vertex 22.17542834777996 8.307973981935957 4.990444263286492
    vertex 16.767405358562385 22.99999892094335 4.990443963763343
  endloop
endfacet
facet normal -1.490182058823276e-08 1.490153501812709e-08 0.9999999999999999
  outer loop
    vertex 22.17542834777996 8.307973981935957 4.990444263286492
    vertex 26.399999925490807 -1.7417604389547125e-06 4.990444450041886
    vertex 26.400000497063143 8.30797369129366 4.990444326240326
  endloop
endfacet
facet normal -1.490182058823276e-08 1.490153501812709e-08 0.9999999999999999
  outer loop
    vertex 16.767405358562385 22.99999892094335 4.990443963763343
    vertex 22.17542924681158 21.375666981935954 4.9904440685578315
    vertex 26.40000150784564 22.999998258239597 4.990444107306632
  endloop
endfacet
facet normal -1.490182058823276e-08 1.490153501812709e-08 0.9999999999999999
  outer loop
    vertex 22.17542924681158 21.375666981935954 4.9904440685578315
    vertex 16.767405358562385 22.99999892094335 4.990443963763343
    vertex 22.17542834777996 8.307973981935957 4.990444263286492
  endloop
endfacet
facet normal -1.490182058823276e-08 1.490153501812709e-08 0.9999999999999999
  outer loop
    vertex 26.40000150784564 22.999998258239597 4.990444107306632
    vertex 22.17542924681158 21.375666981935954 4.9904440685578315
    vertex 26.40000139609481 21.37566669129369 4.99044413151166
  endloop
endfacet
facet normal -1.490182058823276e-08 1.490153501812709e-08 0.9999999999999999
  outer loop
    vertex 10.767405358562447 22.99999933373154 4.990443874352387
    vertex 1.5078457610836632e-06 23.00000007450773 4.990443713898566
    vertex 10.765837471440694 12.49999810583594 4.990444030795193
  endloop
endfacet
facet normal -7.630305132029348e-10 1.0 -7.630304786288756e-09
  outer loop
    vertex 26.400001584609026 22.999998176101617 -0.009555892693313613
    vertex 31.400001584609026 22.999998183731922 0.49044408476364876
    vertex 31.400001582354722 22.999998183731922 -0.009555915236351183
  endloop
endfacet
facet normal -7.630305132029348e-10 1.0 -7.630304786288756e-09
  outer loop
    vertex 31.400001584609026 22.999998183731922 0.49044408476364876
    vertex 26.400001584609026 22.999998176101617 -0.009555892693313613
    vertex 26.400001584609026 22.999998183731922 0.4904441073066864
  endloop
endfacet
facet normal -0.9999999999999969 7.761386062088366e-08 -1.548952687825697e-08
  outer loop
    vertex -7.45090625069571e-08 7.450769389347423e-08 4.990444056633814
    vertex -7.450910338505656e-09 3.0000000000000733 0.4904440566338747
    vertex -7.450910338505657e-09 7.331912854624534e-14 0.4904440566338748
  endloop
endfacet
facet normal -0.9999999999999969 7.761386062088366e-08 -1.548952687825697e-08
  outer loop
    vertex -7.450910338505656e-09 3.0000000000000733 0.4904440566338747
    vertex -7.45090625069571e-08 7.450769389347423e-08 4.990444056633814
    vertex 1.5078457610836632e-06 23.00000007450773 4.990443713898566
  endloop
endfacet
facet normal -0.9999999999999969 7.761386062088366e-08 -1.548952687825697e-08
  outer loop
    vertex -7.450910338505656e-09 3.0000000000000733 0.4904440566338747
    vertex 1.5078457610836632e-06 23.00000007450773 4.990443713898566
    vertex 1.762479051592436e-16 3.0000000000000733 -0.009555943366125254
  endloop
endfacet
facet normal -0.9999999999999969 7.761386062088366e-08 -1.548952687825697e-08
  outer loop
    vertex 1.762479051592436e-16 3.0000000000000733 -0.009555943366125254
    vertex 1.5078457610836632e-06 23.00000007450773 4.990443713898566
    vertex 1.5846011759730183e-06 20.000000000000053 0.4904437138986201
  endloop
endfacet
facet normal -0.9999999999999969 7.761386062088366e-08 -1.548952687825697e-08
  outer loop
    vertex 1.5846011759730183e-06 20.000000000000053 0.4904437138986201
    vertex 1.5078457610836632e-06 23.00000007450773 4.990443713898566
    vertex 1.5846011759730183e-06 23.000000000000053 0.4904437138986201
  endloop
endfacet
facet normal -0.9999999999999969 7.761386062088366e-08 -1.548952687825697e-08
  outer loop
    vertex 1.5823548240312402e-06 20.000000000000053 -0.009556286101379811
    vertex 1.762479051592436e-16 3.0000000000000733 -0.009555943366125254
    vertex 1.5846011759730183e-06 20.000000000000053 0.4904437138986201
  endloop
endfacet
facet normal -1.0 -2.1066164871569637e-37 4.492703883556197e-09
  outer loop
    vertex -4.9999984153988235 23.000000000000053 0.4904437363621396
    vertex -4.999998417645176 20.000000000000053 -0.009556263637860395
    vertex -4.9999984153988235 20.000000000000053 0.4904437363621396
  endloop
endfacet
facet normal -1.0 -2.1066164871569637e-37 4.492703883556197e-09
  outer loop
    vertex -4.999998417645176 20.000000000000053 -0.009556263637860395
    vertex -4.9999984153988235 23.000000000000053 0.4904437363621396
    vertex -4.999998417645176 23.000000000000053 -0.009556263637860395
  endloop
endfacet
facet normal 2.106616487156964e-37 -1.0 -9.464404073013605e-46
  outer loop
    vertex 1.5846011759730183e-06 20.000000000000053 0.4904437138986201
    vertex -4.999998417645176 20.000000000000053 -0.009556263637860395
    vertex 1.5823548240312402e-06 20.000000000000053 -0.009556286101379811
  endloop
endfacet
facet normal 2.106616487156964e-37 -1.0 -9.464404073013605e-46
  outer loop
    vertex -4.999998417645176 20.000000000000053 -0.009556263637860395
    vertex 1.5846011759730183e-06 20.000000000000053 0.4904437138986201
    vertex -4.9999984153988235 20.000000000000053 0.4904437363621396
  endloop
endfacet
facet normal 4.492703890163208e-09 -0.0 1.0
  outer loop
    vertex 1.5846011759730183e-06 20.000000000000053 0.4904437138986201
    vertex -4.9999984153988235 23.000000000000053 0.4904437363621396
    vertex -4.9999984153988235 20.000000000000053 0.4904437363621396
  endloop
endfacet
facet normal 4.492703890163208e-09 -0.0 1.0
  outer loop
    vertex -4.9999984153988235 23.000000000000053 0.4904437363621396
    vertex 1.5846011759730183e-06 20.000000000000053 0.4904437138986201
    vertex 1.5846011759730183e-06 23.000000000000053 0.4904437138986201
  endloop
endfacet
facet normal -1.0 -1.0256542289374685e-29 -1.490182102950712e-08
  outer loop
    vertex -5.00000000745091 3.0000000000000733 0.4904439821247696
    vertex -5.0 7.331912854624528e-14 -0.009556017875230402
    vertex -5.00000000745091 7.331912854624528e-14 0.49044398212476964
  endloop
endfacet
facet normal -1.0 -1.0256542289374685e-29 -1.490182102950712e-08
  outer loop
    vertex -5.0 7.331912854624528e-14 -0.009556017875230402
    vertex -5.00000000745091 3.0000000000000733 0.4904439821247696
    vertex -5.0 3.0000000000000733 -0.009556017875230402
  endloop
endfacet
facet normal -1.490182102811821e-08 2.9374651676944554e-17 1.0
  outer loop
    vertex -7.450910338505657e-09 7.331912854624534e-14 0.4904440566338748
    vertex -5.00000000745091 3.0000000000000733 0.4904439821247696
    vertex -5.00000000745091 7.331912854624528e-14 0.49044398212476964
  endloop
endfacet
facet normal -1.490182102811821e-08 2.9374651676944554e-17 1.0
  outer loop
    vertex -5.00000000745091 3.0000000000000733 0.4904439821247696
    vertex -7.450910338505657e-09 7.331912854624534e-14 0.4904440566338748
    vertex -7.450910338505656e-09 3.0000000000000733 0.4904440566338747
  endloop
endfacet
facet normal -1.0256542289374683e-29 1.0 -1.5284115757783279e-37
  outer loop
    vertex -5.00000000745091 3.0000000000000733 0.4904439821247696
    vertex 1.762479051592436e-16 3.0000000000000733 -0.009555943366125254
    vertex -5.0 3.0000000000000733 -0.009556017875230402
  endloop
endfacet
facet normal -1.0256542289374683e-29 1.0 -1.5284115757783279e-37
  outer loop
    vertex 1.762479051592436e-16 3.0000000000000733 -0.009555943366125254
    vertex -5.00000000745091 3.0000000000000733 0.4904439821247696
    vertex -7.450910338505656e-09 3.0000000000000733 0.4904440566338747
  endloop
endfacet
facet normal 0.9999999999999971 -7.594544926697987e-08 1.868074333209963e-08
  outer loop
    vertex 26.400001582354722 19.999998183731922 -0.009555892693313525
    vertex 26.399999992548995 2.9999981837318956 0.49044445004194487
    vertex 26.399999999999906 2.9999981837318956 -0.00955554995805509
  endloop
endfacet
facet normal 0.9999999999999971 -7.594544926697987e-08 1.868074333209963e-08
  outer loop
    vertex 26.399999992548995 2.9999981837318956 0.49044445004194487
    vertex 26.400001582354722 19.999998183731922 -0.009555892693313525
    vertex 26.400000521651123 8.307973666706149 3.3404443262403225
  endloop
endfacet
facet normal 0.9999999999999971 -7.594544926697987e-08 1.868074333209963e-08
  outer loop
    vertex 26.400000521651123 8.307973666706149 3.3404443262403225
    vertex 26.400001582354722 19.999998183731922 -0.009555892693313525
    vertex 26.400001584609026 19.999998183731922 0.4904441073066864
  endloop
endfacet
facet normal 0.9999999999999971 -7.594544926697987e-08 1.868074333209963e-08
  outer loop
    vertex 26.400000521651123 8.307973666706149 3.3404443262403225
    vertex 26.400001584609026 19.999998183731922 0.4904441073066864
    vertex 26.400001420682745 21.375666666706156 3.3404441315116515
  endloop
endfacet
facet normal 0.9999999999999971 -7.594544926697987e-08 1.868074333209963e-08
  outer loop
    vertex 26.400001420682745 21.375666666706156 3.3404441315116515
    vertex 26.400001584609026 19.999998183731922 0.4904441073066864
    vertex 26.400001584609026 22.999998183731922 0.4904441073066864
  endloop
endfacet
facet normal 0.9999999999999971 -7.594544926697987e-08 1.868074333209963e-08
  outer loop
    vertex 26.400001420682745 21.375666666706156 3.3404441315116515
    vertex 26.400001584609026 22.999998183731922 0.4904441073066864
    vertex 26.40000139609481 21.37566669129369 4.99044413151166
  endloop
endfacet
facet normal 0.9999999999999971 -7.594544926697987e-08 1.868074333209963e-08
  outer loop
    vertex 26.40000139609481 21.37566669129369 4.99044413151166
    vertex 26.400001584609026 22.999998183731922 0.4904441073066864
    vertex 26.40000150784564 22.999998258239597 4.990444107306632
  endloop
endfacet
facet normal 0.9999999999999971 -7.594544926697987e-08 1.868074333209963e-08
  outer loop
    vertex 26.399999992548995 2.9999981837318956 0.49044445004194487
    vertex 26.399999925490807 -1.7417604389547125e-06 4.990444450041886
    vertex 26.399999992548995 -1.8162681046485217e-06 0.490444450041945
  endloop
endfacet
facet normal 0.9999999999999971 -7.594544926697987e-08 1.868074333209963e-08
  outer loop
    vertex 26.399999925490807 -1.7417604389547125e-06 4.990444450041886
    vertex 26.399999992548995 2.9999981837318956 0.49044445004194487
    vertex 26.400000497063143 8.30797369129366 4.990444326240326
  endloop
endfacet
facet normal 0.9999999999999971 -7.594544926697987e-08 1.868074333209963e-08
  outer loop
    vertex 26.400000497063143 8.30797369129366 4.990444326240326
    vertex 26.399999992548995 2.9999981837318956 0.49044445004194487
    vertex 26.400000521651123 8.307973666706149 3.3404443262403225
  endloop
endfacet
facet normal 1.0 0.0 -4.508607531761299e-09
  outer loop
    vertex 31.400001582354722 22.999998183731922 -0.009555915236351183
    vertex 31.400001584609026 19.999998183731922 0.49044408476364876
    vertex 31.400001582354722 19.999998183731922 -0.009555915236351183
  endloop
endfacet
facet normal 1.0 0.0 -4.508607531761299e-09
  outer loop
    vertex 31.400001584609026 19.999998183731922 0.49044408476364876
    vertex 31.400001582354722 22.999998183731922 -0.009555915236351183
    vertex 31.400001584609026 22.999998183731922 0.49044408476364876
  endloop
endfacet
facet normal 4.508607531761297e-09 -0.0 1.0
  outer loop
    vertex 31.400001584609026 19.999998183731922 0.49044408476364876
    vertex 26.400001584609026 22.999998183731922 0.4904441073066864
    vertex 26.400001584609026 19.999998183731922 0.4904441073066864
  endloop
endfacet
facet normal 4.508607531761297e-09 -0.0 1.0
  outer loop
    vertex 26.400001584609026 22.999998183731922 0.4904441073066864
    vertex 31.400001584609026 19.999998183731922 0.49044408476364876
    vertex 31.400001584609026 22.999998183731922 0.49044408476364876
  endloop
endfacet
facet normal -0.0 -1.0 0.0
  outer loop
    vertex 31.400001584609026 19.999998183731922 0.49044408476364876
    vertex 26.400001582354722 19.999998183731922 -0.009555892693313525
    vertex 31.400001582354722 19.999998183731922 -0.009555915236351183
  endloop
endfacet
facet normal -0.0 -1.0 0.0
  outer loop
    vertex 26.400001582354722 19.999998183731922 -0.009555892693313525
    vertex 31.400001584609026 19.999998183731922 0.49044408476364876
    vertex 26.400001584609026 19.999998183731922 0.4904441073066864
  endloop
endfacet
facet normal 1.0 2.316351666192091e-25 1.4901819600510177e-08
  outer loop
    vertex 31.39999999999991 2.9999981837318956 -0.009555475448957088
    vertex 31.399999992549 -1.8162681046485217e-06 0.490444524551043
    vertex 31.39999999999991 -1.8162681046485217e-06 -0.009555475448957088
  endloop
endfacet
facet normal 1.0 2.316351666192091e-25 1.4901819600510177e-08
  outer loop
    vertex 31.399999992549 -1.8162681046485217e-06 0.490444524551043
    vertex 31.39999999999991 2.9999981837318956 -0.009555475448957088
    vertex 31.399999992549 2.9999981837318956 0.49044452455104287
  endloop
endfacet
facet normal -2.3163516661920904e-25 1.0 -3.4517854660935704e-33
  outer loop
    vertex 26.399999992548995 2.9999981837318956 0.49044445004194487
    vertex 31.39999999999991 2.9999981837318956 -0.009555475448957088
    vertex 26.399999999999906 2.9999981837318956 -0.00955554995805509
  endloop
endfacet
facet normal -2.3163516661920904e-25 1.0 -3.4517854660935704e-33
  outer loop
    vertex 31.39999999999991 2.9999981837318956 -0.009555475448957088
    vertex 26.399999992548995 2.9999981837318956 0.49044445004194487
    vertex 31.399999992549 2.9999981837318956 0.49044452455104287
  endloop
endfacet
facet normal -1.4901819600510174e-08 2.9374650750444825e-17 1.0
  outer loop
    vertex 31.399999992549 -1.8162681046485217e-06 0.490444524551043
    vertex 26.399999992548995 2.9999981837318956 0.49044445004194487
    vertex 26.399999992548995 -1.8162681046485217e-06 0.490444450041945
  endloop
endfacet
facet normal -1.4901819600510174e-08 2.9374650750444825e-17 1.0
  outer loop
    vertex 26.399999992548995 2.9999981837318956 0.49044445004194487
    vertex 31.399999992549 -1.8162681046485217e-06 0.490444524551043
    vertex 31.399999992549 2.9999981837318956 0.49044452455104287
  endloop
endfacet
facet normal 1.9896876305921753e-09 -0.9999999999999998 1.9896879285743793e-08
  outer loop
    vertex 31.39999999999991 -1.8162681046485217e-06 -0.009555475448957088
    vertex 26.399999992548995 -1.8162681046485217e-06 0.490444450041945
    vertex 26.399999992548995 -1.8361649839194405e-06 -0.009555549958054736
  endloop
endfacet
facet normal 1.9896876305921753e-09 -0.9999999999999998 1.9896879285743793e-08
  outer loop
    vertex 26.399999992548995 -1.8162681046485217e-06 0.490444450041945
    vertex 31.39999999999991 -1.8162681046485217e-06 -0.009555475448957088
    vertex 31.399999992549 -1.8162681046485217e-06 0.490444524551043
  endloop
endfacet
facet normal 6.185576082217208e-25 -0.9999999999999993 3.979375854183763e-08
  outer loop
    vertex 26.399999992548995 -5.000001816268101 0.4904446490107377
    vertex 23.399999992548995 -5.00000183616498 -0.00955535098926194
    vertex 26.399999992548995 -5.00000183616498 -0.009555350989262027
  endloop
endfacet
facet normal 6.185576082217208e-25 -0.9999999999999993 3.979375854183763e-08
  outer loop
    vertex 23.399999992548995 -5.00000183616498 -0.00955535098926194
    vertex 26.399999992548995 -5.000001816268101 0.4904446490107377
    vertex 23.399999992548995 -5.000001816268101 0.4904446490107377
  endloop
endfacet
facet normal 1.0 6.185576082217202e-25 -2.461473210579175e-32
  outer loop
    vertex 26.399999992548995 -1.8361649839194405e-06 -0.009555549958054736
    vertex 26.399999992548995 -5.000001816268101 0.4904446490107377
    vertex 26.399999992548995 -5.00000183616498 -0.009555350989262027
  endloop
endfacet
facet normal 1.0 6.185576082217202e-25 -2.461473210579175e-32
  outer loop
    vertex 26.399999992548995 -5.000001816268101 0.4904446490107377
    vertex 26.399999992548995 -1.8361649839194405e-06 -0.009555549958054736
    vertex 26.399999992548995 -1.8162681046485217e-06 0.490444450041945
  endloop
endfacet
facet normal 0.0 3.979375854183762e-08 0.9999999999999992
  outer loop
    vertex 26.399999992548995 -5.000001816268101 0.4904446490107377
    vertex 23.399999992548995 -1.8162681046485217e-06 0.490444450041945
    vertex 23.399999992548995 -5.000001816268101 0.4904446490107377
  endloop
endfacet
facet normal 0.0 3.979375854183762e-08 0.9999999999999992
  outer loop
    vertex 23.399999992548995 -1.8162681046485217e-06 0.490444450041945
    vertex 26.399999992548995 -5.000001816268101 0.4904446490107377
    vertex 26.399999992548995 -1.8162681046485217e-06 0.490444450041945
  endloop
endfacet
facet normal -1.0 -6.185576082217201e-25 2.4614732105791754e-32
  outer loop
    vertex 23.399999992548995 -5.000001816268101 0.4904446490107377
    vertex 23.399999992548995 -1.8361649839194405e-06 -0.00955554995805465
    vertex 23.399999992548995 -5.00000183616498 -0.00955535098926194
  endloop
endfacet
facet normal -1.0 -6.185576082217201e-25 2.4614732105791754e-32
  outer loop
    vertex 23.399999992548995 -1.8361649839194405e-06 -0.00955554995805465
    vertex 23.399999992548995 -5.000001816268101 0.4904446490107377
    vertex 23.399999992548995 -1.8162681046485217e-06 0.490444450041945
  endloop
endfacet
facet normal -7.68011675079831e-08 -0.9999999999999971 1.5946311511016306e-08
  outer loop
    vertex 26.399999925490807 -1.7417604389547125e-06 4.990444450041886
    vertex 23.399999992548995 -1.8162681046485217e-06 0.490444450041945
    vertex 26.399999992548995 -1.8162681046485217e-06 0.490444450041945
  endloop
endfacet
facet normal -7.68011675079831e-08 -0.9999999999999971 1.5946311511016306e-08
  outer loop
    vertex 23.399999992548995 -1.8162681046485217e-06 0.490444450041945
    vertex 26.399999925490807 -1.7417604389547125e-06 4.990444450041886
    vertex 3.0 2.8208535398540253e-08 0.49999999999999917
  endloop
endfacet
facet normal -7.68011675079831e-08 -0.9999999999999971 1.5946311511016306e-08
  outer loop
    vertex 3.0 2.8208535398540253e-08 0.49999999999999917
    vertex 26.399999925490807 -1.7417604389547125e-06 4.990444450041886
    vertex -7.45090625069571e-08 7.450769389347423e-08 4.990444056633814
  endloop
endfacet
facet normal -7.68011675079831e-08 -0.9999999999999971 1.5946311511016306e-08
  outer loop
    vertex -7.45090625069571e-08 7.450769389347423e-08 4.990444056633814
    vertex -7.450910338505657e-09 7.331912854624534e-14 0.4904440566338748
    vertex 3.0 2.8208535398540253e-08 0.49999999999999917
  endloop
endfacet
facet normal -7.68011675079831e-08 -0.9999999999999971 1.5946311511016306e-08
  outer loop
    vertex 23.399999992548995 -1.8162681046485217e-06 0.490444450041945
    vertex 3.0 0.0 0.0
    vertex 23.399999992548995 -1.8361649839194405e-06 -0.00955554995805465
  endloop
endfacet
facet normal -7.68011675079831e-08 -0.9999999999999971 1.5946311511016306e-08
  outer loop
    vertex 3.0 0.0 0.0
    vertex 23.399999992548995 -1.8162681046485217e-06 0.490444450041945
    vertex 3.0 2.8208535398540253e-08 0.49999999999999917
  endloop
endfacet
facet normal -7.401964248309003e-15 -1.0 7.330547964656244e-14
  outer loop
    vertex 0.0 0.0 0.0
    vertex -5.00000000745091 7.331912854624528e-14 0.49044398212476964
    vertex -5.0 7.331912854624528e-14 -0.009556017875230402
  endloop
endfacet
facet normal -7.401964248309003e-15 -1.0 7.330547964656244e-14
  outer loop
    vertex -5.00000000745091 7.331912854624528e-14 0.49044398212476964
    vertex 0.0 0.0 0.0
    vertex -7.450910338505657e-09 7.331912854624534e-14 0.4904440566338748
  endloop
endfacet
facet normal 4.655616867824915e-09 -0.9999999999999998 2.8752877897007332e-08
  outer loop
    vertex 3.000000023278085 -4.999999971791463 0.5000001437643887
    vertex 2.3278084339124575e-08 -4.999999999999998 1.4376438948503666e-07
    vertex 3.000000023278085 -4.999999999999998 1.4376438948503666e-07
  endloop
endfacet
facet normal 4.655616867824915e-09 -0.9999999999999998 2.8752877897007332e-08
  outer loop
    vertex 2.3278084339124575e-08 -4.999999999999998 1.4376438948503666e-07
    vertex 3.000000023278085 -4.999999971791463 0.5000001437643887
    vertex 1.582717400061892e-08 -4.999999999999925 0.4904442003982643
  endloop
endfacet
facet normal -0.00318529828812334 2.8737902503048818e-08 0.9999949269245395
  outer loop
    vertex 1.582717400061892e-08 -4.999999999999925 0.4904442003982643
    vertex 3.0 2.8208535398540253e-08 0.49999999999999917
    vertex -7.450910338505657e-09 7.331912854624534e-14 0.4904440566338748
  endloop
endfacet
facet normal -0.00318529828812334 2.8737902503048818e-08 0.9999949269245395
  outer loop
    vertex 3.0 2.8208535398540253e-08 0.49999999999999917
    vertex 1.582717400061892e-08 -4.999999999999925 0.4904442003982643
    vertex 3.000000023278085 -4.999999971791463 0.5000001437643887
  endloop
endfacet
facet normal -1.0 -4.6556173046435745e-09 -1.5192171742571553e-08
  outer loop
    vertex 1.582717400061892e-08 -4.999999999999925 0.4904442003982643
    vertex 0.0 0.0 0.0
    vertex 2.3278084339124575e-08 -4.999999999999998 1.4376438948503666e-07
  endloop
endfacet
facet normal -1.0 -4.6556173046435745e-09 -1.5192171742571553e-08
  outer loop
    vertex 0.0 0.0 0.0
    vertex 1.582717400061892e-08 -4.999999999999925 0.4904442003982643
    vertex -7.450910338505657e-09 7.331912854624534e-14 0.4904440566338748
  endloop
endfacet
facet normal 1.0 4.655616867824909e-09 -2.6265626643616057e-16
  outer loop
    vertex 3.0 0.0 0.0
    vertex 3.000000023278085 -4.999999971791463 0.5000001437643887
    vertex 3.000000023278085 -4.999999999999998 1.4376438948503666e-07
  endloop
endfacet
facet normal 1.0 4.655616867824909e-09 -2.6265626643616057e-16
  outer loop
    vertex 3.000000023278085 -4.999999971791463 0.5000001437643887
    vertex 3.0 0.0 0.0
    vertex 3.0 2.8208535398540253e-08 0.49999999999999917
  endloop
endfacet
facet normal 7.369071856508181e-08 0.9999999999999967 -3.702506797203168e-08
  outer loop
    vertex 16.767405358562385 22.99999892094335 4.990443963763343
    vertex 23.400001584609026 22.999998176101617 -0.009555892693313525
    vertex 16.767405433071506 22.999998846435673 -0.009556036236607349
  endloop
endfacet
facet normal 7.369071856508181e-08 0.9999999999999967 -3.702506797203168e-08
  outer loop
    vertex 23.400001584609026 22.999998176101617 -0.009555892693313525
    vertex 16.767405358562385 22.99999892094335 4.990443963763343
    vertex 23.400001584609026 22.999998183731922 0.4904441073066864
  endloop
endfacet
facet normal 7.369071856508181e-08 0.9999999999999967 -3.702506797203168e-08
  outer loop
    vertex 23.400001584609026 22.999998183731922 0.4904441073066864
    vertex 16.767405358562385 22.99999892094335 4.990443963763343
    vertex 26.400001584609026 22.999998183731922 0.4904441073066864
  endloop
endfacet
facet normal 7.369071856508181e-08 0.9999999999999967 -3.702506797203168e-08
  outer loop
    vertex 26.400001584609026 22.999998183731922 0.4904441073066864
    vertex 16.767405358562385 22.99999892094335 4.990443963763343
    vertex 26.40000150784564 22.999998258239597 4.990444107306632
  endloop
endfacet
facet normal 7.286039646057465e-08 0.9999999999999973 4.878509826714462e-09
  outer loop
    vertex 1.5078457610836632e-06 23.00000007450773 4.990443713898566
    vertex 3.000001584601176 23.000000000000053 0.4904437138986201
    vertex 1.5846011759730183e-06 23.000000000000053 0.4904437138986201
  endloop
endfacet
facet normal 7.286039646057465e-08 0.9999999999999973 4.878509826714462e-09
  outer loop
    vertex 3.000001584601176 23.000000000000053 0.4904437138986201
    vertex 10.767405433071536 22.999999259223866 -0.009556125647563021
    vertex 3.000001584601176 22.999999992369748 -0.009556286101379811
  endloop
endfacet
facet normal 7.286039646057465e-08 0.9999999999999973 4.878509826714462e-09
  outer loop
    vertex 10.767405433071536 22.999999259223866 -0.009556125647563021
    vertex 3.000001584601176 23.000000000000053 0.4904437138986201
    vertex 10.767405358562447 22.99999933373154 4.990443874352387
  endloop
endfacet
facet normal 7.286039646057465e-08 0.9999999999999973 4.878509826714462e-09
  outer loop
    vertex 10.767405358562447 22.99999933373154 4.990443874352387
    vertex 3.000001584601176 23.000000000000053 0.4904437138986201
    vertex 1.5078457610836632e-06 23.00000007450773 4.990443713898566
  endloop
endfacet
facet normal 7.630304445201857e-10 1.0 -7.63030478972289e-09
  outer loop
    vertex -4.999998417645176 23.000000000000053 -0.009556263637860395
    vertex 1.5846011759730183e-06 23.000000000000053 0.4904437138986201
    vertex 1.5846011759730183e-06 22.999999992369748 -0.0095562861013799
  endloop
endfacet
facet normal 7.630304445201857e-10 1.0 -7.63030478972289e-09
  outer loop
    vertex 1.5846011759730183e-06 23.000000000000053 0.4904437138986201
    vertex -4.999998417645176 23.000000000000053 -0.009556263637860395
    vertex -4.9999984153988235 23.000000000000053 0.4904437363621396
  endloop
endfacet
facet normal -2.372122288831457e-25 1.0 -1.5260609576017713e-08
  outer loop
    vertex 23.400001584609026 27.999998176101617 -0.009555968996361405
    vertex 26.400001584609026 27.999998183731922 0.49044403100363854
    vertex 26.400001584609026 27.999998176101617 -0.009555968996361493
  endloop
endfacet
facet normal -2.372122288831457e-25 1.0 -1.5260609576017713e-08
  outer loop
    vertex 26.400001584609026 27.999998183731922 0.49044403100363854
    vertex 23.400001584609026 27.999998176101617 -0.009555968996361405
    vertex 23.400001584609026 27.999998183731922 0.49044403100363854
  endloop
endfacet
facet normal -1.0 -2.3721222888314564e-25 3.620003211642638e-33
  outer loop
    vertex 23.400001584609026 22.999998183731922 0.4904441073066864
    vertex 23.400001584609026 27.999998176101617 -0.009555968996361405
    vertex 23.400001584609026 22.999998176101617 -0.009555892693313525
  endloop
endfacet
facet normal -1.0 -2.3721222888314564e-25 3.620003211642638e-33
  outer loop
    vertex 23.400001584609026 27.999998176101617 -0.009555968996361405
    vertex 23.400001584609026 22.999998183731922 0.4904441073066864
    vertex 23.400001584609026 27.999998183731922 0.49044403100363854
  endloop
endfacet
facet normal -0.0 1.526060957601771e-08 0.9999999999999999
  outer loop
    vertex 26.400001584609026 22.999998183731922 0.4904441073066864
    vertex 23.400001584609026 27.999998183731922 0.49044403100363854
    vertex 23.400001584609026 22.999998183731922 0.4904441073066864
  endloop
endfacet
facet normal -0.0 1.526060957601771e-08 0.9999999999999999
  outer loop
    vertex 23.400001584609026 27.999998183731922 0.49044403100363854
    vertex 26.400001584609026 22.999998183731922 0.4904441073066864
    vertex 26.400001584609026 27.999998183731922 0.49044403100363854
  endloop
endfacet
facet normal 1.0 2.3721222888314564e-25 -3.6200032116426376e-33
  outer loop
    vertex 26.400001584609026 27.999998176101617 -0.009555968996361493
    vertex 26.400001584609026 22.999998183731922 0.4904441073066864
    vertex 26.400001584609026 22.999998176101617 -0.009555892693313613
  endloop
endfacet
facet normal 1.0 2.3721222888314564e-25 -3.6200032116426376e-33
  outer loop
    vertex 26.400001584609026 22.999998183731922 0.4904441073066864
    vertex 26.400001584609026 27.999998176101617 -0.009555968996361493
    vertex 26.400001584609026 27.999998183731922 0.49044403100363854
  endloop
endfacet
facet normal 1.1860622488894714e-25 1.0 -1.5260609576017713e-08
  outer loop
    vertex 1.5846011759730183e-06 28.000000000000057 0.49044363759557225
    vertex 3.000001584601176 27.99999999236975 -0.009556362404427692
    vertex 1.5846011759730183e-06 27.99999999236975 -0.00955636240442778
  endloop
endfacet
facet normal 1.1860622488894714e-25 1.0 -1.5260609576017713e-08
  outer loop
    vertex 3.000001584601176 27.99999999236975 -0.009556362404427692
    vertex 1.5846011759730183e-06 28.000000000000057 0.49044363759557225
    vertex 3.000001584601176 28.000000000000057 0.49044363759557225
  endloop
endfacet
facet normal -1.0 1.1860622488894712e-25 -1.8100032913155766e-33
  outer loop
    vertex 1.5846011759730183e-06 23.000000000000053 0.4904437138986201
    vertex 1.5846011759730183e-06 27.99999999236975 -0.00955636240442778
    vertex 1.5846011759730183e-06 22.999999992369748 -0.0095562861013799
  endloop
endfacet
facet normal -1.0 1.1860622488894712e-25 -1.8100032913155766e-33
  outer loop
    vertex 1.5846011759730183e-06 27.99999999236975 -0.00955636240442778
    vertex 1.5846011759730183e-06 23.000000000000053 0.4904437138986201
    vertex 1.5846011759730183e-06 28.000000000000057 0.49044363759557225
  endloop
endfacet
facet normal -0.0 1.526060957601771e-08 0.9999999999999999
  outer loop
    vertex 3.000001584601176 23.000000000000053 0.4904437138986201
    vertex 1.5846011759730183e-06 28.000000000000057 0.49044363759557225
    vertex 1.5846011759730183e-06 23.000000000000053 0.4904437138986201
  endloop
endfacet
facet normal -0.0 1.526060957601771e-08 0.9999999999999999
  outer loop
    vertex 1.5846011759730183e-06 28.000000000000057 0.49044363759557225
    vertex 3.000001584601176 23.000000000000053 0.4904437138986201
    vertex 3.000001584601176 28.000000000000057 0.49044363759557225
  endloop
endfacet
facet normal 1.0 -1.1860622488894712e-25 1.810003291315577e-33
  outer loop
    vertex 3.000001584601176 27.99999999236975 -0.009556362404427692
    vertex 3.000001584601176 23.000000000000053 0.4904437138986201
    vertex 3.000001584601176 22.999999992369748 -0.009556286101379811
  endloop
endfacet
facet normal 1.0 -1.1860622488894712e-25 1.810003291315577e-33
  outer loop
    vertex 3.000001584601176 23.000000000000053 0.4904437138986201
    vertex 3.000001584601176 27.99999999236975 -0.009556362404427692
    vertex 3.000001584601176 28.000000000000057 0.49044363759557225
  endloop
endfacet
endsolid sd_spacer
